%TF.GenerationSoftware,KiCad,Pcbnew,9.0.1*%
%TF.CreationDate,2025-04-25T01:04:06-07:00*%
%TF.ProjectId,microcouple,6d696372-6f63-46f7-9570-6c652e6b6963,rev?*%
%TF.SameCoordinates,Original*%
%TF.FileFunction,Paste,Top*%
%TF.FilePolarity,Positive*%
%FSLAX46Y46*%
G04 Gerber Fmt 4.6, Leading zero omitted, Abs format (unit mm)*
G04 Created by KiCad (PCBNEW 9.0.1) date 2025-04-25 01:04:06*
%MOMM*%
%LPD*%
G01*
G04 APERTURE LIST*
G04 Aperture macros list*
%AMRoundRect*
0 Rectangle with rounded corners*
0 $1 Rounding radius*
0 $2 $3 $4 $5 $6 $7 $8 $9 X,Y pos of 4 corners*
0 Add a 4 corners polygon primitive as box body*
4,1,4,$2,$3,$4,$5,$6,$7,$8,$9,$2,$3,0*
0 Add four circle primitives for the rounded corners*
1,1,$1+$1,$2,$3*
1,1,$1+$1,$4,$5*
1,1,$1+$1,$6,$7*
1,1,$1+$1,$8,$9*
0 Add four rect primitives between the rounded corners*
20,1,$1+$1,$2,$3,$4,$5,0*
20,1,$1+$1,$4,$5,$6,$7,0*
20,1,$1+$1,$6,$7,$8,$9,0*
20,1,$1+$1,$8,$9,$2,$3,0*%
%AMFreePoly0*
4,1,14,0.314644,0.085355,0.385355,0.014644,0.400000,-0.020711,0.400000,-0.050000,0.385355,-0.085355,0.350000,-0.100000,-0.350000,-0.100000,-0.385355,-0.085355,-0.400000,-0.050000,-0.400000,0.050000,-0.385355,0.085355,-0.350000,0.100000,0.279289,0.100000,0.314644,0.085355,0.314644,0.085355,$1*%
%AMFreePoly1*
4,1,14,0.385355,0.085355,0.400000,0.050000,0.400000,0.020711,0.385355,-0.014644,0.314644,-0.085355,0.279289,-0.100000,-0.350000,-0.100000,-0.385355,-0.085355,-0.400000,-0.050000,-0.400000,0.050000,-0.385355,0.085355,-0.350000,0.100000,0.350000,0.100000,0.385355,0.085355,0.385355,0.085355,$1*%
%AMFreePoly2*
4,1,14,0.085355,0.385355,0.100000,0.350000,0.100000,-0.350000,0.085355,-0.385355,0.050000,-0.400000,-0.050000,-0.400000,-0.085355,-0.385355,-0.100000,-0.350000,-0.100000,0.279289,-0.085355,0.314644,-0.014644,0.385355,0.020711,0.400000,0.050000,0.400000,0.085355,0.385355,0.085355,0.385355,$1*%
%AMFreePoly3*
4,1,14,0.014644,0.385355,0.085355,0.314644,0.100000,0.279289,0.100000,-0.350000,0.085355,-0.385355,0.050000,-0.400000,-0.050000,-0.400000,-0.085355,-0.385355,-0.100000,-0.350000,-0.100000,0.350000,-0.085355,0.385355,-0.050000,0.400000,-0.020711,0.400000,0.014644,0.385355,0.014644,0.385355,$1*%
%AMFreePoly4*
4,1,14,0.385355,0.085355,0.400000,0.050000,0.400000,-0.050000,0.385355,-0.085355,0.350000,-0.100000,-0.279289,-0.100000,-0.314644,-0.085355,-0.385355,-0.014644,-0.400000,0.020711,-0.400000,0.050000,-0.385355,0.085355,-0.350000,0.100000,0.350000,0.100000,0.385355,0.085355,0.385355,0.085355,$1*%
%AMFreePoly5*
4,1,14,0.385355,0.085355,0.400000,0.050000,0.400000,-0.050000,0.385355,-0.085355,0.350000,-0.100000,-0.350000,-0.100000,-0.385355,-0.085355,-0.400000,-0.050000,-0.400000,-0.020711,-0.385355,0.014644,-0.314644,0.085355,-0.279289,0.100000,0.350000,0.100000,0.385355,0.085355,0.385355,0.085355,$1*%
%AMFreePoly6*
4,1,14,0.085355,0.385355,0.100000,0.350000,0.100000,-0.279289,0.085355,-0.314644,0.014644,-0.385355,-0.020711,-0.400000,-0.050000,-0.400000,-0.085355,-0.385355,-0.100000,-0.350000,-0.100000,0.350000,-0.085355,0.385355,-0.050000,0.400000,0.050000,0.400000,0.085355,0.385355,0.085355,0.385355,$1*%
%AMFreePoly7*
4,1,14,0.085355,0.385355,0.100000,0.350000,0.100000,-0.350000,0.085355,-0.385355,0.050000,-0.400000,0.020711,-0.400000,-0.014644,-0.385355,-0.085355,-0.314644,-0.100000,-0.279289,-0.100000,0.350000,-0.085355,0.385355,-0.050000,0.400000,0.050000,0.400000,0.085355,0.385355,0.085355,0.385355,$1*%
G04 Aperture macros list end*
%ADD10R,0.950000X0.300000*%
%ADD11R,1.500000X0.700000*%
%ADD12R,0.800000X1.000000*%
%ADD13RoundRect,0.250000X0.070711X1.343503X-1.343503X-0.070711X-0.070711X-1.343503X1.343503X0.070711X0*%
%ADD14R,1.270000X0.500000*%
%ADD15R,1.400000X0.900000*%
%ADD16RoundRect,0.079500X0.127279X0.014849X0.014849X0.127279X-0.127279X-0.014849X-0.014849X-0.127279X0*%
%ADD17R,1.700000X0.900000*%
%ADD18RoundRect,0.140000X0.140000X0.170000X-0.140000X0.170000X-0.140000X-0.170000X0.140000X-0.170000X0*%
%ADD19RoundRect,0.079500X0.079500X0.100500X-0.079500X0.100500X-0.079500X-0.100500X0.079500X-0.100500X0*%
%ADD20RoundRect,0.079500X-0.100500X0.079500X-0.100500X-0.079500X0.100500X-0.079500X0.100500X0.079500X0*%
%ADD21RoundRect,0.250000X-0.375000X-0.850000X0.375000X-0.850000X0.375000X0.850000X-0.375000X0.850000X0*%
%ADD22RoundRect,0.150000X0.150000X-0.512500X0.150000X0.512500X-0.150000X0.512500X-0.150000X-0.512500X0*%
%ADD23RoundRect,0.150000X-0.150000X0.512500X-0.150000X-0.512500X0.150000X-0.512500X0.150000X0.512500X0*%
%ADD24RoundRect,0.150000X0.150000X-0.587500X0.150000X0.587500X-0.150000X0.587500X-0.150000X-0.587500X0*%
%ADD25RoundRect,0.250000X-0.285000X0.285000X-0.285000X-0.285000X0.285000X-0.285000X0.285000X0.285000X0*%
%ADD26FreePoly0,270.000000*%
%ADD27RoundRect,0.050000X-0.050000X0.350000X-0.050000X-0.350000X0.050000X-0.350000X0.050000X0.350000X0*%
%ADD28FreePoly1,270.000000*%
%ADD29FreePoly2,270.000000*%
%ADD30RoundRect,0.050000X-0.350000X0.050000X-0.350000X-0.050000X0.350000X-0.050000X0.350000X0.050000X0*%
%ADD31FreePoly3,270.000000*%
%ADD32FreePoly4,270.000000*%
%ADD33FreePoly5,270.000000*%
%ADD34FreePoly6,270.000000*%
%ADD35FreePoly7,270.000000*%
%ADD36RoundRect,0.079500X-0.079500X-0.100500X0.079500X-0.100500X0.079500X0.100500X-0.079500X0.100500X0*%
%ADD37RoundRect,0.250000X0.255000X-0.255000X0.255000X0.255000X-0.255000X0.255000X-0.255000X-0.255000X0*%
%ADD38RoundRect,0.062500X0.062500X-0.337500X0.062500X0.337500X-0.062500X0.337500X-0.062500X-0.337500X0*%
%ADD39RoundRect,0.062500X0.337500X-0.062500X0.337500X0.062500X-0.337500X0.062500X-0.337500X-0.062500X0*%
%ADD40RoundRect,0.140000X-0.170000X0.140000X-0.170000X-0.140000X0.170000X-0.140000X0.170000X0.140000X0*%
%ADD41RoundRect,0.249999X-0.395001X-0.395001X0.395001X-0.395001X0.395001X0.395001X-0.395001X0.395001X0*%
%ADD42RoundRect,0.050000X-0.387500X-0.050000X0.387500X-0.050000X0.387500X0.050000X-0.387500X0.050000X0*%
%ADD43RoundRect,0.050000X-0.050000X-0.387500X0.050000X-0.387500X0.050000X0.387500X-0.050000X0.387500X0*%
%ADD44RoundRect,0.079500X0.100500X-0.079500X0.100500X0.079500X-0.100500X0.079500X-0.100500X-0.079500X0*%
%ADD45RoundRect,0.250000X-0.325000X-0.450000X0.325000X-0.450000X0.325000X0.450000X-0.325000X0.450000X0*%
%ADD46RoundRect,0.140000X0.170000X-0.140000X0.170000X0.140000X-0.170000X0.140000X-0.170000X-0.140000X0*%
%ADD47R,1.400000X1.200000*%
%ADD48RoundRect,0.140000X-0.140000X-0.170000X0.140000X-0.170000X0.140000X0.170000X-0.140000X0.170000X0*%
G04 APERTURE END LIST*
D10*
%TO.C,J2*%
X93147500Y-70670000D03*
X93147500Y-71180000D03*
X93147500Y-71670000D03*
X93147500Y-72180000D03*
X93147500Y-72670000D03*
X93147500Y-73180000D03*
X93147500Y-73670000D03*
X93147500Y-74180000D03*
X93147500Y-74670000D03*
X93147500Y-75180000D03*
X93147500Y-75670000D03*
X93147500Y-76180000D03*
X91847500Y-75920000D03*
X91847500Y-75420000D03*
X91847500Y-74920000D03*
X91847500Y-74420000D03*
X91847500Y-73920000D03*
X91847500Y-73420000D03*
X91847500Y-72920000D03*
X91847500Y-72420000D03*
X91847500Y-71920000D03*
X91847500Y-71420000D03*
X91847500Y-70920000D03*
X91847500Y-70420000D03*
%TD*%
D11*
%TO.C,SW2*%
X90100000Y-52200000D03*
X90100000Y-53200000D03*
X90100000Y-54200000D03*
D12*
X89400000Y-50450000D03*
X87200000Y-50450000D03*
X89400000Y-55950000D03*
X87200000Y-55950000D03*
%TD*%
D13*
%TO.C,D2*%
X89429720Y-61570280D03*
X92470280Y-58529720D03*
%TD*%
D14*
%TO.C,U7*%
X113300000Y-65360000D03*
X113300000Y-64090000D03*
X113300000Y-62820000D03*
X113300000Y-61550000D03*
%TD*%
D15*
%TO.C,D69*%
X114000000Y-58950000D03*
X114000000Y-56250000D03*
%TD*%
D16*
%TO.C,D18*%
X101551361Y-61176852D03*
X101063457Y-60688948D03*
%TD*%
D17*
%TO.C,SW1*%
X109000000Y-73150000D03*
X109000000Y-76550000D03*
%TD*%
D18*
%TO.C,C1*%
X95010000Y-76900000D03*
X94050000Y-76900000D03*
%TD*%
D19*
%TO.C,R9*%
X89895000Y-57200000D03*
X89205000Y-57200000D03*
%TD*%
D20*
%TO.C,C10*%
X106800000Y-67205000D03*
X106800000Y-67895000D03*
%TD*%
D16*
%TO.C,D46*%
X107979932Y-54776852D03*
X107492028Y-54288948D03*
%TD*%
%TO.C,D21*%
X103194218Y-53153126D03*
X102706314Y-52665222D03*
%TD*%
%TO.C,D33*%
X104765647Y-59576852D03*
X104277743Y-59088948D03*
%TD*%
%TO.C,D55*%
X109587075Y-56376852D03*
X109099171Y-55888948D03*
%TD*%
%TO.C,D56*%
X109587075Y-57976852D03*
X109099171Y-57488948D03*
%TD*%
%TO.C,D45*%
X107994218Y-53153126D03*
X107506314Y-52665222D03*
%TD*%
%TO.C,D24*%
X103158504Y-57976852D03*
X102670600Y-57488948D03*
%TD*%
D21*
%TO.C,L1*%
X95125000Y-50300000D03*
X97275000Y-50300000D03*
%TD*%
D16*
%TO.C,D35*%
X104765647Y-62776852D03*
X104277743Y-62288948D03*
%TD*%
D22*
%TO.C,U4*%
X95250000Y-54837500D03*
X96200000Y-54837500D03*
X97150000Y-54837500D03*
X97150000Y-52562500D03*
X95250000Y-52562500D03*
%TD*%
D16*
%TO.C,D37*%
X106394218Y-53153126D03*
X105906314Y-52665222D03*
%TD*%
D23*
%TO.C,U3*%
X99100000Y-45762500D03*
X98150000Y-45762500D03*
X97200000Y-45762500D03*
X97200000Y-48037500D03*
X99100000Y-48037500D03*
%TD*%
D16*
%TO.C,D47*%
X107979932Y-56376852D03*
X107492028Y-55888948D03*
%TD*%
D24*
%TO.C,Q1*%
X91837500Y-54887500D03*
X93737500Y-54887500D03*
X92787500Y-53012500D03*
%TD*%
D25*
%TO.C,U5*%
X95210000Y-63290000D03*
X93890000Y-63290000D03*
X95210000Y-64610000D03*
X93890000Y-64610000D03*
D26*
X95950000Y-62000000D03*
D27*
X95550000Y-62000000D03*
X95150000Y-62000000D03*
X94750000Y-62000000D03*
X94350000Y-62000000D03*
X93950000Y-62000000D03*
X93550000Y-62000000D03*
D28*
X93150000Y-62000000D03*
D29*
X92600000Y-62550000D03*
D30*
X92600000Y-62950000D03*
X92600000Y-63350000D03*
X92600000Y-63750000D03*
X92600000Y-64150000D03*
X92600000Y-64550000D03*
X92600000Y-64950000D03*
D31*
X92600000Y-65350000D03*
D32*
X93150000Y-65900000D03*
D27*
X93550000Y-65900000D03*
X93950000Y-65900000D03*
X94350000Y-65900000D03*
X94750000Y-65900000D03*
X95150000Y-65900000D03*
X95550000Y-65900000D03*
D33*
X95950000Y-65900000D03*
D34*
X96500000Y-65350000D03*
D30*
X96500000Y-64950000D03*
X96500000Y-64550000D03*
X96500000Y-64150000D03*
X96500000Y-63750000D03*
X96500000Y-63350000D03*
X96500000Y-62950000D03*
D35*
X96500000Y-62550000D03*
%TD*%
D20*
%TO.C,C16*%
X97150000Y-56125000D03*
X97150000Y-56815000D03*
%TD*%
D16*
%TO.C,D20*%
X101551361Y-64376852D03*
X101063457Y-63888948D03*
%TD*%
D36*
%TO.C,C21*%
X105305000Y-51050000D03*
X105995000Y-51050000D03*
%TD*%
D16*
%TO.C,D26*%
X103158504Y-61176852D03*
X102670600Y-60688948D03*
%TD*%
D37*
%TO.C,U6*%
X106675000Y-48725000D03*
X107925000Y-48725000D03*
X106675000Y-47475000D03*
X107925000Y-47475000D03*
D38*
X106050000Y-50050000D03*
X106550000Y-50050000D03*
X107050000Y-50050000D03*
X107550000Y-50050000D03*
X108050000Y-50050000D03*
X108550000Y-50050000D03*
D39*
X109250000Y-49350000D03*
X109250000Y-48850000D03*
X109250000Y-48350000D03*
X109250000Y-47850000D03*
X109250000Y-47350000D03*
X109250000Y-46850000D03*
D38*
X108550000Y-46150000D03*
X108050000Y-46150000D03*
X107550000Y-46150000D03*
X107050000Y-46150000D03*
X106550000Y-46150000D03*
X106050000Y-46150000D03*
D39*
X105350000Y-46850000D03*
X105350000Y-47350000D03*
X105350000Y-47850000D03*
X105350000Y-48350000D03*
X105350000Y-48850000D03*
X105350000Y-49350000D03*
%TD*%
D16*
%TO.C,D30*%
X104765647Y-54776852D03*
X104277743Y-54288948D03*
%TD*%
%TO.C,D22*%
X103158504Y-54776852D03*
X102670600Y-54288948D03*
%TD*%
D20*
%TO.C,C22*%
X104350000Y-49805000D03*
X104350000Y-50495000D03*
%TD*%
D16*
%TO.C,D11*%
X99944218Y-62776852D03*
X99456314Y-62288948D03*
%TD*%
%TO.C,D54*%
X109587075Y-54776852D03*
X109099171Y-54288948D03*
%TD*%
D20*
%TO.C,R3*%
X87800000Y-57305000D03*
X87800000Y-57995000D03*
%TD*%
D16*
%TO.C,D60*%
X109587075Y-64376852D03*
X109099171Y-63888948D03*
%TD*%
%TO.C,D9*%
X99944218Y-59576852D03*
X99456314Y-59088948D03*
%TD*%
D20*
%TO.C,R11*%
X87850000Y-65000000D03*
X87850000Y-65690000D03*
%TD*%
D16*
%TO.C,D14*%
X101551361Y-54776852D03*
X101063457Y-54288948D03*
%TD*%
D40*
%TO.C,C17*%
X98400000Y-52120000D03*
X98400000Y-53080000D03*
%TD*%
D16*
%TO.C,D40*%
X106372789Y-57976852D03*
X105884885Y-57488948D03*
%TD*%
%TO.C,D31*%
X104765647Y-56376852D03*
X104277743Y-55888948D03*
%TD*%
%TO.C,D12*%
X99944218Y-64376852D03*
X99456314Y-63888948D03*
%TD*%
D41*
%TO.C,U2*%
X101500000Y-70150000D03*
X101500000Y-71750000D03*
X103100000Y-70150000D03*
X103100000Y-71750000D03*
D42*
X98862500Y-68350000D03*
X98862500Y-68750000D03*
X98862500Y-69150000D03*
X98862500Y-69550000D03*
X98862500Y-69950000D03*
X98862500Y-70350000D03*
X98862500Y-70750000D03*
X98862500Y-71150000D03*
X98862500Y-71550000D03*
X98862500Y-71950000D03*
X98862500Y-72350000D03*
X98862500Y-72750000D03*
X98862500Y-73150000D03*
X98862500Y-73550000D03*
D43*
X99700000Y-74387500D03*
X100100000Y-74387500D03*
X100500000Y-74387500D03*
X100900000Y-74387500D03*
X101300000Y-74387500D03*
X101700000Y-74387500D03*
X102100000Y-74387500D03*
X102500000Y-74387500D03*
X102900000Y-74387500D03*
X103300000Y-74387500D03*
X103700000Y-74387500D03*
X104100000Y-74387500D03*
X104500000Y-74387500D03*
X104900000Y-74387500D03*
D42*
X105737500Y-73550000D03*
X105737500Y-73150000D03*
X105737500Y-72750000D03*
X105737500Y-72350000D03*
X105737500Y-71950000D03*
X105737500Y-71550000D03*
X105737500Y-71150000D03*
X105737500Y-70750000D03*
X105737500Y-70350000D03*
X105737500Y-69950000D03*
X105737500Y-69550000D03*
X105737500Y-69150000D03*
X105737500Y-68750000D03*
X105737500Y-68350000D03*
D43*
X104900000Y-67512500D03*
X104500000Y-67512500D03*
X104100000Y-67512500D03*
X103700000Y-67512500D03*
X103300000Y-67512500D03*
X102900000Y-67512500D03*
X102500000Y-67512500D03*
X102100000Y-67512500D03*
X101700000Y-67512500D03*
X101300000Y-67512500D03*
X100900000Y-67512500D03*
X100500000Y-67512500D03*
X100100000Y-67512500D03*
X99700000Y-67512500D03*
%TD*%
D44*
%TO.C,C2*%
X88550000Y-67845000D03*
X88550000Y-67155000D03*
%TD*%
D16*
%TO.C,D5*%
X99944218Y-53153126D03*
X99456314Y-52665222D03*
%TD*%
%TO.C,D58*%
X109587075Y-61176852D03*
X109099171Y-60688948D03*
%TD*%
D45*
%TO.C,FB1*%
X104775000Y-65850000D03*
X106825000Y-65850000D03*
%TD*%
D16*
%TO.C,D67*%
X111194218Y-62776852D03*
X110706314Y-62288948D03*
%TD*%
%TO.C,D39*%
X106372789Y-56376852D03*
X105884885Y-55888948D03*
%TD*%
D46*
%TO.C,C14*%
X95950000Y-48010000D03*
X95950000Y-47050000D03*
%TD*%
D16*
%TO.C,D23*%
X103158504Y-56376852D03*
X102670600Y-55888948D03*
%TD*%
D20*
%TO.C,R13*%
X96850000Y-67605000D03*
X96850000Y-68295000D03*
%TD*%
D16*
%TO.C,D19*%
X101551361Y-62776852D03*
X101063457Y-62288948D03*
%TD*%
%TO.C,D44*%
X106372789Y-64376852D03*
X105884885Y-63888948D03*
%TD*%
D20*
%TO.C,C20*%
X96150000Y-67605000D03*
X96150000Y-68295000D03*
%TD*%
D16*
%TO.C,D66*%
X111194218Y-61176852D03*
X110706314Y-60688948D03*
%TD*%
D36*
%TO.C,C12*%
X104205000Y-75650000D03*
X104895000Y-75650000D03*
%TD*%
%TO.C,C19*%
X99485000Y-66450000D03*
X100175000Y-66450000D03*
%TD*%
D16*
%TO.C,D8*%
X99944218Y-57976852D03*
X99456314Y-57488948D03*
%TD*%
D19*
%TO.C,C6*%
X102745000Y-66450000D03*
X102055000Y-66450000D03*
%TD*%
D16*
%TO.C,D36*%
X104765647Y-64376852D03*
X104277743Y-63888948D03*
%TD*%
%TO.C,D53*%
X109594218Y-53153126D03*
X109106314Y-52665222D03*
%TD*%
%TO.C,D68*%
X111194218Y-64376852D03*
X110706314Y-63888948D03*
%TD*%
%TO.C,D6*%
X99944218Y-54776852D03*
X99456314Y-54288948D03*
%TD*%
D22*
%TO.C,U1*%
X95500000Y-75137500D03*
X96450000Y-75137500D03*
X97400000Y-75137500D03*
X97400000Y-72862500D03*
X96450000Y-72862500D03*
X95500000Y-72862500D03*
%TD*%
D16*
%TO.C,D27*%
X103158504Y-62776852D03*
X102670600Y-62288948D03*
%TD*%
%TO.C,D57*%
X109587075Y-59576852D03*
X109099171Y-59088948D03*
%TD*%
D36*
%TO.C,R1*%
X89925000Y-68100000D03*
X90615000Y-68100000D03*
%TD*%
D16*
%TO.C,D28*%
X103158504Y-64376852D03*
X102670600Y-63888948D03*
%TD*%
%TO.C,D13*%
X101594218Y-53153126D03*
X101106314Y-52665222D03*
%TD*%
D19*
%TO.C,R10*%
X99195000Y-49300000D03*
X98505000Y-49300000D03*
%TD*%
D16*
%TO.C,D63*%
X111194218Y-56376852D03*
X110706314Y-55888948D03*
%TD*%
D20*
%TO.C,R12*%
X87850000Y-67185000D03*
X87850000Y-67875000D03*
%TD*%
D16*
%TO.C,D64*%
X111194218Y-57976852D03*
X110706314Y-57488948D03*
%TD*%
D44*
%TO.C,C26*%
X114750000Y-74215000D03*
X114750000Y-73525000D03*
%TD*%
D20*
%TO.C,R7*%
X110350000Y-50735000D03*
X110350000Y-51425000D03*
%TD*%
D16*
%TO.C,D10*%
X99944218Y-61176852D03*
X99456314Y-60688948D03*
%TD*%
D20*
%TO.C,R17*%
X112700000Y-58905000D03*
X112700000Y-59595000D03*
%TD*%
D44*
%TO.C,C3*%
X99300000Y-77245000D03*
X99300000Y-76555000D03*
%TD*%
D16*
%TO.C,D29*%
X104794218Y-53153126D03*
X104306314Y-52665222D03*
%TD*%
D20*
%TO.C,C25*%
X114750000Y-49275000D03*
X114750000Y-49965000D03*
%TD*%
%TO.C,C4*%
X104200000Y-76575000D03*
X104200000Y-77265000D03*
%TD*%
D16*
%TO.C,D16*%
X101551361Y-57976852D03*
X101063457Y-57488948D03*
%TD*%
%TO.C,D51*%
X107979932Y-62776852D03*
X107492028Y-62288948D03*
%TD*%
%TO.C,D7*%
X99944218Y-56376852D03*
X99456314Y-55888948D03*
%TD*%
%TO.C,D49*%
X107979932Y-59576852D03*
X107492028Y-59088948D03*
%TD*%
%TO.C,D59*%
X109587075Y-62776852D03*
X109099171Y-62288948D03*
%TD*%
D40*
%TO.C,C9*%
X107200000Y-68695000D03*
X107200000Y-69655000D03*
%TD*%
D19*
%TO.C,R8*%
X112765000Y-67250000D03*
X112075000Y-67250000D03*
%TD*%
D16*
%TO.C,D41*%
X106372789Y-59576852D03*
X105884885Y-59088948D03*
%TD*%
%TO.C,D32*%
X104765647Y-57976852D03*
X104277743Y-57488948D03*
%TD*%
%TO.C,D48*%
X107979932Y-57976852D03*
X107492028Y-57488948D03*
%TD*%
%TO.C,D50*%
X107979932Y-61176852D03*
X107492028Y-60688948D03*
%TD*%
%TO.C,D52*%
X107979932Y-64376852D03*
X107492028Y-63888948D03*
%TD*%
%TO.C,D38*%
X106372789Y-54776852D03*
X105884885Y-54288948D03*
%TD*%
D20*
%TO.C,C18*%
X98200000Y-63650000D03*
X98200000Y-64340000D03*
%TD*%
D16*
%TO.C,D25*%
X103158504Y-59576852D03*
X102670600Y-59088948D03*
%TD*%
D20*
%TO.C,C5*%
X106800000Y-72005000D03*
X106800000Y-72695000D03*
%TD*%
D16*
%TO.C,D34*%
X104765647Y-61176852D03*
X104277743Y-60688948D03*
%TD*%
D18*
%TO.C,C8*%
X97380000Y-69300000D03*
X96420000Y-69300000D03*
%TD*%
D19*
%TO.C,C7*%
X97775000Y-70750000D03*
X97085000Y-70750000D03*
%TD*%
D47*
%TO.C,X1*%
X100650000Y-77725000D03*
X102850000Y-77725000D03*
X102850000Y-76025000D03*
X100650000Y-76025000D03*
%TD*%
D16*
%TO.C,D65*%
X111194218Y-59576852D03*
X110706314Y-59088948D03*
%TD*%
D36*
%TO.C,R16*%
X105305000Y-51750000D03*
X105995000Y-51750000D03*
%TD*%
D44*
%TO.C,R6*%
X106900000Y-75915000D03*
X106900000Y-75225000D03*
%TD*%
D16*
%TO.C,D17*%
X101551361Y-59576852D03*
X101063457Y-59088948D03*
%TD*%
%TO.C,D43*%
X106372789Y-62776852D03*
X105884885Y-62288948D03*
%TD*%
D48*
%TO.C,C11*%
X105000000Y-76550000D03*
X105960000Y-76550000D03*
%TD*%
%TO.C,C15*%
X95240000Y-56500000D03*
X96200000Y-56500000D03*
%TD*%
D44*
%TO.C,D3*%
X87150000Y-65690000D03*
X87150000Y-65000000D03*
%TD*%
D40*
%TO.C,C13*%
X91500000Y-48690000D03*
X91500000Y-49650000D03*
%TD*%
D20*
%TO.C,D1*%
X87100000Y-57310000D03*
X87100000Y-58000000D03*
%TD*%
%TO.C,R2*%
X94750000Y-70875000D03*
X94750000Y-71565000D03*
%TD*%
D16*
%TO.C,D42*%
X106372789Y-61176852D03*
X105884885Y-60688948D03*
%TD*%
D44*
%TO.C,D4*%
X87150000Y-67865000D03*
X87150000Y-67175000D03*
%TD*%
D16*
%TO.C,D15*%
X101551361Y-56376852D03*
X101063457Y-55888948D03*
%TD*%
D36*
%TO.C,C24*%
X90785000Y-45500000D03*
X91475000Y-45500000D03*
%TD*%
D16*
%TO.C,D62*%
X111194218Y-54776852D03*
X110706314Y-54288948D03*
%TD*%
%TO.C,D61*%
X111194218Y-53153126D03*
X110706314Y-52665222D03*
%TD*%
D20*
%TO.C,R15*%
X110250000Y-45405000D03*
X110250000Y-46095000D03*
%TD*%
D44*
%TO.C,C23*%
X112300000Y-66495000D03*
X112300000Y-65805000D03*
%TD*%
%TO.C,R14*%
X98200000Y-62940000D03*
X98200000Y-62250000D03*
%TD*%
M02*
