M48
; DRILL file {KiCad 9.0.1} date 2025-04-25T01:04:24-0700
; FORMAT={-:-/ absolute / metric / decimal}
; #@! TF.CreationDate,2025-04-25T01:04:24-07:00
; #@! TF.GenerationSoftware,Kicad,Pcbnew,9.0.1
; #@! TF.FileFunction,Plated,1,4,PTH
FMAT,2
METRIC
; #@! TA.AperFunction,Plated,PTH,ViaDrill
T1C0.300
; #@! TA.AperFunction,Plated,PTH,ComponentDrill
T2C0.500
; #@! TA.AperFunction,Plated,PTH,ComponentDrill
T3C0.600
; #@! TA.AperFunction,Plated,PTH,ComponentDrill
T4C0.650
; #@! TA.AperFunction,Plated,PTH,ComponentDrill
T5C0.700
; #@! TA.AperFunction,Plated,PTH,ComponentDrill
T6C2.200
%
G90
G05
T1
X87.1Y-58.6
X87.89Y-58.6
X88.4Y-66.45
X88.45Y-65.65
X88.65Y-57.2
X89.05Y-67.2
X90.0Y-63.3
X90.1Y-54.9
X90.15Y-55.95
X90.562Y-72.77
X90.562Y-73.57
X90.65Y-62.7
X90.85Y-70.892
X90.85Y-75.95
X90.882Y-74.9
X90.9Y-49.65
X91.1Y-68.1
X91.15Y-53.2
X91.25Y-62.1
X91.45Y-46.0
X91.75Y-65.289
X92.474Y-67.54
X92.8Y-51.9
X92.8Y-54.85
X93.01Y-68.0
X93.45Y-50.6
X93.55Y-62.95
X93.55Y-64.95
X93.968Y-70.682
X94.0Y-52.65
X94.098Y-71.937
X94.15Y-74.631
X94.15Y-76.15
X94.382Y-73.075
X94.382Y-73.775
X94.55Y-63.95
X95.499Y-67.96
X95.5Y-69.34
X95.5Y-70.03
X95.5Y-68.65
X95.506Y-67.27
X95.55Y-64.95
X95.713Y-70.739
X96.1Y-71.4
X96.1Y-76.6
X96.11Y-57.4
X96.2Y-55.85
X96.45Y-74.15
X96.744Y-61.154
X96.75Y-59.774
X96.75Y-66.1
X96.752Y-60.464
X96.789Y-61.842
X96.8Y-71.4
X96.8Y-76.6
X96.988Y-66.737
X97.451Y-67.95
X97.5Y-61.97
X97.5Y-62.66
X97.5Y-63.35
X97.862Y-71.488
X97.863Y-58.663
X98.104Y-64.99
X98.2Y-61.75
X98.4Y-51.55
X98.53Y-49.88
X98.639Y-61.218
X98.68Y-64.334
X98.7Y-65.95
X99.3Y-76.1
X99.361Y-55.003
X99.361Y-56.603
X99.361Y-58.203
X99.361Y-59.803
X99.361Y-61.403
X99.361Y-63.003
X99.361Y-64.603
X99.37Y-53.381
X99.515Y-65.887
X99.75Y-45.9
X99.762Y-69.515
X100.197Y-55.65
X100.25Y-63.75
X100.25Y-71.407
X100.26Y-69.992
X100.961Y-55.002
X100.961Y-56.602
X100.961Y-58.202
X100.961Y-59.802
X100.961Y-61.402
X100.961Y-63.002
X100.961Y-64.602
X100.973Y-53.37
X101.05Y-69.7
X101.05Y-72.2
X101.3Y-73.5
X101.338Y-68.91
X101.749Y-62.109
X101.76Y-54.115
X101.825Y-68.422
X102.1Y-73.4
X102.561Y-55.0
X102.561Y-56.6
X102.561Y-58.2
X102.561Y-59.8
X102.561Y-61.4
X102.561Y-63.0
X102.561Y-64.6
X102.573Y-53.37
X102.647Y-70.947
X102.741Y-73.0
X103.15Y-68.703
X103.407Y-60.539
X103.45Y-73.0
X103.5Y-52.55
X103.539Y-66.311
X103.55Y-70.0
X103.85Y-68.703
X104.14Y-73.0
X104.161Y-54.998
X104.161Y-56.598
X104.161Y-58.198
X104.161Y-59.798
X104.161Y-61.398
X104.161Y-62.998
X104.161Y-64.598
X104.173Y-53.37
X104.2Y-77.75
X104.35Y-49.3
X104.35Y-50.95
X104.525Y-68.783
X104.6Y-51.75
X104.683Y-73.426
X104.8Y-71.819
X105.0Y-58.85
X105.0Y-70.35
X105.25Y-46.05
X105.4Y-75.656
X105.762Y-54.996
X105.762Y-56.596
X105.762Y-58.196
X105.762Y-59.796
X105.762Y-61.396
X105.762Y-62.996
X105.762Y-64.596
X105.773Y-53.37
X105.885Y-67.709
X106.4Y-47.2
X106.4Y-49.0
X106.45Y-75.9
X106.469Y-69.95
X106.588Y-51.361
X106.6Y-57.2
X106.8Y-73.3
X106.9Y-51.97
X107.2Y-70.2
X107.3Y-48.1
X107.362Y-54.994
X107.362Y-56.594
X107.362Y-58.194
X107.362Y-59.794
X107.362Y-61.394
X107.362Y-62.994
X107.362Y-64.594
X107.373Y-53.37
X107.85Y-66.1
X108.05Y-45.35
X108.198Y-68.598
X108.2Y-47.2
X108.2Y-49.0
X108.5Y-51.0
X108.95Y-66.6
X108.963Y-54.992
X108.963Y-56.592
X108.963Y-58.192
X108.963Y-59.792
X108.963Y-61.392
X108.963Y-62.992
X108.963Y-64.592
X108.973Y-53.37
X109.3Y-46.15
X109.352Y-50.75
X109.446Y-70.3
X110.563Y-54.99
X110.563Y-56.59
X110.563Y-58.19
X110.563Y-59.79
X110.563Y-61.39
X110.563Y-62.99
X110.563Y-64.59
X110.573Y-53.37
X111.75Y-71.1
X112.2Y-65.15
X112.29Y-70.646
X113.0Y-56.25
X113.05Y-60.0
X113.3Y-62.05
X113.3Y-63.35
X113.3Y-64.8
X114.0Y-57.6
X114.25Y-49.95
X114.25Y-65.95
X114.25Y-73.55
T4
X101.795Y-45.758
X101.795Y-47.028
X101.795Y-48.298
X103.065Y-45.758
X103.065Y-47.028
X103.065Y-48.298
T5
X92.455Y-47.05
X93.725Y-47.05
T6
X88.9Y-47.35
X112.9Y-47.35
X112.9Y-76.1
T2
G00X92.027Y-68.87
M15
G01X92.027Y-69.57
M16
G05
G00X92.027Y-77.0
M15
G01X92.027Y-77.7
M16
G05
G00X93.087Y-68.98
M15
G01X92.088Y-68.98
M16
G05
G00X93.087Y-77.62
M15
G01X92.088Y-77.62
M16
G05
T3
G00X88.617Y-68.98
M15
G01X87.318Y-68.98
M16
G05
G00X88.617Y-77.62
M15
G01X87.318Y-77.62
M16
G05
M30
