%TF.GenerationSoftware,KiCad,Pcbnew,9.0.1*%
%TF.CreationDate,2025-04-25T01:04:06-07:00*%
%TF.ProjectId,microcouple,6d696372-6f63-46f7-9570-6c652e6b6963,rev?*%
%TF.SameCoordinates,Original*%
%TF.FileFunction,Legend,Bot*%
%TF.FilePolarity,Positive*%
%FSLAX46Y46*%
G04 Gerber Fmt 4.6, Leading zero omitted, Abs format (unit mm)*
G04 Created by KiCad (PCBNEW 9.0.1) date 2025-04-25 01:04:06*
%MOMM*%
%LPD*%
G01*
G04 APERTURE LIST*
%ADD10C,0.100000*%
%ADD11C,0.200000*%
%ADD12C,0.075000*%
%ADD13C,0.300000*%
%ADD14C,0.112500*%
%ADD15C,0.150000*%
%ADD16C,0.000000*%
%ADD17C,0.500000*%
%ADD18O,1.950000X1.000000*%
%ADD19O,2.300000X1.000000*%
%ADD20O,1.000000X1.700000*%
%ADD21C,0.900000*%
%ADD22C,3.800000*%
%ADD23R,1.000000X1.000000*%
%ADD24C,1.000000*%
%ADD25C,0.990600*%
G04 APERTURE END LIST*
D10*
X107876628Y-62998496D02*
X107876628Y-62627068D01*
X107876628Y-62627068D02*
X107648057Y-62827068D01*
X107648057Y-62827068D02*
X107648057Y-62741353D01*
X107648057Y-62741353D02*
X107619485Y-62684211D01*
X107619485Y-62684211D02*
X107590914Y-62655639D01*
X107590914Y-62655639D02*
X107533771Y-62627068D01*
X107533771Y-62627068D02*
X107390914Y-62627068D01*
X107390914Y-62627068D02*
X107333771Y-62655639D01*
X107333771Y-62655639D02*
X107305200Y-62684211D01*
X107305200Y-62684211D02*
X107276628Y-62741353D01*
X107276628Y-62741353D02*
X107276628Y-62912782D01*
X107276628Y-62912782D02*
X107305200Y-62969925D01*
X107305200Y-62969925D02*
X107333771Y-62998496D01*
X107619485Y-62284210D02*
X107648057Y-62341353D01*
X107648057Y-62341353D02*
X107676628Y-62369924D01*
X107676628Y-62369924D02*
X107733771Y-62398496D01*
X107733771Y-62398496D02*
X107762342Y-62398496D01*
X107762342Y-62398496D02*
X107819485Y-62369924D01*
X107819485Y-62369924D02*
X107848057Y-62341353D01*
X107848057Y-62341353D02*
X107876628Y-62284210D01*
X107876628Y-62284210D02*
X107876628Y-62169924D01*
X107876628Y-62169924D02*
X107848057Y-62112782D01*
X107848057Y-62112782D02*
X107819485Y-62084210D01*
X107819485Y-62084210D02*
X107762342Y-62055639D01*
X107762342Y-62055639D02*
X107733771Y-62055639D01*
X107733771Y-62055639D02*
X107676628Y-62084210D01*
X107676628Y-62084210D02*
X107648057Y-62112782D01*
X107648057Y-62112782D02*
X107619485Y-62169924D01*
X107619485Y-62169924D02*
X107619485Y-62284210D01*
X107619485Y-62284210D02*
X107590914Y-62341353D01*
X107590914Y-62341353D02*
X107562342Y-62369924D01*
X107562342Y-62369924D02*
X107505200Y-62398496D01*
X107505200Y-62398496D02*
X107390914Y-62398496D01*
X107390914Y-62398496D02*
X107333771Y-62369924D01*
X107333771Y-62369924D02*
X107305200Y-62341353D01*
X107305200Y-62341353D02*
X107276628Y-62284210D01*
X107276628Y-62284210D02*
X107276628Y-62169924D01*
X107276628Y-62169924D02*
X107305200Y-62112782D01*
X107305200Y-62112782D02*
X107333771Y-62084210D01*
X107333771Y-62084210D02*
X107390914Y-62055639D01*
X107390914Y-62055639D02*
X107505200Y-62055639D01*
X107505200Y-62055639D02*
X107562342Y-62084210D01*
X107562342Y-62084210D02*
X107590914Y-62112782D01*
X107590914Y-62112782D02*
X107619485Y-62169924D01*
X107276628Y-61798495D02*
X107876628Y-61798495D01*
X107505200Y-61741353D02*
X107276628Y-61569924D01*
X107676628Y-61569924D02*
X107448057Y-61798495D01*
X107276628Y-61312781D02*
X107876628Y-61312781D01*
X107590914Y-61312781D02*
X107590914Y-60969924D01*
X107276628Y-60969924D02*
X107876628Y-60969924D01*
X107676628Y-60741353D02*
X107676628Y-60427068D01*
X107676628Y-60427068D02*
X107276628Y-60741353D01*
X107276628Y-60741353D02*
X107276628Y-60427068D01*
X107276628Y-59741353D02*
X107876628Y-59741353D01*
X107276628Y-59112782D02*
X107562342Y-59312782D01*
X107276628Y-59455639D02*
X107876628Y-59455639D01*
X107876628Y-59455639D02*
X107876628Y-59227068D01*
X107876628Y-59227068D02*
X107848057Y-59169925D01*
X107848057Y-59169925D02*
X107819485Y-59141354D01*
X107819485Y-59141354D02*
X107762342Y-59112782D01*
X107762342Y-59112782D02*
X107676628Y-59112782D01*
X107676628Y-59112782D02*
X107619485Y-59141354D01*
X107619485Y-59141354D02*
X107590914Y-59169925D01*
X107590914Y-59169925D02*
X107562342Y-59227068D01*
X107562342Y-59227068D02*
X107562342Y-59455639D01*
X107876628Y-58484211D02*
X107876628Y-58141354D01*
X107276628Y-58312782D02*
X107876628Y-58312782D01*
X107276628Y-57941353D02*
X107676628Y-57941353D01*
X107562342Y-57941353D02*
X107619485Y-57912782D01*
X107619485Y-57912782D02*
X107648057Y-57884211D01*
X107648057Y-57884211D02*
X107676628Y-57827068D01*
X107676628Y-57827068D02*
X107676628Y-57769925D01*
X107276628Y-57312782D02*
X107590914Y-57312782D01*
X107590914Y-57312782D02*
X107648057Y-57341353D01*
X107648057Y-57341353D02*
X107676628Y-57398496D01*
X107676628Y-57398496D02*
X107676628Y-57512782D01*
X107676628Y-57512782D02*
X107648057Y-57569924D01*
X107305200Y-57312782D02*
X107276628Y-57369924D01*
X107276628Y-57369924D02*
X107276628Y-57512782D01*
X107276628Y-57512782D02*
X107305200Y-57569924D01*
X107305200Y-57569924D02*
X107362342Y-57598496D01*
X107362342Y-57598496D02*
X107419485Y-57598496D01*
X107419485Y-57598496D02*
X107476628Y-57569924D01*
X107476628Y-57569924D02*
X107505200Y-57512782D01*
X107505200Y-57512782D02*
X107505200Y-57369924D01*
X107505200Y-57369924D02*
X107533771Y-57312782D01*
X107676628Y-57027067D02*
X107276628Y-57027067D01*
X107619485Y-57027067D02*
X107648057Y-56998496D01*
X107648057Y-56998496D02*
X107676628Y-56941353D01*
X107676628Y-56941353D02*
X107676628Y-56855639D01*
X107676628Y-56855639D02*
X107648057Y-56798496D01*
X107648057Y-56798496D02*
X107590914Y-56769925D01*
X107590914Y-56769925D02*
X107276628Y-56769925D01*
X107305200Y-56512782D02*
X107276628Y-56455639D01*
X107276628Y-56455639D02*
X107276628Y-56341353D01*
X107276628Y-56341353D02*
X107305200Y-56284210D01*
X107305200Y-56284210D02*
X107362342Y-56255639D01*
X107362342Y-56255639D02*
X107390914Y-56255639D01*
X107390914Y-56255639D02*
X107448057Y-56284210D01*
X107448057Y-56284210D02*
X107476628Y-56341353D01*
X107476628Y-56341353D02*
X107476628Y-56427068D01*
X107476628Y-56427068D02*
X107505200Y-56484210D01*
X107505200Y-56484210D02*
X107562342Y-56512782D01*
X107562342Y-56512782D02*
X107590914Y-56512782D01*
X107590914Y-56512782D02*
X107648057Y-56484210D01*
X107648057Y-56484210D02*
X107676628Y-56427068D01*
X107676628Y-56427068D02*
X107676628Y-56341353D01*
X107676628Y-56341353D02*
X107648057Y-56284210D01*
X107305200Y-55741354D02*
X107276628Y-55798496D01*
X107276628Y-55798496D02*
X107276628Y-55912782D01*
X107276628Y-55912782D02*
X107305200Y-55969925D01*
X107305200Y-55969925D02*
X107333771Y-55998496D01*
X107333771Y-55998496D02*
X107390914Y-56027068D01*
X107390914Y-56027068D02*
X107562342Y-56027068D01*
X107562342Y-56027068D02*
X107619485Y-55998496D01*
X107619485Y-55998496D02*
X107648057Y-55969925D01*
X107648057Y-55969925D02*
X107676628Y-55912782D01*
X107676628Y-55912782D02*
X107676628Y-55798496D01*
X107676628Y-55798496D02*
X107648057Y-55741354D01*
X107276628Y-55484210D02*
X107676628Y-55484210D01*
X107876628Y-55484210D02*
X107848057Y-55512782D01*
X107848057Y-55512782D02*
X107819485Y-55484210D01*
X107819485Y-55484210D02*
X107848057Y-55455639D01*
X107848057Y-55455639D02*
X107876628Y-55484210D01*
X107876628Y-55484210D02*
X107819485Y-55484210D01*
X107305200Y-54969925D02*
X107276628Y-55027068D01*
X107276628Y-55027068D02*
X107276628Y-55141354D01*
X107276628Y-55141354D02*
X107305200Y-55198496D01*
X107305200Y-55198496D02*
X107362342Y-55227068D01*
X107362342Y-55227068D02*
X107590914Y-55227068D01*
X107590914Y-55227068D02*
X107648057Y-55198496D01*
X107648057Y-55198496D02*
X107676628Y-55141354D01*
X107676628Y-55141354D02*
X107676628Y-55027068D01*
X107676628Y-55027068D02*
X107648057Y-54969925D01*
X107648057Y-54969925D02*
X107590914Y-54941354D01*
X107590914Y-54941354D02*
X107533771Y-54941354D01*
X107533771Y-54941354D02*
X107476628Y-55227068D01*
X107676628Y-54741353D02*
X107276628Y-54598496D01*
X107276628Y-54598496D02*
X107676628Y-54455639D01*
X107305200Y-53998496D02*
X107276628Y-54055639D01*
X107276628Y-54055639D02*
X107276628Y-54169925D01*
X107276628Y-54169925D02*
X107305200Y-54227067D01*
X107305200Y-54227067D02*
X107362342Y-54255639D01*
X107362342Y-54255639D02*
X107590914Y-54255639D01*
X107590914Y-54255639D02*
X107648057Y-54227067D01*
X107648057Y-54227067D02*
X107676628Y-54169925D01*
X107676628Y-54169925D02*
X107676628Y-54055639D01*
X107676628Y-54055639D02*
X107648057Y-53998496D01*
X107648057Y-53998496D02*
X107590914Y-53969925D01*
X107590914Y-53969925D02*
X107533771Y-53969925D01*
X107533771Y-53969925D02*
X107476628Y-54255639D01*
X107276628Y-53712781D02*
X107676628Y-53712781D01*
X107562342Y-53712781D02*
X107619485Y-53684210D01*
X107619485Y-53684210D02*
X107648057Y-53655639D01*
X107648057Y-53655639D02*
X107676628Y-53598496D01*
X107676628Y-53598496D02*
X107676628Y-53541353D01*
X106653519Y-62855639D02*
X106682091Y-62912782D01*
X106682091Y-62912782D02*
X106710662Y-62941353D01*
X106710662Y-62941353D02*
X106767805Y-62969925D01*
X106767805Y-62969925D02*
X106796376Y-62969925D01*
X106796376Y-62969925D02*
X106853519Y-62941353D01*
X106853519Y-62941353D02*
X106882091Y-62912782D01*
X106882091Y-62912782D02*
X106910662Y-62855639D01*
X106910662Y-62855639D02*
X106910662Y-62741353D01*
X106910662Y-62741353D02*
X106882091Y-62684211D01*
X106882091Y-62684211D02*
X106853519Y-62655639D01*
X106853519Y-62655639D02*
X106796376Y-62627068D01*
X106796376Y-62627068D02*
X106767805Y-62627068D01*
X106767805Y-62627068D02*
X106710662Y-62655639D01*
X106710662Y-62655639D02*
X106682091Y-62684211D01*
X106682091Y-62684211D02*
X106653519Y-62741353D01*
X106653519Y-62741353D02*
X106653519Y-62855639D01*
X106653519Y-62855639D02*
X106624948Y-62912782D01*
X106624948Y-62912782D02*
X106596376Y-62941353D01*
X106596376Y-62941353D02*
X106539234Y-62969925D01*
X106539234Y-62969925D02*
X106424948Y-62969925D01*
X106424948Y-62969925D02*
X106367805Y-62941353D01*
X106367805Y-62941353D02*
X106339234Y-62912782D01*
X106339234Y-62912782D02*
X106310662Y-62855639D01*
X106310662Y-62855639D02*
X106310662Y-62741353D01*
X106310662Y-62741353D02*
X106339234Y-62684211D01*
X106339234Y-62684211D02*
X106367805Y-62655639D01*
X106367805Y-62655639D02*
X106424948Y-62627068D01*
X106424948Y-62627068D02*
X106539234Y-62627068D01*
X106539234Y-62627068D02*
X106596376Y-62655639D01*
X106596376Y-62655639D02*
X106624948Y-62684211D01*
X106624948Y-62684211D02*
X106653519Y-62741353D01*
X106310662Y-62427067D02*
X106710662Y-62112782D01*
X106710662Y-62427067D02*
X106310662Y-62112782D01*
X106653519Y-61798496D02*
X106682091Y-61855639D01*
X106682091Y-61855639D02*
X106710662Y-61884210D01*
X106710662Y-61884210D02*
X106767805Y-61912782D01*
X106767805Y-61912782D02*
X106796376Y-61912782D01*
X106796376Y-61912782D02*
X106853519Y-61884210D01*
X106853519Y-61884210D02*
X106882091Y-61855639D01*
X106882091Y-61855639D02*
X106910662Y-61798496D01*
X106910662Y-61798496D02*
X106910662Y-61684210D01*
X106910662Y-61684210D02*
X106882091Y-61627068D01*
X106882091Y-61627068D02*
X106853519Y-61598496D01*
X106853519Y-61598496D02*
X106796376Y-61569925D01*
X106796376Y-61569925D02*
X106767805Y-61569925D01*
X106767805Y-61569925D02*
X106710662Y-61598496D01*
X106710662Y-61598496D02*
X106682091Y-61627068D01*
X106682091Y-61627068D02*
X106653519Y-61684210D01*
X106653519Y-61684210D02*
X106653519Y-61798496D01*
X106653519Y-61798496D02*
X106624948Y-61855639D01*
X106624948Y-61855639D02*
X106596376Y-61884210D01*
X106596376Y-61884210D02*
X106539234Y-61912782D01*
X106539234Y-61912782D02*
X106424948Y-61912782D01*
X106424948Y-61912782D02*
X106367805Y-61884210D01*
X106367805Y-61884210D02*
X106339234Y-61855639D01*
X106339234Y-61855639D02*
X106310662Y-61798496D01*
X106310662Y-61798496D02*
X106310662Y-61684210D01*
X106310662Y-61684210D02*
X106339234Y-61627068D01*
X106339234Y-61627068D02*
X106367805Y-61598496D01*
X106367805Y-61598496D02*
X106424948Y-61569925D01*
X106424948Y-61569925D02*
X106539234Y-61569925D01*
X106539234Y-61569925D02*
X106596376Y-61598496D01*
X106596376Y-61598496D02*
X106624948Y-61627068D01*
X106624948Y-61627068D02*
X106653519Y-61684210D01*
X106310662Y-60569924D02*
X106310662Y-60855638D01*
X106310662Y-60855638D02*
X106910662Y-60855638D01*
X106624948Y-60369924D02*
X106624948Y-60169924D01*
X106310662Y-60084210D02*
X106310662Y-60369924D01*
X106310662Y-60369924D02*
X106910662Y-60369924D01*
X106910662Y-60369924D02*
X106910662Y-60084210D01*
X106310662Y-59827067D02*
X106910662Y-59827067D01*
X106910662Y-59827067D02*
X106910662Y-59684210D01*
X106910662Y-59684210D02*
X106882091Y-59598496D01*
X106882091Y-59598496D02*
X106824948Y-59541353D01*
X106824948Y-59541353D02*
X106767805Y-59512782D01*
X106767805Y-59512782D02*
X106653519Y-59484210D01*
X106653519Y-59484210D02*
X106567805Y-59484210D01*
X106567805Y-59484210D02*
X106453519Y-59512782D01*
X106453519Y-59512782D02*
X106396376Y-59541353D01*
X106396376Y-59541353D02*
X106339234Y-59598496D01*
X106339234Y-59598496D02*
X106310662Y-59684210D01*
X106310662Y-59684210D02*
X106310662Y-59827067D01*
X106310662Y-58769924D02*
X106710662Y-58769924D01*
X106653519Y-58769924D02*
X106682091Y-58741353D01*
X106682091Y-58741353D02*
X106710662Y-58684210D01*
X106710662Y-58684210D02*
X106710662Y-58598496D01*
X106710662Y-58598496D02*
X106682091Y-58541353D01*
X106682091Y-58541353D02*
X106624948Y-58512782D01*
X106624948Y-58512782D02*
X106310662Y-58512782D01*
X106624948Y-58512782D02*
X106682091Y-58484210D01*
X106682091Y-58484210D02*
X106710662Y-58427067D01*
X106710662Y-58427067D02*
X106710662Y-58341353D01*
X106710662Y-58341353D02*
X106682091Y-58284210D01*
X106682091Y-58284210D02*
X106624948Y-58255639D01*
X106624948Y-58255639D02*
X106310662Y-58255639D01*
X106310662Y-57712782D02*
X106624948Y-57712782D01*
X106624948Y-57712782D02*
X106682091Y-57741353D01*
X106682091Y-57741353D02*
X106710662Y-57798496D01*
X106710662Y-57798496D02*
X106710662Y-57912782D01*
X106710662Y-57912782D02*
X106682091Y-57969924D01*
X106339234Y-57712782D02*
X106310662Y-57769924D01*
X106310662Y-57769924D02*
X106310662Y-57912782D01*
X106310662Y-57912782D02*
X106339234Y-57969924D01*
X106339234Y-57969924D02*
X106396376Y-57998496D01*
X106396376Y-57998496D02*
X106453519Y-57998496D01*
X106453519Y-57998496D02*
X106510662Y-57969924D01*
X106510662Y-57969924D02*
X106539234Y-57912782D01*
X106539234Y-57912782D02*
X106539234Y-57769924D01*
X106539234Y-57769924D02*
X106567805Y-57712782D01*
X106710662Y-57512782D02*
X106710662Y-57284210D01*
X106910662Y-57427067D02*
X106396376Y-57427067D01*
X106396376Y-57427067D02*
X106339234Y-57398496D01*
X106339234Y-57398496D02*
X106310662Y-57341353D01*
X106310662Y-57341353D02*
X106310662Y-57284210D01*
X106310662Y-57084210D02*
X106710662Y-57084210D01*
X106596376Y-57084210D02*
X106653519Y-57055639D01*
X106653519Y-57055639D02*
X106682091Y-57027068D01*
X106682091Y-57027068D02*
X106710662Y-56969925D01*
X106710662Y-56969925D02*
X106710662Y-56912782D01*
X106310662Y-56712781D02*
X106710662Y-56712781D01*
X106910662Y-56712781D02*
X106882091Y-56741353D01*
X106882091Y-56741353D02*
X106853519Y-56712781D01*
X106853519Y-56712781D02*
X106882091Y-56684210D01*
X106882091Y-56684210D02*
X106910662Y-56712781D01*
X106910662Y-56712781D02*
X106853519Y-56712781D01*
X106310662Y-56484210D02*
X106710662Y-56169925D01*
X106710662Y-56484210D02*
X106310662Y-56169925D01*
X105944696Y-62998496D02*
X105944696Y-62627068D01*
X105944696Y-62627068D02*
X105716125Y-62827068D01*
X105716125Y-62827068D02*
X105716125Y-62741353D01*
X105716125Y-62741353D02*
X105687553Y-62684211D01*
X105687553Y-62684211D02*
X105658982Y-62655639D01*
X105658982Y-62655639D02*
X105601839Y-62627068D01*
X105601839Y-62627068D02*
X105458982Y-62627068D01*
X105458982Y-62627068D02*
X105401839Y-62655639D01*
X105401839Y-62655639D02*
X105373268Y-62684211D01*
X105373268Y-62684211D02*
X105344696Y-62741353D01*
X105344696Y-62741353D02*
X105344696Y-62912782D01*
X105344696Y-62912782D02*
X105373268Y-62969925D01*
X105373268Y-62969925D02*
X105401839Y-62998496D01*
X105373268Y-61655639D02*
X105344696Y-61712781D01*
X105344696Y-61712781D02*
X105344696Y-61827067D01*
X105344696Y-61827067D02*
X105373268Y-61884210D01*
X105373268Y-61884210D02*
X105401839Y-61912781D01*
X105401839Y-61912781D02*
X105458982Y-61941353D01*
X105458982Y-61941353D02*
X105630410Y-61941353D01*
X105630410Y-61941353D02*
X105687553Y-61912781D01*
X105687553Y-61912781D02*
X105716125Y-61884210D01*
X105716125Y-61884210D02*
X105744696Y-61827067D01*
X105744696Y-61827067D02*
X105744696Y-61712781D01*
X105744696Y-61712781D02*
X105716125Y-61655639D01*
X105344696Y-61141353D02*
X105658982Y-61141353D01*
X105658982Y-61141353D02*
X105716125Y-61169924D01*
X105716125Y-61169924D02*
X105744696Y-61227067D01*
X105744696Y-61227067D02*
X105744696Y-61341353D01*
X105744696Y-61341353D02*
X105716125Y-61398495D01*
X105373268Y-61141353D02*
X105344696Y-61198495D01*
X105344696Y-61198495D02*
X105344696Y-61341353D01*
X105344696Y-61341353D02*
X105373268Y-61398495D01*
X105373268Y-61398495D02*
X105430410Y-61427067D01*
X105430410Y-61427067D02*
X105487553Y-61427067D01*
X105487553Y-61427067D02*
X105544696Y-61398495D01*
X105544696Y-61398495D02*
X105573268Y-61341353D01*
X105573268Y-61341353D02*
X105573268Y-61198495D01*
X105573268Y-61198495D02*
X105601839Y-61141353D01*
X105744696Y-60855638D02*
X105144696Y-60855638D01*
X105716125Y-60855638D02*
X105744696Y-60798496D01*
X105744696Y-60798496D02*
X105744696Y-60684210D01*
X105744696Y-60684210D02*
X105716125Y-60627067D01*
X105716125Y-60627067D02*
X105687553Y-60598496D01*
X105687553Y-60598496D02*
X105630410Y-60569924D01*
X105630410Y-60569924D02*
X105458982Y-60569924D01*
X105458982Y-60569924D02*
X105401839Y-60598496D01*
X105401839Y-60598496D02*
X105373268Y-60627067D01*
X105373268Y-60627067D02*
X105344696Y-60684210D01*
X105344696Y-60684210D02*
X105344696Y-60798496D01*
X105344696Y-60798496D02*
X105373268Y-60855638D01*
X105344696Y-60055639D02*
X105658982Y-60055639D01*
X105658982Y-60055639D02*
X105716125Y-60084210D01*
X105716125Y-60084210D02*
X105744696Y-60141353D01*
X105744696Y-60141353D02*
X105744696Y-60255639D01*
X105744696Y-60255639D02*
X105716125Y-60312781D01*
X105373268Y-60055639D02*
X105344696Y-60112781D01*
X105344696Y-60112781D02*
X105344696Y-60255639D01*
X105344696Y-60255639D02*
X105373268Y-60312781D01*
X105373268Y-60312781D02*
X105430410Y-60341353D01*
X105430410Y-60341353D02*
X105487553Y-60341353D01*
X105487553Y-60341353D02*
X105544696Y-60312781D01*
X105544696Y-60312781D02*
X105573268Y-60255639D01*
X105573268Y-60255639D02*
X105573268Y-60112781D01*
X105573268Y-60112781D02*
X105601839Y-60055639D01*
X105373268Y-59512782D02*
X105344696Y-59569924D01*
X105344696Y-59569924D02*
X105344696Y-59684210D01*
X105344696Y-59684210D02*
X105373268Y-59741353D01*
X105373268Y-59741353D02*
X105401839Y-59769924D01*
X105401839Y-59769924D02*
X105458982Y-59798496D01*
X105458982Y-59798496D02*
X105630410Y-59798496D01*
X105630410Y-59798496D02*
X105687553Y-59769924D01*
X105687553Y-59769924D02*
X105716125Y-59741353D01*
X105716125Y-59741353D02*
X105744696Y-59684210D01*
X105744696Y-59684210D02*
X105744696Y-59569924D01*
X105744696Y-59569924D02*
X105716125Y-59512782D01*
X105344696Y-59255638D02*
X105744696Y-59255638D01*
X105944696Y-59255638D02*
X105916125Y-59284210D01*
X105916125Y-59284210D02*
X105887553Y-59255638D01*
X105887553Y-59255638D02*
X105916125Y-59227067D01*
X105916125Y-59227067D02*
X105944696Y-59255638D01*
X105944696Y-59255638D02*
X105887553Y-59255638D01*
X105744696Y-59055639D02*
X105744696Y-58827067D01*
X105944696Y-58969924D02*
X105430410Y-58969924D01*
X105430410Y-58969924D02*
X105373268Y-58941353D01*
X105373268Y-58941353D02*
X105344696Y-58884210D01*
X105344696Y-58884210D02*
X105344696Y-58827067D01*
X105344696Y-58627067D02*
X105744696Y-58627067D01*
X105944696Y-58627067D02*
X105916125Y-58655639D01*
X105916125Y-58655639D02*
X105887553Y-58627067D01*
X105887553Y-58627067D02*
X105916125Y-58598496D01*
X105916125Y-58598496D02*
X105944696Y-58627067D01*
X105944696Y-58627067D02*
X105887553Y-58627067D01*
X105744696Y-58398496D02*
X105344696Y-58255639D01*
X105344696Y-58255639D02*
X105744696Y-58112782D01*
X105373268Y-57655639D02*
X105344696Y-57712782D01*
X105344696Y-57712782D02*
X105344696Y-57827068D01*
X105344696Y-57827068D02*
X105373268Y-57884210D01*
X105373268Y-57884210D02*
X105430410Y-57912782D01*
X105430410Y-57912782D02*
X105658982Y-57912782D01*
X105658982Y-57912782D02*
X105716125Y-57884210D01*
X105716125Y-57884210D02*
X105744696Y-57827068D01*
X105744696Y-57827068D02*
X105744696Y-57712782D01*
X105744696Y-57712782D02*
X105716125Y-57655639D01*
X105716125Y-57655639D02*
X105658982Y-57627068D01*
X105658982Y-57627068D02*
X105601839Y-57627068D01*
X105601839Y-57627068D02*
X105544696Y-57912782D01*
X105744696Y-56998496D02*
X105744696Y-56769924D01*
X105944696Y-56912781D02*
X105430410Y-56912781D01*
X105430410Y-56912781D02*
X105373268Y-56884210D01*
X105373268Y-56884210D02*
X105344696Y-56827067D01*
X105344696Y-56827067D02*
X105344696Y-56769924D01*
X105344696Y-56484210D02*
X105373268Y-56541353D01*
X105373268Y-56541353D02*
X105401839Y-56569924D01*
X105401839Y-56569924D02*
X105458982Y-56598496D01*
X105458982Y-56598496D02*
X105630410Y-56598496D01*
X105630410Y-56598496D02*
X105687553Y-56569924D01*
X105687553Y-56569924D02*
X105716125Y-56541353D01*
X105716125Y-56541353D02*
X105744696Y-56484210D01*
X105744696Y-56484210D02*
X105744696Y-56398496D01*
X105744696Y-56398496D02*
X105716125Y-56341353D01*
X105716125Y-56341353D02*
X105687553Y-56312782D01*
X105687553Y-56312782D02*
X105630410Y-56284210D01*
X105630410Y-56284210D02*
X105458982Y-56284210D01*
X105458982Y-56284210D02*
X105401839Y-56312782D01*
X105401839Y-56312782D02*
X105373268Y-56341353D01*
X105373268Y-56341353D02*
X105344696Y-56398496D01*
X105344696Y-56398496D02*
X105344696Y-56484210D01*
X105744696Y-55769925D02*
X105344696Y-55769925D01*
X105744696Y-56027067D02*
X105430410Y-56027067D01*
X105430410Y-56027067D02*
X105373268Y-55998496D01*
X105373268Y-55998496D02*
X105344696Y-55941353D01*
X105344696Y-55941353D02*
X105344696Y-55855639D01*
X105344696Y-55855639D02*
X105373268Y-55798496D01*
X105373268Y-55798496D02*
X105401839Y-55769925D01*
X105373268Y-55227068D02*
X105344696Y-55284210D01*
X105344696Y-55284210D02*
X105344696Y-55398496D01*
X105344696Y-55398496D02*
X105373268Y-55455639D01*
X105373268Y-55455639D02*
X105401839Y-55484210D01*
X105401839Y-55484210D02*
X105458982Y-55512782D01*
X105458982Y-55512782D02*
X105630410Y-55512782D01*
X105630410Y-55512782D02*
X105687553Y-55484210D01*
X105687553Y-55484210D02*
X105716125Y-55455639D01*
X105716125Y-55455639D02*
X105744696Y-55398496D01*
X105744696Y-55398496D02*
X105744696Y-55284210D01*
X105744696Y-55284210D02*
X105716125Y-55227068D01*
X105344696Y-54969924D02*
X105944696Y-54969924D01*
X105344696Y-54712782D02*
X105658982Y-54712782D01*
X105658982Y-54712782D02*
X105716125Y-54741353D01*
X105716125Y-54741353D02*
X105744696Y-54798496D01*
X105744696Y-54798496D02*
X105744696Y-54884210D01*
X105744696Y-54884210D02*
X105716125Y-54941353D01*
X105716125Y-54941353D02*
X105687553Y-54969924D01*
X105344696Y-53969924D02*
X105744696Y-53969924D01*
X105944696Y-53969924D02*
X105916125Y-53998496D01*
X105916125Y-53998496D02*
X105887553Y-53969924D01*
X105887553Y-53969924D02*
X105916125Y-53941353D01*
X105916125Y-53941353D02*
X105944696Y-53969924D01*
X105944696Y-53969924D02*
X105887553Y-53969924D01*
X105744696Y-53684210D02*
X105344696Y-53684210D01*
X105687553Y-53684210D02*
X105716125Y-53655639D01*
X105716125Y-53655639D02*
X105744696Y-53598496D01*
X105744696Y-53598496D02*
X105744696Y-53512782D01*
X105744696Y-53512782D02*
X105716125Y-53455639D01*
X105716125Y-53455639D02*
X105658982Y-53427068D01*
X105658982Y-53427068D02*
X105344696Y-53427068D01*
X105744696Y-53141353D02*
X105144696Y-53141353D01*
X105716125Y-53141353D02*
X105744696Y-53084211D01*
X105744696Y-53084211D02*
X105744696Y-52969925D01*
X105744696Y-52969925D02*
X105716125Y-52912782D01*
X105716125Y-52912782D02*
X105687553Y-52884211D01*
X105687553Y-52884211D02*
X105630410Y-52855639D01*
X105630410Y-52855639D02*
X105458982Y-52855639D01*
X105458982Y-52855639D02*
X105401839Y-52884211D01*
X105401839Y-52884211D02*
X105373268Y-52912782D01*
X105373268Y-52912782D02*
X105344696Y-52969925D01*
X105344696Y-52969925D02*
X105344696Y-53084211D01*
X105344696Y-53084211D02*
X105373268Y-53141353D01*
X105744696Y-52341354D02*
X105344696Y-52341354D01*
X105744696Y-52598496D02*
X105430410Y-52598496D01*
X105430410Y-52598496D02*
X105373268Y-52569925D01*
X105373268Y-52569925D02*
X105344696Y-52512782D01*
X105344696Y-52512782D02*
X105344696Y-52427068D01*
X105344696Y-52427068D02*
X105373268Y-52369925D01*
X105373268Y-52369925D02*
X105401839Y-52341354D01*
X105744696Y-52141354D02*
X105744696Y-51912782D01*
X105944696Y-52055639D02*
X105430410Y-52055639D01*
X105430410Y-52055639D02*
X105373268Y-52027068D01*
X105373268Y-52027068D02*
X105344696Y-51969925D01*
X105344696Y-51969925D02*
X105344696Y-51912782D01*
X105373268Y-51741354D02*
X105344696Y-51684211D01*
X105344696Y-51684211D02*
X105344696Y-51569925D01*
X105344696Y-51569925D02*
X105373268Y-51512782D01*
X105373268Y-51512782D02*
X105430410Y-51484211D01*
X105430410Y-51484211D02*
X105458982Y-51484211D01*
X105458982Y-51484211D02*
X105516125Y-51512782D01*
X105516125Y-51512782D02*
X105544696Y-51569925D01*
X105544696Y-51569925D02*
X105544696Y-51655640D01*
X105544696Y-51655640D02*
X105573268Y-51712782D01*
X105573268Y-51712782D02*
X105630410Y-51741354D01*
X105630410Y-51741354D02*
X105658982Y-51741354D01*
X105658982Y-51741354D02*
X105716125Y-51712782D01*
X105716125Y-51712782D02*
X105744696Y-51655640D01*
X105744696Y-51655640D02*
X105744696Y-51569925D01*
X105744696Y-51569925D02*
X105716125Y-51512782D01*
X104978730Y-62941353D02*
X104493016Y-62941353D01*
X104493016Y-62941353D02*
X104435873Y-62912782D01*
X104435873Y-62912782D02*
X104407302Y-62884211D01*
X104407302Y-62884211D02*
X104378730Y-62827068D01*
X104378730Y-62827068D02*
X104378730Y-62712782D01*
X104378730Y-62712782D02*
X104407302Y-62655639D01*
X104407302Y-62655639D02*
X104435873Y-62627068D01*
X104435873Y-62627068D02*
X104493016Y-62598496D01*
X104493016Y-62598496D02*
X104978730Y-62598496D01*
X104407302Y-62341354D02*
X104378730Y-62255640D01*
X104378730Y-62255640D02*
X104378730Y-62112782D01*
X104378730Y-62112782D02*
X104407302Y-62055640D01*
X104407302Y-62055640D02*
X104435873Y-62027068D01*
X104435873Y-62027068D02*
X104493016Y-61998497D01*
X104493016Y-61998497D02*
X104550159Y-61998497D01*
X104550159Y-61998497D02*
X104607302Y-62027068D01*
X104607302Y-62027068D02*
X104635873Y-62055640D01*
X104635873Y-62055640D02*
X104664444Y-62112782D01*
X104664444Y-62112782D02*
X104693016Y-62227068D01*
X104693016Y-62227068D02*
X104721587Y-62284211D01*
X104721587Y-62284211D02*
X104750159Y-62312782D01*
X104750159Y-62312782D02*
X104807302Y-62341354D01*
X104807302Y-62341354D02*
X104864444Y-62341354D01*
X104864444Y-62341354D02*
X104921587Y-62312782D01*
X104921587Y-62312782D02*
X104950159Y-62284211D01*
X104950159Y-62284211D02*
X104978730Y-62227068D01*
X104978730Y-62227068D02*
X104978730Y-62084211D01*
X104978730Y-62084211D02*
X104950159Y-61998497D01*
X104693016Y-61541353D02*
X104664444Y-61455639D01*
X104664444Y-61455639D02*
X104635873Y-61427068D01*
X104635873Y-61427068D02*
X104578730Y-61398496D01*
X104578730Y-61398496D02*
X104493016Y-61398496D01*
X104493016Y-61398496D02*
X104435873Y-61427068D01*
X104435873Y-61427068D02*
X104407302Y-61455639D01*
X104407302Y-61455639D02*
X104378730Y-61512782D01*
X104378730Y-61512782D02*
X104378730Y-61741353D01*
X104378730Y-61741353D02*
X104978730Y-61741353D01*
X104978730Y-61741353D02*
X104978730Y-61541353D01*
X104978730Y-61541353D02*
X104950159Y-61484211D01*
X104950159Y-61484211D02*
X104921587Y-61455639D01*
X104921587Y-61455639D02*
X104864444Y-61427068D01*
X104864444Y-61427068D02*
X104807302Y-61427068D01*
X104807302Y-61427068D02*
X104750159Y-61455639D01*
X104750159Y-61455639D02*
X104721587Y-61484211D01*
X104721587Y-61484211D02*
X104693016Y-61541353D01*
X104693016Y-61541353D02*
X104693016Y-61741353D01*
X104607302Y-61141353D02*
X104607302Y-60684211D01*
X104435873Y-60055639D02*
X104407302Y-60084211D01*
X104407302Y-60084211D02*
X104378730Y-60169925D01*
X104378730Y-60169925D02*
X104378730Y-60227068D01*
X104378730Y-60227068D02*
X104407302Y-60312782D01*
X104407302Y-60312782D02*
X104464444Y-60369925D01*
X104464444Y-60369925D02*
X104521587Y-60398496D01*
X104521587Y-60398496D02*
X104635873Y-60427068D01*
X104635873Y-60427068D02*
X104721587Y-60427068D01*
X104721587Y-60427068D02*
X104835873Y-60398496D01*
X104835873Y-60398496D02*
X104893016Y-60369925D01*
X104893016Y-60369925D02*
X104950159Y-60312782D01*
X104950159Y-60312782D02*
X104978730Y-60227068D01*
X104978730Y-60227068D02*
X104978730Y-60169925D01*
X104978730Y-60169925D02*
X104950159Y-60084211D01*
X104950159Y-60084211D02*
X104921587Y-60055639D01*
X104435873Y-58998496D02*
X104407302Y-59027068D01*
X104407302Y-59027068D02*
X104378730Y-59112782D01*
X104378730Y-59112782D02*
X104378730Y-59169925D01*
X104378730Y-59169925D02*
X104407302Y-59255639D01*
X104407302Y-59255639D02*
X104464444Y-59312782D01*
X104464444Y-59312782D02*
X104521587Y-59341353D01*
X104521587Y-59341353D02*
X104635873Y-59369925D01*
X104635873Y-59369925D02*
X104721587Y-59369925D01*
X104721587Y-59369925D02*
X104835873Y-59341353D01*
X104835873Y-59341353D02*
X104893016Y-59312782D01*
X104893016Y-59312782D02*
X104950159Y-59255639D01*
X104950159Y-59255639D02*
X104978730Y-59169925D01*
X104978730Y-59169925D02*
X104978730Y-59112782D01*
X104978730Y-59112782D02*
X104950159Y-59027068D01*
X104950159Y-59027068D02*
X104921587Y-58998496D01*
X104378730Y-58655639D02*
X104407302Y-58712782D01*
X104407302Y-58712782D02*
X104435873Y-58741353D01*
X104435873Y-58741353D02*
X104493016Y-58769925D01*
X104493016Y-58769925D02*
X104664444Y-58769925D01*
X104664444Y-58769925D02*
X104721587Y-58741353D01*
X104721587Y-58741353D02*
X104750159Y-58712782D01*
X104750159Y-58712782D02*
X104778730Y-58655639D01*
X104778730Y-58655639D02*
X104778730Y-58569925D01*
X104778730Y-58569925D02*
X104750159Y-58512782D01*
X104750159Y-58512782D02*
X104721587Y-58484211D01*
X104721587Y-58484211D02*
X104664444Y-58455639D01*
X104664444Y-58455639D02*
X104493016Y-58455639D01*
X104493016Y-58455639D02*
X104435873Y-58484211D01*
X104435873Y-58484211D02*
X104407302Y-58512782D01*
X104407302Y-58512782D02*
X104378730Y-58569925D01*
X104378730Y-58569925D02*
X104378730Y-58655639D01*
X104778730Y-58198496D02*
X104378730Y-58198496D01*
X104721587Y-58198496D02*
X104750159Y-58169925D01*
X104750159Y-58169925D02*
X104778730Y-58112782D01*
X104778730Y-58112782D02*
X104778730Y-58027068D01*
X104778730Y-58027068D02*
X104750159Y-57969925D01*
X104750159Y-57969925D02*
X104693016Y-57941354D01*
X104693016Y-57941354D02*
X104378730Y-57941354D01*
X104778730Y-57655639D02*
X104378730Y-57655639D01*
X104721587Y-57655639D02*
X104750159Y-57627068D01*
X104750159Y-57627068D02*
X104778730Y-57569925D01*
X104778730Y-57569925D02*
X104778730Y-57484211D01*
X104778730Y-57484211D02*
X104750159Y-57427068D01*
X104750159Y-57427068D02*
X104693016Y-57398497D01*
X104693016Y-57398497D02*
X104378730Y-57398497D01*
X104407302Y-56884211D02*
X104378730Y-56941354D01*
X104378730Y-56941354D02*
X104378730Y-57055640D01*
X104378730Y-57055640D02*
X104407302Y-57112782D01*
X104407302Y-57112782D02*
X104464444Y-57141354D01*
X104464444Y-57141354D02*
X104693016Y-57141354D01*
X104693016Y-57141354D02*
X104750159Y-57112782D01*
X104750159Y-57112782D02*
X104778730Y-57055640D01*
X104778730Y-57055640D02*
X104778730Y-56941354D01*
X104778730Y-56941354D02*
X104750159Y-56884211D01*
X104750159Y-56884211D02*
X104693016Y-56855640D01*
X104693016Y-56855640D02*
X104635873Y-56855640D01*
X104635873Y-56855640D02*
X104578730Y-57141354D01*
X104407302Y-56341354D02*
X104378730Y-56398496D01*
X104378730Y-56398496D02*
X104378730Y-56512782D01*
X104378730Y-56512782D02*
X104407302Y-56569925D01*
X104407302Y-56569925D02*
X104435873Y-56598496D01*
X104435873Y-56598496D02*
X104493016Y-56627068D01*
X104493016Y-56627068D02*
X104664444Y-56627068D01*
X104664444Y-56627068D02*
X104721587Y-56598496D01*
X104721587Y-56598496D02*
X104750159Y-56569925D01*
X104750159Y-56569925D02*
X104778730Y-56512782D01*
X104778730Y-56512782D02*
X104778730Y-56398496D01*
X104778730Y-56398496D02*
X104750159Y-56341354D01*
X104778730Y-56169925D02*
X104778730Y-55941353D01*
X104978730Y-56084210D02*
X104464444Y-56084210D01*
X104464444Y-56084210D02*
X104407302Y-56055639D01*
X104407302Y-56055639D02*
X104378730Y-55998496D01*
X104378730Y-55998496D02*
X104378730Y-55941353D01*
X104378730Y-55741353D02*
X104778730Y-55741353D01*
X104978730Y-55741353D02*
X104950159Y-55769925D01*
X104950159Y-55769925D02*
X104921587Y-55741353D01*
X104921587Y-55741353D02*
X104950159Y-55712782D01*
X104950159Y-55712782D02*
X104978730Y-55741353D01*
X104978730Y-55741353D02*
X104921587Y-55741353D01*
X104778730Y-55512782D02*
X104378730Y-55369925D01*
X104378730Y-55369925D02*
X104778730Y-55227068D01*
X104378730Y-54998496D02*
X104778730Y-54998496D01*
X104978730Y-54998496D02*
X104950159Y-55027068D01*
X104950159Y-55027068D02*
X104921587Y-54998496D01*
X104921587Y-54998496D02*
X104950159Y-54969925D01*
X104950159Y-54969925D02*
X104978730Y-54998496D01*
X104978730Y-54998496D02*
X104921587Y-54998496D01*
X104778730Y-54798497D02*
X104778730Y-54569925D01*
X104978730Y-54712782D02*
X104464444Y-54712782D01*
X104464444Y-54712782D02*
X104407302Y-54684211D01*
X104407302Y-54684211D02*
X104378730Y-54627068D01*
X104378730Y-54627068D02*
X104378730Y-54569925D01*
X104778730Y-54427068D02*
X104378730Y-54284211D01*
X104778730Y-54141354D02*
X104378730Y-54284211D01*
X104378730Y-54284211D02*
X104235873Y-54341354D01*
X104235873Y-54341354D02*
X104207302Y-54369925D01*
X104207302Y-54369925D02*
X104178730Y-54427068D01*
X103412764Y-62655639D02*
X103412764Y-62941353D01*
X103412764Y-62941353D02*
X104012764Y-62941353D01*
X103412764Y-62455639D02*
X103812764Y-62455639D01*
X104012764Y-62455639D02*
X103984193Y-62484211D01*
X103984193Y-62484211D02*
X103955621Y-62455639D01*
X103955621Y-62455639D02*
X103984193Y-62427068D01*
X103984193Y-62427068D02*
X104012764Y-62455639D01*
X104012764Y-62455639D02*
X103955621Y-62455639D01*
X103412764Y-62169925D02*
X104012764Y-62169925D01*
X104012764Y-62169925D02*
X104012764Y-61941354D01*
X104012764Y-61941354D02*
X103984193Y-61884211D01*
X103984193Y-61884211D02*
X103955621Y-61855640D01*
X103955621Y-61855640D02*
X103898478Y-61827068D01*
X103898478Y-61827068D02*
X103812764Y-61827068D01*
X103812764Y-61827068D02*
X103755621Y-61855640D01*
X103755621Y-61855640D02*
X103727050Y-61884211D01*
X103727050Y-61884211D02*
X103698478Y-61941354D01*
X103698478Y-61941354D02*
X103698478Y-62169925D01*
X103412764Y-61484211D02*
X103441336Y-61541354D01*
X103441336Y-61541354D02*
X103469907Y-61569925D01*
X103469907Y-61569925D02*
X103527050Y-61598497D01*
X103527050Y-61598497D02*
X103698478Y-61598497D01*
X103698478Y-61598497D02*
X103755621Y-61569925D01*
X103755621Y-61569925D02*
X103784193Y-61541354D01*
X103784193Y-61541354D02*
X103812764Y-61484211D01*
X103812764Y-61484211D02*
X103812764Y-61398497D01*
X103812764Y-61398497D02*
X103784193Y-61341354D01*
X103784193Y-61341354D02*
X103755621Y-61312783D01*
X103755621Y-61312783D02*
X103698478Y-61284211D01*
X103698478Y-61284211D02*
X103527050Y-61284211D01*
X103527050Y-61284211D02*
X103469907Y-61312783D01*
X103469907Y-61312783D02*
X103441336Y-61341354D01*
X103441336Y-61341354D02*
X103412764Y-61398497D01*
X103412764Y-61398497D02*
X103412764Y-61484211D01*
X103441336Y-60312783D02*
X103412764Y-60369925D01*
X103412764Y-60369925D02*
X103412764Y-60484211D01*
X103412764Y-60484211D02*
X103441336Y-60541354D01*
X103441336Y-60541354D02*
X103469907Y-60569925D01*
X103469907Y-60569925D02*
X103527050Y-60598497D01*
X103527050Y-60598497D02*
X103698478Y-60598497D01*
X103698478Y-60598497D02*
X103755621Y-60569925D01*
X103755621Y-60569925D02*
X103784193Y-60541354D01*
X103784193Y-60541354D02*
X103812764Y-60484211D01*
X103812764Y-60484211D02*
X103812764Y-60369925D01*
X103812764Y-60369925D02*
X103784193Y-60312783D01*
X103412764Y-60055639D02*
X104012764Y-60055639D01*
X103412764Y-59798497D02*
X103727050Y-59798497D01*
X103727050Y-59798497D02*
X103784193Y-59827068D01*
X103784193Y-59827068D02*
X103812764Y-59884211D01*
X103812764Y-59884211D02*
X103812764Y-59969925D01*
X103812764Y-59969925D02*
X103784193Y-60027068D01*
X103784193Y-60027068D02*
X103755621Y-60055639D01*
X103412764Y-59255640D02*
X103727050Y-59255640D01*
X103727050Y-59255640D02*
X103784193Y-59284211D01*
X103784193Y-59284211D02*
X103812764Y-59341354D01*
X103812764Y-59341354D02*
X103812764Y-59455640D01*
X103812764Y-59455640D02*
X103784193Y-59512782D01*
X103441336Y-59255640D02*
X103412764Y-59312782D01*
X103412764Y-59312782D02*
X103412764Y-59455640D01*
X103412764Y-59455640D02*
X103441336Y-59512782D01*
X103441336Y-59512782D02*
X103498478Y-59541354D01*
X103498478Y-59541354D02*
X103555621Y-59541354D01*
X103555621Y-59541354D02*
X103612764Y-59512782D01*
X103612764Y-59512782D02*
X103641336Y-59455640D01*
X103641336Y-59455640D02*
X103641336Y-59312782D01*
X103641336Y-59312782D02*
X103669907Y-59255640D01*
X103412764Y-58969925D02*
X103812764Y-58969925D01*
X103698478Y-58969925D02*
X103755621Y-58941354D01*
X103755621Y-58941354D02*
X103784193Y-58912783D01*
X103784193Y-58912783D02*
X103812764Y-58855640D01*
X103812764Y-58855640D02*
X103812764Y-58798497D01*
X103812764Y-58341354D02*
X103327050Y-58341354D01*
X103327050Y-58341354D02*
X103269907Y-58369925D01*
X103269907Y-58369925D02*
X103241336Y-58398496D01*
X103241336Y-58398496D02*
X103212764Y-58455639D01*
X103212764Y-58455639D02*
X103212764Y-58541354D01*
X103212764Y-58541354D02*
X103241336Y-58598496D01*
X103441336Y-58341354D02*
X103412764Y-58398496D01*
X103412764Y-58398496D02*
X103412764Y-58512782D01*
X103412764Y-58512782D02*
X103441336Y-58569925D01*
X103441336Y-58569925D02*
X103469907Y-58598496D01*
X103469907Y-58598496D02*
X103527050Y-58627068D01*
X103527050Y-58627068D02*
X103698478Y-58627068D01*
X103698478Y-58627068D02*
X103755621Y-58598496D01*
X103755621Y-58598496D02*
X103784193Y-58569925D01*
X103784193Y-58569925D02*
X103812764Y-58512782D01*
X103812764Y-58512782D02*
X103812764Y-58398496D01*
X103812764Y-58398496D02*
X103784193Y-58341354D01*
X103412764Y-58055639D02*
X103812764Y-58055639D01*
X104012764Y-58055639D02*
X103984193Y-58084211D01*
X103984193Y-58084211D02*
X103955621Y-58055639D01*
X103955621Y-58055639D02*
X103984193Y-58027068D01*
X103984193Y-58027068D02*
X104012764Y-58055639D01*
X104012764Y-58055639D02*
X103955621Y-58055639D01*
X103812764Y-57769925D02*
X103412764Y-57769925D01*
X103755621Y-57769925D02*
X103784193Y-57741354D01*
X103784193Y-57741354D02*
X103812764Y-57684211D01*
X103812764Y-57684211D02*
X103812764Y-57598497D01*
X103812764Y-57598497D02*
X103784193Y-57541354D01*
X103784193Y-57541354D02*
X103727050Y-57512783D01*
X103727050Y-57512783D02*
X103412764Y-57512783D01*
X103812764Y-56969926D02*
X103327050Y-56969926D01*
X103327050Y-56969926D02*
X103269907Y-56998497D01*
X103269907Y-56998497D02*
X103241336Y-57027068D01*
X103241336Y-57027068D02*
X103212764Y-57084211D01*
X103212764Y-57084211D02*
X103212764Y-57169926D01*
X103212764Y-57169926D02*
X103241336Y-57227068D01*
X103441336Y-56969926D02*
X103412764Y-57027068D01*
X103412764Y-57027068D02*
X103412764Y-57141354D01*
X103412764Y-57141354D02*
X103441336Y-57198497D01*
X103441336Y-57198497D02*
X103469907Y-57227068D01*
X103469907Y-57227068D02*
X103527050Y-57255640D01*
X103527050Y-57255640D02*
X103698478Y-57255640D01*
X103698478Y-57255640D02*
X103755621Y-57227068D01*
X103755621Y-57227068D02*
X103784193Y-57198497D01*
X103784193Y-57198497D02*
X103812764Y-57141354D01*
X103812764Y-57141354D02*
X103812764Y-57027068D01*
X103812764Y-57027068D02*
X103784193Y-56969926D01*
X103441336Y-55969926D02*
X103412764Y-56027068D01*
X103412764Y-56027068D02*
X103412764Y-56141354D01*
X103412764Y-56141354D02*
X103441336Y-56198497D01*
X103441336Y-56198497D02*
X103469907Y-56227068D01*
X103469907Y-56227068D02*
X103527050Y-56255640D01*
X103527050Y-56255640D02*
X103698478Y-56255640D01*
X103698478Y-56255640D02*
X103755621Y-56227068D01*
X103755621Y-56227068D02*
X103784193Y-56198497D01*
X103784193Y-56198497D02*
X103812764Y-56141354D01*
X103812764Y-56141354D02*
X103812764Y-56027068D01*
X103812764Y-56027068D02*
X103784193Y-55969926D01*
X103412764Y-55712782D02*
X103812764Y-55712782D01*
X104012764Y-55712782D02*
X103984193Y-55741354D01*
X103984193Y-55741354D02*
X103955621Y-55712782D01*
X103955621Y-55712782D02*
X103984193Y-55684211D01*
X103984193Y-55684211D02*
X104012764Y-55712782D01*
X104012764Y-55712782D02*
X103955621Y-55712782D01*
X103412764Y-55427068D02*
X103812764Y-55427068D01*
X103698478Y-55427068D02*
X103755621Y-55398497D01*
X103755621Y-55398497D02*
X103784193Y-55369926D01*
X103784193Y-55369926D02*
X103812764Y-55312783D01*
X103812764Y-55312783D02*
X103812764Y-55255640D01*
X103441336Y-54798497D02*
X103412764Y-54855639D01*
X103412764Y-54855639D02*
X103412764Y-54969925D01*
X103412764Y-54969925D02*
X103441336Y-55027068D01*
X103441336Y-55027068D02*
X103469907Y-55055639D01*
X103469907Y-55055639D02*
X103527050Y-55084211D01*
X103527050Y-55084211D02*
X103698478Y-55084211D01*
X103698478Y-55084211D02*
X103755621Y-55055639D01*
X103755621Y-55055639D02*
X103784193Y-55027068D01*
X103784193Y-55027068D02*
X103812764Y-54969925D01*
X103812764Y-54969925D02*
X103812764Y-54855639D01*
X103812764Y-54855639D02*
X103784193Y-54798497D01*
X103812764Y-54284211D02*
X103412764Y-54284211D01*
X103812764Y-54541353D02*
X103498478Y-54541353D01*
X103498478Y-54541353D02*
X103441336Y-54512782D01*
X103441336Y-54512782D02*
X103412764Y-54455639D01*
X103412764Y-54455639D02*
X103412764Y-54369925D01*
X103412764Y-54369925D02*
X103441336Y-54312782D01*
X103441336Y-54312782D02*
X103469907Y-54284211D01*
X103412764Y-53998496D02*
X103812764Y-53998496D01*
X104012764Y-53998496D02*
X103984193Y-54027068D01*
X103984193Y-54027068D02*
X103955621Y-53998496D01*
X103955621Y-53998496D02*
X103984193Y-53969925D01*
X103984193Y-53969925D02*
X104012764Y-53998496D01*
X104012764Y-53998496D02*
X103955621Y-53998496D01*
X103812764Y-53798497D02*
X103812764Y-53569925D01*
X104012764Y-53712782D02*
X103498478Y-53712782D01*
X103498478Y-53712782D02*
X103441336Y-53684211D01*
X103441336Y-53684211D02*
X103412764Y-53627068D01*
X103412764Y-53627068D02*
X103412764Y-53569925D01*
X103412764Y-53369925D02*
X103812764Y-53369925D01*
X103698478Y-53369925D02*
X103755621Y-53341354D01*
X103755621Y-53341354D02*
X103784193Y-53312783D01*
X103784193Y-53312783D02*
X103812764Y-53255640D01*
X103812764Y-53255640D02*
X103812764Y-53198497D01*
X103812764Y-53055639D02*
X103412764Y-52912782D01*
X103812764Y-52769925D02*
X103412764Y-52912782D01*
X103412764Y-52912782D02*
X103269907Y-52969925D01*
X103269907Y-52969925D02*
X103241336Y-52998496D01*
X103241336Y-52998496D02*
X103212764Y-53055639D01*
X103046798Y-62998496D02*
X103046798Y-62627068D01*
X103046798Y-62627068D02*
X102818227Y-62827068D01*
X102818227Y-62827068D02*
X102818227Y-62741353D01*
X102818227Y-62741353D02*
X102789655Y-62684211D01*
X102789655Y-62684211D02*
X102761084Y-62655639D01*
X102761084Y-62655639D02*
X102703941Y-62627068D01*
X102703941Y-62627068D02*
X102561084Y-62627068D01*
X102561084Y-62627068D02*
X102503941Y-62655639D01*
X102503941Y-62655639D02*
X102475370Y-62684211D01*
X102475370Y-62684211D02*
X102446798Y-62741353D01*
X102446798Y-62741353D02*
X102446798Y-62912782D01*
X102446798Y-62912782D02*
X102475370Y-62969925D01*
X102475370Y-62969925D02*
X102503941Y-62998496D01*
X102503941Y-62369924D02*
X102475370Y-62341353D01*
X102475370Y-62341353D02*
X102446798Y-62369924D01*
X102446798Y-62369924D02*
X102475370Y-62398496D01*
X102475370Y-62398496D02*
X102503941Y-62369924D01*
X102503941Y-62369924D02*
X102446798Y-62369924D01*
X103046798Y-62141353D02*
X103046798Y-61769925D01*
X103046798Y-61769925D02*
X102818227Y-61969925D01*
X102818227Y-61969925D02*
X102818227Y-61884210D01*
X102818227Y-61884210D02*
X102789655Y-61827068D01*
X102789655Y-61827068D02*
X102761084Y-61798496D01*
X102761084Y-61798496D02*
X102703941Y-61769925D01*
X102703941Y-61769925D02*
X102561084Y-61769925D01*
X102561084Y-61769925D02*
X102503941Y-61798496D01*
X102503941Y-61798496D02*
X102475370Y-61827068D01*
X102475370Y-61827068D02*
X102446798Y-61884210D01*
X102446798Y-61884210D02*
X102446798Y-62055639D01*
X102446798Y-62055639D02*
X102475370Y-62112782D01*
X102475370Y-62112782D02*
X102503941Y-62141353D01*
X103046798Y-61598496D02*
X102446798Y-61398496D01*
X102446798Y-61398496D02*
X103046798Y-61198496D01*
X102446798Y-60455638D02*
X102475370Y-60512781D01*
X102475370Y-60512781D02*
X102532512Y-60541352D01*
X102532512Y-60541352D02*
X103046798Y-60541352D01*
X102446798Y-60141352D02*
X102475370Y-60198495D01*
X102475370Y-60198495D02*
X102503941Y-60227066D01*
X102503941Y-60227066D02*
X102561084Y-60255638D01*
X102561084Y-60255638D02*
X102732512Y-60255638D01*
X102732512Y-60255638D02*
X102789655Y-60227066D01*
X102789655Y-60227066D02*
X102818227Y-60198495D01*
X102818227Y-60198495D02*
X102846798Y-60141352D01*
X102846798Y-60141352D02*
X102846798Y-60055638D01*
X102846798Y-60055638D02*
X102818227Y-59998495D01*
X102818227Y-59998495D02*
X102789655Y-59969924D01*
X102789655Y-59969924D02*
X102732512Y-59941352D01*
X102732512Y-59941352D02*
X102561084Y-59941352D01*
X102561084Y-59941352D02*
X102503941Y-59969924D01*
X102503941Y-59969924D02*
X102475370Y-59998495D01*
X102475370Y-59998495D02*
X102446798Y-60055638D01*
X102446798Y-60055638D02*
X102446798Y-60141352D01*
X102846798Y-59427067D02*
X102361084Y-59427067D01*
X102361084Y-59427067D02*
X102303941Y-59455638D01*
X102303941Y-59455638D02*
X102275370Y-59484209D01*
X102275370Y-59484209D02*
X102246798Y-59541352D01*
X102246798Y-59541352D02*
X102246798Y-59627067D01*
X102246798Y-59627067D02*
X102275370Y-59684209D01*
X102475370Y-59427067D02*
X102446798Y-59484209D01*
X102446798Y-59484209D02*
X102446798Y-59598495D01*
X102446798Y-59598495D02*
X102475370Y-59655638D01*
X102475370Y-59655638D02*
X102503941Y-59684209D01*
X102503941Y-59684209D02*
X102561084Y-59712781D01*
X102561084Y-59712781D02*
X102732512Y-59712781D01*
X102732512Y-59712781D02*
X102789655Y-59684209D01*
X102789655Y-59684209D02*
X102818227Y-59655638D01*
X102818227Y-59655638D02*
X102846798Y-59598495D01*
X102846798Y-59598495D02*
X102846798Y-59484209D01*
X102846798Y-59484209D02*
X102818227Y-59427067D01*
X102446798Y-59141352D02*
X102846798Y-59141352D01*
X103046798Y-59141352D02*
X103018227Y-59169924D01*
X103018227Y-59169924D02*
X102989655Y-59141352D01*
X102989655Y-59141352D02*
X103018227Y-59112781D01*
X103018227Y-59112781D02*
X103046798Y-59141352D01*
X103046798Y-59141352D02*
X102989655Y-59141352D01*
X102475370Y-58598496D02*
X102446798Y-58655638D01*
X102446798Y-58655638D02*
X102446798Y-58769924D01*
X102446798Y-58769924D02*
X102475370Y-58827067D01*
X102475370Y-58827067D02*
X102503941Y-58855638D01*
X102503941Y-58855638D02*
X102561084Y-58884210D01*
X102561084Y-58884210D02*
X102732512Y-58884210D01*
X102732512Y-58884210D02*
X102789655Y-58855638D01*
X102789655Y-58855638D02*
X102818227Y-58827067D01*
X102818227Y-58827067D02*
X102846798Y-58769924D01*
X102846798Y-58769924D02*
X102846798Y-58655638D01*
X102846798Y-58655638D02*
X102818227Y-58598496D01*
X101480832Y-62941353D02*
X102080832Y-62941353D01*
X102080832Y-62941353D02*
X101652261Y-62741353D01*
X101652261Y-62741353D02*
X102080832Y-62541353D01*
X102080832Y-62541353D02*
X101480832Y-62541353D01*
X102023689Y-62284211D02*
X102052261Y-62255639D01*
X102052261Y-62255639D02*
X102080832Y-62198497D01*
X102080832Y-62198497D02*
X102080832Y-62055639D01*
X102080832Y-62055639D02*
X102052261Y-61998497D01*
X102052261Y-61998497D02*
X102023689Y-61969925D01*
X102023689Y-61969925D02*
X101966546Y-61941354D01*
X101966546Y-61941354D02*
X101909404Y-61941354D01*
X101909404Y-61941354D02*
X101823689Y-61969925D01*
X101823689Y-61969925D02*
X101480832Y-62312782D01*
X101480832Y-62312782D02*
X101480832Y-61941354D01*
X101480832Y-61227067D02*
X101880832Y-61227067D01*
X101823689Y-61227067D02*
X101852261Y-61198496D01*
X101852261Y-61198496D02*
X101880832Y-61141353D01*
X101880832Y-61141353D02*
X101880832Y-61055639D01*
X101880832Y-61055639D02*
X101852261Y-60998496D01*
X101852261Y-60998496D02*
X101795118Y-60969925D01*
X101795118Y-60969925D02*
X101480832Y-60969925D01*
X101795118Y-60969925D02*
X101852261Y-60941353D01*
X101852261Y-60941353D02*
X101880832Y-60884210D01*
X101880832Y-60884210D02*
X101880832Y-60798496D01*
X101880832Y-60798496D02*
X101852261Y-60741353D01*
X101852261Y-60741353D02*
X101795118Y-60712782D01*
X101795118Y-60712782D02*
X101480832Y-60712782D01*
X101480832Y-60341353D02*
X101509404Y-60398496D01*
X101509404Y-60398496D02*
X101537975Y-60427067D01*
X101537975Y-60427067D02*
X101595118Y-60455639D01*
X101595118Y-60455639D02*
X101766546Y-60455639D01*
X101766546Y-60455639D02*
X101823689Y-60427067D01*
X101823689Y-60427067D02*
X101852261Y-60398496D01*
X101852261Y-60398496D02*
X101880832Y-60341353D01*
X101880832Y-60341353D02*
X101880832Y-60255639D01*
X101880832Y-60255639D02*
X101852261Y-60198496D01*
X101852261Y-60198496D02*
X101823689Y-60169925D01*
X101823689Y-60169925D02*
X101766546Y-60141353D01*
X101766546Y-60141353D02*
X101595118Y-60141353D01*
X101595118Y-60141353D02*
X101537975Y-60169925D01*
X101537975Y-60169925D02*
X101509404Y-60198496D01*
X101509404Y-60198496D02*
X101480832Y-60255639D01*
X101480832Y-60255639D02*
X101480832Y-60341353D01*
X101880832Y-59627068D02*
X101480832Y-59627068D01*
X101880832Y-59884210D02*
X101566546Y-59884210D01*
X101566546Y-59884210D02*
X101509404Y-59855639D01*
X101509404Y-59855639D02*
X101480832Y-59798496D01*
X101480832Y-59798496D02*
X101480832Y-59712782D01*
X101480832Y-59712782D02*
X101509404Y-59655639D01*
X101509404Y-59655639D02*
X101537975Y-59627068D01*
X101880832Y-59341353D02*
X101480832Y-59341353D01*
X101823689Y-59341353D02*
X101852261Y-59312782D01*
X101852261Y-59312782D02*
X101880832Y-59255639D01*
X101880832Y-59255639D02*
X101880832Y-59169925D01*
X101880832Y-59169925D02*
X101852261Y-59112782D01*
X101852261Y-59112782D02*
X101795118Y-59084211D01*
X101795118Y-59084211D02*
X101480832Y-59084211D01*
X101880832Y-58884211D02*
X101880832Y-58655639D01*
X102080832Y-58798496D02*
X101566546Y-58798496D01*
X101566546Y-58798496D02*
X101509404Y-58769925D01*
X101509404Y-58769925D02*
X101480832Y-58712782D01*
X101480832Y-58712782D02*
X101480832Y-58655639D01*
X101480832Y-58455639D02*
X101880832Y-58455639D01*
X102080832Y-58455639D02*
X102052261Y-58484211D01*
X102052261Y-58484211D02*
X102023689Y-58455639D01*
X102023689Y-58455639D02*
X102052261Y-58427068D01*
X102052261Y-58427068D02*
X102080832Y-58455639D01*
X102080832Y-58455639D02*
X102023689Y-58455639D01*
X101880832Y-58169925D02*
X101480832Y-58169925D01*
X101823689Y-58169925D02*
X101852261Y-58141354D01*
X101852261Y-58141354D02*
X101880832Y-58084211D01*
X101880832Y-58084211D02*
X101880832Y-57998497D01*
X101880832Y-57998497D02*
X101852261Y-57941354D01*
X101852261Y-57941354D02*
X101795118Y-57912783D01*
X101795118Y-57912783D02*
X101480832Y-57912783D01*
X101880832Y-57369926D02*
X101395118Y-57369926D01*
X101395118Y-57369926D02*
X101337975Y-57398497D01*
X101337975Y-57398497D02*
X101309404Y-57427068D01*
X101309404Y-57427068D02*
X101280832Y-57484211D01*
X101280832Y-57484211D02*
X101280832Y-57569926D01*
X101280832Y-57569926D02*
X101309404Y-57627068D01*
X101509404Y-57369926D02*
X101480832Y-57427068D01*
X101480832Y-57427068D02*
X101480832Y-57541354D01*
X101480832Y-57541354D02*
X101509404Y-57598497D01*
X101509404Y-57598497D02*
X101537975Y-57627068D01*
X101537975Y-57627068D02*
X101595118Y-57655640D01*
X101595118Y-57655640D02*
X101766546Y-57655640D01*
X101766546Y-57655640D02*
X101823689Y-57627068D01*
X101823689Y-57627068D02*
X101852261Y-57598497D01*
X101852261Y-57598497D02*
X101880832Y-57541354D01*
X101880832Y-57541354D02*
X101880832Y-57427068D01*
X101880832Y-57427068D02*
X101852261Y-57369926D01*
D11*
X106692724Y-71845238D02*
X107168915Y-72178571D01*
X106692724Y-72416666D02*
X107692724Y-72416666D01*
X107692724Y-72416666D02*
X107692724Y-72035714D01*
X107692724Y-72035714D02*
X107645105Y-71940476D01*
X107645105Y-71940476D02*
X107597486Y-71892857D01*
X107597486Y-71892857D02*
X107502248Y-71845238D01*
X107502248Y-71845238D02*
X107359391Y-71845238D01*
X107359391Y-71845238D02*
X107264153Y-71892857D01*
X107264153Y-71892857D02*
X107216534Y-71940476D01*
X107216534Y-71940476D02*
X107168915Y-72035714D01*
X107168915Y-72035714D02*
X107168915Y-72416666D01*
X106692724Y-71416666D02*
X107692724Y-71416666D01*
X107692724Y-71416666D02*
X107692724Y-71035714D01*
X107692724Y-71035714D02*
X107645105Y-70940476D01*
X107645105Y-70940476D02*
X107597486Y-70892857D01*
X107597486Y-70892857D02*
X107502248Y-70845238D01*
X107502248Y-70845238D02*
X107359391Y-70845238D01*
X107359391Y-70845238D02*
X107264153Y-70892857D01*
X107264153Y-70892857D02*
X107216534Y-70940476D01*
X107216534Y-70940476D02*
X107168915Y-71035714D01*
X107168915Y-71035714D02*
X107168915Y-71416666D01*
X107597486Y-70464285D02*
X107645105Y-70416666D01*
X107645105Y-70416666D02*
X107692724Y-70321428D01*
X107692724Y-70321428D02*
X107692724Y-70083333D01*
X107692724Y-70083333D02*
X107645105Y-69988095D01*
X107645105Y-69988095D02*
X107597486Y-69940476D01*
X107597486Y-69940476D02*
X107502248Y-69892857D01*
X107502248Y-69892857D02*
X107407010Y-69892857D01*
X107407010Y-69892857D02*
X107264153Y-69940476D01*
X107264153Y-69940476D02*
X106692724Y-70511904D01*
X106692724Y-70511904D02*
X106692724Y-69892857D01*
X107692724Y-69273809D02*
X107692724Y-69178571D01*
X107692724Y-69178571D02*
X107645105Y-69083333D01*
X107645105Y-69083333D02*
X107597486Y-69035714D01*
X107597486Y-69035714D02*
X107502248Y-68988095D01*
X107502248Y-68988095D02*
X107311772Y-68940476D01*
X107311772Y-68940476D02*
X107073677Y-68940476D01*
X107073677Y-68940476D02*
X106883201Y-68988095D01*
X106883201Y-68988095D02*
X106787963Y-69035714D01*
X106787963Y-69035714D02*
X106740344Y-69083333D01*
X106740344Y-69083333D02*
X106692724Y-69178571D01*
X106692724Y-69178571D02*
X106692724Y-69273809D01*
X106692724Y-69273809D02*
X106740344Y-69369047D01*
X106740344Y-69369047D02*
X106787963Y-69416666D01*
X106787963Y-69416666D02*
X106883201Y-69464285D01*
X106883201Y-69464285D02*
X107073677Y-69511904D01*
X107073677Y-69511904D02*
X107311772Y-69511904D01*
X107311772Y-69511904D02*
X107502248Y-69464285D01*
X107502248Y-69464285D02*
X107597486Y-69416666D01*
X107597486Y-69416666D02*
X107645105Y-69369047D01*
X107645105Y-69369047D02*
X107692724Y-69273809D01*
X107359391Y-68083333D02*
X106692724Y-68083333D01*
X107740344Y-68321428D02*
X107026058Y-68559523D01*
X107026058Y-68559523D02*
X107026058Y-67940476D01*
X107692724Y-67369047D02*
X107692724Y-67273809D01*
X107692724Y-67273809D02*
X107645105Y-67178571D01*
X107645105Y-67178571D02*
X107597486Y-67130952D01*
X107597486Y-67130952D02*
X107502248Y-67083333D01*
X107502248Y-67083333D02*
X107311772Y-67035714D01*
X107311772Y-67035714D02*
X107073677Y-67035714D01*
X107073677Y-67035714D02*
X106883201Y-67083333D01*
X106883201Y-67083333D02*
X106787963Y-67130952D01*
X106787963Y-67130952D02*
X106740344Y-67178571D01*
X106740344Y-67178571D02*
X106692724Y-67273809D01*
X106692724Y-67273809D02*
X106692724Y-67369047D01*
X106692724Y-67369047D02*
X106740344Y-67464285D01*
X106740344Y-67464285D02*
X106787963Y-67511904D01*
X106787963Y-67511904D02*
X106883201Y-67559523D01*
X106883201Y-67559523D02*
X107073677Y-67607142D01*
X107073677Y-67607142D02*
X107311772Y-67607142D01*
X107311772Y-67607142D02*
X107502248Y-67559523D01*
X107502248Y-67559523D02*
X107597486Y-67511904D01*
X107597486Y-67511904D02*
X107645105Y-67464285D01*
X107645105Y-67464285D02*
X107692724Y-67369047D01*
X105082780Y-72607142D02*
X106082780Y-72607142D01*
X106082780Y-72607142D02*
X106082780Y-72226190D01*
X106082780Y-72226190D02*
X106035161Y-72130952D01*
X106035161Y-72130952D02*
X105987542Y-72083333D01*
X105987542Y-72083333D02*
X105892304Y-72035714D01*
X105892304Y-72035714D02*
X105749447Y-72035714D01*
X105749447Y-72035714D02*
X105654209Y-72083333D01*
X105654209Y-72083333D02*
X105606590Y-72130952D01*
X105606590Y-72130952D02*
X105558971Y-72226190D01*
X105558971Y-72226190D02*
X105558971Y-72607142D01*
X105082780Y-71464285D02*
X105130400Y-71559523D01*
X105130400Y-71559523D02*
X105178019Y-71607142D01*
X105178019Y-71607142D02*
X105273257Y-71654761D01*
X105273257Y-71654761D02*
X105558971Y-71654761D01*
X105558971Y-71654761D02*
X105654209Y-71607142D01*
X105654209Y-71607142D02*
X105701828Y-71559523D01*
X105701828Y-71559523D02*
X105749447Y-71464285D01*
X105749447Y-71464285D02*
X105749447Y-71321428D01*
X105749447Y-71321428D02*
X105701828Y-71226190D01*
X105701828Y-71226190D02*
X105654209Y-71178571D01*
X105654209Y-71178571D02*
X105558971Y-71130952D01*
X105558971Y-71130952D02*
X105273257Y-71130952D01*
X105273257Y-71130952D02*
X105178019Y-71178571D01*
X105178019Y-71178571D02*
X105130400Y-71226190D01*
X105130400Y-71226190D02*
X105082780Y-71321428D01*
X105082780Y-71321428D02*
X105082780Y-71464285D01*
X105749447Y-70797618D02*
X105082780Y-70607142D01*
X105082780Y-70607142D02*
X105558971Y-70416666D01*
X105558971Y-70416666D02*
X105082780Y-70226190D01*
X105082780Y-70226190D02*
X105749447Y-70035714D01*
X105130400Y-69273809D02*
X105082780Y-69369047D01*
X105082780Y-69369047D02*
X105082780Y-69559523D01*
X105082780Y-69559523D02*
X105130400Y-69654761D01*
X105130400Y-69654761D02*
X105225638Y-69702380D01*
X105225638Y-69702380D02*
X105606590Y-69702380D01*
X105606590Y-69702380D02*
X105701828Y-69654761D01*
X105701828Y-69654761D02*
X105749447Y-69559523D01*
X105749447Y-69559523D02*
X105749447Y-69369047D01*
X105749447Y-69369047D02*
X105701828Y-69273809D01*
X105701828Y-69273809D02*
X105606590Y-69226190D01*
X105606590Y-69226190D02*
X105511352Y-69226190D01*
X105511352Y-69226190D02*
X105416114Y-69702380D01*
X105082780Y-68797618D02*
X105749447Y-68797618D01*
X105558971Y-68797618D02*
X105654209Y-68749999D01*
X105654209Y-68749999D02*
X105701828Y-68702380D01*
X105701828Y-68702380D02*
X105749447Y-68607142D01*
X105749447Y-68607142D02*
X105749447Y-68511904D01*
X105130400Y-67797618D02*
X105082780Y-67892856D01*
X105082780Y-67892856D02*
X105082780Y-68083332D01*
X105082780Y-68083332D02*
X105130400Y-68178570D01*
X105130400Y-68178570D02*
X105225638Y-68226189D01*
X105225638Y-68226189D02*
X105606590Y-68226189D01*
X105606590Y-68226189D02*
X105701828Y-68178570D01*
X105701828Y-68178570D02*
X105749447Y-68083332D01*
X105749447Y-68083332D02*
X105749447Y-67892856D01*
X105749447Y-67892856D02*
X105701828Y-67797618D01*
X105701828Y-67797618D02*
X105606590Y-67749999D01*
X105606590Y-67749999D02*
X105511352Y-67749999D01*
X105511352Y-67749999D02*
X105416114Y-68226189D01*
X105082780Y-66892856D02*
X106082780Y-66892856D01*
X105130400Y-66892856D02*
X105082780Y-66988094D01*
X105082780Y-66988094D02*
X105082780Y-67178570D01*
X105082780Y-67178570D02*
X105130400Y-67273808D01*
X105130400Y-67273808D02*
X105178019Y-67321427D01*
X105178019Y-67321427D02*
X105273257Y-67369046D01*
X105273257Y-67369046D02*
X105558971Y-67369046D01*
X105558971Y-67369046D02*
X105654209Y-67321427D01*
X105654209Y-67321427D02*
X105701828Y-67273808D01*
X105701828Y-67273808D02*
X105749447Y-67178570D01*
X105749447Y-67178570D02*
X105749447Y-66988094D01*
X105749447Y-66988094D02*
X105701828Y-66892856D01*
D12*
X96193294Y-56911372D02*
X96793294Y-56836372D01*
X96793294Y-56836372D02*
X96793294Y-56693515D01*
X96793294Y-56693515D02*
X96764723Y-56611372D01*
X96764723Y-56611372D02*
X96707580Y-56561372D01*
X96707580Y-56561372D02*
X96650437Y-56539943D01*
X96650437Y-56539943D02*
X96536151Y-56525658D01*
X96536151Y-56525658D02*
X96450437Y-56536372D01*
X96450437Y-56536372D02*
X96336151Y-56579229D01*
X96336151Y-56579229D02*
X96279008Y-56614943D01*
X96279008Y-56614943D02*
X96221866Y-56679229D01*
X96221866Y-56679229D02*
X96193294Y-56768515D01*
X96193294Y-56768515D02*
X96193294Y-56911372D01*
X96221866Y-56079229D02*
X96193294Y-56139943D01*
X96193294Y-56139943D02*
X96193294Y-56254229D01*
X96193294Y-56254229D02*
X96221866Y-56307800D01*
X96221866Y-56307800D02*
X96279008Y-56329229D01*
X96279008Y-56329229D02*
X96507580Y-56300658D01*
X96507580Y-56300658D02*
X96564723Y-56264943D01*
X96564723Y-56264943D02*
X96593294Y-56204229D01*
X96593294Y-56204229D02*
X96593294Y-56089943D01*
X96593294Y-56089943D02*
X96564723Y-56036372D01*
X96564723Y-56036372D02*
X96507580Y-56014943D01*
X96507580Y-56014943D02*
X96450437Y-56022086D01*
X96450437Y-56022086D02*
X96393294Y-56314943D01*
X96221866Y-55822086D02*
X96193294Y-55768514D01*
X96193294Y-55768514D02*
X96193294Y-55654229D01*
X96193294Y-55654229D02*
X96221866Y-55593514D01*
X96221866Y-55593514D02*
X96279008Y-55557800D01*
X96279008Y-55557800D02*
X96307580Y-55554229D01*
X96307580Y-55554229D02*
X96364723Y-55575657D01*
X96364723Y-55575657D02*
X96393294Y-55629229D01*
X96393294Y-55629229D02*
X96393294Y-55714943D01*
X96393294Y-55714943D02*
X96421866Y-55768514D01*
X96421866Y-55768514D02*
X96479008Y-55789943D01*
X96479008Y-55789943D02*
X96507580Y-55786372D01*
X96507580Y-55786372D02*
X96564723Y-55750657D01*
X96564723Y-55750657D02*
X96593294Y-55689943D01*
X96593294Y-55689943D02*
X96593294Y-55604229D01*
X96593294Y-55604229D02*
X96564723Y-55550657D01*
X96193294Y-55311372D02*
X96593294Y-55261372D01*
X96793294Y-55236372D02*
X96764723Y-55268515D01*
X96764723Y-55268515D02*
X96736151Y-55243515D01*
X96736151Y-55243515D02*
X96764723Y-55211372D01*
X96764723Y-55211372D02*
X96793294Y-55236372D01*
X96793294Y-55236372D02*
X96736151Y-55243515D01*
X96593294Y-54718515D02*
X96107580Y-54779229D01*
X96107580Y-54779229D02*
X96050437Y-54814944D01*
X96050437Y-54814944D02*
X96021866Y-54847086D01*
X96021866Y-54847086D02*
X95993294Y-54907801D01*
X95993294Y-54907801D02*
X95993294Y-54993515D01*
X95993294Y-54993515D02*
X96021866Y-55047086D01*
X96221866Y-54764944D02*
X96193294Y-54825658D01*
X96193294Y-54825658D02*
X96193294Y-54939944D01*
X96193294Y-54939944D02*
X96221866Y-54993515D01*
X96221866Y-54993515D02*
X96250437Y-55018515D01*
X96250437Y-55018515D02*
X96307580Y-55039944D01*
X96307580Y-55039944D02*
X96479008Y-55018515D01*
X96479008Y-55018515D02*
X96536151Y-54982801D01*
X96536151Y-54982801D02*
X96564723Y-54950658D01*
X96564723Y-54950658D02*
X96593294Y-54889944D01*
X96593294Y-54889944D02*
X96593294Y-54775658D01*
X96593294Y-54775658D02*
X96564723Y-54722086D01*
X96593294Y-54432801D02*
X96193294Y-54482801D01*
X96536151Y-54439944D02*
X96564723Y-54407801D01*
X96564723Y-54407801D02*
X96593294Y-54347087D01*
X96593294Y-54347087D02*
X96593294Y-54261372D01*
X96593294Y-54261372D02*
X96564723Y-54207801D01*
X96564723Y-54207801D02*
X96507580Y-54186372D01*
X96507580Y-54186372D02*
X96193294Y-54225658D01*
X96193294Y-53482801D02*
X96793294Y-53407801D01*
X96564723Y-53436372D02*
X96593294Y-53375658D01*
X96593294Y-53375658D02*
X96593294Y-53261372D01*
X96593294Y-53261372D02*
X96564723Y-53207801D01*
X96564723Y-53207801D02*
X96536151Y-53182801D01*
X96536151Y-53182801D02*
X96479008Y-53161372D01*
X96479008Y-53161372D02*
X96307580Y-53182801D01*
X96307580Y-53182801D02*
X96250437Y-53218515D01*
X96250437Y-53218515D02*
X96221866Y-53250658D01*
X96221866Y-53250658D02*
X96193294Y-53311372D01*
X96193294Y-53311372D02*
X96193294Y-53425658D01*
X96193294Y-53425658D02*
X96221866Y-53479229D01*
X96593294Y-52947087D02*
X96193294Y-52854230D01*
X96593294Y-52661372D02*
X96193294Y-52854230D01*
X96193294Y-52854230D02*
X96050437Y-52929230D01*
X96050437Y-52929230D02*
X96021866Y-52961372D01*
X96021866Y-52961372D02*
X95993294Y-53022087D01*
X95798757Y-56525658D02*
X95827328Y-56579229D01*
X95827328Y-56579229D02*
X95827328Y-56664943D01*
X95827328Y-56664943D02*
X95798757Y-56754229D01*
X95798757Y-56754229D02*
X95741614Y-56818515D01*
X95741614Y-56818515D02*
X95684471Y-56854229D01*
X95684471Y-56854229D02*
X95570185Y-56897086D01*
X95570185Y-56897086D02*
X95484471Y-56907800D01*
X95484471Y-56907800D02*
X95370185Y-56893515D01*
X95370185Y-56893515D02*
X95313042Y-56872086D01*
X95313042Y-56872086D02*
X95255900Y-56822086D01*
X95255900Y-56822086D02*
X95227328Y-56739943D01*
X95227328Y-56739943D02*
X95227328Y-56682800D01*
X95227328Y-56682800D02*
X95255900Y-56593515D01*
X95255900Y-56593515D02*
X95284471Y-56561372D01*
X95284471Y-56561372D02*
X95484471Y-56536372D01*
X95484471Y-56536372D02*
X95484471Y-56650658D01*
X95255900Y-56079229D02*
X95227328Y-56139943D01*
X95227328Y-56139943D02*
X95227328Y-56254229D01*
X95227328Y-56254229D02*
X95255900Y-56307800D01*
X95255900Y-56307800D02*
X95313042Y-56329229D01*
X95313042Y-56329229D02*
X95541614Y-56300658D01*
X95541614Y-56300658D02*
X95598757Y-56264943D01*
X95598757Y-56264943D02*
X95627328Y-56204229D01*
X95627328Y-56204229D02*
X95627328Y-56089943D01*
X95627328Y-56089943D02*
X95598757Y-56036372D01*
X95598757Y-56036372D02*
X95541614Y-56014943D01*
X95541614Y-56014943D02*
X95484471Y-56022086D01*
X95484471Y-56022086D02*
X95427328Y-56314943D01*
X95227328Y-55711372D02*
X95255900Y-55764943D01*
X95255900Y-55764943D02*
X95284471Y-55789943D01*
X95284471Y-55789943D02*
X95341614Y-55811372D01*
X95341614Y-55811372D02*
X95513042Y-55789943D01*
X95513042Y-55789943D02*
X95570185Y-55754229D01*
X95570185Y-55754229D02*
X95598757Y-55722086D01*
X95598757Y-55722086D02*
X95627328Y-55661372D01*
X95627328Y-55661372D02*
X95627328Y-55575657D01*
X95627328Y-55575657D02*
X95598757Y-55522086D01*
X95598757Y-55522086D02*
X95570185Y-55497086D01*
X95570185Y-55497086D02*
X95513042Y-55475657D01*
X95513042Y-55475657D02*
X95341614Y-55497086D01*
X95341614Y-55497086D02*
X95284471Y-55532800D01*
X95284471Y-55532800D02*
X95255900Y-55564943D01*
X95255900Y-55564943D02*
X95227328Y-55625657D01*
X95227328Y-55625657D02*
X95227328Y-55711372D01*
X95227328Y-55254229D02*
X95627328Y-55204229D01*
X95513042Y-55218515D02*
X95570185Y-55182800D01*
X95570185Y-55182800D02*
X95598757Y-55150657D01*
X95598757Y-55150657D02*
X95627328Y-55089943D01*
X95627328Y-55089943D02*
X95627328Y-55032800D01*
X95627328Y-54575657D02*
X95141614Y-54636371D01*
X95141614Y-54636371D02*
X95084471Y-54672086D01*
X95084471Y-54672086D02*
X95055900Y-54704228D01*
X95055900Y-54704228D02*
X95027328Y-54764943D01*
X95027328Y-54764943D02*
X95027328Y-54850657D01*
X95027328Y-54850657D02*
X95055900Y-54904228D01*
X95255900Y-54622086D02*
X95227328Y-54682800D01*
X95227328Y-54682800D02*
X95227328Y-54797086D01*
X95227328Y-54797086D02*
X95255900Y-54850657D01*
X95255900Y-54850657D02*
X95284471Y-54875657D01*
X95284471Y-54875657D02*
X95341614Y-54897086D01*
X95341614Y-54897086D02*
X95513042Y-54875657D01*
X95513042Y-54875657D02*
X95570185Y-54839943D01*
X95570185Y-54839943D02*
X95598757Y-54807800D01*
X95598757Y-54807800D02*
X95627328Y-54747086D01*
X95627328Y-54747086D02*
X95627328Y-54632800D01*
X95627328Y-54632800D02*
X95598757Y-54579228D01*
X95255900Y-54107800D02*
X95227328Y-54168514D01*
X95227328Y-54168514D02*
X95227328Y-54282800D01*
X95227328Y-54282800D02*
X95255900Y-54336371D01*
X95255900Y-54336371D02*
X95313042Y-54357800D01*
X95313042Y-54357800D02*
X95541614Y-54329229D01*
X95541614Y-54329229D02*
X95598757Y-54293514D01*
X95598757Y-54293514D02*
X95627328Y-54232800D01*
X95627328Y-54232800D02*
X95627328Y-54118514D01*
X95627328Y-54118514D02*
X95598757Y-54064943D01*
X95598757Y-54064943D02*
X95541614Y-54043514D01*
X95541614Y-54043514D02*
X95484471Y-54050657D01*
X95484471Y-54050657D02*
X95427328Y-54343514D01*
X95255900Y-53393514D02*
X95227328Y-53311371D01*
X95227328Y-53311371D02*
X95227328Y-53168514D01*
X95227328Y-53168514D02*
X95255900Y-53107800D01*
X95255900Y-53107800D02*
X95284471Y-53075657D01*
X95284471Y-53075657D02*
X95341614Y-53039942D01*
X95341614Y-53039942D02*
X95398757Y-53032800D01*
X95398757Y-53032800D02*
X95455900Y-53054228D01*
X95455900Y-53054228D02*
X95484471Y-53079228D01*
X95484471Y-53079228D02*
X95513042Y-53132800D01*
X95513042Y-53132800D02*
X95541614Y-53243514D01*
X95541614Y-53243514D02*
X95570185Y-53297085D01*
X95570185Y-53297085D02*
X95598757Y-53322085D01*
X95598757Y-53322085D02*
X95655900Y-53343514D01*
X95655900Y-53343514D02*
X95713042Y-53336371D01*
X95713042Y-53336371D02*
X95770185Y-53300657D01*
X95770185Y-53300657D02*
X95798757Y-53268514D01*
X95798757Y-53268514D02*
X95827328Y-53207800D01*
X95827328Y-53207800D02*
X95827328Y-53064942D01*
X95827328Y-53064942D02*
X95798757Y-52982800D01*
X95227328Y-52711371D02*
X95255900Y-52764942D01*
X95255900Y-52764942D02*
X95313042Y-52786371D01*
X95313042Y-52786371D02*
X95827328Y-52722085D01*
X95255900Y-52250656D02*
X95227328Y-52311370D01*
X95227328Y-52311370D02*
X95227328Y-52425656D01*
X95227328Y-52425656D02*
X95255900Y-52479227D01*
X95255900Y-52479227D02*
X95313042Y-52500656D01*
X95313042Y-52500656D02*
X95541614Y-52472085D01*
X95541614Y-52472085D02*
X95598757Y-52436370D01*
X95598757Y-52436370D02*
X95627328Y-52375656D01*
X95627328Y-52375656D02*
X95627328Y-52261370D01*
X95627328Y-52261370D02*
X95598757Y-52207799D01*
X95598757Y-52207799D02*
X95541614Y-52186370D01*
X95541614Y-52186370D02*
X95484471Y-52193513D01*
X95484471Y-52193513D02*
X95427328Y-52486370D01*
X95255900Y-51736370D02*
X95227328Y-51797084D01*
X95227328Y-51797084D02*
X95227328Y-51911370D01*
X95227328Y-51911370D02*
X95255900Y-51964941D01*
X95255900Y-51964941D02*
X95313042Y-51986370D01*
X95313042Y-51986370D02*
X95541614Y-51957799D01*
X95541614Y-51957799D02*
X95598757Y-51922084D01*
X95598757Y-51922084D02*
X95627328Y-51861370D01*
X95627328Y-51861370D02*
X95627328Y-51747084D01*
X95627328Y-51747084D02*
X95598757Y-51693513D01*
X95598757Y-51693513D02*
X95541614Y-51672084D01*
X95541614Y-51672084D02*
X95484471Y-51679227D01*
X95484471Y-51679227D02*
X95427328Y-51972084D01*
X95627328Y-51404227D02*
X95227328Y-51454227D01*
X95570185Y-51411370D02*
X95598757Y-51379227D01*
X95598757Y-51379227D02*
X95627328Y-51318513D01*
X95627328Y-51318513D02*
X95627328Y-51232798D01*
X95627328Y-51232798D02*
X95598757Y-51179227D01*
X95598757Y-51179227D02*
X95541614Y-51157798D01*
X95541614Y-51157798D02*
X95227328Y-51197084D01*
D13*
G36*
X113940942Y-70153436D02*
G01*
X113937043Y-70195666D01*
X113925388Y-70230617D01*
X113897344Y-70265787D01*
X112995478Y-70979465D01*
X113888918Y-71690456D01*
X113915657Y-71715300D01*
X113931341Y-71741414D01*
X113940854Y-71800782D01*
X113940942Y-71811112D01*
X113940942Y-71911862D01*
X113939083Y-71957944D01*
X113926073Y-72012887D01*
X113911902Y-72038122D01*
X113890761Y-72058900D01*
X113861257Y-72072998D01*
X113821995Y-72078191D01*
X111769501Y-72072574D01*
X111734707Y-72068838D01*
X111711513Y-72058323D01*
X111692170Y-72026740D01*
X111690000Y-71976098D01*
X111690000Y-71811112D01*
X111695436Y-71744968D01*
X111703950Y-71724075D01*
X111717857Y-71709782D01*
X111765007Y-71696559D01*
X111806015Y-71695096D01*
X113266953Y-71695096D01*
X112560603Y-71128087D01*
X112557366Y-71125355D01*
X112523230Y-71089867D01*
X112514319Y-71035519D01*
X112514319Y-70926220D01*
X112520059Y-70877127D01*
X112533691Y-70859210D01*
X112560237Y-70842323D01*
X112554619Y-70845009D01*
X112955616Y-70513854D01*
X113216362Y-70308727D01*
X113266709Y-70269329D01*
X111806015Y-70269329D01*
X111739818Y-70263895D01*
X111718927Y-70255387D01*
X111704646Y-70241493D01*
X111691454Y-70194389D01*
X111690000Y-70153436D01*
X111690000Y-69988327D01*
X111691329Y-69949932D01*
X111700639Y-69917375D01*
X111725909Y-69894801D01*
X111775118Y-69886356D01*
X113819187Y-69886356D01*
X113857037Y-69890047D01*
X113886115Y-69900252D01*
X113922078Y-69934165D01*
X113938640Y-69986024D01*
X113940960Y-70037671D01*
X113940942Y-70044259D01*
X113940942Y-70153436D01*
G37*
G36*
X113847274Y-69173411D02*
G01*
X113894849Y-69187810D01*
X113916329Y-69206022D01*
X113932167Y-69230049D01*
X113940942Y-69269765D01*
X113940942Y-69460152D01*
X113927084Y-69508615D01*
X113888409Y-69543629D01*
X113847274Y-69553697D01*
X111783545Y-69548080D01*
X111730757Y-69533080D01*
X111710050Y-69515449D01*
X111695734Y-69491659D01*
X111690000Y-69460152D01*
X111690000Y-69269765D01*
X111703865Y-69220472D01*
X111742853Y-69183853D01*
X111783545Y-69173411D01*
X113847274Y-69173411D01*
G37*
G36*
X113972205Y-67934978D02*
G01*
X113957033Y-68100283D01*
X113911949Y-68259645D01*
X113837899Y-68409283D01*
X113736723Y-68544449D01*
X113611625Y-68659904D01*
X113541627Y-68708582D01*
X113467173Y-68750736D01*
X113389705Y-68785544D01*
X113308727Y-68813172D01*
X113226416Y-68832879D01*
X113141525Y-68844927D01*
X113055928Y-68848935D01*
X112569274Y-68848935D01*
X112403670Y-68833759D01*
X112244384Y-68788708D01*
X112095151Y-68714782D01*
X111960619Y-68613840D01*
X111845891Y-68489038D01*
X111797564Y-68419172D01*
X111755747Y-68344831D01*
X111721232Y-68267403D01*
X111693876Y-68186428D01*
X111674396Y-68103995D01*
X111662559Y-68018929D01*
X111658736Y-67934978D01*
X111673876Y-67778102D01*
X111719701Y-67620483D01*
X111796080Y-67467495D01*
X111900977Y-67326378D01*
X111962716Y-67262842D01*
X112029769Y-67205131D01*
X112100640Y-67154492D01*
X112175698Y-67110705D01*
X112290959Y-67060588D01*
X112366198Y-67037355D01*
X112444720Y-67024562D01*
X112465715Y-67023830D01*
X112514648Y-67038359D01*
X112535943Y-67056384D01*
X112551359Y-67080303D01*
X112559138Y-67117375D01*
X112559138Y-67304953D01*
X112555250Y-67335912D01*
X112543671Y-67360372D01*
X112504952Y-67386944D01*
X112479759Y-67391782D01*
X112485376Y-67388973D01*
X112360110Y-67429960D01*
X112303133Y-67456962D01*
X112247117Y-67493020D01*
X112194080Y-67538496D01*
X112147765Y-67588540D01*
X112109042Y-67641869D01*
X112077315Y-67698982D01*
X112053119Y-67758717D01*
X112036208Y-67821530D01*
X112024856Y-67934978D01*
X112039903Y-68061596D01*
X112084411Y-68181088D01*
X112156730Y-68288093D01*
X112202390Y-68334950D01*
X112253385Y-68376104D01*
X112308957Y-68410886D01*
X112368752Y-68438918D01*
X112430926Y-68459314D01*
X112496137Y-68472195D01*
X112569274Y-68477075D01*
X113055928Y-68477075D01*
X113183439Y-68462037D01*
X113303525Y-68417604D01*
X113410908Y-68345480D01*
X113499158Y-68249164D01*
X113534026Y-68193814D01*
X113562114Y-68134303D01*
X113582550Y-68072457D01*
X113595453Y-68007650D01*
X113600345Y-67934978D01*
X113596487Y-67867979D01*
X113585117Y-67803406D01*
X113540552Y-67682436D01*
X113507898Y-67627342D01*
X113468789Y-67576660D01*
X113383702Y-67498516D01*
X113290782Y-67446601D01*
X113198987Y-67412438D01*
X113166203Y-67400941D01*
X113121535Y-67368198D01*
X113108054Y-67345415D01*
X113102415Y-67315210D01*
X113102334Y-67310571D01*
X113102334Y-67122992D01*
X113105980Y-67097821D01*
X113115869Y-67077411D01*
X113152600Y-67046158D01*
X113186842Y-67032256D01*
X113200865Y-67030891D01*
X113215785Y-67029447D01*
X113386073Y-67080072D01*
X113466005Y-67115880D01*
X113541496Y-67158169D01*
X113612343Y-67206750D01*
X113677974Y-67261208D01*
X113737796Y-67320988D01*
X113791696Y-67385969D01*
X113838874Y-67455143D01*
X113879516Y-67528805D01*
X113912845Y-67605552D01*
X113939117Y-67686074D01*
X113957754Y-67768764D01*
X113968883Y-67854550D01*
X113972205Y-67934978D01*
G37*
G36*
X111792769Y-64978723D02*
G01*
X111810289Y-64984768D01*
X112556207Y-65264671D01*
X112902759Y-65392824D01*
X113013429Y-65434420D01*
X113076323Y-65350816D01*
X113145628Y-65278849D01*
X113197600Y-65238262D01*
X113254723Y-65205261D01*
X113309437Y-65183387D01*
X113369340Y-65168579D01*
X113460882Y-65160868D01*
X113575382Y-65175811D01*
X113686036Y-65220537D01*
X113786102Y-65293702D01*
X113829453Y-65339716D01*
X113866717Y-65390683D01*
X113896873Y-65445214D01*
X113919723Y-65503201D01*
X113934178Y-65561600D01*
X113940644Y-65621950D01*
X113940942Y-65637996D01*
X113940942Y-66634751D01*
X113927076Y-66684044D01*
X113888088Y-66720663D01*
X113847397Y-66731105D01*
X111783545Y-66725487D01*
X111732708Y-66710747D01*
X111711654Y-66692927D01*
X111696742Y-66669083D01*
X111690000Y-66634751D01*
X111690000Y-66435937D01*
X111693708Y-66400616D01*
X111704032Y-66375542D01*
X111736476Y-66350256D01*
X111803206Y-66342514D01*
X112530073Y-66342514D01*
X112959452Y-66342514D01*
X113560655Y-66342514D01*
X113560655Y-65660344D01*
X113556910Y-65630314D01*
X113546324Y-65604399D01*
X113507451Y-65566981D01*
X113458073Y-65555075D01*
X113415120Y-65564319D01*
X113366694Y-65612193D01*
X113274170Y-65748521D01*
X113119433Y-66026236D01*
X112959452Y-66342514D01*
X112530073Y-66342514D01*
X112697543Y-66026162D01*
X112827072Y-65782832D01*
X111762662Y-65381297D01*
X111735801Y-65369346D01*
X111712546Y-65352278D01*
X111696184Y-65326394D01*
X111690000Y-65287996D01*
X111690000Y-65075138D01*
X111693874Y-65037648D01*
X111705365Y-65007577D01*
X111720905Y-64989000D01*
X111741644Y-64977679D01*
X111792769Y-64978723D01*
G37*
G36*
X113206334Y-62858936D02*
G01*
X113365165Y-62904016D01*
X113514155Y-62978084D01*
X113649320Y-63079665D01*
X113766100Y-63206236D01*
X113816144Y-63277754D01*
X113859942Y-63354061D01*
X113896929Y-63434304D01*
X113926979Y-63518478D01*
X113949463Y-63604991D01*
X113964464Y-63694552D01*
X113972205Y-63822050D01*
X113957011Y-63999578D01*
X113911895Y-64170785D01*
X113838063Y-64331185D01*
X113737785Y-64475575D01*
X113678856Y-64540031D01*
X113614626Y-64598661D01*
X113546142Y-64650568D01*
X113473208Y-64695892D01*
X113397647Y-64733564D01*
X113318515Y-64764069D01*
X113238162Y-64786546D01*
X113155073Y-64801425D01*
X113040785Y-64808791D01*
X112600659Y-64808791D01*
X112436555Y-64793604D01*
X112278486Y-64748482D01*
X112129542Y-64674183D01*
X111993793Y-64572079D01*
X111876011Y-64444705D01*
X111825388Y-64372716D01*
X111781034Y-64295985D01*
X111743517Y-64215377D01*
X111712980Y-64130935D01*
X111690087Y-64044373D01*
X111674720Y-63954915D01*
X111666552Y-63824859D01*
X112032672Y-63824859D01*
X112047724Y-63961440D01*
X112092203Y-64090555D01*
X112164240Y-64206511D01*
X112209528Y-64257502D01*
X112260106Y-64302692D01*
X112315004Y-64341255D01*
X112374084Y-64373026D01*
X112435335Y-64396986D01*
X112499612Y-64413454D01*
X112600659Y-64423010D01*
X113040785Y-64423010D01*
X113166409Y-64407943D01*
X113286452Y-64363125D01*
X113396022Y-64289638D01*
X113488738Y-64190283D01*
X113526618Y-64132536D01*
X113558000Y-64070246D01*
X113582031Y-64004969D01*
X113598701Y-63936345D01*
X113608771Y-63824859D01*
X113593719Y-63689363D01*
X113549181Y-63560919D01*
X113476962Y-63445319D01*
X113431536Y-63394436D01*
X113380801Y-63349334D01*
X113325747Y-63310860D01*
X113266501Y-63279177D01*
X113205126Y-63255329D01*
X113140726Y-63238981D01*
X113040785Y-63229639D01*
X112600659Y-63229639D01*
X112474166Y-63244699D01*
X112353906Y-63289386D01*
X112244525Y-63362539D01*
X112152132Y-63461406D01*
X112114382Y-63518923D01*
X112083143Y-63580930D01*
X112059203Y-63646001D01*
X112042628Y-63714360D01*
X112032672Y-63824859D01*
X111666552Y-63824859D01*
X111681742Y-63648086D01*
X111726807Y-63477988D01*
X111800540Y-63318802D01*
X111900757Y-63175491D01*
X111959742Y-63111437D01*
X112024029Y-63053185D01*
X112092711Y-63001512D01*
X112165849Y-62956399D01*
X112241770Y-62918827D01*
X112321266Y-62888405D01*
X112402106Y-62865955D01*
X112485675Y-62851096D01*
X112600659Y-62843736D01*
X113040785Y-62843736D01*
X113206334Y-62858936D01*
G37*
G36*
X113972205Y-61641328D02*
G01*
X113957033Y-61806633D01*
X113911949Y-61965995D01*
X113837899Y-62115633D01*
X113736723Y-62250800D01*
X113611625Y-62366255D01*
X113541627Y-62414933D01*
X113467173Y-62457086D01*
X113389705Y-62491895D01*
X113308727Y-62519523D01*
X113226416Y-62539230D01*
X113141525Y-62551277D01*
X113055928Y-62555285D01*
X112569274Y-62555285D01*
X112403670Y-62540109D01*
X112244384Y-62495058D01*
X112095151Y-62421132D01*
X111960619Y-62320190D01*
X111845891Y-62195388D01*
X111797564Y-62125522D01*
X111755747Y-62051181D01*
X111721232Y-61973754D01*
X111693876Y-61892778D01*
X111674396Y-61810345D01*
X111662559Y-61725279D01*
X111658736Y-61641328D01*
X111673876Y-61484452D01*
X111719701Y-61326833D01*
X111796080Y-61173846D01*
X111900977Y-61032728D01*
X111962716Y-60969192D01*
X112029769Y-60911481D01*
X112100640Y-60860842D01*
X112175698Y-60817056D01*
X112290959Y-60766939D01*
X112366198Y-60743706D01*
X112444720Y-60730912D01*
X112465715Y-60730180D01*
X112514648Y-60744709D01*
X112535943Y-60762735D01*
X112551359Y-60786654D01*
X112559138Y-60823725D01*
X112559138Y-61011304D01*
X112555250Y-61042262D01*
X112543671Y-61066722D01*
X112504952Y-61093294D01*
X112479759Y-61098132D01*
X112485376Y-61095323D01*
X112360110Y-61136310D01*
X112303133Y-61163312D01*
X112247117Y-61199371D01*
X112194080Y-61244846D01*
X112147765Y-61294890D01*
X112109042Y-61348219D01*
X112077315Y-61405333D01*
X112053119Y-61465068D01*
X112036208Y-61527880D01*
X112024856Y-61641328D01*
X112039903Y-61767947D01*
X112084411Y-61887439D01*
X112156730Y-61994443D01*
X112202390Y-62041300D01*
X112253385Y-62082454D01*
X112308957Y-62117237D01*
X112368752Y-62145268D01*
X112430926Y-62165665D01*
X112496137Y-62178545D01*
X112569274Y-62183425D01*
X113055928Y-62183425D01*
X113183439Y-62168387D01*
X113303525Y-62123954D01*
X113410908Y-62051830D01*
X113499158Y-61955514D01*
X113534026Y-61900164D01*
X113562114Y-61840653D01*
X113582550Y-61778808D01*
X113595453Y-61714001D01*
X113600345Y-61641328D01*
X113596487Y-61574329D01*
X113585117Y-61509756D01*
X113540552Y-61388786D01*
X113507898Y-61333692D01*
X113468789Y-61283010D01*
X113383702Y-61204866D01*
X113290782Y-61152951D01*
X113198987Y-61118788D01*
X113166203Y-61107291D01*
X113121535Y-61074549D01*
X113108054Y-61051765D01*
X113102415Y-61021561D01*
X113102334Y-61016921D01*
X113102334Y-60829343D01*
X113105980Y-60804171D01*
X113115869Y-60783761D01*
X113152600Y-60752508D01*
X113186842Y-60738607D01*
X113200865Y-60737241D01*
X113215785Y-60735798D01*
X113386073Y-60786423D01*
X113466005Y-60822231D01*
X113541496Y-60864519D01*
X113612343Y-60913100D01*
X113677974Y-60967558D01*
X113737796Y-61027338D01*
X113791696Y-61092320D01*
X113838874Y-61161493D01*
X113879516Y-61235155D01*
X113912845Y-61311902D01*
X113939117Y-61392425D01*
X113957754Y-61475114D01*
X113968883Y-61560900D01*
X113972205Y-61641328D01*
G37*
G36*
X113206334Y-58521183D02*
G01*
X113365165Y-58566264D01*
X113514155Y-58640331D01*
X113649320Y-58741912D01*
X113766100Y-58868483D01*
X113816144Y-58940001D01*
X113859942Y-59016308D01*
X113896929Y-59096551D01*
X113926979Y-59180725D01*
X113949463Y-59267238D01*
X113964464Y-59356799D01*
X113972205Y-59484297D01*
X113957011Y-59661825D01*
X113911895Y-59833032D01*
X113838063Y-59993432D01*
X113737785Y-60137822D01*
X113678856Y-60202278D01*
X113614626Y-60260908D01*
X113546142Y-60312815D01*
X113473208Y-60358139D01*
X113397647Y-60395811D01*
X113318515Y-60426316D01*
X113238162Y-60448793D01*
X113155073Y-60463672D01*
X113040785Y-60471039D01*
X112600659Y-60471039D01*
X112436555Y-60455851D01*
X112278486Y-60410729D01*
X112129542Y-60336430D01*
X111993793Y-60234326D01*
X111876011Y-60106952D01*
X111825388Y-60034963D01*
X111781034Y-59958232D01*
X111743517Y-59877624D01*
X111712980Y-59793182D01*
X111690087Y-59706620D01*
X111674720Y-59617162D01*
X111666552Y-59487106D01*
X112032672Y-59487106D01*
X112047724Y-59623687D01*
X112092203Y-59752802D01*
X112164240Y-59868758D01*
X112209528Y-59919749D01*
X112260106Y-59964939D01*
X112315004Y-60003502D01*
X112374084Y-60035273D01*
X112435335Y-60059233D01*
X112499612Y-60075701D01*
X112600659Y-60085257D01*
X113040785Y-60085257D01*
X113166409Y-60070190D01*
X113286452Y-60025372D01*
X113396022Y-59951885D01*
X113488738Y-59852530D01*
X113526618Y-59794783D01*
X113558000Y-59732493D01*
X113582031Y-59667216D01*
X113598701Y-59598592D01*
X113608771Y-59487106D01*
X113593719Y-59351610D01*
X113549181Y-59223166D01*
X113476962Y-59107566D01*
X113431536Y-59056683D01*
X113380801Y-59011581D01*
X113325747Y-58973107D01*
X113266501Y-58941424D01*
X113205126Y-58917576D01*
X113140726Y-58901229D01*
X113040785Y-58891886D01*
X112600659Y-58891886D01*
X112474166Y-58906946D01*
X112353906Y-58951633D01*
X112244525Y-59024786D01*
X112152132Y-59123653D01*
X112114382Y-59181170D01*
X112083143Y-59243177D01*
X112059203Y-59308248D01*
X112042628Y-59376607D01*
X112032672Y-59487106D01*
X111666552Y-59487106D01*
X111681742Y-59310333D01*
X111726807Y-59140235D01*
X111800540Y-58981049D01*
X111900757Y-58837738D01*
X111959742Y-58773684D01*
X112024029Y-58715432D01*
X112092711Y-58663759D01*
X112165849Y-58618646D01*
X112241770Y-58581074D01*
X112321266Y-58550652D01*
X112402106Y-58528202D01*
X112485675Y-58513343D01*
X112600659Y-58505983D01*
X113040785Y-58505983D01*
X113206334Y-58521183D01*
G37*
G36*
X113847274Y-56582937D02*
G01*
X113879991Y-56586821D01*
X113905996Y-56598377D01*
X113923058Y-56614718D01*
X113934552Y-56636755D01*
X113940942Y-56679168D01*
X113940942Y-56863938D01*
X113937233Y-56899400D01*
X113926905Y-56924920D01*
X113894135Y-56951525D01*
X113827613Y-56960292D01*
X112405631Y-56960292D01*
X112306780Y-56975182D01*
X112216417Y-57018936D01*
X112141115Y-57089087D01*
X112111615Y-57132446D01*
X112088705Y-57180198D01*
X112073249Y-57230722D01*
X112065417Y-57284142D01*
X112064546Y-57309193D01*
X112064546Y-57524737D01*
X112079413Y-57619180D01*
X112123302Y-57706118D01*
X112155310Y-57744045D01*
X112192863Y-57776436D01*
X112234748Y-57802200D01*
X112280694Y-57820943D01*
X112369117Y-57834437D01*
X113827613Y-57834437D01*
X113869020Y-57836328D01*
X113905343Y-57847275D01*
X113931134Y-57875189D01*
X113940942Y-57927982D01*
X113940942Y-58115560D01*
X113937080Y-58148210D01*
X113925682Y-58174156D01*
X113909465Y-58191362D01*
X113887720Y-58202882D01*
X113847274Y-58209106D01*
X112369117Y-58209106D01*
X112225692Y-58194021D01*
X112090462Y-58149535D01*
X111967172Y-58077027D01*
X111860692Y-57978871D01*
X111815410Y-57921307D01*
X111776404Y-57859080D01*
X111744208Y-57792960D01*
X111719096Y-57723248D01*
X111701717Y-57651668D01*
X111692011Y-57577609D01*
X111690000Y-57524737D01*
X111690000Y-57309193D01*
X111705118Y-57162350D01*
X111750105Y-57020905D01*
X111823769Y-56889920D01*
X111923377Y-56775572D01*
X111981407Y-56726709D01*
X112044276Y-56684099D01*
X112110487Y-56648736D01*
X112180479Y-56620443D01*
X112251866Y-56600151D01*
X112325992Y-56587499D01*
X112405631Y-56582937D01*
X113847274Y-56582937D01*
G37*
G36*
X113477469Y-54689754D02*
G01*
X113544648Y-54698742D01*
X113608082Y-54715189D01*
X113668728Y-54739342D01*
X113722923Y-54769533D01*
X113772948Y-54806868D01*
X113815712Y-54848853D01*
X113853339Y-54897389D01*
X113883917Y-54950065D01*
X113908561Y-55008881D01*
X113926317Y-55072265D01*
X113937296Y-55141624D01*
X113940942Y-55214932D01*
X113940942Y-56155756D01*
X113927076Y-56205049D01*
X113888088Y-56241668D01*
X113847397Y-56252110D01*
X111783545Y-56246492D01*
X111732708Y-56231752D01*
X111711654Y-56213932D01*
X111696742Y-56190088D01*
X111690000Y-56155756D01*
X111690000Y-55965369D01*
X111693708Y-55930040D01*
X111704032Y-55904947D01*
X111736489Y-55879606D01*
X111803206Y-55871824D01*
X112426392Y-55871824D01*
X112855893Y-55871824D01*
X113560655Y-55871824D01*
X113560655Y-55234594D01*
X113556726Y-55200848D01*
X113544848Y-55172779D01*
X113503850Y-55137467D01*
X113471140Y-55126394D01*
X113430625Y-55120788D01*
X113389764Y-55123102D01*
X113308324Y-55151526D01*
X113294675Y-55159489D01*
X113249272Y-55206996D01*
X113149264Y-55350323D01*
X113105265Y-55424126D01*
X112925795Y-55740883D01*
X112855893Y-55871824D01*
X112426392Y-55871824D01*
X112831957Y-55140194D01*
X112955024Y-54947789D01*
X112972274Y-54921597D01*
X113050876Y-54830821D01*
X113152985Y-54758791D01*
X113274988Y-54709773D01*
X113409356Y-54688699D01*
X113477469Y-54689754D01*
G37*
G36*
X111690000Y-53112490D02*
G01*
X111693704Y-53077845D01*
X111704001Y-53053013D01*
X111736704Y-53027266D01*
X111790966Y-53019075D01*
X111805893Y-53018945D01*
X111957079Y-53018945D01*
X112034073Y-53026265D01*
X112053988Y-53039252D01*
X112064926Y-53061870D01*
X112070163Y-53132029D01*
X112070163Y-54057710D01*
X113827613Y-54057710D01*
X113869020Y-54059601D01*
X113905343Y-54070548D01*
X113931134Y-54098462D01*
X113940942Y-54151255D01*
X113940942Y-54344451D01*
X113937080Y-54377101D01*
X113925682Y-54403047D01*
X113909465Y-54420252D01*
X113887720Y-54431772D01*
X113847274Y-54437996D01*
X111783422Y-54432378D01*
X111749441Y-54428493D01*
X111722787Y-54416931D01*
X111705959Y-54400920D01*
X111695032Y-54379401D01*
X111690000Y-54344451D01*
X111690000Y-53112490D01*
G37*
G36*
X111690000Y-51264671D02*
G01*
X111693703Y-51228005D01*
X111703996Y-51202067D01*
X111736041Y-51176167D01*
X111788628Y-51168420D01*
X111805893Y-51168317D01*
X111957079Y-51168317D01*
X112023199Y-51173629D01*
X112043449Y-51181848D01*
X112056935Y-51195181D01*
X112068919Y-51241018D01*
X112070163Y-51284210D01*
X112070163Y-52366694D01*
X112690296Y-52366694D01*
X112690296Y-51438327D01*
X112694047Y-51410790D01*
X112704674Y-51387074D01*
X112743923Y-51353556D01*
X112786650Y-51344782D01*
X112977037Y-51344782D01*
X113005737Y-51348552D01*
X113030691Y-51359311D01*
X113050911Y-51376302D01*
X113065241Y-51398662D01*
X113073391Y-51438327D01*
X113073391Y-52366694D01*
X113560655Y-52366694D01*
X113560655Y-51320724D01*
X113568372Y-51242797D01*
X113582303Y-51221979D01*
X113606759Y-51210243D01*
X113673740Y-51204709D01*
X113827735Y-51204709D01*
X113869071Y-51206215D01*
X113905358Y-51216753D01*
X113931136Y-51245358D01*
X113940942Y-51301063D01*
X113940942Y-52653436D01*
X113926413Y-52707894D01*
X113909292Y-52729011D01*
X113886736Y-52744099D01*
X113847397Y-52752598D01*
X111783422Y-52746981D01*
X111755070Y-52743212D01*
X111730789Y-52732465D01*
X111711423Y-52715579D01*
X111697808Y-52693389D01*
X111690000Y-52653436D01*
X111690000Y-51264671D01*
G37*
D10*
X99444594Y-56777068D02*
X99444594Y-56662782D01*
X99444594Y-56662782D02*
X99416023Y-56605639D01*
X99416023Y-56605639D02*
X99358880Y-56548496D01*
X99358880Y-56548496D02*
X99244594Y-56519925D01*
X99244594Y-56519925D02*
X99044594Y-56519925D01*
X99044594Y-56519925D02*
X98930308Y-56548496D01*
X98930308Y-56548496D02*
X98873166Y-56605639D01*
X98873166Y-56605639D02*
X98844594Y-56662782D01*
X98844594Y-56662782D02*
X98844594Y-56777068D01*
X98844594Y-56777068D02*
X98873166Y-56834211D01*
X98873166Y-56834211D02*
X98930308Y-56891353D01*
X98930308Y-56891353D02*
X99044594Y-56919925D01*
X99044594Y-56919925D02*
X99244594Y-56919925D01*
X99244594Y-56919925D02*
X99358880Y-56891353D01*
X99358880Y-56891353D02*
X99416023Y-56834211D01*
X99416023Y-56834211D02*
X99444594Y-56777068D01*
X99244594Y-56262782D02*
X98644594Y-56262782D01*
X99216023Y-56262782D02*
X99244594Y-56205640D01*
X99244594Y-56205640D02*
X99244594Y-56091354D01*
X99244594Y-56091354D02*
X99216023Y-56034211D01*
X99216023Y-56034211D02*
X99187451Y-56005640D01*
X99187451Y-56005640D02*
X99130308Y-55977068D01*
X99130308Y-55977068D02*
X98958880Y-55977068D01*
X98958880Y-55977068D02*
X98901737Y-56005640D01*
X98901737Y-56005640D02*
X98873166Y-56034211D01*
X98873166Y-56034211D02*
X98844594Y-56091354D01*
X98844594Y-56091354D02*
X98844594Y-56205640D01*
X98844594Y-56205640D02*
X98873166Y-56262782D01*
X98873166Y-55491354D02*
X98844594Y-55548497D01*
X98844594Y-55548497D02*
X98844594Y-55662783D01*
X98844594Y-55662783D02*
X98873166Y-55719925D01*
X98873166Y-55719925D02*
X98930308Y-55748497D01*
X98930308Y-55748497D02*
X99158880Y-55748497D01*
X99158880Y-55748497D02*
X99216023Y-55719925D01*
X99216023Y-55719925D02*
X99244594Y-55662783D01*
X99244594Y-55662783D02*
X99244594Y-55548497D01*
X99244594Y-55548497D02*
X99216023Y-55491354D01*
X99216023Y-55491354D02*
X99158880Y-55462783D01*
X99158880Y-55462783D02*
X99101737Y-55462783D01*
X99101737Y-55462783D02*
X99044594Y-55748497D01*
X99244594Y-55205639D02*
X98844594Y-55205639D01*
X99187451Y-55205639D02*
X99216023Y-55177068D01*
X99216023Y-55177068D02*
X99244594Y-55119925D01*
X99244594Y-55119925D02*
X99244594Y-55034211D01*
X99244594Y-55034211D02*
X99216023Y-54977068D01*
X99216023Y-54977068D02*
X99158880Y-54948497D01*
X99158880Y-54948497D02*
X98844594Y-54948497D01*
X98873166Y-54234211D02*
X98844594Y-54148497D01*
X98844594Y-54148497D02*
X98844594Y-54005639D01*
X98844594Y-54005639D02*
X98873166Y-53948497D01*
X98873166Y-53948497D02*
X98901737Y-53919925D01*
X98901737Y-53919925D02*
X98958880Y-53891354D01*
X98958880Y-53891354D02*
X99016023Y-53891354D01*
X99016023Y-53891354D02*
X99073166Y-53919925D01*
X99073166Y-53919925D02*
X99101737Y-53948497D01*
X99101737Y-53948497D02*
X99130308Y-54005639D01*
X99130308Y-54005639D02*
X99158880Y-54119925D01*
X99158880Y-54119925D02*
X99187451Y-54177068D01*
X99187451Y-54177068D02*
X99216023Y-54205639D01*
X99216023Y-54205639D02*
X99273166Y-54234211D01*
X99273166Y-54234211D02*
X99330308Y-54234211D01*
X99330308Y-54234211D02*
X99387451Y-54205639D01*
X99387451Y-54205639D02*
X99416023Y-54177068D01*
X99416023Y-54177068D02*
X99444594Y-54119925D01*
X99444594Y-54119925D02*
X99444594Y-53977068D01*
X99444594Y-53977068D02*
X99416023Y-53891354D01*
X98844594Y-53548496D02*
X98873166Y-53605639D01*
X98873166Y-53605639D02*
X98901737Y-53634210D01*
X98901737Y-53634210D02*
X98958880Y-53662782D01*
X98958880Y-53662782D02*
X99130308Y-53662782D01*
X99130308Y-53662782D02*
X99187451Y-53634210D01*
X99187451Y-53634210D02*
X99216023Y-53605639D01*
X99216023Y-53605639D02*
X99244594Y-53548496D01*
X99244594Y-53548496D02*
X99244594Y-53462782D01*
X99244594Y-53462782D02*
X99216023Y-53405639D01*
X99216023Y-53405639D02*
X99187451Y-53377068D01*
X99187451Y-53377068D02*
X99130308Y-53348496D01*
X99130308Y-53348496D02*
X98958880Y-53348496D01*
X98958880Y-53348496D02*
X98901737Y-53377068D01*
X98901737Y-53377068D02*
X98873166Y-53405639D01*
X98873166Y-53405639D02*
X98844594Y-53462782D01*
X98844594Y-53462782D02*
X98844594Y-53548496D01*
X99244594Y-52834211D02*
X98844594Y-52834211D01*
X99244594Y-53091353D02*
X98930308Y-53091353D01*
X98930308Y-53091353D02*
X98873166Y-53062782D01*
X98873166Y-53062782D02*
X98844594Y-53005639D01*
X98844594Y-53005639D02*
X98844594Y-52919925D01*
X98844594Y-52919925D02*
X98873166Y-52862782D01*
X98873166Y-52862782D02*
X98901737Y-52834211D01*
X98844594Y-52548496D02*
X99244594Y-52548496D01*
X99130308Y-52548496D02*
X99187451Y-52519925D01*
X99187451Y-52519925D02*
X99216023Y-52491354D01*
X99216023Y-52491354D02*
X99244594Y-52434211D01*
X99244594Y-52434211D02*
X99244594Y-52377068D01*
X98873166Y-51919925D02*
X98844594Y-51977067D01*
X98844594Y-51977067D02*
X98844594Y-52091353D01*
X98844594Y-52091353D02*
X98873166Y-52148496D01*
X98873166Y-52148496D02*
X98901737Y-52177067D01*
X98901737Y-52177067D02*
X98958880Y-52205639D01*
X98958880Y-52205639D02*
X99130308Y-52205639D01*
X99130308Y-52205639D02*
X99187451Y-52177067D01*
X99187451Y-52177067D02*
X99216023Y-52148496D01*
X99216023Y-52148496D02*
X99244594Y-52091353D01*
X99244594Y-52091353D02*
X99244594Y-51977067D01*
X99244594Y-51977067D02*
X99216023Y-51919925D01*
X98873166Y-51434210D02*
X98844594Y-51491353D01*
X98844594Y-51491353D02*
X98844594Y-51605639D01*
X98844594Y-51605639D02*
X98873166Y-51662781D01*
X98873166Y-51662781D02*
X98930308Y-51691353D01*
X98930308Y-51691353D02*
X99158880Y-51691353D01*
X99158880Y-51691353D02*
X99216023Y-51662781D01*
X99216023Y-51662781D02*
X99244594Y-51605639D01*
X99244594Y-51605639D02*
X99244594Y-51491353D01*
X99244594Y-51491353D02*
X99216023Y-51434210D01*
X99216023Y-51434210D02*
X99158880Y-51405639D01*
X99158880Y-51405639D02*
X99101737Y-51405639D01*
X99101737Y-51405639D02*
X99044594Y-51691353D01*
X97878628Y-56891353D02*
X98478628Y-56891353D01*
X98192914Y-56891353D02*
X98192914Y-56548496D01*
X97878628Y-56548496D02*
X98478628Y-56548496D01*
X97878628Y-56005640D02*
X98192914Y-56005640D01*
X98192914Y-56005640D02*
X98250057Y-56034211D01*
X98250057Y-56034211D02*
X98278628Y-56091354D01*
X98278628Y-56091354D02*
X98278628Y-56205640D01*
X98278628Y-56205640D02*
X98250057Y-56262782D01*
X97907200Y-56005640D02*
X97878628Y-56062782D01*
X97878628Y-56062782D02*
X97878628Y-56205640D01*
X97878628Y-56205640D02*
X97907200Y-56262782D01*
X97907200Y-56262782D02*
X97964342Y-56291354D01*
X97964342Y-56291354D02*
X98021485Y-56291354D01*
X98021485Y-56291354D02*
X98078628Y-56262782D01*
X98078628Y-56262782D02*
X98107200Y-56205640D01*
X98107200Y-56205640D02*
X98107200Y-56062782D01*
X98107200Y-56062782D02*
X98135771Y-56005640D01*
X97878628Y-55719925D02*
X98278628Y-55719925D01*
X98164342Y-55719925D02*
X98221485Y-55691354D01*
X98221485Y-55691354D02*
X98250057Y-55662783D01*
X98250057Y-55662783D02*
X98278628Y-55605640D01*
X98278628Y-55605640D02*
X98278628Y-55548497D01*
X97878628Y-55091354D02*
X98478628Y-55091354D01*
X97907200Y-55091354D02*
X97878628Y-55148496D01*
X97878628Y-55148496D02*
X97878628Y-55262782D01*
X97878628Y-55262782D02*
X97907200Y-55319925D01*
X97907200Y-55319925D02*
X97935771Y-55348496D01*
X97935771Y-55348496D02*
X97992914Y-55377068D01*
X97992914Y-55377068D02*
X98164342Y-55377068D01*
X98164342Y-55377068D02*
X98221485Y-55348496D01*
X98221485Y-55348496D02*
X98250057Y-55319925D01*
X98250057Y-55319925D02*
X98278628Y-55262782D01*
X98278628Y-55262782D02*
X98278628Y-55148496D01*
X98278628Y-55148496D02*
X98250057Y-55091354D01*
X98278628Y-54862782D02*
X97878628Y-54748497D01*
X97878628Y-54748497D02*
X98164342Y-54634211D01*
X98164342Y-54634211D02*
X97878628Y-54519925D01*
X97878628Y-54519925D02*
X98278628Y-54405639D01*
X97878628Y-53919926D02*
X98192914Y-53919926D01*
X98192914Y-53919926D02*
X98250057Y-53948497D01*
X98250057Y-53948497D02*
X98278628Y-54005640D01*
X98278628Y-54005640D02*
X98278628Y-54119926D01*
X98278628Y-54119926D02*
X98250057Y-54177068D01*
X97907200Y-53919926D02*
X97878628Y-53977068D01*
X97878628Y-53977068D02*
X97878628Y-54119926D01*
X97878628Y-54119926D02*
X97907200Y-54177068D01*
X97907200Y-54177068D02*
X97964342Y-54205640D01*
X97964342Y-54205640D02*
X98021485Y-54205640D01*
X98021485Y-54205640D02*
X98078628Y-54177068D01*
X98078628Y-54177068D02*
X98107200Y-54119926D01*
X98107200Y-54119926D02*
X98107200Y-53977068D01*
X98107200Y-53977068D02*
X98135771Y-53919926D01*
X97878628Y-53634211D02*
X98278628Y-53634211D01*
X98164342Y-53634211D02*
X98221485Y-53605640D01*
X98221485Y-53605640D02*
X98250057Y-53577069D01*
X98250057Y-53577069D02*
X98278628Y-53519926D01*
X98278628Y-53519926D02*
X98278628Y-53462783D01*
X97907200Y-53034211D02*
X97878628Y-53091354D01*
X97878628Y-53091354D02*
X97878628Y-53205640D01*
X97878628Y-53205640D02*
X97907200Y-53262782D01*
X97907200Y-53262782D02*
X97964342Y-53291354D01*
X97964342Y-53291354D02*
X98192914Y-53291354D01*
X98192914Y-53291354D02*
X98250057Y-53262782D01*
X98250057Y-53262782D02*
X98278628Y-53205640D01*
X98278628Y-53205640D02*
X98278628Y-53091354D01*
X98278628Y-53091354D02*
X98250057Y-53034211D01*
X98250057Y-53034211D02*
X98192914Y-53005640D01*
X98192914Y-53005640D02*
X98135771Y-53005640D01*
X98135771Y-53005640D02*
X98078628Y-53291354D01*
D14*
X92621428Y-46030900D02*
X92278571Y-46030900D01*
X92449999Y-46202328D02*
X92449999Y-45859471D01*
D15*
X93671428Y-48455485D02*
X93585714Y-48484057D01*
X93585714Y-48484057D02*
X93557143Y-48512628D01*
X93557143Y-48512628D02*
X93528571Y-48569771D01*
X93528571Y-48569771D02*
X93528571Y-48655485D01*
X93528571Y-48655485D02*
X93557143Y-48712628D01*
X93557143Y-48712628D02*
X93585714Y-48741200D01*
X93585714Y-48741200D02*
X93642857Y-48769771D01*
X93642857Y-48769771D02*
X93871428Y-48769771D01*
X93871428Y-48769771D02*
X93871428Y-48169771D01*
X93871428Y-48169771D02*
X93671428Y-48169771D01*
X93671428Y-48169771D02*
X93614286Y-48198342D01*
X93614286Y-48198342D02*
X93585714Y-48226914D01*
X93585714Y-48226914D02*
X93557143Y-48284057D01*
X93557143Y-48284057D02*
X93557143Y-48341200D01*
X93557143Y-48341200D02*
X93585714Y-48398342D01*
X93585714Y-48398342D02*
X93614286Y-48426914D01*
X93614286Y-48426914D02*
X93671428Y-48455485D01*
X93671428Y-48455485D02*
X93871428Y-48455485D01*
X93300000Y-48598342D02*
X93014286Y-48598342D01*
X93357143Y-48769771D02*
X93157143Y-48169771D01*
X93157143Y-48169771D02*
X92957143Y-48769771D01*
X92842857Y-48169771D02*
X92500000Y-48169771D01*
X92671428Y-48769771D02*
X92671428Y-48169771D01*
X92385714Y-48169771D02*
X92042857Y-48169771D01*
X92214285Y-48769771D02*
X92214285Y-48169771D01*
D14*
X93871428Y-46030900D02*
X93528571Y-46030900D01*
D16*
%TO.C,G\u002A\u002A\u002A*%
G36*
X98648891Y-66003604D02*
G01*
X98747843Y-66013134D01*
X98848145Y-66030039D01*
X98948637Y-66054024D01*
X99048154Y-66084795D01*
X99145534Y-66122055D01*
X99239615Y-66165509D01*
X99329233Y-66214863D01*
X99333111Y-66217198D01*
X99410520Y-66267200D01*
X99484342Y-66321304D01*
X99553649Y-66378645D01*
X99617514Y-66438358D01*
X99675009Y-66499580D01*
X99725209Y-66561446D01*
X99767185Y-66623093D01*
X99771250Y-66629349D01*
X99778044Y-66637784D01*
X99786842Y-66645790D01*
X99799186Y-66654539D01*
X99816617Y-66665202D01*
X99840677Y-66678953D01*
X99900572Y-66712637D01*
X99981200Y-66715491D01*
X100035200Y-66717922D01*
X100156137Y-66727502D01*
X100270324Y-66742666D01*
X100378271Y-66763558D01*
X100480491Y-66790325D01*
X100577498Y-66823111D01*
X100669802Y-66862060D01*
X100757916Y-66907318D01*
X100842352Y-66959029D01*
X100897863Y-66998061D01*
X100964360Y-67051084D01*
X101028429Y-67109566D01*
X101090626Y-67174125D01*
X101151503Y-67245381D01*
X101211616Y-67323951D01*
X101271517Y-67410454D01*
X101331762Y-67505510D01*
X101371985Y-67571576D01*
X101377408Y-67551583D01*
X101381045Y-67538414D01*
X101391002Y-67504331D01*
X101401402Y-67471159D01*
X101411578Y-67440909D01*
X101420865Y-67415586D01*
X101428597Y-67397198D01*
X101436737Y-67381323D01*
X101457340Y-67348857D01*
X101480837Y-67320109D01*
X101505145Y-67297784D01*
X101513575Y-67291815D01*
X101535043Y-67278867D01*
X101558919Y-67266676D01*
X101581946Y-67256835D01*
X101600867Y-67250940D01*
X101602008Y-67250687D01*
X101608235Y-67248599D01*
X101612981Y-67244526D01*
X101617233Y-67236744D01*
X101621977Y-67223531D01*
X101628199Y-67203162D01*
X101633303Y-67187580D01*
X101643353Y-67160959D01*
X101655125Y-67133013D01*
X101667003Y-67107719D01*
X101671405Y-67099212D01*
X101700990Y-67052250D01*
X101735687Y-67012949D01*
X101775526Y-66981285D01*
X101820536Y-66957234D01*
X101870748Y-66940770D01*
X101876130Y-66939461D01*
X101891971Y-66934996D01*
X101902371Y-66930115D01*
X101910189Y-66923101D01*
X101918284Y-66912239D01*
X101928773Y-66897160D01*
X101967317Y-66845061D01*
X102004043Y-66801163D01*
X102039608Y-66764970D01*
X102074669Y-66735988D01*
X102109880Y-66713720D01*
X102145900Y-66697671D01*
X102183385Y-66687345D01*
X102222990Y-66682248D01*
X102269406Y-66679241D01*
X102299276Y-66642552D01*
X102306750Y-66633651D01*
X102344071Y-66596096D01*
X102384932Y-66565157D01*
X102427672Y-66542132D01*
X102437471Y-66537949D01*
X102449034Y-66533486D01*
X102459743Y-66530458D01*
X102471610Y-66528580D01*
X102486651Y-66527566D01*
X102506878Y-66527129D01*
X102534306Y-66526983D01*
X102606385Y-66526766D01*
X102643832Y-66497036D01*
X102646738Y-66494743D01*
X102683722Y-66467841D01*
X102721224Y-66444439D01*
X102757134Y-66425753D01*
X102789344Y-66413002D01*
X102824158Y-66405298D01*
X102862326Y-66402746D01*
X102899724Y-66405568D01*
X102932982Y-66413747D01*
X102961437Y-66424018D01*
X102990141Y-66402887D01*
X102995970Y-66398764D01*
X103015732Y-66386117D01*
X103038607Y-66372847D01*
X103060742Y-66361230D01*
X103080136Y-66352384D01*
X103120770Y-66338801D01*
X103159659Y-66333306D01*
X103198381Y-66335765D01*
X103238511Y-66346043D01*
X103245093Y-66348517D01*
X103263520Y-66356768D01*
X103284612Y-66367476D01*
X103305583Y-66379123D01*
X103323648Y-66390191D01*
X103336021Y-66399164D01*
X103336868Y-66399875D01*
X103342708Y-66402919D01*
X103350087Y-66401841D01*
X103362163Y-66396295D01*
X103379196Y-66388425D01*
X103414347Y-66375751D01*
X103451215Y-66366210D01*
X103485318Y-66361083D01*
X103489250Y-66360797D01*
X103535720Y-66361938D01*
X103578930Y-66371364D01*
X103618206Y-66388700D01*
X103652875Y-66413568D01*
X103682264Y-66445592D01*
X103705698Y-66484393D01*
X103706838Y-66486782D01*
X103718389Y-66514201D01*
X103726691Y-66541674D01*
X103732169Y-66571458D01*
X103735249Y-66605811D01*
X103736356Y-66646990D01*
X103736730Y-66711492D01*
X103757900Y-66729127D01*
X103766195Y-66736313D01*
X103801337Y-66774083D01*
X103830327Y-66818434D01*
X103852802Y-66868833D01*
X103862002Y-66896553D01*
X103869442Y-66924825D01*
X103874765Y-66953917D01*
X103878267Y-66985915D01*
X103880246Y-67022906D01*
X103880998Y-67066979D01*
X103881433Y-67155243D01*
X103905638Y-67180836D01*
X103914935Y-67191257D01*
X103937782Y-67224071D01*
X103954408Y-67261094D01*
X103965048Y-67303161D01*
X103969941Y-67351111D01*
X103969322Y-67405779D01*
X103966270Y-67459786D01*
X103983216Y-67481866D01*
X103997810Y-67503628D01*
X104014010Y-67533747D01*
X104027945Y-67565789D01*
X104037775Y-67595908D01*
X104040979Y-67610924D01*
X104044833Y-67650042D01*
X104043979Y-67694187D01*
X104038596Y-67741455D01*
X104028863Y-67789943D01*
X104014961Y-67837748D01*
X104003939Y-67870153D01*
X104020409Y-67894378D01*
X104024204Y-67900062D01*
X104045319Y-67937162D01*
X104059459Y-67974066D01*
X104066645Y-68011833D01*
X104066896Y-68051525D01*
X104060234Y-68094199D01*
X104046680Y-68140916D01*
X104026254Y-68192736D01*
X104021645Y-68203437D01*
X104012373Y-68225624D01*
X104004133Y-68246139D01*
X103998291Y-68261613D01*
X103989408Y-68286720D01*
X103999750Y-68326115D01*
X104003157Y-68340125D01*
X104007250Y-68363343D01*
X104009341Y-68388219D01*
X104009837Y-68418494D01*
X104009813Y-68422455D01*
X104009249Y-68445902D01*
X104007560Y-68465603D01*
X104004147Y-68483500D01*
X103998409Y-68501538D01*
X103989747Y-68521659D01*
X103977561Y-68545805D01*
X103961252Y-68575921D01*
X103956914Y-68583878D01*
X103945954Y-68604698D01*
X103937090Y-68622572D01*
X103931141Y-68635811D01*
X103928924Y-68642726D01*
X103929166Y-68648041D01*
X103930312Y-68661363D01*
X103932193Y-68679782D01*
X103934586Y-68701000D01*
X103935739Y-68711682D01*
X103937820Y-68757999D01*
X103934241Y-68800487D01*
X103924516Y-68840346D01*
X103908159Y-68878775D01*
X103884683Y-68916975D01*
X103853603Y-68956144D01*
X103814432Y-68997483D01*
X103763879Y-69047389D01*
X103763833Y-69113388D01*
X103763786Y-69179387D01*
X103742465Y-69212445D01*
X103727256Y-69235209D01*
X103674044Y-69304811D01*
X103612647Y-69371820D01*
X103543673Y-69435806D01*
X103467730Y-69496340D01*
X103385428Y-69552994D01*
X103297374Y-69605339D01*
X103204177Y-69652946D01*
X103106446Y-69695387D01*
X103004789Y-69732233D01*
X102989082Y-69737523D01*
X102972786Y-69743380D01*
X102961681Y-69747824D01*
X102957564Y-69750173D01*
X102960260Y-69751879D01*
X102970131Y-69755942D01*
X102985554Y-69761532D01*
X103004735Y-69767973D01*
X103013090Y-69770719D01*
X103079662Y-69794831D01*
X103149680Y-69823749D01*
X103220245Y-69856151D01*
X103288462Y-69890715D01*
X103351434Y-69926121D01*
X103383751Y-69945941D01*
X103469854Y-70004850D01*
X103548512Y-70068126D01*
X103619436Y-70135504D01*
X103682335Y-70206716D01*
X103736921Y-70281496D01*
X103763786Y-70322314D01*
X103763786Y-70387007D01*
X103763786Y-70451701D01*
X103822529Y-70512139D01*
X103842783Y-70533421D01*
X103871978Y-70566623D01*
X103894726Y-70596899D01*
X103911721Y-70625744D01*
X103923658Y-70654651D01*
X103931228Y-70685116D01*
X103935127Y-70718632D01*
X103936047Y-70756694D01*
X103936038Y-70757699D01*
X103935467Y-70782170D01*
X103934325Y-70804935D01*
X103932773Y-70823490D01*
X103930974Y-70835334D01*
X103929432Y-70843054D01*
X103929023Y-70852141D01*
X103930699Y-70862198D01*
X103934958Y-70874631D01*
X103942300Y-70890843D01*
X103953224Y-70912240D01*
X103968229Y-70940229D01*
X103973806Y-70950586D01*
X103987414Y-70977003D01*
X103997078Y-70998659D01*
X104003464Y-71017859D01*
X104007237Y-71036913D01*
X104009062Y-71058128D01*
X104009604Y-71083812D01*
X104009605Y-71090164D01*
X104008552Y-71120889D01*
X104005375Y-71147420D01*
X103999614Y-71173887D01*
X103997304Y-71182820D01*
X103994381Y-71195338D01*
X103992853Y-71206241D01*
X103993025Y-71216976D01*
X103995200Y-71228990D01*
X103999682Y-71243731D01*
X104006773Y-71262645D01*
X104016778Y-71287180D01*
X104030001Y-71318784D01*
X104044784Y-71356955D01*
X104058855Y-71404351D01*
X104065955Y-71447529D01*
X104066062Y-71487555D01*
X104059156Y-71525498D01*
X104045213Y-71562425D01*
X104024212Y-71599403D01*
X104004033Y-71630125D01*
X104015401Y-71663354D01*
X104026880Y-71700143D01*
X104040641Y-71761929D01*
X104046113Y-71819863D01*
X104043285Y-71874077D01*
X104032145Y-71924705D01*
X104012680Y-71971880D01*
X103984881Y-72015736D01*
X103966581Y-72039914D01*
X103969434Y-72100916D01*
X103970223Y-72134689D01*
X103967838Y-72181445D01*
X103960748Y-72221883D01*
X103948624Y-72257162D01*
X103931136Y-72288440D01*
X103907953Y-72316879D01*
X103881272Y-72344852D01*
X103880927Y-72433069D01*
X103880908Y-72437116D01*
X103880121Y-72480223D01*
X103878086Y-72516464D01*
X103874490Y-72547959D01*
X103869023Y-72576831D01*
X103861371Y-72605202D01*
X103851222Y-72635195D01*
X103851109Y-72635507D01*
X103832494Y-72677900D01*
X103809485Y-72716405D01*
X103783298Y-72749256D01*
X103755148Y-72774688D01*
X103736360Y-72788510D01*
X103736171Y-72853012D01*
X103736149Y-72857662D01*
X103734977Y-72897862D01*
X103731771Y-72931488D01*
X103726106Y-72960807D01*
X103717557Y-72988091D01*
X103705698Y-73015608D01*
X103687899Y-73046429D01*
X103660274Y-73079194D01*
X103627537Y-73105028D01*
X103590433Y-73123740D01*
X103549706Y-73135136D01*
X103506100Y-73139024D01*
X103460358Y-73135210D01*
X103413225Y-73123504D01*
X103365445Y-73103711D01*
X103345868Y-73093934D01*
X103302940Y-73119813D01*
X103295598Y-73124172D01*
X103260441Y-73142712D01*
X103228376Y-73155036D01*
X103197075Y-73161886D01*
X103164208Y-73164004D01*
X103159009Y-73163777D01*
X103143156Y-73163084D01*
X103107690Y-73156932D01*
X103072028Y-73144515D01*
X103034696Y-73125263D01*
X102994215Y-73098609D01*
X102959507Y-73073693D01*
X102940615Y-73081931D01*
X102916647Y-73090072D01*
X102878536Y-73095927D01*
X102837031Y-73095130D01*
X102793951Y-73087611D01*
X102782747Y-73084254D01*
X102754953Y-73072746D01*
X102723725Y-73056360D01*
X102691081Y-73036293D01*
X102659037Y-73013747D01*
X102629614Y-72989920D01*
X102603495Y-72967013D01*
X102578934Y-72971574D01*
X102572488Y-72972625D01*
X102540037Y-72974755D01*
X102504341Y-72972995D01*
X102469394Y-72967700D01*
X102439190Y-72959221D01*
X102433520Y-72957007D01*
X102393100Y-72936649D01*
X102353583Y-72909251D01*
X102317241Y-72876580D01*
X102286348Y-72840403D01*
X102270239Y-72818457D01*
X102239532Y-72818389D01*
X102233161Y-72818301D01*
X102186010Y-72812843D01*
X102140241Y-72798846D01*
X102095699Y-72776197D01*
X102052228Y-72744788D01*
X102009671Y-72704507D01*
X101967872Y-72655243D01*
X101926675Y-72596886D01*
X101907140Y-72566860D01*
X101873691Y-72558892D01*
X101862915Y-72556153D01*
X101816436Y-72539781D01*
X101774855Y-72516942D01*
X101737813Y-72487249D01*
X101704954Y-72450315D01*
X101675920Y-72405750D01*
X101650353Y-72353167D01*
X101627897Y-72292178D01*
X101614956Y-72251968D01*
X101586244Y-72242691D01*
X101546473Y-72226222D01*
X101509007Y-72202265D01*
X101476018Y-72171274D01*
X101447275Y-72132936D01*
X101422544Y-72086939D01*
X101401594Y-72032970D01*
X101384192Y-71970716D01*
X101383397Y-71967391D01*
X101379179Y-71950998D01*
X101375530Y-71938702D01*
X101373165Y-71932951D01*
X101372638Y-71933034D01*
X101368146Y-71938123D01*
X101359906Y-71949666D01*
X101348657Y-71966561D01*
X101335139Y-71987709D01*
X101320091Y-72012007D01*
X101307470Y-72032484D01*
X101240368Y-72134634D01*
X101171548Y-72228035D01*
X101100599Y-72313007D01*
X101027112Y-72389871D01*
X100950678Y-72458949D01*
X100870888Y-72520561D01*
X100787331Y-72575029D01*
X100699600Y-72622674D01*
X100607283Y-72663817D01*
X100509972Y-72698778D01*
X100407258Y-72727879D01*
X100376226Y-72735341D01*
X100320498Y-72747290D01*
X100264485Y-72757270D01*
X100206409Y-72765521D01*
X100144488Y-72772282D01*
X100076945Y-72777792D01*
X100001998Y-72782289D01*
X100000206Y-72782381D01*
X99896097Y-72787729D01*
X99839863Y-72819827D01*
X99837784Y-72821014D01*
X99815689Y-72833816D01*
X99799747Y-72843771D01*
X99788179Y-72852358D01*
X99779210Y-72861059D01*
X99771062Y-72871352D01*
X99761957Y-72884719D01*
X99757899Y-72890807D01*
X99708326Y-72958283D01*
X99651200Y-73024947D01*
X99588006Y-73089277D01*
X99520233Y-73149749D01*
X99449366Y-73204842D01*
X99420753Y-73225253D01*
X99384349Y-73250235D01*
X99350443Y-73272032D01*
X99316375Y-73292271D01*
X99279488Y-73312575D01*
X99237122Y-73334571D01*
X99131179Y-73383679D01*
X99023184Y-73424324D01*
X98914001Y-73456210D01*
X98804009Y-73479288D01*
X98693585Y-73493509D01*
X98583106Y-73498826D01*
X98566075Y-73498264D01*
X98472949Y-73495189D01*
X98363492Y-73482549D01*
X98255111Y-73460860D01*
X98240012Y-73457098D01*
X98135795Y-73426297D01*
X98035227Y-73387813D01*
X97937728Y-73341348D01*
X97842720Y-73286600D01*
X97749624Y-73223269D01*
X97657859Y-73151055D01*
X97614353Y-73114476D01*
X97566478Y-73104416D01*
X97562047Y-73103481D01*
X97520002Y-73094230D01*
X97479159Y-73084457D01*
X97438301Y-73073794D01*
X97396211Y-73061872D01*
X97351672Y-73048322D01*
X97303466Y-73032774D01*
X97250377Y-73014860D01*
X97191484Y-72994314D01*
X97191186Y-72994210D01*
X97124679Y-72970456D01*
X97088653Y-72957537D01*
X97048454Y-72943343D01*
X97015017Y-72931869D01*
X96987298Y-72922786D01*
X96964255Y-72915766D01*
X96944843Y-72910481D01*
X96928020Y-72906602D01*
X96912743Y-72903803D01*
X96874911Y-72897273D01*
X96760561Y-72871392D01*
X96648856Y-72836783D01*
X96540100Y-72793605D01*
X96449085Y-72749101D01*
X97756170Y-72749101D01*
X97756808Y-72764102D01*
X97758586Y-72780164D01*
X97761052Y-72790814D01*
X97761518Y-72791832D01*
X97768154Y-72801297D01*
X97780356Y-72815346D01*
X97796881Y-72832780D01*
X97816484Y-72852400D01*
X97837921Y-72873006D01*
X97859949Y-72893399D01*
X97881323Y-72912380D01*
X97900799Y-72928748D01*
X97917133Y-72941304D01*
X97966466Y-72974365D01*
X98048605Y-73021070D01*
X98135979Y-73061285D01*
X98191502Y-73082190D01*
X98281492Y-73109103D01*
X98375045Y-73129271D01*
X98470471Y-73142480D01*
X98566075Y-73148521D01*
X98660167Y-73147180D01*
X98751053Y-73138246D01*
X98850967Y-73119684D01*
X98948892Y-73092735D01*
X99042223Y-73057816D01*
X99130876Y-73014985D01*
X99214766Y-72964298D01*
X99293809Y-72905811D01*
X99367921Y-72839582D01*
X99437017Y-72765666D01*
X99501013Y-72684121D01*
X99559825Y-72595004D01*
X99568957Y-72579599D01*
X99576175Y-72565705D01*
X99580173Y-72554107D01*
X99581923Y-72541828D01*
X99582396Y-72525894D01*
X99580141Y-72499471D01*
X99569585Y-72467362D01*
X99550396Y-72438281D01*
X99522560Y-72412221D01*
X99486065Y-72389174D01*
X99440898Y-72369134D01*
X99387048Y-72352092D01*
X99344449Y-72342522D01*
X99907993Y-72342522D01*
X99909380Y-72364876D01*
X99914392Y-72381280D01*
X99916039Y-72384031D01*
X99923737Y-72392344D01*
X99935092Y-72398620D01*
X99951014Y-72402981D01*
X99972415Y-72405554D01*
X100000206Y-72406464D01*
X100035298Y-72405834D01*
X100078603Y-72403791D01*
X100083736Y-72403494D01*
X100179856Y-72395362D01*
X100269394Y-72382550D01*
X100353848Y-72364688D01*
X100434714Y-72341408D01*
X100513487Y-72312339D01*
X100591666Y-72277113D01*
X100618508Y-72263647D01*
X100681947Y-72228783D01*
X100739360Y-72192168D01*
X100793029Y-72152153D01*
X100845238Y-72107084D01*
X100898268Y-72055311D01*
X100933109Y-72017907D01*
X100994966Y-71941995D01*
X101049582Y-71861209D01*
X101097093Y-71775258D01*
X101137634Y-71683857D01*
X101171339Y-71586717D01*
X101185589Y-71532281D01*
X101438816Y-71532281D01*
X101438835Y-71559755D01*
X101439160Y-71582211D01*
X101439814Y-71598254D01*
X101440824Y-71606486D01*
X101441170Y-71607582D01*
X101443344Y-71612222D01*
X101446126Y-71611634D01*
X101450634Y-71604789D01*
X101457985Y-71590655D01*
X101458041Y-71590542D01*
X101470553Y-71569406D01*
X101485992Y-71548725D01*
X101502861Y-71530011D01*
X101519664Y-71514774D01*
X101534902Y-71504524D01*
X101547080Y-71500772D01*
X101551352Y-71504934D01*
X101556416Y-71516429D01*
X101561669Y-71533444D01*
X101566553Y-71554169D01*
X101570509Y-71576792D01*
X101572332Y-71591622D01*
X101574623Y-71613594D01*
X101577179Y-71640575D01*
X101579802Y-71670471D01*
X101582292Y-71701189D01*
X101583968Y-71721236D01*
X101590323Y-71779579D01*
X101598429Y-71833448D01*
X101608080Y-71881902D01*
X101619070Y-71923997D01*
X101631194Y-71958791D01*
X101644247Y-71985341D01*
X101652420Y-71998781D01*
X101660239Y-71967471D01*
X101665009Y-71951178D01*
X101672162Y-71931842D01*
X101679277Y-71916919D01*
X101681608Y-71913128D01*
X101691684Y-71899653D01*
X101703051Y-71887647D01*
X101713997Y-71878581D01*
X101722814Y-71873928D01*
X101727792Y-71875160D01*
X101727947Y-71875487D01*
X101730478Y-71882578D01*
X101735112Y-71896863D01*
X101741394Y-71916895D01*
X101748870Y-71941227D01*
X101757086Y-71968412D01*
X101762678Y-71986888D01*
X101784138Y-72054273D01*
X101804910Y-72113555D01*
X101825340Y-72165567D01*
X101845768Y-72211142D01*
X101866539Y-72251114D01*
X101887996Y-72286315D01*
X101909351Y-72318566D01*
X101912185Y-72263279D01*
X101914666Y-72232347D01*
X101920711Y-72196895D01*
X101930017Y-72168732D01*
X101942807Y-72147010D01*
X101944460Y-72144982D01*
X101946928Y-72143053D01*
X101949712Y-72143414D01*
X101953361Y-72146914D01*
X101958424Y-72154399D01*
X101965451Y-72166717D01*
X101974990Y-72184715D01*
X101987590Y-72209242D01*
X102003801Y-72241143D01*
X102013854Y-72260867D01*
X102041397Y-72313794D01*
X102066227Y-72359610D01*
X102088954Y-72399362D01*
X102110190Y-72434097D01*
X102130545Y-72464862D01*
X102150630Y-72492702D01*
X102168705Y-72516107D01*
X102186696Y-72537715D01*
X102200051Y-72551449D01*
X102208801Y-72557341D01*
X102212978Y-72555421D01*
X102213166Y-72554644D01*
X102214126Y-72546052D01*
X102215174Y-72530589D01*
X102216196Y-72510176D01*
X102217078Y-72486732D01*
X102218201Y-72460726D01*
X102220222Y-72436160D01*
X102223131Y-72418067D01*
X102227111Y-72404953D01*
X102229713Y-72399025D01*
X102234985Y-72389238D01*
X102238644Y-72385372D01*
X102241161Y-72387739D01*
X102248172Y-72396642D01*
X102258636Y-72410987D01*
X102271650Y-72429530D01*
X102286310Y-72451026D01*
X102292542Y-72460201D01*
X102312139Y-72488256D01*
X102333183Y-72517438D01*
X102353525Y-72544790D01*
X102371012Y-72567360D01*
X102378899Y-72577023D01*
X102394497Y-72595393D01*
X102412409Y-72615814D01*
X102431588Y-72637159D01*
X102450988Y-72658306D01*
X102469562Y-72678130D01*
X102486265Y-72695507D01*
X102500049Y-72709312D01*
X102509869Y-72718422D01*
X102514678Y-72721712D01*
X102514875Y-72721563D01*
X102515769Y-72715763D01*
X102516300Y-72702776D01*
X102516427Y-72684316D01*
X102516110Y-72662095D01*
X102515838Y-72641707D01*
X102516633Y-72611467D01*
X102519224Y-72588360D01*
X102523786Y-72571129D01*
X102530492Y-72558520D01*
X102531227Y-72557614D01*
X102533696Y-72556123D01*
X102537267Y-72556797D01*
X102542660Y-72560307D01*
X102550597Y-72567325D01*
X102561798Y-72578522D01*
X102576984Y-72594569D01*
X102596876Y-72616137D01*
X102622196Y-72643897D01*
X102642688Y-72666182D01*
X102667629Y-72692722D01*
X102691665Y-72717718D01*
X102713492Y-72739834D01*
X102731807Y-72757734D01*
X102745306Y-72770081D01*
X102746407Y-72771020D01*
X102763311Y-72784740D01*
X102782014Y-72798877D01*
X102801007Y-72812416D01*
X102818780Y-72824342D01*
X102833824Y-72833638D01*
X102844628Y-72839290D01*
X102849683Y-72840282D01*
X102849857Y-72839578D01*
X102848979Y-72832270D01*
X102846240Y-72818984D01*
X102842080Y-72801942D01*
X102839935Y-72793162D01*
X102833716Y-72756172D01*
X102832027Y-72720694D01*
X102834866Y-72688900D01*
X102842230Y-72662961D01*
X102846996Y-72652668D01*
X102852540Y-72642648D01*
X102856026Y-72638773D01*
X102857878Y-72639033D01*
X102868051Y-72644558D01*
X102882725Y-72656780D01*
X102901238Y-72675057D01*
X102922928Y-72698745D01*
X102947132Y-72727203D01*
X102957931Y-72740138D01*
X102977611Y-72762987D01*
X102996791Y-72784450D01*
X103013725Y-72802586D01*
X103026664Y-72815456D01*
X103042663Y-72829570D01*
X103063277Y-72846283D01*
X103084777Y-72862462D01*
X103105831Y-72877214D01*
X103125112Y-72889650D01*
X103141288Y-72898878D01*
X103153031Y-72904007D01*
X103159009Y-72904146D01*
X103159382Y-72902405D01*
X103159509Y-72892966D01*
X103158945Y-72876866D01*
X103157760Y-72855749D01*
X103156018Y-72831260D01*
X103153936Y-72799540D01*
X103152995Y-72766089D01*
X103154044Y-72741465D01*
X103157081Y-72725726D01*
X103162101Y-72718929D01*
X103167802Y-72719009D01*
X103181037Y-72721953D01*
X103199654Y-72727449D01*
X103221968Y-72734904D01*
X103246296Y-72743727D01*
X103270954Y-72753325D01*
X103294257Y-72763108D01*
X103314523Y-72772484D01*
X103347896Y-72790017D01*
X103383452Y-72810988D01*
X103422215Y-72836127D01*
X103465928Y-72866515D01*
X103496563Y-72888376D01*
X103496865Y-72861479D01*
X103497100Y-72841858D01*
X103497701Y-72799621D01*
X103498434Y-72755904D01*
X103499274Y-72711680D01*
X103500197Y-72667921D01*
X103501176Y-72625597D01*
X103502187Y-72585683D01*
X103503204Y-72549150D01*
X103504203Y-72516969D01*
X103505158Y-72490113D01*
X103506043Y-72469555D01*
X103506834Y-72456266D01*
X103507506Y-72451218D01*
X103510179Y-72452245D01*
X103518507Y-72458664D01*
X103531282Y-72469905D01*
X103547379Y-72484970D01*
X103565673Y-72502858D01*
X103579882Y-72516873D01*
X103596469Y-72532791D01*
X103609921Y-72545187D01*
X103619129Y-72553047D01*
X103622983Y-72555354D01*
X103623069Y-72555254D01*
X103625186Y-72549390D01*
X103628363Y-72537147D01*
X103631945Y-72521027D01*
X103639703Y-72470038D01*
X103642380Y-72413810D01*
X103639525Y-72353422D01*
X103631069Y-72288126D01*
X103616945Y-72217174D01*
X103597083Y-72139814D01*
X103577670Y-72070866D01*
X103590358Y-72059953D01*
X103606170Y-72050898D01*
X103624213Y-72049674D01*
X103644532Y-72056671D01*
X103667481Y-72072010D01*
X103693412Y-72095816D01*
X103698422Y-72100956D01*
X103711822Y-72115021D01*
X103722664Y-72126840D01*
X103728972Y-72134274D01*
X103733617Y-72139883D01*
X103735568Y-72138671D01*
X103735996Y-72129265D01*
X103735099Y-72114283D01*
X103731895Y-72090452D01*
X103726679Y-72060492D01*
X103719774Y-72025827D01*
X103711504Y-71987883D01*
X103702193Y-71948086D01*
X103692164Y-71907860D01*
X103681740Y-71868631D01*
X103671245Y-71831824D01*
X103661003Y-71798864D01*
X103640512Y-71736295D01*
X103650614Y-71726805D01*
X103653421Y-71724468D01*
X103669074Y-71718159D01*
X103687647Y-71718957D01*
X103706729Y-71726859D01*
X103708159Y-71727810D01*
X103718141Y-71735937D01*
X103732297Y-71748950D01*
X103748952Y-71765266D01*
X103766429Y-71783298D01*
X103810687Y-71830193D01*
X103807628Y-71807157D01*
X103807466Y-71805966D01*
X103803569Y-71784055D01*
X103797329Y-71755973D01*
X103789364Y-71724100D01*
X103780296Y-71690817D01*
X103770745Y-71658502D01*
X103761331Y-71629536D01*
X103758487Y-71621463D01*
X103740534Y-71575827D01*
X103719046Y-71528192D01*
X103695766Y-71482242D01*
X103672438Y-71441664D01*
X103665887Y-71431065D01*
X103656984Y-71416463D01*
X103650874Y-71406180D01*
X103648604Y-71401962D01*
X103649783Y-71400722D01*
X103656617Y-71395577D01*
X103667515Y-71388121D01*
X103670719Y-71386097D01*
X103692513Y-71377258D01*
X103715667Y-71376452D01*
X103740682Y-71383817D01*
X103768059Y-71399487D01*
X103798300Y-71423600D01*
X103800705Y-71425727D01*
X103812918Y-71435986D01*
X103821996Y-71442725D01*
X103826123Y-71444578D01*
X103826178Y-71442688D01*
X103823537Y-71433723D01*
X103817960Y-71418990D01*
X103810131Y-71400114D01*
X103800735Y-71378725D01*
X103790456Y-71356447D01*
X103779979Y-71334909D01*
X103778410Y-71331816D01*
X103759973Y-71298806D01*
X103736776Y-71261884D01*
X103710418Y-71223397D01*
X103682503Y-71185696D01*
X103654631Y-71151127D01*
X103639294Y-71133098D01*
X103624948Y-71116079D01*
X103615465Y-71104005D01*
X103610339Y-71095632D01*
X103609064Y-71089720D01*
X103611130Y-71085027D01*
X103616033Y-71080313D01*
X103623264Y-71074335D01*
X103633567Y-71066110D01*
X103660296Y-71050549D01*
X103687523Y-71043643D01*
X103716584Y-71045189D01*
X103748813Y-71054979D01*
X103749222Y-71055144D01*
X103763537Y-71060605D01*
X103773727Y-71063900D01*
X103777608Y-71064322D01*
X103777372Y-71063533D01*
X103773516Y-71056553D01*
X103765742Y-71044060D01*
X103755095Y-71027618D01*
X103742618Y-71008794D01*
X103729358Y-70989153D01*
X103716357Y-70970261D01*
X103704662Y-70953683D01*
X103695316Y-70940986D01*
X103686128Y-70929498D01*
X103667584Y-70908060D01*
X103645808Y-70884377D01*
X103622619Y-70860318D01*
X103599837Y-70837756D01*
X103579278Y-70818560D01*
X103562763Y-70804604D01*
X103550394Y-70794276D01*
X103541445Y-70785281D01*
X103538029Y-70779706D01*
X103538071Y-70779064D01*
X103542526Y-70770887D01*
X103552690Y-70760644D01*
X103566240Y-70750154D01*
X103580853Y-70741236D01*
X103594207Y-70735709D01*
X103603192Y-70733921D01*
X103627361Y-70732388D01*
X103659424Y-70733559D01*
X103672578Y-70734529D01*
X103687192Y-70735338D01*
X103696225Y-70734602D01*
X103699613Y-70731409D01*
X103697294Y-70724842D01*
X103689206Y-70713988D01*
X103675286Y-70697933D01*
X103655472Y-70675761D01*
X103649420Y-70669038D01*
X103624881Y-70642898D01*
X103597226Y-70615196D01*
X103565404Y-70584925D01*
X103528361Y-70551078D01*
X103485045Y-70512647D01*
X103471267Y-70500510D01*
X103450684Y-70482236D01*
X103431374Y-70464945D01*
X103416175Y-70451170D01*
X103388772Y-70426070D01*
X103399087Y-70417717D01*
X103399967Y-70417029D01*
X103414262Y-70408738D01*
X103435499Y-70399777D01*
X103461707Y-70390895D01*
X103490911Y-70382840D01*
X103491460Y-70382705D01*
X103507107Y-70378681D01*
X103518762Y-70375373D01*
X103523937Y-70373487D01*
X103524147Y-70372508D01*
X103520194Y-70366232D01*
X103510403Y-70355345D01*
X103495740Y-70340711D01*
X103477171Y-70323199D01*
X103455660Y-70303676D01*
X103432172Y-70283008D01*
X103407674Y-70262063D01*
X103383129Y-70241707D01*
X103359504Y-70222809D01*
X103337763Y-70206234D01*
X103331932Y-70201945D01*
X103249467Y-70144851D01*
X103167267Y-70094494D01*
X103085763Y-70050997D01*
X103005386Y-70014488D01*
X102926569Y-69985092D01*
X102849744Y-69962935D01*
X102775341Y-69948143D01*
X102703794Y-69940842D01*
X102683507Y-69940936D01*
X102635534Y-69941158D01*
X102570993Y-69949216D01*
X102510603Y-69965142D01*
X102471843Y-69980195D01*
X102415359Y-70009605D01*
X102363723Y-70046388D01*
X102316607Y-70090829D01*
X102273685Y-70143211D01*
X102234628Y-70203819D01*
X102227758Y-70216011D01*
X102218439Y-70233379D01*
X102211547Y-70247263D01*
X102208217Y-70255441D01*
X102208031Y-70256465D01*
X102208972Y-70262568D01*
X102213355Y-70271654D01*
X102221818Y-70284727D01*
X102234997Y-70302792D01*
X102253529Y-70326854D01*
X102362708Y-70472227D01*
X102478621Y-70640200D01*
X102589584Y-70815898D01*
X102695604Y-70999331D01*
X102796686Y-71190509D01*
X102892835Y-71389444D01*
X102984056Y-71596144D01*
X103070355Y-71810621D01*
X103151737Y-72032884D01*
X103159931Y-72056715D01*
X103166925Y-72077785D01*
X103172021Y-72093965D01*
X103174820Y-72103991D01*
X103174926Y-72106601D01*
X103173425Y-72104290D01*
X103167981Y-72094616D01*
X103159384Y-72078672D01*
X103148274Y-72057663D01*
X103135291Y-72032795D01*
X103121076Y-72005270D01*
X103064490Y-71896685D01*
X102986069Y-71750915D01*
X102905998Y-71607242D01*
X102825251Y-71467376D01*
X102744801Y-71333027D01*
X102665623Y-71205905D01*
X102648067Y-71178440D01*
X102570229Y-71059920D01*
X102494192Y-70949622D01*
X102419522Y-70846978D01*
X102345784Y-70751421D01*
X102272543Y-70662384D01*
X102199365Y-70579300D01*
X102125815Y-70501601D01*
X102038143Y-70412371D01*
X101989175Y-70428756D01*
X101971867Y-70434805D01*
X101899812Y-70465901D01*
X101832376Y-70504906D01*
X101769849Y-70551611D01*
X101712523Y-70605805D01*
X101660688Y-70667275D01*
X101651318Y-70679994D01*
X101607165Y-70748385D01*
X101567740Y-70824298D01*
X101533179Y-70907333D01*
X101503617Y-70997088D01*
X101479190Y-71093161D01*
X101460033Y-71195152D01*
X101446281Y-71302658D01*
X101445107Y-71316775D01*
X101443695Y-71340271D01*
X101442412Y-71368525D01*
X101441284Y-71400139D01*
X101440335Y-71433719D01*
X101439591Y-71467867D01*
X101439076Y-71501186D01*
X101438816Y-71532281D01*
X101185589Y-71532281D01*
X101198345Y-71483551D01*
X101218787Y-71374071D01*
X101223393Y-71335348D01*
X101226702Y-71288914D01*
X101228661Y-71237175D01*
X101229293Y-71182045D01*
X101228621Y-71125439D01*
X101226669Y-71069272D01*
X101223460Y-71015460D01*
X101219015Y-70965916D01*
X101213360Y-70922557D01*
X101212068Y-70914680D01*
X101207091Y-70890943D01*
X101201063Y-70874660D01*
X101193007Y-70864447D01*
X101181948Y-70858920D01*
X101166908Y-70856695D01*
X101154014Y-70856714D01*
X101141624Y-70859034D01*
X101127062Y-70864494D01*
X101107479Y-70873919D01*
X101086735Y-70885119D01*
X101052543Y-70906308D01*
X101015626Y-70932412D01*
X100975504Y-70963830D01*
X100931694Y-71000961D01*
X100883715Y-71044204D01*
X100831086Y-71093956D01*
X100824586Y-71100332D01*
X100773325Y-71150618D01*
X100753412Y-71170499D01*
X100711139Y-71213115D01*
X100673082Y-71252196D01*
X100637577Y-71289531D01*
X100602960Y-71326904D01*
X100567566Y-71366103D01*
X100529732Y-71408914D01*
X100487792Y-71457124D01*
X100444316Y-71507870D01*
X100376731Y-71588753D01*
X100312416Y-71668211D01*
X100251680Y-71745793D01*
X100194831Y-71821051D01*
X100142178Y-71893537D01*
X100094031Y-71962802D01*
X100050698Y-72028399D01*
X100012488Y-72089878D01*
X99979710Y-72146791D01*
X99952674Y-72198689D01*
X99931687Y-72245125D01*
X99917059Y-72285649D01*
X99915813Y-72289934D01*
X99910160Y-72316711D01*
X99907993Y-72342522D01*
X99344449Y-72342522D01*
X99324502Y-72338041D01*
X99253248Y-72326974D01*
X99243522Y-72325847D01*
X99208832Y-72322966D01*
X99167245Y-72320841D01*
X99120475Y-72319470D01*
X99070238Y-72318854D01*
X99018249Y-72318991D01*
X98969180Y-72319831D01*
X98966223Y-72319882D01*
X98915875Y-72321526D01*
X98868920Y-72323922D01*
X98827073Y-72327071D01*
X98766116Y-72333146D01*
X98667701Y-72345200D01*
X98571753Y-72359694D01*
X98478753Y-72376462D01*
X98389185Y-72395336D01*
X98303529Y-72416150D01*
X98222267Y-72438735D01*
X98145883Y-72462926D01*
X98074856Y-72488556D01*
X98009671Y-72515456D01*
X97950807Y-72543460D01*
X97898748Y-72572400D01*
X97853975Y-72602111D01*
X97816971Y-72632424D01*
X97788217Y-72663173D01*
X97768194Y-72694190D01*
X97761174Y-72710396D01*
X97757112Y-72727831D01*
X97756170Y-72749101D01*
X96449085Y-72749101D01*
X96434596Y-72742016D01*
X96332648Y-72682174D01*
X96234560Y-72614238D01*
X96140636Y-72538366D01*
X96051180Y-72454717D01*
X96049413Y-72452940D01*
X95993009Y-72393087D01*
X95938861Y-72329709D01*
X95887769Y-72263996D01*
X95840534Y-72197139D01*
X95797958Y-72130327D01*
X95760840Y-72064752D01*
X95729983Y-72001602D01*
X95706187Y-71942069D01*
X95703204Y-71933826D01*
X95695053Y-71914526D01*
X95685002Y-71895756D01*
X95671642Y-71875044D01*
X95653561Y-71849923D01*
X95580129Y-71748566D01*
X95515809Y-71654320D01*
X95503883Y-71636845D01*
X95434464Y-71527398D01*
X95371222Y-71419053D01*
X95357608Y-71393481D01*
X95888305Y-71393481D01*
X95890939Y-71477128D01*
X95901918Y-71562313D01*
X95921079Y-71648404D01*
X95948263Y-71734766D01*
X95983306Y-71820766D01*
X96026046Y-71905770D01*
X96076323Y-71989145D01*
X96118476Y-72049510D01*
X96183963Y-72131212D01*
X96256521Y-72209405D01*
X96334959Y-72282831D01*
X96418091Y-72350236D01*
X96469924Y-72385746D01*
X96532543Y-72421892D01*
X96601867Y-72456047D01*
X96676633Y-72487717D01*
X96755580Y-72516410D01*
X96837446Y-72541632D01*
X96920970Y-72562890D01*
X97004889Y-72579690D01*
X97015747Y-72581518D01*
X97035040Y-72584451D01*
X97053472Y-72586667D01*
X97072722Y-72588264D01*
X97094469Y-72589336D01*
X97120393Y-72589980D01*
X97152171Y-72590292D01*
X97191484Y-72590368D01*
X97226214Y-72590309D01*
X97257616Y-72590072D01*
X97282664Y-72589563D01*
X97302865Y-72588691D01*
X97319729Y-72587362D01*
X97334765Y-72585485D01*
X97349481Y-72582968D01*
X97365386Y-72579717D01*
X97402467Y-72570868D01*
X97459885Y-72553247D01*
X97511648Y-72532273D01*
X97556904Y-72508363D01*
X97594804Y-72481930D01*
X97624497Y-72453390D01*
X97636721Y-72437558D01*
X97657955Y-72400754D01*
X97675170Y-72357691D01*
X97688004Y-72309876D01*
X97696095Y-72258818D01*
X97699081Y-72206026D01*
X97696599Y-72153009D01*
X97691515Y-72114257D01*
X97675038Y-72037754D01*
X97649980Y-71959451D01*
X97616555Y-71879718D01*
X97574977Y-71798923D01*
X97525462Y-71717433D01*
X97468224Y-71635616D01*
X97403479Y-71553841D01*
X97331440Y-71472476D01*
X97252324Y-71391888D01*
X97217921Y-71358962D01*
X97195442Y-71338244D01*
X97186871Y-71330344D01*
X97158652Y-71305747D01*
X97131567Y-71283742D01*
X97103915Y-71262899D01*
X97073998Y-71241787D01*
X97070608Y-71239464D01*
X96971939Y-71177601D01*
X96893640Y-71136562D01*
X98025176Y-71136562D01*
X98025198Y-71171803D01*
X98026061Y-71202618D01*
X98027826Y-71226638D01*
X98039442Y-71302465D01*
X98060910Y-71389456D01*
X98090559Y-71472341D01*
X98128300Y-71550943D01*
X98174048Y-71625085D01*
X98227716Y-71694590D01*
X98289217Y-71759282D01*
X98305037Y-71773971D01*
X98373816Y-71830112D01*
X98447800Y-71878652D01*
X98526983Y-71919588D01*
X98611359Y-71952916D01*
X98700922Y-71978633D01*
X98795664Y-71996737D01*
X98797593Y-71997015D01*
X98833453Y-72000888D01*
X98875716Y-72003478D01*
X98921813Y-72004783D01*
X98969180Y-72004801D01*
X99015249Y-72003527D01*
X99057455Y-72000960D01*
X99093230Y-71997095D01*
X99134026Y-71990631D01*
X99240533Y-71967391D01*
X99344346Y-71935379D01*
X99445272Y-71894677D01*
X99543117Y-71845369D01*
X99637688Y-71787539D01*
X99728793Y-71721272D01*
X99748652Y-71704938D01*
X99782164Y-71675123D01*
X99817979Y-71641020D01*
X99854215Y-71604538D01*
X99888993Y-71567590D01*
X99920432Y-71532083D01*
X99946652Y-71499930D01*
X99999461Y-71426229D01*
X100050201Y-71343083D01*
X100093112Y-71258458D01*
X100128270Y-71172801D01*
X100155750Y-71086559D01*
X100175627Y-71000178D01*
X100187977Y-70914105D01*
X100192875Y-70828786D01*
X100190396Y-70744668D01*
X100180617Y-70662197D01*
X100163612Y-70581820D01*
X100139456Y-70503984D01*
X100108226Y-70429135D01*
X100069997Y-70357719D01*
X100024843Y-70290184D01*
X99972840Y-70226975D01*
X99914064Y-70168539D01*
X99848591Y-70115323D01*
X99776494Y-70067773D01*
X99697851Y-70026337D01*
X99675170Y-70016077D01*
X99599624Y-69986744D01*
X99522697Y-69964490D01*
X99442963Y-69949019D01*
X99358997Y-69940034D01*
X99352578Y-69939834D01*
X99269373Y-69937239D01*
X99222344Y-69937964D01*
X99164811Y-69941067D01*
X99110606Y-69946952D01*
X99056500Y-69955995D01*
X98999264Y-69968570D01*
X98943157Y-69983497D01*
X98844140Y-70016736D01*
X98748692Y-70057626D01*
X98657232Y-70105729D01*
X98570179Y-70160602D01*
X98487952Y-70221805D01*
X98410968Y-70288898D01*
X98339648Y-70361439D01*
X98274408Y-70438987D01*
X98215669Y-70521103D01*
X98163849Y-70607344D01*
X98119365Y-70697271D01*
X98082638Y-70790442D01*
X98054085Y-70886417D01*
X98034126Y-70984755D01*
X98032263Y-70998705D01*
X98029538Y-71027965D01*
X98027408Y-71062274D01*
X98025933Y-71099262D01*
X98025176Y-71136562D01*
X96893640Y-71136562D01*
X96868432Y-71123350D01*
X96760923Y-71077071D01*
X96650250Y-71039126D01*
X96537249Y-71009876D01*
X96497071Y-71001928D01*
X96427727Y-70991789D01*
X96359237Y-70986101D01*
X96293039Y-70984872D01*
X96230573Y-70988109D01*
X96173278Y-70995818D01*
X96122593Y-71008004D01*
X96111667Y-71011558D01*
X96068801Y-71029320D01*
X96029375Y-71051661D01*
X95994831Y-71077539D01*
X95966609Y-71105910D01*
X95946151Y-71135731D01*
X95944229Y-71139416D01*
X95929844Y-71171816D01*
X95916565Y-71209711D01*
X95905437Y-71249813D01*
X95897503Y-71288836D01*
X95894179Y-71312008D01*
X95888305Y-71393481D01*
X95357608Y-71393481D01*
X95313505Y-71310636D01*
X95260664Y-71200977D01*
X95212047Y-71088901D01*
X95167004Y-70973237D01*
X95166203Y-70971112D01*
X95159443Y-70956405D01*
X95150060Y-70941682D01*
X95136614Y-70924928D01*
X95117667Y-70904128D01*
X95110527Y-70896538D01*
X95043333Y-70822154D01*
X94983415Y-70749885D01*
X94929724Y-70678263D01*
X94881216Y-70605823D01*
X94836843Y-70531095D01*
X94795558Y-70452613D01*
X94793220Y-70447883D01*
X94755190Y-70365646D01*
X94723031Y-70284741D01*
X94696308Y-70203511D01*
X94674583Y-70120295D01*
X94657421Y-70033435D01*
X94644385Y-69941272D01*
X94635039Y-69842147D01*
X94634434Y-69831136D01*
X94633871Y-69805363D01*
X94633921Y-69773465D01*
X94634523Y-69737404D01*
X94634993Y-69720981D01*
X94927605Y-69720981D01*
X94927821Y-69760773D01*
X94928625Y-69800017D01*
X94929997Y-69836549D01*
X94931915Y-69868207D01*
X94934359Y-69892827D01*
X94943423Y-69949267D01*
X94964880Y-70042262D01*
X94994308Y-70136252D01*
X95031226Y-70230063D01*
X95075154Y-70322520D01*
X95125612Y-70412447D01*
X95182119Y-70498671D01*
X95200446Y-70524006D01*
X95241223Y-70576432D01*
X95282536Y-70624440D01*
X95323755Y-70667466D01*
X95364248Y-70704948D01*
X95403385Y-70736323D01*
X95440536Y-70761027D01*
X95475070Y-70778499D01*
X95506357Y-70788174D01*
X95515809Y-70789133D01*
X95538427Y-70787446D01*
X95563874Y-70781571D01*
X95588958Y-70772128D01*
X95602775Y-70763961D01*
X95622520Y-70748549D01*
X95644099Y-70728649D01*
X95665752Y-70706009D01*
X95685720Y-70682378D01*
X95702242Y-70659506D01*
X95726290Y-70619478D01*
X95757623Y-70558011D01*
X95787251Y-70489143D01*
X95814891Y-70413871D01*
X95840258Y-70333193D01*
X95863068Y-70248106D01*
X95883038Y-70159607D01*
X95899884Y-70068693D01*
X95913322Y-69976363D01*
X95923068Y-69883612D01*
X95923652Y-69876279D01*
X95925829Y-69839692D01*
X95927438Y-69796611D01*
X95928488Y-69748782D01*
X95928553Y-69742215D01*
X96232275Y-69742215D01*
X96237508Y-69839938D01*
X96251129Y-69937180D01*
X96272861Y-70033071D01*
X96302430Y-70126741D01*
X96339561Y-70217322D01*
X96383980Y-70303943D01*
X96435410Y-70385735D01*
X96493577Y-70461828D01*
X96539433Y-70513120D01*
X96609025Y-70580178D01*
X96682557Y-70639024D01*
X96759831Y-70689573D01*
X96840650Y-70731736D01*
X96924817Y-70765428D01*
X97012136Y-70790561D01*
X97102410Y-70807049D01*
X97195442Y-70814804D01*
X97291035Y-70813740D01*
X97296435Y-70813417D01*
X97384518Y-70803404D01*
X97470912Y-70784499D01*
X97555995Y-70756601D01*
X97640148Y-70719607D01*
X97656602Y-70711246D01*
X97737398Y-70664083D01*
X97813418Y-70609362D01*
X97884259Y-70547580D01*
X97949518Y-70479233D01*
X98008791Y-70404819D01*
X98061676Y-70324835D01*
X98107770Y-70239777D01*
X98146670Y-70150142D01*
X98177972Y-70056428D01*
X98186374Y-70025566D01*
X98207288Y-69928325D01*
X98219990Y-69831297D01*
X98223026Y-69769531D01*
X100282243Y-69769531D01*
X100282336Y-69796605D01*
X100282717Y-69817471D01*
X100283414Y-69830629D01*
X100284291Y-69839646D01*
X100285973Y-69857114D01*
X100288054Y-69878829D01*
X100290269Y-69902042D01*
X100290948Y-69909004D01*
X100302951Y-70000344D01*
X100320298Y-70089396D01*
X100342665Y-70175428D01*
X100369728Y-70257705D01*
X100401163Y-70335494D01*
X100436645Y-70408062D01*
X100475851Y-70474674D01*
X100518457Y-70534598D01*
X100564138Y-70587100D01*
X100612570Y-70631446D01*
X100613537Y-70632223D01*
X100654289Y-70661030D01*
X100697528Y-70684679D01*
X100741497Y-70702455D01*
X100784435Y-70713644D01*
X100824586Y-70717532D01*
X100845727Y-70716213D01*
X100886153Y-70707140D01*
X100928762Y-70689642D01*
X100973138Y-70663941D01*
X101018864Y-70630261D01*
X101065523Y-70588824D01*
X101083312Y-70571208D01*
X101143173Y-70504262D01*
X101198503Y-70430256D01*
X101248807Y-70350194D01*
X101293590Y-70265083D01*
X101332358Y-70175926D01*
X101364614Y-70083729D01*
X101389865Y-69989496D01*
X101407616Y-69894233D01*
X101408032Y-69891245D01*
X101410880Y-69863300D01*
X101413009Y-69828672D01*
X101414404Y-69789581D01*
X101415048Y-69748247D01*
X101414924Y-69706889D01*
X101414015Y-69667727D01*
X101412306Y-69632981D01*
X101409779Y-69604871D01*
X101405145Y-69571179D01*
X101387046Y-69477571D01*
X101361616Y-69384376D01*
X101329385Y-69292745D01*
X101290884Y-69203830D01*
X101246640Y-69118782D01*
X101197185Y-69038753D01*
X101143048Y-68964893D01*
X101137753Y-68958849D01*
X101084759Y-68898354D01*
X101074631Y-68888009D01*
X101022391Y-68840030D01*
X100970241Y-68801152D01*
X100918225Y-68771391D01*
X100866385Y-68750766D01*
X100814767Y-68739295D01*
X100763412Y-68736996D01*
X100712365Y-68743886D01*
X100698901Y-68747141D01*
X100675038Y-68754444D01*
X100652497Y-68763958D01*
X100628501Y-68776938D01*
X100600272Y-68794643D01*
X100592302Y-68800017D01*
X100546953Y-68836729D01*
X100504479Y-68881788D01*
X100465059Y-68934791D01*
X100428873Y-68995334D01*
X100396099Y-69063013D01*
X100366918Y-69137423D01*
X100341509Y-69218161D01*
X100320050Y-69304821D01*
X100302722Y-69397001D01*
X100289704Y-69494296D01*
X100288495Y-69509482D01*
X100287295Y-69532212D01*
X100286158Y-69560735D01*
X100285113Y-69593552D01*
X100284188Y-69629161D01*
X100283410Y-69666065D01*
X100282808Y-69702761D01*
X100282409Y-69737749D01*
X100282243Y-69769531D01*
X98223026Y-69769531D01*
X98224726Y-69734937D01*
X98221744Y-69639701D01*
X98211291Y-69546044D01*
X98193613Y-69454421D01*
X98168958Y-69365287D01*
X98137571Y-69279098D01*
X98099699Y-69196309D01*
X98055591Y-69117376D01*
X98005491Y-69042753D01*
X97949648Y-68972896D01*
X97888307Y-68908260D01*
X97821716Y-68849301D01*
X97750122Y-68796474D01*
X97673770Y-68750233D01*
X97592909Y-68711035D01*
X97507784Y-68679335D01*
X97418643Y-68655588D01*
X97374658Y-68647316D01*
X97286652Y-68637641D01*
X97197677Y-68636627D01*
X97108704Y-68644122D01*
X97020701Y-68659976D01*
X96934639Y-68684037D01*
X96851489Y-68716154D01*
X96772221Y-68756177D01*
X96769468Y-68757753D01*
X96688365Y-68809572D01*
X96613081Y-68868328D01*
X96543848Y-68933636D01*
X96480897Y-69005112D01*
X96424461Y-69082371D01*
X96374770Y-69165029D01*
X96332058Y-69252702D01*
X96296555Y-69345005D01*
X96295366Y-69349096D01*
X96268494Y-69441554D01*
X96248107Y-69541965D01*
X96235624Y-69645854D01*
X96232275Y-69742215D01*
X95928553Y-69742215D01*
X95928988Y-69697948D01*
X95928944Y-69645853D01*
X95928366Y-69594240D01*
X95927263Y-69544854D01*
X95925642Y-69499438D01*
X95923512Y-69459735D01*
X95920881Y-69427490D01*
X95918730Y-69407450D01*
X95906652Y-69315393D01*
X95891341Y-69225847D01*
X95873072Y-69139909D01*
X95852122Y-69058672D01*
X95828769Y-68983231D01*
X95803288Y-68914680D01*
X95775957Y-68854114D01*
X95772381Y-68847054D01*
X95742963Y-68794730D01*
X95712950Y-68751527D01*
X95682266Y-68717372D01*
X95650840Y-68692193D01*
X95618597Y-68675920D01*
X95585464Y-68668480D01*
X95568906Y-68668158D01*
X95534625Y-68673739D01*
X95497587Y-68687050D01*
X95458307Y-68707579D01*
X95417298Y-68734813D01*
X95375074Y-68768240D01*
X95332149Y-68807348D01*
X95289037Y-68851624D01*
X95246252Y-68900556D01*
X95204308Y-68953632D01*
X95163718Y-69010339D01*
X95124996Y-69070165D01*
X95088657Y-69132598D01*
X95055214Y-69197126D01*
X95049195Y-69209642D01*
X95006088Y-69309892D01*
X94972117Y-69410000D01*
X94947305Y-69509889D01*
X94931676Y-69609479D01*
X94930689Y-69619943D01*
X94929018Y-69648403D01*
X94927997Y-69682803D01*
X94927605Y-69720981D01*
X94634993Y-69720981D01*
X94635617Y-69699146D01*
X94637141Y-69660653D01*
X94639034Y-69623890D01*
X94641236Y-69590819D01*
X94643686Y-69563406D01*
X94643801Y-69562336D01*
X94660901Y-69445961D01*
X94686923Y-69331644D01*
X94721761Y-69219604D01*
X94765308Y-69110058D01*
X94817457Y-69003225D01*
X94878102Y-68899324D01*
X94947137Y-68798572D01*
X95024455Y-68701189D01*
X95109949Y-68607393D01*
X95126166Y-68590470D01*
X95141883Y-68573006D01*
X95152787Y-68559091D01*
X95160015Y-68547244D01*
X95164704Y-68535980D01*
X95169163Y-68523070D01*
X95179284Y-68495740D01*
X95192020Y-68463011D01*
X95206605Y-68426751D01*
X95222272Y-68388829D01*
X95238255Y-68351115D01*
X95253788Y-68315478D01*
X95268104Y-68283787D01*
X95321103Y-68175617D01*
X95351646Y-68119707D01*
X95863068Y-68119707D01*
X95863952Y-68159907D01*
X95866124Y-68196726D01*
X95869575Y-68227291D01*
X95874010Y-68252810D01*
X95886785Y-68306606D01*
X95903287Y-68356110D01*
X95923018Y-68400132D01*
X95945477Y-68437482D01*
X95970166Y-68466972D01*
X96003311Y-68494538D01*
X96047677Y-68520452D01*
X96099145Y-68540635D01*
X96157635Y-68555062D01*
X96223069Y-68563710D01*
X96295366Y-68566553D01*
X96364565Y-68563980D01*
X96452983Y-68554225D01*
X96544526Y-68537565D01*
X96638060Y-68514395D01*
X96732454Y-68485105D01*
X96826574Y-68450090D01*
X96919288Y-68409742D01*
X97009462Y-68364454D01*
X97015931Y-68360727D01*
X98080025Y-68360727D01*
X98080039Y-68384638D01*
X98080454Y-68404055D01*
X98081385Y-68420780D01*
X98082947Y-68436616D01*
X98085253Y-68453366D01*
X98088420Y-68472832D01*
X98092560Y-68496818D01*
X98105267Y-68558969D01*
X98132170Y-68653909D01*
X98167324Y-68746114D01*
X98210284Y-68835170D01*
X98260602Y-68920657D01*
X98317834Y-69002159D01*
X98381533Y-69079260D01*
X98451252Y-69151541D01*
X98526546Y-69218585D01*
X98606969Y-69279977D01*
X98692073Y-69335297D01*
X98781414Y-69384130D01*
X98874544Y-69426058D01*
X98971019Y-69460664D01*
X99070391Y-69487531D01*
X99172214Y-69506241D01*
X99194894Y-69509136D01*
X99272364Y-69515015D01*
X99352578Y-69515458D01*
X99432901Y-69510599D01*
X99510696Y-69500569D01*
X99583326Y-69485504D01*
X99632792Y-69471600D01*
X99718447Y-69440595D01*
X99798888Y-69402312D01*
X99873804Y-69357050D01*
X99942888Y-69305109D01*
X100005830Y-69246790D01*
X100062321Y-69182392D01*
X100112052Y-69112215D01*
X100154715Y-69036559D01*
X100189999Y-68955723D01*
X100217596Y-68870008D01*
X100225811Y-68836471D01*
X100239930Y-68753360D01*
X100246266Y-68667119D01*
X100244818Y-68579023D01*
X100235583Y-68490347D01*
X100218559Y-68402368D01*
X100199216Y-68332005D01*
X100165225Y-68237439D01*
X100123183Y-68146166D01*
X100073550Y-68058595D01*
X100016788Y-67975138D01*
X99953356Y-67896205D01*
X99883715Y-67822207D01*
X99808324Y-67753553D01*
X99727645Y-67690655D01*
X99642138Y-67633921D01*
X99552263Y-67583764D01*
X99458480Y-67540594D01*
X99361250Y-67504820D01*
X99261033Y-67476853D01*
X99158289Y-67457104D01*
X99156411Y-67456828D01*
X99123413Y-67453150D01*
X99084177Y-67450519D01*
X99081337Y-67450415D01*
X99040902Y-67448935D01*
X98995787Y-67448403D01*
X98951029Y-67448922D01*
X98908829Y-67450496D01*
X98871385Y-67453126D01*
X98840895Y-67456815D01*
X98838935Y-67457131D01*
X98744153Y-67476564D01*
X98655008Y-67503233D01*
X98571345Y-67537211D01*
X98493009Y-67578570D01*
X98419843Y-67627383D01*
X98351693Y-67683721D01*
X98344737Y-67690158D01*
X98284150Y-67753063D01*
X98230967Y-67821415D01*
X98185263Y-67895082D01*
X98147110Y-67973933D01*
X98116581Y-68057837D01*
X98093750Y-68146663D01*
X98090463Y-68163064D01*
X98087170Y-68181968D01*
X98084746Y-68200378D01*
X98083032Y-68220237D01*
X98081869Y-68243486D01*
X98081098Y-68272066D01*
X98080561Y-68307919D01*
X98080299Y-68330518D01*
X98080025Y-68360727D01*
X97015931Y-68360727D01*
X97095965Y-68314619D01*
X97177663Y-68260629D01*
X97185502Y-68255052D01*
X97208168Y-68238612D01*
X97228790Y-68223004D01*
X97248814Y-68207022D01*
X97269684Y-68189460D01*
X97292845Y-68169113D01*
X97319742Y-68144774D01*
X97351820Y-68115237D01*
X97380546Y-68088308D01*
X97459079Y-68010913D01*
X97530958Y-67934239D01*
X97596022Y-67858560D01*
X97654111Y-67784152D01*
X97705064Y-67711287D01*
X97748721Y-67640241D01*
X97784920Y-67571289D01*
X97813500Y-67504703D01*
X97834302Y-67440759D01*
X97847164Y-67379732D01*
X97851925Y-67321895D01*
X97848426Y-67267522D01*
X97840289Y-67226895D01*
X97824289Y-67177540D01*
X97802717Y-67132412D01*
X97776430Y-67093581D01*
X97757353Y-67074005D01*
X97727990Y-67051416D01*
X97691556Y-67028999D01*
X97649173Y-67007278D01*
X97601962Y-66986775D01*
X97551045Y-66968014D01*
X97497544Y-66951518D01*
X97442582Y-66937812D01*
X97407445Y-66930295D01*
X97376233Y-66924174D01*
X97347628Y-66919376D01*
X97319942Y-66915745D01*
X97291486Y-66913126D01*
X97260572Y-66911365D01*
X97225511Y-66910305D01*
X97184616Y-66909793D01*
X97136197Y-66909673D01*
X97125183Y-66909680D01*
X97085859Y-66909755D01*
X97053935Y-66909972D01*
X97027954Y-66910418D01*
X97006460Y-66911178D01*
X96987998Y-66912338D01*
X96971111Y-66913984D01*
X96954344Y-66916201D01*
X96936240Y-66919077D01*
X96915344Y-66922695D01*
X96838797Y-66938413D01*
X96747637Y-66963451D01*
X96662366Y-66994219D01*
X96583588Y-67030493D01*
X96511909Y-67072048D01*
X96471363Y-67099720D01*
X96422494Y-67135950D01*
X96372161Y-67175929D01*
X96322279Y-67218035D01*
X96274764Y-67260645D01*
X96231533Y-67302136D01*
X96194500Y-67340884D01*
X96178536Y-67358796D01*
X96107916Y-67444985D01*
X96046291Y-67532656D01*
X95993545Y-67622044D01*
X95949560Y-67713389D01*
X95914220Y-67806927D01*
X95887407Y-67902896D01*
X95869005Y-68001534D01*
X95868206Y-68007543D01*
X95865187Y-68040653D01*
X95863477Y-68078998D01*
X95863068Y-68119707D01*
X95351646Y-68119707D01*
X95386696Y-68055546D01*
X95460577Y-67933002D01*
X95542875Y-67807774D01*
X95633718Y-67679650D01*
X95637227Y-67674863D01*
X95657957Y-67646218D01*
X95673891Y-67623338D01*
X95685823Y-67604941D01*
X95694549Y-67589747D01*
X95700861Y-67576474D01*
X95705555Y-67563841D01*
X95719927Y-67524851D01*
X95743155Y-67473010D01*
X95772006Y-67417470D01*
X95805734Y-67359503D01*
X95843592Y-67300379D01*
X95884835Y-67241367D01*
X95928717Y-67183739D01*
X95939943Y-67170004D01*
X95966024Y-67139948D01*
X95996613Y-67106551D01*
X96030225Y-67071303D01*
X96065376Y-67035695D01*
X96100584Y-67001218D01*
X96134363Y-66969364D01*
X96165230Y-66941622D01*
X96191702Y-66919486D01*
X96216739Y-66900026D01*
X96315130Y-66830534D01*
X96417136Y-66769410D01*
X96491089Y-66732468D01*
X97781057Y-66732468D01*
X97781728Y-66760655D01*
X97789440Y-66790200D01*
X97804025Y-66819399D01*
X97806368Y-66822876D01*
X97819656Y-66838941D01*
X97838082Y-66857688D01*
X97859601Y-66877233D01*
X97882170Y-66895696D01*
X97903743Y-66911193D01*
X97950295Y-66938989D01*
X98008921Y-66968413D01*
X98075143Y-66996830D01*
X98148127Y-67024016D01*
X98227041Y-67049750D01*
X98311050Y-67073808D01*
X98399321Y-67095970D01*
X98491022Y-67116011D01*
X98585318Y-67133711D01*
X98681377Y-67148846D01*
X98778365Y-67161194D01*
X98875450Y-67170532D01*
X98879756Y-67170865D01*
X98911645Y-67172764D01*
X98949425Y-67174236D01*
X98991419Y-67175281D01*
X99035949Y-67175899D01*
X99081337Y-67176088D01*
X99125908Y-67175850D01*
X99167983Y-67175183D01*
X99205885Y-67174087D01*
X99237937Y-67172562D01*
X99262462Y-67170607D01*
X99289860Y-67167383D01*
X99358543Y-67156421D01*
X99419148Y-67142234D01*
X99471565Y-67124870D01*
X99497082Y-67113017D01*
X99880015Y-67113017D01*
X99882923Y-67140629D01*
X99892275Y-67176690D01*
X99907910Y-67218610D01*
X99929656Y-67266097D01*
X99957344Y-67318855D01*
X99990803Y-67376593D01*
X100029862Y-67439017D01*
X100074351Y-67505833D01*
X100124098Y-67576748D01*
X100178934Y-67651470D01*
X100238688Y-67729703D01*
X100296907Y-67803449D01*
X100361367Y-67882699D01*
X100426243Y-67960074D01*
X100491101Y-68035135D01*
X100555509Y-68107442D01*
X100619031Y-68176555D01*
X100681235Y-68242034D01*
X100741687Y-68303440D01*
X100799952Y-68360332D01*
X100855598Y-68412271D01*
X100908191Y-68458817D01*
X100957297Y-68499529D01*
X101002482Y-68533969D01*
X101043313Y-68561697D01*
X101079355Y-68582272D01*
X101083026Y-68584095D01*
X101113295Y-68596920D01*
X101137753Y-68602795D01*
X101156628Y-68601711D01*
X101170143Y-68593659D01*
X101178524Y-68578632D01*
X101178670Y-68578169D01*
X101183092Y-68559911D01*
X101187581Y-68533874D01*
X101191966Y-68501444D01*
X101196079Y-68464007D01*
X101199750Y-68422947D01*
X101202811Y-68379652D01*
X101204346Y-68348256D01*
X101204991Y-68265551D01*
X101201132Y-68180941D01*
X101192995Y-68097020D01*
X101180805Y-68016387D01*
X101169160Y-67962044D01*
X101438196Y-67962044D01*
X101438471Y-67993647D01*
X101439016Y-68025479D01*
X101439826Y-68056054D01*
X101440893Y-68083890D01*
X101442212Y-68107501D01*
X101444261Y-68134354D01*
X101454839Y-68230112D01*
X101470228Y-68324280D01*
X101490062Y-68415109D01*
X101513971Y-68500848D01*
X101541587Y-68579749D01*
X101554169Y-68610472D01*
X101592558Y-68690355D01*
X101636310Y-68763179D01*
X101685265Y-68828785D01*
X101739265Y-68887014D01*
X101798151Y-68937705D01*
X101861764Y-68980699D01*
X101929946Y-69015837D01*
X102002538Y-69042959D01*
X102037499Y-69053746D01*
X102097182Y-68995280D01*
X102119699Y-68972915D01*
X102194828Y-68893919D01*
X102271049Y-68807092D01*
X102348435Y-68712326D01*
X102427058Y-68609513D01*
X102506990Y-68498546D01*
X102588304Y-68379316D01*
X102671073Y-68251715D01*
X102755367Y-68115635D01*
X102841261Y-67970968D01*
X102928825Y-67817606D01*
X103018134Y-67655441D01*
X103109258Y-67484365D01*
X103116611Y-67470360D01*
X103132413Y-67440387D01*
X103146600Y-67413652D01*
X103158641Y-67391141D01*
X103168007Y-67373841D01*
X103174170Y-67362737D01*
X103176600Y-67358816D01*
X103176752Y-67358987D01*
X103175623Y-67364736D01*
X103171582Y-67377973D01*
X103164971Y-67397772D01*
X103156128Y-67423207D01*
X103145391Y-67453354D01*
X103133101Y-67487287D01*
X103119597Y-67524081D01*
X103105217Y-67562812D01*
X103090301Y-67602553D01*
X103075188Y-67642380D01*
X103060216Y-67681367D01*
X103045726Y-67718590D01*
X103032056Y-67753124D01*
X102965239Y-67914574D01*
X102878033Y-68109535D01*
X102786717Y-68296774D01*
X102691069Y-68476689D01*
X102590868Y-68649675D01*
X102485891Y-68816129D01*
X102375916Y-68976448D01*
X102260722Y-69131028D01*
X102259670Y-69132384D01*
X102242880Y-69154338D01*
X102228291Y-69173969D01*
X102216783Y-69190052D01*
X102209233Y-69201362D01*
X102206522Y-69206670D01*
X102206525Y-69206850D01*
X102209131Y-69215418D01*
X102215926Y-69229868D01*
X102225943Y-69248530D01*
X102238218Y-69269732D01*
X102251783Y-69291806D01*
X102265674Y-69313079D01*
X102278924Y-69331881D01*
X102320590Y-69381613D01*
X102369517Y-69426707D01*
X102423334Y-69464025D01*
X102481921Y-69493483D01*
X102545158Y-69515000D01*
X102572275Y-69520527D01*
X102606276Y-69524724D01*
X102644223Y-69527380D01*
X102683507Y-69528374D01*
X102721521Y-69527581D01*
X102755658Y-69524881D01*
X102783909Y-69520970D01*
X102859799Y-69505166D01*
X102938513Y-69481515D01*
X103019263Y-69450372D01*
X103101258Y-69412095D01*
X103183710Y-69367040D01*
X103265829Y-69315562D01*
X103346826Y-69258018D01*
X103357324Y-69250000D01*
X103381430Y-69230954D01*
X103406534Y-69210382D01*
X103431612Y-69189196D01*
X103455640Y-69168307D01*
X103477594Y-69148625D01*
X103496452Y-69131061D01*
X103511189Y-69116526D01*
X103520782Y-69105930D01*
X103524207Y-69100186D01*
X103522882Y-69099048D01*
X103514601Y-69095679D01*
X103500409Y-69091170D01*
X103482267Y-69086177D01*
X103474922Y-69084208D01*
X103451110Y-69076847D01*
X103429150Y-69068706D01*
X103410810Y-69060549D01*
X103397862Y-69053140D01*
X103392073Y-69047242D01*
X103394312Y-69043767D01*
X103402601Y-69034882D01*
X103416134Y-69021558D01*
X103434016Y-69004656D01*
X103455349Y-68985037D01*
X103479237Y-68963561D01*
X103493008Y-68951241D01*
X103526021Y-68921137D01*
X103558138Y-68891098D01*
X103588698Y-68861801D01*
X103617037Y-68833923D01*
X103642495Y-68808141D01*
X103664409Y-68785132D01*
X103682117Y-68765573D01*
X103694956Y-68750142D01*
X103702265Y-68739514D01*
X103703382Y-68734368D01*
X103702055Y-68734093D01*
X103693504Y-68734238D01*
X103678971Y-68735286D01*
X103660622Y-68737100D01*
X103651777Y-68737984D01*
X103621062Y-68739047D01*
X103596313Y-68735840D01*
X103575568Y-68727945D01*
X103556864Y-68714943D01*
X103549688Y-68708343D01*
X103541299Y-68698974D01*
X103538029Y-68692791D01*
X103538779Y-68690887D01*
X103544956Y-68683404D01*
X103556021Y-68672671D01*
X103570337Y-68660330D01*
X103601640Y-68632629D01*
X103637546Y-68596513D01*
X103672837Y-68556821D01*
X103705170Y-68516059D01*
X103718794Y-68497299D01*
X103733465Y-68476252D01*
X103747280Y-68455667D01*
X103759335Y-68436949D01*
X103768727Y-68421502D01*
X103774552Y-68410732D01*
X103775908Y-68406044D01*
X103772557Y-68406574D01*
X103762918Y-68410145D01*
X103749482Y-68416047D01*
X103724387Y-68424858D01*
X103696981Y-68427635D01*
X103696941Y-68427635D01*
X103676695Y-68426366D01*
X103659557Y-68421723D01*
X103642512Y-68412481D01*
X103622544Y-68397418D01*
X103602967Y-68381376D01*
X103649974Y-68325039D01*
X103664043Y-68307987D01*
X103700665Y-68261228D01*
X103731742Y-68217280D01*
X103758597Y-68174068D01*
X103782548Y-68129516D01*
X103804918Y-68081548D01*
X103805632Y-68079911D01*
X103814095Y-68060085D01*
X103820763Y-68043672D01*
X103824981Y-68032338D01*
X103826092Y-68027749D01*
X103824511Y-68028278D01*
X103817141Y-68033193D01*
X103805285Y-68042144D01*
X103790566Y-68053936D01*
X103783524Y-68059579D01*
X103766402Y-68072342D01*
X103750885Y-68082716D01*
X103739644Y-68088869D01*
X103723154Y-68094003D01*
X103698248Y-68095243D01*
X103675570Y-68088611D01*
X103656837Y-68074407D01*
X103656300Y-68073812D01*
X103651834Y-68067549D01*
X103652379Y-68061580D01*
X103658166Y-68052051D01*
X103674811Y-68025890D01*
X103701904Y-67977434D01*
X103727744Y-67924276D01*
X103751020Y-67869186D01*
X103770419Y-67814938D01*
X103775632Y-67797992D01*
X103782755Y-67772830D01*
X103789766Y-67746128D01*
X103796259Y-67719619D01*
X103801830Y-67695036D01*
X103806072Y-67674111D01*
X103808581Y-67658577D01*
X103808951Y-67650167D01*
X103806645Y-67649537D01*
X103798894Y-67655020D01*
X103786037Y-67667262D01*
X103768394Y-67685979D01*
X103753572Y-67701909D01*
X103729814Y-67725467D01*
X103709873Y-67741978D01*
X103692937Y-67751858D01*
X103678195Y-67755527D01*
X103664835Y-67753402D01*
X103652045Y-67745901D01*
X103640422Y-67736758D01*
X103662907Y-67667396D01*
X103665268Y-67660062D01*
X103674440Y-67630703D01*
X103683465Y-67600641D01*
X103691410Y-67573022D01*
X103697347Y-67550991D01*
X103700626Y-67537542D01*
X103706270Y-67512499D01*
X103712226Y-67484207D01*
X103718166Y-67454414D01*
X103723762Y-67424871D01*
X103728686Y-67397328D01*
X103732610Y-67373533D01*
X103735205Y-67355237D01*
X103736142Y-67344190D01*
X103736075Y-67340713D01*
X103735171Y-67336844D01*
X103732336Y-67336849D01*
X103726487Y-67341449D01*
X103716543Y-67351365D01*
X103701419Y-67367320D01*
X103695045Y-67373972D01*
X103668904Y-67398212D01*
X103645821Y-67414123D01*
X103625425Y-67421861D01*
X103607344Y-67421580D01*
X103591209Y-67413435D01*
X103589640Y-67412197D01*
X103584844Y-67407933D01*
X103581890Y-67403236D01*
X103580899Y-67396701D01*
X103581996Y-67386929D01*
X103585304Y-67372516D01*
X103590944Y-67352060D01*
X103599040Y-67324160D01*
X103609382Y-67286695D01*
X103626988Y-67207240D01*
X103637428Y-67131795D01*
X103640863Y-67059342D01*
X103640840Y-67053574D01*
X103639985Y-67022153D01*
X103638038Y-66992126D01*
X103635194Y-66965057D01*
X103631647Y-66942510D01*
X103627590Y-66926050D01*
X103623219Y-66917239D01*
X103620804Y-66918353D01*
X103612755Y-66924852D01*
X103600208Y-66936149D01*
X103584283Y-66951228D01*
X103566098Y-66969076D01*
X103549279Y-66985644D01*
X103531613Y-67002283D01*
X103519167Y-67012831D01*
X103511406Y-67017729D01*
X103507799Y-67017419D01*
X103507111Y-67013232D01*
X103506231Y-67000537D01*
X103505315Y-66980365D01*
X103504392Y-66953665D01*
X103503491Y-66921382D01*
X103502641Y-66884464D01*
X103501871Y-66843857D01*
X103501209Y-66800510D01*
X103500676Y-66763617D01*
X103500000Y-66722820D01*
X103499291Y-66685686D01*
X103498571Y-66653139D01*
X103497863Y-66626106D01*
X103497190Y-66605511D01*
X103496574Y-66592279D01*
X103496037Y-66587337D01*
X103495025Y-66587314D01*
X103488106Y-66590665D01*
X103476396Y-66598001D01*
X103461732Y-66608206D01*
X103435305Y-66626865D01*
X103364912Y-66671347D01*
X103296302Y-66706926D01*
X103229340Y-66733674D01*
X103210405Y-66740025D01*
X103189502Y-66746666D01*
X103175029Y-66750363D01*
X103165647Y-66751171D01*
X103160014Y-66749147D01*
X103156790Y-66744349D01*
X103154636Y-66736832D01*
X103154018Y-66732516D01*
X103153434Y-66718252D01*
X103153612Y-66697736D01*
X103154521Y-66672893D01*
X103156129Y-66645648D01*
X103157266Y-66628201D01*
X103158490Y-66604891D01*
X103159128Y-66585962D01*
X103159132Y-66573017D01*
X103158454Y-66567656D01*
X103156330Y-66567303D01*
X103147886Y-66569807D01*
X103135991Y-66575542D01*
X103108981Y-66591651D01*
X103068227Y-66620752D01*
X103028114Y-66655614D01*
X102987514Y-66697249D01*
X102945300Y-66746668D01*
X102934072Y-66760329D01*
X102910285Y-66787578D01*
X102889952Y-66808356D01*
X102873444Y-66822336D01*
X102861127Y-66829188D01*
X102853372Y-66828584D01*
X102851532Y-66826903D01*
X102842177Y-66812159D01*
X102835753Y-66790614D01*
X102832386Y-66763969D01*
X102832198Y-66733921D01*
X102835313Y-66702171D01*
X102841855Y-66670417D01*
X102843304Y-66664850D01*
X102847126Y-66648701D01*
X102849322Y-66636956D01*
X102849453Y-66631847D01*
X102846617Y-66632122D01*
X102837702Y-66635877D01*
X102825259Y-66642536D01*
X102801955Y-66657176D01*
X102777887Y-66674737D01*
X102752268Y-66695944D01*
X102724294Y-66721534D01*
X102693159Y-66752246D01*
X102658055Y-66788816D01*
X102618178Y-66831981D01*
X102617143Y-66833119D01*
X102592593Y-66859987D01*
X102573423Y-66880690D01*
X102558898Y-66895909D01*
X102548285Y-66906324D01*
X102540852Y-66912617D01*
X102535864Y-66915467D01*
X102532588Y-66915557D01*
X102530292Y-66913565D01*
X102526310Y-66907029D01*
X102520956Y-66892174D01*
X102517484Y-66871887D01*
X102515719Y-66844940D01*
X102515485Y-66810106D01*
X102515530Y-66805970D01*
X102515578Y-66783912D01*
X102515307Y-66765683D01*
X102514761Y-66753078D01*
X102513982Y-66747890D01*
X102513879Y-66747838D01*
X102509624Y-66750760D01*
X102500442Y-66759347D01*
X102487405Y-66772454D01*
X102471588Y-66788936D01*
X102454063Y-66807649D01*
X102435902Y-66827448D01*
X102418181Y-66847187D01*
X102401970Y-66865724D01*
X102388344Y-66881912D01*
X102379470Y-66892867D01*
X102342016Y-66941282D01*
X102304853Y-66992509D01*
X102271260Y-67042065D01*
X102260143Y-67058944D01*
X102250267Y-67073506D01*
X102243250Y-67083362D01*
X102240149Y-67086986D01*
X102238707Y-67085357D01*
X102234318Y-67077419D01*
X102228494Y-67065102D01*
X102224589Y-67055026D01*
X102221496Y-67042814D01*
X102219337Y-67027349D01*
X102217841Y-67006645D01*
X102216740Y-66978715D01*
X102216475Y-66970871D01*
X102215444Y-66948217D01*
X102214199Y-66929478D01*
X102212875Y-66916419D01*
X102211604Y-66910806D01*
X102208439Y-66911836D01*
X102200554Y-66918835D01*
X102189237Y-66930896D01*
X102175589Y-66946732D01*
X102160710Y-66965061D01*
X102145703Y-66984596D01*
X102131667Y-67004055D01*
X102121856Y-67018367D01*
X102108314Y-67038896D01*
X102095204Y-67059916D01*
X102081788Y-67082729D01*
X102067327Y-67108637D01*
X102051082Y-67138941D01*
X102032315Y-67174942D01*
X102010287Y-67217944D01*
X101949455Y-67337383D01*
X101935739Y-67310089D01*
X101927829Y-67292752D01*
X101918457Y-67263687D01*
X101913226Y-67231698D01*
X101911531Y-67193879D01*
X101911407Y-67153792D01*
X101897939Y-67169917D01*
X101888474Y-67183165D01*
X101876190Y-67203482D01*
X101862428Y-67228553D01*
X101848206Y-67256451D01*
X101834541Y-67285247D01*
X101822451Y-67313013D01*
X101822397Y-67313143D01*
X101815457Y-67331084D01*
X101806419Y-67356053D01*
X101795875Y-67386286D01*
X101784419Y-67420018D01*
X101772642Y-67455483D01*
X101761138Y-67490917D01*
X101750500Y-67524553D01*
X101741320Y-67554626D01*
X101737186Y-67568345D01*
X101731780Y-67584419D01*
X101727161Y-67593326D01*
X101722236Y-67596116D01*
X101715914Y-67593840D01*
X101707101Y-67587549D01*
X101689301Y-67569683D01*
X101672741Y-67541754D01*
X101660489Y-67506250D01*
X101656442Y-67491051D01*
X101653106Y-67479646D01*
X101651254Y-67474704D01*
X101650951Y-67474550D01*
X101647508Y-67478212D01*
X101641914Y-67488596D01*
X101634943Y-67504005D01*
X101627372Y-67522741D01*
X101619978Y-67543108D01*
X101613740Y-67562661D01*
X101605008Y-67595907D01*
X101597473Y-67633141D01*
X101590914Y-67675667D01*
X101585113Y-67724791D01*
X101579850Y-67781818D01*
X101577197Y-67812308D01*
X101572455Y-67859105D01*
X101567586Y-67897728D01*
X101562628Y-67927918D01*
X101557622Y-67949414D01*
X101552606Y-67961955D01*
X101550423Y-67964212D01*
X101541824Y-67964998D01*
X101529723Y-67959625D01*
X101515304Y-67949152D01*
X101499752Y-67934637D01*
X101484247Y-67917138D01*
X101469976Y-67897715D01*
X101458119Y-67877426D01*
X101452986Y-67867528D01*
X101447315Y-67858319D01*
X101443694Y-67855895D01*
X101441165Y-67859227D01*
X101441098Y-67859410D01*
X101439927Y-67867605D01*
X101439057Y-67883450D01*
X101438483Y-67905462D01*
X101438198Y-67932154D01*
X101438196Y-67962044D01*
X101169160Y-67962044D01*
X101164788Y-67941639D01*
X101162581Y-67932991D01*
X101131460Y-67829730D01*
X101093033Y-67731953D01*
X101047539Y-67639869D01*
X100995218Y-67553685D01*
X100936311Y-67473609D01*
X100871058Y-67399849D01*
X100799698Y-67332612D01*
X100722472Y-67272108D01*
X100639620Y-67218543D01*
X100551381Y-67172126D01*
X100457997Y-67133065D01*
X100359706Y-67101567D01*
X100256749Y-67077841D01*
X100149366Y-67062094D01*
X100109076Y-67058432D01*
X100059772Y-67055615D01*
X100005839Y-67054283D01*
X99945032Y-67054350D01*
X99937090Y-67054469D01*
X99922054Y-67055267D01*
X99912093Y-67057546D01*
X99904233Y-67062269D01*
X99895504Y-67070400D01*
X99888724Y-67077564D01*
X99882891Y-67086438D01*
X99880442Y-67097006D01*
X99880015Y-67113017D01*
X99497082Y-67113017D01*
X99515685Y-67104376D01*
X99551399Y-67080799D01*
X99578599Y-67054187D01*
X99597175Y-67024588D01*
X99601283Y-67015126D01*
X99605907Y-67000604D01*
X99607632Y-66985566D01*
X99607188Y-66965719D01*
X99606597Y-66956297D01*
X99605117Y-66943795D01*
X99602207Y-66932785D01*
X99596968Y-66920963D01*
X99588499Y-66906025D01*
X99575901Y-66885670D01*
X99562293Y-66864431D01*
X99500992Y-66778433D01*
X99434502Y-66700007D01*
X99362857Y-66629184D01*
X99286092Y-66565995D01*
X99204239Y-66510471D01*
X99117332Y-66462643D01*
X99103400Y-66455896D01*
X99033306Y-66425267D01*
X98962447Y-66400123D01*
X98888163Y-66379606D01*
X98807796Y-66362860D01*
X98807484Y-66362804D01*
X98789032Y-66359645D01*
X98772028Y-66357180D01*
X98754951Y-66355324D01*
X98736276Y-66353994D01*
X98714481Y-66353105D01*
X98688042Y-66352574D01*
X98655435Y-66352317D01*
X98615138Y-66352250D01*
X98613205Y-66352250D01*
X98573308Y-66352323D01*
X98541029Y-66352588D01*
X98514837Y-66353130D01*
X98493203Y-66354035D01*
X98474595Y-66355386D01*
X98457484Y-66357268D01*
X98440339Y-66359767D01*
X98421631Y-66362967D01*
X98342275Y-66379331D01*
X98243100Y-66406592D01*
X98150560Y-66440244D01*
X98064650Y-66480290D01*
X97985367Y-66526730D01*
X97912708Y-66579567D01*
X97846669Y-66638802D01*
X97843196Y-66642275D01*
X97825919Y-66660029D01*
X97810617Y-66676494D01*
X97798841Y-66689965D01*
X97792141Y-66698739D01*
X97787597Y-66707344D01*
X97781057Y-66732468D01*
X96491089Y-66732468D01*
X96523219Y-66716418D01*
X96633839Y-66671320D01*
X96749458Y-66633880D01*
X96758236Y-66631468D01*
X96780647Y-66625799D01*
X96806825Y-66619658D01*
X96834952Y-66613422D01*
X96863211Y-66607470D01*
X96889784Y-66602179D01*
X96912855Y-66597926D01*
X96930605Y-66595089D01*
X96941218Y-66594046D01*
X96941544Y-66594033D01*
X96949699Y-66592220D01*
X96965136Y-66587637D01*
X96986611Y-66580696D01*
X97012880Y-66571808D01*
X97042701Y-66561386D01*
X97074829Y-66549839D01*
X97123573Y-66532167D01*
X97186854Y-66509547D01*
X97243406Y-66489792D01*
X97294303Y-66472565D01*
X97340616Y-66457530D01*
X97383418Y-66444350D01*
X97423782Y-66432688D01*
X97462779Y-66422207D01*
X97501483Y-66412570D01*
X97540965Y-66403440D01*
X97552687Y-66400782D01*
X97581849Y-66393653D01*
X97603248Y-66387447D01*
X97617894Y-66381846D01*
X97626799Y-66376533D01*
X97679812Y-66333489D01*
X97739459Y-66287485D01*
X97795747Y-66247060D01*
X97850005Y-66211347D01*
X97903561Y-66179478D01*
X97957745Y-66150585D01*
X98013886Y-66123801D01*
X98017593Y-66122130D01*
X98095426Y-66089548D01*
X98171495Y-66062817D01*
X98247873Y-66041426D01*
X98326635Y-66024865D01*
X98409854Y-66012624D01*
X98499603Y-66004191D01*
X98552453Y-66001745D01*
X98648891Y-66003604D01*
G37*
G36*
X97682204Y-58263408D02*
G01*
X97683788Y-58272056D01*
X97711518Y-58411555D01*
X97738948Y-58530054D01*
X97762992Y-58615261D01*
X97780559Y-58654884D01*
X97795622Y-58665491D01*
X97858421Y-58699533D01*
X97954195Y-58745862D01*
X98069079Y-58797619D01*
X98324877Y-58909028D01*
X98631520Y-58700300D01*
X98644767Y-58691298D01*
X98761332Y-58613402D01*
X98859680Y-58549934D01*
X98929808Y-58507216D01*
X98961714Y-58491571D01*
X98964195Y-58492157D01*
X98999839Y-58518021D01*
X99063707Y-58574876D01*
X99145636Y-58652583D01*
X99235461Y-58741003D01*
X99323018Y-58829998D01*
X99398143Y-58909428D01*
X99450672Y-58969154D01*
X99470440Y-58999037D01*
X99470224Y-59000485D01*
X99451155Y-59037737D01*
X99405709Y-59112028D01*
X99340202Y-59213327D01*
X99260952Y-59331607D01*
X99051464Y-59639365D01*
X99160462Y-59914757D01*
X99182673Y-59969209D01*
X99237534Y-60088978D01*
X99284450Y-60170368D01*
X99318622Y-60204581D01*
X99364403Y-60215221D01*
X99452133Y-60232444D01*
X99558431Y-60251387D01*
X99582248Y-60255361D01*
X99690660Y-60272915D01*
X99765513Y-60290332D01*
X99812959Y-60317395D01*
X99839152Y-60363888D01*
X99850243Y-60439595D01*
X99852386Y-60554299D01*
X99851733Y-60717784D01*
X99851733Y-61121568D01*
X99807738Y-61129473D01*
X99581839Y-61170063D01*
X99519722Y-61182033D01*
X99406117Y-61208440D01*
X99320637Y-61234359D01*
X99278211Y-61255584D01*
X99261617Y-61282695D01*
X99227230Y-61353807D01*
X99184352Y-61450914D01*
X99139570Y-61558152D01*
X99099469Y-61659657D01*
X99070637Y-61739563D01*
X99059659Y-61782008D01*
X99059715Y-61782541D01*
X99077243Y-61815467D01*
X99121632Y-61885872D01*
X99186416Y-61983774D01*
X99265128Y-62099193D01*
X99269755Y-62105893D01*
X99347859Y-62220666D01*
X99411650Y-62317443D01*
X99454665Y-62386219D01*
X99470440Y-62416989D01*
X99470346Y-62417643D01*
X99448190Y-62447548D01*
X99392643Y-62509247D01*
X99311728Y-62594107D01*
X99213468Y-62693495D01*
X98956496Y-62949276D01*
X98659101Y-62744211D01*
X98654904Y-62741320D01*
X98537438Y-62662705D01*
X98435230Y-62598433D01*
X98359125Y-62555061D01*
X98319967Y-62539146D01*
X98318977Y-62539166D01*
X98270325Y-62551433D01*
X98186599Y-62581932D01*
X98082782Y-62624148D01*
X97973859Y-62671566D01*
X97874812Y-62717671D01*
X97800625Y-62755948D01*
X97766282Y-62779884D01*
X97765421Y-62781382D01*
X97751373Y-62826391D01*
X97732281Y-62910863D01*
X97712019Y-63017821D01*
X97691355Y-63133562D01*
X97666867Y-63264801D01*
X97646415Y-63368583D01*
X97617405Y-63508758D01*
X97578638Y-63507901D01*
X97247124Y-63500569D01*
X96876843Y-63492380D01*
X96871272Y-63463049D01*
X97563973Y-63463049D01*
X97578638Y-63477715D01*
X97593304Y-63463049D01*
X97578638Y-63448384D01*
X97563973Y-63463049D01*
X96871272Y-63463049D01*
X96837849Y-63287068D01*
X96817043Y-63178008D01*
X96790886Y-63041903D01*
X96769304Y-62930630D01*
X96739754Y-62779505D01*
X96440806Y-62658665D01*
X96141858Y-62537825D01*
X95837892Y-62747404D01*
X95533927Y-62956982D01*
X95273084Y-62697348D01*
X95261742Y-62686051D01*
X95164431Y-62588470D01*
X95085145Y-62507827D01*
X95031783Y-62452221D01*
X95012241Y-62429756D01*
X95025505Y-62407689D01*
X95066083Y-62346464D01*
X95127430Y-62256085D01*
X95202888Y-62146447D01*
X95269826Y-62046262D01*
X95333913Y-61942126D01*
X95377418Y-61861545D01*
X95393425Y-61816495D01*
X95392693Y-61806953D01*
X95372344Y-61740782D01*
X95332814Y-61662656D01*
X95320660Y-61641349D01*
X95294824Y-61577678D01*
X95296261Y-61541154D01*
X95298404Y-61539356D01*
X95343865Y-61513947D01*
X95430826Y-61473576D01*
X95549738Y-61422028D01*
X95691049Y-61363092D01*
X95845209Y-61300553D01*
X96002669Y-61238200D01*
X96153877Y-61179820D01*
X96289284Y-61129199D01*
X96399339Y-61090124D01*
X96474492Y-61066383D01*
X96505192Y-61061762D01*
X96518180Y-61077721D01*
X96561352Y-61132692D01*
X96618029Y-61206117D01*
X96740568Y-61329275D01*
X96911019Y-61431563D01*
X97103170Y-61492119D01*
X97303159Y-61506762D01*
X97497126Y-61471311D01*
X97652345Y-61399958D01*
X97806888Y-61277644D01*
X97924839Y-61123936D01*
X97941224Y-61087299D01*
X99793073Y-61087299D01*
X99807738Y-61101964D01*
X99822403Y-61087299D01*
X99807738Y-61072634D01*
X99793073Y-61087299D01*
X97941224Y-61087299D01*
X98003434Y-60948196D01*
X98039911Y-60759782D01*
X98031503Y-60568055D01*
X97975448Y-60382375D01*
X97868981Y-60212102D01*
X97839006Y-60177975D01*
X97676978Y-60042249D01*
X97490232Y-59952621D01*
X97289753Y-59913085D01*
X97086525Y-59927635D01*
X96916731Y-59983812D01*
X96752992Y-60089012D01*
X96602934Y-60246205D01*
X96490992Y-60387823D01*
X95890935Y-60141126D01*
X95809932Y-60107774D01*
X95643013Y-60038712D01*
X95498817Y-59978598D01*
X95385239Y-59930748D01*
X95310169Y-59898479D01*
X95281500Y-59885104D01*
X95281508Y-59876734D01*
X95298544Y-59829466D01*
X95332828Y-59756783D01*
X95349121Y-59723387D01*
X95380906Y-59647040D01*
X95393534Y-59598168D01*
X95381023Y-59565745D01*
X95340893Y-59493846D01*
X95279696Y-59395391D01*
X95204206Y-59281699D01*
X95014877Y-59004851D01*
X95269588Y-58748211D01*
X95276020Y-58741736D01*
X95374355Y-58644349D01*
X95457506Y-58564832D01*
X95516880Y-58511226D01*
X95543884Y-58491571D01*
X95570696Y-58504967D01*
X95636600Y-58545576D01*
X95730722Y-58606869D01*
X95842677Y-58682218D01*
X95946484Y-58751862D01*
X96043982Y-58814644D01*
X96114699Y-58857199D01*
X96147968Y-58872865D01*
X96153032Y-58872287D01*
X96204154Y-58856924D01*
X96290526Y-58825223D01*
X96397138Y-58783324D01*
X96508979Y-58737365D01*
X96611038Y-58693487D01*
X96688305Y-58657829D01*
X96725769Y-58636531D01*
X96740934Y-58600054D01*
X96763021Y-58517651D01*
X96788836Y-58401875D01*
X96815398Y-58265088D01*
X96877988Y-57919631D01*
X97247279Y-57911445D01*
X97616570Y-57903259D01*
X97682204Y-58263408D01*
G37*
%TD*%
%LPC*%
D17*
%TO.C,J2*%
X91167500Y-69900000D03*
X91167500Y-76700000D03*
D18*
X92587500Y-68980000D03*
D19*
X87967500Y-68980000D03*
D20*
X92027500Y-69220000D03*
X92027500Y-77350000D03*
D18*
X92587500Y-77620000D03*
D19*
X87967500Y-77620000D03*
%TD*%
D21*
%TO.C,SW2*%
X88300000Y-51700000D03*
X88300000Y-54700000D03*
%TD*%
D22*
%TO.C,H2*%
X112900000Y-47350000D03*
%TD*%
%TO.C,H3*%
X112900000Y-76100000D03*
%TD*%
D23*
%TO.C,J4*%
X103065000Y-48298000D03*
D24*
X101795000Y-48298000D03*
X103065000Y-47028000D03*
X101795000Y-47028000D03*
X103065000Y-45758000D03*
X101795000Y-45758000D03*
%TD*%
D25*
%TO.C,J1*%
X109715000Y-65940000D03*
X110731000Y-71020000D03*
X108699000Y-71020000D03*
%TD*%
D23*
%TO.C,BT1*%
X92455000Y-47050000D03*
D24*
X93725000Y-47050000D03*
%TD*%
D22*
%TO.C,H1*%
X88900000Y-47350000D03*
%TD*%
%LPD*%
M02*
