%TF.GenerationSoftware,KiCad,Pcbnew,9.0.1*%
%TF.CreationDate,2025-04-25T01:04:06-07:00*%
%TF.ProjectId,microcouple,6d696372-6f63-46f7-9570-6c652e6b6963,rev?*%
%TF.SameCoordinates,Original*%
%TF.FileFunction,Copper,L2,Inr*%
%TF.FilePolarity,Positive*%
%FSLAX46Y46*%
G04 Gerber Fmt 4.6, Leading zero omitted, Abs format (unit mm)*
G04 Created by KiCad (PCBNEW 9.0.1) date 2025-04-25 01:04:06*
%MOMM*%
%LPD*%
G01*
G04 APERTURE LIST*
%TA.AperFunction,ComponentPad*%
%ADD10O,1.950000X1.000000*%
%TD*%
%TA.AperFunction,ComponentPad*%
%ADD11O,2.300000X1.000000*%
%TD*%
%TA.AperFunction,ComponentPad*%
%ADD12O,1.000000X1.700000*%
%TD*%
%TA.AperFunction,ComponentPad*%
%ADD13C,3.800000*%
%TD*%
%TA.AperFunction,ComponentPad*%
%ADD14R,1.000000X1.000000*%
%TD*%
%TA.AperFunction,ComponentPad*%
%ADD15C,1.000000*%
%TD*%
%TA.AperFunction,ViaPad*%
%ADD16C,0.500000*%
%TD*%
%TA.AperFunction,ViaPad*%
%ADD17C,0.600000*%
%TD*%
%TA.AperFunction,Conductor*%
%ADD18C,0.200000*%
%TD*%
G04 APERTURE END LIST*
D10*
%TO.N,Net-(J2-SHIELD)*%
%TO.C,J2*%
X92587500Y-68980000D03*
D11*
X87967500Y-68980000D03*
D12*
X92027500Y-69220000D03*
X92027500Y-77350000D03*
D10*
X92587500Y-77620000D03*
D11*
X87967500Y-77620000D03*
%TD*%
D13*
%TO.N,Net-(C25-Pad1)*%
%TO.C,H2*%
X112900000Y-47350000D03*
%TD*%
%TO.N,Net-(C26-Pad1)*%
%TO.C,H3*%
X112900000Y-76100000D03*
%TD*%
D14*
%TO.N,/Capacitive Touch/CS2*%
%TO.C,J4*%
X103065000Y-48298000D03*
D15*
%TO.N,GND*%
X101795000Y-48298000D03*
%TO.N,/Capacitive Touch/CS3*%
X103065000Y-47028000D03*
%TO.N,GND*%
X101795000Y-47028000D03*
%TO.N,/Capacitive Touch/CS4*%
X103065000Y-45758000D03*
%TO.N,GND*%
X101795000Y-45758000D03*
%TD*%
D14*
%TO.N,+BATT*%
%TO.C,BT1*%
X92455000Y-47050000D03*
D15*
%TO.N,GND*%
X93725000Y-47050000D03*
%TD*%
D13*
%TO.N,Net-(C24-Pad1)*%
%TO.C,H1*%
X88900000Y-47350000D03*
%TD*%
D16*
%TO.N,GND*%
X106900000Y-51970000D03*
%TO.N,+3.3V*%
X96987654Y-66737120D03*
%TO.N,GND*%
X96750000Y-66100000D03*
%TO.N,+1V1*%
X104525297Y-68783296D03*
%TO.N,GND*%
X113050000Y-60000000D03*
D17*
X96200000Y-55850000D03*
X90900000Y-49650000D03*
D16*
X106800000Y-73300000D03*
X113300000Y-64800000D03*
X89050000Y-67200000D03*
X102647069Y-70947069D03*
X108200000Y-47200000D03*
X107200000Y-70200000D03*
X108200000Y-49000000D03*
X95550000Y-64950000D03*
D17*
X98530000Y-49880000D03*
D16*
X94550000Y-63950000D03*
D17*
X90850000Y-75950000D03*
D16*
X105400000Y-75656000D03*
X106400000Y-49000000D03*
X91450000Y-46000000D03*
D17*
X93967663Y-70682202D03*
D16*
X98680104Y-64333657D03*
X103550000Y-70000000D03*
X109446000Y-70300000D03*
X104350000Y-50950000D03*
X93550000Y-64950000D03*
X114250000Y-49950000D03*
D17*
X88650000Y-57200000D03*
X96450000Y-74150000D03*
D16*
X105250000Y-46050000D03*
D17*
X94000000Y-52650000D03*
D16*
X113300000Y-62050000D03*
D17*
X87890003Y-58600000D03*
D16*
X101050000Y-69700000D03*
X108198162Y-68598162D03*
X106400000Y-47200000D03*
X99300000Y-76100000D03*
X98200000Y-61750000D03*
D17*
X95713030Y-70738696D03*
D16*
X107300000Y-48100000D03*
X98700000Y-65950000D03*
X108500000Y-51000000D03*
D17*
X93450000Y-50600000D03*
D16*
X114000000Y-57600000D03*
X101300000Y-73500000D03*
D17*
X94150000Y-76150000D03*
D16*
X104200000Y-77750000D03*
X114250000Y-73550000D03*
D17*
X90150000Y-55950000D03*
D16*
X91100000Y-68100000D03*
X101050000Y-72200000D03*
X93550000Y-62950000D03*
X105885140Y-67709000D03*
D17*
%TO.N,+BATT*%
X92800000Y-51900000D03*
%TO.N,+3.3V*%
X97861684Y-71488316D03*
D16*
X103538532Y-66311000D03*
X98400000Y-51550000D03*
X104350000Y-49300000D03*
X108050000Y-45350000D03*
X106450000Y-75900000D03*
X102100000Y-73400000D03*
X109351849Y-50750000D03*
X99515090Y-65887324D03*
D17*
X87100000Y-58600000D03*
D16*
X104800000Y-71818999D03*
X108950000Y-66600000D03*
X114250000Y-65950000D03*
%TO.N,+1V1*%
X102740651Y-73000000D03*
X101825419Y-68422095D03*
D17*
%TO.N,VBUS*%
X90000000Y-63300000D03*
X90850000Y-70892500D03*
X91250000Y-62100000D03*
X90650000Y-62700000D03*
D16*
X88450000Y-65650000D03*
D17*
X90882498Y-74900000D03*
X94150000Y-74631000D03*
X94098434Y-71936563D03*
%TO.N,/Battery Management/VIN*%
X92800000Y-54850000D03*
X91150000Y-53200000D03*
D16*
%TO.N,/~{MX_SDB}*%
X98639377Y-61217974D03*
X104682933Y-73425830D03*
%TO.N,/CT_RESET*%
X104600000Y-51750000D03*
X99761573Y-69515346D03*
D17*
%TO.N,/Battery Management/PWR_ENABLE*%
X90100000Y-54900000D03*
X96109713Y-57400000D03*
%TO.N,/Battery Management/Charge Status*%
X88400000Y-66450000D03*
X99750000Y-45900000D03*
D16*
%TO.N,/LED Matrix/LEDMTX.R7*%
X91750127Y-65289409D03*
X103500000Y-52550000D03*
%TO.N,/LED Matrix/LEDMTX.C0*%
X99361091Y-55003296D03*
X99370104Y-53381426D03*
X99361091Y-64603296D03*
X99361091Y-61403296D03*
X99361091Y-56603296D03*
X99361091Y-59803296D03*
X99361091Y-58203296D03*
X97500000Y-63350000D03*
X99361091Y-63003296D03*
%TO.N,/LED Matrix/LEDMTX.C1*%
X100961118Y-59801697D03*
X100961118Y-64601697D03*
X100961118Y-63001697D03*
X100972858Y-53369527D03*
X100961118Y-55001697D03*
X100961118Y-56601697D03*
X100961118Y-58201697D03*
X97500000Y-62659997D03*
X100961118Y-61401697D03*
%TO.N,/LED Matrix/LEDMTX.C2*%
X102561240Y-64600000D03*
X102561240Y-55000000D03*
X102561240Y-56600000D03*
X97500000Y-61969994D03*
X102561240Y-59800000D03*
X102561240Y-63000000D03*
X102561240Y-58200000D03*
X102561240Y-61400000D03*
X102572858Y-53369527D03*
%TO.N,/LED Matrix/LEDMTX.C3*%
X104161465Y-54998210D03*
X104161465Y-64598210D03*
X96788778Y-61842452D03*
X104161465Y-62998210D03*
X104161465Y-61398210D03*
X104172858Y-53369527D03*
X104161465Y-59798210D03*
X104161465Y-58198210D03*
X104161465Y-56598210D03*
%TO.N,/LED Matrix/LEDMTX.C4*%
X105761794Y-59796333D03*
X105761794Y-54996333D03*
X96743711Y-61153923D03*
X105761794Y-64596333D03*
X105761794Y-56596333D03*
X105761794Y-61396333D03*
X105761794Y-58196333D03*
X105761794Y-62996333D03*
X105772858Y-53369527D03*
%TO.N,/LED Matrix/LEDMTX.C5*%
X107372858Y-53369527D03*
X96752321Y-60463974D03*
X107362229Y-61394371D03*
X107362229Y-59794371D03*
X107362229Y-62994371D03*
X107362229Y-56594371D03*
X107362229Y-58194371D03*
X107362229Y-54994371D03*
X107362229Y-64594371D03*
%TO.N,/LED Matrix/LEDMTX.C6*%
X108972858Y-53369527D03*
X108962772Y-58192329D03*
X96749713Y-59773976D03*
X108962772Y-56592329D03*
X108962772Y-62992329D03*
X108962772Y-59792329D03*
X108962772Y-64592329D03*
X108962772Y-61392329D03*
X108962772Y-54992329D03*
%TO.N,/LED Matrix/LEDMTX.C7*%
X110563426Y-64590213D03*
X110563426Y-61390213D03*
X110563426Y-58190213D03*
X110572858Y-53369527D03*
X110563426Y-54990213D03*
X110563426Y-59790213D03*
X97862551Y-58662551D03*
X110563426Y-56590213D03*
X110563426Y-62990213D03*
%TO.N,/LED Matrix/LEDMTX.R6*%
X101760118Y-54114948D03*
X92473521Y-67539833D03*
%TO.N,/LED Matrix/LEDMTX.R5*%
X93010000Y-68000000D03*
X100196540Y-55650000D03*
%TO.N,/LED Matrix/LEDMTX.R4*%
X95500037Y-70030012D03*
X106600000Y-57200000D03*
%TO.N,/LED Matrix/LEDMTX.R3*%
X95499926Y-69340010D03*
X105000000Y-58850000D03*
%TO.N,/LED Matrix/LEDMTX.R2*%
X95500103Y-68650008D03*
X103407314Y-60539323D03*
%TO.N,/LED Matrix/LEDMTX.R1*%
X101748808Y-62109067D03*
X95499394Y-67960006D03*
%TO.N,/LED Matrix/LEDMTX.R0*%
X100250000Y-63750000D03*
X95506364Y-67270039D03*
%TO.N,/IR.TX*%
X105000000Y-70350000D03*
X113000000Y-56250000D03*
%TO.N,/SWDIO*%
X104140003Y-73000000D03*
X112290000Y-70645630D03*
%TO.N,/SWCLK*%
X111750000Y-71100000D03*
X103450000Y-73000000D03*
%TO.N,/USB.D+*%
X94381601Y-73075000D03*
D17*
X90562129Y-73570000D03*
D16*
X96100000Y-76600000D03*
%TO.N,/USB.D-*%
X96800000Y-76600000D03*
D17*
X90562129Y-72770000D03*
D16*
X94381601Y-73775000D03*
%TO.N,/I2C0.SDL*%
X112200000Y-65150000D03*
X97451000Y-67950000D03*
X98103675Y-64989998D03*
%TO.N,/I2C0.SDA*%
X107850000Y-66100000D03*
X101337514Y-68910000D03*
%TO.N,/USB.D_PROTECTED+*%
X96100000Y-71400000D03*
X103150000Y-68703452D03*
%TO.N,/USB.D_PROTECTED-*%
X103850000Y-68703452D03*
X96800000Y-71400000D03*
%TO.N,/~{CT_ALERT}*%
X109300000Y-46150000D03*
X100250000Y-71407500D03*
%TO.N,/IR.RX*%
X106469324Y-69950001D03*
X113300000Y-63350000D03*
%TO.N,/CT_WAKE*%
X106588486Y-51360588D03*
X100259998Y-69992500D03*
%TD*%
D18*
%TO.N,Net-(J2-SHIELD)*%
X87967500Y-77620000D02*
X92587500Y-77620000D01*
X87967500Y-68980000D02*
X92587500Y-68980000D01*
X92027500Y-77350000D02*
X92027500Y-69220000D01*
%TD*%
%TA.AperFunction,Conductor*%
%TO.N,GND*%
G36*
X99541091Y-45120185D02*
G01*
X99586846Y-45172989D01*
X99596790Y-45242147D01*
X99567765Y-45305703D01*
X99525252Y-45336357D01*
X99525254Y-45336359D01*
X99525236Y-45336368D01*
X99521502Y-45339062D01*
X99518211Y-45340424D01*
X99381290Y-45419475D01*
X99381282Y-45419481D01*
X99269481Y-45531282D01*
X99269475Y-45531290D01*
X99190426Y-45668209D01*
X99190423Y-45668216D01*
X99149500Y-45820943D01*
X99149500Y-45979057D01*
X99188566Y-46124851D01*
X99190423Y-46131783D01*
X99190426Y-46131790D01*
X99269475Y-46268709D01*
X99269478Y-46268713D01*
X99269480Y-46268716D01*
X99381284Y-46380520D01*
X99381286Y-46380521D01*
X99381290Y-46380524D01*
X99518209Y-46459573D01*
X99518216Y-46459577D01*
X99670943Y-46500500D01*
X99670945Y-46500500D01*
X99829055Y-46500500D01*
X99829057Y-46500500D01*
X99981784Y-46459577D01*
X100097100Y-46393000D01*
X101513553Y-46393000D01*
X101795000Y-46674446D01*
X101795001Y-46674446D01*
X102076446Y-46393001D01*
X102076446Y-46392999D01*
X101795001Y-46111553D01*
X101795000Y-46111553D01*
X101513553Y-46393000D01*
X100097100Y-46393000D01*
X100118716Y-46380520D01*
X100230520Y-46268716D01*
X100239933Y-46252413D01*
X100257219Y-46222472D01*
X100309577Y-46131784D01*
X100350500Y-45979057D01*
X100350500Y-45820943D01*
X100309577Y-45668216D01*
X100293519Y-45640403D01*
X100230524Y-45531290D01*
X100230518Y-45531282D01*
X100118717Y-45419481D01*
X100118709Y-45419475D01*
X99981788Y-45340424D01*
X99978498Y-45339062D01*
X99976148Y-45337168D01*
X99974746Y-45336359D01*
X99974872Y-45336140D01*
X99924093Y-45295222D01*
X99902027Y-45228928D01*
X99919305Y-45161229D01*
X99970441Y-45113617D01*
X100025948Y-45100500D01*
X101040187Y-45100500D01*
X101107226Y-45120185D01*
X101152981Y-45172989D01*
X101162925Y-45242147D01*
X101143289Y-45293391D01*
X101086052Y-45379051D01*
X101086047Y-45379060D01*
X101025743Y-45524648D01*
X101025741Y-45524656D01*
X100995000Y-45679202D01*
X100995000Y-45836797D01*
X101025741Y-45991343D01*
X101025743Y-45991351D01*
X101079153Y-46120293D01*
X101470000Y-45729446D01*
X101470000Y-45800787D01*
X101492149Y-45883445D01*
X101534936Y-45957554D01*
X101595446Y-46018064D01*
X101669555Y-46060851D01*
X101752213Y-46083000D01*
X101837787Y-46083000D01*
X101920445Y-46060851D01*
X101994554Y-46018064D01*
X102055064Y-45957554D01*
X102097851Y-45883445D01*
X102120000Y-45800787D01*
X102120000Y-45729446D01*
X102247115Y-45856561D01*
X102280600Y-45917884D01*
X102281051Y-45920051D01*
X102295261Y-45991489D01*
X102295264Y-45991501D01*
X102355602Y-46137172D01*
X102355609Y-46137185D01*
X102443210Y-46268288D01*
X102443213Y-46268292D01*
X102480240Y-46305319D01*
X102513725Y-46366642D01*
X102508741Y-46436334D01*
X102480240Y-46480681D01*
X102443213Y-46517707D01*
X102443210Y-46517711D01*
X102355609Y-46648814D01*
X102355602Y-46648827D01*
X102295264Y-46794498D01*
X102295261Y-46794508D01*
X102281051Y-46865948D01*
X102248666Y-46927859D01*
X102247116Y-46929437D01*
X102148553Y-47028000D01*
X102247115Y-47126561D01*
X102280600Y-47187884D01*
X102281051Y-47190051D01*
X102295261Y-47261491D01*
X102295264Y-47261501D01*
X102355603Y-47407174D01*
X102369262Y-47427616D01*
X102376242Y-47449911D01*
X102387388Y-47470440D01*
X102386486Y-47482628D01*
X102390139Y-47494293D01*
X102383958Y-47516821D01*
X102382236Y-47540119D01*
X102374105Y-47552737D01*
X102371654Y-47561673D01*
X102365247Y-47571055D01*
X102360000Y-47578028D01*
X102312794Y-47625235D01*
X102296186Y-47662846D01*
X102287603Y-47674256D01*
X102270567Y-47686944D01*
X102256860Y-47703172D01*
X102243107Y-47707398D01*
X102242653Y-47707736D01*
X102264184Y-47765463D01*
X102264500Y-47774309D01*
X102264500Y-48130691D01*
X102244815Y-48197730D01*
X102228181Y-48218372D01*
X102120000Y-48326553D01*
X102120000Y-48255213D01*
X102097851Y-48172555D01*
X102055064Y-48098446D01*
X101994554Y-48037936D01*
X101920445Y-47995149D01*
X101837787Y-47973000D01*
X101752213Y-47973000D01*
X101669555Y-47995149D01*
X101595446Y-48037936D01*
X101534936Y-48098446D01*
X101492149Y-48172555D01*
X101470000Y-48255213D01*
X101470000Y-48340787D01*
X101492149Y-48423445D01*
X101534936Y-48497554D01*
X101595446Y-48558064D01*
X101669555Y-48600851D01*
X101752213Y-48623000D01*
X101823553Y-48623000D01*
X101432706Y-49013845D01*
X101561652Y-49067257D01*
X101561656Y-49067258D01*
X101716202Y-49097999D01*
X101716206Y-49098000D01*
X101873794Y-49098000D01*
X101873797Y-49097999D01*
X102028343Y-49067258D01*
X102028351Y-49067256D01*
X102173940Y-49006951D01*
X102173942Y-49006950D01*
X102194253Y-48993379D01*
X102260929Y-48972499D01*
X102328310Y-48990982D01*
X102350827Y-49008798D01*
X102392235Y-49050206D01*
X102495009Y-49095585D01*
X102520135Y-49098500D01*
X103609864Y-49098499D01*
X103609879Y-49098497D01*
X103609882Y-49098497D01*
X103615927Y-49097795D01*
X103634991Y-49095585D01*
X103635002Y-49095579D01*
X103643803Y-49093186D01*
X103713659Y-49094577D01*
X103771674Y-49133513D01*
X103799429Y-49197634D01*
X103799342Y-49219398D01*
X103799500Y-49219398D01*
X103799500Y-49227525D01*
X103799500Y-49372475D01*
X103817109Y-49438191D01*
X103837017Y-49512488D01*
X103909488Y-49638011D01*
X103909490Y-49638013D01*
X103909491Y-49638015D01*
X104011985Y-49740509D01*
X104011986Y-49740510D01*
X104011988Y-49740511D01*
X104137511Y-49812982D01*
X104137512Y-49812982D01*
X104137515Y-49812984D01*
X104277525Y-49850500D01*
X104277528Y-49850500D01*
X104422472Y-49850500D01*
X104422475Y-49850500D01*
X104562485Y-49812984D01*
X104688015Y-49740509D01*
X104790509Y-49638015D01*
X104862984Y-49512485D01*
X104900500Y-49372475D01*
X104900500Y-49227525D01*
X104862984Y-49087515D01*
X104851287Y-49067256D01*
X104790511Y-48961988D01*
X104790506Y-48961982D01*
X104688017Y-48859493D01*
X104688011Y-48859488D01*
X104562488Y-48787017D01*
X104562489Y-48787017D01*
X104551006Y-48783940D01*
X104422475Y-48749500D01*
X104277525Y-48749500D01*
X104137515Y-48787016D01*
X104137514Y-48787016D01*
X104137512Y-48787017D01*
X104051498Y-48836677D01*
X103983598Y-48853149D01*
X103917571Y-48830296D01*
X103874381Y-48775374D01*
X103865499Y-48729293D01*
X103865499Y-47753136D01*
X103865497Y-47753117D01*
X103862586Y-47728012D01*
X103862585Y-47728010D01*
X103862585Y-47728009D01*
X103817206Y-47625235D01*
X103817205Y-47625233D01*
X103776158Y-47584186D01*
X103742674Y-47522863D01*
X103747659Y-47453171D01*
X103760735Y-47427620D01*
X103774394Y-47407179D01*
X103834737Y-47261497D01*
X103865500Y-47106842D01*
X103865500Y-46949158D01*
X103865500Y-46949155D01*
X103865499Y-46949153D01*
X103848948Y-46865948D01*
X103834737Y-46794503D01*
X103790501Y-46687706D01*
X103774397Y-46648827D01*
X103774390Y-46648814D01*
X103686789Y-46517711D01*
X103686786Y-46517707D01*
X103649760Y-46480681D01*
X103616275Y-46419358D01*
X103621259Y-46349666D01*
X103649760Y-46305319D01*
X103686786Y-46268292D01*
X103686789Y-46268289D01*
X103774394Y-46137179D01*
X103776629Y-46131783D01*
X103799103Y-46077525D01*
X108749500Y-46077525D01*
X108749500Y-46222475D01*
X108787016Y-46362485D01*
X108787017Y-46362488D01*
X108859488Y-46488011D01*
X108859490Y-46488013D01*
X108859491Y-46488015D01*
X108961985Y-46590509D01*
X108961986Y-46590510D01*
X108961988Y-46590511D01*
X109087511Y-46662982D01*
X109087512Y-46662982D01*
X109087515Y-46662984D01*
X109227525Y-46700500D01*
X109227528Y-46700500D01*
X109372472Y-46700500D01*
X109372475Y-46700500D01*
X109512485Y-46662984D01*
X109638015Y-46590509D01*
X109740509Y-46488015D01*
X109812984Y-46362485D01*
X109850500Y-46222475D01*
X109850500Y-46077525D01*
X109812984Y-45937515D01*
X109791613Y-45900500D01*
X109740511Y-45811988D01*
X109740506Y-45811982D01*
X109638017Y-45709493D01*
X109638011Y-45709488D01*
X109512488Y-45637017D01*
X109512489Y-45637017D01*
X109501006Y-45633940D01*
X109372475Y-45599500D01*
X109227525Y-45599500D01*
X109098993Y-45633940D01*
X109087511Y-45637017D01*
X108961988Y-45709488D01*
X108961982Y-45709493D01*
X108859493Y-45811982D01*
X108859488Y-45811988D01*
X108787017Y-45937511D01*
X108787016Y-45937515D01*
X108749500Y-46077525D01*
X103799103Y-46077525D01*
X103822125Y-46021946D01*
X103834735Y-45991501D01*
X103834737Y-45991497D01*
X103865500Y-45836842D01*
X103865500Y-45679158D01*
X103865500Y-45679155D01*
X103865499Y-45679153D01*
X103857791Y-45640403D01*
X103834737Y-45524503D01*
X103834735Y-45524498D01*
X103774397Y-45378827D01*
X103774390Y-45378814D01*
X103717312Y-45293391D01*
X103696434Y-45226713D01*
X103714919Y-45159333D01*
X103766897Y-45112643D01*
X103820414Y-45100500D01*
X107385334Y-45100500D01*
X107452373Y-45120185D01*
X107498128Y-45172989D01*
X107508072Y-45242147D01*
X107505109Y-45256589D01*
X107499500Y-45277525D01*
X107499500Y-45422475D01*
X107535934Y-45558446D01*
X107537017Y-45562488D01*
X107609488Y-45688011D01*
X107609490Y-45688013D01*
X107609491Y-45688015D01*
X107711985Y-45790509D01*
X107711986Y-45790510D01*
X107711988Y-45790511D01*
X107837511Y-45862982D01*
X107837512Y-45862982D01*
X107837515Y-45862984D01*
X107977525Y-45900500D01*
X107977528Y-45900500D01*
X108122472Y-45900500D01*
X108122475Y-45900500D01*
X108262485Y-45862984D01*
X108388015Y-45790509D01*
X108490509Y-45688015D01*
X108562984Y-45562485D01*
X108600500Y-45422475D01*
X108600500Y-45277525D01*
X108594891Y-45256592D01*
X108596554Y-45186743D01*
X108635717Y-45128881D01*
X108699945Y-45101377D01*
X108714666Y-45100500D01*
X111957197Y-45100500D01*
X112024236Y-45120185D01*
X112069991Y-45172989D01*
X112079935Y-45242147D01*
X112050910Y-45305703D01*
X112004649Y-45339061D01*
X111924663Y-45372191D01*
X111924647Y-45372199D01*
X111674851Y-45516420D01*
X111674835Y-45516431D01*
X111445997Y-45692024D01*
X111445990Y-45692030D01*
X111242030Y-45895990D01*
X111242024Y-45895997D01*
X111066431Y-46124835D01*
X111066420Y-46124851D01*
X110922199Y-46374647D01*
X110922191Y-46374663D01*
X110811814Y-46641139D01*
X110811809Y-46641155D01*
X110789651Y-46723852D01*
X110737152Y-46919780D01*
X110737149Y-46919793D01*
X110699501Y-47205761D01*
X110699500Y-47205778D01*
X110699500Y-47494221D01*
X110699501Y-47494238D01*
X110737149Y-47780206D01*
X110737150Y-47780211D01*
X110737151Y-47780217D01*
X110811809Y-48058844D01*
X110811814Y-48058860D01*
X110922191Y-48325336D01*
X110922199Y-48325352D01*
X111066420Y-48575148D01*
X111066431Y-48575164D01*
X111242024Y-48804002D01*
X111242030Y-48804009D01*
X111445990Y-49007969D01*
X111445997Y-49007975D01*
X111558859Y-49094577D01*
X111674844Y-49183575D01*
X111674851Y-49183579D01*
X111924647Y-49327800D01*
X111924663Y-49327808D01*
X112191139Y-49438185D01*
X112191145Y-49438186D01*
X112191155Y-49438191D01*
X112469783Y-49512849D01*
X112755772Y-49550500D01*
X112755779Y-49550500D01*
X113044221Y-49550500D01*
X113044228Y-49550500D01*
X113330217Y-49512849D01*
X113608845Y-49438191D01*
X113608857Y-49438185D01*
X113608860Y-49438185D01*
X113875336Y-49327808D01*
X113875339Y-49327806D01*
X113875345Y-49327804D01*
X114125156Y-49183575D01*
X114354004Y-49007974D01*
X114557974Y-48804004D01*
X114733575Y-48575156D01*
X114877804Y-48325345D01*
X114877808Y-48325336D01*
X114910939Y-48245351D01*
X114954780Y-48190947D01*
X115021074Y-48168882D01*
X115088773Y-48186161D01*
X115136384Y-48237298D01*
X115149500Y-48292803D01*
X115149500Y-75157196D01*
X115129815Y-75224235D01*
X115077011Y-75269990D01*
X115007853Y-75279934D01*
X114944297Y-75250909D01*
X114910939Y-75204649D01*
X114877805Y-75124658D01*
X114877800Y-75124647D01*
X114733579Y-74874851D01*
X114733575Y-74874844D01*
X114557974Y-74645996D01*
X114557969Y-74645990D01*
X114354009Y-74442030D01*
X114354002Y-74442024D01*
X114125164Y-74266431D01*
X114125162Y-74266429D01*
X114125156Y-74266425D01*
X114125151Y-74266422D01*
X114125148Y-74266420D01*
X113875352Y-74122199D01*
X113875336Y-74122191D01*
X113608860Y-74011814D01*
X113608848Y-74011810D01*
X113608845Y-74011809D01*
X113330217Y-73937151D01*
X113330211Y-73937150D01*
X113330206Y-73937149D01*
X113044238Y-73899501D01*
X113044233Y-73899500D01*
X113044228Y-73899500D01*
X112755772Y-73899500D01*
X112755766Y-73899500D01*
X112755761Y-73899501D01*
X112469793Y-73937149D01*
X112469786Y-73937150D01*
X112469783Y-73937151D01*
X112261090Y-73993070D01*
X112191155Y-74011809D01*
X112191139Y-74011814D01*
X111924663Y-74122191D01*
X111924647Y-74122199D01*
X111674851Y-74266420D01*
X111674835Y-74266431D01*
X111445997Y-74442024D01*
X111445990Y-74442030D01*
X111242030Y-74645990D01*
X111242024Y-74645997D01*
X111066431Y-74874835D01*
X111066420Y-74874851D01*
X110922199Y-75124647D01*
X110922191Y-75124663D01*
X110811814Y-75391139D01*
X110811809Y-75391155D01*
X110793477Y-75459573D01*
X110737152Y-75669780D01*
X110737149Y-75669793D01*
X110699501Y-75955761D01*
X110699500Y-75955778D01*
X110699500Y-76244221D01*
X110699501Y-76244238D01*
X110737149Y-76530206D01*
X110737150Y-76530211D01*
X110737151Y-76530217D01*
X110810807Y-76805105D01*
X110811809Y-76808844D01*
X110811814Y-76808860D01*
X110922191Y-77075336D01*
X110922199Y-77075352D01*
X111066420Y-77325148D01*
X111066431Y-77325164D01*
X111242024Y-77554002D01*
X111242030Y-77554009D01*
X111445990Y-77757969D01*
X111445997Y-77757975D01*
X111565927Y-77850000D01*
X111674844Y-77933575D01*
X111674851Y-77933579D01*
X111924647Y-78077800D01*
X111924663Y-78077808D01*
X112004649Y-78110939D01*
X112059053Y-78154780D01*
X112081118Y-78221074D01*
X112063839Y-78288773D01*
X112012702Y-78336384D01*
X111957197Y-78349500D01*
X93764441Y-78349500D01*
X93697402Y-78329815D01*
X93651647Y-78277011D01*
X93641703Y-78207853D01*
X93670728Y-78144297D01*
X93676760Y-78137819D01*
X93684286Y-78130292D01*
X93684289Y-78130289D01*
X93771894Y-77999179D01*
X93832237Y-77853497D01*
X93863000Y-77698842D01*
X93863000Y-77541158D01*
X93863000Y-77541155D01*
X93862999Y-77541153D01*
X93832238Y-77386510D01*
X93832237Y-77386503D01*
X93806830Y-77325164D01*
X93771897Y-77240827D01*
X93771890Y-77240814D01*
X93684289Y-77109711D01*
X93684286Y-77109707D01*
X93572792Y-76998213D01*
X93572788Y-76998210D01*
X93441685Y-76910609D01*
X93441672Y-76910602D01*
X93296001Y-76850264D01*
X93295989Y-76850261D01*
X93141345Y-76819500D01*
X93141342Y-76819500D01*
X92902043Y-76819500D01*
X92885851Y-76814745D01*
X92868978Y-76815010D01*
X92853021Y-76805105D01*
X92835004Y-76799815D01*
X92823565Y-76786821D01*
X92809615Y-76778162D01*
X92793815Y-76753027D01*
X92790070Y-76748773D01*
X92788702Y-76745898D01*
X92736894Y-76620821D01*
X92674556Y-76527525D01*
X95549500Y-76527525D01*
X95549500Y-76672475D01*
X95586041Y-76808845D01*
X95587017Y-76812488D01*
X95659488Y-76938011D01*
X95659490Y-76938013D01*
X95659491Y-76938015D01*
X95761985Y-77040509D01*
X95761986Y-77040510D01*
X95761988Y-77040511D01*
X95887511Y-77112982D01*
X95887512Y-77112982D01*
X95887515Y-77112984D01*
X96027525Y-77150500D01*
X96027528Y-77150500D01*
X96172472Y-77150500D01*
X96172475Y-77150500D01*
X96312485Y-77112984D01*
X96388001Y-77069384D01*
X96455899Y-77052912D01*
X96511998Y-77069384D01*
X96587515Y-77112984D01*
X96727525Y-77150500D01*
X96727528Y-77150500D01*
X96872472Y-77150500D01*
X96872475Y-77150500D01*
X97012485Y-77112984D01*
X97138015Y-77040509D01*
X97240509Y-76938015D01*
X97312984Y-76812485D01*
X97350500Y-76672475D01*
X97350500Y-76527525D01*
X97312984Y-76387515D01*
X97307613Y-76378213D01*
X97240511Y-76261988D01*
X97240506Y-76261982D01*
X97138017Y-76159493D01*
X97138011Y-76159488D01*
X97012488Y-76087017D01*
X97012489Y-76087017D01*
X97001006Y-76083940D01*
X96872475Y-76049500D01*
X96727525Y-76049500D01*
X96598993Y-76083940D01*
X96587511Y-76087017D01*
X96512000Y-76130614D01*
X96444100Y-76147087D01*
X96388000Y-76130614D01*
X96312488Y-76087017D01*
X96312489Y-76087017D01*
X96301006Y-76083940D01*
X96172475Y-76049500D01*
X96027525Y-76049500D01*
X95898993Y-76083940D01*
X95887511Y-76087017D01*
X95761988Y-76159488D01*
X95761982Y-76159493D01*
X95659493Y-76261982D01*
X95659488Y-76261988D01*
X95587017Y-76387511D01*
X95587016Y-76387515D01*
X95549500Y-76527525D01*
X92674556Y-76527525D01*
X92649289Y-76489711D01*
X92649286Y-76489707D01*
X92537792Y-76378213D01*
X92483108Y-76341674D01*
X92438304Y-76288061D01*
X92428000Y-76238572D01*
X92428000Y-75827525D01*
X105899500Y-75827525D01*
X105899500Y-75972475D01*
X105920139Y-76049500D01*
X105937017Y-76112488D01*
X106009488Y-76238011D01*
X106009490Y-76238013D01*
X106009491Y-76238015D01*
X106111985Y-76340509D01*
X106111986Y-76340510D01*
X106111988Y-76340511D01*
X106237511Y-76412982D01*
X106237512Y-76412982D01*
X106237515Y-76412984D01*
X106377525Y-76450500D01*
X106377528Y-76450500D01*
X106522472Y-76450500D01*
X106522475Y-76450500D01*
X106662485Y-76412984D01*
X106788015Y-76340509D01*
X106890509Y-76238015D01*
X106962984Y-76112485D01*
X107000500Y-75972475D01*
X107000500Y-75827525D01*
X106962984Y-75687515D01*
X106952746Y-75669783D01*
X106890511Y-75561988D01*
X106890506Y-75561982D01*
X106788017Y-75459493D01*
X106788011Y-75459488D01*
X106662488Y-75387017D01*
X106662489Y-75387017D01*
X106638234Y-75380518D01*
X106522475Y-75349500D01*
X106377525Y-75349500D01*
X106261766Y-75380518D01*
X106237511Y-75387017D01*
X106111988Y-75459488D01*
X106111982Y-75459493D01*
X106009493Y-75561982D01*
X106009488Y-75561988D01*
X105937017Y-75687511D01*
X105937016Y-75687515D01*
X105899500Y-75827525D01*
X92428000Y-75827525D01*
X92428000Y-71857506D01*
X93497934Y-71857506D01*
X93497934Y-72015620D01*
X93535821Y-72157014D01*
X93538857Y-72168346D01*
X93538860Y-72168353D01*
X93617909Y-72305272D01*
X93617913Y-72305277D01*
X93617914Y-72305279D01*
X93729718Y-72417083D01*
X93729720Y-72417084D01*
X93729724Y-72417087D01*
X93850848Y-72487017D01*
X93866650Y-72496140D01*
X93907853Y-72507180D01*
X93967512Y-72543542D01*
X93998043Y-72606389D01*
X93989749Y-72675765D01*
X93963443Y-72714634D01*
X93941089Y-72736988D01*
X93868618Y-72862511D01*
X93868617Y-72862515D01*
X93831101Y-73002525D01*
X93831101Y-73147475D01*
X93868617Y-73287485D01*
X93868618Y-73287488D01*
X93912215Y-73363000D01*
X93928688Y-73430900D01*
X93912215Y-73487000D01*
X93868618Y-73562511D01*
X93868617Y-73562515D01*
X93831101Y-73702525D01*
X93831101Y-73702527D01*
X93831101Y-73847474D01*
X93870113Y-73993070D01*
X93868450Y-74062920D01*
X93829287Y-74120782D01*
X93812339Y-74132549D01*
X93781290Y-74150475D01*
X93781282Y-74150481D01*
X93669481Y-74262282D01*
X93669475Y-74262290D01*
X93590426Y-74399209D01*
X93590423Y-74399216D01*
X93549500Y-74551943D01*
X93549500Y-74710056D01*
X93590423Y-74862783D01*
X93590426Y-74862790D01*
X93669475Y-74999709D01*
X93669479Y-74999714D01*
X93669480Y-74999716D01*
X93781284Y-75111520D01*
X93781286Y-75111521D01*
X93781290Y-75111524D01*
X93918209Y-75190573D01*
X93918216Y-75190577D01*
X94070943Y-75231500D01*
X94070945Y-75231500D01*
X94229055Y-75231500D01*
X94229057Y-75231500D01*
X94381784Y-75190577D01*
X94518716Y-75111520D01*
X94630520Y-74999716D01*
X94709577Y-74862784D01*
X94750500Y-74710057D01*
X94750500Y-74551943D01*
X94709577Y-74399216D01*
X94693529Y-74371421D01*
X94677057Y-74303522D01*
X94699909Y-74237495D01*
X94714744Y-74222131D01*
X94713869Y-74221256D01*
X94764626Y-74170499D01*
X94822110Y-74113015D01*
X94894585Y-73987485D01*
X94932101Y-73847475D01*
X94932101Y-73702525D01*
X94894585Y-73562515D01*
X94850985Y-73486998D01*
X94848677Y-73477486D01*
X94842717Y-73469719D01*
X94840575Y-73444092D01*
X94834513Y-73419101D01*
X94837560Y-73407992D01*
X94836900Y-73400092D01*
X94847082Y-73373279D01*
X94848838Y-73366878D01*
X94849867Y-73364937D01*
X94871467Y-73327525D01*
X101549500Y-73327525D01*
X101549500Y-73472475D01*
X101577968Y-73578716D01*
X101587017Y-73612488D01*
X101659488Y-73738011D01*
X101659490Y-73738013D01*
X101659491Y-73738015D01*
X101761985Y-73840509D01*
X101761986Y-73840510D01*
X101761988Y-73840511D01*
X101887511Y-73912982D01*
X101887512Y-73912982D01*
X101887515Y-73912984D01*
X102027525Y-73950500D01*
X102027528Y-73950500D01*
X102172472Y-73950500D01*
X102172475Y-73950500D01*
X102312485Y-73912984D01*
X102438015Y-73840509D01*
X102540509Y-73738015D01*
X102612975Y-73612499D01*
X102663542Y-73564284D01*
X102720362Y-73550500D01*
X102813123Y-73550500D01*
X102813126Y-73550500D01*
X102953136Y-73512984D01*
X102953138Y-73512982D01*
X102953140Y-73512982D01*
X102953141Y-73512981D01*
X103033324Y-73466686D01*
X103101224Y-73450213D01*
X103157323Y-73466685D01*
X103237515Y-73512984D01*
X103377525Y-73550500D01*
X103377528Y-73550500D01*
X103522472Y-73550500D01*
X103522475Y-73550500D01*
X103662485Y-73512984D01*
X103662487Y-73512982D01*
X103662489Y-73512982D01*
X103662490Y-73512981D01*
X103700658Y-73490945D01*
X103733000Y-73472271D01*
X103800900Y-73455798D01*
X103857000Y-73472270D01*
X103927518Y-73512984D01*
X104067528Y-73550500D01*
X104067531Y-73550500D01*
X104075379Y-73552603D01*
X104075023Y-73553931D01*
X104131053Y-73578716D01*
X104165721Y-73631274D01*
X104166841Y-73630811D01*
X104169245Y-73636615D01*
X104169525Y-73637040D01*
X104169761Y-73637861D01*
X104169950Y-73638318D01*
X104242421Y-73763841D01*
X104242423Y-73763843D01*
X104242424Y-73763845D01*
X104344918Y-73866339D01*
X104344919Y-73866340D01*
X104344921Y-73866341D01*
X104470444Y-73938812D01*
X104470445Y-73938812D01*
X104470448Y-73938814D01*
X104610458Y-73976330D01*
X104610461Y-73976330D01*
X104755405Y-73976330D01*
X104755408Y-73976330D01*
X104895418Y-73938814D01*
X105020948Y-73866339D01*
X105123442Y-73763845D01*
X105195917Y-73638315D01*
X105233433Y-73498305D01*
X105233433Y-73353355D01*
X105195917Y-73213345D01*
X105174299Y-73175902D01*
X105123444Y-73087818D01*
X105123439Y-73087812D01*
X105020950Y-72985323D01*
X105020944Y-72985318D01*
X104895421Y-72912847D01*
X104895422Y-72912847D01*
X104881546Y-72909129D01*
X104755408Y-72875330D01*
X104755406Y-72875330D01*
X104747557Y-72873227D01*
X104747912Y-72871902D01*
X104691871Y-72847104D01*
X104657216Y-72794554D01*
X104656095Y-72795019D01*
X104653683Y-72789197D01*
X104653406Y-72788776D01*
X104653172Y-72787962D01*
X104652985Y-72787511D01*
X104580514Y-72661988D01*
X104580509Y-72661982D01*
X104478020Y-72559493D01*
X104478014Y-72559488D01*
X104352491Y-72487017D01*
X104352492Y-72487017D01*
X104341009Y-72483940D01*
X104212478Y-72449500D01*
X104067528Y-72449500D01*
X103938996Y-72483940D01*
X103927514Y-72487017D01*
X103857001Y-72527728D01*
X103789100Y-72544201D01*
X103733001Y-72527728D01*
X103662488Y-72487017D01*
X103662489Y-72487017D01*
X103651006Y-72483940D01*
X103522475Y-72449500D01*
X103377525Y-72449500D01*
X103248993Y-72483940D01*
X103237511Y-72487017D01*
X103157325Y-72533313D01*
X103089425Y-72549786D01*
X103033325Y-72533313D01*
X102953139Y-72487017D01*
X102953140Y-72487017D01*
X102941657Y-72483940D01*
X102813126Y-72449500D01*
X102668176Y-72449500D01*
X102539644Y-72483940D01*
X102528162Y-72487017D01*
X102402639Y-72559488D01*
X102402633Y-72559493D01*
X102300144Y-72661982D01*
X102300142Y-72661985D01*
X102227675Y-72787501D01*
X102177108Y-72835716D01*
X102120288Y-72849500D01*
X102027525Y-72849500D01*
X101898993Y-72883940D01*
X101887511Y-72887017D01*
X101761988Y-72959488D01*
X101761982Y-72959493D01*
X101659493Y-73061982D01*
X101659488Y-73061988D01*
X101587017Y-73187511D01*
X101587016Y-73187515D01*
X101549500Y-73327525D01*
X94871467Y-73327525D01*
X94894585Y-73287485D01*
X94932101Y-73147475D01*
X94932101Y-73002525D01*
X94894585Y-72862515D01*
X94892639Y-72859145D01*
X94822112Y-72736988D01*
X94822107Y-72736982D01*
X94719618Y-72634493D01*
X94719612Y-72634488D01*
X94594090Y-72562017D01*
X94593482Y-72561854D01*
X94587120Y-72560149D01*
X94527463Y-72523785D01*
X94496935Y-72460938D01*
X94505230Y-72391562D01*
X94531535Y-72352697D01*
X94578954Y-72305279D01*
X94658011Y-72168347D01*
X94698934Y-72015620D01*
X94698934Y-71857506D01*
X94658011Y-71704779D01*
X94631849Y-71659465D01*
X94578958Y-71567853D01*
X94578952Y-71567845D01*
X94467151Y-71456044D01*
X94467146Y-71456040D01*
X94416476Y-71426786D01*
X94416475Y-71426786D01*
X94330218Y-71376986D01*
X94177491Y-71336063D01*
X94019377Y-71336063D01*
X93866650Y-71376986D01*
X93866643Y-71376989D01*
X93729724Y-71456038D01*
X93729716Y-71456044D01*
X93617915Y-71567845D01*
X93617909Y-71567853D01*
X93538860Y-71704772D01*
X93538857Y-71704779D01*
X93497934Y-71857506D01*
X92428000Y-71857506D01*
X92428000Y-71327525D01*
X95549500Y-71327525D01*
X95549500Y-71472475D01*
X95575057Y-71567853D01*
X95587017Y-71612488D01*
X95659488Y-71738011D01*
X95659490Y-71738013D01*
X95659491Y-71738015D01*
X95761985Y-71840509D01*
X95761986Y-71840510D01*
X95761988Y-71840511D01*
X95887511Y-71912982D01*
X95887512Y-71912982D01*
X95887515Y-71912984D01*
X96027525Y-71950500D01*
X96027528Y-71950500D01*
X96172472Y-71950500D01*
X96172475Y-71950500D01*
X96312485Y-71912984D01*
X96388001Y-71869384D01*
X96455899Y-71852912D01*
X96511998Y-71869384D01*
X96587515Y-71912984D01*
X96727525Y-71950500D01*
X96727528Y-71950500D01*
X96872472Y-71950500D01*
X96872475Y-71950500D01*
X97012485Y-71912984D01*
X97138015Y-71840509D01*
X97171850Y-71806673D01*
X97233170Y-71773189D01*
X97302862Y-71778173D01*
X97358796Y-71820043D01*
X97366918Y-71832357D01*
X97381161Y-71857028D01*
X97381163Y-71857031D01*
X97381164Y-71857032D01*
X97492968Y-71968836D01*
X97492970Y-71968837D01*
X97492974Y-71968840D01*
X97629893Y-72047889D01*
X97629900Y-72047893D01*
X97782627Y-72088816D01*
X97782629Y-72088816D01*
X97940739Y-72088816D01*
X97940741Y-72088816D01*
X98093468Y-72047893D01*
X98230400Y-71968836D01*
X98342204Y-71857032D01*
X98421261Y-71720100D01*
X98462184Y-71567373D01*
X98462184Y-71409259D01*
X98442293Y-71335025D01*
X99699500Y-71335025D01*
X99699500Y-71479975D01*
X99735007Y-71612488D01*
X99737017Y-71619988D01*
X99809488Y-71745511D01*
X99809490Y-71745513D01*
X99809491Y-71745515D01*
X99911985Y-71848009D01*
X99911986Y-71848010D01*
X99911988Y-71848011D01*
X100037511Y-71920482D01*
X100037512Y-71920482D01*
X100037515Y-71920484D01*
X100177525Y-71958000D01*
X100177528Y-71958000D01*
X100322472Y-71958000D01*
X100322475Y-71958000D01*
X100462485Y-71920484D01*
X100588015Y-71848009D01*
X100689500Y-71746524D01*
X104249500Y-71746524D01*
X104249500Y-71891474D01*
X104282765Y-72015618D01*
X104287017Y-72031487D01*
X104359488Y-72157010D01*
X104359490Y-72157012D01*
X104359491Y-72157014D01*
X104461985Y-72259508D01*
X104461986Y-72259509D01*
X104461988Y-72259510D01*
X104587511Y-72331981D01*
X104587512Y-72331981D01*
X104587515Y-72331983D01*
X104727525Y-72369499D01*
X104727528Y-72369499D01*
X104872472Y-72369499D01*
X104872475Y-72369499D01*
X105012485Y-72331983D01*
X105138015Y-72259508D01*
X105240509Y-72157014D01*
X105312984Y-72031484D01*
X105350500Y-71891474D01*
X105350500Y-71746524D01*
X105312984Y-71606514D01*
X105290658Y-71567845D01*
X105240511Y-71480987D01*
X105240506Y-71480981D01*
X105138017Y-71378492D01*
X105138011Y-71378487D01*
X105012488Y-71306016D01*
X105012489Y-71306016D01*
X105001006Y-71302939D01*
X104872475Y-71268499D01*
X104727525Y-71268499D01*
X104598993Y-71302939D01*
X104587511Y-71306016D01*
X104461988Y-71378487D01*
X104461982Y-71378492D01*
X104359493Y-71480981D01*
X104359488Y-71480987D01*
X104287017Y-71606510D01*
X104287016Y-71606514D01*
X104249500Y-71746524D01*
X100689500Y-71746524D01*
X100690509Y-71745515D01*
X100762984Y-71619985D01*
X100800500Y-71479975D01*
X100800500Y-71335025D01*
X100762984Y-71195015D01*
X100748491Y-71169913D01*
X100690511Y-71069488D01*
X100690506Y-71069482D01*
X100588017Y-70966993D01*
X100588011Y-70966988D01*
X100569653Y-70956389D01*
X108053200Y-70956389D01*
X108053200Y-71083610D01*
X108078015Y-71208365D01*
X108078018Y-71208375D01*
X108126697Y-71325898D01*
X108126702Y-71325907D01*
X108197373Y-71431673D01*
X108197376Y-71431677D01*
X108287322Y-71521623D01*
X108287326Y-71521626D01*
X108393092Y-71592297D01*
X108393098Y-71592300D01*
X108393099Y-71592301D01*
X108510627Y-71640983D01*
X108603545Y-71659465D01*
X108635389Y-71665799D01*
X108635393Y-71665800D01*
X108635394Y-71665800D01*
X108762607Y-71665800D01*
X108762608Y-71665799D01*
X108887373Y-71640983D01*
X109004901Y-71592301D01*
X109110674Y-71521626D01*
X109200626Y-71431674D01*
X109271301Y-71325901D01*
X109319983Y-71208373D01*
X109344800Y-71083606D01*
X109344800Y-70956394D01*
X109344799Y-70956389D01*
X110085200Y-70956389D01*
X110085200Y-71083610D01*
X110110015Y-71208365D01*
X110110018Y-71208375D01*
X110158697Y-71325898D01*
X110158702Y-71325907D01*
X110229373Y-71431673D01*
X110229376Y-71431677D01*
X110319322Y-71521623D01*
X110319326Y-71521626D01*
X110425092Y-71592297D01*
X110425098Y-71592300D01*
X110425099Y-71592301D01*
X110542627Y-71640983D01*
X110635545Y-71659465D01*
X110667389Y-71665799D01*
X110667393Y-71665800D01*
X110667394Y-71665800D01*
X110794607Y-71665800D01*
X110794608Y-71665799D01*
X110919373Y-71640983D01*
X111036901Y-71592301D01*
X111142674Y-71521626D01*
X111180206Y-71484094D01*
X111241528Y-71450608D01*
X111311220Y-71455592D01*
X111355569Y-71484093D01*
X111411985Y-71540509D01*
X111411986Y-71540510D01*
X111411988Y-71540511D01*
X111537511Y-71612982D01*
X111537512Y-71612982D01*
X111537515Y-71612984D01*
X111677525Y-71650500D01*
X111677528Y-71650500D01*
X111822472Y-71650500D01*
X111822475Y-71650500D01*
X111962485Y-71612984D01*
X112088015Y-71540509D01*
X112190509Y-71438015D01*
X112262984Y-71312485D01*
X112270348Y-71284999D01*
X112306713Y-71225341D01*
X112358030Y-71197320D01*
X112362471Y-71196130D01*
X112362475Y-71196130D01*
X112502485Y-71158614D01*
X112628015Y-71086139D01*
X112730509Y-70983645D01*
X112802984Y-70858115D01*
X112840500Y-70718105D01*
X112840500Y-70573155D01*
X112802984Y-70433145D01*
X112802905Y-70433009D01*
X112730511Y-70307618D01*
X112730506Y-70307612D01*
X112628017Y-70205123D01*
X112628011Y-70205118D01*
X112502488Y-70132647D01*
X112502489Y-70132647D01*
X112491006Y-70129570D01*
X112362475Y-70095130D01*
X112217525Y-70095130D01*
X112088993Y-70129570D01*
X112077511Y-70132647D01*
X111951988Y-70205118D01*
X111951982Y-70205123D01*
X111849493Y-70307612D01*
X111849488Y-70307618D01*
X111777017Y-70433141D01*
X111777016Y-70433143D01*
X111769650Y-70460632D01*
X111733283Y-70520291D01*
X111681970Y-70548309D01*
X111537511Y-70587017D01*
X111407805Y-70661904D01*
X111339905Y-70678377D01*
X111273878Y-70655525D01*
X111242701Y-70623405D01*
X111232625Y-70608324D01*
X111142677Y-70518376D01*
X111142673Y-70518373D01*
X111036907Y-70447702D01*
X111036898Y-70447697D01*
X110919375Y-70399018D01*
X110919376Y-70399018D01*
X110919373Y-70399017D01*
X110919369Y-70399016D01*
X110919365Y-70399015D01*
X110794610Y-70374200D01*
X110794606Y-70374200D01*
X110667394Y-70374200D01*
X110667389Y-70374200D01*
X110542634Y-70399015D01*
X110542624Y-70399018D01*
X110425101Y-70447697D01*
X110425092Y-70447702D01*
X110319326Y-70518373D01*
X110319322Y-70518376D01*
X110229376Y-70608322D01*
X110229373Y-70608326D01*
X110158702Y-70714092D01*
X110158697Y-70714101D01*
X110110018Y-70831624D01*
X110110015Y-70831634D01*
X110085200Y-70956389D01*
X109344799Y-70956389D01*
X109319983Y-70831627D01*
X109271301Y-70714099D01*
X109271300Y-70714098D01*
X109271297Y-70714092D01*
X109200626Y-70608326D01*
X109200623Y-70608322D01*
X109110677Y-70518376D01*
X109110673Y-70518373D01*
X109004907Y-70447702D01*
X109004898Y-70447697D01*
X108887375Y-70399018D01*
X108887376Y-70399018D01*
X108887373Y-70399017D01*
X108887369Y-70399016D01*
X108887365Y-70399015D01*
X108762610Y-70374200D01*
X108762606Y-70374200D01*
X108635394Y-70374200D01*
X108635389Y-70374200D01*
X108510634Y-70399015D01*
X108510624Y-70399018D01*
X108393101Y-70447697D01*
X108393092Y-70447702D01*
X108287326Y-70518373D01*
X108287322Y-70518376D01*
X108197376Y-70608322D01*
X108197373Y-70608326D01*
X108126702Y-70714092D01*
X108126697Y-70714101D01*
X108078018Y-70831624D01*
X108078015Y-70831634D01*
X108053200Y-70956389D01*
X100569653Y-70956389D01*
X100462488Y-70894517D01*
X100462489Y-70894517D01*
X100451006Y-70891440D01*
X100322475Y-70857000D01*
X100177525Y-70857000D01*
X100048993Y-70891440D01*
X100037511Y-70894517D01*
X99911988Y-70966988D01*
X99911982Y-70966993D01*
X99809493Y-71069482D01*
X99809488Y-71069488D01*
X99737017Y-71195011D01*
X99737016Y-71195015D01*
X99699500Y-71335025D01*
X98442293Y-71335025D01*
X98421261Y-71256532D01*
X98401201Y-71221786D01*
X98342208Y-71119606D01*
X98342202Y-71119598D01*
X98230401Y-71007797D01*
X98230393Y-71007791D01*
X98093474Y-70928742D01*
X98093470Y-70928740D01*
X98093468Y-70928739D01*
X97940741Y-70887816D01*
X97782627Y-70887816D01*
X97629900Y-70928739D01*
X97629893Y-70928742D01*
X97492974Y-71007791D01*
X97492970Y-71007794D01*
X97426573Y-71074191D01*
X97365249Y-71107675D01*
X97295558Y-71102690D01*
X97247114Y-71066873D01*
X97246256Y-71067732D01*
X97240524Y-71062000D01*
X97240513Y-71061992D01*
X97240509Y-71061985D01*
X97138015Y-70959491D01*
X97138013Y-70959490D01*
X97138011Y-70959488D01*
X97012488Y-70887017D01*
X97012489Y-70887017D01*
X97001006Y-70883940D01*
X96872475Y-70849500D01*
X96727525Y-70849500D01*
X96598993Y-70883940D01*
X96587511Y-70887017D01*
X96512000Y-70930614D01*
X96444100Y-70947087D01*
X96388000Y-70930614D01*
X96312488Y-70887017D01*
X96312489Y-70887017D01*
X96301006Y-70883940D01*
X96172475Y-70849500D01*
X96027525Y-70849500D01*
X95898993Y-70883940D01*
X95887511Y-70887017D01*
X95761988Y-70959488D01*
X95761982Y-70959493D01*
X95659493Y-71061982D01*
X95659488Y-71061988D01*
X95587017Y-71187511D01*
X95587016Y-71187515D01*
X95549500Y-71327525D01*
X92428000Y-71327525D01*
X92428000Y-70331426D01*
X92447685Y-70264387D01*
X92483107Y-70228325D01*
X92537789Y-70191789D01*
X92649289Y-70080289D01*
X92736894Y-69949179D01*
X92748970Y-69920025D01*
X92775056Y-69857048D01*
X92818897Y-69802644D01*
X92885191Y-69780579D01*
X92889617Y-69780500D01*
X93141344Y-69780500D01*
X93141345Y-69780499D01*
X93295997Y-69749737D01*
X93441679Y-69689394D01*
X93572789Y-69601789D01*
X93684289Y-69490289D01*
X93771894Y-69359179D01*
X93775487Y-69350506D01*
X93785567Y-69326166D01*
X93832237Y-69213497D01*
X93863000Y-69058842D01*
X93863000Y-68901158D01*
X93863000Y-68901155D01*
X93862999Y-68901153D01*
X93855330Y-68862601D01*
X93832237Y-68746503D01*
X93822288Y-68722483D01*
X93771897Y-68600827D01*
X93771890Y-68600814D01*
X93684289Y-68469711D01*
X93684286Y-68469707D01*
X93572793Y-68358214D01*
X93572789Y-68358211D01*
X93571117Y-68357093D01*
X93570437Y-68356281D01*
X93568081Y-68354347D01*
X93568447Y-68353900D01*
X93526312Y-68303483D01*
X93517603Y-68234158D01*
X93521486Y-68220497D01*
X93520880Y-68220335D01*
X93522982Y-68212486D01*
X93522984Y-68212485D01*
X93560500Y-68072475D01*
X93560500Y-67927525D01*
X93549784Y-67887531D01*
X94948894Y-67887531D01*
X94948894Y-68032481D01*
X94983226Y-68160609D01*
X94986411Y-68172494D01*
X95027476Y-68243620D01*
X95043949Y-68311520D01*
X95027477Y-68367619D01*
X94987120Y-68437520D01*
X94987120Y-68437521D01*
X94987119Y-68437523D01*
X94949603Y-68577533D01*
X94949603Y-68722483D01*
X94985317Y-68855768D01*
X94987120Y-68862496D01*
X95027742Y-68932855D01*
X95044215Y-69000755D01*
X95027743Y-69056854D01*
X94986943Y-69127522D01*
X94986943Y-69127523D01*
X94986942Y-69127525D01*
X94949426Y-69267535D01*
X94949426Y-69412485D01*
X94986942Y-69552495D01*
X94986943Y-69552498D01*
X95027709Y-69623106D01*
X95044182Y-69691006D01*
X95027710Y-69747105D01*
X94987054Y-69817524D01*
X94987053Y-69817526D01*
X94987053Y-69817527D01*
X94949537Y-69957537D01*
X94949537Y-70102487D01*
X94983255Y-70228321D01*
X94987054Y-70242500D01*
X95059525Y-70368023D01*
X95059527Y-70368025D01*
X95059528Y-70368027D01*
X95162022Y-70470521D01*
X95162023Y-70470522D01*
X95162025Y-70470523D01*
X95287548Y-70542994D01*
X95287549Y-70542994D01*
X95287552Y-70542996D01*
X95427562Y-70580512D01*
X95427565Y-70580512D01*
X95572509Y-70580512D01*
X95572512Y-70580512D01*
X95712522Y-70542996D01*
X95838052Y-70470521D01*
X95940546Y-70368027D01*
X96013021Y-70242497D01*
X96050537Y-70102487D01*
X96050537Y-69957537D01*
X96013021Y-69817527D01*
X96004921Y-69803497D01*
X95972253Y-69746914D01*
X95955780Y-69679014D01*
X95972254Y-69622913D01*
X96012907Y-69552500D01*
X96012908Y-69552499D01*
X96012908Y-69552497D01*
X96012910Y-69552495D01*
X96042284Y-69442871D01*
X99211073Y-69442871D01*
X99211073Y-69587821D01*
X99248589Y-69727831D01*
X99248590Y-69727834D01*
X99321061Y-69853357D01*
X99321063Y-69853359D01*
X99321064Y-69853361D01*
X99423558Y-69955855D01*
X99423559Y-69955856D01*
X99423561Y-69955857D01*
X99549084Y-70028328D01*
X99549085Y-70028328D01*
X99549088Y-70028330D01*
X99642177Y-70053273D01*
X99701835Y-70089637D01*
X99729855Y-70140952D01*
X99747012Y-70204981D01*
X99747015Y-70204988D01*
X99819486Y-70330511D01*
X99819488Y-70330513D01*
X99819489Y-70330515D01*
X99921983Y-70433009D01*
X99921984Y-70433010D01*
X99921986Y-70433011D01*
X100047509Y-70505482D01*
X100047510Y-70505482D01*
X100047513Y-70505484D01*
X100187523Y-70543000D01*
X100187526Y-70543000D01*
X100332470Y-70543000D01*
X100332473Y-70543000D01*
X100472483Y-70505484D01*
X100598013Y-70433009D01*
X100700507Y-70330515D01*
X100731101Y-70277525D01*
X104449500Y-70277525D01*
X104449500Y-70422475D01*
X104481794Y-70542996D01*
X104487017Y-70562488D01*
X104559488Y-70688011D01*
X104559490Y-70688013D01*
X104559491Y-70688015D01*
X104661985Y-70790509D01*
X104661986Y-70790510D01*
X104661988Y-70790511D01*
X104787511Y-70862982D01*
X104787512Y-70862982D01*
X104787515Y-70862984D01*
X104927525Y-70900500D01*
X104927528Y-70900500D01*
X105072472Y-70900500D01*
X105072475Y-70900500D01*
X105212485Y-70862984D01*
X105338015Y-70790509D01*
X105440509Y-70688015D01*
X105512984Y-70562485D01*
X105550500Y-70422475D01*
X105550500Y-70277525D01*
X105512984Y-70137515D01*
X105510173Y-70132647D01*
X105440511Y-70011988D01*
X105440506Y-70011982D01*
X105338017Y-69909493D01*
X105338011Y-69909488D01*
X105282651Y-69877526D01*
X105918824Y-69877526D01*
X105918824Y-70022476D01*
X105948345Y-70132647D01*
X105956341Y-70162489D01*
X106028812Y-70288012D01*
X106028814Y-70288014D01*
X106028815Y-70288016D01*
X106131309Y-70390510D01*
X106131310Y-70390511D01*
X106131312Y-70390512D01*
X106256835Y-70462983D01*
X106256836Y-70462983D01*
X106256839Y-70462985D01*
X106396849Y-70500501D01*
X106396852Y-70500501D01*
X106541796Y-70500501D01*
X106541799Y-70500501D01*
X106681809Y-70462985D01*
X106807339Y-70390510D01*
X106909833Y-70288016D01*
X106982308Y-70162486D01*
X107019824Y-70022476D01*
X107019824Y-69877526D01*
X106982308Y-69737516D01*
X106977429Y-69729066D01*
X106909835Y-69611989D01*
X106909830Y-69611983D01*
X106807341Y-69509494D01*
X106807335Y-69509489D01*
X106681812Y-69437018D01*
X106681813Y-69437018D01*
X106670330Y-69433941D01*
X106541799Y-69399501D01*
X106396849Y-69399501D01*
X106268317Y-69433941D01*
X106256835Y-69437018D01*
X106131312Y-69509489D01*
X106131306Y-69509494D01*
X106028817Y-69611983D01*
X106028812Y-69611989D01*
X105956341Y-69737512D01*
X105956340Y-69737516D01*
X105918824Y-69877526D01*
X105282651Y-69877526D01*
X105212488Y-69837017D01*
X105212489Y-69837017D01*
X105201006Y-69833940D01*
X105072475Y-69799500D01*
X104927525Y-69799500D01*
X104798993Y-69833940D01*
X104787511Y-69837017D01*
X104661988Y-69909488D01*
X104661982Y-69909493D01*
X104559493Y-70011982D01*
X104559488Y-70011988D01*
X104487017Y-70137511D01*
X104487016Y-70137515D01*
X104449500Y-70277525D01*
X100731101Y-70277525D01*
X100766382Y-70216416D01*
X100771589Y-70207398D01*
X100771589Y-70207397D01*
X100771591Y-70207394D01*
X100772982Y-70204985D01*
X100810498Y-70064975D01*
X100810498Y-69920025D01*
X100772982Y-69780015D01*
X100753981Y-69747105D01*
X100700509Y-69654488D01*
X100700504Y-69654482D01*
X100598015Y-69551993D01*
X100598009Y-69551988D01*
X100472486Y-69479517D01*
X100472487Y-69479517D01*
X100401515Y-69460500D01*
X100379394Y-69454572D01*
X100319734Y-69418207D01*
X100291714Y-69366892D01*
X100289647Y-69359179D01*
X100274557Y-69302861D01*
X100274556Y-69302860D01*
X100274556Y-69302858D01*
X100274555Y-69302857D01*
X100202084Y-69177334D01*
X100202079Y-69177328D01*
X100099590Y-69074839D01*
X100099584Y-69074834D01*
X99974061Y-69002363D01*
X99974062Y-69002363D01*
X99949509Y-68995784D01*
X99834048Y-68964846D01*
X99689098Y-68964846D01*
X99573637Y-68995784D01*
X99549084Y-69002363D01*
X99423561Y-69074834D01*
X99423555Y-69074839D01*
X99321066Y-69177328D01*
X99321061Y-69177334D01*
X99248590Y-69302857D01*
X99248589Y-69302861D01*
X99211073Y-69442871D01*
X96042284Y-69442871D01*
X96050426Y-69412485D01*
X96050426Y-69267535D01*
X96012910Y-69127525D01*
X95972285Y-69057161D01*
X95971233Y-69052826D01*
X95968227Y-69049530D01*
X95963070Y-69019178D01*
X95955813Y-68989262D01*
X95957062Y-68983810D01*
X95956525Y-68980647D01*
X95960602Y-68968363D01*
X95965603Y-68946540D01*
X95968538Y-68939652D01*
X96013087Y-68862493D01*
X96019777Y-68837525D01*
X100787014Y-68837525D01*
X100787014Y-68982475D01*
X100824216Y-69121313D01*
X100824531Y-69122488D01*
X100897002Y-69248011D01*
X100897004Y-69248013D01*
X100897005Y-69248015D01*
X100999499Y-69350509D01*
X100999500Y-69350510D01*
X100999502Y-69350511D01*
X101125025Y-69422982D01*
X101125026Y-69422982D01*
X101125029Y-69422984D01*
X101265039Y-69460500D01*
X101265042Y-69460500D01*
X101409986Y-69460500D01*
X101409989Y-69460500D01*
X101549999Y-69422984D01*
X101675529Y-69350509D01*
X101778023Y-69248015D01*
X101850498Y-69122485D01*
X101871573Y-69043831D01*
X101907937Y-68984174D01*
X101959250Y-68956154D01*
X102037904Y-68935079D01*
X102163434Y-68862604D01*
X102265928Y-68760110D01*
X102338403Y-68634580D01*
X102339368Y-68630977D01*
X102599500Y-68630977D01*
X102599500Y-68775927D01*
X102622726Y-68862606D01*
X102637017Y-68915940D01*
X102709488Y-69041463D01*
X102709490Y-69041465D01*
X102709491Y-69041467D01*
X102811985Y-69143961D01*
X102811986Y-69143962D01*
X102811988Y-69143963D01*
X102937511Y-69216434D01*
X102937512Y-69216434D01*
X102937515Y-69216436D01*
X103077525Y-69253952D01*
X103077528Y-69253952D01*
X103222472Y-69253952D01*
X103222475Y-69253952D01*
X103362485Y-69216436D01*
X103438001Y-69172836D01*
X103505899Y-69156364D01*
X103561998Y-69172836D01*
X103637515Y-69216436D01*
X103777525Y-69253952D01*
X103777528Y-69253952D01*
X103922472Y-69253952D01*
X103922475Y-69253952D01*
X104062485Y-69216436D01*
X104062487Y-69216434D01*
X104062489Y-69216434D01*
X104069999Y-69213324D01*
X104071242Y-69216326D01*
X104124323Y-69203414D01*
X104180503Y-69219890D01*
X104187279Y-69223802D01*
X104187282Y-69223805D01*
X104312812Y-69296280D01*
X104452822Y-69333796D01*
X104452825Y-69333796D01*
X104597769Y-69333796D01*
X104597772Y-69333796D01*
X104737782Y-69296280D01*
X104863312Y-69223805D01*
X104965806Y-69121311D01*
X105038281Y-68995781D01*
X105075797Y-68855771D01*
X105075797Y-68710821D01*
X105038281Y-68570811D01*
X105031932Y-68559815D01*
X104965808Y-68445284D01*
X104965803Y-68445278D01*
X104863314Y-68342789D01*
X104863308Y-68342784D01*
X104737785Y-68270313D01*
X104737786Y-68270313D01*
X104710288Y-68262945D01*
X104597772Y-68232796D01*
X104452822Y-68232796D01*
X104368816Y-68255305D01*
X104312810Y-68270312D01*
X104305302Y-68273423D01*
X104304066Y-68270440D01*
X104250835Y-68283327D01*
X104194795Y-68266857D01*
X104062488Y-68190469D01*
X104062489Y-68190469D01*
X104021552Y-68179500D01*
X103922475Y-68152952D01*
X103777525Y-68152952D01*
X103678448Y-68179500D01*
X103637511Y-68190469D01*
X103562000Y-68234066D01*
X103494100Y-68250539D01*
X103438000Y-68234066D01*
X103362488Y-68190469D01*
X103362489Y-68190469D01*
X103321552Y-68179500D01*
X103222475Y-68152952D01*
X103077525Y-68152952D01*
X102978448Y-68179500D01*
X102937511Y-68190469D01*
X102811988Y-68262940D01*
X102811982Y-68262945D01*
X102709493Y-68365434D01*
X102709488Y-68365440D01*
X102637017Y-68490963D01*
X102637016Y-68490967D01*
X102599500Y-68630977D01*
X102339368Y-68630977D01*
X102375919Y-68494570D01*
X102375919Y-68349620D01*
X102338403Y-68209610D01*
X102327351Y-68190468D01*
X102265930Y-68084083D01*
X102265925Y-68084077D01*
X102163436Y-67981588D01*
X102163430Y-67981583D01*
X102037907Y-67909112D01*
X102037908Y-67909112D01*
X102026425Y-67906035D01*
X101897894Y-67871595D01*
X101752944Y-67871595D01*
X101624412Y-67906035D01*
X101612930Y-67909112D01*
X101487407Y-67981583D01*
X101487401Y-67981588D01*
X101384912Y-68084077D01*
X101384907Y-68084083D01*
X101312436Y-68209606D01*
X101312434Y-68209611D01*
X101291359Y-68288261D01*
X101254994Y-68347921D01*
X101203680Y-68375940D01*
X101125030Y-68397015D01*
X101125025Y-68397017D01*
X100999502Y-68469488D01*
X100999496Y-68469493D01*
X100897007Y-68571982D01*
X100897002Y-68571988D01*
X100824531Y-68697511D01*
X100824530Y-68697515D01*
X100787014Y-68837525D01*
X96019777Y-68837525D01*
X96050603Y-68722483D01*
X96050603Y-68577533D01*
X96013087Y-68437523D01*
X95972019Y-68366392D01*
X95955547Y-68298494D01*
X95972019Y-68242393D01*
X96012378Y-68172491D01*
X96049894Y-68032481D01*
X96049894Y-67887531D01*
X96012378Y-67747521D01*
X95975159Y-67683056D01*
X95958687Y-67615159D01*
X95975159Y-67559059D01*
X96019348Y-67482524D01*
X96056864Y-67342514D01*
X96056864Y-67197564D01*
X96019348Y-67057554D01*
X96015275Y-67050500D01*
X95946875Y-66932027D01*
X95946870Y-66932021D01*
X95844381Y-66829532D01*
X95844379Y-66829530D01*
X95730714Y-66763905D01*
X95730713Y-66763904D01*
X95718854Y-66757057D01*
X95718853Y-66757056D01*
X95698140Y-66751506D01*
X95578839Y-66719539D01*
X95433889Y-66719539D01*
X95314588Y-66751506D01*
X95293875Y-66757056D01*
X95168352Y-66829527D01*
X95168346Y-66829532D01*
X95065857Y-66932021D01*
X95065852Y-66932027D01*
X94993381Y-67057550D01*
X94993380Y-67057554D01*
X94955864Y-67197564D01*
X94955864Y-67342514D01*
X94993380Y-67482524D01*
X95008951Y-67509493D01*
X95030597Y-67546985D01*
X95047070Y-67614886D01*
X95030597Y-67670986D01*
X94986411Y-67747517D01*
X94986410Y-67747521D01*
X94948894Y-67887531D01*
X93549784Y-67887531D01*
X93522984Y-67787515D01*
X93499893Y-67747521D01*
X93450511Y-67661988D01*
X93450506Y-67661982D01*
X93348017Y-67559493D01*
X93348011Y-67559488D01*
X93222488Y-67487017D01*
X93222489Y-67487017D01*
X93205728Y-67482526D01*
X93083492Y-67449772D01*
X93023835Y-67413409D01*
X92995815Y-67362094D01*
X92986505Y-67327348D01*
X92986310Y-67327011D01*
X92914032Y-67201821D01*
X92914027Y-67201815D01*
X92811538Y-67099326D01*
X92811532Y-67099321D01*
X92686009Y-67026850D01*
X92686010Y-67026850D01*
X92674527Y-67023773D01*
X92545996Y-66989333D01*
X92401046Y-66989333D01*
X92272514Y-67023773D01*
X92261032Y-67026850D01*
X92135509Y-67099321D01*
X92135503Y-67099326D01*
X92033014Y-67201815D01*
X92033009Y-67201821D01*
X91960538Y-67327344D01*
X91960537Y-67327348D01*
X91923021Y-67467358D01*
X91923021Y-67612308D01*
X91956571Y-67737515D01*
X91960538Y-67752321D01*
X92037053Y-67884848D01*
X92053526Y-67952748D01*
X92030674Y-68018775D01*
X91975752Y-68061966D01*
X91953858Y-68068465D01*
X91794008Y-68100261D01*
X91793998Y-68100264D01*
X91648327Y-68160602D01*
X91648314Y-68160609D01*
X91517211Y-68248210D01*
X91517207Y-68248213D01*
X91405713Y-68359707D01*
X91405710Y-68359711D01*
X91318109Y-68490814D01*
X91318104Y-68490824D01*
X91313082Y-68502950D01*
X91269242Y-68557355D01*
X91202948Y-68579421D01*
X91198520Y-68579500D01*
X89378927Y-68579500D01*
X89311888Y-68559815D01*
X89275825Y-68524390D01*
X89239292Y-68469715D01*
X89239286Y-68469707D01*
X89127792Y-68358213D01*
X89127788Y-68358210D01*
X88996685Y-68270609D01*
X88996672Y-68270602D01*
X88851001Y-68210264D01*
X88850989Y-68210261D01*
X88696345Y-68179500D01*
X88696342Y-68179500D01*
X87238658Y-68179500D01*
X87238655Y-68179500D01*
X87084010Y-68210261D01*
X87083998Y-68210264D01*
X86938327Y-68270602D01*
X86938309Y-68270612D01*
X86843390Y-68334035D01*
X86776713Y-68354913D01*
X86709333Y-68336428D01*
X86662643Y-68284449D01*
X86650500Y-68230933D01*
X86650500Y-66370943D01*
X87799500Y-66370943D01*
X87799500Y-66529057D01*
X87832041Y-66650500D01*
X87840423Y-66681783D01*
X87840426Y-66681790D01*
X87919475Y-66818709D01*
X87919479Y-66818714D01*
X87919480Y-66818716D01*
X88031284Y-66930520D01*
X88031286Y-66930521D01*
X88031290Y-66930524D01*
X88133152Y-66989333D01*
X88168216Y-67009577D01*
X88320943Y-67050500D01*
X88320945Y-67050500D01*
X88479055Y-67050500D01*
X88479057Y-67050500D01*
X88631784Y-67009577D01*
X88768716Y-66930520D01*
X88880520Y-66818716D01*
X88959577Y-66681784D01*
X88964169Y-66664645D01*
X96437154Y-66664645D01*
X96437154Y-66809595D01*
X96471565Y-66938017D01*
X96474671Y-66949608D01*
X96547142Y-67075131D01*
X96547144Y-67075133D01*
X96547145Y-67075135D01*
X96649639Y-67177629D01*
X96649640Y-67177630D01*
X96649642Y-67177631D01*
X96775165Y-67250102D01*
X96775166Y-67250102D01*
X96775169Y-67250104D01*
X96915179Y-67287620D01*
X96915182Y-67287620D01*
X97036841Y-67287620D01*
X97103880Y-67307305D01*
X97149635Y-67360109D01*
X97159579Y-67429267D01*
X97130554Y-67492823D01*
X97114974Y-67507501D01*
X97010493Y-67611982D01*
X97010488Y-67611988D01*
X96938017Y-67737511D01*
X96934049Y-67752321D01*
X96900500Y-67877525D01*
X96900500Y-68022475D01*
X96938016Y-68162485D01*
X96938017Y-68162488D01*
X97010488Y-68288011D01*
X97010490Y-68288013D01*
X97010491Y-68288015D01*
X97112985Y-68390509D01*
X97112986Y-68390510D01*
X97112988Y-68390511D01*
X97238511Y-68462982D01*
X97238512Y-68462982D01*
X97238515Y-68462984D01*
X97378525Y-68500500D01*
X97378528Y-68500500D01*
X97523472Y-68500500D01*
X97523475Y-68500500D01*
X97663485Y-68462984D01*
X97789015Y-68390509D01*
X97891509Y-68288015D01*
X97963984Y-68162485D01*
X98001500Y-68022475D01*
X98001500Y-67877525D01*
X97963984Y-67737515D01*
X97925573Y-67670986D01*
X97891511Y-67611988D01*
X97891506Y-67611982D01*
X97789017Y-67509493D01*
X97789011Y-67509488D01*
X97663488Y-67437017D01*
X97663489Y-67437017D01*
X97652006Y-67433940D01*
X97523475Y-67399500D01*
X97401813Y-67399500D01*
X97334774Y-67379815D01*
X97289019Y-67327011D01*
X97279075Y-67257853D01*
X97308100Y-67194297D01*
X97323679Y-67179618D01*
X97325666Y-67177630D01*
X97325669Y-67177629D01*
X97428163Y-67075135D01*
X97500638Y-66949605D01*
X97538154Y-66809595D01*
X97538154Y-66664645D01*
X97500638Y-66524635D01*
X97490583Y-66507220D01*
X97428165Y-66399108D01*
X97428160Y-66399102D01*
X97325671Y-66296613D01*
X97325665Y-66296608D01*
X97200142Y-66224137D01*
X97200143Y-66224137D01*
X97188660Y-66221060D01*
X97060129Y-66186620D01*
X96915179Y-66186620D01*
X96786647Y-66221060D01*
X96775165Y-66224137D01*
X96649642Y-66296608D01*
X96649636Y-66296613D01*
X96547147Y-66399102D01*
X96547142Y-66399108D01*
X96474671Y-66524631D01*
X96474670Y-66524635D01*
X96437154Y-66664645D01*
X88964169Y-66664645D01*
X89000500Y-66529057D01*
X89000500Y-66370943D01*
X88959577Y-66218216D01*
X88894384Y-66105298D01*
X88877912Y-66037400D01*
X88894383Y-65981304D01*
X88962984Y-65862485D01*
X89000500Y-65722475D01*
X89000500Y-65577525D01*
X88962984Y-65437515D01*
X88962696Y-65437017D01*
X88890511Y-65311988D01*
X88890506Y-65311982D01*
X88795458Y-65216934D01*
X91199627Y-65216934D01*
X91199627Y-65361884D01*
X91222385Y-65446817D01*
X91237144Y-65501897D01*
X91309615Y-65627420D01*
X91309617Y-65627422D01*
X91309618Y-65627424D01*
X91412112Y-65729918D01*
X91412113Y-65729919D01*
X91412115Y-65729920D01*
X91537638Y-65802391D01*
X91537639Y-65802391D01*
X91537642Y-65802393D01*
X91677652Y-65839909D01*
X91677655Y-65839909D01*
X91822599Y-65839909D01*
X91822602Y-65839909D01*
X91962612Y-65802393D01*
X92088142Y-65729918D01*
X92190636Y-65627424D01*
X92263111Y-65501894D01*
X92300627Y-65361884D01*
X92300627Y-65216934D01*
X92263111Y-65076924D01*
X92190636Y-64951394D01*
X92156765Y-64917523D01*
X97553175Y-64917523D01*
X97553175Y-65062473D01*
X97590691Y-65202483D01*
X97590692Y-65202486D01*
X97663163Y-65328009D01*
X97663165Y-65328011D01*
X97663166Y-65328013D01*
X97765660Y-65430507D01*
X97765661Y-65430508D01*
X97765663Y-65430509D01*
X97891186Y-65502980D01*
X97891187Y-65502980D01*
X97891190Y-65502982D01*
X98031200Y-65540498D01*
X98031203Y-65540498D01*
X98176147Y-65540498D01*
X98176150Y-65540498D01*
X98316160Y-65502982D01*
X98441690Y-65430507D01*
X98544184Y-65328013D01*
X98616659Y-65202483D01*
X98654175Y-65062473D01*
X98654175Y-64942655D01*
X98673860Y-64875616D01*
X98726664Y-64829861D01*
X98795822Y-64819917D01*
X98859378Y-64848942D01*
X98885562Y-64880655D01*
X98920582Y-64941311D01*
X99023076Y-65043805D01*
X99023077Y-65043806D01*
X99023079Y-65043807D01*
X99148602Y-65116278D01*
X99148603Y-65116278D01*
X99148606Y-65116280D01*
X99269917Y-65148785D01*
X99329575Y-65185149D01*
X99360104Y-65247996D01*
X99351809Y-65317372D01*
X99307324Y-65371249D01*
X99299822Y-65375946D01*
X99177075Y-65446815D01*
X99177072Y-65446817D01*
X99074583Y-65549306D01*
X99074578Y-65549312D01*
X99002107Y-65674835D01*
X99002106Y-65674839D01*
X98964590Y-65814849D01*
X98964590Y-65959799D01*
X99001758Y-66098511D01*
X99002107Y-66099812D01*
X99074578Y-66225335D01*
X99074580Y-66225337D01*
X99074581Y-66225339D01*
X99177075Y-66327833D01*
X99177076Y-66327834D01*
X99177078Y-66327835D01*
X99302601Y-66400306D01*
X99302602Y-66400306D01*
X99302605Y-66400308D01*
X99442615Y-66437824D01*
X99442618Y-66437824D01*
X99587562Y-66437824D01*
X99587565Y-66437824D01*
X99727575Y-66400308D01*
X99853105Y-66327833D01*
X99942413Y-66238525D01*
X102988032Y-66238525D01*
X102988032Y-66383475D01*
X103025548Y-66523485D01*
X103025549Y-66523488D01*
X103098020Y-66649011D01*
X103098022Y-66649013D01*
X103098023Y-66649015D01*
X103200517Y-66751509D01*
X103200518Y-66751510D01*
X103200520Y-66751511D01*
X103326043Y-66823982D01*
X103326044Y-66823982D01*
X103326047Y-66823984D01*
X103466057Y-66861500D01*
X103466060Y-66861500D01*
X103611004Y-66861500D01*
X103611007Y-66861500D01*
X103751017Y-66823984D01*
X103876547Y-66751509D01*
X103979041Y-66649015D01*
X104051516Y-66523485D01*
X104089032Y-66383475D01*
X104089032Y-66238525D01*
X104051516Y-66098515D01*
X104010530Y-66027525D01*
X107299500Y-66027525D01*
X107299500Y-66172475D01*
X107330460Y-66288017D01*
X107337017Y-66312488D01*
X107409488Y-66438011D01*
X107409490Y-66438013D01*
X107409491Y-66438015D01*
X107511985Y-66540509D01*
X107511986Y-66540510D01*
X107511988Y-66540511D01*
X107637511Y-66612982D01*
X107637512Y-66612982D01*
X107637515Y-66612984D01*
X107777525Y-66650500D01*
X107777528Y-66650500D01*
X107922472Y-66650500D01*
X107922475Y-66650500D01*
X108062485Y-66612984D01*
X108188015Y-66540509D01*
X108188019Y-66540504D01*
X108194461Y-66535562D01*
X108195280Y-66536630D01*
X108249142Y-66507220D01*
X108318834Y-66512204D01*
X108374767Y-66554076D01*
X108399184Y-66619540D01*
X108399500Y-66628386D01*
X108399500Y-66672475D01*
X108422164Y-66757056D01*
X108437017Y-66812488D01*
X108509488Y-66938011D01*
X108509490Y-66938013D01*
X108509491Y-66938015D01*
X108611985Y-67040509D01*
X108611986Y-67040510D01*
X108611988Y-67040511D01*
X108737511Y-67112982D01*
X108737512Y-67112982D01*
X108737515Y-67112984D01*
X108877525Y-67150500D01*
X108877528Y-67150500D01*
X109022472Y-67150500D01*
X109022475Y-67150500D01*
X109162485Y-67112984D01*
X109288015Y-67040509D01*
X109390509Y-66938015D01*
X109462984Y-66812485D01*
X109500126Y-66673868D01*
X109536490Y-66614210D01*
X109599337Y-66583681D01*
X109644093Y-66584347D01*
X109651394Y-66585800D01*
X109651396Y-66585800D01*
X109778607Y-66585800D01*
X109778608Y-66585799D01*
X109903373Y-66560983D01*
X110020901Y-66512301D01*
X110126674Y-66441626D01*
X110216626Y-66351674D01*
X110287301Y-66245901D01*
X110335983Y-66128373D01*
X110360800Y-66003606D01*
X110360800Y-65877525D01*
X113699500Y-65877525D01*
X113699500Y-66022475D01*
X113736213Y-66159488D01*
X113737017Y-66162488D01*
X113809488Y-66288011D01*
X113809490Y-66288013D01*
X113809491Y-66288015D01*
X113911985Y-66390509D01*
X113911986Y-66390510D01*
X113911988Y-66390511D01*
X114037511Y-66462982D01*
X114037512Y-66462982D01*
X114037515Y-66462984D01*
X114177525Y-66500500D01*
X114177528Y-66500500D01*
X114322472Y-66500500D01*
X114322475Y-66500500D01*
X114462485Y-66462984D01*
X114588015Y-66390509D01*
X114690509Y-66288015D01*
X114762984Y-66162485D01*
X114800500Y-66022475D01*
X114800500Y-65877525D01*
X114762984Y-65737515D01*
X114741613Y-65700500D01*
X114690511Y-65611988D01*
X114690506Y-65611982D01*
X114588017Y-65509493D01*
X114588011Y-65509488D01*
X114462488Y-65437017D01*
X114462489Y-65437017D01*
X114438182Y-65430504D01*
X114322475Y-65399500D01*
X114177525Y-65399500D01*
X114061818Y-65430504D01*
X114037511Y-65437017D01*
X113911988Y-65509488D01*
X113911982Y-65509493D01*
X113809493Y-65611982D01*
X113809488Y-65611988D01*
X113737017Y-65737511D01*
X113737016Y-65737515D01*
X113699500Y-65877525D01*
X110360800Y-65877525D01*
X110360800Y-65876394D01*
X110335983Y-65751627D01*
X110287301Y-65634099D01*
X110287300Y-65634098D01*
X110287297Y-65634092D01*
X110216626Y-65528326D01*
X110216623Y-65528322D01*
X110126677Y-65438376D01*
X110126673Y-65438373D01*
X110020907Y-65367702D01*
X110020898Y-65367697D01*
X109903375Y-65319018D01*
X109903376Y-65319018D01*
X109903373Y-65319017D01*
X109903369Y-65319016D01*
X109903365Y-65319015D01*
X109778610Y-65294200D01*
X109778606Y-65294200D01*
X109651394Y-65294200D01*
X109651389Y-65294200D01*
X109526634Y-65319015D01*
X109526624Y-65319018D01*
X109409101Y-65367697D01*
X109409092Y-65367702D01*
X109303326Y-65438373D01*
X109303322Y-65438376D01*
X109213376Y-65528322D01*
X109213373Y-65528326D01*
X109142702Y-65634092D01*
X109142697Y-65634101D01*
X109094018Y-65751624D01*
X109094015Y-65751634D01*
X109069200Y-65876389D01*
X109069200Y-65925500D01*
X109049515Y-65992539D01*
X108996711Y-66038294D01*
X108945200Y-66049500D01*
X108877525Y-66049500D01*
X108758478Y-66081399D01*
X108737511Y-66087017D01*
X108611988Y-66159488D01*
X108605539Y-66164438D01*
X108604719Y-66163369D01*
X108550858Y-66192780D01*
X108481166Y-66187796D01*
X108425233Y-66145924D01*
X108400816Y-66080460D01*
X108400500Y-66071614D01*
X108400500Y-66027527D01*
X108400500Y-66027525D01*
X108362984Y-65887515D01*
X108357217Y-65877527D01*
X108290511Y-65761988D01*
X108290506Y-65761982D01*
X108188017Y-65659493D01*
X108188011Y-65659488D01*
X108062488Y-65587017D01*
X108062489Y-65587017D01*
X108051006Y-65583940D01*
X107922475Y-65549500D01*
X107777525Y-65549500D01*
X107648993Y-65583940D01*
X107637511Y-65587017D01*
X107511988Y-65659488D01*
X107511982Y-65659493D01*
X107409493Y-65761982D01*
X107409488Y-65761988D01*
X107337017Y-65887511D01*
X107337016Y-65887515D01*
X107299500Y-66027525D01*
X104010530Y-66027525D01*
X103979041Y-65972985D01*
X103876547Y-65870491D01*
X103876545Y-65870490D01*
X103876543Y-65870488D01*
X103751020Y-65798017D01*
X103751021Y-65798017D01*
X103739538Y-65794940D01*
X103611007Y-65760500D01*
X103466057Y-65760500D01*
X103337525Y-65794940D01*
X103326043Y-65798017D01*
X103200520Y-65870488D01*
X103200514Y-65870493D01*
X103098025Y-65972982D01*
X103098020Y-65972988D01*
X103025549Y-66098511D01*
X103025548Y-66098515D01*
X102988032Y-66238525D01*
X99942413Y-66238525D01*
X99955599Y-66225339D01*
X100028074Y-66099809D01*
X100065590Y-65959799D01*
X100065590Y-65814849D01*
X100028074Y-65674839D01*
X100021229Y-65662984D01*
X99955601Y-65549312D01*
X99955596Y-65549306D01*
X99853107Y-65446817D01*
X99853101Y-65446812D01*
X99727578Y-65374341D01*
X99727579Y-65374341D01*
X99681078Y-65361881D01*
X99606264Y-65341834D01*
X99546605Y-65305469D01*
X99516076Y-65242622D01*
X99524371Y-65173247D01*
X99568857Y-65119369D01*
X99576359Y-65114673D01*
X99699106Y-65043805D01*
X99801600Y-64941311D01*
X99874075Y-64815781D01*
X99911591Y-64675771D01*
X99911591Y-64530821D01*
X99880119Y-64413367D01*
X99881782Y-64343521D01*
X99920944Y-64285659D01*
X99985172Y-64258154D01*
X100031988Y-64261502D01*
X100037511Y-64262982D01*
X100037515Y-64262984D01*
X100177525Y-64300500D01*
X100177528Y-64300500D01*
X100310304Y-64300500D01*
X100377343Y-64320185D01*
X100423098Y-64372989D01*
X100433042Y-64442147D01*
X100430079Y-64456593D01*
X100410618Y-64529222D01*
X100410618Y-64674172D01*
X100447546Y-64811988D01*
X100448135Y-64814185D01*
X100520606Y-64939708D01*
X100520608Y-64939710D01*
X100520609Y-64939712D01*
X100623103Y-65042206D01*
X100623104Y-65042207D01*
X100623106Y-65042208D01*
X100748629Y-65114679D01*
X100748630Y-65114679D01*
X100748633Y-65114681D01*
X100888643Y-65152197D01*
X100888646Y-65152197D01*
X101033590Y-65152197D01*
X101033593Y-65152197D01*
X101173603Y-65114681D01*
X101299133Y-65042206D01*
X101401627Y-64939712D01*
X101474102Y-64814182D01*
X101511618Y-64674172D01*
X101511618Y-64529222D01*
X101511163Y-64527525D01*
X102010740Y-64527525D01*
X102010740Y-64672475D01*
X102047777Y-64810698D01*
X102048257Y-64812488D01*
X102120728Y-64938011D01*
X102120730Y-64938013D01*
X102120731Y-64938015D01*
X102223225Y-65040509D01*
X102223226Y-65040510D01*
X102223228Y-65040511D01*
X102348751Y-65112982D01*
X102348752Y-65112982D01*
X102348755Y-65112984D01*
X102488765Y-65150500D01*
X102488768Y-65150500D01*
X102633712Y-65150500D01*
X102633715Y-65150500D01*
X102773725Y-65112984D01*
X102899255Y-65040509D01*
X103001749Y-64938015D01*
X103074224Y-64812485D01*
X103111740Y-64672475D01*
X103111740Y-64527525D01*
X103111260Y-64525735D01*
X103610965Y-64525735D01*
X103610965Y-64670685D01*
X103647453Y-64806859D01*
X103648482Y-64810698D01*
X103720953Y-64936221D01*
X103720955Y-64936223D01*
X103720956Y-64936225D01*
X103823450Y-65038719D01*
X103823451Y-65038720D01*
X103823453Y-65038721D01*
X103948976Y-65111192D01*
X103948977Y-65111192D01*
X103948980Y-65111194D01*
X104088990Y-65148710D01*
X104088993Y-65148710D01*
X104233937Y-65148710D01*
X104233940Y-65148710D01*
X104373950Y-65111194D01*
X104499480Y-65038719D01*
X104601974Y-64936225D01*
X104674449Y-64810695D01*
X104711965Y-64670685D01*
X104711965Y-64525735D01*
X104711462Y-64523858D01*
X105211294Y-64523858D01*
X105211294Y-64668808D01*
X105240421Y-64777509D01*
X105248811Y-64808821D01*
X105321282Y-64934344D01*
X105321284Y-64934346D01*
X105321285Y-64934348D01*
X105423779Y-65036842D01*
X105423780Y-65036843D01*
X105423782Y-65036844D01*
X105549305Y-65109315D01*
X105549306Y-65109315D01*
X105549309Y-65109317D01*
X105689319Y-65146833D01*
X105689322Y-65146833D01*
X105834266Y-65146833D01*
X105834269Y-65146833D01*
X105974279Y-65109317D01*
X106099809Y-65036842D01*
X106202303Y-64934348D01*
X106274778Y-64808818D01*
X106312294Y-64668808D01*
X106312294Y-64523858D01*
X106311768Y-64521896D01*
X106811729Y-64521896D01*
X106811729Y-64666846D01*
X106848131Y-64802698D01*
X106849246Y-64806859D01*
X106921717Y-64932382D01*
X106921719Y-64932384D01*
X106921720Y-64932386D01*
X107024214Y-65034880D01*
X107024215Y-65034881D01*
X107024217Y-65034882D01*
X107149740Y-65107353D01*
X107149741Y-65107353D01*
X107149744Y-65107355D01*
X107289754Y-65144871D01*
X107289757Y-65144871D01*
X107434701Y-65144871D01*
X107434704Y-65144871D01*
X107574714Y-65107355D01*
X107700244Y-65034880D01*
X107802738Y-64932386D01*
X107875213Y-64806856D01*
X107912729Y-64666846D01*
X107912729Y-64521896D01*
X107912182Y-64519854D01*
X108412272Y-64519854D01*
X108412272Y-64664804D01*
X108442472Y-64777509D01*
X108449789Y-64804817D01*
X108522260Y-64930340D01*
X108522262Y-64930342D01*
X108522263Y-64930344D01*
X108624757Y-65032838D01*
X108624758Y-65032839D01*
X108624760Y-65032840D01*
X108750283Y-65105311D01*
X108750284Y-65105311D01*
X108750287Y-65105313D01*
X108890297Y-65142829D01*
X108890300Y-65142829D01*
X109035244Y-65142829D01*
X109035247Y-65142829D01*
X109175257Y-65105313D01*
X109300787Y-65032838D01*
X109403281Y-64930344D01*
X109475756Y-64804814D01*
X109513272Y-64664804D01*
X109513272Y-64519854D01*
X109512705Y-64517738D01*
X110012926Y-64517738D01*
X110012926Y-64662688D01*
X110043693Y-64777509D01*
X110050443Y-64802701D01*
X110122914Y-64928224D01*
X110122916Y-64928226D01*
X110122917Y-64928228D01*
X110225411Y-65030722D01*
X110225412Y-65030723D01*
X110225414Y-65030724D01*
X110350937Y-65103195D01*
X110350938Y-65103195D01*
X110350941Y-65103197D01*
X110490951Y-65140713D01*
X110490954Y-65140713D01*
X110635898Y-65140713D01*
X110635901Y-65140713D01*
X110775911Y-65103197D01*
X110820376Y-65077525D01*
X111649500Y-65077525D01*
X111649500Y-65222475D01*
X111674928Y-65317372D01*
X111687017Y-65362488D01*
X111759488Y-65488011D01*
X111759490Y-65488013D01*
X111759491Y-65488015D01*
X111861985Y-65590509D01*
X111861986Y-65590510D01*
X111861988Y-65590511D01*
X111987511Y-65662982D01*
X111987512Y-65662982D01*
X111987515Y-65662984D01*
X112127525Y-65700500D01*
X112127528Y-65700500D01*
X112272472Y-65700500D01*
X112272475Y-65700500D01*
X112412485Y-65662984D01*
X112538015Y-65590509D01*
X112640509Y-65488015D01*
X112712984Y-65362485D01*
X112750500Y-65222475D01*
X112750500Y-65077525D01*
X112712984Y-64937515D01*
X112712240Y-64936227D01*
X112640511Y-64811988D01*
X112640506Y-64811982D01*
X112538017Y-64709493D01*
X112538011Y-64709488D01*
X112412488Y-64637017D01*
X112412489Y-64637017D01*
X112401006Y-64633940D01*
X112272475Y-64599500D01*
X112127525Y-64599500D01*
X111998993Y-64633940D01*
X111987511Y-64637017D01*
X111861988Y-64709488D01*
X111861982Y-64709493D01*
X111759493Y-64811982D01*
X111759488Y-64811988D01*
X111687017Y-64937511D01*
X111687016Y-64937515D01*
X111649500Y-65077525D01*
X110820376Y-65077525D01*
X110901441Y-65030722D01*
X111003935Y-64928228D01*
X111076410Y-64802698D01*
X111113926Y-64662688D01*
X111113926Y-64517738D01*
X111076410Y-64377728D01*
X111043187Y-64320185D01*
X111003937Y-64252201D01*
X111003932Y-64252195D01*
X110901443Y-64149706D01*
X110901437Y-64149701D01*
X110775914Y-64077230D01*
X110775915Y-64077230D01*
X110764432Y-64074153D01*
X110635901Y-64039713D01*
X110490951Y-64039713D01*
X110362419Y-64074153D01*
X110350937Y-64077230D01*
X110225414Y-64149701D01*
X110225408Y-64149706D01*
X110122919Y-64252195D01*
X110122914Y-64252201D01*
X110050443Y-64377724D01*
X110050442Y-64377728D01*
X110012926Y-64517738D01*
X109512705Y-64517738D01*
X109475756Y-64379844D01*
X109474534Y-64377728D01*
X109403283Y-64254317D01*
X109403278Y-64254311D01*
X109300789Y-64151822D01*
X109300783Y-64151817D01*
X109175260Y-64079346D01*
X109175261Y-64079346D01*
X109163778Y-64076269D01*
X109035247Y-64041829D01*
X108890297Y-64041829D01*
X108761765Y-64076269D01*
X108750283Y-64079346D01*
X108624760Y-64151817D01*
X108624754Y-64151822D01*
X108522265Y-64254311D01*
X108522260Y-64254317D01*
X108449789Y-64379840D01*
X108447279Y-64389208D01*
X108412272Y-64519854D01*
X107912182Y-64519854D01*
X107875213Y-64381886D01*
X107872812Y-64377728D01*
X107802740Y-64256359D01*
X107802735Y-64256353D01*
X107700246Y-64153864D01*
X107700240Y-64153859D01*
X107574717Y-64081388D01*
X107574718Y-64081388D01*
X107559196Y-64077229D01*
X107434704Y-64043871D01*
X107289754Y-64043871D01*
X107165262Y-64077229D01*
X107149740Y-64081388D01*
X107024217Y-64153859D01*
X107024211Y-64153864D01*
X106921722Y-64256353D01*
X106921717Y-64256359D01*
X106849246Y-64381882D01*
X106844812Y-64398426D01*
X106811729Y-64521896D01*
X106311768Y-64521896D01*
X106274778Y-64383848D01*
X106273645Y-64381886D01*
X106202305Y-64258321D01*
X106202300Y-64258315D01*
X106099811Y-64155826D01*
X106099805Y-64155821D01*
X105974282Y-64083350D01*
X105974283Y-64083350D01*
X105951439Y-64077229D01*
X105834269Y-64045833D01*
X105689319Y-64045833D01*
X105572149Y-64077229D01*
X105549305Y-64083350D01*
X105423782Y-64155821D01*
X105423776Y-64155826D01*
X105321287Y-64258315D01*
X105321282Y-64258321D01*
X105248811Y-64383844D01*
X105248810Y-64383848D01*
X105211294Y-64523858D01*
X104711462Y-64523858D01*
X104674449Y-64385725D01*
X104673365Y-64383848D01*
X104601976Y-64260198D01*
X104601971Y-64260192D01*
X104499482Y-64157703D01*
X104499476Y-64157698D01*
X104373953Y-64085227D01*
X104373954Y-64085227D01*
X104362471Y-64082150D01*
X104233940Y-64047710D01*
X104088990Y-64047710D01*
X103960458Y-64082150D01*
X103948976Y-64085227D01*
X103823453Y-64157698D01*
X103823447Y-64157703D01*
X103720958Y-64260192D01*
X103720953Y-64260198D01*
X103648482Y-64385721D01*
X103648481Y-64385725D01*
X103610965Y-64525735D01*
X103111260Y-64525735D01*
X103074224Y-64387515D01*
X103073188Y-64385721D01*
X103001751Y-64261988D01*
X103001746Y-64261982D01*
X102899257Y-64159493D01*
X102899251Y-64159488D01*
X102773728Y-64087017D01*
X102773729Y-64087017D01*
X102752721Y-64081388D01*
X102633715Y-64049500D01*
X102488765Y-64049500D01*
X102369759Y-64081388D01*
X102348751Y-64087017D01*
X102223228Y-64159488D01*
X102223222Y-64159493D01*
X102120733Y-64261982D01*
X102120728Y-64261988D01*
X102048257Y-64387511D01*
X102048256Y-64387515D01*
X102010740Y-64527525D01*
X101511163Y-64527525D01*
X101474102Y-64389212D01*
X101473122Y-64387515D01*
X101401629Y-64263685D01*
X101401624Y-64263679D01*
X101299135Y-64161190D01*
X101299129Y-64161185D01*
X101173606Y-64088714D01*
X101173607Y-64088714D01*
X101153588Y-64083350D01*
X101033593Y-64051197D01*
X100900814Y-64051197D01*
X100833775Y-64031512D01*
X100788020Y-63978708D01*
X100778076Y-63909550D01*
X100781039Y-63895104D01*
X100782550Y-63889461D01*
X100800500Y-63822475D01*
X100800500Y-63677525D01*
X100800500Y-63676197D01*
X100820185Y-63609158D01*
X100872989Y-63563403D01*
X100924500Y-63552197D01*
X101033590Y-63552197D01*
X101033593Y-63552197D01*
X101173603Y-63514681D01*
X101299133Y-63442206D01*
X101401627Y-63339712D01*
X101474102Y-63214182D01*
X101511618Y-63074172D01*
X101511618Y-62929222D01*
X101476621Y-62798613D01*
X101478284Y-62728765D01*
X101517446Y-62670902D01*
X101581675Y-62643398D01*
X101628487Y-62646746D01*
X101676333Y-62659567D01*
X101676335Y-62659567D01*
X101821281Y-62659567D01*
X101821283Y-62659567D01*
X101895292Y-62639736D01*
X101965140Y-62641398D01*
X102023003Y-62680559D01*
X102050508Y-62744788D01*
X102047160Y-62791603D01*
X102015573Y-62909488D01*
X102010740Y-62927525D01*
X102010740Y-63072475D01*
X102047777Y-63210698D01*
X102048257Y-63212488D01*
X102120728Y-63338011D01*
X102120730Y-63338013D01*
X102120731Y-63338015D01*
X102223225Y-63440509D01*
X102223226Y-63440510D01*
X102223228Y-63440511D01*
X102348751Y-63512982D01*
X102348752Y-63512982D01*
X102348755Y-63512984D01*
X102488765Y-63550500D01*
X102488768Y-63550500D01*
X102633712Y-63550500D01*
X102633715Y-63550500D01*
X102773725Y-63512984D01*
X102899255Y-63440509D01*
X103001749Y-63338015D01*
X103074224Y-63212485D01*
X103111740Y-63072475D01*
X103111740Y-62927525D01*
X103111260Y-62925735D01*
X103610965Y-62925735D01*
X103610965Y-63070685D01*
X103647978Y-63208818D01*
X103648482Y-63210698D01*
X103720953Y-63336221D01*
X103720955Y-63336223D01*
X103720956Y-63336225D01*
X103823450Y-63438719D01*
X103823451Y-63438720D01*
X103823453Y-63438721D01*
X103948976Y-63511192D01*
X103948977Y-63511192D01*
X103948980Y-63511194D01*
X104088990Y-63548710D01*
X104088993Y-63548710D01*
X104233937Y-63548710D01*
X104233940Y-63548710D01*
X104373950Y-63511194D01*
X104499480Y-63438719D01*
X104601974Y-63336225D01*
X104674449Y-63210695D01*
X104711965Y-63070685D01*
X104711965Y-62925735D01*
X104711462Y-62923858D01*
X105211294Y-62923858D01*
X105211294Y-63068808D01*
X105241229Y-63180524D01*
X105248811Y-63208821D01*
X105321282Y-63334344D01*
X105321284Y-63334346D01*
X105321285Y-63334348D01*
X105423779Y-63436842D01*
X105423780Y-63436843D01*
X105423782Y-63436844D01*
X105549305Y-63509315D01*
X105549306Y-63509315D01*
X105549309Y-63509317D01*
X105689319Y-63546833D01*
X105689322Y-63546833D01*
X105834266Y-63546833D01*
X105834269Y-63546833D01*
X105974279Y-63509317D01*
X106099809Y-63436842D01*
X106202303Y-63334348D01*
X106274778Y-63208818D01*
X106312294Y-63068808D01*
X106312294Y-62923858D01*
X106311768Y-62921896D01*
X106811729Y-62921896D01*
X106811729Y-63066846D01*
X106844575Y-63189426D01*
X106849246Y-63206859D01*
X106921717Y-63332382D01*
X106921719Y-63332384D01*
X106921720Y-63332386D01*
X107024214Y-63434880D01*
X107024215Y-63434881D01*
X107024217Y-63434882D01*
X107149740Y-63507353D01*
X107149741Y-63507353D01*
X107149744Y-63507355D01*
X107289754Y-63544871D01*
X107289757Y-63544871D01*
X107434701Y-63544871D01*
X107434704Y-63544871D01*
X107574714Y-63507355D01*
X107700244Y-63434880D01*
X107802738Y-63332386D01*
X107875213Y-63206856D01*
X107912729Y-63066846D01*
X107912729Y-62921896D01*
X107912182Y-62919854D01*
X108412272Y-62919854D01*
X108412272Y-63064804D01*
X108445665Y-63189426D01*
X108449789Y-63204817D01*
X108522260Y-63330340D01*
X108522262Y-63330342D01*
X108522263Y-63330344D01*
X108624757Y-63432838D01*
X108624758Y-63432839D01*
X108624760Y-63432840D01*
X108750283Y-63505311D01*
X108750284Y-63505311D01*
X108750287Y-63505313D01*
X108890297Y-63542829D01*
X108890300Y-63542829D01*
X109035244Y-63542829D01*
X109035247Y-63542829D01*
X109175257Y-63505313D01*
X109300787Y-63432838D01*
X109403281Y-63330344D01*
X109475756Y-63204814D01*
X109513272Y-63064804D01*
X109513272Y-62919854D01*
X109512705Y-62917738D01*
X110012926Y-62917738D01*
X110012926Y-63062688D01*
X110046886Y-63189426D01*
X110050443Y-63202701D01*
X110122914Y-63328224D01*
X110122916Y-63328226D01*
X110122917Y-63328228D01*
X110225411Y-63430722D01*
X110225412Y-63430723D01*
X110225414Y-63430724D01*
X110350937Y-63503195D01*
X110350938Y-63503195D01*
X110350941Y-63503197D01*
X110490951Y-63540713D01*
X110490954Y-63540713D01*
X110635898Y-63540713D01*
X110635901Y-63540713D01*
X110775911Y-63503197D01*
X110901441Y-63430722D01*
X111003935Y-63328228D01*
X111033208Y-63277525D01*
X112749500Y-63277525D01*
X112749500Y-63422475D01*
X112784688Y-63553796D01*
X112787017Y-63562488D01*
X112859488Y-63688011D01*
X112859490Y-63688013D01*
X112859491Y-63688015D01*
X112961985Y-63790509D01*
X112961986Y-63790510D01*
X112961988Y-63790511D01*
X113087511Y-63862982D01*
X113087512Y-63862982D01*
X113087515Y-63862984D01*
X113227525Y-63900500D01*
X113227528Y-63900500D01*
X113372472Y-63900500D01*
X113372475Y-63900500D01*
X113512485Y-63862984D01*
X113638015Y-63790509D01*
X113740509Y-63688015D01*
X113812984Y-63562485D01*
X113850500Y-63422475D01*
X113850500Y-63277525D01*
X113812984Y-63137515D01*
X113777334Y-63075768D01*
X113740511Y-63011988D01*
X113740506Y-63011982D01*
X113638017Y-62909493D01*
X113638011Y-62909488D01*
X113512488Y-62837017D01*
X113512489Y-62837017D01*
X113501006Y-62833940D01*
X113372475Y-62799500D01*
X113227525Y-62799500D01*
X113098993Y-62833940D01*
X113087511Y-62837017D01*
X112961988Y-62909488D01*
X112961982Y-62909493D01*
X112859493Y-63011982D01*
X112859488Y-63011988D01*
X112787017Y-63137511D01*
X112787016Y-63137515D01*
X112749500Y-63277525D01*
X111033208Y-63277525D01*
X111076410Y-63202698D01*
X111113926Y-63062688D01*
X111113926Y-62917738D01*
X111076410Y-62777728D01*
X111050281Y-62732472D01*
X111003937Y-62652201D01*
X111003932Y-62652195D01*
X110901443Y-62549706D01*
X110901437Y-62549701D01*
X110775914Y-62477230D01*
X110775915Y-62477230D01*
X110764432Y-62474153D01*
X110635901Y-62439713D01*
X110490951Y-62439713D01*
X110362419Y-62474153D01*
X110350937Y-62477230D01*
X110225414Y-62549701D01*
X110225408Y-62549706D01*
X110122919Y-62652195D01*
X110122914Y-62652201D01*
X110050443Y-62777724D01*
X110050442Y-62777728D01*
X110012926Y-62917738D01*
X109512705Y-62917738D01*
X109475756Y-62779844D01*
X109474534Y-62777728D01*
X109403283Y-62654317D01*
X109403278Y-62654311D01*
X109300789Y-62551822D01*
X109300783Y-62551817D01*
X109175260Y-62479346D01*
X109175261Y-62479346D01*
X109163778Y-62476269D01*
X109035247Y-62441829D01*
X108890297Y-62441829D01*
X108761765Y-62476269D01*
X108750283Y-62479346D01*
X108624760Y-62551817D01*
X108624754Y-62551822D01*
X108522265Y-62654311D01*
X108522260Y-62654317D01*
X108449789Y-62779840D01*
X108447279Y-62789208D01*
X108412272Y-62919854D01*
X107912182Y-62919854D01*
X107875213Y-62781886D01*
X107872812Y-62777728D01*
X107802740Y-62656359D01*
X107802735Y-62656353D01*
X107700246Y-62553864D01*
X107700240Y-62553859D01*
X107574717Y-62481388D01*
X107574718Y-62481388D01*
X107559196Y-62477229D01*
X107434704Y-62443871D01*
X107289754Y-62443871D01*
X107165262Y-62477229D01*
X107149740Y-62481388D01*
X107024217Y-62553859D01*
X107024211Y-62553864D01*
X106921722Y-62656353D01*
X106921717Y-62656359D01*
X106849246Y-62781882D01*
X106846641Y-62791603D01*
X106811729Y-62921896D01*
X106311768Y-62921896D01*
X106274778Y-62783848D01*
X106273645Y-62781886D01*
X106202305Y-62658321D01*
X106202300Y-62658315D01*
X106099811Y-62555826D01*
X106099805Y-62555821D01*
X105974282Y-62483350D01*
X105974283Y-62483350D01*
X105951439Y-62477229D01*
X105834269Y-62445833D01*
X105689319Y-62445833D01*
X105572149Y-62477229D01*
X105549305Y-62483350D01*
X105423782Y-62555821D01*
X105423776Y-62555826D01*
X105321287Y-62658315D01*
X105321282Y-62658321D01*
X105248811Y-62783844D01*
X105248810Y-62783848D01*
X105211294Y-62923858D01*
X104711462Y-62923858D01*
X104674449Y-62785725D01*
X104673365Y-62783848D01*
X104601976Y-62660198D01*
X104601971Y-62660192D01*
X104499482Y-62557703D01*
X104499476Y-62557698D01*
X104373953Y-62485227D01*
X104373954Y-62485227D01*
X104362471Y-62482150D01*
X104233940Y-62447710D01*
X104088990Y-62447710D01*
X103960458Y-62482150D01*
X103948976Y-62485227D01*
X103823453Y-62557698D01*
X103823447Y-62557703D01*
X103720958Y-62660192D01*
X103720953Y-62660198D01*
X103648482Y-62785721D01*
X103648002Y-62787511D01*
X103610965Y-62925735D01*
X103111260Y-62925735D01*
X103074224Y-62787515D01*
X103073495Y-62786253D01*
X103001751Y-62661988D01*
X103001746Y-62661982D01*
X102899257Y-62559493D01*
X102899251Y-62559488D01*
X102773728Y-62487017D01*
X102773729Y-62487017D01*
X102752721Y-62481388D01*
X102633715Y-62449500D01*
X102488765Y-62449500D01*
X102414755Y-62469331D01*
X102344905Y-62467668D01*
X102287043Y-62428505D01*
X102259539Y-62364277D01*
X102262886Y-62317466D01*
X102299308Y-62181542D01*
X102299308Y-62061334D01*
X102318993Y-61994295D01*
X102371797Y-61948540D01*
X102440955Y-61938596D01*
X102455390Y-61941557D01*
X102488765Y-61950500D01*
X102488767Y-61950500D01*
X102633712Y-61950500D01*
X102633715Y-61950500D01*
X102773725Y-61912984D01*
X102899255Y-61840509D01*
X103001749Y-61738015D01*
X103074224Y-61612485D01*
X103111740Y-61472475D01*
X103111740Y-61327525D01*
X103081451Y-61214486D01*
X103083114Y-61144639D01*
X103122276Y-61086776D01*
X103186504Y-61059272D01*
X103233316Y-61062619D01*
X103334839Y-61089823D01*
X103334842Y-61089823D01*
X103479784Y-61089823D01*
X103479789Y-61089823D01*
X103481751Y-61089297D01*
X103483471Y-61089337D01*
X103487845Y-61088762D01*
X103487934Y-61089443D01*
X103551596Y-61090953D01*
X103609462Y-61130110D01*
X103636973Y-61194336D01*
X103633626Y-61241162D01*
X103621544Y-61286254D01*
X103610965Y-61325735D01*
X103610965Y-61470685D01*
X103647453Y-61606859D01*
X103648482Y-61610698D01*
X103720953Y-61736221D01*
X103720955Y-61736223D01*
X103720956Y-61736225D01*
X103823450Y-61838719D01*
X103823451Y-61838720D01*
X103823453Y-61838721D01*
X103948976Y-61911192D01*
X103948977Y-61911192D01*
X103948980Y-61911194D01*
X104088990Y-61948710D01*
X104088993Y-61948710D01*
X104233937Y-61948710D01*
X104233940Y-61948710D01*
X104373950Y-61911194D01*
X104499480Y-61838719D01*
X104601974Y-61736225D01*
X104674449Y-61610695D01*
X104711965Y-61470685D01*
X104711965Y-61325735D01*
X104711462Y-61323858D01*
X105211294Y-61323858D01*
X105211294Y-61468808D01*
X105237741Y-61567507D01*
X105248811Y-61608821D01*
X105321282Y-61734344D01*
X105321284Y-61734346D01*
X105321285Y-61734348D01*
X105423779Y-61836842D01*
X105423780Y-61836843D01*
X105423782Y-61836844D01*
X105549305Y-61909315D01*
X105549306Y-61909315D01*
X105549309Y-61909317D01*
X105689319Y-61946833D01*
X105689322Y-61946833D01*
X105834266Y-61946833D01*
X105834269Y-61946833D01*
X105974279Y-61909317D01*
X106099809Y-61836842D01*
X106202303Y-61734348D01*
X106274778Y-61608818D01*
X106312294Y-61468808D01*
X106312294Y-61323858D01*
X106311768Y-61321896D01*
X106811729Y-61321896D01*
X106811729Y-61466846D01*
X106848131Y-61602698D01*
X106849246Y-61606859D01*
X106921717Y-61732382D01*
X106921719Y-61732384D01*
X106921720Y-61732386D01*
X107024214Y-61834880D01*
X107024215Y-61834881D01*
X107024217Y-61834882D01*
X107149740Y-61907353D01*
X107149741Y-61907353D01*
X107149744Y-61907355D01*
X107289754Y-61944871D01*
X107289757Y-61944871D01*
X107434701Y-61944871D01*
X107434704Y-61944871D01*
X107574714Y-61907355D01*
X107700244Y-61834880D01*
X107802738Y-61732386D01*
X107875213Y-61606856D01*
X107912729Y-61466846D01*
X107912729Y-61321896D01*
X107912182Y-61319854D01*
X108412272Y-61319854D01*
X108412272Y-61464804D01*
X108449221Y-61602698D01*
X108449789Y-61604817D01*
X108522260Y-61730340D01*
X108522262Y-61730342D01*
X108522263Y-61730344D01*
X108624757Y-61832838D01*
X108624758Y-61832839D01*
X108624760Y-61832840D01*
X108750283Y-61905311D01*
X108750284Y-61905311D01*
X108750287Y-61905313D01*
X108890297Y-61942829D01*
X108890300Y-61942829D01*
X109035244Y-61942829D01*
X109035247Y-61942829D01*
X109175257Y-61905313D01*
X109300787Y-61832838D01*
X109403281Y-61730344D01*
X109475756Y-61604814D01*
X109513272Y-61464804D01*
X109513272Y-61319854D01*
X109512705Y-61317738D01*
X110012926Y-61317738D01*
X110012926Y-61462688D01*
X110050442Y-61602698D01*
X110050443Y-61602701D01*
X110122914Y-61728224D01*
X110122916Y-61728226D01*
X110122917Y-61728228D01*
X110225411Y-61830722D01*
X110225412Y-61830723D01*
X110225414Y-61830724D01*
X110350937Y-61903195D01*
X110350938Y-61903195D01*
X110350941Y-61903197D01*
X110490951Y-61940713D01*
X110490954Y-61940713D01*
X110635898Y-61940713D01*
X110635901Y-61940713D01*
X110775911Y-61903197D01*
X110901441Y-61830722D01*
X111003935Y-61728228D01*
X111076410Y-61602698D01*
X111113926Y-61462688D01*
X111113926Y-61317738D01*
X111076410Y-61177728D01*
X111026310Y-61090953D01*
X111003937Y-61052201D01*
X111003932Y-61052195D01*
X110901443Y-60949706D01*
X110901437Y-60949701D01*
X110775914Y-60877230D01*
X110775915Y-60877230D01*
X110764432Y-60874153D01*
X110635901Y-60839713D01*
X110490951Y-60839713D01*
X110362419Y-60874153D01*
X110350937Y-60877230D01*
X110225414Y-60949701D01*
X110225408Y-60949706D01*
X110122919Y-61052195D01*
X110122914Y-61052201D01*
X110050443Y-61177724D01*
X110050442Y-61177728D01*
X110012926Y-61317738D01*
X109512705Y-61317738D01*
X109475756Y-61179844D01*
X109474534Y-61177728D01*
X109403283Y-61054317D01*
X109403278Y-61054311D01*
X109300789Y-60951822D01*
X109300783Y-60951817D01*
X109175260Y-60879346D01*
X109175261Y-60879346D01*
X109163778Y-60876269D01*
X109035247Y-60841829D01*
X108890297Y-60841829D01*
X108761765Y-60876269D01*
X108750283Y-60879346D01*
X108624760Y-60951817D01*
X108624754Y-60951822D01*
X108522265Y-61054311D01*
X108522260Y-61054317D01*
X108449789Y-61179840D01*
X108447279Y-61189208D01*
X108412272Y-61319854D01*
X107912182Y-61319854D01*
X107875213Y-61181886D01*
X107872812Y-61177728D01*
X107802740Y-61056359D01*
X107802735Y-61056353D01*
X107700246Y-60953864D01*
X107700240Y-60953859D01*
X107574717Y-60881388D01*
X107574718Y-60881388D01*
X107559196Y-60877229D01*
X107434704Y-60843871D01*
X107289754Y-60843871D01*
X107165262Y-60877229D01*
X107149740Y-60881388D01*
X107024217Y-60953859D01*
X107024211Y-60953864D01*
X106921722Y-61056353D01*
X106921717Y-61056359D01*
X106849246Y-61181882D01*
X106845909Y-61194336D01*
X106811729Y-61321896D01*
X106311768Y-61321896D01*
X106274778Y-61183848D01*
X106273645Y-61181886D01*
X106202305Y-61058321D01*
X106202300Y-61058315D01*
X106099811Y-60955826D01*
X106099805Y-60955821D01*
X105974282Y-60883350D01*
X105974283Y-60883350D01*
X105949472Y-60876702D01*
X105834269Y-60845833D01*
X105689319Y-60845833D01*
X105574116Y-60876702D01*
X105549305Y-60883350D01*
X105423782Y-60955821D01*
X105423776Y-60955826D01*
X105321287Y-61058315D01*
X105321282Y-61058321D01*
X105248811Y-61183844D01*
X105248810Y-61183848D01*
X105211294Y-61323858D01*
X104711462Y-61323858D01*
X104674449Y-61185725D01*
X104673365Y-61183848D01*
X104601976Y-61060198D01*
X104601971Y-61060192D01*
X104499482Y-60957703D01*
X104499476Y-60957698D01*
X104373953Y-60885227D01*
X104373954Y-60885227D01*
X104362471Y-60882150D01*
X104233940Y-60847710D01*
X104088990Y-60847710D01*
X104087015Y-60848238D01*
X104085287Y-60848197D01*
X104080934Y-60848771D01*
X104080844Y-60848091D01*
X104017168Y-60846574D01*
X103959306Y-60807410D01*
X103931804Y-60743181D01*
X103935151Y-60696374D01*
X103957814Y-60611798D01*
X103957814Y-60472710D01*
X103977499Y-60405671D01*
X104030303Y-60359916D01*
X104081814Y-60348710D01*
X104233937Y-60348710D01*
X104233940Y-60348710D01*
X104373950Y-60311194D01*
X104499480Y-60238719D01*
X104601974Y-60136225D01*
X104674449Y-60010695D01*
X104711965Y-59870685D01*
X104711965Y-59725735D01*
X104674449Y-59585725D01*
X104651302Y-59545634D01*
X104634829Y-59477736D01*
X104657680Y-59411709D01*
X104712601Y-59368517D01*
X104782154Y-59361874D01*
X104790765Y-59363854D01*
X104927525Y-59400500D01*
X104927528Y-59400500D01*
X105072472Y-59400500D01*
X105072475Y-59400500D01*
X105117150Y-59388529D01*
X105186998Y-59390192D01*
X105244861Y-59429354D01*
X105272365Y-59493582D01*
X105260779Y-59562485D01*
X105256629Y-59570304D01*
X105248811Y-59583844D01*
X105248810Y-59583848D01*
X105211294Y-59723858D01*
X105211294Y-59868808D01*
X105247170Y-60002698D01*
X105248811Y-60008821D01*
X105321282Y-60134344D01*
X105321284Y-60134346D01*
X105321285Y-60134348D01*
X105423779Y-60236842D01*
X105423780Y-60236843D01*
X105423782Y-60236844D01*
X105549305Y-60309315D01*
X105549306Y-60309315D01*
X105549309Y-60309317D01*
X105689319Y-60346833D01*
X105689322Y-60346833D01*
X105834266Y-60346833D01*
X105834269Y-60346833D01*
X105974279Y-60309317D01*
X106099809Y-60236842D01*
X106202303Y-60134348D01*
X106274778Y-60008818D01*
X106312294Y-59868808D01*
X106312294Y-59723858D01*
X106311768Y-59721896D01*
X106811729Y-59721896D01*
X106811729Y-59866846D01*
X106843781Y-59986463D01*
X106849246Y-60006859D01*
X106921717Y-60132382D01*
X106921719Y-60132384D01*
X106921720Y-60132386D01*
X107024214Y-60234880D01*
X107024215Y-60234881D01*
X107024217Y-60234882D01*
X107149740Y-60307353D01*
X107149741Y-60307353D01*
X107149744Y-60307355D01*
X107289754Y-60344871D01*
X107289757Y-60344871D01*
X107434701Y-60344871D01*
X107434704Y-60344871D01*
X107574714Y-60307355D01*
X107700244Y-60234880D01*
X107802738Y-60132386D01*
X107875213Y-60006856D01*
X107912729Y-59866846D01*
X107912729Y-59721896D01*
X107912182Y-59719854D01*
X108412272Y-59719854D01*
X108412272Y-59864804D01*
X108444871Y-59986462D01*
X108449789Y-60004817D01*
X108522260Y-60130340D01*
X108522262Y-60130342D01*
X108522263Y-60130344D01*
X108624757Y-60232838D01*
X108624758Y-60232839D01*
X108624760Y-60232840D01*
X108750283Y-60305311D01*
X108750284Y-60305311D01*
X108750287Y-60305313D01*
X108890297Y-60342829D01*
X108890300Y-60342829D01*
X109035244Y-60342829D01*
X109035247Y-60342829D01*
X109175257Y-60305313D01*
X109300787Y-60232838D01*
X109403281Y-60130344D01*
X109475756Y-60004814D01*
X109513272Y-59864804D01*
X109513272Y-59719854D01*
X109512705Y-59717738D01*
X110012926Y-59717738D01*
X110012926Y-59862688D01*
X110046092Y-59986462D01*
X110050443Y-60002701D01*
X110122914Y-60128224D01*
X110122916Y-60128226D01*
X110122917Y-60128228D01*
X110225411Y-60230722D01*
X110225412Y-60230723D01*
X110225414Y-60230724D01*
X110350937Y-60303195D01*
X110350938Y-60303195D01*
X110350941Y-60303197D01*
X110490951Y-60340713D01*
X110490954Y-60340713D01*
X110635898Y-60340713D01*
X110635901Y-60340713D01*
X110775911Y-60303197D01*
X110901441Y-60230722D01*
X111003935Y-60128228D01*
X111076410Y-60002698D01*
X111113926Y-59862688D01*
X111113926Y-59717738D01*
X111076410Y-59577728D01*
X111067609Y-59562485D01*
X111003937Y-59452201D01*
X111003932Y-59452195D01*
X110901443Y-59349706D01*
X110901437Y-59349701D01*
X110775914Y-59277230D01*
X110775915Y-59277230D01*
X110764432Y-59274153D01*
X110635901Y-59239713D01*
X110490951Y-59239713D01*
X110362419Y-59274153D01*
X110350937Y-59277230D01*
X110225414Y-59349701D01*
X110225408Y-59349706D01*
X110122919Y-59452195D01*
X110122914Y-59452201D01*
X110050443Y-59577724D01*
X110050442Y-59577728D01*
X110012926Y-59717738D01*
X109512705Y-59717738D01*
X109475756Y-59579844D01*
X109474534Y-59577728D01*
X109403283Y-59454317D01*
X109403278Y-59454311D01*
X109300789Y-59351822D01*
X109300783Y-59351817D01*
X109175260Y-59279346D01*
X109175261Y-59279346D01*
X109163778Y-59276269D01*
X109035247Y-59241829D01*
X108890297Y-59241829D01*
X108761765Y-59276269D01*
X108750283Y-59279346D01*
X108624760Y-59351817D01*
X108624754Y-59351822D01*
X108522265Y-59454311D01*
X108522260Y-59454317D01*
X108449789Y-59579840D01*
X108447279Y-59589208D01*
X108412272Y-59719854D01*
X107912182Y-59719854D01*
X107875213Y-59581886D01*
X107872812Y-59577728D01*
X107802740Y-59456359D01*
X107802735Y-59456353D01*
X107700246Y-59353864D01*
X107700240Y-59353859D01*
X107574717Y-59281388D01*
X107574718Y-59281388D01*
X107559196Y-59277229D01*
X107434704Y-59243871D01*
X107289754Y-59243871D01*
X107165262Y-59277229D01*
X107149740Y-59281388D01*
X107024217Y-59353859D01*
X107024211Y-59353864D01*
X106921722Y-59456353D01*
X106921717Y-59456359D01*
X106849246Y-59581882D01*
X106844812Y-59598426D01*
X106811729Y-59721896D01*
X106311768Y-59721896D01*
X106274778Y-59583848D01*
X106273645Y-59581886D01*
X106202305Y-59458321D01*
X106202300Y-59458315D01*
X106099811Y-59355826D01*
X106099805Y-59355821D01*
X105974282Y-59283350D01*
X105974283Y-59283350D01*
X105951439Y-59277229D01*
X105834269Y-59245833D01*
X105689319Y-59245833D01*
X105689314Y-59245833D01*
X105644642Y-59257803D01*
X105574793Y-59256139D01*
X105516931Y-59216976D01*
X105489428Y-59152747D01*
X105501015Y-59083845D01*
X105505151Y-59076051D01*
X105512984Y-59062485D01*
X105550500Y-58922475D01*
X105550500Y-58869951D01*
X105570185Y-58802912D01*
X105622989Y-58757157D01*
X105681192Y-58748438D01*
X105681192Y-58746833D01*
X105834266Y-58746833D01*
X105834269Y-58746833D01*
X105974279Y-58709317D01*
X106099809Y-58636842D01*
X106202303Y-58534348D01*
X106274778Y-58408818D01*
X106312294Y-58268808D01*
X106312294Y-58123858D01*
X106274778Y-57983848D01*
X106273645Y-57981886D01*
X106228420Y-57903554D01*
X106215220Y-57880691D01*
X106198748Y-57812794D01*
X106221600Y-57746767D01*
X106276521Y-57703576D01*
X106346074Y-57696934D01*
X106384611Y-57711307D01*
X106387515Y-57712984D01*
X106527525Y-57750500D01*
X106527528Y-57750500D01*
X106672471Y-57750500D01*
X106672475Y-57750500D01*
X106750477Y-57729599D01*
X106820322Y-57731262D01*
X106878185Y-57770424D01*
X106905690Y-57834652D01*
X106894104Y-57903554D01*
X106889954Y-57911373D01*
X106849247Y-57981878D01*
X106849246Y-57981881D01*
X106844257Y-58000500D01*
X106811729Y-58121896D01*
X106811729Y-58266846D01*
X106847611Y-58400757D01*
X106849246Y-58406859D01*
X106921717Y-58532382D01*
X106921719Y-58532384D01*
X106921720Y-58532386D01*
X107024214Y-58634880D01*
X107024215Y-58634881D01*
X107024217Y-58634882D01*
X107149740Y-58707353D01*
X107149741Y-58707353D01*
X107149744Y-58707355D01*
X107289754Y-58744871D01*
X107289757Y-58744871D01*
X107434701Y-58744871D01*
X107434704Y-58744871D01*
X107574714Y-58707355D01*
X107700244Y-58634880D01*
X107802738Y-58532386D01*
X107875213Y-58406856D01*
X107912729Y-58266846D01*
X107912729Y-58121896D01*
X107912182Y-58119854D01*
X108412272Y-58119854D01*
X108412272Y-58264804D01*
X108448701Y-58400757D01*
X108449789Y-58404817D01*
X108522260Y-58530340D01*
X108522262Y-58530342D01*
X108522263Y-58530344D01*
X108624757Y-58632838D01*
X108624758Y-58632839D01*
X108624760Y-58632840D01*
X108750283Y-58705311D01*
X108750284Y-58705311D01*
X108750287Y-58705313D01*
X108890297Y-58742829D01*
X108890300Y-58742829D01*
X109035244Y-58742829D01*
X109035247Y-58742829D01*
X109175257Y-58705313D01*
X109300787Y-58632838D01*
X109403281Y-58530344D01*
X109475756Y-58404814D01*
X109513272Y-58264804D01*
X109513272Y-58119854D01*
X109512705Y-58117738D01*
X110012926Y-58117738D01*
X110012926Y-58262688D01*
X110049922Y-58400757D01*
X110050443Y-58402701D01*
X110122914Y-58528224D01*
X110122916Y-58528226D01*
X110122917Y-58528228D01*
X110225411Y-58630722D01*
X110225412Y-58630723D01*
X110225414Y-58630724D01*
X110350937Y-58703195D01*
X110350938Y-58703195D01*
X110350941Y-58703197D01*
X110490951Y-58740713D01*
X110490954Y-58740713D01*
X110635898Y-58740713D01*
X110635901Y-58740713D01*
X110775911Y-58703197D01*
X110901441Y-58630722D01*
X111003935Y-58528228D01*
X111076410Y-58402698D01*
X111113926Y-58262688D01*
X111113926Y-58117738D01*
X111076410Y-57977728D01*
X111065930Y-57959577D01*
X111003937Y-57852201D01*
X111003932Y-57852195D01*
X110901443Y-57749706D01*
X110901437Y-57749701D01*
X110775914Y-57677230D01*
X110775915Y-57677230D01*
X110764432Y-57674153D01*
X110635901Y-57639713D01*
X110490951Y-57639713D01*
X110362419Y-57674153D01*
X110350937Y-57677230D01*
X110225414Y-57749701D01*
X110225408Y-57749706D01*
X110122919Y-57852195D01*
X110122914Y-57852201D01*
X110050443Y-57977724D01*
X110050442Y-57977728D01*
X110012926Y-58117738D01*
X109512705Y-58117738D01*
X109475756Y-57979844D01*
X109474534Y-57977728D01*
X109403283Y-57854317D01*
X109403278Y-57854311D01*
X109300789Y-57751822D01*
X109300783Y-57751817D01*
X109175260Y-57679346D01*
X109175261Y-57679346D01*
X109163778Y-57676269D01*
X109035247Y-57641829D01*
X108890297Y-57641829D01*
X108761765Y-57676269D01*
X108750283Y-57679346D01*
X108624760Y-57751817D01*
X108624754Y-57751822D01*
X108522265Y-57854311D01*
X108522260Y-57854317D01*
X108449789Y-57979840D01*
X108447279Y-57989208D01*
X108412272Y-58119854D01*
X107912182Y-58119854D01*
X107875213Y-57981886D01*
X107875208Y-57981878D01*
X107802740Y-57856359D01*
X107802735Y-57856353D01*
X107700246Y-57753864D01*
X107700240Y-57753859D01*
X107574717Y-57681388D01*
X107574718Y-57681388D01*
X107559196Y-57677229D01*
X107434704Y-57643871D01*
X107289754Y-57643871D01*
X107211754Y-57664771D01*
X107141904Y-57663108D01*
X107084042Y-57623945D01*
X107056538Y-57559717D01*
X107068125Y-57490814D01*
X107072263Y-57483014D01*
X107112984Y-57412485D01*
X107150500Y-57272475D01*
X107150500Y-57267932D01*
X107170185Y-57200893D01*
X107222989Y-57155138D01*
X107281627Y-57146352D01*
X107281627Y-57144871D01*
X107434701Y-57144871D01*
X107434704Y-57144871D01*
X107574714Y-57107355D01*
X107700244Y-57034880D01*
X107802738Y-56932386D01*
X107875213Y-56806856D01*
X107912729Y-56666846D01*
X107912729Y-56521896D01*
X107912182Y-56519854D01*
X108412272Y-56519854D01*
X108412272Y-56664804D01*
X108438579Y-56762982D01*
X108449789Y-56804817D01*
X108522260Y-56930340D01*
X108522262Y-56930342D01*
X108522263Y-56930344D01*
X108624757Y-57032838D01*
X108624758Y-57032839D01*
X108624760Y-57032840D01*
X108750283Y-57105311D01*
X108750284Y-57105311D01*
X108750287Y-57105313D01*
X108890297Y-57142829D01*
X108890300Y-57142829D01*
X109035244Y-57142829D01*
X109035247Y-57142829D01*
X109175257Y-57105313D01*
X109300787Y-57032838D01*
X109403281Y-56930344D01*
X109475756Y-56804814D01*
X109513272Y-56664804D01*
X109513272Y-56519854D01*
X109512705Y-56517738D01*
X110012926Y-56517738D01*
X110012926Y-56662688D01*
X110039800Y-56762982D01*
X110050443Y-56802701D01*
X110122914Y-56928224D01*
X110122916Y-56928226D01*
X110122917Y-56928228D01*
X110225411Y-57030722D01*
X110225412Y-57030723D01*
X110225414Y-57030724D01*
X110350937Y-57103195D01*
X110350938Y-57103195D01*
X110350941Y-57103197D01*
X110490951Y-57140713D01*
X110490954Y-57140713D01*
X110635898Y-57140713D01*
X110635901Y-57140713D01*
X110775911Y-57103197D01*
X110901441Y-57030722D01*
X111003935Y-56928228D01*
X111076410Y-56802698D01*
X111113926Y-56662688D01*
X111113926Y-56517738D01*
X111076410Y-56377728D01*
X111011490Y-56265284D01*
X111003937Y-56252201D01*
X111003932Y-56252195D01*
X110929262Y-56177525D01*
X112449500Y-56177525D01*
X112449500Y-56322475D01*
X112467810Y-56390807D01*
X112487017Y-56462488D01*
X112559488Y-56588011D01*
X112559490Y-56588013D01*
X112559491Y-56588015D01*
X112661985Y-56690509D01*
X112661986Y-56690510D01*
X112661988Y-56690511D01*
X112787511Y-56762982D01*
X112787512Y-56762982D01*
X112787515Y-56762984D01*
X112927525Y-56800500D01*
X112927528Y-56800500D01*
X113072472Y-56800500D01*
X113072475Y-56800500D01*
X113212485Y-56762984D01*
X113338015Y-56690509D01*
X113440509Y-56588015D01*
X113512984Y-56462485D01*
X113550500Y-56322475D01*
X113550500Y-56177525D01*
X113512984Y-56037515D01*
X113440509Y-55911985D01*
X113338015Y-55809491D01*
X113338013Y-55809490D01*
X113338011Y-55809488D01*
X113212488Y-55737017D01*
X113212489Y-55737017D01*
X113201006Y-55733940D01*
X113072475Y-55699500D01*
X112927525Y-55699500D01*
X112798993Y-55733940D01*
X112787511Y-55737017D01*
X112661988Y-55809488D01*
X112661982Y-55809493D01*
X112559493Y-55911982D01*
X112559488Y-55911988D01*
X112487017Y-56037511D01*
X112487016Y-56037515D01*
X112449500Y-56177525D01*
X110929262Y-56177525D01*
X110901443Y-56149706D01*
X110901437Y-56149701D01*
X110775914Y-56077230D01*
X110775915Y-56077230D01*
X110764432Y-56074153D01*
X110635901Y-56039713D01*
X110490951Y-56039713D01*
X110362419Y-56074153D01*
X110350937Y-56077230D01*
X110225414Y-56149701D01*
X110225408Y-56149706D01*
X110122919Y-56252195D01*
X110122914Y-56252201D01*
X110050443Y-56377724D01*
X110050442Y-56377728D01*
X110012926Y-56517738D01*
X109512705Y-56517738D01*
X109475756Y-56379844D01*
X109474534Y-56377728D01*
X109403283Y-56254317D01*
X109403278Y-56254311D01*
X109300789Y-56151822D01*
X109300783Y-56151817D01*
X109175260Y-56079346D01*
X109175261Y-56079346D01*
X109163778Y-56076269D01*
X109035247Y-56041829D01*
X108890297Y-56041829D01*
X108761765Y-56076269D01*
X108750283Y-56079346D01*
X108624760Y-56151817D01*
X108624754Y-56151822D01*
X108522265Y-56254311D01*
X108522260Y-56254317D01*
X108449789Y-56379840D01*
X108447279Y-56389206D01*
X108412272Y-56519854D01*
X107912182Y-56519854D01*
X107875213Y-56381886D01*
X107872812Y-56377728D01*
X107802740Y-56256359D01*
X107802735Y-56256353D01*
X107700246Y-56153864D01*
X107700240Y-56153859D01*
X107574717Y-56081388D01*
X107574718Y-56081388D01*
X107559196Y-56077229D01*
X107434704Y-56043871D01*
X107289754Y-56043871D01*
X107165262Y-56077229D01*
X107149740Y-56081388D01*
X107024217Y-56153859D01*
X107024211Y-56153864D01*
X106921722Y-56256353D01*
X106921717Y-56256359D01*
X106849246Y-56381882D01*
X106844812Y-56398426D01*
X106811729Y-56521896D01*
X106811729Y-56521898D01*
X106811729Y-56526438D01*
X106792044Y-56593477D01*
X106739240Y-56639232D01*
X106680602Y-56648021D01*
X106680602Y-56649500D01*
X106527525Y-56649500D01*
X106468387Y-56665346D01*
X106398537Y-56663683D01*
X106340675Y-56624520D01*
X106313171Y-56560292D01*
X106312294Y-56545571D01*
X106312294Y-56523860D01*
X106312294Y-56523858D01*
X106274778Y-56383848D01*
X106273645Y-56381886D01*
X106202305Y-56258321D01*
X106202300Y-56258315D01*
X106099811Y-56155826D01*
X106099805Y-56155821D01*
X105974282Y-56083350D01*
X105974283Y-56083350D01*
X105951439Y-56077229D01*
X105834269Y-56045833D01*
X105689319Y-56045833D01*
X105572149Y-56077229D01*
X105549305Y-56083350D01*
X105423782Y-56155821D01*
X105423776Y-56155826D01*
X105321287Y-56258315D01*
X105321282Y-56258321D01*
X105248811Y-56383844D01*
X105248810Y-56383848D01*
X105211294Y-56523858D01*
X105211294Y-56668808D01*
X105236529Y-56762984D01*
X105248811Y-56808821D01*
X105321282Y-56934344D01*
X105321284Y-56934346D01*
X105321285Y-56934348D01*
X105423779Y-57036842D01*
X105423780Y-57036843D01*
X105423782Y-57036844D01*
X105549305Y-57109315D01*
X105549306Y-57109315D01*
X105549309Y-57109317D01*
X105689319Y-57146833D01*
X105689322Y-57146833D01*
X105834265Y-57146833D01*
X105834269Y-57146833D01*
X105893409Y-57130986D01*
X105963255Y-57132649D01*
X106021118Y-57171811D01*
X106048623Y-57236039D01*
X106049500Y-57250761D01*
X106049500Y-57272475D01*
X106062488Y-57320945D01*
X106087017Y-57412488D01*
X106146572Y-57515639D01*
X106163045Y-57583539D01*
X106140193Y-57649566D01*
X106085272Y-57692756D01*
X106015718Y-57699398D01*
X105977186Y-57685027D01*
X105974281Y-57683350D01*
X105974280Y-57683349D01*
X105974279Y-57683349D01*
X105834269Y-57645833D01*
X105689319Y-57645833D01*
X105572149Y-57677229D01*
X105549305Y-57683350D01*
X105423782Y-57755821D01*
X105423776Y-57755826D01*
X105321287Y-57858315D01*
X105321282Y-57858321D01*
X105248811Y-57983844D01*
X105248810Y-57983848D01*
X105211294Y-58123858D01*
X105211294Y-58123860D01*
X105211294Y-58176381D01*
X105191609Y-58243420D01*
X105138805Y-58289175D01*
X105080602Y-58297897D01*
X105080602Y-58299500D01*
X104927525Y-58299500D01*
X104868058Y-58315434D01*
X104798208Y-58313771D01*
X104740346Y-58274608D01*
X104712842Y-58210379D01*
X104711965Y-58195659D01*
X104711965Y-58125737D01*
X104711965Y-58125735D01*
X104674449Y-57985725D01*
X104673365Y-57983848D01*
X104601976Y-57860198D01*
X104601971Y-57860192D01*
X104499482Y-57757703D01*
X104499476Y-57757698D01*
X104373953Y-57685227D01*
X104373954Y-57685227D01*
X104362471Y-57682150D01*
X104233940Y-57647710D01*
X104088990Y-57647710D01*
X103960458Y-57682150D01*
X103948976Y-57685227D01*
X103823453Y-57757698D01*
X103823447Y-57757703D01*
X103720958Y-57860192D01*
X103720953Y-57860198D01*
X103648482Y-57985721D01*
X103648481Y-57985725D01*
X103610965Y-58125735D01*
X103610965Y-58270685D01*
X103647453Y-58406859D01*
X103648482Y-58410698D01*
X103720953Y-58536221D01*
X103720955Y-58536223D01*
X103720956Y-58536225D01*
X103823450Y-58638719D01*
X103823451Y-58638720D01*
X103823453Y-58638721D01*
X103948976Y-58711192D01*
X103948977Y-58711192D01*
X103948980Y-58711194D01*
X104088990Y-58748710D01*
X104088993Y-58748710D01*
X104233937Y-58748710D01*
X104233940Y-58748710D01*
X104293409Y-58732775D01*
X104363256Y-58734438D01*
X104421118Y-58773600D01*
X104448623Y-58837828D01*
X104449500Y-58852550D01*
X104449500Y-58922475D01*
X104487016Y-59062485D01*
X104510162Y-59102575D01*
X104526635Y-59170474D01*
X104503783Y-59236501D01*
X104448862Y-59279692D01*
X104379309Y-59286334D01*
X104370682Y-59284350D01*
X104283512Y-59260993D01*
X104233940Y-59247710D01*
X104088990Y-59247710D01*
X103960458Y-59282150D01*
X103948976Y-59285227D01*
X103823453Y-59357698D01*
X103823447Y-59357703D01*
X103720958Y-59460192D01*
X103720953Y-59460198D01*
X103648482Y-59585721D01*
X103648481Y-59585725D01*
X103610965Y-59725735D01*
X103610965Y-59725737D01*
X103610965Y-59864823D01*
X103591280Y-59931862D01*
X103538476Y-59977617D01*
X103486965Y-59988823D01*
X103334837Y-59988823D01*
X103266958Y-60007011D01*
X103197109Y-60005348D01*
X103139246Y-59966185D01*
X103111743Y-59901956D01*
X103111871Y-59880602D01*
X103111740Y-59880602D01*
X103111740Y-59727527D01*
X103111740Y-59727525D01*
X103074224Y-59587515D01*
X103073188Y-59585721D01*
X103001751Y-59461988D01*
X103001746Y-59461982D01*
X102899257Y-59359493D01*
X102899251Y-59359488D01*
X102773728Y-59287017D01*
X102773729Y-59287017D01*
X102752721Y-59281388D01*
X102633715Y-59249500D01*
X102488765Y-59249500D01*
X102369759Y-59281388D01*
X102348751Y-59287017D01*
X102223228Y-59359488D01*
X102223222Y-59359493D01*
X102120733Y-59461982D01*
X102120728Y-59461988D01*
X102048257Y-59587511D01*
X102048256Y-59587515D01*
X102010740Y-59727525D01*
X102010740Y-59872475D01*
X102047777Y-60010698D01*
X102048257Y-60012488D01*
X102120728Y-60138011D01*
X102120730Y-60138013D01*
X102120731Y-60138015D01*
X102223225Y-60240509D01*
X102223226Y-60240510D01*
X102223228Y-60240511D01*
X102348751Y-60312982D01*
X102348752Y-60312982D01*
X102348755Y-60312984D01*
X102488765Y-60350500D01*
X102488768Y-60350500D01*
X102633712Y-60350500D01*
X102633715Y-60350500D01*
X102701596Y-60332311D01*
X102771443Y-60333974D01*
X102829305Y-60373136D01*
X102856810Y-60437364D01*
X102856684Y-60458721D01*
X102856814Y-60458721D01*
X102856814Y-60611797D01*
X102887102Y-60724834D01*
X102885439Y-60794684D01*
X102846276Y-60852546D01*
X102782048Y-60880050D01*
X102735234Y-60876702D01*
X102685933Y-60863492D01*
X102633715Y-60849500D01*
X102488765Y-60849500D01*
X102362440Y-60883349D01*
X102348751Y-60887017D01*
X102223228Y-60959488D01*
X102223222Y-60959493D01*
X102120733Y-61061982D01*
X102120728Y-61061988D01*
X102048257Y-61187511D01*
X102048256Y-61187515D01*
X102010740Y-61327525D01*
X102010740Y-61327527D01*
X102010740Y-61447732D01*
X101991055Y-61514771D01*
X101938251Y-61560526D01*
X101869093Y-61570470D01*
X101854647Y-61567507D01*
X101821283Y-61558567D01*
X101676333Y-61558567D01*
X101676331Y-61558567D01*
X101667707Y-61560878D01*
X101597857Y-61559213D01*
X101539996Y-61520048D01*
X101512494Y-61455819D01*
X101511618Y-61441102D01*
X101511618Y-61329224D01*
X101511618Y-61329222D01*
X101474102Y-61189212D01*
X101473122Y-61187515D01*
X101401629Y-61063685D01*
X101401624Y-61063679D01*
X101299135Y-60961190D01*
X101299129Y-60961185D01*
X101173606Y-60888714D01*
X101173607Y-60888714D01*
X101153588Y-60883350D01*
X101033593Y-60851197D01*
X100888643Y-60851197D01*
X100768648Y-60883350D01*
X100748629Y-60888714D01*
X100623106Y-60961185D01*
X100623100Y-60961190D01*
X100520611Y-61063679D01*
X100520606Y-61063685D01*
X100448135Y-61189208D01*
X100446761Y-61194336D01*
X100410618Y-61329222D01*
X100410618Y-61474172D01*
X100447679Y-61612485D01*
X100448135Y-61614185D01*
X100520606Y-61739708D01*
X100520608Y-61739710D01*
X100520609Y-61739712D01*
X100623103Y-61842206D01*
X100623104Y-61842207D01*
X100623106Y-61842208D01*
X100748629Y-61914679D01*
X100748630Y-61914679D01*
X100748633Y-61914681D01*
X100888643Y-61952197D01*
X100888646Y-61952197D01*
X101033591Y-61952197D01*
X101033593Y-61952197D01*
X101042213Y-61949887D01*
X101112062Y-61951548D01*
X101169925Y-61990710D01*
X101197431Y-62054937D01*
X101198308Y-62069661D01*
X101198308Y-62181542D01*
X101208472Y-62219475D01*
X101233304Y-62312149D01*
X101231641Y-62381999D01*
X101192478Y-62439861D01*
X101128250Y-62467365D01*
X101081438Y-62464017D01*
X101033593Y-62451197D01*
X100888643Y-62451197D01*
X100768648Y-62483350D01*
X100748629Y-62488714D01*
X100623106Y-62561185D01*
X100623100Y-62561190D01*
X100520611Y-62663679D01*
X100520606Y-62663685D01*
X100448135Y-62789208D01*
X100447493Y-62791603D01*
X100410618Y-62929222D01*
X100410618Y-62929224D01*
X100410618Y-63075500D01*
X100390933Y-63142539D01*
X100338129Y-63188294D01*
X100286618Y-63199500D01*
X100177525Y-63199500D01*
X100062758Y-63230252D01*
X99992909Y-63228589D01*
X99935046Y-63189426D01*
X99907542Y-63125198D01*
X99910890Y-63078385D01*
X99911591Y-63075771D01*
X99911591Y-62930821D01*
X99874075Y-62790811D01*
X99871443Y-62786253D01*
X99801602Y-62665284D01*
X99801597Y-62665278D01*
X99699108Y-62562789D01*
X99699102Y-62562784D01*
X99573579Y-62490313D01*
X99573580Y-62490313D01*
X99554595Y-62485226D01*
X99433566Y-62452796D01*
X99288616Y-62452796D01*
X99167587Y-62485226D01*
X99148602Y-62490313D01*
X99023079Y-62562784D01*
X99023073Y-62562789D01*
X98920584Y-62665278D01*
X98920579Y-62665284D01*
X98848108Y-62790807D01*
X98848107Y-62790811D01*
X98810591Y-62930821D01*
X98810591Y-63075771D01*
X98848107Y-63215781D01*
X98848108Y-63215784D01*
X98920579Y-63341307D01*
X98920581Y-63341309D01*
X98920582Y-63341311D01*
X99023076Y-63443805D01*
X99023077Y-63443806D01*
X99023079Y-63443807D01*
X99148602Y-63516278D01*
X99148603Y-63516278D01*
X99148606Y-63516280D01*
X99288616Y-63553796D01*
X99288619Y-63553796D01*
X99433562Y-63553796D01*
X99433566Y-63553796D01*
X99548335Y-63523043D01*
X99618180Y-63524706D01*
X99676043Y-63563868D01*
X99703548Y-63628096D01*
X99700202Y-63674903D01*
X99699500Y-63677520D01*
X99699500Y-63677525D01*
X99699500Y-63822475D01*
X99720407Y-63900499D01*
X99730971Y-63939924D01*
X99729308Y-64009774D01*
X99690146Y-64067637D01*
X99625917Y-64095141D01*
X99579102Y-64091793D01*
X99573577Y-64090312D01*
X99573576Y-64090312D01*
X99433566Y-64052796D01*
X99288616Y-64052796D01*
X99167587Y-64085226D01*
X99148602Y-64090313D01*
X99023079Y-64162784D01*
X99023073Y-64162789D01*
X98920584Y-64265278D01*
X98920579Y-64265284D01*
X98848108Y-64390807D01*
X98848107Y-64390811D01*
X98810591Y-64530821D01*
X98810591Y-64530823D01*
X98810591Y-64650638D01*
X98790906Y-64717677D01*
X98738102Y-64763432D01*
X98668944Y-64773376D01*
X98605388Y-64744351D01*
X98579204Y-64712639D01*
X98575026Y-64705404D01*
X98544184Y-64651983D01*
X98441690Y-64549489D01*
X98441688Y-64549488D01*
X98441686Y-64549486D01*
X98316163Y-64477015D01*
X98316164Y-64477015D01*
X98304681Y-64473938D01*
X98176150Y-64439498D01*
X98031200Y-64439498D01*
X97902668Y-64473938D01*
X97891186Y-64477015D01*
X97765663Y-64549486D01*
X97765657Y-64549491D01*
X97663168Y-64651980D01*
X97663163Y-64651986D01*
X97590692Y-64777509D01*
X97590691Y-64777513D01*
X97553175Y-64917523D01*
X92156765Y-64917523D01*
X92088142Y-64848900D01*
X92088140Y-64848899D01*
X92088138Y-64848897D01*
X91962615Y-64776426D01*
X91962616Y-64776426D01*
X91951133Y-64773349D01*
X91822602Y-64738909D01*
X91677652Y-64738909D01*
X91549120Y-64773349D01*
X91537638Y-64776426D01*
X91412115Y-64848897D01*
X91412109Y-64848902D01*
X91309620Y-64951391D01*
X91309615Y-64951397D01*
X91237144Y-65076920D01*
X91237143Y-65076924D01*
X91199627Y-65216934D01*
X88795458Y-65216934D01*
X88788017Y-65209493D01*
X88788011Y-65209488D01*
X88662488Y-65137017D01*
X88662489Y-65137017D01*
X88651006Y-65133940D01*
X88522475Y-65099500D01*
X88377525Y-65099500D01*
X88248993Y-65133940D01*
X88237511Y-65137017D01*
X88111988Y-65209488D01*
X88111982Y-65209493D01*
X88009493Y-65311982D01*
X88009488Y-65311988D01*
X87937017Y-65437511D01*
X87932583Y-65454055D01*
X87899500Y-65577525D01*
X87899500Y-65722475D01*
X87930967Y-65839909D01*
X87937017Y-65862489D01*
X87937018Y-65862490D01*
X87963108Y-65907678D01*
X87979582Y-65975578D01*
X87956730Y-66041605D01*
X87943405Y-66057359D01*
X87919478Y-66081286D01*
X87919475Y-66081290D01*
X87840426Y-66218209D01*
X87840423Y-66218216D01*
X87799500Y-66370943D01*
X86650500Y-66370943D01*
X86650500Y-63220943D01*
X89399500Y-63220943D01*
X89399500Y-63379057D01*
X89438527Y-63524706D01*
X89440423Y-63531783D01*
X89440426Y-63531790D01*
X89519475Y-63668709D01*
X89519479Y-63668714D01*
X89519480Y-63668716D01*
X89631284Y-63780520D01*
X89631286Y-63780521D01*
X89631290Y-63780524D01*
X89768209Y-63859573D01*
X89768216Y-63859577D01*
X89920943Y-63900500D01*
X89920945Y-63900500D01*
X90079055Y-63900500D01*
X90079057Y-63900500D01*
X90231784Y-63859577D01*
X90368716Y-63780520D01*
X90480520Y-63668716D01*
X90559577Y-63531784D01*
X90596923Y-63392404D01*
X90633287Y-63332746D01*
X90696134Y-63302217D01*
X90716697Y-63300500D01*
X90729055Y-63300500D01*
X90729057Y-63300500D01*
X90881784Y-63259577D01*
X91018716Y-63180520D01*
X91130520Y-63068716D01*
X91209577Y-62931784D01*
X91248572Y-62786250D01*
X91284936Y-62726592D01*
X91336249Y-62698572D01*
X91481784Y-62659577D01*
X91618716Y-62580520D01*
X91730520Y-62468716D01*
X91809577Y-62331784D01*
X91850500Y-62179057D01*
X91850500Y-62020943D01*
X91809577Y-61868216D01*
X91795485Y-61843807D01*
X91730524Y-61731290D01*
X91730518Y-61731282D01*
X91618717Y-61619481D01*
X91618709Y-61619475D01*
X91481790Y-61540426D01*
X91481786Y-61540424D01*
X91481784Y-61540423D01*
X91329057Y-61499500D01*
X91170943Y-61499500D01*
X91018216Y-61540423D01*
X91018209Y-61540426D01*
X90881290Y-61619475D01*
X90881282Y-61619481D01*
X90769481Y-61731282D01*
X90769475Y-61731290D01*
X90690426Y-61868209D01*
X90690423Y-61868214D01*
X90651428Y-62013747D01*
X90615063Y-62073407D01*
X90563747Y-62101428D01*
X90418214Y-62140423D01*
X90418209Y-62140426D01*
X90281290Y-62219475D01*
X90281282Y-62219481D01*
X90169481Y-62331282D01*
X90169475Y-62331290D01*
X90090426Y-62468209D01*
X90090423Y-62468216D01*
X90053076Y-62607595D01*
X90016713Y-62667254D01*
X89953866Y-62697783D01*
X89933303Y-62699500D01*
X89920943Y-62699500D01*
X89768216Y-62740423D01*
X89768209Y-62740426D01*
X89631290Y-62819475D01*
X89631282Y-62819481D01*
X89519481Y-62931282D01*
X89519475Y-62931290D01*
X89440426Y-63068209D01*
X89440423Y-63068216D01*
X89399500Y-63220943D01*
X86650500Y-63220943D01*
X86650500Y-61081448D01*
X96193211Y-61081448D01*
X96193211Y-61226398D01*
X96221192Y-61330823D01*
X96230728Y-61366411D01*
X96293547Y-61475216D01*
X96310020Y-61543116D01*
X96293548Y-61599214D01*
X96275796Y-61629962D01*
X96275794Y-61629965D01*
X96257036Y-61699972D01*
X96238278Y-61769977D01*
X96238278Y-61914927D01*
X96272453Y-62042469D01*
X96275795Y-62054940D01*
X96348266Y-62180463D01*
X96348268Y-62180465D01*
X96348269Y-62180467D01*
X96450763Y-62282961D01*
X96450764Y-62282962D01*
X96450766Y-62282963D01*
X96576289Y-62355434D01*
X96576290Y-62355434D01*
X96576293Y-62355436D01*
X96716303Y-62392952D01*
X96716306Y-62392952D01*
X96840035Y-62392952D01*
X96907074Y-62412637D01*
X96952829Y-62465441D01*
X96962773Y-62534599D01*
X96959809Y-62549045D01*
X96949500Y-62587522D01*
X96949500Y-62732472D01*
X96977513Y-62837016D01*
X96987017Y-62872485D01*
X97027728Y-62942998D01*
X97044201Y-63010898D01*
X97027728Y-63066998D01*
X96987017Y-63137511D01*
X96987016Y-63137515D01*
X96949500Y-63277525D01*
X96949500Y-63422475D01*
X96984688Y-63553796D01*
X96987017Y-63562488D01*
X97059488Y-63688011D01*
X97059490Y-63688013D01*
X97059491Y-63688015D01*
X97161985Y-63790509D01*
X97161986Y-63790510D01*
X97161988Y-63790511D01*
X97287511Y-63862982D01*
X97287512Y-63862982D01*
X97287515Y-63862984D01*
X97427525Y-63900500D01*
X97427528Y-63900500D01*
X97572472Y-63900500D01*
X97572475Y-63900500D01*
X97712485Y-63862984D01*
X97838015Y-63790509D01*
X97940509Y-63688015D01*
X98012984Y-63562485D01*
X98050500Y-63422475D01*
X98050500Y-63277525D01*
X98012984Y-63137515D01*
X97972270Y-63066997D01*
X97955798Y-62999099D01*
X97972272Y-62942997D01*
X97981205Y-62927525D01*
X98012984Y-62872482D01*
X98050500Y-62732472D01*
X98050500Y-62587522D01*
X98012984Y-62447512D01*
X97972270Y-62376994D01*
X97955798Y-62309096D01*
X97972272Y-62252994D01*
X98012981Y-62182484D01*
X98012982Y-62182483D01*
X98012982Y-62182481D01*
X98012984Y-62182479D01*
X98050500Y-62042469D01*
X98050500Y-61897519D01*
X98012984Y-61757509D01*
X98003633Y-61741313D01*
X97940511Y-61631982D01*
X97940506Y-61631976D01*
X97838017Y-61529487D01*
X97838011Y-61529482D01*
X97712488Y-61457011D01*
X97712489Y-61457011D01*
X97677859Y-61447732D01*
X97572475Y-61419494D01*
X97427525Y-61419494D01*
X97427524Y-61419494D01*
X97419690Y-61420525D01*
X97350655Y-61409756D01*
X97298401Y-61363374D01*
X97279519Y-61296104D01*
X97280029Y-61286254D01*
X97280995Y-61275716D01*
X97294211Y-61226398D01*
X97294211Y-61145499D01*
X98088877Y-61145499D01*
X98088877Y-61290449D01*
X98120846Y-61409756D01*
X98126394Y-61430462D01*
X98198865Y-61555985D01*
X98198867Y-61555987D01*
X98198868Y-61555989D01*
X98301362Y-61658483D01*
X98301363Y-61658484D01*
X98301365Y-61658485D01*
X98426888Y-61730956D01*
X98426889Y-61730956D01*
X98426892Y-61730958D01*
X98566902Y-61768474D01*
X98566905Y-61768474D01*
X98711849Y-61768474D01*
X98711852Y-61768474D01*
X98828745Y-61737152D01*
X98898590Y-61738815D01*
X98948516Y-61769245D01*
X99023076Y-61843805D01*
X99023078Y-61843806D01*
X99023079Y-61843807D01*
X99148602Y-61916278D01*
X99148603Y-61916278D01*
X99148606Y-61916280D01*
X99288616Y-61953796D01*
X99288619Y-61953796D01*
X99433563Y-61953796D01*
X99433566Y-61953796D01*
X99573576Y-61916280D01*
X99699106Y-61843805D01*
X99801600Y-61741311D01*
X99874075Y-61615781D01*
X99911591Y-61475771D01*
X99911591Y-61330821D01*
X99874075Y-61190811D01*
X99871136Y-61185721D01*
X99801602Y-61065284D01*
X99801597Y-61065278D01*
X99699108Y-60962789D01*
X99699102Y-60962784D01*
X99573579Y-60890313D01*
X99573580Y-60890313D01*
X99550456Y-60884117D01*
X99433566Y-60852796D01*
X99288616Y-60852796D01*
X99171724Y-60884117D01*
X99101874Y-60882454D01*
X99051950Y-60852023D01*
X98977394Y-60777467D01*
X98977388Y-60777462D01*
X98851865Y-60704991D01*
X98851866Y-60704991D01*
X98819688Y-60696369D01*
X98711852Y-60667474D01*
X98566902Y-60667474D01*
X98459066Y-60696369D01*
X98426888Y-60704991D01*
X98301365Y-60777462D01*
X98301359Y-60777467D01*
X98198870Y-60879956D01*
X98198865Y-60879962D01*
X98126394Y-61005485D01*
X98126393Y-61005489D01*
X98088877Y-61145499D01*
X97294211Y-61145499D01*
X97294211Y-61081448D01*
X97256695Y-60941438D01*
X97220302Y-60878404D01*
X97203830Y-60810505D01*
X97220303Y-60754405D01*
X97265303Y-60676462D01*
X97265304Y-60676460D01*
X97265305Y-60676459D01*
X97302821Y-60536449D01*
X97302821Y-60391499D01*
X97265305Y-60251489D01*
X97223288Y-60178714D01*
X97206816Y-60110817D01*
X97223288Y-60054717D01*
X97262697Y-59986461D01*
X97300213Y-59846451D01*
X97300213Y-59730821D01*
X98810591Y-59730821D01*
X98810591Y-59875771D01*
X98848107Y-60015781D01*
X98848108Y-60015784D01*
X98920579Y-60141307D01*
X98920581Y-60141309D01*
X98920582Y-60141311D01*
X99023076Y-60243805D01*
X99023077Y-60243806D01*
X99023079Y-60243807D01*
X99148602Y-60316278D01*
X99148603Y-60316278D01*
X99148606Y-60316280D01*
X99288616Y-60353796D01*
X99288619Y-60353796D01*
X99433563Y-60353796D01*
X99433566Y-60353796D01*
X99573576Y-60316280D01*
X99699106Y-60243805D01*
X99801600Y-60141311D01*
X99874075Y-60015781D01*
X99911591Y-59875771D01*
X99911591Y-59730821D01*
X99911163Y-59729222D01*
X100410618Y-59729222D01*
X100410618Y-59874172D01*
X100447679Y-60012485D01*
X100448135Y-60014185D01*
X100520606Y-60139708D01*
X100520608Y-60139710D01*
X100520609Y-60139712D01*
X100623103Y-60242206D01*
X100623104Y-60242207D01*
X100623106Y-60242208D01*
X100748629Y-60314679D01*
X100748630Y-60314679D01*
X100748633Y-60314681D01*
X100888643Y-60352197D01*
X100888646Y-60352197D01*
X101033590Y-60352197D01*
X101033593Y-60352197D01*
X101173603Y-60314681D01*
X101299133Y-60242206D01*
X101401627Y-60139712D01*
X101474102Y-60014182D01*
X101511618Y-59874172D01*
X101511618Y-59729222D01*
X101474102Y-59589212D01*
X101473122Y-59587515D01*
X101401629Y-59463685D01*
X101401624Y-59463679D01*
X101299135Y-59361190D01*
X101299129Y-59361185D01*
X101173606Y-59288714D01*
X101173607Y-59288714D01*
X101153588Y-59283350D01*
X101033593Y-59251197D01*
X100888643Y-59251197D01*
X100768648Y-59283350D01*
X100748629Y-59288714D01*
X100623106Y-59361185D01*
X100623100Y-59361190D01*
X100520611Y-59463679D01*
X100520606Y-59463685D01*
X100448135Y-59589208D01*
X100443701Y-59605752D01*
X100410618Y-59729222D01*
X99911163Y-59729222D01*
X99874075Y-59590811D01*
X99871136Y-59585721D01*
X99801602Y-59465284D01*
X99801597Y-59465278D01*
X99699108Y-59362789D01*
X99699102Y-59362784D01*
X99573579Y-59290313D01*
X99573580Y-59290313D01*
X99551326Y-59284350D01*
X99433566Y-59252796D01*
X99288616Y-59252796D01*
X99170856Y-59284350D01*
X99148602Y-59290313D01*
X99023079Y-59362784D01*
X99023073Y-59362789D01*
X98920584Y-59465278D01*
X98920579Y-59465284D01*
X98848108Y-59590807D01*
X98848107Y-59590811D01*
X98810591Y-59730821D01*
X97300213Y-59730821D01*
X97300213Y-59701501D01*
X97262697Y-59561491D01*
X97207148Y-59465278D01*
X97190224Y-59435964D01*
X97190219Y-59435958D01*
X97087730Y-59333469D01*
X97087724Y-59333464D01*
X96962201Y-59260993D01*
X96962202Y-59260993D01*
X96950297Y-59257803D01*
X96822188Y-59223476D01*
X96677238Y-59223476D01*
X96549129Y-59257803D01*
X96537224Y-59260993D01*
X96411701Y-59333464D01*
X96411695Y-59333469D01*
X96309206Y-59435958D01*
X96309201Y-59435964D01*
X96236730Y-59561487D01*
X96236729Y-59561491D01*
X96199213Y-59701501D01*
X96199213Y-59846451D01*
X96236729Y-59986461D01*
X96278744Y-60059233D01*
X96295217Y-60127132D01*
X96278744Y-60183233D01*
X96239338Y-60251485D01*
X96239337Y-60251489D01*
X96201821Y-60391499D01*
X96201821Y-60536449D01*
X96239337Y-60676459D01*
X96275729Y-60739491D01*
X96292202Y-60807392D01*
X96275729Y-60863492D01*
X96230728Y-60941434D01*
X96230727Y-60941438D01*
X96193211Y-61081448D01*
X86650500Y-61081448D01*
X86650500Y-59248653D01*
X86670185Y-59181614D01*
X86722989Y-59135859D01*
X86792147Y-59125915D01*
X86836500Y-59141266D01*
X86868216Y-59159577D01*
X87020943Y-59200500D01*
X87020945Y-59200500D01*
X87179055Y-59200500D01*
X87179057Y-59200500D01*
X87331784Y-59159577D01*
X87468716Y-59080520D01*
X87580520Y-58968716D01*
X87659577Y-58831784D01*
X87700500Y-58679057D01*
X87700500Y-58590076D01*
X97312051Y-58590076D01*
X97312051Y-58735026D01*
X97349567Y-58875036D01*
X97349568Y-58875039D01*
X97422039Y-59000562D01*
X97422041Y-59000564D01*
X97422042Y-59000566D01*
X97524536Y-59103060D01*
X97524537Y-59103061D01*
X97524539Y-59103062D01*
X97650062Y-59175533D01*
X97650063Y-59175533D01*
X97650066Y-59175535D01*
X97790076Y-59213051D01*
X97790079Y-59213051D01*
X97935023Y-59213051D01*
X97935026Y-59213051D01*
X98075036Y-59175535D01*
X98200566Y-59103060D01*
X98303060Y-59000566D01*
X98375535Y-58875036D01*
X98413051Y-58735026D01*
X98413051Y-58590076D01*
X98375535Y-58450066D01*
X98355742Y-58415784D01*
X98303062Y-58324539D01*
X98303057Y-58324533D01*
X98200565Y-58222041D01*
X98075039Y-58149568D01*
X98075040Y-58149568D01*
X98063557Y-58146491D01*
X98005076Y-58130821D01*
X98810591Y-58130821D01*
X98810591Y-58275771D01*
X98848107Y-58415781D01*
X98848108Y-58415784D01*
X98920579Y-58541307D01*
X98920581Y-58541309D01*
X98920582Y-58541311D01*
X99023076Y-58643805D01*
X99023077Y-58643806D01*
X99023079Y-58643807D01*
X99148602Y-58716278D01*
X99148603Y-58716278D01*
X99148606Y-58716280D01*
X99288616Y-58753796D01*
X99288619Y-58753796D01*
X99433563Y-58753796D01*
X99433566Y-58753796D01*
X99573576Y-58716280D01*
X99699106Y-58643805D01*
X99801600Y-58541311D01*
X99874075Y-58415781D01*
X99911591Y-58275771D01*
X99911591Y-58130821D01*
X99911163Y-58129222D01*
X100410618Y-58129222D01*
X100410618Y-58274172D01*
X100447679Y-58412485D01*
X100448135Y-58414185D01*
X100520606Y-58539708D01*
X100520608Y-58539710D01*
X100520609Y-58539712D01*
X100623103Y-58642206D01*
X100623104Y-58642207D01*
X100623106Y-58642208D01*
X100748629Y-58714679D01*
X100748630Y-58714679D01*
X100748633Y-58714681D01*
X100888643Y-58752197D01*
X100888646Y-58752197D01*
X101033590Y-58752197D01*
X101033593Y-58752197D01*
X101173603Y-58714681D01*
X101299133Y-58642206D01*
X101401627Y-58539712D01*
X101474102Y-58414182D01*
X101511618Y-58274172D01*
X101511618Y-58129222D01*
X101511163Y-58127525D01*
X102010740Y-58127525D01*
X102010740Y-58272475D01*
X102047777Y-58410698D01*
X102048257Y-58412488D01*
X102120728Y-58538011D01*
X102120730Y-58538013D01*
X102120731Y-58538015D01*
X102223225Y-58640509D01*
X102223226Y-58640510D01*
X102223228Y-58640511D01*
X102348751Y-58712982D01*
X102348752Y-58712982D01*
X102348755Y-58712984D01*
X102488765Y-58750500D01*
X102488768Y-58750500D01*
X102633712Y-58750500D01*
X102633715Y-58750500D01*
X102773725Y-58712984D01*
X102899255Y-58640509D01*
X103001749Y-58538015D01*
X103074224Y-58412485D01*
X103111740Y-58272475D01*
X103111740Y-58127525D01*
X103074224Y-57987515D01*
X103073188Y-57985721D01*
X103001751Y-57861988D01*
X103001746Y-57861982D01*
X102899257Y-57759493D01*
X102899251Y-57759488D01*
X102773728Y-57687017D01*
X102773729Y-57687017D01*
X102752721Y-57681388D01*
X102633715Y-57649500D01*
X102488765Y-57649500D01*
X102369759Y-57681388D01*
X102348751Y-57687017D01*
X102223228Y-57759488D01*
X102223222Y-57759493D01*
X102120733Y-57861982D01*
X102120728Y-57861988D01*
X102048257Y-57987511D01*
X102045045Y-57999500D01*
X102010740Y-58127525D01*
X101511163Y-58127525D01*
X101474102Y-57989212D01*
X101473122Y-57987515D01*
X101401629Y-57863685D01*
X101401624Y-57863679D01*
X101299135Y-57761190D01*
X101299129Y-57761185D01*
X101173606Y-57688714D01*
X101173607Y-57688714D01*
X101153588Y-57683350D01*
X101033593Y-57651197D01*
X100888643Y-57651197D01*
X100768648Y-57683350D01*
X100748629Y-57688714D01*
X100623106Y-57761185D01*
X100623100Y-57761190D01*
X100520611Y-57863679D01*
X100520606Y-57863685D01*
X100448135Y-57989208D01*
X100445932Y-57997429D01*
X100410618Y-58129222D01*
X99911163Y-58129222D01*
X99874075Y-57990811D01*
X99871136Y-57985721D01*
X99801602Y-57865284D01*
X99801597Y-57865278D01*
X99699108Y-57762789D01*
X99699102Y-57762784D01*
X99573579Y-57690313D01*
X99573580Y-57690313D01*
X99553852Y-57685027D01*
X99433566Y-57652796D01*
X99288616Y-57652796D01*
X99168330Y-57685027D01*
X99148602Y-57690313D01*
X99023079Y-57762784D01*
X99023073Y-57762789D01*
X98920584Y-57865278D01*
X98920579Y-57865284D01*
X98848108Y-57990807D01*
X98848107Y-57990811D01*
X98810591Y-58130821D01*
X98005076Y-58130821D01*
X97935026Y-58112051D01*
X97790076Y-58112051D01*
X97661544Y-58146491D01*
X97650062Y-58149568D01*
X97524539Y-58222039D01*
X97524533Y-58222044D01*
X97422044Y-58324533D01*
X97422039Y-58324539D01*
X97349568Y-58450062D01*
X97349567Y-58450066D01*
X97312051Y-58590076D01*
X87700500Y-58590076D01*
X87700500Y-58520943D01*
X87659577Y-58368216D01*
X87641564Y-58337016D01*
X87580524Y-58231290D01*
X87580518Y-58231282D01*
X87468717Y-58119481D01*
X87468709Y-58119475D01*
X87331790Y-58040426D01*
X87331786Y-58040424D01*
X87331784Y-58040423D01*
X87179057Y-57999500D01*
X87020943Y-57999500D01*
X86868216Y-58040423D01*
X86868213Y-58040424D01*
X86836497Y-58058735D01*
X86768597Y-58075205D01*
X86702571Y-58052352D01*
X86659381Y-57997429D01*
X86650500Y-57951346D01*
X86650500Y-57320943D01*
X95509213Y-57320943D01*
X95509213Y-57479057D01*
X95512364Y-57490814D01*
X95550136Y-57631783D01*
X95550139Y-57631790D01*
X95629188Y-57768709D01*
X95629192Y-57768714D01*
X95629193Y-57768716D01*
X95740997Y-57880520D01*
X95740999Y-57880521D01*
X95741003Y-57880524D01*
X95780893Y-57903554D01*
X95877929Y-57959577D01*
X96030656Y-58000500D01*
X96030658Y-58000500D01*
X96188768Y-58000500D01*
X96188770Y-58000500D01*
X96341497Y-57959577D01*
X96478429Y-57880520D01*
X96590233Y-57768716D01*
X96669290Y-57631784D01*
X96710213Y-57479057D01*
X96710213Y-57320943D01*
X96669290Y-57168216D01*
X96669286Y-57168209D01*
X96590237Y-57031290D01*
X96590231Y-57031282D01*
X96478430Y-56919481D01*
X96478422Y-56919475D01*
X96341503Y-56840426D01*
X96341499Y-56840424D01*
X96341497Y-56840423D01*
X96188770Y-56799500D01*
X96030656Y-56799500D01*
X95877929Y-56840423D01*
X95877922Y-56840426D01*
X95741003Y-56919475D01*
X95740995Y-56919481D01*
X95629194Y-57031282D01*
X95629188Y-57031290D01*
X95550139Y-57168209D01*
X95550136Y-57168216D01*
X95509213Y-57320943D01*
X86650500Y-57320943D01*
X86650500Y-54620943D01*
X87699500Y-54620943D01*
X87699500Y-54779057D01*
X87739693Y-54929057D01*
X87740423Y-54931783D01*
X87740426Y-54931790D01*
X87819475Y-55068709D01*
X87819479Y-55068714D01*
X87819480Y-55068716D01*
X87931284Y-55180520D01*
X87931286Y-55180521D01*
X87931290Y-55180524D01*
X88068209Y-55259573D01*
X88068216Y-55259577D01*
X88220943Y-55300500D01*
X88220945Y-55300500D01*
X88379055Y-55300500D01*
X88379057Y-55300500D01*
X88531784Y-55259577D01*
X88668716Y-55180520D01*
X88780520Y-55068716D01*
X88859577Y-54931784D01*
X88889277Y-54820943D01*
X89499500Y-54820943D01*
X89499500Y-54979057D01*
X89535821Y-55114607D01*
X89540423Y-55131783D01*
X89540426Y-55131790D01*
X89619475Y-55268709D01*
X89619479Y-55268714D01*
X89619480Y-55268716D01*
X89731284Y-55380520D01*
X89731286Y-55380521D01*
X89731290Y-55380524D01*
X89840898Y-55443805D01*
X89868216Y-55459577D01*
X90020943Y-55500500D01*
X90020945Y-55500500D01*
X90179055Y-55500500D01*
X90179057Y-55500500D01*
X90331784Y-55459577D01*
X90468716Y-55380520D01*
X90580520Y-55268716D01*
X90659577Y-55131784D01*
X90700500Y-54979057D01*
X90700500Y-54820943D01*
X90687103Y-54770943D01*
X92199500Y-54770943D01*
X92199500Y-54929057D01*
X92238384Y-55074172D01*
X92240423Y-55081783D01*
X92240426Y-55081790D01*
X92319475Y-55218709D01*
X92319479Y-55218714D01*
X92319480Y-55218716D01*
X92431284Y-55330520D01*
X92431286Y-55330521D01*
X92431290Y-55330524D01*
X92517887Y-55380520D01*
X92568216Y-55409577D01*
X92720943Y-55450500D01*
X92720945Y-55450500D01*
X92879055Y-55450500D01*
X92879057Y-55450500D01*
X93031784Y-55409577D01*
X93168716Y-55330520D01*
X93280520Y-55218716D01*
X93359577Y-55081784D01*
X93400027Y-54930821D01*
X98810591Y-54930821D01*
X98810591Y-55075771D01*
X98848107Y-55215781D01*
X98848108Y-55215784D01*
X98920579Y-55341307D01*
X98920581Y-55341309D01*
X98920582Y-55341311D01*
X99023076Y-55443805D01*
X99023077Y-55443806D01*
X99023079Y-55443807D01*
X99148602Y-55516278D01*
X99148603Y-55516278D01*
X99148606Y-55516280D01*
X99288616Y-55553796D01*
X99288619Y-55553796D01*
X99433563Y-55553796D01*
X99433566Y-55553796D01*
X99489948Y-55538688D01*
X99559796Y-55540351D01*
X99617658Y-55579513D01*
X99645163Y-55643741D01*
X99646040Y-55658463D01*
X99646040Y-55722475D01*
X99683556Y-55862485D01*
X99683557Y-55862486D01*
X99709611Y-55907613D01*
X99726084Y-55975514D01*
X99703232Y-56041541D01*
X99648311Y-56084731D01*
X99578757Y-56091373D01*
X99570139Y-56089391D01*
X99433566Y-56052796D01*
X99288616Y-56052796D01*
X99167587Y-56085226D01*
X99148602Y-56090313D01*
X99023079Y-56162784D01*
X99023073Y-56162789D01*
X98920584Y-56265278D01*
X98920579Y-56265284D01*
X98848108Y-56390807D01*
X98848107Y-56390811D01*
X98810591Y-56530821D01*
X98810591Y-56675771D01*
X98848107Y-56815781D01*
X98848108Y-56815784D01*
X98920579Y-56941307D01*
X98920581Y-56941309D01*
X98920582Y-56941311D01*
X99023076Y-57043805D01*
X99023077Y-57043806D01*
X99023079Y-57043807D01*
X99148602Y-57116278D01*
X99148603Y-57116278D01*
X99148606Y-57116280D01*
X99288616Y-57153796D01*
X99288619Y-57153796D01*
X99433563Y-57153796D01*
X99433566Y-57153796D01*
X99573576Y-57116280D01*
X99699106Y-57043805D01*
X99801600Y-56941311D01*
X99874075Y-56815781D01*
X99911591Y-56675771D01*
X99911591Y-56530821D01*
X99874075Y-56390811D01*
X99874073Y-56390807D01*
X99874073Y-56390806D01*
X99874072Y-56390805D01*
X99848020Y-56345682D01*
X99831546Y-56277782D01*
X99854398Y-56211755D01*
X99909319Y-56168564D01*
X99978872Y-56161922D01*
X99987471Y-56163899D01*
X100124065Y-56200500D01*
X100124068Y-56200500D01*
X100269013Y-56200500D01*
X100269015Y-56200500D01*
X100320646Y-56186665D01*
X100390493Y-56188326D01*
X100448356Y-56227488D01*
X100475862Y-56291716D01*
X100464277Y-56360618D01*
X100460127Y-56368437D01*
X100448136Y-56389206D01*
X100448135Y-56389207D01*
X100433578Y-56443534D01*
X100410618Y-56529222D01*
X100410618Y-56674172D01*
X100447679Y-56812485D01*
X100448135Y-56814185D01*
X100520606Y-56939708D01*
X100520608Y-56939710D01*
X100520609Y-56939712D01*
X100623103Y-57042206D01*
X100623104Y-57042207D01*
X100623106Y-57042208D01*
X100748629Y-57114679D01*
X100748630Y-57114679D01*
X100748633Y-57114681D01*
X100888643Y-57152197D01*
X100888646Y-57152197D01*
X101033590Y-57152197D01*
X101033593Y-57152197D01*
X101173603Y-57114681D01*
X101299133Y-57042206D01*
X101401627Y-56939712D01*
X101474102Y-56814182D01*
X101511618Y-56674172D01*
X101511618Y-56529222D01*
X101511163Y-56527525D01*
X102010740Y-56527525D01*
X102010740Y-56672475D01*
X102047777Y-56810698D01*
X102048257Y-56812488D01*
X102120728Y-56938011D01*
X102120730Y-56938013D01*
X102120731Y-56938015D01*
X102223225Y-57040509D01*
X102223226Y-57040510D01*
X102223228Y-57040511D01*
X102348751Y-57112982D01*
X102348752Y-57112982D01*
X102348755Y-57112984D01*
X102488765Y-57150500D01*
X102488768Y-57150500D01*
X102633712Y-57150500D01*
X102633715Y-57150500D01*
X102773725Y-57112984D01*
X102899255Y-57040509D01*
X103001749Y-56938015D01*
X103074224Y-56812485D01*
X103111740Y-56672475D01*
X103111740Y-56527525D01*
X103111260Y-56525735D01*
X103610965Y-56525735D01*
X103610965Y-56670685D01*
X103647453Y-56806859D01*
X103648482Y-56810698D01*
X103720953Y-56936221D01*
X103720955Y-56936223D01*
X103720956Y-56936225D01*
X103823450Y-57038719D01*
X103823451Y-57038720D01*
X103823453Y-57038721D01*
X103948976Y-57111192D01*
X103948977Y-57111192D01*
X103948980Y-57111194D01*
X104088990Y-57148710D01*
X104088993Y-57148710D01*
X104233937Y-57148710D01*
X104233940Y-57148710D01*
X104373950Y-57111194D01*
X104499480Y-57038719D01*
X104601974Y-56936225D01*
X104674449Y-56810695D01*
X104711965Y-56670685D01*
X104711965Y-56525735D01*
X104674449Y-56385725D01*
X104673365Y-56383848D01*
X104601976Y-56260198D01*
X104601971Y-56260192D01*
X104499482Y-56157703D01*
X104499476Y-56157698D01*
X104373953Y-56085227D01*
X104373954Y-56085227D01*
X104362471Y-56082150D01*
X104233940Y-56047710D01*
X104088990Y-56047710D01*
X103960458Y-56082150D01*
X103948976Y-56085227D01*
X103823453Y-56157698D01*
X103823447Y-56157703D01*
X103720958Y-56260192D01*
X103720953Y-56260198D01*
X103648482Y-56385721D01*
X103647119Y-56390807D01*
X103610965Y-56525735D01*
X103111260Y-56525735D01*
X103074224Y-56387515D01*
X103073188Y-56385721D01*
X103001751Y-56261988D01*
X103001746Y-56261982D01*
X102899257Y-56159493D01*
X102899251Y-56159488D01*
X102773728Y-56087017D01*
X102773729Y-56087017D01*
X102752721Y-56081388D01*
X102633715Y-56049500D01*
X102488765Y-56049500D01*
X102369759Y-56081388D01*
X102348751Y-56087017D01*
X102223228Y-56159488D01*
X102223222Y-56159493D01*
X102120733Y-56261982D01*
X102120728Y-56261988D01*
X102048257Y-56387511D01*
X102048256Y-56387515D01*
X102010740Y-56527525D01*
X101511163Y-56527525D01*
X101474102Y-56389212D01*
X101473122Y-56387515D01*
X101401629Y-56263685D01*
X101401624Y-56263679D01*
X101299135Y-56161190D01*
X101299129Y-56161185D01*
X101173606Y-56088714D01*
X101173607Y-56088714D01*
X101153588Y-56083350D01*
X101033593Y-56051197D01*
X100888643Y-56051197D01*
X100837011Y-56065032D01*
X100767161Y-56063369D01*
X100709299Y-56024206D01*
X100681795Y-55959978D01*
X100693382Y-55891076D01*
X100697520Y-55883274D01*
X100709524Y-55862485D01*
X100747040Y-55722475D01*
X100747040Y-55674949D01*
X100766725Y-55607910D01*
X100819529Y-55562155D01*
X100880516Y-55553017D01*
X100880516Y-55552197D01*
X100885990Y-55552197D01*
X100887231Y-55552011D01*
X100888643Y-55552197D01*
X101033590Y-55552197D01*
X101033593Y-55552197D01*
X101173603Y-55514681D01*
X101299133Y-55442206D01*
X101401627Y-55339712D01*
X101474102Y-55214182D01*
X101511618Y-55074172D01*
X101511618Y-54929222D01*
X101477444Y-54801684D01*
X101479107Y-54731836D01*
X101518269Y-54673973D01*
X101582498Y-54646469D01*
X101629310Y-54649817D01*
X101687643Y-54665448D01*
X101687645Y-54665448D01*
X101832589Y-54665448D01*
X101832593Y-54665448D01*
X101892722Y-54649336D01*
X101962568Y-54650999D01*
X102020431Y-54690161D01*
X102047936Y-54754389D01*
X102044588Y-54801203D01*
X102010740Y-54927525D01*
X102010740Y-55072475D01*
X102047777Y-55210698D01*
X102048257Y-55212488D01*
X102120728Y-55338011D01*
X102120730Y-55338013D01*
X102120731Y-55338015D01*
X102223225Y-55440509D01*
X102223226Y-55440510D01*
X102223228Y-55440511D01*
X102348751Y-55512982D01*
X102348752Y-55512982D01*
X102348755Y-55512984D01*
X102488765Y-55550500D01*
X102488768Y-55550500D01*
X102633712Y-55550500D01*
X102633715Y-55550500D01*
X102773725Y-55512984D01*
X102899255Y-55440509D01*
X103001749Y-55338015D01*
X103074224Y-55212485D01*
X103111740Y-55072475D01*
X103111740Y-54927525D01*
X103111260Y-54925735D01*
X103610965Y-54925735D01*
X103610965Y-55070685D01*
X103647453Y-55206859D01*
X103648482Y-55210698D01*
X103720953Y-55336221D01*
X103720955Y-55336223D01*
X103720956Y-55336225D01*
X103823450Y-55438719D01*
X103823451Y-55438720D01*
X103823453Y-55438721D01*
X103948976Y-55511192D01*
X103948977Y-55511192D01*
X103948980Y-55511194D01*
X104088990Y-55548710D01*
X104088993Y-55548710D01*
X104233937Y-55548710D01*
X104233940Y-55548710D01*
X104373950Y-55511194D01*
X104499480Y-55438719D01*
X104601974Y-55336225D01*
X104674449Y-55210695D01*
X104711965Y-55070685D01*
X104711965Y-54925735D01*
X104711462Y-54923858D01*
X105211294Y-54923858D01*
X105211294Y-55068808D01*
X105241229Y-55180524D01*
X105248811Y-55208821D01*
X105321282Y-55334344D01*
X105321284Y-55334346D01*
X105321285Y-55334348D01*
X105423779Y-55436842D01*
X105423780Y-55436843D01*
X105423782Y-55436844D01*
X105549305Y-55509315D01*
X105549306Y-55509315D01*
X105549309Y-55509317D01*
X105689319Y-55546833D01*
X105689322Y-55546833D01*
X105834266Y-55546833D01*
X105834269Y-55546833D01*
X105974279Y-55509317D01*
X106099809Y-55436842D01*
X106202303Y-55334348D01*
X106274778Y-55208818D01*
X106312294Y-55068808D01*
X106312294Y-54923858D01*
X106311768Y-54921896D01*
X106811729Y-54921896D01*
X106811729Y-55066846D01*
X106848131Y-55202698D01*
X106849246Y-55206859D01*
X106921717Y-55332382D01*
X106921719Y-55332384D01*
X106921720Y-55332386D01*
X107024214Y-55434880D01*
X107024215Y-55434881D01*
X107024217Y-55434882D01*
X107149740Y-55507353D01*
X107149741Y-55507353D01*
X107149744Y-55507355D01*
X107289754Y-55544871D01*
X107289757Y-55544871D01*
X107434701Y-55544871D01*
X107434704Y-55544871D01*
X107574714Y-55507355D01*
X107700244Y-55434880D01*
X107802738Y-55332386D01*
X107875213Y-55206856D01*
X107912729Y-55066846D01*
X107912729Y-54921896D01*
X107912182Y-54919854D01*
X108412272Y-54919854D01*
X108412272Y-55064804D01*
X108447887Y-55197718D01*
X108449789Y-55204817D01*
X108522260Y-55330340D01*
X108522262Y-55330342D01*
X108522263Y-55330344D01*
X108624757Y-55432838D01*
X108624758Y-55432839D01*
X108624760Y-55432840D01*
X108750283Y-55505311D01*
X108750284Y-55505311D01*
X108750287Y-55505313D01*
X108890297Y-55542829D01*
X108890300Y-55542829D01*
X109035244Y-55542829D01*
X109035247Y-55542829D01*
X109175257Y-55505313D01*
X109300787Y-55432838D01*
X109403281Y-55330344D01*
X109475756Y-55204814D01*
X109513272Y-55064804D01*
X109513272Y-54919854D01*
X109512705Y-54917738D01*
X110012926Y-54917738D01*
X110012926Y-55062688D01*
X110049108Y-55197718D01*
X110050443Y-55202701D01*
X110122914Y-55328224D01*
X110122916Y-55328226D01*
X110122917Y-55328228D01*
X110225411Y-55430722D01*
X110225412Y-55430723D01*
X110225414Y-55430724D01*
X110350937Y-55503195D01*
X110350938Y-55503195D01*
X110350941Y-55503197D01*
X110490951Y-55540713D01*
X110490954Y-55540713D01*
X110635898Y-55540713D01*
X110635901Y-55540713D01*
X110775911Y-55503197D01*
X110901441Y-55430722D01*
X111003935Y-55328228D01*
X111076410Y-55202698D01*
X111113926Y-55062688D01*
X111113926Y-54917738D01*
X111076410Y-54777728D01*
X111011584Y-54665447D01*
X111003937Y-54652201D01*
X111003932Y-54652195D01*
X110901443Y-54549706D01*
X110901437Y-54549701D01*
X110775914Y-54477230D01*
X110775915Y-54477230D01*
X110742248Y-54468209D01*
X110635901Y-54439713D01*
X110490951Y-54439713D01*
X110384604Y-54468209D01*
X110350937Y-54477230D01*
X110225414Y-54549701D01*
X110225408Y-54549706D01*
X110122919Y-54652195D01*
X110122914Y-54652201D01*
X110050443Y-54777724D01*
X110050442Y-54777728D01*
X110012926Y-54917738D01*
X109512705Y-54917738D01*
X109475756Y-54779844D01*
X109475300Y-54779055D01*
X109403283Y-54654317D01*
X109403278Y-54654311D01*
X109300789Y-54551822D01*
X109300783Y-54551817D01*
X109175260Y-54479346D01*
X109175261Y-54479346D01*
X109133697Y-54468209D01*
X109035247Y-54441829D01*
X108890297Y-54441829D01*
X108791847Y-54468209D01*
X108750283Y-54479346D01*
X108624760Y-54551817D01*
X108624754Y-54551822D01*
X108522265Y-54654311D01*
X108522260Y-54654317D01*
X108449789Y-54779840D01*
X108447279Y-54789208D01*
X108412272Y-54919854D01*
X107912182Y-54919854D01*
X107875213Y-54781886D01*
X107872812Y-54777728D01*
X107802740Y-54656359D01*
X107802735Y-54656353D01*
X107700246Y-54553864D01*
X107700240Y-54553859D01*
X107574717Y-54481388D01*
X107574718Y-54481388D01*
X107559196Y-54477229D01*
X107434704Y-54443871D01*
X107289754Y-54443871D01*
X107165262Y-54477229D01*
X107149740Y-54481388D01*
X107024217Y-54553859D01*
X107024211Y-54553864D01*
X106921722Y-54656353D01*
X106921717Y-54656359D01*
X106849246Y-54781882D01*
X106845755Y-54794909D01*
X106811729Y-54921896D01*
X106311768Y-54921896D01*
X106274778Y-54783848D01*
X106273645Y-54781886D01*
X106202305Y-54658321D01*
X106202300Y-54658315D01*
X106099811Y-54555826D01*
X106099805Y-54555821D01*
X105974282Y-54483350D01*
X105974283Y-54483350D01*
X105951439Y-54477229D01*
X105834269Y-54445833D01*
X105689319Y-54445833D01*
X105572149Y-54477229D01*
X105549305Y-54483350D01*
X105423782Y-54555821D01*
X105423776Y-54555826D01*
X105321287Y-54658315D01*
X105321282Y-54658321D01*
X105248811Y-54783844D01*
X105248810Y-54783848D01*
X105211294Y-54923858D01*
X104711462Y-54923858D01*
X104674449Y-54785725D01*
X104673365Y-54783848D01*
X104601976Y-54660198D01*
X104601971Y-54660192D01*
X104499482Y-54557703D01*
X104499476Y-54557698D01*
X104373953Y-54485227D01*
X104373954Y-54485227D01*
X104362471Y-54482150D01*
X104233940Y-54447710D01*
X104088990Y-54447710D01*
X103960458Y-54482150D01*
X103948976Y-54485227D01*
X103823453Y-54557698D01*
X103823447Y-54557703D01*
X103720958Y-54660192D01*
X103720953Y-54660198D01*
X103648482Y-54785721D01*
X103648481Y-54785725D01*
X103610965Y-54925735D01*
X103111260Y-54925735D01*
X103074224Y-54787515D01*
X103073188Y-54785721D01*
X103001751Y-54661988D01*
X103001746Y-54661982D01*
X102899257Y-54559493D01*
X102899251Y-54559488D01*
X102773728Y-54487017D01*
X102773729Y-54487017D01*
X102752721Y-54481388D01*
X102633715Y-54449500D01*
X102488765Y-54449500D01*
X102488763Y-54449500D01*
X102428636Y-54465611D01*
X102358787Y-54463948D01*
X102300924Y-54424785D01*
X102273421Y-54360556D01*
X102276768Y-54313750D01*
X102310618Y-54187423D01*
X102310618Y-54042473D01*
X102310618Y-54034346D01*
X102313140Y-54034346D01*
X102321955Y-53977802D01*
X102368333Y-53925545D01*
X102435602Y-53906657D01*
X102466221Y-53910873D01*
X102500383Y-53920027D01*
X102500385Y-53920027D01*
X102645330Y-53920027D01*
X102645333Y-53920027D01*
X102785343Y-53882511D01*
X102910873Y-53810036D01*
X103013367Y-53707542D01*
X103085842Y-53582012D01*
X103123358Y-53442002D01*
X103123358Y-53297052D01*
X103096598Y-53197183D01*
X103098261Y-53127337D01*
X103137423Y-53069475D01*
X103201651Y-53041970D01*
X103270554Y-53053556D01*
X103278374Y-53057706D01*
X103287515Y-53062984D01*
X103427525Y-53100500D01*
X103427528Y-53100500D01*
X103513424Y-53100500D01*
X103580463Y-53120185D01*
X103626218Y-53172989D01*
X103636162Y-53242147D01*
X103633199Y-53256593D01*
X103622358Y-53297052D01*
X103622358Y-53442002D01*
X103656312Y-53568717D01*
X103659875Y-53582015D01*
X103732346Y-53707538D01*
X103732348Y-53707540D01*
X103732349Y-53707542D01*
X103834843Y-53810036D01*
X103834844Y-53810037D01*
X103834846Y-53810038D01*
X103960369Y-53882509D01*
X103960370Y-53882509D01*
X103960373Y-53882511D01*
X104100383Y-53920027D01*
X104100386Y-53920027D01*
X104245330Y-53920027D01*
X104245333Y-53920027D01*
X104385343Y-53882511D01*
X104510873Y-53810036D01*
X104613367Y-53707542D01*
X104685842Y-53582012D01*
X104723358Y-53442002D01*
X104723358Y-53297052D01*
X105222358Y-53297052D01*
X105222358Y-53442002D01*
X105256312Y-53568717D01*
X105259875Y-53582015D01*
X105332346Y-53707538D01*
X105332348Y-53707540D01*
X105332349Y-53707542D01*
X105434843Y-53810036D01*
X105434844Y-53810037D01*
X105434846Y-53810038D01*
X105560369Y-53882509D01*
X105560370Y-53882509D01*
X105560373Y-53882511D01*
X105700383Y-53920027D01*
X105700386Y-53920027D01*
X105845330Y-53920027D01*
X105845333Y-53920027D01*
X105985343Y-53882511D01*
X106110873Y-53810036D01*
X106213367Y-53707542D01*
X106285842Y-53582012D01*
X106323358Y-53442002D01*
X106323358Y-53297052D01*
X106822358Y-53297052D01*
X106822358Y-53442002D01*
X106856312Y-53568717D01*
X106859875Y-53582015D01*
X106932346Y-53707538D01*
X106932348Y-53707540D01*
X106932349Y-53707542D01*
X107034843Y-53810036D01*
X107034844Y-53810037D01*
X107034846Y-53810038D01*
X107160369Y-53882509D01*
X107160370Y-53882509D01*
X107160373Y-53882511D01*
X107300383Y-53920027D01*
X107300386Y-53920027D01*
X107445330Y-53920027D01*
X107445333Y-53920027D01*
X107585343Y-53882511D01*
X107710873Y-53810036D01*
X107813367Y-53707542D01*
X107885842Y-53582012D01*
X107923358Y-53442002D01*
X107923358Y-53297052D01*
X108422358Y-53297052D01*
X108422358Y-53442002D01*
X108456312Y-53568717D01*
X108459875Y-53582015D01*
X108532346Y-53707538D01*
X108532348Y-53707540D01*
X108532349Y-53707542D01*
X108634843Y-53810036D01*
X108634844Y-53810037D01*
X108634846Y-53810038D01*
X108760369Y-53882509D01*
X108760370Y-53882509D01*
X108760373Y-53882511D01*
X108900383Y-53920027D01*
X108900386Y-53920027D01*
X109045330Y-53920027D01*
X109045333Y-53920027D01*
X109185343Y-53882511D01*
X109310873Y-53810036D01*
X109413367Y-53707542D01*
X109485842Y-53582012D01*
X109523358Y-53442002D01*
X109523358Y-53297052D01*
X110022358Y-53297052D01*
X110022358Y-53442002D01*
X110056312Y-53568717D01*
X110059875Y-53582015D01*
X110132346Y-53707538D01*
X110132348Y-53707540D01*
X110132349Y-53707542D01*
X110234843Y-53810036D01*
X110234844Y-53810037D01*
X110234846Y-53810038D01*
X110360369Y-53882509D01*
X110360370Y-53882509D01*
X110360373Y-53882511D01*
X110500383Y-53920027D01*
X110500386Y-53920027D01*
X110645330Y-53920027D01*
X110645333Y-53920027D01*
X110785343Y-53882511D01*
X110910873Y-53810036D01*
X111013367Y-53707542D01*
X111085842Y-53582012D01*
X111123358Y-53442002D01*
X111123358Y-53297052D01*
X111085842Y-53157042D01*
X111065001Y-53120945D01*
X111013369Y-53031515D01*
X111013364Y-53031509D01*
X110910875Y-52929020D01*
X110910869Y-52929015D01*
X110785346Y-52856544D01*
X110785347Y-52856544D01*
X110773864Y-52853467D01*
X110645333Y-52819027D01*
X110500383Y-52819027D01*
X110371851Y-52853467D01*
X110360369Y-52856544D01*
X110234846Y-52929015D01*
X110234840Y-52929020D01*
X110132351Y-53031509D01*
X110132346Y-53031515D01*
X110059875Y-53157038D01*
X110059874Y-53157042D01*
X110022358Y-53297052D01*
X109523358Y-53297052D01*
X109485842Y-53157042D01*
X109465001Y-53120945D01*
X109413369Y-53031515D01*
X109413364Y-53031509D01*
X109310875Y-52929020D01*
X109310869Y-52929015D01*
X109185346Y-52856544D01*
X109185347Y-52856544D01*
X109173864Y-52853467D01*
X109045333Y-52819027D01*
X108900383Y-52819027D01*
X108771851Y-52853467D01*
X108760369Y-52856544D01*
X108634846Y-52929015D01*
X108634840Y-52929020D01*
X108532351Y-53031509D01*
X108532346Y-53031515D01*
X108459875Y-53157038D01*
X108459874Y-53157042D01*
X108422358Y-53297052D01*
X107923358Y-53297052D01*
X107885842Y-53157042D01*
X107865001Y-53120945D01*
X107813369Y-53031515D01*
X107813364Y-53031509D01*
X107710875Y-52929020D01*
X107710869Y-52929015D01*
X107585346Y-52856544D01*
X107585347Y-52856544D01*
X107573864Y-52853467D01*
X107445333Y-52819027D01*
X107300383Y-52819027D01*
X107171851Y-52853467D01*
X107160369Y-52856544D01*
X107034846Y-52929015D01*
X107034840Y-52929020D01*
X106932351Y-53031509D01*
X106932346Y-53031515D01*
X106859875Y-53157038D01*
X106859874Y-53157042D01*
X106822358Y-53297052D01*
X106323358Y-53297052D01*
X106285842Y-53157042D01*
X106265001Y-53120945D01*
X106213369Y-53031515D01*
X106213364Y-53031509D01*
X106110875Y-52929020D01*
X106110869Y-52929015D01*
X105985346Y-52856544D01*
X105985347Y-52856544D01*
X105973864Y-52853467D01*
X105845333Y-52819027D01*
X105700383Y-52819027D01*
X105571851Y-52853467D01*
X105560369Y-52856544D01*
X105434846Y-52929015D01*
X105434840Y-52929020D01*
X105332351Y-53031509D01*
X105332346Y-53031515D01*
X105259875Y-53157038D01*
X105259874Y-53157042D01*
X105222358Y-53297052D01*
X104723358Y-53297052D01*
X104685842Y-53157042D01*
X104665001Y-53120945D01*
X104613369Y-53031515D01*
X104613364Y-53031509D01*
X104510875Y-52929020D01*
X104510869Y-52929015D01*
X104385346Y-52856544D01*
X104385347Y-52856544D01*
X104373864Y-52853467D01*
X104245333Y-52819027D01*
X104159434Y-52819027D01*
X104092395Y-52799342D01*
X104046640Y-52746538D01*
X104036696Y-52677380D01*
X104039659Y-52662934D01*
X104040314Y-52660485D01*
X104050500Y-52622475D01*
X104050500Y-52477525D01*
X104012984Y-52337515D01*
X103991613Y-52300500D01*
X103940511Y-52211988D01*
X103940506Y-52211982D01*
X103838017Y-52109493D01*
X103838011Y-52109488D01*
X103712488Y-52037017D01*
X103712489Y-52037017D01*
X103701006Y-52033940D01*
X103572475Y-51999500D01*
X103427525Y-51999500D01*
X103298993Y-52033940D01*
X103287511Y-52037017D01*
X103161988Y-52109488D01*
X103161982Y-52109493D01*
X103059493Y-52211982D01*
X103059488Y-52211988D01*
X102987017Y-52337511D01*
X102987016Y-52337515D01*
X102949500Y-52477525D01*
X102949500Y-52477527D01*
X102949500Y-52622474D01*
X102976259Y-52722340D01*
X102974596Y-52792189D01*
X102935433Y-52850052D01*
X102871205Y-52877556D01*
X102802303Y-52865970D01*
X102794484Y-52861820D01*
X102785346Y-52856544D01*
X102785347Y-52856544D01*
X102773864Y-52853467D01*
X102645333Y-52819027D01*
X102500383Y-52819027D01*
X102371851Y-52853467D01*
X102360369Y-52856544D01*
X102234846Y-52929015D01*
X102234840Y-52929020D01*
X102132351Y-53031509D01*
X102132346Y-53031515D01*
X102059875Y-53157038D01*
X102059874Y-53157042D01*
X102022358Y-53297052D01*
X102022358Y-53297054D01*
X102022358Y-53450129D01*
X102019840Y-53450129D01*
X102011007Y-53506697D01*
X101964617Y-53558944D01*
X101897345Y-53577817D01*
X101866754Y-53573601D01*
X101832593Y-53564448D01*
X101687643Y-53564448D01*
X101679448Y-53566644D01*
X101609599Y-53564979D01*
X101551737Y-53525815D01*
X101524235Y-53461586D01*
X101523358Y-53446868D01*
X101523358Y-53297054D01*
X101523358Y-53297052D01*
X101485842Y-53157042D01*
X101465001Y-53120945D01*
X101413369Y-53031515D01*
X101413364Y-53031509D01*
X101310875Y-52929020D01*
X101310869Y-52929015D01*
X101185346Y-52856544D01*
X101185347Y-52856544D01*
X101173864Y-52853467D01*
X101045333Y-52819027D01*
X100900383Y-52819027D01*
X100771851Y-52853467D01*
X100760369Y-52856544D01*
X100634846Y-52929015D01*
X100634840Y-52929020D01*
X100532351Y-53031509D01*
X100532346Y-53031515D01*
X100459875Y-53157038D01*
X100459874Y-53157042D01*
X100422358Y-53297052D01*
X100422358Y-53442002D01*
X100456312Y-53568717D01*
X100459875Y-53582015D01*
X100532346Y-53707538D01*
X100532348Y-53707540D01*
X100532349Y-53707542D01*
X100634843Y-53810036D01*
X100634844Y-53810037D01*
X100634846Y-53810038D01*
X100760369Y-53882509D01*
X100760370Y-53882509D01*
X100760373Y-53882511D01*
X100900383Y-53920027D01*
X100900386Y-53920027D01*
X101045330Y-53920027D01*
X101045333Y-53920027D01*
X101053524Y-53917832D01*
X101123370Y-53919493D01*
X101181234Y-53958653D01*
X101208741Y-54022881D01*
X101209618Y-54037606D01*
X101209618Y-54187422D01*
X101243791Y-54314959D01*
X101242128Y-54384809D01*
X101202965Y-54442671D01*
X101138737Y-54470175D01*
X101091925Y-54466827D01*
X101033593Y-54451197D01*
X100888643Y-54451197D01*
X100768648Y-54483350D01*
X100748629Y-54488714D01*
X100623106Y-54561185D01*
X100623100Y-54561190D01*
X100520611Y-54663679D01*
X100520606Y-54663685D01*
X100448135Y-54789208D01*
X100446607Y-54794909D01*
X100410618Y-54929222D01*
X100410618Y-54929224D01*
X100410618Y-54976747D01*
X100390933Y-55043786D01*
X100338129Y-55089541D01*
X100277142Y-55098682D01*
X100277142Y-55099500D01*
X100271688Y-55099500D01*
X100270440Y-55099687D01*
X100269019Y-55099500D01*
X100269015Y-55099500D01*
X100124065Y-55099500D01*
X100124063Y-55099500D01*
X100067683Y-55114607D01*
X99997834Y-55112944D01*
X99939971Y-55073781D01*
X99912468Y-55009552D01*
X99911591Y-54994832D01*
X99911591Y-54930823D01*
X99911591Y-54930821D01*
X99874075Y-54790811D01*
X99871136Y-54785721D01*
X99801602Y-54665284D01*
X99801597Y-54665278D01*
X99699108Y-54562789D01*
X99699102Y-54562784D01*
X99573579Y-54490313D01*
X99573580Y-54490313D01*
X99554595Y-54485226D01*
X99433566Y-54452796D01*
X99288616Y-54452796D01*
X99167587Y-54485226D01*
X99148602Y-54490313D01*
X99023079Y-54562784D01*
X99023073Y-54562789D01*
X98920584Y-54665278D01*
X98920579Y-54665284D01*
X98848108Y-54790807D01*
X98848107Y-54790811D01*
X98810591Y-54930821D01*
X93400027Y-54930821D01*
X93400500Y-54929057D01*
X93400500Y-54770943D01*
X93359577Y-54618216D01*
X93327577Y-54562789D01*
X93280524Y-54481290D01*
X93280518Y-54481282D01*
X93168717Y-54369481D01*
X93168709Y-54369475D01*
X93031790Y-54290426D01*
X93031786Y-54290424D01*
X93031784Y-54290423D01*
X92879057Y-54249500D01*
X92720943Y-54249500D01*
X92568216Y-54290423D01*
X92568209Y-54290426D01*
X92431290Y-54369475D01*
X92431282Y-54369481D01*
X92319481Y-54481282D01*
X92319475Y-54481290D01*
X92240426Y-54618209D01*
X92240423Y-54618216D01*
X92199500Y-54770943D01*
X90687103Y-54770943D01*
X90659577Y-54668216D01*
X90657884Y-54665284D01*
X90580524Y-54531290D01*
X90580518Y-54531282D01*
X90468717Y-54419481D01*
X90468709Y-54419475D01*
X90331790Y-54340426D01*
X90331786Y-54340424D01*
X90331784Y-54340423D01*
X90179057Y-54299500D01*
X90020943Y-54299500D01*
X89868216Y-54340423D01*
X89868209Y-54340426D01*
X89731290Y-54419475D01*
X89731282Y-54419481D01*
X89619481Y-54531282D01*
X89619475Y-54531290D01*
X89540426Y-54668209D01*
X89540424Y-54668214D01*
X89540423Y-54668216D01*
X89499500Y-54820943D01*
X88889277Y-54820943D01*
X88900500Y-54779057D01*
X88900500Y-54620943D01*
X88859577Y-54468216D01*
X88849751Y-54451197D01*
X88780524Y-54331290D01*
X88780518Y-54331282D01*
X88668717Y-54219481D01*
X88668709Y-54219475D01*
X88531790Y-54140426D01*
X88531786Y-54140424D01*
X88531784Y-54140423D01*
X88379057Y-54099500D01*
X88220943Y-54099500D01*
X88068216Y-54140423D01*
X88068209Y-54140426D01*
X87931290Y-54219475D01*
X87931282Y-54219481D01*
X87819481Y-54331282D01*
X87819475Y-54331290D01*
X87740426Y-54468209D01*
X87740423Y-54468216D01*
X87699500Y-54620943D01*
X86650500Y-54620943D01*
X86650500Y-53120943D01*
X90549500Y-53120943D01*
X90549500Y-53279057D01*
X90554323Y-53297054D01*
X90590423Y-53431783D01*
X90590426Y-53431790D01*
X90669475Y-53568709D01*
X90669479Y-53568714D01*
X90669480Y-53568716D01*
X90781284Y-53680520D01*
X90781286Y-53680521D01*
X90781290Y-53680524D01*
X90848701Y-53719443D01*
X90918216Y-53759577D01*
X91070943Y-53800500D01*
X91070945Y-53800500D01*
X91229055Y-53800500D01*
X91229057Y-53800500D01*
X91381784Y-53759577D01*
X91518716Y-53680520D01*
X91630520Y-53568716D01*
X91709577Y-53431784D01*
X91742490Y-53308951D01*
X98819604Y-53308951D01*
X98819604Y-53453901D01*
X98857120Y-53593911D01*
X98857121Y-53593914D01*
X98929592Y-53719437D01*
X98929594Y-53719439D01*
X98929595Y-53719441D01*
X99032089Y-53821935D01*
X99032090Y-53821936D01*
X99032092Y-53821937D01*
X99157615Y-53894408D01*
X99157616Y-53894408D01*
X99157619Y-53894410D01*
X99297629Y-53931926D01*
X99297632Y-53931926D01*
X99442576Y-53931926D01*
X99442579Y-53931926D01*
X99582589Y-53894410D01*
X99708119Y-53821935D01*
X99810613Y-53719441D01*
X99883088Y-53593911D01*
X99920604Y-53453901D01*
X99920604Y-53308951D01*
X99883088Y-53168941D01*
X99855377Y-53120945D01*
X99810615Y-53043414D01*
X99810610Y-53043408D01*
X99708121Y-52940919D01*
X99708115Y-52940914D01*
X99582592Y-52868443D01*
X99582593Y-52868443D01*
X99571110Y-52865366D01*
X99442579Y-52830926D01*
X99297629Y-52830926D01*
X99169097Y-52865366D01*
X99157615Y-52868443D01*
X99032092Y-52940914D01*
X99032086Y-52940919D01*
X98929597Y-53043408D01*
X98929592Y-53043414D01*
X98857121Y-53168937D01*
X98857120Y-53168941D01*
X98819604Y-53308951D01*
X91742490Y-53308951D01*
X91750500Y-53279057D01*
X91750500Y-53120943D01*
X91709577Y-52968216D01*
X91693814Y-52940914D01*
X91630524Y-52831290D01*
X91630518Y-52831282D01*
X91518717Y-52719481D01*
X91518709Y-52719475D01*
X91381790Y-52640426D01*
X91381786Y-52640424D01*
X91381784Y-52640423D01*
X91229057Y-52599500D01*
X91070943Y-52599500D01*
X90918216Y-52640423D01*
X90918209Y-52640426D01*
X90781290Y-52719475D01*
X90781282Y-52719481D01*
X90669481Y-52831282D01*
X90669475Y-52831290D01*
X90590426Y-52968209D01*
X90590423Y-52968216D01*
X90549500Y-53120943D01*
X86650500Y-53120943D01*
X86650500Y-51620943D01*
X87699500Y-51620943D01*
X87699500Y-51779057D01*
X87710724Y-51820943D01*
X87740423Y-51931783D01*
X87740426Y-51931790D01*
X87819475Y-52068709D01*
X87819479Y-52068714D01*
X87819480Y-52068716D01*
X87931284Y-52180520D01*
X87931286Y-52180521D01*
X87931290Y-52180524D01*
X88068209Y-52259573D01*
X88068216Y-52259577D01*
X88220943Y-52300500D01*
X88220945Y-52300500D01*
X88379055Y-52300500D01*
X88379057Y-52300500D01*
X88531784Y-52259577D01*
X88668716Y-52180520D01*
X88780520Y-52068716D01*
X88859577Y-51931784D01*
X88889277Y-51820943D01*
X92199500Y-51820943D01*
X92199500Y-51979057D01*
X92232041Y-52100500D01*
X92240423Y-52131783D01*
X92240426Y-52131790D01*
X92319475Y-52268709D01*
X92319479Y-52268714D01*
X92319480Y-52268716D01*
X92431284Y-52380520D01*
X92431286Y-52380521D01*
X92431290Y-52380524D01*
X92568209Y-52459573D01*
X92568216Y-52459577D01*
X92720943Y-52500500D01*
X92720945Y-52500500D01*
X92879055Y-52500500D01*
X92879057Y-52500500D01*
X93031784Y-52459577D01*
X93168716Y-52380520D01*
X93280520Y-52268716D01*
X93359577Y-52131784D01*
X93400500Y-51979057D01*
X93400500Y-51820943D01*
X93359577Y-51668216D01*
X93304647Y-51573073D01*
X93280586Y-51531398D01*
X93280585Y-51531397D01*
X93280520Y-51531284D01*
X93226761Y-51477525D01*
X97849500Y-51477525D01*
X97849500Y-51622475D01*
X97887016Y-51762485D01*
X97887017Y-51762488D01*
X97959488Y-51888011D01*
X97959490Y-51888013D01*
X97959491Y-51888015D01*
X98061985Y-51990509D01*
X98061986Y-51990510D01*
X98061988Y-51990511D01*
X98187511Y-52062982D01*
X98187512Y-52062982D01*
X98187515Y-52062984D01*
X98327525Y-52100500D01*
X98327528Y-52100500D01*
X98472472Y-52100500D01*
X98472475Y-52100500D01*
X98612485Y-52062984D01*
X98738015Y-51990509D01*
X98840509Y-51888015D01*
X98912984Y-51762485D01*
X98935749Y-51677525D01*
X104049500Y-51677525D01*
X104049500Y-51822475D01*
X104087016Y-51962485D01*
X104087017Y-51962488D01*
X104159488Y-52088011D01*
X104159490Y-52088013D01*
X104159491Y-52088015D01*
X104261985Y-52190509D01*
X104261986Y-52190510D01*
X104261988Y-52190511D01*
X104387511Y-52262982D01*
X104387512Y-52262982D01*
X104387515Y-52262984D01*
X104527525Y-52300500D01*
X104527528Y-52300500D01*
X104672472Y-52300500D01*
X104672475Y-52300500D01*
X104812485Y-52262984D01*
X104938015Y-52190509D01*
X105040509Y-52088015D01*
X105112984Y-51962485D01*
X105150500Y-51822475D01*
X105150500Y-51677525D01*
X105112984Y-51537515D01*
X105109452Y-51531398D01*
X105040511Y-51411988D01*
X105040506Y-51411982D01*
X104938017Y-51309493D01*
X104938011Y-51309488D01*
X104900989Y-51288113D01*
X106037986Y-51288113D01*
X106037986Y-51433063D01*
X106075502Y-51573073D01*
X106075503Y-51573076D01*
X106147974Y-51698599D01*
X106147976Y-51698601D01*
X106147977Y-51698603D01*
X106250471Y-51801097D01*
X106250472Y-51801098D01*
X106250474Y-51801099D01*
X106375997Y-51873570D01*
X106375998Y-51873570D01*
X106376001Y-51873572D01*
X106516011Y-51911088D01*
X106516014Y-51911088D01*
X106660958Y-51911088D01*
X106660961Y-51911088D01*
X106800971Y-51873572D01*
X106926501Y-51801097D01*
X107028995Y-51698603D01*
X107101470Y-51573073D01*
X107138986Y-51433063D01*
X107138986Y-51288113D01*
X107101470Y-51148103D01*
X107079178Y-51109493D01*
X107028997Y-51022576D01*
X107028992Y-51022570D01*
X106926503Y-50920081D01*
X106926497Y-50920076D01*
X106800974Y-50847605D01*
X106800975Y-50847605D01*
X106789492Y-50844528D01*
X106660961Y-50810088D01*
X106516011Y-50810088D01*
X106387479Y-50844528D01*
X106375997Y-50847605D01*
X106250474Y-50920076D01*
X106250468Y-50920081D01*
X106147979Y-51022570D01*
X106147974Y-51022576D01*
X106075503Y-51148099D01*
X106075502Y-51148103D01*
X106037986Y-51288113D01*
X104900989Y-51288113D01*
X104812488Y-51237017D01*
X104812489Y-51237017D01*
X104801006Y-51233940D01*
X104672475Y-51199500D01*
X104527525Y-51199500D01*
X104398993Y-51233940D01*
X104387511Y-51237017D01*
X104261988Y-51309488D01*
X104261982Y-51309493D01*
X104159493Y-51411982D01*
X104159488Y-51411988D01*
X104087017Y-51537511D01*
X104087016Y-51537515D01*
X104049500Y-51677525D01*
X98935749Y-51677525D01*
X98950500Y-51622475D01*
X98950500Y-51477525D01*
X98912984Y-51337515D01*
X98909385Y-51331282D01*
X98840511Y-51211988D01*
X98840506Y-51211982D01*
X98738017Y-51109493D01*
X98738011Y-51109488D01*
X98612488Y-51037017D01*
X98612489Y-51037017D01*
X98601006Y-51033940D01*
X98472475Y-50999500D01*
X98327525Y-50999500D01*
X98198993Y-51033940D01*
X98187511Y-51037017D01*
X98061988Y-51109488D01*
X98061982Y-51109493D01*
X97959493Y-51211982D01*
X97959488Y-51211988D01*
X97887017Y-51337511D01*
X97887016Y-51337515D01*
X97849500Y-51477525D01*
X93226761Y-51477525D01*
X93168716Y-51419480D01*
X93168714Y-51419479D01*
X93168709Y-51419475D01*
X93031790Y-51340426D01*
X93031786Y-51340424D01*
X93031784Y-51340423D01*
X92879057Y-51299500D01*
X92720943Y-51299500D01*
X92568216Y-51340423D01*
X92568209Y-51340426D01*
X92431290Y-51419475D01*
X92431282Y-51419481D01*
X92319481Y-51531282D01*
X92319475Y-51531290D01*
X92240426Y-51668209D01*
X92240423Y-51668216D01*
X92199500Y-51820943D01*
X88889277Y-51820943D01*
X88900500Y-51779057D01*
X88900500Y-51620943D01*
X88859577Y-51468216D01*
X88827114Y-51411988D01*
X88780524Y-51331290D01*
X88780518Y-51331282D01*
X88668717Y-51219481D01*
X88668709Y-51219475D01*
X88531790Y-51140426D01*
X88531786Y-51140424D01*
X88531784Y-51140423D01*
X88379057Y-51099500D01*
X88220943Y-51099500D01*
X88068216Y-51140423D01*
X88068209Y-51140426D01*
X87931290Y-51219475D01*
X87931282Y-51219481D01*
X87819481Y-51331282D01*
X87819475Y-51331290D01*
X87740426Y-51468209D01*
X87740423Y-51468216D01*
X87699500Y-51620943D01*
X86650500Y-51620943D01*
X86650500Y-50677525D01*
X108801349Y-50677525D01*
X108801349Y-50822475D01*
X108827503Y-50920081D01*
X108838866Y-50962488D01*
X108911337Y-51088011D01*
X108911339Y-51088013D01*
X108911340Y-51088015D01*
X109013834Y-51190509D01*
X109013835Y-51190510D01*
X109013837Y-51190511D01*
X109139360Y-51262982D01*
X109139361Y-51262982D01*
X109139364Y-51262984D01*
X109279374Y-51300500D01*
X109279377Y-51300500D01*
X109424321Y-51300500D01*
X109424324Y-51300500D01*
X109564334Y-51262984D01*
X109689864Y-51190509D01*
X109792358Y-51088015D01*
X109864833Y-50962485D01*
X109902349Y-50822475D01*
X109902349Y-50677525D01*
X109864833Y-50537515D01*
X109792358Y-50411985D01*
X109689864Y-50309491D01*
X109689862Y-50309490D01*
X109689860Y-50309488D01*
X109564337Y-50237017D01*
X109564338Y-50237017D01*
X109552855Y-50233940D01*
X109424324Y-50199500D01*
X109279374Y-50199500D01*
X109150842Y-50233940D01*
X109139360Y-50237017D01*
X109013837Y-50309488D01*
X109013831Y-50309493D01*
X108911342Y-50411982D01*
X108911337Y-50411988D01*
X108838866Y-50537511D01*
X108838865Y-50537515D01*
X108801349Y-50677525D01*
X86650500Y-50677525D01*
X86650500Y-48292803D01*
X86670185Y-48225764D01*
X86722989Y-48180009D01*
X86792147Y-48170065D01*
X86855703Y-48199090D01*
X86889061Y-48245351D01*
X86922191Y-48325336D01*
X86922199Y-48325352D01*
X87066420Y-48575148D01*
X87066431Y-48575164D01*
X87242024Y-48804002D01*
X87242030Y-48804009D01*
X87445990Y-49007969D01*
X87445997Y-49007975D01*
X87558859Y-49094577D01*
X87674844Y-49183575D01*
X87674851Y-49183579D01*
X87924647Y-49327800D01*
X87924663Y-49327808D01*
X88191139Y-49438185D01*
X88191145Y-49438186D01*
X88191155Y-49438191D01*
X88469783Y-49512849D01*
X88755772Y-49550500D01*
X88755779Y-49550500D01*
X89044221Y-49550500D01*
X89044228Y-49550500D01*
X89330217Y-49512849D01*
X89608845Y-49438191D01*
X89608857Y-49438185D01*
X89608860Y-49438185D01*
X89875336Y-49327808D01*
X89875339Y-49327806D01*
X89875345Y-49327804D01*
X90125156Y-49183575D01*
X90354004Y-49007974D01*
X90557974Y-48804004D01*
X90733575Y-48575156D01*
X90877804Y-48325345D01*
X90914274Y-48237298D01*
X90921770Y-48219202D01*
X100995000Y-48219202D01*
X100995000Y-48376797D01*
X101025741Y-48531343D01*
X101025743Y-48531351D01*
X101079153Y-48660293D01*
X101441446Y-48298001D01*
X101441446Y-48297999D01*
X101079153Y-47935705D01*
X101025743Y-48064648D01*
X101025741Y-48064656D01*
X100995000Y-48219202D01*
X90921770Y-48219202D01*
X90943947Y-48165662D01*
X90943947Y-48165660D01*
X90988185Y-48058860D01*
X90988185Y-48058857D01*
X90988191Y-48058845D01*
X91062849Y-47780217D01*
X91100500Y-47494228D01*
X91100500Y-47205772D01*
X91062849Y-46919783D01*
X90988191Y-46641155D01*
X90988186Y-46641145D01*
X90988185Y-46641139D01*
X90950023Y-46549006D01*
X90931849Y-46505131D01*
X91654500Y-46505131D01*
X91654500Y-47594856D01*
X91654502Y-47594882D01*
X91657413Y-47619987D01*
X91657415Y-47619991D01*
X91702793Y-47722764D01*
X91702794Y-47722765D01*
X91782235Y-47802206D01*
X91885009Y-47847585D01*
X91910135Y-47850500D01*
X92999864Y-47850499D01*
X92999879Y-47850497D01*
X92999882Y-47850497D01*
X93024987Y-47847586D01*
X93024988Y-47847585D01*
X93024991Y-47847585D01*
X93127765Y-47802206D01*
X93169173Y-47760797D01*
X93230494Y-47727313D01*
X93300185Y-47732297D01*
X93325745Y-47745377D01*
X93346062Y-47758953D01*
X93491648Y-47819256D01*
X93491656Y-47819258D01*
X93646202Y-47849999D01*
X93646206Y-47850000D01*
X93803794Y-47850000D01*
X93803797Y-47849999D01*
X93958343Y-47819258D01*
X93958347Y-47819257D01*
X94087293Y-47765845D01*
X93984448Y-47663000D01*
X101513553Y-47663000D01*
X101795000Y-47944446D01*
X101795001Y-47944446D01*
X102052819Y-47686628D01*
X102083384Y-47669938D01*
X101795001Y-47381553D01*
X101795000Y-47381553D01*
X101513553Y-47663000D01*
X93984448Y-47663000D01*
X93721447Y-47400000D01*
X93771078Y-47400000D01*
X93860095Y-47376148D01*
X93939905Y-47330070D01*
X94005070Y-47264905D01*
X94051148Y-47185095D01*
X94075000Y-47096078D01*
X94075000Y-47049999D01*
X94078553Y-47049999D01*
X94078553Y-47050001D01*
X94440845Y-47412293D01*
X94494257Y-47283347D01*
X94494258Y-47283343D01*
X94524999Y-47128797D01*
X94525000Y-47128794D01*
X94525000Y-46971206D01*
X94524999Y-46971200D01*
X94524224Y-46967301D01*
X94524224Y-46967300D01*
X94520624Y-46949202D01*
X100995000Y-46949202D01*
X100995000Y-47106797D01*
X101025741Y-47261343D01*
X101025743Y-47261351D01*
X101079153Y-47390293D01*
X101441446Y-47028001D01*
X101441446Y-47027999D01*
X101398660Y-46985213D01*
X101470000Y-46985213D01*
X101470000Y-47070787D01*
X101492149Y-47153445D01*
X101534936Y-47227554D01*
X101595446Y-47288064D01*
X101669555Y-47330851D01*
X101752213Y-47353000D01*
X101837787Y-47353000D01*
X101920445Y-47330851D01*
X101994554Y-47288064D01*
X102055064Y-47227554D01*
X102097851Y-47153445D01*
X102120000Y-47070787D01*
X102120000Y-46985213D01*
X102097851Y-46902555D01*
X102055064Y-46828446D01*
X101994554Y-46767936D01*
X101920445Y-46725149D01*
X101837787Y-46703000D01*
X101752213Y-46703000D01*
X101669555Y-46725149D01*
X101595446Y-46767936D01*
X101534936Y-46828446D01*
X101492149Y-46902555D01*
X101470000Y-46985213D01*
X101398660Y-46985213D01*
X101079153Y-46665705D01*
X101025743Y-46794648D01*
X101025741Y-46794656D01*
X100995000Y-46949202D01*
X94520624Y-46949202D01*
X94494258Y-46816656D01*
X94494257Y-46816652D01*
X94440845Y-46687706D01*
X94078553Y-47049999D01*
X94075000Y-47049999D01*
X94075000Y-47003922D01*
X94051148Y-46914905D01*
X94005070Y-46835095D01*
X93939905Y-46769930D01*
X93860095Y-46723852D01*
X93771078Y-46700000D01*
X93721446Y-46700000D01*
X94087293Y-46334153D01*
X93958351Y-46280743D01*
X93958343Y-46280741D01*
X93803797Y-46250000D01*
X93646202Y-46250000D01*
X93491656Y-46280741D01*
X93491648Y-46280743D01*
X93346059Y-46341048D01*
X93325743Y-46354623D01*
X93259065Y-46375500D01*
X93191685Y-46357015D01*
X93169172Y-46339201D01*
X93127765Y-46297794D01*
X93024992Y-46252415D01*
X92999865Y-46249500D01*
X91910143Y-46249500D01*
X91910117Y-46249502D01*
X91885012Y-46252413D01*
X91885008Y-46252415D01*
X91782235Y-46297793D01*
X91702794Y-46377234D01*
X91657415Y-46480006D01*
X91657415Y-46480008D01*
X91654500Y-46505131D01*
X90931849Y-46505131D01*
X90880233Y-46380520D01*
X90877804Y-46374655D01*
X90877802Y-46374652D01*
X90877800Y-46374647D01*
X90733579Y-46124851D01*
X90733575Y-46124844D01*
X90651640Y-46018064D01*
X90557975Y-45895997D01*
X90557969Y-45895990D01*
X90354009Y-45692030D01*
X90354002Y-45692024D01*
X90125164Y-45516431D01*
X90125162Y-45516429D01*
X90125156Y-45516425D01*
X90125151Y-45516422D01*
X90125148Y-45516420D01*
X89875352Y-45372199D01*
X89875336Y-45372191D01*
X89795351Y-45339061D01*
X89740947Y-45295220D01*
X89718882Y-45228926D01*
X89736161Y-45161227D01*
X89787298Y-45113616D01*
X89842803Y-45100500D01*
X99474052Y-45100500D01*
X99541091Y-45120185D01*
G37*
%TD.AperFunction*%
%TA.AperFunction,Conductor*%
G36*
X90842490Y-69386738D02*
G01*
X90864579Y-69388318D01*
X90875362Y-69396390D01*
X90888284Y-69400185D01*
X90902783Y-69416918D01*
X90920512Y-69430190D01*
X90925219Y-69442810D01*
X90934039Y-69452989D01*
X90937190Y-69474906D01*
X90944929Y-69495654D01*
X90942066Y-69508814D01*
X90943983Y-69522147D01*
X90934783Y-69542290D01*
X90930077Y-69563927D01*
X90916808Y-69581652D01*
X90914958Y-69585703D01*
X90908926Y-69592181D01*
X90847021Y-69654085D01*
X90794294Y-69745410D01*
X90794293Y-69745413D01*
X90767000Y-69847273D01*
X90767000Y-69952727D01*
X90768290Y-69957539D01*
X90794293Y-70054586D01*
X90794294Y-70054589D01*
X90800793Y-70065846D01*
X90817700Y-70095130D01*
X90829071Y-70114824D01*
X90845544Y-70182724D01*
X90822692Y-70248751D01*
X90767770Y-70291942D01*
X90753778Y-70296599D01*
X90618214Y-70332923D01*
X90618209Y-70332926D01*
X90481290Y-70411975D01*
X90481282Y-70411981D01*
X90369481Y-70523782D01*
X90369475Y-70523790D01*
X90290426Y-70660709D01*
X90290423Y-70660716D01*
X90249500Y-70813443D01*
X90249500Y-70971557D01*
X90289168Y-71119598D01*
X90290423Y-71124283D01*
X90290426Y-71124290D01*
X90369475Y-71261209D01*
X90369479Y-71261214D01*
X90369480Y-71261216D01*
X90481284Y-71373020D01*
X90481286Y-71373021D01*
X90481290Y-71373024D01*
X90593863Y-71438017D01*
X90618216Y-71452077D01*
X90770943Y-71493000D01*
X90770945Y-71493000D01*
X90929055Y-71493000D01*
X90929057Y-71493000D01*
X91081784Y-71452077D01*
X91218716Y-71373020D01*
X91330520Y-71261216D01*
X91395613Y-71148469D01*
X91446179Y-71100255D01*
X91514786Y-71087031D01*
X91579651Y-71112999D01*
X91620180Y-71169913D01*
X91627000Y-71210470D01*
X91627000Y-74525740D01*
X91607315Y-74592779D01*
X91554511Y-74638534D01*
X91485353Y-74648478D01*
X91421797Y-74619453D01*
X91395613Y-74587740D01*
X91363020Y-74531287D01*
X91363016Y-74531282D01*
X91251215Y-74419481D01*
X91251207Y-74419475D01*
X91114288Y-74340426D01*
X91114284Y-74340424D01*
X91114282Y-74340423D01*
X90961555Y-74299500D01*
X90961554Y-74299500D01*
X90953495Y-74298439D01*
X90953690Y-74296950D01*
X90895334Y-74279815D01*
X90849579Y-74227011D01*
X90839635Y-74157853D01*
X90868660Y-74094297D01*
X90900374Y-74068112D01*
X90930845Y-74050520D01*
X91042649Y-73938716D01*
X91121706Y-73801784D01*
X91162629Y-73649057D01*
X91162629Y-73490943D01*
X91121706Y-73338216D01*
X91115534Y-73327525D01*
X91060383Y-73231999D01*
X91043910Y-73164099D01*
X91060383Y-73108001D01*
X91121278Y-73002525D01*
X91121706Y-73001784D01*
X91162629Y-72849057D01*
X91162629Y-72690943D01*
X91121706Y-72538216D01*
X91097414Y-72496140D01*
X91042653Y-72401290D01*
X91042647Y-72401282D01*
X90930846Y-72289481D01*
X90930838Y-72289475D01*
X90793919Y-72210426D01*
X90793915Y-72210424D01*
X90793913Y-72210423D01*
X90641186Y-72169500D01*
X90483072Y-72169500D01*
X90330345Y-72210423D01*
X90330338Y-72210426D01*
X90193419Y-72289475D01*
X90193411Y-72289481D01*
X90081610Y-72401282D01*
X90081604Y-72401290D01*
X90002555Y-72538209D01*
X90002552Y-72538216D01*
X89961629Y-72690943D01*
X89961629Y-72849057D01*
X89998142Y-72985323D01*
X90002552Y-73001783D01*
X90002552Y-73001784D01*
X90063875Y-73108001D01*
X90080346Y-73175902D01*
X90063875Y-73231999D01*
X90002552Y-73338215D01*
X90002552Y-73338216D01*
X89961629Y-73490943D01*
X89961629Y-73649057D01*
X89992387Y-73763845D01*
X90002552Y-73801783D01*
X90002555Y-73801790D01*
X90081604Y-73938709D01*
X90081608Y-73938714D01*
X90081609Y-73938716D01*
X90193413Y-74050520D01*
X90193415Y-74050521D01*
X90193419Y-74050524D01*
X90317566Y-74122199D01*
X90330345Y-74129577D01*
X90483072Y-74170500D01*
X90483080Y-74170500D01*
X90491132Y-74171561D01*
X90490936Y-74173049D01*
X90549293Y-74190185D01*
X90595048Y-74242989D01*
X90604992Y-74312147D01*
X90575967Y-74375703D01*
X90544253Y-74401888D01*
X90513783Y-74419479D01*
X90513780Y-74419481D01*
X90401979Y-74531282D01*
X90401973Y-74531290D01*
X90322924Y-74668209D01*
X90322921Y-74668216D01*
X90281998Y-74820943D01*
X90281998Y-74979057D01*
X90317493Y-75111524D01*
X90322921Y-75131783D01*
X90322924Y-75131790D01*
X90401973Y-75268709D01*
X90401977Y-75268714D01*
X90401978Y-75268716D01*
X90513782Y-75380520D01*
X90513784Y-75380521D01*
X90513788Y-75380524D01*
X90650707Y-75459573D01*
X90650714Y-75459577D01*
X90803441Y-75500500D01*
X90803443Y-75500500D01*
X90961553Y-75500500D01*
X90961555Y-75500500D01*
X91114282Y-75459577D01*
X91251214Y-75380520D01*
X91363018Y-75268716D01*
X91395613Y-75212258D01*
X91446179Y-75164044D01*
X91514786Y-75150820D01*
X91579651Y-75176788D01*
X91620180Y-75233701D01*
X91627000Y-75274259D01*
X91627000Y-76238572D01*
X91624763Y-76246189D01*
X91626033Y-76254025D01*
X91615059Y-76279234D01*
X91607315Y-76305611D01*
X91600606Y-76312440D01*
X91598148Y-76318089D01*
X91571891Y-76341674D01*
X91532158Y-76368223D01*
X91465481Y-76389101D01*
X91401268Y-76372508D01*
X91322087Y-76326793D01*
X91220227Y-76299500D01*
X91114773Y-76299500D01*
X91012913Y-76326793D01*
X91012910Y-76326794D01*
X90921585Y-76379521D01*
X90847021Y-76454085D01*
X90794294Y-76545410D01*
X90794293Y-76545413D01*
X90767000Y-76647273D01*
X90767000Y-76752727D01*
X90793135Y-76850263D01*
X90794293Y-76854586D01*
X90794294Y-76854589D01*
X90803730Y-76870933D01*
X90842461Y-76938017D01*
X90847021Y-76945914D01*
X90908926Y-77007819D01*
X90942411Y-77069142D01*
X90937427Y-77138834D01*
X90895555Y-77194767D01*
X90830091Y-77219184D01*
X90821245Y-77219500D01*
X89378927Y-77219500D01*
X89311888Y-77199815D01*
X89275825Y-77164390D01*
X89239292Y-77109715D01*
X89239286Y-77109707D01*
X89127792Y-76998213D01*
X89127788Y-76998210D01*
X88996685Y-76910609D01*
X88996672Y-76910602D01*
X88851001Y-76850264D01*
X88850989Y-76850261D01*
X88696345Y-76819500D01*
X88696342Y-76819500D01*
X87238658Y-76819500D01*
X87238655Y-76819500D01*
X87084010Y-76850261D01*
X87083998Y-76850264D01*
X86938327Y-76910602D01*
X86938309Y-76910612D01*
X86843390Y-76974035D01*
X86776713Y-76994913D01*
X86709333Y-76976428D01*
X86662643Y-76924449D01*
X86650500Y-76870933D01*
X86650500Y-69729066D01*
X86670185Y-69662027D01*
X86722989Y-69616272D01*
X86792147Y-69606328D01*
X86843391Y-69625964D01*
X86938314Y-69689390D01*
X86938327Y-69689397D01*
X87077649Y-69747105D01*
X87084003Y-69749737D01*
X87236200Y-69780011D01*
X87238653Y-69780499D01*
X87238656Y-69780500D01*
X87238658Y-69780500D01*
X88696344Y-69780500D01*
X88696345Y-69780499D01*
X88850997Y-69749737D01*
X88996679Y-69689394D01*
X89127789Y-69601789D01*
X89239289Y-69490289D01*
X89254224Y-69467936D01*
X89275825Y-69435610D01*
X89329437Y-69390804D01*
X89378927Y-69380500D01*
X90821245Y-69380500D01*
X90842490Y-69386738D01*
G37*
%TD.AperFunction*%
%TD*%
M02*
