%TF.GenerationSoftware,KiCad,Pcbnew,9.0.1*%
%TF.CreationDate,2025-04-25T01:04:06-07:00*%
%TF.ProjectId,microcouple,6d696372-6f63-46f7-9570-6c652e6b6963,rev?*%
%TF.SameCoordinates,Original*%
%TF.FileFunction,Copper,L4,Bot*%
%TF.FilePolarity,Positive*%
%FSLAX46Y46*%
G04 Gerber Fmt 4.6, Leading zero omitted, Abs format (unit mm)*
G04 Created by KiCad (PCBNEW 9.0.1) date 2025-04-25 01:04:06*
%MOMM*%
%LPD*%
G01*
G04 APERTURE LIST*
%TA.AperFunction,ComponentPad*%
%ADD10O,1.950000X1.000000*%
%TD*%
%TA.AperFunction,ComponentPad*%
%ADD11O,2.300000X1.000000*%
%TD*%
%TA.AperFunction,ComponentPad*%
%ADD12O,1.000000X1.700000*%
%TD*%
%TA.AperFunction,ComponentPad*%
%ADD13C,3.800000*%
%TD*%
%TA.AperFunction,ComponentPad*%
%ADD14R,1.000000X1.000000*%
%TD*%
%TA.AperFunction,ComponentPad*%
%ADD15C,1.000000*%
%TD*%
%TA.AperFunction,ViaPad*%
%ADD16C,0.500000*%
%TD*%
%TA.AperFunction,ViaPad*%
%ADD17C,0.600000*%
%TD*%
%TA.AperFunction,Conductor*%
%ADD18C,0.200000*%
%TD*%
%TA.AperFunction,Conductor*%
%ADD19C,0.500000*%
%TD*%
%TA.AperFunction,Conductor*%
%ADD20C,0.400000*%
%TD*%
%TA.AperFunction,Conductor*%
%ADD21C,0.157500*%
%TD*%
G04 APERTURE END LIST*
D10*
%TO.P,J2,S1,SHIELD*%
%TO.N,Net-(J2-SHIELD)*%
X92587500Y-68980000D03*
D11*
X87967500Y-68980000D03*
D12*
X92027500Y-69220000D03*
X92027500Y-77350000D03*
D10*
X92587500Y-77620000D03*
D11*
X87967500Y-77620000D03*
%TD*%
D13*
%TO.P,H2,1,1*%
%TO.N,Net-(C25-Pad1)*%
X112900000Y-47350000D03*
%TD*%
%TO.P,H3,1,1*%
%TO.N,Net-(C26-Pad1)*%
X112900000Y-76100000D03*
%TD*%
D14*
%TO.P,J4,1,Pin_1*%
%TO.N,/Capacitive Touch/CS2*%
X103065000Y-48298000D03*
D15*
%TO.P,J4,2,Pin_2*%
%TO.N,GND*%
X101795000Y-48298000D03*
%TO.P,J4,3,Pin_3*%
%TO.N,/Capacitive Touch/CS3*%
X103065000Y-47028000D03*
%TO.P,J4,4,Pin_4*%
%TO.N,GND*%
X101795000Y-47028000D03*
%TO.P,J4,5,Pin_5*%
%TO.N,/Capacitive Touch/CS4*%
X103065000Y-45758000D03*
%TO.P,J4,6,Pin_6*%
%TO.N,GND*%
X101795000Y-45758000D03*
%TD*%
D14*
%TO.P,BT1,1,+*%
%TO.N,+BATT*%
X92455000Y-47050000D03*
D15*
%TO.P,BT1,2,-*%
%TO.N,GND*%
X93725000Y-47050000D03*
%TD*%
D13*
%TO.P,H1,1,1*%
%TO.N,Net-(C24-Pad1)*%
X88900000Y-47350000D03*
%TD*%
D16*
%TO.N,GND*%
X106900000Y-51970000D03*
%TO.N,+3.3V*%
X96987654Y-66737120D03*
%TO.N,GND*%
X96750000Y-66100000D03*
%TO.N,+1V1*%
X104525297Y-68783296D03*
%TO.N,GND*%
X113050000Y-60000000D03*
D17*
X96200000Y-55850000D03*
X90900000Y-49650000D03*
D16*
X106800000Y-73300000D03*
X113300000Y-64800000D03*
X89050000Y-67200000D03*
X102647069Y-70947069D03*
X108200000Y-47200000D03*
X107200000Y-70200000D03*
X108200000Y-49000000D03*
X95550000Y-64950000D03*
D17*
X98530000Y-49880000D03*
D16*
X94550000Y-63950000D03*
D17*
X90850000Y-75950000D03*
D16*
X105400000Y-75656000D03*
X106400000Y-49000000D03*
X91450000Y-46000000D03*
D17*
X93967663Y-70682202D03*
D16*
X98680104Y-64333657D03*
X103550000Y-70000000D03*
X109446000Y-70300000D03*
X104350000Y-50950000D03*
X93550000Y-64950000D03*
X114250000Y-49950000D03*
D17*
X88650000Y-57200000D03*
X96450000Y-74150000D03*
D16*
X105250000Y-46050000D03*
D17*
X94000000Y-52650000D03*
D16*
X113300000Y-62050000D03*
D17*
X87890003Y-58600000D03*
D16*
X101050000Y-69700000D03*
X108198162Y-68598162D03*
X106400000Y-47200000D03*
X99300000Y-76100000D03*
X98200000Y-61750000D03*
D17*
X95713030Y-70738696D03*
D16*
X107300000Y-48100000D03*
X98700000Y-65950000D03*
X108500000Y-51000000D03*
D17*
X93450000Y-50600000D03*
D16*
X114000000Y-57600000D03*
X101300000Y-73500000D03*
D17*
X94150000Y-76150000D03*
D16*
X104200000Y-77750000D03*
X114250000Y-73550000D03*
D17*
X90150000Y-55950000D03*
D16*
X91100000Y-68100000D03*
X101050000Y-72200000D03*
X93550000Y-62950000D03*
X105885140Y-67709000D03*
D17*
%TO.N,+BATT*%
X92800000Y-51900000D03*
%TO.N,+3.3V*%
X97861684Y-71488316D03*
D16*
X103538532Y-66311000D03*
X98400000Y-51550000D03*
X104350000Y-49300000D03*
X108050000Y-45350000D03*
X106450000Y-75900000D03*
X102100000Y-73400000D03*
X109351849Y-50750000D03*
X99515090Y-65887324D03*
D17*
X87100000Y-58600000D03*
D16*
X104800000Y-71818999D03*
X108950000Y-66600000D03*
X114250000Y-65950000D03*
%TO.N,+1V1*%
X102740651Y-73000000D03*
X101825419Y-68422095D03*
D17*
%TO.N,VBUS*%
X90000000Y-63300000D03*
X90850000Y-70892500D03*
X91250000Y-62100000D03*
X90650000Y-62700000D03*
D16*
X88450000Y-65650000D03*
D17*
X90882498Y-74900000D03*
X94150000Y-74631000D03*
X94098434Y-71936563D03*
%TO.N,/Battery Management/VIN*%
X92800000Y-54850000D03*
X91150000Y-53200000D03*
D16*
%TO.N,/~{MX_SDB}*%
X98639377Y-61217974D03*
X104682933Y-73425830D03*
%TO.N,/CT_RESET*%
X104600000Y-51750000D03*
X99761573Y-69515346D03*
D17*
%TO.N,/Battery Management/PWR_ENABLE*%
X90100000Y-54900000D03*
X96109713Y-57400000D03*
%TO.N,/Battery Management/Charge Status*%
X88400000Y-66450000D03*
X99750000Y-45900000D03*
D16*
%TO.N,/LED Matrix/LEDMTX.R7*%
X91750127Y-65289409D03*
X103500000Y-52550000D03*
%TO.N,/LED Matrix/LEDMTX.C0*%
X99361091Y-55003296D03*
X99370104Y-53381426D03*
X99361091Y-64603296D03*
X99361091Y-61403296D03*
X99361091Y-56603296D03*
X99361091Y-59803296D03*
X99361091Y-58203296D03*
X97500000Y-63350000D03*
X99361091Y-63003296D03*
%TO.N,/LED Matrix/LEDMTX.C1*%
X100961118Y-59801697D03*
X100961118Y-64601697D03*
X100961118Y-63001697D03*
X100972858Y-53369527D03*
X100961118Y-55001697D03*
X100961118Y-56601697D03*
X100961118Y-58201697D03*
X97500000Y-62659997D03*
X100961118Y-61401697D03*
%TO.N,/LED Matrix/LEDMTX.C2*%
X102561240Y-64600000D03*
X102561240Y-55000000D03*
X102561240Y-56600000D03*
X97500000Y-61969994D03*
X102561240Y-59800000D03*
X102561240Y-63000000D03*
X102561240Y-58200000D03*
X102561240Y-61400000D03*
X102572858Y-53369527D03*
%TO.N,/LED Matrix/LEDMTX.C3*%
X104161465Y-54998210D03*
X104161465Y-64598210D03*
X96788778Y-61842452D03*
X104161465Y-62998210D03*
X104161465Y-61398210D03*
X104172858Y-53369527D03*
X104161465Y-59798210D03*
X104161465Y-58198210D03*
X104161465Y-56598210D03*
%TO.N,/LED Matrix/LEDMTX.C4*%
X105761794Y-59796333D03*
X105761794Y-54996333D03*
X96743711Y-61153923D03*
X105761794Y-64596333D03*
X105761794Y-56596333D03*
X105761794Y-61396333D03*
X105761794Y-58196333D03*
X105761794Y-62996333D03*
X105772858Y-53369527D03*
%TO.N,/LED Matrix/LEDMTX.C5*%
X107372858Y-53369527D03*
X96752321Y-60463974D03*
X107362229Y-61394371D03*
X107362229Y-59794371D03*
X107362229Y-62994371D03*
X107362229Y-56594371D03*
X107362229Y-58194371D03*
X107362229Y-54994371D03*
X107362229Y-64594371D03*
%TO.N,/LED Matrix/LEDMTX.C6*%
X108972858Y-53369527D03*
X108962772Y-58192329D03*
X96749713Y-59773976D03*
X108962772Y-56592329D03*
X108962772Y-62992329D03*
X108962772Y-59792329D03*
X108962772Y-64592329D03*
X108962772Y-61392329D03*
X108962772Y-54992329D03*
%TO.N,/LED Matrix/LEDMTX.C7*%
X110563426Y-64590213D03*
X110563426Y-61390213D03*
X110563426Y-58190213D03*
X110572858Y-53369527D03*
X110563426Y-54990213D03*
X110563426Y-59790213D03*
X97862551Y-58662551D03*
X110563426Y-56590213D03*
X110563426Y-62990213D03*
%TO.N,/LED Matrix/LEDMTX.R6*%
X101760118Y-54114948D03*
X92473521Y-67539833D03*
%TO.N,/LED Matrix/LEDMTX.R5*%
X93010000Y-68000000D03*
X100196540Y-55650000D03*
%TO.N,/LED Matrix/LEDMTX.R4*%
X95500037Y-70030012D03*
X106600000Y-57200000D03*
%TO.N,/LED Matrix/LEDMTX.R3*%
X95499926Y-69340010D03*
X105000000Y-58850000D03*
%TO.N,/LED Matrix/LEDMTX.R2*%
X95500103Y-68650008D03*
X103407314Y-60539323D03*
%TO.N,/LED Matrix/LEDMTX.R1*%
X101748808Y-62109067D03*
X95499394Y-67960006D03*
%TO.N,/LED Matrix/LEDMTX.R0*%
X100250000Y-63750000D03*
X95506364Y-67270039D03*
%TO.N,/IR.TX*%
X105000000Y-70350000D03*
X113000000Y-56250000D03*
%TO.N,/SWDIO*%
X104140003Y-73000000D03*
X112290000Y-70645630D03*
%TO.N,/SWCLK*%
X111750000Y-71100000D03*
X103450000Y-73000000D03*
%TO.N,/USB.D+*%
X94381601Y-73075000D03*
D17*
X90562129Y-73570000D03*
D16*
X96100000Y-76600000D03*
%TO.N,/USB.D-*%
X96800000Y-76600000D03*
D17*
X90562129Y-72770000D03*
D16*
X94381601Y-73775000D03*
%TO.N,/I2C0.SDL*%
X112200000Y-65150000D03*
X97451000Y-67950000D03*
X98103675Y-64989998D03*
%TO.N,/I2C0.SDA*%
X107850000Y-66100000D03*
X101337514Y-68910000D03*
%TO.N,/USB.D_PROTECTED+*%
X96100000Y-71400000D03*
X103150000Y-68703452D03*
%TO.N,/USB.D_PROTECTED-*%
X103850000Y-68703452D03*
X96800000Y-71400000D03*
%TO.N,/~{CT_ALERT}*%
X109300000Y-46150000D03*
X100250000Y-71407500D03*
%TO.N,/IR.RX*%
X106469324Y-69950001D03*
X113300000Y-63350000D03*
%TO.N,/CT_WAKE*%
X106588486Y-51360588D03*
X100259998Y-69992500D03*
%TD*%
D18*
%TO.N,/CT_RESET*%
X104600000Y-51750000D02*
X105350000Y-52500000D01*
X105350000Y-52500000D02*
X107647042Y-52500000D01*
X107647042Y-52500000D02*
X107959000Y-52811958D01*
X107959000Y-52811958D02*
X107959000Y-64841000D01*
X107959000Y-64841000D02*
X107650000Y-65150000D01*
X107650000Y-65150000D02*
X106552958Y-65150000D01*
X106552958Y-65150000D02*
X104470958Y-67232000D01*
X104470958Y-67232000D02*
X101698880Y-67232000D01*
X101698880Y-67232000D02*
X99761573Y-69169307D01*
X99761573Y-69169307D02*
X99761573Y-69515346D01*
%TO.N,/CT_WAKE*%
X101860837Y-67623001D02*
X100302573Y-69181265D01*
X107811958Y-65541000D02*
X106714916Y-65541000D01*
X107100063Y-51400063D02*
X108350001Y-52650001D01*
X106714916Y-65541000D02*
X104632916Y-67623000D01*
X106627961Y-51400063D02*
X107100063Y-51400063D01*
X104632916Y-67623000D02*
X101860837Y-67623001D01*
X108350001Y-65002957D02*
X107811958Y-65541000D01*
X108350001Y-52650001D02*
X108350001Y-65002957D01*
X106588486Y-51360588D02*
X106627961Y-51400063D01*
X100302573Y-69181265D02*
X100302573Y-69949925D01*
X100302573Y-69949925D02*
X100259998Y-69992500D01*
%TO.N,/I2C0.SDL*%
X94958926Y-67052387D02*
X94958926Y-71038158D01*
X94958926Y-71038158D02*
X96771117Y-72850349D01*
X95282274Y-66729039D02*
X94958926Y-67052387D01*
X112140000Y-66326634D02*
X112140000Y-65260000D01*
X96230039Y-66729039D02*
X95282274Y-66729039D01*
X97451000Y-67950000D02*
X96230039Y-66729039D01*
X98103675Y-67297325D02*
X98103675Y-64989998D01*
X97451000Y-67950000D02*
X98103675Y-67297325D01*
X96771117Y-72850349D02*
X102125212Y-72850349D01*
X102125212Y-72850349D02*
X103975561Y-71000000D01*
X103975561Y-71000000D02*
X107466634Y-71000000D01*
X107466634Y-71000000D02*
X112140000Y-66326634D01*
X112140000Y-65260000D02*
X112200000Y-65200000D01*
X112200000Y-65200000D02*
X112200000Y-65150000D01*
%TO.N,/~{MX_SDB}*%
X96609160Y-73241350D02*
X100241350Y-73241350D01*
X100241350Y-73241350D02*
X101800000Y-74800000D01*
X94567926Y-71200116D02*
X96609160Y-73241350D01*
X98741000Y-61319597D02*
X98741000Y-63147039D01*
X101800000Y-74800000D02*
X103308763Y-74800000D01*
X98741000Y-63147039D02*
X95550000Y-66338039D01*
X103308763Y-74800000D02*
X104682933Y-73425830D01*
X94567925Y-66890430D02*
X94567926Y-71200116D01*
X95120316Y-66338039D02*
X94567925Y-66890430D01*
X95550000Y-66338039D02*
X95120316Y-66338039D01*
X98639377Y-61217974D02*
X98741000Y-61319597D01*
%TO.N,/Battery Management/PWR_ENABLE*%
X92600000Y-57400000D02*
X90100000Y-54900000D01*
X96109713Y-57400000D02*
X92600000Y-57400000D01*
%TO.N,/Battery Management/Charge Status*%
X88415090Y-66450000D02*
X88400000Y-66450000D01*
X89409000Y-65456090D02*
X88415090Y-66450000D01*
X89409000Y-53805199D02*
X89409000Y-65456090D01*
X99750000Y-45900000D02*
X99600000Y-45750000D01*
X97464199Y-45750000D02*
X89409000Y-53805199D01*
X99600000Y-45750000D02*
X97464199Y-45750000D01*
%TO.N,/LED Matrix/LEDMTX.R7*%
X98038090Y-53166348D02*
X98038091Y-53166349D01*
X91750127Y-65289409D02*
X92082521Y-64957015D01*
X98038090Y-56461910D02*
X98038090Y-53166348D01*
X98038090Y-52842434D02*
X98821525Y-52058999D01*
X92082521Y-62417479D02*
X98038090Y-56461910D01*
X92082520Y-62741394D02*
X92082521Y-62417479D01*
X99145440Y-52059000D02*
X103008999Y-52058999D01*
X92082521Y-64957015D02*
X92082521Y-62741395D01*
X103008999Y-52058999D02*
X103500000Y-52550000D01*
X98038091Y-53166349D02*
X98038090Y-52842434D01*
X92082521Y-62741395D02*
X92082520Y-62741394D01*
X98821525Y-52058999D02*
X99145440Y-52059000D01*
D19*
%TO.N,/LED Matrix/LEDMTX.C0*%
X99370104Y-63400000D02*
X99370104Y-64594283D01*
X99370104Y-64594283D02*
X99361091Y-64603296D01*
D18*
X99370104Y-53381426D02*
X99370104Y-63400000D01*
D20*
X99320104Y-63350000D02*
X99370104Y-63400000D01*
D18*
%TO.N,/LED Matrix/LEDMTX.C1*%
X100972858Y-53369527D02*
X100972858Y-64589957D01*
D19*
X100972858Y-64589957D02*
X100961118Y-64601697D01*
%TO.N,/LED Matrix/LEDMTX.C2*%
X102572858Y-64588382D02*
X102561240Y-64600000D01*
D18*
X102572858Y-53369527D02*
X102572858Y-64588382D01*
%TO.N,/LED Matrix/LEDMTX.C3*%
X104172858Y-53369527D02*
X104172858Y-64586817D01*
D19*
X104172858Y-64586817D02*
X104161465Y-64598210D01*
D18*
%TO.N,/LED Matrix/LEDMTX.C4*%
X105772858Y-53369527D02*
X105772858Y-64585269D01*
D19*
X105772858Y-64585269D02*
X105761794Y-64596333D01*
%TO.N,/LED Matrix/LEDMTX.C5*%
X107372858Y-64583742D02*
X107362229Y-64594371D01*
D18*
X107372858Y-53369527D02*
X107372858Y-64583742D01*
D19*
%TO.N,/LED Matrix/LEDMTX.C6*%
X108972858Y-64582243D02*
X108962772Y-64592329D01*
D18*
X108972858Y-53369527D02*
X108972858Y-64582243D01*
%TO.N,/LED Matrix/LEDMTX.C7*%
X110572858Y-53369527D02*
X110572858Y-64580781D01*
D19*
X110572858Y-64580781D02*
X110563426Y-64590213D01*
D18*
%TO.N,/LED Matrix/LEDMTX.R6*%
X92473521Y-67539833D02*
X92473521Y-62579437D01*
X98429090Y-56623868D02*
X98429091Y-53004391D01*
X98983482Y-52450000D02*
X101350000Y-52450000D01*
X92473521Y-62579437D02*
X98429090Y-56623868D01*
X101760118Y-52860118D02*
X101760118Y-54114948D01*
X101350000Y-52450000D02*
X101760118Y-52860118D01*
X98429091Y-53004391D02*
X98983482Y-52450000D01*
%TO.N,/LED Matrix/LEDMTX.R5*%
X98820090Y-56785826D02*
X98820091Y-56785825D01*
X93009000Y-62596916D02*
X93009000Y-67310222D01*
X93014521Y-67315743D02*
X93014521Y-67995479D01*
X98820091Y-56461911D02*
X98820090Y-56785826D01*
X99641000Y-52841000D02*
X99145440Y-52841000D01*
X100196540Y-55650000D02*
X100196540Y-53396540D01*
X100196540Y-53396540D02*
X99641000Y-52841000D01*
X93014521Y-67995479D02*
X93010000Y-68000000D01*
X93377958Y-62227958D02*
X93009000Y-62596916D01*
X93009000Y-67310222D02*
X93014521Y-67315743D01*
X99145440Y-52841000D02*
X98820091Y-53166349D01*
X98820090Y-56461910D02*
X98820091Y-53166349D01*
X98820090Y-56461910D02*
X98820091Y-56461911D01*
X93001000Y-62604916D02*
X93377958Y-62227958D01*
X98820091Y-56785825D02*
X93377958Y-62227958D01*
%TO.N,/LED Matrix/LEDMTX.R4*%
X95500037Y-70030012D02*
X95525026Y-70055001D01*
X98322920Y-70055002D02*
X101536922Y-66841000D01*
X95525026Y-70055001D02*
X96147648Y-70055002D01*
X96147648Y-70055002D02*
X96471563Y-70055001D01*
X106600000Y-64550000D02*
X106600000Y-57200000D01*
X96471563Y-70055001D02*
X98322920Y-70055002D01*
X104309000Y-66841000D02*
X106600000Y-64550000D01*
X101536922Y-66841000D02*
X104309000Y-66841000D01*
%TO.N,/LED Matrix/LEDMTX.R3*%
X98160963Y-69664001D02*
X101374964Y-66450000D01*
X105000000Y-64524765D02*
X105000000Y-58850000D01*
X101374964Y-66450000D02*
X102650000Y-66450000D01*
X95499926Y-69340010D02*
X95985614Y-69340010D01*
X95985614Y-69340010D02*
X96309605Y-69664001D01*
X96309605Y-69664001D02*
X98160963Y-69664001D01*
X104385555Y-65139210D02*
X105000000Y-64524765D01*
X103960790Y-65139210D02*
X104385555Y-65139210D01*
X102650000Y-66450000D02*
X103960790Y-65139210D01*
%TO.N,/LED Matrix/LEDMTX.R2*%
X101876330Y-66050000D02*
X103407314Y-64519016D01*
X97999006Y-69273000D02*
X101222006Y-66050000D01*
X101222006Y-66050000D02*
X101876330Y-66050000D01*
X95848570Y-68650008D02*
X96471564Y-69273002D01*
X96471564Y-69273002D02*
X97999006Y-69273000D01*
X95500103Y-68650008D02*
X95848570Y-68650008D01*
X103407314Y-64519016D02*
X103407314Y-60539323D01*
%TO.N,/LED Matrix/LEDMTX.R1*%
X101750000Y-64969048D02*
X101750000Y-62110259D01*
X97837048Y-68882000D02*
X101750000Y-64969048D01*
X101750000Y-62110259D02*
X101748808Y-62109067D01*
X96633521Y-68882001D02*
X97837048Y-68882000D01*
X95499394Y-67960006D02*
X95711526Y-67960006D01*
X95711526Y-67960006D02*
X96633521Y-68882001D01*
%TO.N,/LED Matrix/LEDMTX.R0*%
X100250000Y-65916090D02*
X97675090Y-68491000D01*
X96795478Y-68491000D02*
X95574517Y-67270039D01*
X100250000Y-63750000D02*
X100250000Y-65916090D01*
X97675090Y-68491000D02*
X96795478Y-68491000D01*
X95574517Y-67270039D02*
X95506364Y-67270039D01*
%TO.N,/IR.TX*%
X111208999Y-65941001D02*
X110000000Y-67150000D01*
X110000000Y-67150000D02*
X108200000Y-67150000D01*
X113000000Y-56250000D02*
X111208999Y-58041001D01*
X108200000Y-67150000D02*
X105000000Y-70350000D01*
X111208999Y-58041001D02*
X111208999Y-65941001D01*
%TO.N,/SWDIO*%
X112290000Y-70645630D02*
X112290000Y-71325090D01*
X104390003Y-72750000D02*
X104140003Y-73000000D01*
X110865091Y-72749999D02*
X104390003Y-72750000D01*
X112290000Y-71325090D02*
X110865091Y-72749999D01*
%TO.N,/SWCLK*%
X103450000Y-72924913D02*
X103450000Y-73000000D01*
X104015914Y-72358999D02*
X103450000Y-72924913D01*
X111750000Y-71100000D02*
X111750000Y-71197849D01*
X110588850Y-72358999D02*
X104015914Y-72358999D01*
X111750000Y-71197849D02*
X110588850Y-72358999D01*
D21*
%TO.N,/USB.D+*%
X96271250Y-76428750D02*
X96100000Y-76600000D01*
X89510689Y-72020872D02*
X89510689Y-72718256D01*
X90562129Y-73570000D02*
X90783379Y-73348750D01*
X93520816Y-75569230D02*
X95831138Y-75569230D01*
X96271250Y-76009342D02*
X96271250Y-76428750D01*
X92077312Y-74125726D02*
X93520816Y-75569230D01*
X91300336Y-73348750D02*
X91622290Y-73670704D01*
X95831138Y-75569230D02*
X96271250Y-76009342D01*
X91622290Y-73872936D02*
X91528292Y-73966933D01*
X90783379Y-73348750D02*
X91300336Y-73348750D01*
X94049042Y-73246250D02*
X92274042Y-71471250D01*
X94381601Y-73075000D02*
X94210351Y-73246250D01*
X89510689Y-72718256D02*
X90141183Y-73348750D01*
X90340879Y-73348750D02*
X90562129Y-73570000D01*
X91528292Y-74169166D02*
X91578850Y-74219724D01*
X92274042Y-71471250D02*
X90060311Y-71471250D01*
X91781082Y-74219724D02*
X91875079Y-74125726D01*
X94210351Y-73246250D02*
X94049042Y-73246250D01*
X90060311Y-71471250D02*
X89510689Y-72020872D01*
X90141183Y-73348750D02*
X90340879Y-73348750D01*
X91622290Y-73670704D02*
G75*
G02*
X91622270Y-73872916I-101090J-101096D01*
G01*
X91875079Y-74125726D02*
G75*
G02*
X92077313Y-74125725I101117J-101116D01*
G01*
X91578850Y-74219724D02*
G75*
G03*
X91781082Y-74219724I101116J101115D01*
G01*
X91528292Y-73966933D02*
G75*
G03*
X91528341Y-74169116I101108J-101067D01*
G01*
%TO.N,/USB.D-*%
X90289267Y-72991250D02*
X90340879Y-72991250D01*
X92945931Y-72648724D02*
X92895376Y-72598168D01*
X92693142Y-72598167D02*
X92599205Y-72692105D01*
X90208395Y-71828750D02*
X92125958Y-71828750D01*
X92902464Y-73197775D02*
X92851905Y-73147216D01*
X95977242Y-75209750D02*
X96628750Y-75861258D01*
X91451217Y-72991250D02*
X93669717Y-75209750D01*
X90208395Y-71828750D02*
X89868189Y-72168956D01*
X89868189Y-72570172D02*
X90289267Y-72991250D01*
X96628750Y-76428750D02*
X96800000Y-76600000D01*
X93669717Y-75209750D02*
X95977242Y-75209750D01*
X92125958Y-71828750D02*
X92440350Y-72143143D01*
X93198724Y-73103749D02*
X93104698Y-73197776D01*
X91451217Y-72991250D02*
X90783379Y-72991250D01*
X94381601Y-73775000D02*
X94210351Y-73603750D01*
X92851905Y-72944984D02*
X92945932Y-72850958D01*
X89868189Y-72168956D02*
X89868189Y-72570172D01*
X96628750Y-75861258D02*
X96628750Y-76428750D01*
X90783379Y-72991250D02*
X90562129Y-72770000D01*
X93900958Y-73603750D02*
X93400958Y-73103750D01*
X90340879Y-72991250D02*
X90562129Y-72770000D01*
X92346414Y-72439314D02*
X92440350Y-72345375D01*
X92396973Y-72692105D02*
X92346414Y-72641546D01*
X94210351Y-73603750D02*
X93900958Y-73603750D01*
X92945932Y-72850958D02*
G75*
G03*
X92945973Y-72648683I-101132J101158D01*
G01*
X92599205Y-72692105D02*
G75*
G02*
X92396973Y-72692105I-101116J101115D01*
G01*
X92851905Y-73147216D02*
G75*
G02*
X92851905Y-72944984I101095J101116D01*
G01*
X92440350Y-72345375D02*
G75*
G03*
X92440309Y-72143184I-101150J101075D01*
G01*
X93400958Y-73103750D02*
G75*
G03*
X93198684Y-73103708I-101158J-101150D01*
G01*
X92895376Y-72598168D02*
G75*
G03*
X92693184Y-72598208I-101076J-101132D01*
G01*
X92346414Y-72641546D02*
G75*
G02*
X92346384Y-72439284I101086J101146D01*
G01*
X93104698Y-73197776D02*
G75*
G02*
X92902483Y-73197757I-101098J101076D01*
G01*
D18*
%TO.N,/I2C0.SDA*%
X102049509Y-68963095D02*
X102998603Y-68014001D01*
X107800000Y-66100000D02*
X107820501Y-66079499D01*
X107820501Y-66079499D02*
X107829499Y-66079499D01*
X106708874Y-66100000D02*
X107800000Y-66100000D01*
X104794872Y-68014002D02*
X106708874Y-66100000D01*
X101337514Y-68910000D02*
X101390609Y-68963095D01*
X102998603Y-68014001D02*
X104794872Y-68014002D01*
X101390609Y-68963095D02*
X102049509Y-68963095D01*
X107829499Y-66079499D02*
X107850000Y-66100000D01*
D21*
%TO.N,/USB.D_PROTECTED+*%
X103321250Y-68975958D02*
X101775958Y-70521250D01*
X96271250Y-71228750D02*
X96100000Y-71400000D01*
X96641481Y-70521250D02*
X96271250Y-70891481D01*
X103150000Y-68703452D02*
X103321250Y-68874702D01*
X103321250Y-68874702D02*
X103321250Y-68975958D01*
X96271250Y-70891481D02*
X96271250Y-71228750D01*
X101775958Y-70521250D02*
X96641481Y-70521250D01*
%TO.N,/USB.D_PROTECTED-*%
X96628750Y-71039565D02*
X96628750Y-71228750D01*
X96628750Y-71228750D02*
X96800000Y-71400000D01*
X103678750Y-68874702D02*
X103678750Y-69124042D01*
X101924042Y-70878750D02*
X96789565Y-70878750D01*
X103678750Y-69124042D02*
X101924042Y-70878750D01*
X103850000Y-68703452D02*
X103678750Y-68874702D01*
X96789565Y-70878750D02*
X96628750Y-71039565D01*
D18*
%TO.N,/~{CT_ALERT}*%
X100333500Y-71491000D02*
X102931603Y-71491000D01*
X108730910Y-66059000D02*
X108730910Y-65619090D01*
X102931603Y-71491000D02*
X104613603Y-69809000D01*
X100250000Y-71407500D02*
X100333500Y-71491000D01*
X108730910Y-65619090D02*
X109891849Y-64458151D01*
X104613603Y-69809000D02*
X104975910Y-69809000D01*
X109891849Y-46741849D02*
X109300000Y-46150000D01*
X104975910Y-69809000D02*
X108725910Y-66059000D01*
X109891849Y-64458151D02*
X109891849Y-46741849D01*
X108725910Y-66059000D02*
X108730910Y-66059000D01*
%TO.N,/IR.RX*%
X108361958Y-67541000D02*
X110161957Y-67541001D01*
X106469324Y-69950001D02*
X106469324Y-69433634D01*
X113300000Y-63350000D02*
X112700000Y-63350000D01*
X111600000Y-66102958D02*
X111600000Y-64450000D01*
X110161957Y-67541001D02*
X111600000Y-66102958D01*
X106469324Y-69433634D02*
X108361958Y-67541000D01*
X112700000Y-63350000D02*
X111600000Y-64450000D01*
%TD*%
%TA.AperFunction,Conductor*%
%TO.N,GND*%
G36*
X99541091Y-45120185D02*
G01*
X99586846Y-45172989D01*
X99596790Y-45242147D01*
X99567765Y-45305703D01*
X99521492Y-45339067D01*
X99519077Y-45340067D01*
X99471637Y-45349500D01*
X97524538Y-45349500D01*
X97524522Y-45349499D01*
X97516926Y-45349499D01*
X97411472Y-45349499D01*
X97326768Y-45372196D01*
X97326767Y-45372195D01*
X97309611Y-45376793D01*
X97247233Y-45412807D01*
X97230489Y-45422475D01*
X97218283Y-45429522D01*
X89088522Y-53559283D01*
X89088520Y-53559286D01*
X89035793Y-53650610D01*
X89014517Y-53730016D01*
X89008500Y-53752470D01*
X89008500Y-54263382D01*
X88988815Y-54330421D01*
X88936011Y-54376176D01*
X88866853Y-54386120D01*
X88803297Y-54357095D01*
X88786596Y-54336870D01*
X88785470Y-54337735D01*
X88780518Y-54331282D01*
X88668717Y-54219481D01*
X88668709Y-54219475D01*
X88531790Y-54140426D01*
X88531786Y-54140424D01*
X88531784Y-54140423D01*
X88379057Y-54099500D01*
X88220943Y-54099500D01*
X88068216Y-54140423D01*
X88068209Y-54140426D01*
X87931290Y-54219475D01*
X87931282Y-54219481D01*
X87819481Y-54331282D01*
X87819475Y-54331290D01*
X87740426Y-54468209D01*
X87740423Y-54468216D01*
X87699500Y-54620943D01*
X87699500Y-54779057D01*
X87739693Y-54929057D01*
X87740423Y-54931783D01*
X87740426Y-54931790D01*
X87819475Y-55068709D01*
X87819479Y-55068714D01*
X87819480Y-55068716D01*
X87931284Y-55180520D01*
X87931286Y-55180521D01*
X87931290Y-55180524D01*
X88068209Y-55259573D01*
X88068216Y-55259577D01*
X88220943Y-55300500D01*
X88220945Y-55300500D01*
X88379055Y-55300500D01*
X88379057Y-55300500D01*
X88531784Y-55259577D01*
X88668716Y-55180520D01*
X88780520Y-55068716D01*
X88780523Y-55068709D01*
X88785470Y-55062265D01*
X88788022Y-55064223D01*
X88827647Y-55026418D01*
X88896251Y-55013175D01*
X88961123Y-55039124D01*
X89001668Y-55096026D01*
X89008500Y-55136617D01*
X89008500Y-65130614D01*
X88988815Y-65197653D01*
X88936011Y-65243408D01*
X88866853Y-65253352D01*
X88803297Y-65224327D01*
X88796819Y-65218295D01*
X88788017Y-65209493D01*
X88788011Y-65209488D01*
X88662488Y-65137017D01*
X88662489Y-65137017D01*
X88651006Y-65133940D01*
X88522475Y-65099500D01*
X88377525Y-65099500D01*
X88248993Y-65133940D01*
X88237511Y-65137017D01*
X88111988Y-65209488D01*
X88111982Y-65209493D01*
X88009493Y-65311982D01*
X88009488Y-65311988D01*
X87937017Y-65437511D01*
X87932583Y-65454055D01*
X87899500Y-65577525D01*
X87899500Y-65722475D01*
X87924640Y-65816296D01*
X87937017Y-65862489D01*
X87937018Y-65862490D01*
X87963108Y-65907678D01*
X87979582Y-65975578D01*
X87956730Y-66041605D01*
X87943405Y-66057359D01*
X87919478Y-66081286D01*
X87919475Y-66081290D01*
X87840426Y-66218209D01*
X87840423Y-66218216D01*
X87799500Y-66370943D01*
X87799500Y-66529057D01*
X87833868Y-66657318D01*
X87840423Y-66681783D01*
X87840426Y-66681790D01*
X87919475Y-66818709D01*
X87919479Y-66818714D01*
X87919480Y-66818716D01*
X88031284Y-66930520D01*
X88031286Y-66930521D01*
X88031290Y-66930524D01*
X88064340Y-66949605D01*
X88168216Y-67009577D01*
X88320943Y-67050500D01*
X88320945Y-67050500D01*
X88479055Y-67050500D01*
X88479057Y-67050500D01*
X88631784Y-67009577D01*
X88768716Y-66930520D01*
X88880520Y-66818716D01*
X88959577Y-66681784D01*
X89000500Y-66529057D01*
X89000500Y-66482345D01*
X89020185Y-66415306D01*
X89036819Y-66394664D01*
X89381983Y-66049500D01*
X89729480Y-65702003D01*
X89782207Y-65610678D01*
X89809500Y-65508817D01*
X89809500Y-65403363D01*
X89809500Y-64024500D01*
X89829185Y-63957461D01*
X89881989Y-63911706D01*
X89933500Y-63900500D01*
X90079055Y-63900500D01*
X90079057Y-63900500D01*
X90231784Y-63859577D01*
X90368716Y-63780520D01*
X90480520Y-63668716D01*
X90559577Y-63531784D01*
X90596923Y-63392404D01*
X90633287Y-63332746D01*
X90696134Y-63302217D01*
X90716697Y-63300500D01*
X90729055Y-63300500D01*
X90729057Y-63300500D01*
X90881784Y-63259577D01*
X91018716Y-63180520D01*
X91130520Y-63068716D01*
X91209577Y-62931784D01*
X91248572Y-62786250D01*
X91260731Y-62766301D01*
X91268823Y-62744378D01*
X91278578Y-62737022D01*
X91284936Y-62726592D01*
X91305952Y-62716382D01*
X91324612Y-62702314D01*
X91336237Y-62698576D01*
X91481784Y-62659577D01*
X91496020Y-62651358D01*
X91563921Y-62634885D01*
X91629948Y-62657738D01*
X91673138Y-62712659D01*
X91682020Y-62758745D01*
X91682020Y-62804110D01*
X91682021Y-62804123D01*
X91682021Y-64642590D01*
X91662336Y-64709629D01*
X91609532Y-64755384D01*
X91590117Y-64762363D01*
X91549021Y-64773376D01*
X91537638Y-64776426D01*
X91412115Y-64848897D01*
X91412109Y-64848902D01*
X91309620Y-64951391D01*
X91309615Y-64951397D01*
X91237144Y-65076920D01*
X91237143Y-65076924D01*
X91199627Y-65216934D01*
X91199627Y-65361884D01*
X91233423Y-65488011D01*
X91237144Y-65501897D01*
X91309615Y-65627420D01*
X91309617Y-65627422D01*
X91309618Y-65627424D01*
X91412112Y-65729918D01*
X91412113Y-65729919D01*
X91412115Y-65729920D01*
X91537638Y-65802391D01*
X91537639Y-65802391D01*
X91537642Y-65802393D01*
X91677652Y-65839909D01*
X91677655Y-65839909D01*
X91822598Y-65839909D01*
X91822602Y-65839909D01*
X91916931Y-65814633D01*
X91986776Y-65816296D01*
X92044639Y-65855458D01*
X92072144Y-65919686D01*
X92073021Y-65934408D01*
X92073021Y-67110447D01*
X92053336Y-67177486D01*
X92036702Y-67198128D01*
X92033014Y-67201815D01*
X92033009Y-67201821D01*
X91960538Y-67327344D01*
X91960537Y-67327348D01*
X91923021Y-67467358D01*
X91923021Y-67612308D01*
X91936333Y-67661988D01*
X91960538Y-67752321D01*
X92037053Y-67884848D01*
X92053526Y-67952748D01*
X92030674Y-68018775D01*
X91975752Y-68061966D01*
X91953858Y-68068465D01*
X91794008Y-68100261D01*
X91793998Y-68100264D01*
X91648327Y-68160602D01*
X91648314Y-68160609D01*
X91517211Y-68248210D01*
X91517207Y-68248213D01*
X91405713Y-68359707D01*
X91405710Y-68359711D01*
X91318109Y-68490814D01*
X91318102Y-68490827D01*
X91257764Y-68636498D01*
X91257761Y-68636510D01*
X91227000Y-68791153D01*
X91227000Y-69375980D01*
X91207315Y-69443019D01*
X91154511Y-69488774D01*
X91119188Y-69498919D01*
X91114773Y-69499500D01*
X91012913Y-69526793D01*
X91012910Y-69526794D01*
X90921585Y-69579521D01*
X90847021Y-69654085D01*
X90794294Y-69745410D01*
X90794293Y-69745413D01*
X90767000Y-69847273D01*
X90767000Y-69952727D01*
X90779016Y-69997569D01*
X90794293Y-70054586D01*
X90794294Y-70054589D01*
X90800793Y-70065846D01*
X90817700Y-70095130D01*
X90829071Y-70114824D01*
X90845544Y-70182724D01*
X90822692Y-70248751D01*
X90767770Y-70291942D01*
X90753778Y-70296599D01*
X90618214Y-70332923D01*
X90618209Y-70332926D01*
X90481290Y-70411975D01*
X90481282Y-70411981D01*
X90369481Y-70523782D01*
X90369475Y-70523790D01*
X90290426Y-70660709D01*
X90290423Y-70660716D01*
X90249500Y-70813443D01*
X90249500Y-70968000D01*
X90229815Y-71035039D01*
X90177011Y-71080794D01*
X90125500Y-71092000D01*
X90010382Y-71092000D01*
X89913926Y-71117845D01*
X89913923Y-71117846D01*
X89827449Y-71167771D01*
X89827444Y-71167775D01*
X89207214Y-71788005D01*
X89207212Y-71788008D01*
X89177012Y-71840316D01*
X89177010Y-71840318D01*
X89171133Y-71850500D01*
X89157284Y-71874487D01*
X89132004Y-71968836D01*
X89131439Y-71970943D01*
X89131439Y-72668326D01*
X89131439Y-72768186D01*
X89156435Y-72861473D01*
X89157284Y-72864641D01*
X89190235Y-72921714D01*
X89207212Y-72951119D01*
X89207214Y-72951122D01*
X89284889Y-73028797D01*
X89284895Y-73028802D01*
X89837705Y-73581612D01*
X89837707Y-73581615D01*
X89908318Y-73652226D01*
X89938622Y-73669721D01*
X89947902Y-73677901D01*
X89960205Y-73697406D01*
X89976123Y-73714099D01*
X89984655Y-73736168D01*
X89985177Y-73736996D01*
X89985172Y-73737507D01*
X89985682Y-73738827D01*
X89992387Y-73763847D01*
X90002552Y-73801783D01*
X90002555Y-73801790D01*
X90081604Y-73938709D01*
X90081608Y-73938714D01*
X90081609Y-73938716D01*
X90193413Y-74050520D01*
X90193415Y-74050521D01*
X90193419Y-74050524D01*
X90317566Y-74122199D01*
X90330345Y-74129577D01*
X90483072Y-74170500D01*
X90483080Y-74170500D01*
X90491132Y-74171561D01*
X90490936Y-74173049D01*
X90549293Y-74190185D01*
X90595048Y-74242989D01*
X90604992Y-74312147D01*
X90575967Y-74375703D01*
X90544253Y-74401888D01*
X90513783Y-74419479D01*
X90513780Y-74419481D01*
X90401979Y-74531282D01*
X90401973Y-74531290D01*
X90322924Y-74668209D01*
X90322921Y-74668216D01*
X90281998Y-74820943D01*
X90281998Y-74979057D01*
X90319892Y-75120477D01*
X90322921Y-75131783D01*
X90322924Y-75131790D01*
X90401973Y-75268709D01*
X90401977Y-75268714D01*
X90401978Y-75268716D01*
X90513782Y-75380520D01*
X90513784Y-75380521D01*
X90513788Y-75380524D01*
X90650707Y-75459573D01*
X90650714Y-75459577D01*
X90803441Y-75500500D01*
X90803443Y-75500500D01*
X90961553Y-75500500D01*
X90961555Y-75500500D01*
X91114282Y-75459577D01*
X91251214Y-75380520D01*
X91363018Y-75268716D01*
X91442075Y-75131784D01*
X91482998Y-74979057D01*
X91482998Y-74820943D01*
X91475095Y-74791448D01*
X91476758Y-74721602D01*
X91515920Y-74663740D01*
X91580148Y-74636235D01*
X91608752Y-74636138D01*
X91660641Y-74641984D01*
X91679965Y-74644162D01*
X91679966Y-74644162D01*
X91679970Y-74644162D01*
X91796907Y-74630986D01*
X91796908Y-74630985D01*
X91796913Y-74630985D01*
X91907996Y-74592115D01*
X91908001Y-74592111D01*
X91908060Y-74592091D01*
X91977839Y-74588528D01*
X92036697Y-74621451D01*
X93212999Y-75797753D01*
X93213009Y-75797764D01*
X93217339Y-75802094D01*
X93217340Y-75802095D01*
X93287951Y-75872706D01*
X93374431Y-75922635D01*
X93470887Y-75948480D01*
X93570746Y-75948480D01*
X95622686Y-75948480D01*
X95652126Y-75957124D01*
X95682113Y-75963648D01*
X95687128Y-75967402D01*
X95689725Y-75968165D01*
X95710367Y-75984799D01*
X95735840Y-76010272D01*
X95769325Y-76071595D01*
X95764341Y-76141287D01*
X95735841Y-76185633D01*
X95659494Y-76261981D01*
X95659488Y-76261988D01*
X95587017Y-76387511D01*
X95587016Y-76387515D01*
X95549500Y-76527525D01*
X95549500Y-76672475D01*
X95586041Y-76808845D01*
X95587017Y-76812488D01*
X95659488Y-76938011D01*
X95659490Y-76938013D01*
X95659491Y-76938015D01*
X95761985Y-77040509D01*
X95761986Y-77040510D01*
X95761988Y-77040511D01*
X95887511Y-77112982D01*
X95887512Y-77112982D01*
X95887515Y-77112984D01*
X96027525Y-77150500D01*
X96027528Y-77150500D01*
X96172472Y-77150500D01*
X96172475Y-77150500D01*
X96312485Y-77112984D01*
X96388001Y-77069384D01*
X96455899Y-77052912D01*
X96511998Y-77069384D01*
X96587515Y-77112984D01*
X96727525Y-77150500D01*
X96727528Y-77150500D01*
X96872472Y-77150500D01*
X96872475Y-77150500D01*
X97012485Y-77112984D01*
X97138015Y-77040509D01*
X97240509Y-76938015D01*
X97312984Y-76812485D01*
X97350500Y-76672475D01*
X97350500Y-76527525D01*
X97312984Y-76387515D01*
X97307613Y-76378213D01*
X97240511Y-76261988D01*
X97240506Y-76261982D01*
X97138017Y-76159493D01*
X97138015Y-76159491D01*
X97069998Y-76120221D01*
X97061715Y-76111534D01*
X97050797Y-76106548D01*
X97038051Y-76086715D01*
X97021784Y-76069654D01*
X97018568Y-76056398D01*
X97013023Y-76047770D01*
X97008000Y-76012835D01*
X97008000Y-75827525D01*
X105899500Y-75827525D01*
X105899500Y-75972475D01*
X105930111Y-76086715D01*
X105937017Y-76112488D01*
X106009488Y-76238011D01*
X106009490Y-76238013D01*
X106009491Y-76238015D01*
X106111985Y-76340509D01*
X106111986Y-76340510D01*
X106111988Y-76340511D01*
X106237511Y-76412982D01*
X106237512Y-76412982D01*
X106237515Y-76412984D01*
X106377525Y-76450500D01*
X106377528Y-76450500D01*
X106522472Y-76450500D01*
X106522475Y-76450500D01*
X106662485Y-76412984D01*
X106788015Y-76340509D01*
X106890509Y-76238015D01*
X106962984Y-76112485D01*
X107000500Y-75972475D01*
X107000500Y-75827525D01*
X106962984Y-75687515D01*
X106952746Y-75669783D01*
X106890511Y-75561988D01*
X106890506Y-75561982D01*
X106788017Y-75459493D01*
X106788011Y-75459488D01*
X106662488Y-75387017D01*
X106662489Y-75387017D01*
X106638234Y-75380518D01*
X106522475Y-75349500D01*
X106377525Y-75349500D01*
X106261766Y-75380518D01*
X106237511Y-75387017D01*
X106111988Y-75459488D01*
X106111982Y-75459493D01*
X106009493Y-75561982D01*
X106009488Y-75561988D01*
X105937017Y-75687511D01*
X105937016Y-75687515D01*
X105899500Y-75827525D01*
X97008000Y-75827525D01*
X97008000Y-75811331D01*
X97008000Y-75811329D01*
X96982155Y-75714873D01*
X96982155Y-75714872D01*
X96948128Y-75655937D01*
X96932226Y-75628393D01*
X96861615Y-75557782D01*
X96861612Y-75557780D01*
X96287788Y-74983956D01*
X96287786Y-74983953D01*
X96210108Y-74906275D01*
X96210103Y-74906271D01*
X96123629Y-74856346D01*
X96123628Y-74856345D01*
X96094416Y-74848518D01*
X96065205Y-74840691D01*
X96065203Y-74840690D01*
X96065201Y-74840689D01*
X96027173Y-74830500D01*
X96027172Y-74830500D01*
X96027171Y-74830500D01*
X94874500Y-74830500D01*
X94807461Y-74810815D01*
X94761706Y-74758011D01*
X94750500Y-74706500D01*
X94750500Y-74551945D01*
X94750500Y-74551943D01*
X94709577Y-74399216D01*
X94693529Y-74371421D01*
X94677057Y-74303522D01*
X94699909Y-74237495D01*
X94714744Y-74222131D01*
X94713869Y-74221256D01*
X94764626Y-74170499D01*
X94822110Y-74113015D01*
X94894585Y-73987485D01*
X94932101Y-73847475D01*
X94932101Y-73702525D01*
X94894585Y-73562515D01*
X94850985Y-73486998D01*
X94834513Y-73419101D01*
X94850985Y-73363001D01*
X94894585Y-73287485D01*
X94932101Y-73147475D01*
X94932101Y-73002525D01*
X94894585Y-72862515D01*
X94893983Y-72861473D01*
X94822112Y-72736988D01*
X94822107Y-72736982D01*
X94719618Y-72634493D01*
X94719612Y-72634488D01*
X94594090Y-72562017D01*
X94593482Y-72561854D01*
X94587120Y-72560149D01*
X94527463Y-72523785D01*
X94496935Y-72460938D01*
X94505230Y-72391562D01*
X94531535Y-72352697D01*
X94578954Y-72305279D01*
X94658011Y-72168347D01*
X94668304Y-72129929D01*
X94704669Y-72070270D01*
X94767516Y-72039741D01*
X94836891Y-72048036D01*
X94875760Y-72074343D01*
X96363247Y-73561830D01*
X96442334Y-73607491D01*
X96452874Y-73613577D01*
X96454572Y-73614557D01*
X96556433Y-73641850D01*
X96661887Y-73641850D01*
X100024095Y-73641850D01*
X100091134Y-73661535D01*
X100111776Y-73678169D01*
X101554087Y-75120480D01*
X101645412Y-75173207D01*
X101747273Y-75200500D01*
X101747275Y-75200500D01*
X103361488Y-75200500D01*
X103361490Y-75200500D01*
X103463351Y-75173207D01*
X103554676Y-75120480D01*
X104662507Y-74012649D01*
X104723830Y-73979164D01*
X104750188Y-73976330D01*
X104755405Y-73976330D01*
X104755408Y-73976330D01*
X104895418Y-73938814D01*
X105020948Y-73866339D01*
X105123442Y-73763845D01*
X105195917Y-73638315D01*
X105233433Y-73498305D01*
X105233433Y-73353355D01*
X105220902Y-73306589D01*
X105222565Y-73236744D01*
X105261727Y-73178881D01*
X105325955Y-73151376D01*
X105340677Y-73150499D01*
X110917816Y-73150499D01*
X110917818Y-73150499D01*
X111019679Y-73123206D01*
X111111004Y-73070479D01*
X112525703Y-71655777D01*
X112525708Y-71655774D01*
X112535911Y-71645570D01*
X112535913Y-71645570D01*
X112610480Y-71571003D01*
X112663207Y-71479677D01*
X112668047Y-71461615D01*
X112690501Y-71377817D01*
X112690501Y-71272363D01*
X112690500Y-71272359D01*
X112690500Y-71075016D01*
X112710185Y-71007977D01*
X112726819Y-70987335D01*
X112730509Y-70983645D01*
X112802984Y-70858115D01*
X112840500Y-70718105D01*
X112840500Y-70573155D01*
X112802984Y-70433145D01*
X112796822Y-70422473D01*
X112730511Y-70307618D01*
X112730506Y-70307612D01*
X112628017Y-70205123D01*
X112628011Y-70205118D01*
X112502488Y-70132647D01*
X112502489Y-70132647D01*
X112491006Y-70129570D01*
X112362475Y-70095130D01*
X112217525Y-70095130D01*
X112088993Y-70129570D01*
X112077511Y-70132647D01*
X111951988Y-70205118D01*
X111951982Y-70205123D01*
X111849493Y-70307612D01*
X111849488Y-70307618D01*
X111777017Y-70433141D01*
X111777016Y-70433143D01*
X111769650Y-70460632D01*
X111733283Y-70520291D01*
X111681970Y-70548309D01*
X111537511Y-70587017D01*
X111407805Y-70661904D01*
X111339905Y-70678377D01*
X111273878Y-70655525D01*
X111242701Y-70623405D01*
X111232625Y-70608324D01*
X111142677Y-70518376D01*
X111142673Y-70518373D01*
X111036907Y-70447702D01*
X111036898Y-70447697D01*
X110919375Y-70399018D01*
X110919376Y-70399018D01*
X110919373Y-70399017D01*
X110919369Y-70399016D01*
X110919365Y-70399015D01*
X110794610Y-70374200D01*
X110794606Y-70374200D01*
X110667394Y-70374200D01*
X110667389Y-70374200D01*
X110542634Y-70399015D01*
X110542624Y-70399018D01*
X110425101Y-70447697D01*
X110425092Y-70447702D01*
X110319326Y-70518373D01*
X110319322Y-70518376D01*
X110229376Y-70608322D01*
X110229373Y-70608326D01*
X110158702Y-70714092D01*
X110158697Y-70714101D01*
X110110018Y-70831624D01*
X110110015Y-70831634D01*
X110085200Y-70956389D01*
X110085200Y-71083610D01*
X110108982Y-71203170D01*
X110110017Y-71208373D01*
X110119008Y-71230081D01*
X110158697Y-71325898D01*
X110158702Y-71325907D01*
X110229373Y-71431673D01*
X110229376Y-71431677D01*
X110319322Y-71521623D01*
X110319326Y-71521626D01*
X110425092Y-71592297D01*
X110425105Y-71592304D01*
X110459412Y-71606514D01*
X110511073Y-71627912D01*
X110565476Y-71671752D01*
X110587541Y-71738046D01*
X110570262Y-71805746D01*
X110551302Y-71830154D01*
X110459274Y-71922181D01*
X110397954Y-71955665D01*
X110371595Y-71958499D01*
X105474500Y-71958499D01*
X105407461Y-71938814D01*
X105361706Y-71886010D01*
X105350500Y-71834499D01*
X105350500Y-71746526D01*
X105350500Y-71746524D01*
X105312984Y-71606514D01*
X105301429Y-71586501D01*
X105284956Y-71518602D01*
X105307808Y-71452574D01*
X105362728Y-71409383D01*
X105408816Y-71400500D01*
X107519359Y-71400500D01*
X107519361Y-71400500D01*
X107621222Y-71373207D01*
X107712547Y-71320480D01*
X107872763Y-71160263D01*
X107934083Y-71126780D01*
X108003775Y-71131764D01*
X108059709Y-71173635D01*
X108074658Y-71203170D01*
X108075686Y-71202745D01*
X108078016Y-71208372D01*
X108078017Y-71208373D01*
X108086706Y-71229350D01*
X108126697Y-71325898D01*
X108126702Y-71325907D01*
X108197373Y-71431673D01*
X108197376Y-71431677D01*
X108287322Y-71521623D01*
X108287326Y-71521626D01*
X108393092Y-71592297D01*
X108393098Y-71592300D01*
X108393099Y-71592301D01*
X108510627Y-71640983D01*
X108603545Y-71659465D01*
X108635389Y-71665799D01*
X108635393Y-71665800D01*
X108635394Y-71665800D01*
X108762607Y-71665800D01*
X108762608Y-71665799D01*
X108887373Y-71640983D01*
X109004901Y-71592301D01*
X109110674Y-71521626D01*
X109200626Y-71431674D01*
X109271301Y-71325901D01*
X109319983Y-71208373D01*
X109344800Y-71083606D01*
X109344800Y-70956394D01*
X109319983Y-70831627D01*
X109271301Y-70714099D01*
X109271300Y-70714098D01*
X109271297Y-70714092D01*
X109200626Y-70608326D01*
X109200623Y-70608322D01*
X109110677Y-70518376D01*
X109110673Y-70518373D01*
X109004907Y-70447702D01*
X109004898Y-70447697D01*
X108881745Y-70396686D01*
X108882597Y-70394627D01*
X108832517Y-70361810D01*
X108804056Y-70298000D01*
X108814613Y-70228932D01*
X108839262Y-70193764D01*
X112375703Y-66657321D01*
X112375708Y-66657318D01*
X112385911Y-66647114D01*
X112385913Y-66647114D01*
X112460480Y-66572547D01*
X112513207Y-66481221D01*
X112519027Y-66459500D01*
X112540501Y-66379361D01*
X112540501Y-66273907D01*
X112540500Y-66273903D01*
X112540500Y-65877525D01*
X113699500Y-65877525D01*
X113699500Y-66022475D01*
X113737016Y-66162485D01*
X113737017Y-66162488D01*
X113809488Y-66288011D01*
X113809490Y-66288013D01*
X113809491Y-66288015D01*
X113911985Y-66390509D01*
X113911986Y-66390510D01*
X113911988Y-66390511D01*
X114037511Y-66462982D01*
X114037512Y-66462982D01*
X114037515Y-66462984D01*
X114177525Y-66500500D01*
X114177528Y-66500500D01*
X114322472Y-66500500D01*
X114322475Y-66500500D01*
X114462485Y-66462984D01*
X114588015Y-66390509D01*
X114690509Y-66288015D01*
X114762984Y-66162485D01*
X114800500Y-66022475D01*
X114800500Y-65877525D01*
X114762984Y-65737515D01*
X114755034Y-65723746D01*
X114690511Y-65611988D01*
X114690506Y-65611982D01*
X114588017Y-65509493D01*
X114588011Y-65509488D01*
X114462488Y-65437017D01*
X114462489Y-65437017D01*
X114451006Y-65433940D01*
X114322475Y-65399500D01*
X114177525Y-65399500D01*
X114048993Y-65433940D01*
X114037511Y-65437017D01*
X113911988Y-65509488D01*
X113911982Y-65509493D01*
X113809493Y-65611982D01*
X113809488Y-65611988D01*
X113737017Y-65737511D01*
X113737016Y-65737515D01*
X113699500Y-65877525D01*
X112540500Y-65877525D01*
X112540500Y-65639386D01*
X112560185Y-65572347D01*
X112576819Y-65551705D01*
X112600202Y-65528322D01*
X112640509Y-65488015D01*
X112712984Y-65362485D01*
X112750500Y-65222475D01*
X112750500Y-65077525D01*
X112712984Y-64937515D01*
X112712655Y-64936946D01*
X112640511Y-64811988D01*
X112640506Y-64811982D01*
X112538017Y-64709493D01*
X112538011Y-64709488D01*
X112412488Y-64637017D01*
X112412489Y-64637017D01*
X112398894Y-64633374D01*
X112278356Y-64601075D01*
X112218698Y-64564712D01*
X112188169Y-64501865D01*
X112196464Y-64432489D01*
X112222768Y-64393624D01*
X112808422Y-63807970D01*
X112869743Y-63774487D01*
X112939435Y-63779471D01*
X112958102Y-63788266D01*
X112961982Y-63790506D01*
X112961985Y-63790509D01*
X113087515Y-63862984D01*
X113227525Y-63900500D01*
X113227528Y-63900500D01*
X113372472Y-63900500D01*
X113372475Y-63900500D01*
X113512485Y-63862984D01*
X113638015Y-63790509D01*
X113740509Y-63688015D01*
X113812984Y-63562485D01*
X113850500Y-63422475D01*
X113850500Y-63277525D01*
X113812984Y-63137515D01*
X113810845Y-63133811D01*
X113740511Y-63011988D01*
X113740506Y-63011982D01*
X113638017Y-62909493D01*
X113638011Y-62909488D01*
X113512488Y-62837017D01*
X113512489Y-62837017D01*
X113501006Y-62833940D01*
X113372475Y-62799500D01*
X113227525Y-62799500D01*
X113098993Y-62833940D01*
X113087511Y-62837017D01*
X112961988Y-62909488D01*
X112961982Y-62909493D01*
X112958295Y-62913181D01*
X112896972Y-62946666D01*
X112870614Y-62949500D01*
X112647273Y-62949500D01*
X112545410Y-62976793D01*
X112454087Y-63029520D01*
X112454084Y-63029522D01*
X111821180Y-63662427D01*
X111759857Y-63695912D01*
X111690165Y-63690928D01*
X111634232Y-63649056D01*
X111609815Y-63583592D01*
X111609499Y-63574746D01*
X111609499Y-58258256D01*
X111629184Y-58191217D01*
X111645818Y-58170575D01*
X112979574Y-56836819D01*
X113040897Y-56803334D01*
X113067255Y-56800500D01*
X113072472Y-56800500D01*
X113072475Y-56800500D01*
X113212485Y-56762984D01*
X113338015Y-56690509D01*
X113440509Y-56588015D01*
X113512984Y-56462485D01*
X113550500Y-56322475D01*
X113550500Y-56177525D01*
X113512984Y-56037515D01*
X113440509Y-55911985D01*
X113338015Y-55809491D01*
X113338013Y-55809490D01*
X113338011Y-55809488D01*
X113212488Y-55737017D01*
X113212489Y-55737017D01*
X113201006Y-55733940D01*
X113072475Y-55699500D01*
X112927525Y-55699500D01*
X112798993Y-55733940D01*
X112787511Y-55737017D01*
X112661988Y-55809488D01*
X112661982Y-55809493D01*
X112559493Y-55911982D01*
X112559488Y-55911988D01*
X112487017Y-56037511D01*
X112487016Y-56037515D01*
X112449500Y-56177525D01*
X112449500Y-56177527D01*
X112449500Y-56182745D01*
X112429815Y-56249784D01*
X112413181Y-56270426D01*
X111185039Y-57498568D01*
X111123716Y-57532053D01*
X111054024Y-57527069D01*
X110998091Y-57485197D01*
X110973674Y-57419733D01*
X110973358Y-57410887D01*
X110973358Y-57010167D01*
X110993043Y-56943128D01*
X110999524Y-56935085D01*
X110998988Y-56934674D01*
X111003930Y-56928232D01*
X111003935Y-56928228D01*
X111076410Y-56802698D01*
X111113926Y-56662688D01*
X111113926Y-56517738D01*
X111076410Y-56377728D01*
X111050202Y-56332335D01*
X111003937Y-56252201D01*
X110998988Y-56245752D01*
X111001830Y-56243570D01*
X110976192Y-56196617D01*
X110973358Y-56170259D01*
X110973358Y-55410167D01*
X110993043Y-55343128D01*
X110999524Y-55335085D01*
X110998988Y-55334674D01*
X111003930Y-55328232D01*
X111003935Y-55328228D01*
X111076410Y-55202698D01*
X111113926Y-55062688D01*
X111113926Y-54917738D01*
X111076410Y-54777728D01*
X111011584Y-54665447D01*
X111003937Y-54652201D01*
X110998988Y-54645752D01*
X111001830Y-54643570D01*
X110976192Y-54596617D01*
X110973358Y-54570259D01*
X110973358Y-53798913D01*
X110993043Y-53731874D01*
X111009677Y-53711232D01*
X111013367Y-53707542D01*
X111085842Y-53582012D01*
X111123358Y-53442002D01*
X111123358Y-53297052D01*
X111085842Y-53157042D01*
X111083683Y-53153303D01*
X111013369Y-53031515D01*
X111013364Y-53031509D01*
X110910875Y-52929020D01*
X110910869Y-52929015D01*
X110785346Y-52856544D01*
X110785347Y-52856544D01*
X110762790Y-52850500D01*
X110645333Y-52819027D01*
X110500383Y-52819027D01*
X110448441Y-52832944D01*
X110378593Y-52831282D01*
X110320730Y-52792120D01*
X110293226Y-52727891D01*
X110292349Y-52713170D01*
X110292349Y-46689122D01*
X110292348Y-46689118D01*
X110285345Y-46662982D01*
X110281551Y-46648821D01*
X110265056Y-46587261D01*
X110212329Y-46495936D01*
X109886819Y-46170426D01*
X109853334Y-46109103D01*
X109850500Y-46082745D01*
X109850500Y-46077527D01*
X109850500Y-46077525D01*
X109812984Y-45937515D01*
X109791613Y-45900500D01*
X109740511Y-45811988D01*
X109740506Y-45811982D01*
X109638017Y-45709493D01*
X109638011Y-45709488D01*
X109512488Y-45637017D01*
X109512489Y-45637017D01*
X109501006Y-45633940D01*
X109372475Y-45599500D01*
X109227525Y-45599500D01*
X109098993Y-45633940D01*
X109087511Y-45637017D01*
X108961988Y-45709488D01*
X108961982Y-45709493D01*
X108859493Y-45811982D01*
X108859488Y-45811988D01*
X108787017Y-45937511D01*
X108787016Y-45937515D01*
X108749500Y-46077525D01*
X108749500Y-46222475D01*
X108787016Y-46362485D01*
X108787017Y-46362488D01*
X108859488Y-46488011D01*
X108859490Y-46488013D01*
X108859491Y-46488015D01*
X108961985Y-46590509D01*
X108961986Y-46590510D01*
X108961988Y-46590511D01*
X109087511Y-46662982D01*
X109087512Y-46662982D01*
X109087515Y-46662984D01*
X109227525Y-46700500D01*
X109232745Y-46700500D01*
X109262185Y-46709144D01*
X109292172Y-46715668D01*
X109297187Y-46719422D01*
X109299784Y-46720185D01*
X109320426Y-46736819D01*
X109455030Y-46871423D01*
X109488515Y-46932746D01*
X109491349Y-46959104D01*
X109491349Y-50075500D01*
X109471664Y-50142539D01*
X109418860Y-50188294D01*
X109367349Y-50199500D01*
X109279374Y-50199500D01*
X109150842Y-50233940D01*
X109139360Y-50237017D01*
X109013837Y-50309488D01*
X109013831Y-50309493D01*
X108911342Y-50411982D01*
X108911337Y-50411988D01*
X108838866Y-50537511D01*
X108838865Y-50537515D01*
X108801349Y-50677525D01*
X108801349Y-50822475D01*
X108827503Y-50920081D01*
X108838866Y-50962488D01*
X108911337Y-51088011D01*
X108911339Y-51088013D01*
X108911340Y-51088015D01*
X109013834Y-51190509D01*
X109013835Y-51190510D01*
X109013837Y-51190511D01*
X109139360Y-51262982D01*
X109139361Y-51262982D01*
X109139364Y-51262984D01*
X109279374Y-51300500D01*
X109279377Y-51300500D01*
X109367349Y-51300500D01*
X109434388Y-51320185D01*
X109480143Y-51372989D01*
X109491349Y-51424500D01*
X109491349Y-52818441D01*
X109471664Y-52885480D01*
X109418860Y-52931235D01*
X109349702Y-52941179D01*
X109305349Y-52925828D01*
X109185346Y-52856544D01*
X109185347Y-52856544D01*
X109162790Y-52850500D01*
X109045333Y-52819027D01*
X108900383Y-52819027D01*
X108900381Y-52819027D01*
X108892327Y-52820088D01*
X108891922Y-52817015D01*
X108888703Y-52816938D01*
X108871423Y-52821550D01*
X108854499Y-52816120D01*
X108836733Y-52815696D01*
X108821923Y-52805670D01*
X108804893Y-52800207D01*
X108793591Y-52786490D01*
X108778875Y-52776528D01*
X108771836Y-52760088D01*
X108760463Y-52746284D01*
X108755462Y-52721839D01*
X108751377Y-52712297D01*
X108751363Y-52712183D01*
X108750501Y-52704910D01*
X108750501Y-52597274D01*
X108729935Y-52520520D01*
X108723208Y-52495413D01*
X108670481Y-52404088D01*
X107345976Y-51079583D01*
X107300313Y-51053219D01*
X107254652Y-51026856D01*
X107203720Y-51013209D01*
X107152790Y-50999563D01*
X107152789Y-50999563D01*
X107057347Y-50999563D01*
X106990308Y-50979878D01*
X106969666Y-50963244D01*
X106926503Y-50920081D01*
X106926497Y-50920076D01*
X106800974Y-50847605D01*
X106800975Y-50847605D01*
X106789492Y-50844528D01*
X106660961Y-50810088D01*
X106516011Y-50810088D01*
X106387479Y-50844528D01*
X106375997Y-50847605D01*
X106250474Y-50920076D01*
X106250468Y-50920081D01*
X106147979Y-51022570D01*
X106147974Y-51022576D01*
X106075503Y-51148099D01*
X106075502Y-51148103D01*
X106037986Y-51288113D01*
X106037986Y-51433063D01*
X106075502Y-51573073D01*
X106075503Y-51573076D01*
X106147974Y-51698599D01*
X106147976Y-51698601D01*
X106147977Y-51698603D01*
X106250471Y-51801097D01*
X106250472Y-51801098D01*
X106250474Y-51801099D01*
X106366545Y-51868113D01*
X106414761Y-51918680D01*
X106427983Y-51987287D01*
X106402015Y-52052152D01*
X106345101Y-52092680D01*
X106304545Y-52099500D01*
X105567255Y-52099500D01*
X105500216Y-52079815D01*
X105479574Y-52063181D01*
X105186819Y-51770426D01*
X105153334Y-51709103D01*
X105150500Y-51682745D01*
X105150500Y-51677527D01*
X105150500Y-51677525D01*
X105112984Y-51537515D01*
X105109385Y-51531282D01*
X105040511Y-51411988D01*
X105040506Y-51411982D01*
X104938017Y-51309493D01*
X104938011Y-51309488D01*
X104812488Y-51237017D01*
X104812489Y-51237017D01*
X104775146Y-51227011D01*
X104672475Y-51199500D01*
X104527525Y-51199500D01*
X104424854Y-51227011D01*
X104387511Y-51237017D01*
X104261988Y-51309488D01*
X104261982Y-51309493D01*
X104159493Y-51411982D01*
X104159488Y-51411988D01*
X104087017Y-51537511D01*
X104087016Y-51537515D01*
X104049500Y-51677525D01*
X104049500Y-51822475D01*
X104087016Y-51962485D01*
X104087017Y-51962488D01*
X104159488Y-52088011D01*
X104159490Y-52088013D01*
X104159491Y-52088015D01*
X104261985Y-52190509D01*
X104261986Y-52190510D01*
X104261988Y-52190511D01*
X104387511Y-52262982D01*
X104387512Y-52262982D01*
X104387515Y-52262984D01*
X104527525Y-52300500D01*
X104532745Y-52300500D01*
X104599784Y-52320185D01*
X104620426Y-52336819D01*
X105104087Y-52820480D01*
X105195412Y-52873207D01*
X105237060Y-52884366D01*
X105296721Y-52920730D01*
X105327251Y-52983577D01*
X105318957Y-53052953D01*
X105312355Y-53066141D01*
X105259875Y-53157038D01*
X105259874Y-53157042D01*
X105222358Y-53297052D01*
X105222358Y-53442002D01*
X105256312Y-53568717D01*
X105259875Y-53582015D01*
X105332346Y-53707538D01*
X105332351Y-53707544D01*
X105336039Y-53711232D01*
X105369524Y-53772555D01*
X105372358Y-53798913D01*
X105372358Y-54555883D01*
X105352673Y-54622922D01*
X105336039Y-54643564D01*
X105321287Y-54658315D01*
X105321282Y-54658321D01*
X105248811Y-54783844D01*
X105248810Y-54783848D01*
X105211294Y-54923858D01*
X105211294Y-55068808D01*
X105241229Y-55180524D01*
X105248811Y-55208821D01*
X105321282Y-55334344D01*
X105321287Y-55334350D01*
X105336039Y-55349102D01*
X105369524Y-55410425D01*
X105372358Y-55436783D01*
X105372358Y-56155883D01*
X105352673Y-56222922D01*
X105336039Y-56243564D01*
X105321287Y-56258315D01*
X105321282Y-56258321D01*
X105248811Y-56383844D01*
X105248810Y-56383848D01*
X105211294Y-56523858D01*
X105211294Y-56668808D01*
X105236529Y-56762984D01*
X105248811Y-56808821D01*
X105321282Y-56934344D01*
X105321287Y-56934350D01*
X105336039Y-56949102D01*
X105369524Y-57010425D01*
X105372358Y-57036783D01*
X105372358Y-57755883D01*
X105352673Y-57822922D01*
X105336039Y-57843564D01*
X105321287Y-57858315D01*
X105321282Y-57858321D01*
X105248811Y-57983844D01*
X105248810Y-57983848D01*
X105211294Y-58123858D01*
X105211294Y-58123860D01*
X105211294Y-58176381D01*
X105191609Y-58243420D01*
X105138805Y-58289175D01*
X105080602Y-58297897D01*
X105080602Y-58299500D01*
X104927525Y-58299500D01*
X104868058Y-58315434D01*
X104798208Y-58313771D01*
X104740346Y-58274608D01*
X104712842Y-58210379D01*
X104711965Y-58195659D01*
X104711965Y-58125737D01*
X104711965Y-58125735D01*
X104674449Y-57985725D01*
X104673365Y-57983848D01*
X104650763Y-57944700D01*
X104601974Y-57860195D01*
X104601968Y-57860189D01*
X104598983Y-57856298D01*
X104573788Y-57791129D01*
X104573358Y-57780810D01*
X104573358Y-57015609D01*
X104593043Y-56948570D01*
X104598987Y-56940117D01*
X104601967Y-56936231D01*
X104601974Y-56936225D01*
X104674449Y-56810695D01*
X104711965Y-56670685D01*
X104711965Y-56525735D01*
X104674449Y-56385725D01*
X104673365Y-56383848D01*
X104631706Y-56311693D01*
X104601974Y-56260195D01*
X104601968Y-56260189D01*
X104598983Y-56256298D01*
X104573788Y-56191129D01*
X104573358Y-56180810D01*
X104573358Y-55415609D01*
X104593043Y-55348570D01*
X104598987Y-55340117D01*
X104601967Y-55336231D01*
X104601974Y-55336225D01*
X104674449Y-55210695D01*
X104711965Y-55070685D01*
X104711965Y-54925735D01*
X104674449Y-54785725D01*
X104673365Y-54783848D01*
X104643336Y-54731836D01*
X104601974Y-54660195D01*
X104601968Y-54660189D01*
X104598983Y-54656298D01*
X104573788Y-54591129D01*
X104573358Y-54580810D01*
X104573358Y-53798913D01*
X104593043Y-53731874D01*
X104609677Y-53711232D01*
X104613367Y-53707542D01*
X104685842Y-53582012D01*
X104723358Y-53442002D01*
X104723358Y-53297052D01*
X104685842Y-53157042D01*
X104683683Y-53153303D01*
X104613369Y-53031515D01*
X104613364Y-53031509D01*
X104510875Y-52929020D01*
X104510869Y-52929015D01*
X104385346Y-52856544D01*
X104385347Y-52856544D01*
X104362790Y-52850500D01*
X104245333Y-52819027D01*
X104159434Y-52819027D01*
X104092395Y-52799342D01*
X104046640Y-52746538D01*
X104036696Y-52677380D01*
X104039659Y-52662934D01*
X104040314Y-52660485D01*
X104050500Y-52622475D01*
X104050500Y-52477525D01*
X104012984Y-52337515D01*
X104002978Y-52320185D01*
X103940511Y-52211988D01*
X103940506Y-52211982D01*
X103838017Y-52109493D01*
X103838011Y-52109488D01*
X103712488Y-52037017D01*
X103712489Y-52037017D01*
X103701006Y-52033940D01*
X103572475Y-51999500D01*
X103572472Y-51999500D01*
X103567255Y-51999500D01*
X103500216Y-51979815D01*
X103479574Y-51963181D01*
X103254914Y-51738521D01*
X103254912Y-51738519D01*
X103209249Y-51712155D01*
X103163588Y-51685792D01*
X103097965Y-51668209D01*
X103061726Y-51658499D01*
X103061725Y-51658499D01*
X99074500Y-51658499D01*
X99007461Y-51638814D01*
X98961706Y-51586010D01*
X98950500Y-51534499D01*
X98950500Y-51477527D01*
X98950500Y-51477525D01*
X98912984Y-51337515D01*
X98909385Y-51331282D01*
X98840511Y-51211988D01*
X98840506Y-51211982D01*
X98738017Y-51109493D01*
X98738011Y-51109488D01*
X98612488Y-51037017D01*
X98612489Y-51037017D01*
X98601006Y-51033940D01*
X98472475Y-50999500D01*
X98327525Y-50999500D01*
X98198993Y-51033940D01*
X98187511Y-51037017D01*
X98061988Y-51109488D01*
X98061982Y-51109493D01*
X97959493Y-51211982D01*
X97959488Y-51211988D01*
X97887017Y-51337511D01*
X97887016Y-51337515D01*
X97849500Y-51477525D01*
X97849500Y-51622475D01*
X97880595Y-51738521D01*
X97887017Y-51762488D01*
X97959488Y-51888011D01*
X97959490Y-51888013D01*
X97959491Y-51888015D01*
X98061985Y-51990509D01*
X98087907Y-52005475D01*
X98136121Y-52056040D01*
X98149345Y-52124647D01*
X98123377Y-52189512D01*
X98113587Y-52200542D01*
X97717612Y-52596518D01*
X97717610Y-52596521D01*
X97664883Y-52687844D01*
X97637590Y-52789707D01*
X97637590Y-56244654D01*
X97617905Y-56311693D01*
X97601271Y-56332335D01*
X96818733Y-57114872D01*
X96757410Y-57148357D01*
X96687718Y-57143373D01*
X96631785Y-57101501D01*
X96623669Y-57089198D01*
X96590233Y-57031284D01*
X96478429Y-56919480D01*
X96478427Y-56919479D01*
X96478422Y-56919475D01*
X96341503Y-56840426D01*
X96341499Y-56840424D01*
X96341497Y-56840423D01*
X96188770Y-56799500D01*
X96030656Y-56799500D01*
X95877929Y-56840423D01*
X95877922Y-56840426D01*
X95741003Y-56919475D01*
X95740995Y-56919481D01*
X95697296Y-56963181D01*
X95635973Y-56996666D01*
X95609615Y-56999500D01*
X92817255Y-56999500D01*
X92750216Y-56979815D01*
X92729574Y-56963181D01*
X90736819Y-54970426D01*
X90724777Y-54948374D01*
X90709287Y-54928592D01*
X90706751Y-54915361D01*
X90703334Y-54909103D01*
X90701037Y-54894276D01*
X90700500Y-54888526D01*
X90700500Y-54820943D01*
X90687103Y-54770943D01*
X92199500Y-54770943D01*
X92199500Y-54929057D01*
X92238384Y-55074172D01*
X92240423Y-55081783D01*
X92240426Y-55081790D01*
X92319475Y-55218709D01*
X92319479Y-55218714D01*
X92319480Y-55218716D01*
X92431284Y-55330520D01*
X92431286Y-55330521D01*
X92431290Y-55330524D01*
X92522224Y-55383024D01*
X92568216Y-55409577D01*
X92720943Y-55450500D01*
X92720945Y-55450500D01*
X92879055Y-55450500D01*
X92879057Y-55450500D01*
X93031784Y-55409577D01*
X93168716Y-55330520D01*
X93280520Y-55218716D01*
X93359577Y-55081784D01*
X93400500Y-54929057D01*
X93400500Y-54770943D01*
X93359577Y-54618216D01*
X93347107Y-54596617D01*
X93280524Y-54481290D01*
X93280518Y-54481282D01*
X93168717Y-54369481D01*
X93168709Y-54369475D01*
X93031790Y-54290426D01*
X93031786Y-54290424D01*
X93031784Y-54290423D01*
X92879057Y-54249500D01*
X92720943Y-54249500D01*
X92568216Y-54290423D01*
X92568209Y-54290426D01*
X92431290Y-54369475D01*
X92431282Y-54369481D01*
X92319481Y-54481282D01*
X92319475Y-54481290D01*
X92240426Y-54618209D01*
X92240423Y-54618216D01*
X92199500Y-54770943D01*
X90687103Y-54770943D01*
X90659577Y-54668216D01*
X90654944Y-54660192D01*
X90580524Y-54531290D01*
X90580518Y-54531282D01*
X90468717Y-54419481D01*
X90468709Y-54419475D01*
X90331790Y-54340426D01*
X90331786Y-54340424D01*
X90331784Y-54340423D01*
X90179057Y-54299500D01*
X90020943Y-54299500D01*
X89965593Y-54314331D01*
X89940598Y-54313735D01*
X89915853Y-54317294D01*
X89906272Y-54312918D01*
X89895743Y-54312668D01*
X89875039Y-54298655D01*
X89852297Y-54288269D01*
X89846602Y-54279407D01*
X89837881Y-54273505D01*
X89828040Y-54250524D01*
X89814523Y-54229491D01*
X89812243Y-54213633D01*
X89810377Y-54209276D01*
X89809500Y-54194556D01*
X89809500Y-54022453D01*
X89829185Y-53955414D01*
X89845819Y-53934772D01*
X90100073Y-53680518D01*
X90388433Y-53392157D01*
X90449754Y-53358674D01*
X90519445Y-53363658D01*
X90575379Y-53405529D01*
X90586331Y-53424762D01*
X90586359Y-53424746D01*
X90669475Y-53568709D01*
X90669479Y-53568714D01*
X90669480Y-53568716D01*
X90781284Y-53680520D01*
X90781286Y-53680521D01*
X90781290Y-53680524D01*
X90878979Y-53736924D01*
X90918216Y-53759577D01*
X91070943Y-53800500D01*
X91070945Y-53800500D01*
X91229055Y-53800500D01*
X91229057Y-53800500D01*
X91381784Y-53759577D01*
X91518716Y-53680520D01*
X91630520Y-53568716D01*
X91709577Y-53431784D01*
X91750500Y-53279057D01*
X91750500Y-53120943D01*
X91709577Y-52968216D01*
X91688226Y-52931235D01*
X91630524Y-52831290D01*
X91630518Y-52831282D01*
X91518717Y-52719481D01*
X91518709Y-52719475D01*
X91374746Y-52636359D01*
X91375472Y-52635100D01*
X91327982Y-52596829D01*
X91305920Y-52530534D01*
X91323201Y-52462835D01*
X91342156Y-52438435D01*
X91987820Y-51792770D01*
X92049142Y-51759287D01*
X92118834Y-51764271D01*
X92174767Y-51806143D01*
X92199184Y-51871607D01*
X92199500Y-51880453D01*
X92199500Y-51979057D01*
X92225592Y-52076431D01*
X92240423Y-52131783D01*
X92240426Y-52131790D01*
X92319475Y-52268709D01*
X92319479Y-52268714D01*
X92319480Y-52268716D01*
X92431284Y-52380520D01*
X92431286Y-52380521D01*
X92431290Y-52380524D01*
X92568081Y-52459499D01*
X92568216Y-52459577D01*
X92720943Y-52500500D01*
X92720945Y-52500500D01*
X92879055Y-52500500D01*
X92879057Y-52500500D01*
X93031784Y-52459577D01*
X93168716Y-52380520D01*
X93280520Y-52268716D01*
X93359577Y-52131784D01*
X93400500Y-51979057D01*
X93400500Y-51820943D01*
X93359577Y-51668216D01*
X93333167Y-51622472D01*
X93280524Y-51531290D01*
X93280518Y-51531282D01*
X93168717Y-51419481D01*
X93168709Y-51419475D01*
X93031790Y-51340426D01*
X93031786Y-51340424D01*
X93031784Y-51340423D01*
X92879057Y-51299500D01*
X92780454Y-51299500D01*
X92713415Y-51279815D01*
X92667660Y-51227011D01*
X92657716Y-51157853D01*
X92686741Y-51094297D01*
X92692773Y-51087819D01*
X94142581Y-49638011D01*
X95561389Y-48219202D01*
X100995000Y-48219202D01*
X100995000Y-48376797D01*
X101025741Y-48531343D01*
X101025743Y-48531351D01*
X101079153Y-48660293D01*
X101441446Y-48298001D01*
X101441446Y-48297999D01*
X101079153Y-47935705D01*
X101025743Y-48064648D01*
X101025741Y-48064656D01*
X100995000Y-48219202D01*
X95561389Y-48219202D01*
X96117591Y-47663000D01*
X101513553Y-47663000D01*
X101795000Y-47944446D01*
X101795001Y-47944446D01*
X102052819Y-47686628D01*
X102083384Y-47669938D01*
X101795001Y-47381553D01*
X101795000Y-47381553D01*
X101513553Y-47663000D01*
X96117591Y-47663000D01*
X96831388Y-46949202D01*
X100995000Y-46949202D01*
X100995000Y-47106797D01*
X101025741Y-47261343D01*
X101025743Y-47261351D01*
X101079153Y-47390293D01*
X101441446Y-47028001D01*
X101441446Y-47027999D01*
X101398660Y-46985213D01*
X101470000Y-46985213D01*
X101470000Y-47070787D01*
X101492149Y-47153445D01*
X101534936Y-47227554D01*
X101595446Y-47288064D01*
X101669555Y-47330851D01*
X101752213Y-47353000D01*
X101837787Y-47353000D01*
X101920445Y-47330851D01*
X101994554Y-47288064D01*
X102055064Y-47227554D01*
X102097851Y-47153445D01*
X102120000Y-47070787D01*
X102120000Y-46985213D01*
X102097851Y-46902555D01*
X102055064Y-46828446D01*
X101994554Y-46767936D01*
X101920445Y-46725149D01*
X101837787Y-46703000D01*
X101752213Y-46703000D01*
X101669555Y-46725149D01*
X101595446Y-46767936D01*
X101534936Y-46828446D01*
X101492149Y-46902555D01*
X101470000Y-46985213D01*
X101398660Y-46985213D01*
X101079153Y-46665705D01*
X101025743Y-46794648D01*
X101025741Y-46794656D01*
X100995000Y-46949202D01*
X96831388Y-46949202D01*
X97593772Y-46186818D01*
X97655095Y-46153334D01*
X97681453Y-46150500D01*
X99129637Y-46150500D01*
X99196676Y-46170185D01*
X99237024Y-46212500D01*
X99269480Y-46268716D01*
X99381284Y-46380520D01*
X99381286Y-46380521D01*
X99381290Y-46380524D01*
X99518209Y-46459573D01*
X99518216Y-46459577D01*
X99670943Y-46500500D01*
X99670945Y-46500500D01*
X99829055Y-46500500D01*
X99829057Y-46500500D01*
X99981784Y-46459577D01*
X100097100Y-46393000D01*
X101513553Y-46393000D01*
X101795000Y-46674446D01*
X101795001Y-46674446D01*
X102076446Y-46393001D01*
X102076446Y-46392999D01*
X101795001Y-46111553D01*
X101795000Y-46111553D01*
X101513553Y-46393000D01*
X100097100Y-46393000D01*
X100118716Y-46380520D01*
X100230520Y-46268716D01*
X100239933Y-46252413D01*
X100298771Y-46150500D01*
X100309577Y-46131784D01*
X100350500Y-45979057D01*
X100350500Y-45820943D01*
X100309577Y-45668216D01*
X100293519Y-45640403D01*
X100230524Y-45531290D01*
X100230518Y-45531282D01*
X100118717Y-45419481D01*
X100118709Y-45419475D01*
X99981788Y-45340424D01*
X99978498Y-45339062D01*
X99976148Y-45337168D01*
X99974746Y-45336359D01*
X99974872Y-45336140D01*
X99924093Y-45295222D01*
X99902027Y-45228928D01*
X99919305Y-45161229D01*
X99970441Y-45113617D01*
X100025948Y-45100500D01*
X101040187Y-45100500D01*
X101107226Y-45120185D01*
X101152981Y-45172989D01*
X101162925Y-45242147D01*
X101143289Y-45293391D01*
X101086052Y-45379051D01*
X101086047Y-45379060D01*
X101025743Y-45524648D01*
X101025741Y-45524656D01*
X100995000Y-45679202D01*
X100995000Y-45836797D01*
X101025741Y-45991343D01*
X101025743Y-45991351D01*
X101079153Y-46120293D01*
X101470000Y-45729446D01*
X101470000Y-45800787D01*
X101492149Y-45883445D01*
X101534936Y-45957554D01*
X101595446Y-46018064D01*
X101669555Y-46060851D01*
X101752213Y-46083000D01*
X101837787Y-46083000D01*
X101920445Y-46060851D01*
X101994554Y-46018064D01*
X102055064Y-45957554D01*
X102097851Y-45883445D01*
X102120000Y-45800787D01*
X102120000Y-45729446D01*
X102247115Y-45856561D01*
X102280600Y-45917884D01*
X102281051Y-45920051D01*
X102295261Y-45991489D01*
X102295264Y-45991501D01*
X102355602Y-46137172D01*
X102355609Y-46137185D01*
X102443210Y-46268288D01*
X102443213Y-46268292D01*
X102480240Y-46305319D01*
X102513725Y-46366642D01*
X102508741Y-46436334D01*
X102480240Y-46480681D01*
X102443213Y-46517707D01*
X102443210Y-46517711D01*
X102355609Y-46648814D01*
X102355602Y-46648827D01*
X102295264Y-46794498D01*
X102295261Y-46794508D01*
X102281051Y-46865948D01*
X102248666Y-46927859D01*
X102247116Y-46929437D01*
X102148553Y-47028000D01*
X102247115Y-47126561D01*
X102280600Y-47187884D01*
X102281051Y-47190051D01*
X102295261Y-47261491D01*
X102295264Y-47261501D01*
X102355603Y-47407174D01*
X102369262Y-47427616D01*
X102376242Y-47449911D01*
X102387388Y-47470440D01*
X102386486Y-47482628D01*
X102390139Y-47494293D01*
X102383958Y-47516821D01*
X102382236Y-47540119D01*
X102374105Y-47552737D01*
X102371654Y-47561673D01*
X102365247Y-47571055D01*
X102360000Y-47578028D01*
X102312794Y-47625235D01*
X102296186Y-47662846D01*
X102287603Y-47674256D01*
X102270567Y-47686944D01*
X102256860Y-47703172D01*
X102243107Y-47707398D01*
X102242653Y-47707736D01*
X102264184Y-47765463D01*
X102264500Y-47774309D01*
X102264500Y-48130691D01*
X102244815Y-48197730D01*
X102228181Y-48218372D01*
X102120000Y-48326553D01*
X102120000Y-48255213D01*
X102097851Y-48172555D01*
X102055064Y-48098446D01*
X101994554Y-48037936D01*
X101920445Y-47995149D01*
X101837787Y-47973000D01*
X101752213Y-47973000D01*
X101669555Y-47995149D01*
X101595446Y-48037936D01*
X101534936Y-48098446D01*
X101492149Y-48172555D01*
X101470000Y-48255213D01*
X101470000Y-48340787D01*
X101492149Y-48423445D01*
X101534936Y-48497554D01*
X101595446Y-48558064D01*
X101669555Y-48600851D01*
X101752213Y-48623000D01*
X101823553Y-48623000D01*
X101432706Y-49013845D01*
X101561652Y-49067257D01*
X101561656Y-49067258D01*
X101716202Y-49097999D01*
X101716206Y-49098000D01*
X101873794Y-49098000D01*
X101873797Y-49097999D01*
X102028343Y-49067258D01*
X102028351Y-49067256D01*
X102173940Y-49006951D01*
X102173942Y-49006950D01*
X102194253Y-48993379D01*
X102260929Y-48972499D01*
X102328310Y-48990982D01*
X102350827Y-49008798D01*
X102392235Y-49050206D01*
X102495009Y-49095585D01*
X102520135Y-49098500D01*
X103609864Y-49098499D01*
X103609879Y-49098497D01*
X103609882Y-49098497D01*
X103615927Y-49097795D01*
X103634991Y-49095585D01*
X103635002Y-49095579D01*
X103643803Y-49093186D01*
X103713659Y-49094577D01*
X103771674Y-49133513D01*
X103799429Y-49197634D01*
X103799342Y-49219398D01*
X103799500Y-49219398D01*
X103799500Y-49227525D01*
X103799500Y-49372475D01*
X103817109Y-49438191D01*
X103837017Y-49512488D01*
X103909488Y-49638011D01*
X103909490Y-49638013D01*
X103909491Y-49638015D01*
X104011985Y-49740509D01*
X104011986Y-49740510D01*
X104011988Y-49740511D01*
X104137511Y-49812982D01*
X104137512Y-49812982D01*
X104137515Y-49812984D01*
X104277525Y-49850500D01*
X104277528Y-49850500D01*
X104422472Y-49850500D01*
X104422475Y-49850500D01*
X104562485Y-49812984D01*
X104688015Y-49740509D01*
X104790509Y-49638015D01*
X104862984Y-49512485D01*
X104900500Y-49372475D01*
X104900500Y-49227525D01*
X104862984Y-49087515D01*
X104851287Y-49067256D01*
X104790511Y-48961988D01*
X104790506Y-48961982D01*
X104688017Y-48859493D01*
X104688011Y-48859488D01*
X104562488Y-48787017D01*
X104562489Y-48787017D01*
X104551006Y-48783940D01*
X104422475Y-48749500D01*
X104277525Y-48749500D01*
X104137515Y-48787016D01*
X104137514Y-48787016D01*
X104137512Y-48787017D01*
X104051498Y-48836677D01*
X103983598Y-48853149D01*
X103917571Y-48830296D01*
X103874381Y-48775374D01*
X103865499Y-48729293D01*
X103865499Y-47753136D01*
X103865497Y-47753117D01*
X103862586Y-47728012D01*
X103862585Y-47728010D01*
X103862585Y-47728009D01*
X103817206Y-47625235D01*
X103817205Y-47625233D01*
X103776158Y-47584186D01*
X103742674Y-47522863D01*
X103747659Y-47453171D01*
X103760735Y-47427620D01*
X103774394Y-47407179D01*
X103834737Y-47261497D01*
X103865500Y-47106842D01*
X103865500Y-46949158D01*
X103865500Y-46949155D01*
X103865499Y-46949153D01*
X103848948Y-46865948D01*
X103834737Y-46794503D01*
X103802083Y-46715668D01*
X103774397Y-46648827D01*
X103774390Y-46648814D01*
X103686789Y-46517711D01*
X103686786Y-46517707D01*
X103649760Y-46480681D01*
X103616275Y-46419358D01*
X103621259Y-46349666D01*
X103649760Y-46305319D01*
X103686786Y-46268292D01*
X103686789Y-46268289D01*
X103774394Y-46137179D01*
X103775667Y-46134107D01*
X103789690Y-46100250D01*
X103834737Y-45991497D01*
X103865500Y-45836842D01*
X103865500Y-45679158D01*
X103865500Y-45679155D01*
X103865499Y-45679153D01*
X103857791Y-45640403D01*
X103834737Y-45524503D01*
X103834735Y-45524498D01*
X103774397Y-45378827D01*
X103774390Y-45378814D01*
X103717312Y-45293391D01*
X103696434Y-45226713D01*
X103714919Y-45159333D01*
X103766897Y-45112643D01*
X103820414Y-45100500D01*
X107385334Y-45100500D01*
X107452373Y-45120185D01*
X107498128Y-45172989D01*
X107508072Y-45242147D01*
X107505109Y-45256589D01*
X107499500Y-45277525D01*
X107499500Y-45422475D01*
X107535934Y-45558446D01*
X107537017Y-45562488D01*
X107609488Y-45688011D01*
X107609490Y-45688013D01*
X107609491Y-45688015D01*
X107711985Y-45790509D01*
X107711986Y-45790510D01*
X107711988Y-45790511D01*
X107837511Y-45862982D01*
X107837512Y-45862982D01*
X107837515Y-45862984D01*
X107977525Y-45900500D01*
X107977528Y-45900500D01*
X108122472Y-45900500D01*
X108122475Y-45900500D01*
X108262485Y-45862984D01*
X108388015Y-45790509D01*
X108490509Y-45688015D01*
X108562984Y-45562485D01*
X108600500Y-45422475D01*
X108600500Y-45277525D01*
X108594891Y-45256592D01*
X108596554Y-45186743D01*
X108635717Y-45128881D01*
X108699945Y-45101377D01*
X108714666Y-45100500D01*
X111957197Y-45100500D01*
X112024236Y-45120185D01*
X112069991Y-45172989D01*
X112079935Y-45242147D01*
X112050910Y-45305703D01*
X112004649Y-45339061D01*
X111924663Y-45372191D01*
X111924647Y-45372199D01*
X111674851Y-45516420D01*
X111674835Y-45516431D01*
X111445997Y-45692024D01*
X111445990Y-45692030D01*
X111242030Y-45895990D01*
X111242024Y-45895997D01*
X111066431Y-46124835D01*
X111066420Y-46124851D01*
X110922199Y-46374647D01*
X110922191Y-46374663D01*
X110811814Y-46641139D01*
X110811809Y-46641155D01*
X110740378Y-46907742D01*
X110737152Y-46919780D01*
X110737149Y-46919793D01*
X110699501Y-47205761D01*
X110699500Y-47205778D01*
X110699500Y-47494221D01*
X110699501Y-47494238D01*
X110737149Y-47780206D01*
X110737150Y-47780211D01*
X110737151Y-47780217D01*
X110811809Y-48058844D01*
X110811814Y-48058860D01*
X110922191Y-48325336D01*
X110922199Y-48325352D01*
X111066420Y-48575148D01*
X111066431Y-48575164D01*
X111242024Y-48804002D01*
X111242030Y-48804009D01*
X111445990Y-49007969D01*
X111445997Y-49007975D01*
X111558859Y-49094577D01*
X111674844Y-49183575D01*
X111674851Y-49183579D01*
X111924647Y-49327800D01*
X111924663Y-49327808D01*
X112191139Y-49438185D01*
X112191145Y-49438186D01*
X112191155Y-49438191D01*
X112469783Y-49512849D01*
X112755772Y-49550500D01*
X112755779Y-49550500D01*
X113044221Y-49550500D01*
X113044228Y-49550500D01*
X113330217Y-49512849D01*
X113608845Y-49438191D01*
X113608857Y-49438185D01*
X113608860Y-49438185D01*
X113875336Y-49327808D01*
X113875339Y-49327806D01*
X113875345Y-49327804D01*
X114125156Y-49183575D01*
X114354004Y-49007974D01*
X114557974Y-48804004D01*
X114733575Y-48575156D01*
X114877804Y-48325345D01*
X114877808Y-48325336D01*
X114910939Y-48245351D01*
X114954780Y-48190947D01*
X115021074Y-48168882D01*
X115088773Y-48186161D01*
X115136384Y-48237298D01*
X115149500Y-48292803D01*
X115149500Y-75157196D01*
X115129815Y-75224235D01*
X115077011Y-75269990D01*
X115007853Y-75279934D01*
X114944297Y-75250909D01*
X114910939Y-75204649D01*
X114877805Y-75124658D01*
X114877800Y-75124647D01*
X114733579Y-74874851D01*
X114733575Y-74874844D01*
X114643926Y-74758011D01*
X114557975Y-74645997D01*
X114557969Y-74645990D01*
X114354009Y-74442030D01*
X114354002Y-74442024D01*
X114125164Y-74266431D01*
X114125162Y-74266429D01*
X114125156Y-74266425D01*
X114125151Y-74266422D01*
X114125148Y-74266420D01*
X113875352Y-74122199D01*
X113875336Y-74122191D01*
X113608860Y-74011814D01*
X113608848Y-74011810D01*
X113608845Y-74011809D01*
X113330217Y-73937151D01*
X113330211Y-73937150D01*
X113330206Y-73937149D01*
X113044238Y-73899501D01*
X113044233Y-73899500D01*
X113044228Y-73899500D01*
X112755772Y-73899500D01*
X112755766Y-73899500D01*
X112755761Y-73899501D01*
X112469793Y-73937149D01*
X112469786Y-73937150D01*
X112469783Y-73937151D01*
X112207382Y-74007461D01*
X112191155Y-74011809D01*
X112191139Y-74011814D01*
X111924663Y-74122191D01*
X111924647Y-74122199D01*
X111674851Y-74266420D01*
X111674835Y-74266431D01*
X111445997Y-74442024D01*
X111445990Y-74442030D01*
X111242030Y-74645990D01*
X111242024Y-74645997D01*
X111066431Y-74874835D01*
X111066420Y-74874851D01*
X110922199Y-75124647D01*
X110922191Y-75124663D01*
X110811814Y-75391139D01*
X110811809Y-75391155D01*
X110748242Y-75628393D01*
X110737152Y-75669780D01*
X110737149Y-75669793D01*
X110699501Y-75955761D01*
X110699500Y-75955778D01*
X110699500Y-76244221D01*
X110699501Y-76244238D01*
X110737149Y-76530206D01*
X110737150Y-76530211D01*
X110737151Y-76530217D01*
X110811809Y-76808844D01*
X110811814Y-76808860D01*
X110922191Y-77075336D01*
X110922199Y-77075352D01*
X111066420Y-77325148D01*
X111066431Y-77325164D01*
X111242024Y-77554002D01*
X111242030Y-77554009D01*
X111445990Y-77757969D01*
X111445997Y-77757975D01*
X111565927Y-77850000D01*
X111674844Y-77933575D01*
X111674851Y-77933579D01*
X111924647Y-78077800D01*
X111924663Y-78077808D01*
X112004649Y-78110939D01*
X112059053Y-78154780D01*
X112081118Y-78221074D01*
X112063839Y-78288773D01*
X112012702Y-78336384D01*
X111957197Y-78349500D01*
X93764441Y-78349500D01*
X93697402Y-78329815D01*
X93651647Y-78277011D01*
X93641703Y-78207853D01*
X93670728Y-78144297D01*
X93676760Y-78137819D01*
X93684286Y-78130292D01*
X93684289Y-78130289D01*
X93771894Y-77999179D01*
X93832237Y-77853497D01*
X93863000Y-77698842D01*
X93863000Y-77541158D01*
X93863000Y-77541155D01*
X93862999Y-77541153D01*
X93832238Y-77386510D01*
X93832237Y-77386503D01*
X93806830Y-77325164D01*
X93771897Y-77240827D01*
X93771890Y-77240814D01*
X93684289Y-77109711D01*
X93684286Y-77109707D01*
X93572792Y-76998213D01*
X93572788Y-76998210D01*
X93441685Y-76910609D01*
X93441672Y-76910602D01*
X93296001Y-76850264D01*
X93295989Y-76850261D01*
X93141345Y-76819500D01*
X93141342Y-76819500D01*
X92902043Y-76819500D01*
X92835004Y-76799815D01*
X92789249Y-76747011D01*
X92787482Y-76742952D01*
X92736897Y-76620827D01*
X92736890Y-76620814D01*
X92649289Y-76489711D01*
X92649286Y-76489707D01*
X92537792Y-76378213D01*
X92537788Y-76378210D01*
X92406685Y-76290609D01*
X92406672Y-76290602D01*
X92261001Y-76230264D01*
X92260989Y-76230261D01*
X92106345Y-76199500D01*
X92106342Y-76199500D01*
X91948658Y-76199500D01*
X91948655Y-76199500D01*
X91794010Y-76230261D01*
X91793998Y-76230264D01*
X91648327Y-76290602D01*
X91648314Y-76290609D01*
X91532158Y-76368223D01*
X91465480Y-76389101D01*
X91401268Y-76372508D01*
X91322087Y-76326793D01*
X91220227Y-76299500D01*
X91114773Y-76299500D01*
X91012913Y-76326793D01*
X91012910Y-76326794D01*
X90921585Y-76379521D01*
X90847021Y-76454085D01*
X90794294Y-76545410D01*
X90794293Y-76545413D01*
X90767000Y-76647273D01*
X90767000Y-76752727D01*
X90793135Y-76850263D01*
X90794293Y-76854586D01*
X90794294Y-76854589D01*
X90803730Y-76870933D01*
X90847020Y-76945913D01*
X90921587Y-77020480D01*
X91012913Y-77073207D01*
X91114773Y-77100500D01*
X91114778Y-77100500D01*
X91119178Y-77101079D01*
X91183077Y-77129342D01*
X91221551Y-77187664D01*
X91227000Y-77224019D01*
X91227000Y-77778846D01*
X91257761Y-77933489D01*
X91257764Y-77933501D01*
X91318102Y-78079172D01*
X91318109Y-78079184D01*
X91369843Y-78156609D01*
X91390721Y-78223286D01*
X91372237Y-78290666D01*
X91320258Y-78337357D01*
X91266741Y-78349500D01*
X89319441Y-78349500D01*
X89252402Y-78329815D01*
X89206647Y-78277011D01*
X89196703Y-78207853D01*
X89225728Y-78144297D01*
X89231760Y-78137819D01*
X89239286Y-78130292D01*
X89239289Y-78130289D01*
X89326894Y-77999179D01*
X89387237Y-77853497D01*
X89418000Y-77698842D01*
X89418000Y-77541158D01*
X89418000Y-77541155D01*
X89417999Y-77541153D01*
X89387238Y-77386510D01*
X89387237Y-77386503D01*
X89361830Y-77325164D01*
X89326897Y-77240827D01*
X89326890Y-77240814D01*
X89239289Y-77109711D01*
X89239286Y-77109707D01*
X89127792Y-76998213D01*
X89127788Y-76998210D01*
X88996685Y-76910609D01*
X88996672Y-76910602D01*
X88851001Y-76850264D01*
X88850989Y-76850261D01*
X88696345Y-76819500D01*
X88696342Y-76819500D01*
X87238658Y-76819500D01*
X87238655Y-76819500D01*
X87084010Y-76850261D01*
X87083998Y-76850264D01*
X86938327Y-76910602D01*
X86938309Y-76910612D01*
X86843390Y-76974035D01*
X86776713Y-76994913D01*
X86709333Y-76976428D01*
X86662643Y-76924449D01*
X86650500Y-76870933D01*
X86650500Y-69729066D01*
X86670185Y-69662027D01*
X86722989Y-69616272D01*
X86792147Y-69606328D01*
X86843391Y-69625964D01*
X86938314Y-69689390D01*
X86938327Y-69689397D01*
X87073564Y-69745413D01*
X87084003Y-69749737D01*
X87236200Y-69780011D01*
X87238653Y-69780499D01*
X87238656Y-69780500D01*
X87238658Y-69780500D01*
X88696344Y-69780500D01*
X88696345Y-69780499D01*
X88850997Y-69749737D01*
X88996679Y-69689394D01*
X89127789Y-69601789D01*
X89239289Y-69490289D01*
X89326894Y-69359179D01*
X89387237Y-69213497D01*
X89418000Y-69058842D01*
X89418000Y-68901158D01*
X89418000Y-68901155D01*
X89417999Y-68901153D01*
X89408262Y-68852203D01*
X89387237Y-68746503D01*
X89341672Y-68636498D01*
X89326897Y-68600827D01*
X89326890Y-68600814D01*
X89239289Y-68469711D01*
X89239286Y-68469707D01*
X89127792Y-68358213D01*
X89127788Y-68358210D01*
X88996685Y-68270609D01*
X88996672Y-68270602D01*
X88851001Y-68210264D01*
X88850989Y-68210261D01*
X88696345Y-68179500D01*
X88696342Y-68179500D01*
X87238658Y-68179500D01*
X87238655Y-68179500D01*
X87084010Y-68210261D01*
X87083998Y-68210264D01*
X86938327Y-68270602D01*
X86938309Y-68270612D01*
X86843390Y-68334035D01*
X86776713Y-68354913D01*
X86709333Y-68336428D01*
X86662643Y-68284449D01*
X86650500Y-68230933D01*
X86650500Y-59248653D01*
X86670185Y-59181614D01*
X86722989Y-59135859D01*
X86792147Y-59125915D01*
X86836500Y-59141266D01*
X86868216Y-59159577D01*
X87020943Y-59200500D01*
X87020945Y-59200500D01*
X87179055Y-59200500D01*
X87179057Y-59200500D01*
X87331784Y-59159577D01*
X87468716Y-59080520D01*
X87580520Y-58968716D01*
X87659577Y-58831784D01*
X87700500Y-58679057D01*
X87700500Y-58520943D01*
X87659577Y-58368216D01*
X87641564Y-58337016D01*
X87580524Y-58231290D01*
X87580518Y-58231282D01*
X87468717Y-58119481D01*
X87468709Y-58119475D01*
X87331790Y-58040426D01*
X87331786Y-58040424D01*
X87331784Y-58040423D01*
X87179057Y-57999500D01*
X87020943Y-57999500D01*
X86868216Y-58040423D01*
X86868213Y-58040424D01*
X86836497Y-58058735D01*
X86768597Y-58075205D01*
X86702571Y-58052352D01*
X86659381Y-57997429D01*
X86650500Y-57951346D01*
X86650500Y-51620943D01*
X87699500Y-51620943D01*
X87699500Y-51779057D01*
X87723363Y-51868113D01*
X87740423Y-51931783D01*
X87740426Y-51931790D01*
X87819475Y-52068709D01*
X87819479Y-52068714D01*
X87819480Y-52068716D01*
X87931284Y-52180520D01*
X87931286Y-52180521D01*
X87931290Y-52180524D01*
X88068209Y-52259573D01*
X88068216Y-52259577D01*
X88220943Y-52300500D01*
X88220945Y-52300500D01*
X88379055Y-52300500D01*
X88379057Y-52300500D01*
X88531784Y-52259577D01*
X88668716Y-52180520D01*
X88780520Y-52068716D01*
X88859577Y-51931784D01*
X88900500Y-51779057D01*
X88900500Y-51620943D01*
X88859577Y-51468216D01*
X88827114Y-51411988D01*
X88780524Y-51331290D01*
X88780518Y-51331282D01*
X88668717Y-51219481D01*
X88668709Y-51219475D01*
X88531790Y-51140426D01*
X88531786Y-51140424D01*
X88531784Y-51140423D01*
X88379057Y-51099500D01*
X88220943Y-51099500D01*
X88068216Y-51140423D01*
X88068209Y-51140426D01*
X87931290Y-51219475D01*
X87931282Y-51219481D01*
X87819481Y-51331282D01*
X87819475Y-51331290D01*
X87740426Y-51468209D01*
X87740423Y-51468216D01*
X87699500Y-51620943D01*
X86650500Y-51620943D01*
X86650500Y-48292803D01*
X86670185Y-48225764D01*
X86722989Y-48180009D01*
X86792147Y-48170065D01*
X86855703Y-48199090D01*
X86889061Y-48245351D01*
X86922191Y-48325336D01*
X86922199Y-48325352D01*
X87066420Y-48575148D01*
X87066431Y-48575164D01*
X87242024Y-48804002D01*
X87242030Y-48804009D01*
X87445990Y-49007969D01*
X87445997Y-49007975D01*
X87558859Y-49094577D01*
X87674844Y-49183575D01*
X87674851Y-49183579D01*
X87924647Y-49327800D01*
X87924663Y-49327808D01*
X88191139Y-49438185D01*
X88191145Y-49438186D01*
X88191155Y-49438191D01*
X88469783Y-49512849D01*
X88755772Y-49550500D01*
X88755779Y-49550500D01*
X89044221Y-49550500D01*
X89044228Y-49550500D01*
X89330217Y-49512849D01*
X89608845Y-49438191D01*
X89608857Y-49438185D01*
X89608860Y-49438185D01*
X89875336Y-49327808D01*
X89875339Y-49327806D01*
X89875345Y-49327804D01*
X90125156Y-49183575D01*
X90354004Y-49007974D01*
X90557974Y-48804004D01*
X90733575Y-48575156D01*
X90877804Y-48325345D01*
X90906854Y-48255213D01*
X90988185Y-48058860D01*
X90988185Y-48058857D01*
X90988191Y-48058845D01*
X91062849Y-47780217D01*
X91100500Y-47494228D01*
X91100500Y-47205772D01*
X91062849Y-46919783D01*
X90988191Y-46641155D01*
X90988186Y-46641145D01*
X90988185Y-46641139D01*
X90950023Y-46549006D01*
X90931849Y-46505131D01*
X91654500Y-46505131D01*
X91654500Y-47594856D01*
X91654502Y-47594882D01*
X91657413Y-47619987D01*
X91657415Y-47619991D01*
X91702793Y-47722764D01*
X91702794Y-47722765D01*
X91782235Y-47802206D01*
X91885009Y-47847585D01*
X91910135Y-47850500D01*
X92999864Y-47850499D01*
X92999879Y-47850497D01*
X92999882Y-47850497D01*
X93024987Y-47847586D01*
X93024988Y-47847585D01*
X93024991Y-47847585D01*
X93127765Y-47802206D01*
X93169173Y-47760797D01*
X93230494Y-47727313D01*
X93300185Y-47732297D01*
X93325745Y-47745377D01*
X93346062Y-47758953D01*
X93491648Y-47819256D01*
X93491656Y-47819258D01*
X93646202Y-47849999D01*
X93646206Y-47850000D01*
X93803794Y-47850000D01*
X93803797Y-47849999D01*
X93958343Y-47819258D01*
X93958347Y-47819257D01*
X94087293Y-47765845D01*
X93721447Y-47400000D01*
X93771078Y-47400000D01*
X93860095Y-47376148D01*
X93939905Y-47330070D01*
X94005070Y-47264905D01*
X94051148Y-47185095D01*
X94075000Y-47096078D01*
X94075000Y-47049999D01*
X94078553Y-47049999D01*
X94078553Y-47050001D01*
X94440845Y-47412293D01*
X94494257Y-47283347D01*
X94494258Y-47283343D01*
X94524999Y-47128797D01*
X94525000Y-47128794D01*
X94525000Y-46971206D01*
X94524999Y-46971202D01*
X94494258Y-46816656D01*
X94494257Y-46816652D01*
X94440845Y-46687706D01*
X94078553Y-47049999D01*
X94075000Y-47049999D01*
X94075000Y-47003922D01*
X94051148Y-46914905D01*
X94005070Y-46835095D01*
X93939905Y-46769930D01*
X93860095Y-46723852D01*
X93771078Y-46700000D01*
X93721446Y-46700000D01*
X94087293Y-46334153D01*
X93958351Y-46280743D01*
X93958343Y-46280741D01*
X93803797Y-46250000D01*
X93646202Y-46250000D01*
X93491656Y-46280741D01*
X93491648Y-46280743D01*
X93346059Y-46341048D01*
X93325743Y-46354623D01*
X93259065Y-46375500D01*
X93191685Y-46357015D01*
X93169172Y-46339201D01*
X93127765Y-46297794D01*
X93024992Y-46252415D01*
X92999865Y-46249500D01*
X91910143Y-46249500D01*
X91910117Y-46249502D01*
X91885012Y-46252413D01*
X91885008Y-46252415D01*
X91782235Y-46297793D01*
X91702794Y-46377234D01*
X91657415Y-46480006D01*
X91657415Y-46480008D01*
X91654500Y-46505131D01*
X90931849Y-46505131D01*
X90880233Y-46380520D01*
X90877804Y-46374655D01*
X90877802Y-46374652D01*
X90877800Y-46374647D01*
X90733579Y-46124851D01*
X90733575Y-46124844D01*
X90651640Y-46018064D01*
X90557975Y-45895997D01*
X90557969Y-45895990D01*
X90354009Y-45692030D01*
X90354002Y-45692024D01*
X90125164Y-45516431D01*
X90125162Y-45516429D01*
X90125156Y-45516425D01*
X90125151Y-45516422D01*
X90125148Y-45516420D01*
X89875352Y-45372199D01*
X89875336Y-45372191D01*
X89795351Y-45339061D01*
X89740947Y-45295220D01*
X89718882Y-45228926D01*
X89736161Y-45161227D01*
X89787298Y-45113616D01*
X89842803Y-45100500D01*
X99474052Y-45100500D01*
X99541091Y-45120185D01*
G37*
%TD.AperFunction*%
%TA.AperFunction,Conductor*%
G36*
X101434185Y-73253399D02*
G01*
X101443147Y-73252111D01*
X101467187Y-73263089D01*
X101492539Y-73270534D01*
X101498466Y-73277374D01*
X101506703Y-73281136D01*
X101520992Y-73303370D01*
X101538294Y-73323338D01*
X101540581Y-73333852D01*
X101544477Y-73339914D01*
X101549500Y-73374849D01*
X101549500Y-73472475D01*
X101587016Y-73612485D01*
X101587017Y-73612488D01*
X101659488Y-73738011D01*
X101659490Y-73738013D01*
X101659491Y-73738015D01*
X101761985Y-73840509D01*
X101761986Y-73840510D01*
X101761988Y-73840511D01*
X101887511Y-73912982D01*
X101887512Y-73912982D01*
X101887515Y-73912984D01*
X102027525Y-73950500D01*
X102027528Y-73950500D01*
X102172472Y-73950500D01*
X102172475Y-73950500D01*
X102312485Y-73912984D01*
X102438015Y-73840509D01*
X102540509Y-73738015D01*
X102612975Y-73612499D01*
X102663542Y-73564284D01*
X102720362Y-73550500D01*
X102813123Y-73550500D01*
X102813126Y-73550500D01*
X102953136Y-73512984D01*
X102953138Y-73512982D01*
X102953140Y-73512982D01*
X102953141Y-73512981D01*
X102962681Y-73507473D01*
X103033324Y-73466686D01*
X103101224Y-73450213D01*
X103157323Y-73466685D01*
X103237515Y-73512984D01*
X103377525Y-73550500D01*
X103377528Y-73550500D01*
X103522472Y-73550500D01*
X103522475Y-73550500D01*
X103662485Y-73512984D01*
X103714894Y-73482725D01*
X103782792Y-73466252D01*
X103848819Y-73489103D01*
X103892011Y-73544024D01*
X103898654Y-73613577D01*
X103866638Y-73675680D01*
X103864575Y-73677793D01*
X103179189Y-74363181D01*
X103117866Y-74396666D01*
X103091508Y-74399500D01*
X102017255Y-74399500D01*
X101950216Y-74379815D01*
X101929574Y-74363181D01*
X101028923Y-73462530D01*
X100995438Y-73401207D01*
X101000422Y-73331515D01*
X101042294Y-73275582D01*
X101107758Y-73251165D01*
X101116604Y-73250849D01*
X101425500Y-73250849D01*
X101434185Y-73253399D01*
G37*
%TD.AperFunction*%
%TA.AperFunction,Conductor*%
G36*
X99642539Y-71277685D02*
G01*
X99688294Y-71330489D01*
X99699500Y-71382000D01*
X99699500Y-71479975D01*
X99737016Y-71619985D01*
X99737017Y-71619988D01*
X99809488Y-71745511D01*
X99809490Y-71745513D01*
X99809491Y-71745515D01*
X99911985Y-71848009D01*
X99911986Y-71848010D01*
X99911988Y-71848011D01*
X100037511Y-71920482D01*
X100037512Y-71920482D01*
X100037515Y-71920484D01*
X100177525Y-71958000D01*
X100177528Y-71958000D01*
X100322472Y-71958000D01*
X100322475Y-71958000D01*
X100462485Y-71920484D01*
X100483912Y-71908112D01*
X100545912Y-71891500D01*
X102218306Y-71891500D01*
X102285345Y-71911185D01*
X102331100Y-71963989D01*
X102341044Y-72033147D01*
X102312019Y-72096703D01*
X102305987Y-72103181D01*
X101995638Y-72413530D01*
X101934315Y-72447015D01*
X101907957Y-72449849D01*
X96988372Y-72449849D01*
X96921333Y-72430164D01*
X96900691Y-72413530D01*
X96649342Y-72162181D01*
X96615857Y-72100858D01*
X96620841Y-72031166D01*
X96662713Y-71975233D01*
X96728177Y-71950816D01*
X96737023Y-71950500D01*
X96872472Y-71950500D01*
X96872475Y-71950500D01*
X97012485Y-71912984D01*
X97138015Y-71840509D01*
X97171850Y-71806673D01*
X97233170Y-71773189D01*
X97302862Y-71778173D01*
X97358796Y-71820043D01*
X97366918Y-71832357D01*
X97381161Y-71857028D01*
X97381163Y-71857031D01*
X97381164Y-71857032D01*
X97492968Y-71968836D01*
X97492970Y-71968837D01*
X97492974Y-71968840D01*
X97615780Y-72039741D01*
X97629900Y-72047893D01*
X97782627Y-72088816D01*
X97782629Y-72088816D01*
X97940739Y-72088816D01*
X97940741Y-72088816D01*
X98093468Y-72047893D01*
X98230400Y-71968836D01*
X98342204Y-71857032D01*
X98421261Y-71720100D01*
X98462184Y-71567373D01*
X98462184Y-71409259D01*
X98462183Y-71409257D01*
X98461123Y-71401203D01*
X98463793Y-71400851D01*
X98465144Y-71344239D01*
X98504308Y-71286378D01*
X98568538Y-71258876D01*
X98583254Y-71258000D01*
X99575500Y-71258000D01*
X99642539Y-71277685D01*
G37*
%TD.AperFunction*%
%TA.AperFunction,Conductor*%
G36*
X96159707Y-60115114D02*
G01*
X96215640Y-60156986D01*
X96240057Y-60222450D01*
X96236148Y-60263389D01*
X96201821Y-60391499D01*
X96201821Y-60536449D01*
X96239337Y-60676459D01*
X96255810Y-60704991D01*
X96275729Y-60739491D01*
X96292202Y-60807392D01*
X96275729Y-60863492D01*
X96230728Y-60941434D01*
X96230727Y-60941438D01*
X96193211Y-61081448D01*
X96193211Y-61226398D01*
X96221192Y-61330823D01*
X96230728Y-61366411D01*
X96293547Y-61475216D01*
X96310020Y-61543116D01*
X96293548Y-61599214D01*
X96275796Y-61629962D01*
X96275794Y-61629965D01*
X96262098Y-61681079D01*
X96238278Y-61769977D01*
X96238278Y-61914927D01*
X96272453Y-62042469D01*
X96275795Y-62054940D01*
X96348266Y-62180463D01*
X96348268Y-62180465D01*
X96348269Y-62180467D01*
X96450763Y-62282961D01*
X96450764Y-62282962D01*
X96450766Y-62282963D01*
X96576289Y-62355434D01*
X96576290Y-62355434D01*
X96576293Y-62355436D01*
X96716303Y-62392952D01*
X96716306Y-62392952D01*
X96840035Y-62392952D01*
X96907074Y-62412637D01*
X96952829Y-62465441D01*
X96962773Y-62534599D01*
X96959809Y-62549045D01*
X96949500Y-62587522D01*
X96949500Y-62732472D01*
X96987016Y-62872482D01*
X96987017Y-62872485D01*
X97027728Y-62942998D01*
X97044201Y-63010898D01*
X97027728Y-63066998D01*
X96987017Y-63137511D01*
X96987016Y-63137515D01*
X96949500Y-63277525D01*
X96949500Y-63422475D01*
X96987016Y-63562485D01*
X96987017Y-63562488D01*
X97059488Y-63688011D01*
X97059490Y-63688013D01*
X97059491Y-63688015D01*
X97161985Y-63790509D01*
X97209613Y-63818007D01*
X97256068Y-63844828D01*
X97304284Y-63895395D01*
X97317507Y-63964002D01*
X97291538Y-64028867D01*
X97281749Y-64039896D01*
X95420426Y-65901220D01*
X95359103Y-65934705D01*
X95332745Y-65937539D01*
X95067589Y-65937539D01*
X94965726Y-65964832D01*
X94874403Y-66017559D01*
X94874400Y-66017561D01*
X94247447Y-66644514D01*
X94247445Y-66644517D01*
X94194718Y-66735842D01*
X94178484Y-66796429D01*
X94178484Y-66796430D01*
X94178483Y-66796429D01*
X94167425Y-66837699D01*
X94167425Y-66837706D01*
X94167426Y-71147389D01*
X94167426Y-71212063D01*
X94147741Y-71279102D01*
X94094937Y-71324857D01*
X94043426Y-71336063D01*
X94019377Y-71336063D01*
X93866650Y-71376986D01*
X93866643Y-71376989D01*
X93729724Y-71456038D01*
X93729716Y-71456044D01*
X93617915Y-71567845D01*
X93617909Y-71567853D01*
X93538860Y-71704772D01*
X93538857Y-71704779D01*
X93497934Y-71857506D01*
X93497934Y-71859440D01*
X93497472Y-71861010D01*
X93496873Y-71865566D01*
X93496162Y-71865472D01*
X93478249Y-71926479D01*
X93425445Y-71972234D01*
X93356287Y-71982178D01*
X93292731Y-71953153D01*
X93286253Y-71947121D01*
X92584588Y-71245456D01*
X92584586Y-71245453D01*
X92506908Y-71167775D01*
X92506903Y-71167771D01*
X92420429Y-71117846D01*
X92420428Y-71117845D01*
X92379906Y-71106987D01*
X92339385Y-71096130D01*
X92339383Y-71096129D01*
X92339381Y-71096128D01*
X92323974Y-71092000D01*
X92323972Y-71092000D01*
X92323971Y-71092000D01*
X91574500Y-71092000D01*
X91507461Y-71072315D01*
X91461706Y-71019511D01*
X91450500Y-70968000D01*
X91450500Y-70813445D01*
X91450500Y-70813443D01*
X91409577Y-70660716D01*
X91379328Y-70608322D01*
X91330524Y-70523790D01*
X91330518Y-70523782D01*
X91282089Y-70475353D01*
X91270038Y-70453283D01*
X91254540Y-70433477D01*
X91253578Y-70423139D01*
X91248604Y-70414030D01*
X91250397Y-70388949D01*
X91248068Y-70363908D01*
X91252847Y-70354692D01*
X91253588Y-70344338D01*
X91268658Y-70324206D01*
X91280236Y-70301884D01*
X91290751Y-70294694D01*
X91295460Y-70288405D01*
X91308032Y-70280134D01*
X91318356Y-70274206D01*
X91322087Y-70273207D01*
X91413413Y-70220480D01*
X91415398Y-70218494D01*
X91424967Y-70213001D01*
X91451208Y-70206702D01*
X91476378Y-70196970D01*
X91484672Y-70198670D01*
X91492907Y-70196694D01*
X91518390Y-70205583D01*
X91544824Y-70211003D01*
X91555595Y-70217436D01*
X91648321Y-70279394D01*
X91648323Y-70279395D01*
X91648327Y-70279397D01*
X91793998Y-70339735D01*
X91794003Y-70339737D01*
X91948653Y-70370499D01*
X91948656Y-70370500D01*
X91948658Y-70370500D01*
X92106344Y-70370500D01*
X92106345Y-70370499D01*
X92260997Y-70339737D01*
X92385859Y-70288018D01*
X92406672Y-70279397D01*
X92406672Y-70279396D01*
X92406679Y-70279394D01*
X92537789Y-70191789D01*
X92649289Y-70080289D01*
X92736894Y-69949179D01*
X92766573Y-69877528D01*
X92775056Y-69857048D01*
X92818897Y-69802644D01*
X92885191Y-69780579D01*
X92889617Y-69780500D01*
X93141344Y-69780500D01*
X93141345Y-69780499D01*
X93295997Y-69749737D01*
X93441679Y-69689394D01*
X93572789Y-69601789D01*
X93684289Y-69490289D01*
X93771894Y-69359179D01*
X93832237Y-69213497D01*
X93863000Y-69058842D01*
X93863000Y-68901158D01*
X93863000Y-68901155D01*
X93862999Y-68901153D01*
X93853262Y-68852203D01*
X93832237Y-68746503D01*
X93786672Y-68636498D01*
X93771897Y-68600827D01*
X93771890Y-68600814D01*
X93684289Y-68469711D01*
X93684286Y-68469707D01*
X93572793Y-68358214D01*
X93572789Y-68358211D01*
X93571117Y-68357093D01*
X93570437Y-68356281D01*
X93568081Y-68354347D01*
X93568447Y-68353900D01*
X93526312Y-68303483D01*
X93517603Y-68234158D01*
X93521486Y-68220497D01*
X93520880Y-68220335D01*
X93522982Y-68212486D01*
X93522984Y-68212485D01*
X93560500Y-68072475D01*
X93560500Y-67927525D01*
X93522984Y-67787515D01*
X93450509Y-67661985D01*
X93450507Y-67661983D01*
X93445562Y-67655539D01*
X93446833Y-67654563D01*
X93417855Y-67601493D01*
X93415021Y-67575135D01*
X93415021Y-67263018D01*
X93415020Y-67263014D01*
X93413724Y-67258175D01*
X93409500Y-67226086D01*
X93409500Y-62814171D01*
X93429185Y-62747132D01*
X93445819Y-62726490D01*
X93698438Y-62473871D01*
X94274790Y-61897519D01*
X96028694Y-60143613D01*
X96090015Y-60110130D01*
X96159707Y-60115114D01*
G37*
%TD.AperFunction*%
%TA.AperFunction,Conductor*%
G36*
X104198509Y-69230287D02*
G01*
X104312812Y-69296280D01*
X104312819Y-69296282D01*
X104316094Y-69297639D01*
X104318439Y-69299529D01*
X104319851Y-69300344D01*
X104319723Y-69300564D01*
X104370499Y-69341478D01*
X104392566Y-69407772D01*
X104375289Y-69475472D01*
X104356326Y-69499883D01*
X102802029Y-71054181D01*
X102775101Y-71068884D01*
X102749283Y-71085477D01*
X102743082Y-71086368D01*
X102740706Y-71087666D01*
X102714348Y-71090500D01*
X102547994Y-71090500D01*
X102480955Y-71070815D01*
X102435200Y-71018011D01*
X102425256Y-70948853D01*
X102454281Y-70885297D01*
X102460313Y-70878819D01*
X102820298Y-70518834D01*
X103901405Y-69437725D01*
X103901410Y-69437722D01*
X103911613Y-69427518D01*
X103911615Y-69427518D01*
X103982226Y-69356907D01*
X104029125Y-69275675D01*
X104079689Y-69227460D01*
X104148296Y-69214236D01*
X104198509Y-69230287D01*
G37*
%TD.AperFunction*%
%TA.AperFunction,Conductor*%
G36*
X95928682Y-70501898D02*
G01*
X95971872Y-70556820D01*
X95978514Y-70626373D01*
X95964143Y-70664905D01*
X95917843Y-70745098D01*
X95895925Y-70826904D01*
X95895922Y-70826916D01*
X95891699Y-70842671D01*
X95855329Y-70902328D01*
X95833928Y-70917953D01*
X95761991Y-70959486D01*
X95761986Y-70959490D01*
X95691999Y-71029477D01*
X95684052Y-71033815D01*
X95678628Y-71041062D01*
X95653868Y-71050296D01*
X95630675Y-71062961D01*
X95621646Y-71062315D01*
X95613164Y-71065479D01*
X95587339Y-71059861D01*
X95560984Y-71057976D01*
X95551932Y-71052158D01*
X95544891Y-71050627D01*
X95516637Y-71029476D01*
X95395745Y-70908584D01*
X95362260Y-70847261D01*
X95359426Y-70820903D01*
X95359426Y-70704512D01*
X95379111Y-70637473D01*
X95431915Y-70591718D01*
X95483426Y-70580512D01*
X95572509Y-70580512D01*
X95572512Y-70580512D01*
X95712522Y-70542996D01*
X95755165Y-70518376D01*
X95794755Y-70495519D01*
X95862655Y-70479046D01*
X95928682Y-70501898D01*
G37*
%TD.AperFunction*%
%TA.AperFunction,Conductor*%
G36*
X109726417Y-67961185D02*
G01*
X109772172Y-68013989D01*
X109782116Y-68083147D01*
X109753091Y-68146703D01*
X109747059Y-68153181D01*
X107337060Y-70563181D01*
X107275737Y-70596666D01*
X107249379Y-70599500D01*
X106897711Y-70599500D01*
X106830672Y-70579815D01*
X106784917Y-70527011D01*
X106774973Y-70457853D01*
X106803998Y-70394297D01*
X106810030Y-70387819D01*
X106858114Y-70339735D01*
X106909833Y-70288016D01*
X106982308Y-70162486D01*
X107019824Y-70022476D01*
X107019824Y-69877526D01*
X106982308Y-69737516D01*
X106982306Y-69737513D01*
X106982306Y-69737511D01*
X106982305Y-69737510D01*
X106938202Y-69661123D01*
X106921728Y-69593224D01*
X106944580Y-69527196D01*
X106957901Y-69511447D01*
X108491530Y-67977819D01*
X108552853Y-67944334D01*
X108579211Y-67941500D01*
X109659378Y-67941500D01*
X109726417Y-67961185D01*
G37*
%TD.AperFunction*%
%TA.AperFunction,Conductor*%
G36*
X100892944Y-69259801D02*
G01*
X100937291Y-69288301D01*
X100999499Y-69350509D01*
X100999501Y-69350510D01*
X100999502Y-69350511D01*
X101125025Y-69422982D01*
X101125026Y-69422982D01*
X101125029Y-69422984D01*
X101265039Y-69460500D01*
X101265042Y-69460500D01*
X101409986Y-69460500D01*
X101409989Y-69460500D01*
X101549999Y-69422984D01*
X101624089Y-69380207D01*
X101686089Y-69363595D01*
X102097911Y-69363595D01*
X102164950Y-69383280D01*
X102210705Y-69436084D01*
X102220649Y-69505242D01*
X102191624Y-69568798D01*
X102185592Y-69575276D01*
X101655187Y-70105681D01*
X101593864Y-70139166D01*
X101567506Y-70142000D01*
X100934498Y-70142000D01*
X100867459Y-70122315D01*
X100821704Y-70069511D01*
X100810498Y-70018000D01*
X100810498Y-69920027D01*
X100810498Y-69920025D01*
X100772982Y-69780015D01*
X100753003Y-69745410D01*
X100719686Y-69687703D01*
X100715535Y-69672214D01*
X100708096Y-69660638D01*
X100703073Y-69625703D01*
X100703073Y-69398520D01*
X100722758Y-69331481D01*
X100739392Y-69310839D01*
X100761929Y-69288302D01*
X100823252Y-69254817D01*
X100892944Y-69259801D01*
G37*
%TD.AperFunction*%
%TA.AperFunction,Conductor*%
G36*
X107485693Y-66520185D02*
G01*
X107531448Y-66572989D01*
X107541392Y-66642147D01*
X107512367Y-66705703D01*
X107506335Y-66712181D01*
X105287478Y-68931038D01*
X105226155Y-68964523D01*
X105156463Y-68959539D01*
X105100530Y-68917667D01*
X105076113Y-68852203D01*
X105075797Y-68843357D01*
X105075797Y-68710823D01*
X105075797Y-68710821D01*
X105038281Y-68570811D01*
X104998572Y-68502034D01*
X104982100Y-68434136D01*
X105004952Y-68368109D01*
X105035226Y-68340591D01*
X105034336Y-68339430D01*
X105040777Y-68334486D01*
X105040785Y-68334482D01*
X106838447Y-66536818D01*
X106899770Y-66503334D01*
X106926128Y-66500500D01*
X107418654Y-66500500D01*
X107485693Y-66520185D01*
G37*
%TD.AperFunction*%
%TA.AperFunction,Conductor*%
G36*
X98859378Y-64848943D02*
G01*
X98885562Y-64880656D01*
X98920581Y-64941311D01*
X99023076Y-65043806D01*
X99129782Y-65105412D01*
X99148606Y-65116280D01*
X99273221Y-65149671D01*
X99276460Y-65150733D01*
X99302538Y-65168669D01*
X99329575Y-65185149D01*
X99331118Y-65188325D01*
X99334028Y-65190327D01*
X99346273Y-65219525D01*
X99360104Y-65247996D01*
X99359684Y-65251501D01*
X99361051Y-65254759D01*
X99355566Y-65285942D01*
X99351809Y-65317372D01*
X99349560Y-65320095D01*
X99348949Y-65323573D01*
X99327479Y-65346838D01*
X99307324Y-65371249D01*
X99301707Y-65374765D01*
X99301565Y-65374920D01*
X99301386Y-65374966D01*
X99299822Y-65375946D01*
X99177075Y-65446815D01*
X99177072Y-65446817D01*
X99074583Y-65549306D01*
X99074578Y-65549312D01*
X99002107Y-65674835D01*
X99002106Y-65674839D01*
X98964590Y-65814849D01*
X98964590Y-65959799D01*
X99001759Y-66098515D01*
X99002107Y-66099812D01*
X99074578Y-66225335D01*
X99074583Y-66225341D01*
X99136788Y-66287546D01*
X99170273Y-66348869D01*
X99165289Y-66418561D01*
X99136788Y-66462908D01*
X98715856Y-66883841D01*
X98654533Y-66917326D01*
X98584842Y-66912342D01*
X98528908Y-66870471D01*
X98504491Y-66805006D01*
X98504175Y-66796160D01*
X98504175Y-65419384D01*
X98523860Y-65352345D01*
X98540494Y-65331703D01*
X98544184Y-65328013D01*
X98616659Y-65202483D01*
X98654175Y-65062473D01*
X98654175Y-64942656D01*
X98673860Y-64875617D01*
X98726664Y-64829862D01*
X98795822Y-64819918D01*
X98859378Y-64848943D01*
G37*
%TD.AperFunction*%
%TA.AperFunction,Conductor*%
G36*
X97498253Y-65058692D02*
G01*
X97554186Y-65100564D01*
X97574692Y-65142777D01*
X97587434Y-65190327D01*
X97590692Y-65202486D01*
X97663163Y-65328009D01*
X97663168Y-65328015D01*
X97666856Y-65331703D01*
X97700341Y-65393026D01*
X97703175Y-65419384D01*
X97703175Y-66412664D01*
X97683490Y-66479703D01*
X97630686Y-66525458D01*
X97561528Y-66535402D01*
X97497972Y-66506377D01*
X97471788Y-66474665D01*
X97457682Y-66450233D01*
X97428163Y-66399105D01*
X97325669Y-66296611D01*
X97325667Y-66296610D01*
X97325665Y-66296608D01*
X97200142Y-66224137D01*
X97200143Y-66224137D01*
X97188660Y-66221060D01*
X97060129Y-66186620D01*
X96915179Y-66186620D01*
X96786647Y-66221060D01*
X96775165Y-66224137D01*
X96649642Y-66296608D01*
X96582373Y-66363877D01*
X96562437Y-66374762D01*
X96545130Y-66389474D01*
X96532356Y-66391186D01*
X96521049Y-66397361D01*
X96498396Y-66395740D01*
X96475880Y-66398760D01*
X96459339Y-66392946D01*
X96451358Y-66392376D01*
X96442111Y-66388495D01*
X96437294Y-66386239D01*
X96384627Y-66355832D01*
X96355925Y-66348141D01*
X96346012Y-66343500D01*
X96327698Y-66327324D01*
X96306838Y-66314609D01*
X96301980Y-66304608D01*
X96293645Y-66297246D01*
X96286984Y-66273737D01*
X96276310Y-66251762D01*
X96277630Y-66240720D01*
X96274599Y-66230022D01*
X96281704Y-66206647D01*
X96284605Y-66182386D01*
X96292725Y-66170387D01*
X96294919Y-66163173D01*
X96301254Y-66157788D01*
X96310910Y-66143521D01*
X97367238Y-65087192D01*
X97428561Y-65053708D01*
X97498253Y-65058692D01*
G37*
%TD.AperFunction*%
%TA.AperFunction,Conductor*%
G36*
X98738938Y-63818007D02*
G01*
X98794871Y-63859879D01*
X98819288Y-63925343D01*
X98819604Y-63934189D01*
X98819604Y-64480858D01*
X98815380Y-64512947D01*
X98810591Y-64530821D01*
X98810591Y-64530823D01*
X98810591Y-64650638D01*
X98790906Y-64717677D01*
X98738102Y-64763432D01*
X98668944Y-64773376D01*
X98605388Y-64744351D01*
X98579204Y-64712639D01*
X98575026Y-64705404D01*
X98544184Y-64651983D01*
X98441690Y-64549489D01*
X98441688Y-64549488D01*
X98441686Y-64549486D01*
X98316163Y-64477015D01*
X98316164Y-64477015D01*
X98309329Y-64475183D01*
X98256455Y-64461016D01*
X98196797Y-64424652D01*
X98166268Y-64361805D01*
X98174563Y-64292429D01*
X98200870Y-64253561D01*
X98250213Y-64204218D01*
X98607924Y-63846507D01*
X98669246Y-63813023D01*
X98738938Y-63818007D01*
G37*
%TD.AperFunction*%
%TA.AperFunction,Conductor*%
G36*
X98888938Y-57385884D02*
G01*
X98944871Y-57427756D01*
X98969288Y-57493220D01*
X98969604Y-57502066D01*
X98969604Y-57764897D01*
X98949919Y-57831936D01*
X98933285Y-57852578D01*
X98920584Y-57865278D01*
X98920579Y-57865284D01*
X98848108Y-57990807D01*
X98848107Y-57990811D01*
X98810591Y-58130821D01*
X98810591Y-58275771D01*
X98848107Y-58415781D01*
X98848108Y-58415784D01*
X98920579Y-58541307D01*
X98920584Y-58541313D01*
X98933285Y-58554014D01*
X98966770Y-58615337D01*
X98969604Y-58641695D01*
X98969604Y-59364897D01*
X98949919Y-59431936D01*
X98933285Y-59452578D01*
X98920584Y-59465278D01*
X98920579Y-59465284D01*
X98848108Y-59590807D01*
X98848107Y-59590811D01*
X98810591Y-59730821D01*
X98810591Y-59875771D01*
X98848107Y-60015781D01*
X98848108Y-60015784D01*
X98920579Y-60141307D01*
X98920584Y-60141313D01*
X98933285Y-60154014D01*
X98966770Y-60215337D01*
X98969604Y-60241695D01*
X98969604Y-60574939D01*
X98949919Y-60641978D01*
X98897115Y-60687733D01*
X98827957Y-60697677D01*
X98813518Y-60694715D01*
X98711852Y-60667474D01*
X98566902Y-60667474D01*
X98438370Y-60701914D01*
X98426888Y-60704991D01*
X98301365Y-60777462D01*
X98301359Y-60777467D01*
X98198870Y-60879956D01*
X98198865Y-60879962D01*
X98126394Y-61005485D01*
X98126393Y-61005489D01*
X98088877Y-61145499D01*
X98088877Y-61290449D01*
X98120846Y-61409756D01*
X98126394Y-61430462D01*
X98198865Y-61555985D01*
X98198870Y-61555991D01*
X98304181Y-61661302D01*
X98337666Y-61722625D01*
X98340500Y-61748983D01*
X98340500Y-62929783D01*
X98320815Y-62996822D01*
X98304181Y-63017464D01*
X98189896Y-63131749D01*
X98167954Y-63143729D01*
X98148301Y-63159186D01*
X98137815Y-63160187D01*
X98128573Y-63165234D01*
X98103636Y-63163450D01*
X98078748Y-63165827D01*
X98069387Y-63161001D01*
X98058881Y-63160250D01*
X98038866Y-63145266D01*
X98016645Y-63133811D01*
X98006742Y-63121218D01*
X98002948Y-63118378D01*
X97994828Y-63106068D01*
X97972271Y-63066998D01*
X97955798Y-62999098D01*
X97972272Y-62942997D01*
X97991617Y-62909491D01*
X98012984Y-62872482D01*
X98050500Y-62732472D01*
X98050500Y-62587522D01*
X98012984Y-62447512D01*
X97972270Y-62376994D01*
X97955798Y-62309096D01*
X97972272Y-62252994D01*
X98012981Y-62182484D01*
X98012982Y-62182483D01*
X98012982Y-62182481D01*
X98012984Y-62182479D01*
X98050500Y-62042469D01*
X98050500Y-61897519D01*
X98012984Y-61757509D01*
X98011617Y-61755142D01*
X97940511Y-61631982D01*
X97940506Y-61631976D01*
X97838017Y-61529487D01*
X97838011Y-61529482D01*
X97712488Y-61457011D01*
X97712489Y-61457011D01*
X97677859Y-61447732D01*
X97572475Y-61419494D01*
X97427525Y-61419494D01*
X97427524Y-61419494D01*
X97419690Y-61420525D01*
X97350655Y-61409756D01*
X97298401Y-61363374D01*
X97279519Y-61296104D01*
X97283734Y-61265498D01*
X97294211Y-61226398D01*
X97294211Y-61081448D01*
X97256695Y-60941438D01*
X97220302Y-60878404D01*
X97203830Y-60810505D01*
X97220303Y-60754405D01*
X97265303Y-60676462D01*
X97265304Y-60676460D01*
X97265305Y-60676459D01*
X97302821Y-60536449D01*
X97302821Y-60391499D01*
X97265305Y-60251489D01*
X97223288Y-60178714D01*
X97206816Y-60110817D01*
X97223288Y-60054717D01*
X97262697Y-59986461D01*
X97300213Y-59846451D01*
X97300213Y-59701501D01*
X97262697Y-59561491D01*
X97207148Y-59465278D01*
X97190224Y-59435964D01*
X97190219Y-59435958D01*
X97087730Y-59333469D01*
X97087724Y-59333464D01*
X97069887Y-59323166D01*
X97052634Y-59305071D01*
X97032622Y-59290090D01*
X97028941Y-59280222D01*
X97021672Y-59272598D01*
X97016941Y-59248048D01*
X97008205Y-59224626D01*
X97010444Y-59214333D01*
X97008451Y-59203991D01*
X97017742Y-59180782D01*
X97023057Y-59156353D01*
X97032657Y-59143528D01*
X97034420Y-59139126D01*
X97044200Y-59128107D01*
X97216159Y-58956148D01*
X97277480Y-58922665D01*
X97347172Y-58927649D01*
X97403105Y-58969521D01*
X97411224Y-58981830D01*
X97421458Y-58999555D01*
X97422042Y-59000566D01*
X97524536Y-59103060D01*
X97524537Y-59103061D01*
X97524539Y-59103062D01*
X97650062Y-59175533D01*
X97650063Y-59175533D01*
X97650066Y-59175535D01*
X97790076Y-59213051D01*
X97790079Y-59213051D01*
X97935023Y-59213051D01*
X97935026Y-59213051D01*
X98075036Y-59175535D01*
X98200566Y-59103060D01*
X98303060Y-59000566D01*
X98375535Y-58875036D01*
X98413051Y-58735026D01*
X98413051Y-58590076D01*
X98375535Y-58450066D01*
X98355742Y-58415784D01*
X98303062Y-58324539D01*
X98303057Y-58324533D01*
X98200568Y-58222044D01*
X98200566Y-58222042D01*
X98199555Y-58221458D01*
X98181830Y-58211224D01*
X98133615Y-58160657D01*
X98120393Y-58092050D01*
X98146361Y-58027185D01*
X98156141Y-58016167D01*
X98757924Y-57414384D01*
X98819246Y-57380900D01*
X98888938Y-57385884D01*
G37*
%TD.AperFunction*%
%TA.AperFunction,Conductor*%
G36*
X89946455Y-55483379D02*
G01*
X89951147Y-55482705D01*
X89965569Y-55485662D01*
X90020943Y-55500500D01*
X90082745Y-55500500D01*
X90149784Y-55520185D01*
X90170426Y-55536819D01*
X92354087Y-57720480D01*
X92445412Y-57773207D01*
X92547273Y-57800500D01*
X95609615Y-57800500D01*
X95631308Y-57806869D01*
X95653850Y-57808658D01*
X95667475Y-57817489D01*
X95676654Y-57820185D01*
X95684694Y-57825813D01*
X95691365Y-57830888D01*
X95740997Y-57880520D01*
X95805721Y-57917888D01*
X95811983Y-57922652D01*
X95828222Y-57944700D01*
X95847119Y-57964518D01*
X95848643Y-57972424D01*
X95853419Y-57978909D01*
X95855160Y-58006236D01*
X95860343Y-58033125D01*
X95857349Y-58040601D01*
X95857862Y-58048637D01*
X95844551Y-58072569D01*
X95834375Y-58097990D01*
X95824585Y-58109020D01*
X92015504Y-61918102D01*
X91954181Y-61951587D01*
X91884489Y-61946603D01*
X91828556Y-61904731D01*
X91814172Y-61875107D01*
X91812686Y-61875723D01*
X91809579Y-61868223D01*
X91809577Y-61868216D01*
X91809573Y-61868209D01*
X91730524Y-61731290D01*
X91730518Y-61731282D01*
X91618717Y-61619481D01*
X91618709Y-61619475D01*
X91481790Y-61540426D01*
X91481786Y-61540424D01*
X91481784Y-61540423D01*
X91329057Y-61499500D01*
X91170943Y-61499500D01*
X91018216Y-61540423D01*
X91018209Y-61540426D01*
X90881290Y-61619475D01*
X90881282Y-61619481D01*
X90769481Y-61731282D01*
X90769475Y-61731290D01*
X90690426Y-61868209D01*
X90690423Y-61868214D01*
X90651428Y-62013747D01*
X90615063Y-62073407D01*
X90563747Y-62101428D01*
X90418214Y-62140423D01*
X90418209Y-62140426D01*
X90281290Y-62219475D01*
X90281282Y-62219481D01*
X90169481Y-62331282D01*
X90169475Y-62331290D01*
X90090426Y-62468209D01*
X90090423Y-62468214D01*
X90077294Y-62517215D01*
X90059688Y-62582923D01*
X90053275Y-62606856D01*
X90016910Y-62666516D01*
X89954063Y-62697045D01*
X89884687Y-62688750D01*
X89830809Y-62644265D01*
X89809535Y-62577713D01*
X89809500Y-62574762D01*
X89809500Y-55605443D01*
X89816543Y-55581455D01*
X89819512Y-55556629D01*
X89826218Y-55548506D01*
X89829185Y-55538404D01*
X89848076Y-55522034D01*
X89863998Y-55502752D01*
X89874030Y-55499544D01*
X89881989Y-55492649D01*
X89906734Y-55489090D01*
X89930550Y-55481478D01*
X89946455Y-55483379D01*
G37*
%TD.AperFunction*%
%TD*%
M02*
