%TF.GenerationSoftware,KiCad,Pcbnew,9.0.1*%
%TF.CreationDate,2025-04-25T01:04:06-07:00*%
%TF.ProjectId,microcouple,6d696372-6f63-46f7-9570-6c652e6b6963,rev?*%
%TF.SameCoordinates,Original*%
%TF.FileFunction,Copper,L3,Inr*%
%TF.FilePolarity,Positive*%
%FSLAX46Y46*%
G04 Gerber Fmt 4.6, Leading zero omitted, Abs format (unit mm)*
G04 Created by KiCad (PCBNEW 9.0.1) date 2025-04-25 01:04:06*
%MOMM*%
%LPD*%
G01*
G04 APERTURE LIST*
%TA.AperFunction,ComponentPad*%
%ADD10O,1.950000X1.000000*%
%TD*%
%TA.AperFunction,ComponentPad*%
%ADD11O,2.300000X1.000000*%
%TD*%
%TA.AperFunction,ComponentPad*%
%ADD12O,1.000000X1.700000*%
%TD*%
%TA.AperFunction,ComponentPad*%
%ADD13C,3.800000*%
%TD*%
%TA.AperFunction,ComponentPad*%
%ADD14R,1.000000X1.000000*%
%TD*%
%TA.AperFunction,ComponentPad*%
%ADD15C,1.000000*%
%TD*%
%TA.AperFunction,ViaPad*%
%ADD16C,0.500000*%
%TD*%
%TA.AperFunction,ViaPad*%
%ADD17C,0.600000*%
%TD*%
%TA.AperFunction,Conductor*%
%ADD18C,0.400000*%
%TD*%
%TA.AperFunction,Conductor*%
%ADD19C,0.200000*%
%TD*%
%TA.AperFunction,Conductor*%
%ADD20C,0.500000*%
%TD*%
G04 APERTURE END LIST*
D10*
%TO.N,Net-(J2-SHIELD)*%
%TO.C,J2*%
X92587500Y-68980000D03*
D11*
X87967500Y-68980000D03*
D12*
X92027500Y-69220000D03*
X92027500Y-77350000D03*
D10*
X92587500Y-77620000D03*
D11*
X87967500Y-77620000D03*
%TD*%
D13*
%TO.N,Net-(C25-Pad1)*%
%TO.C,H2*%
X112900000Y-47350000D03*
%TD*%
%TO.N,Net-(C26-Pad1)*%
%TO.C,H3*%
X112900000Y-76100000D03*
%TD*%
D14*
%TO.N,/Capacitive Touch/CS2*%
%TO.C,J4*%
X103065000Y-48298000D03*
D15*
%TO.N,GND*%
X101795000Y-48298000D03*
%TO.N,/Capacitive Touch/CS3*%
X103065000Y-47028000D03*
%TO.N,GND*%
X101795000Y-47028000D03*
%TO.N,/Capacitive Touch/CS4*%
X103065000Y-45758000D03*
%TO.N,GND*%
X101795000Y-45758000D03*
%TD*%
D14*
%TO.N,+BATT*%
%TO.C,BT1*%
X92455000Y-47050000D03*
D15*
%TO.N,GND*%
X93725000Y-47050000D03*
%TD*%
D13*
%TO.N,Net-(C24-Pad1)*%
%TO.C,H1*%
X88900000Y-47350000D03*
%TD*%
D16*
%TO.N,GND*%
X106900000Y-51970000D03*
%TO.N,+3.3V*%
X96987654Y-66737120D03*
%TO.N,GND*%
X96750000Y-66100000D03*
%TO.N,+1V1*%
X104525297Y-68783296D03*
%TO.N,GND*%
X113050000Y-60000000D03*
D17*
X96200000Y-55850000D03*
X90900000Y-49650000D03*
D16*
X106800000Y-73300000D03*
X113300000Y-64800000D03*
X89050000Y-67200000D03*
X102647069Y-70947069D03*
X108200000Y-47200000D03*
X107200000Y-70200000D03*
X108200000Y-49000000D03*
X95550000Y-64950000D03*
D17*
X98530000Y-49880000D03*
D16*
X94550000Y-63950000D03*
D17*
X90850000Y-75950000D03*
D16*
X105400000Y-75656000D03*
X106400000Y-49000000D03*
X91450000Y-46000000D03*
D17*
X93967663Y-70682202D03*
D16*
X98680104Y-64333657D03*
X103550000Y-70000000D03*
X109446000Y-70300000D03*
X104350000Y-50950000D03*
X93550000Y-64950000D03*
X114250000Y-49950000D03*
D17*
X88650000Y-57200000D03*
X96450000Y-74150000D03*
D16*
X105250000Y-46050000D03*
D17*
X94000000Y-52650000D03*
D16*
X113300000Y-62050000D03*
D17*
X87890003Y-58600000D03*
D16*
X101050000Y-69700000D03*
X108198162Y-68598162D03*
X106400000Y-47200000D03*
X99300000Y-76100000D03*
X98200000Y-61750000D03*
D17*
X95713030Y-70738696D03*
D16*
X107300000Y-48100000D03*
X98700000Y-65950000D03*
X108500000Y-51000000D03*
D17*
X93450000Y-50600000D03*
D16*
X114000000Y-57600000D03*
X101300000Y-73500000D03*
D17*
X94150000Y-76150000D03*
D16*
X104200000Y-77750000D03*
X114250000Y-73550000D03*
D17*
X90150000Y-55950000D03*
D16*
X91100000Y-68100000D03*
X101050000Y-72200000D03*
X93550000Y-62950000D03*
X105885140Y-67709000D03*
D17*
%TO.N,+BATT*%
X92800000Y-51900000D03*
%TO.N,+3.3V*%
X97861684Y-71488316D03*
D16*
X103538532Y-66311000D03*
X98400000Y-51550000D03*
X104350000Y-49300000D03*
X108050000Y-45350000D03*
X106450000Y-75900000D03*
X102100000Y-73400000D03*
X109351849Y-50750000D03*
X99515090Y-65887324D03*
D17*
X87100000Y-58600000D03*
D16*
X104800000Y-71818999D03*
X108950000Y-66600000D03*
X114250000Y-65950000D03*
%TO.N,+1V1*%
X102740651Y-73000000D03*
X101825419Y-68422095D03*
D17*
%TO.N,VBUS*%
X90000000Y-63300000D03*
X90850000Y-70892500D03*
X91250000Y-62100000D03*
X90650000Y-62700000D03*
D16*
X88450000Y-65650000D03*
D17*
X90882498Y-74900000D03*
X94150000Y-74631000D03*
X94098434Y-71936563D03*
%TO.N,/Battery Management/VIN*%
X92800000Y-54850000D03*
X91150000Y-53200000D03*
D16*
%TO.N,/~{MX_SDB}*%
X98639377Y-61217974D03*
X104682933Y-73425830D03*
%TO.N,/CT_RESET*%
X104600000Y-51750000D03*
X99761573Y-69515346D03*
D17*
%TO.N,/Battery Management/PWR_ENABLE*%
X90100000Y-54900000D03*
X96109713Y-57400000D03*
%TO.N,/Battery Management/Charge Status*%
X88400000Y-66450000D03*
X99750000Y-45900000D03*
D16*
%TO.N,/LED Matrix/LEDMTX.R7*%
X91750127Y-65289409D03*
X103500000Y-52550000D03*
%TO.N,/LED Matrix/LEDMTX.C0*%
X99361091Y-55003296D03*
X99370104Y-53381426D03*
X99361091Y-64603296D03*
X99361091Y-61403296D03*
X99361091Y-56603296D03*
X99361091Y-59803296D03*
X99361091Y-58203296D03*
X97500000Y-63350000D03*
X99361091Y-63003296D03*
%TO.N,/LED Matrix/LEDMTX.C1*%
X100961118Y-59801697D03*
X100961118Y-64601697D03*
X100961118Y-63001697D03*
X100972858Y-53369527D03*
X100961118Y-55001697D03*
X100961118Y-56601697D03*
X100961118Y-58201697D03*
X97500000Y-62659997D03*
X100961118Y-61401697D03*
%TO.N,/LED Matrix/LEDMTX.C2*%
X102561240Y-64600000D03*
X102561240Y-55000000D03*
X102561240Y-56600000D03*
X97500000Y-61969994D03*
X102561240Y-59800000D03*
X102561240Y-63000000D03*
X102561240Y-58200000D03*
X102561240Y-61400000D03*
X102572858Y-53369527D03*
%TO.N,/LED Matrix/LEDMTX.C3*%
X104161465Y-54998210D03*
X104161465Y-64598210D03*
X96788778Y-61842452D03*
X104161465Y-62998210D03*
X104161465Y-61398210D03*
X104172858Y-53369527D03*
X104161465Y-59798210D03*
X104161465Y-58198210D03*
X104161465Y-56598210D03*
%TO.N,/LED Matrix/LEDMTX.C4*%
X105761794Y-59796333D03*
X105761794Y-54996333D03*
X96743711Y-61153923D03*
X105761794Y-64596333D03*
X105761794Y-56596333D03*
X105761794Y-61396333D03*
X105761794Y-58196333D03*
X105761794Y-62996333D03*
X105772858Y-53369527D03*
%TO.N,/LED Matrix/LEDMTX.C5*%
X107372858Y-53369527D03*
X96752321Y-60463974D03*
X107362229Y-61394371D03*
X107362229Y-59794371D03*
X107362229Y-62994371D03*
X107362229Y-56594371D03*
X107362229Y-58194371D03*
X107362229Y-54994371D03*
X107362229Y-64594371D03*
%TO.N,/LED Matrix/LEDMTX.C6*%
X108972858Y-53369527D03*
X108962772Y-58192329D03*
X96749713Y-59773976D03*
X108962772Y-56592329D03*
X108962772Y-62992329D03*
X108962772Y-59792329D03*
X108962772Y-64592329D03*
X108962772Y-61392329D03*
X108962772Y-54992329D03*
%TO.N,/LED Matrix/LEDMTX.C7*%
X110563426Y-64590213D03*
X110563426Y-61390213D03*
X110563426Y-58190213D03*
X110572858Y-53369527D03*
X110563426Y-54990213D03*
X110563426Y-59790213D03*
X97862551Y-58662551D03*
X110563426Y-56590213D03*
X110563426Y-62990213D03*
%TO.N,/LED Matrix/LEDMTX.R6*%
X101760118Y-54114948D03*
X92473521Y-67539833D03*
%TO.N,/LED Matrix/LEDMTX.R5*%
X93010000Y-68000000D03*
X100196540Y-55650000D03*
%TO.N,/LED Matrix/LEDMTX.R4*%
X95500037Y-70030012D03*
X106600000Y-57200000D03*
%TO.N,/LED Matrix/LEDMTX.R3*%
X95499926Y-69340010D03*
X105000000Y-58850000D03*
%TO.N,/LED Matrix/LEDMTX.R2*%
X95500103Y-68650008D03*
X103407314Y-60539323D03*
%TO.N,/LED Matrix/LEDMTX.R1*%
X101748808Y-62109067D03*
X95499394Y-67960006D03*
%TO.N,/LED Matrix/LEDMTX.R0*%
X100250000Y-63750000D03*
X95506364Y-67270039D03*
%TO.N,/IR.TX*%
X105000000Y-70350000D03*
X113000000Y-56250000D03*
%TO.N,/SWDIO*%
X104140003Y-73000000D03*
X112290000Y-70645630D03*
%TO.N,/SWCLK*%
X111750000Y-71100000D03*
X103450000Y-73000000D03*
%TO.N,/USB.D+*%
X94381601Y-73075000D03*
D17*
X90562129Y-73570000D03*
D16*
X96100000Y-76600000D03*
%TO.N,/USB.D-*%
X96800000Y-76600000D03*
D17*
X90562129Y-72770000D03*
D16*
X94381601Y-73775000D03*
%TO.N,/I2C0.SDL*%
X112200000Y-65150000D03*
X97451000Y-67950000D03*
X98103675Y-64989998D03*
%TO.N,/I2C0.SDA*%
X107850000Y-66100000D03*
X101337514Y-68910000D03*
%TO.N,/USB.D_PROTECTED+*%
X96100000Y-71400000D03*
X103150000Y-68703452D03*
%TO.N,/USB.D_PROTECTED-*%
X103850000Y-68703452D03*
X96800000Y-71400000D03*
%TO.N,/~{CT_ALERT}*%
X109300000Y-46150000D03*
X100250000Y-71407500D03*
%TO.N,/IR.RX*%
X106469324Y-69950001D03*
X113300000Y-63350000D03*
%TO.N,/CT_WAKE*%
X106588486Y-51360588D03*
X100259998Y-69992500D03*
%TD*%
D18*
%TO.N,+1V1*%
X102740651Y-73000000D02*
X102016069Y-72275418D01*
X102016069Y-72275418D02*
X102016069Y-70087255D01*
X102016069Y-70087255D02*
X102753324Y-69350000D01*
X104525297Y-68783296D02*
X104525297Y-68920524D01*
X104525297Y-68920524D02*
X104095821Y-69350000D01*
X104095821Y-69350000D02*
X102753324Y-69350000D01*
X102753324Y-69350000D02*
X101825419Y-68422095D01*
D19*
%TO.N,/LED Matrix/LEDMTX.C6*%
X96749713Y-59773976D02*
X96749713Y-58463726D01*
X96749713Y-58463726D02*
X99141143Y-56072296D01*
X99141143Y-56072296D02*
X99722296Y-56072296D01*
X99722296Y-56072296D02*
X100000000Y-56350000D01*
X100000000Y-56350000D02*
X100461867Y-56350000D01*
X100461867Y-56350000D02*
X101280867Y-55531000D01*
X101280867Y-55531000D02*
X108424101Y-55531000D01*
X108424101Y-55531000D02*
X108962772Y-54992329D01*
%TO.N,/LED Matrix/LEDMTX.C7*%
X97862551Y-58662551D02*
X99240769Y-57284333D01*
X99240769Y-57284333D02*
X104322846Y-57284333D01*
X104322846Y-57284333D02*
X105545850Y-56061329D01*
X105545850Y-56061329D02*
X110034542Y-56061329D01*
X110034542Y-56061329D02*
X110563426Y-56590213D01*
%TO.N,/LED Matrix/LEDMTX.C5*%
X96752321Y-60463974D02*
X96812076Y-60463974D01*
X96812076Y-60463974D02*
X98389840Y-58886210D01*
X106843423Y-58194371D02*
X107362229Y-58194371D01*
X98389840Y-58886210D02*
X102722517Y-58886210D01*
X103943394Y-57665333D02*
X106314385Y-57665333D01*
X102722517Y-58886210D02*
X103943394Y-57665333D01*
X106314385Y-57665333D02*
X106843423Y-58194371D01*
%TO.N,/LED Matrix/LEDMTX.C4*%
X96743711Y-61153923D02*
X97259516Y-61153923D01*
X97259516Y-61153923D02*
X99146229Y-59267210D01*
X99146229Y-59267210D02*
X104666262Y-59267210D01*
X104666262Y-59267210D02*
X105195385Y-59796333D01*
X105195385Y-59796333D02*
X105761794Y-59796333D01*
%TO.N,/LED Matrix/LEDMTX.C2*%
X97500000Y-61969994D02*
X97500000Y-61606403D01*
X97500000Y-61606403D02*
X98419429Y-60686974D01*
X98419429Y-60686974D02*
X101848214Y-60686974D01*
X101848214Y-60686974D02*
X102561240Y-61400000D01*
%TO.N,/LED Matrix/LEDMTX.C1*%
X97500000Y-62659997D02*
X97687701Y-62472296D01*
X97687701Y-62472296D02*
X100431717Y-62472296D01*
X100431717Y-62472296D02*
X100961118Y-63001697D01*
%TO.N,/LED Matrix/LEDMTX.C0*%
X99361091Y-63003296D02*
X99014387Y-63350000D01*
X99014387Y-63350000D02*
X97500000Y-63350000D01*
%TO.N,/LED Matrix/LEDMTX.C3*%
X96788778Y-61842452D02*
X96788778Y-63389726D01*
X96788778Y-63389726D02*
X97280052Y-63881000D01*
X97280052Y-63881000D02*
X97719948Y-63881000D01*
X97719948Y-63881000D02*
X97819948Y-63781000D01*
X97819948Y-63781000D02*
X99530052Y-63781000D01*
X100030052Y-64281000D02*
X100469948Y-64281000D01*
X103094255Y-63531000D02*
X104161465Y-64598210D01*
X99530052Y-63781000D02*
X100030052Y-64281000D01*
X100469948Y-64281000D02*
X101219948Y-63531000D01*
X101219948Y-63531000D02*
X103094255Y-63531000D01*
D20*
%TO.N,+BATT*%
X92455000Y-51555000D02*
X92455000Y-47050000D01*
X92800000Y-51900000D02*
X92455000Y-51555000D01*
%TO.N,/Battery Management/VIN*%
X91150000Y-53200000D02*
X92800000Y-54850000D01*
%TD*%
%TA.AperFunction,Conductor*%
%TO.N,+3.3V*%
G36*
X99541091Y-45120185D02*
G01*
X99586846Y-45172989D01*
X99596790Y-45242147D01*
X99567765Y-45305703D01*
X99525252Y-45336357D01*
X99525254Y-45336359D01*
X99525236Y-45336368D01*
X99521502Y-45339062D01*
X99518211Y-45340424D01*
X99381290Y-45419475D01*
X99381282Y-45419481D01*
X99269481Y-45531282D01*
X99269475Y-45531290D01*
X99190426Y-45668209D01*
X99190423Y-45668216D01*
X99149500Y-45820943D01*
X99149500Y-45979057D01*
X99188566Y-46124851D01*
X99190423Y-46131783D01*
X99190426Y-46131790D01*
X99269475Y-46268709D01*
X99269479Y-46268714D01*
X99269480Y-46268716D01*
X99381284Y-46380520D01*
X99381286Y-46380521D01*
X99381290Y-46380524D01*
X99485189Y-46440509D01*
X99518216Y-46459577D01*
X99670943Y-46500500D01*
X99670945Y-46500500D01*
X99829055Y-46500500D01*
X99829057Y-46500500D01*
X99981784Y-46459577D01*
X100118716Y-46380520D01*
X100230520Y-46268716D01*
X100309577Y-46131784D01*
X100350500Y-45979057D01*
X100350500Y-45820943D01*
X100309577Y-45668216D01*
X100305978Y-45661982D01*
X100230524Y-45531290D01*
X100230518Y-45531282D01*
X100118717Y-45419481D01*
X100118709Y-45419475D01*
X99981788Y-45340424D01*
X99978498Y-45339062D01*
X99976148Y-45337168D01*
X99974746Y-45336359D01*
X99974872Y-45336140D01*
X99924093Y-45295222D01*
X99902027Y-45228928D01*
X99919305Y-45161229D01*
X99970441Y-45113617D01*
X100025948Y-45100500D01*
X101039586Y-45100500D01*
X101106625Y-45120185D01*
X101152380Y-45172989D01*
X101162324Y-45242147D01*
X101142688Y-45293391D01*
X101085609Y-45378814D01*
X101085602Y-45378827D01*
X101025264Y-45524498D01*
X101025261Y-45524510D01*
X100994500Y-45679153D01*
X100994500Y-45836846D01*
X101025261Y-45991489D01*
X101025264Y-45991501D01*
X101085602Y-46137172D01*
X101085609Y-46137185D01*
X101173210Y-46268288D01*
X101173213Y-46268292D01*
X101210240Y-46305319D01*
X101243725Y-46366642D01*
X101238741Y-46436334D01*
X101210240Y-46480681D01*
X101173213Y-46517707D01*
X101173210Y-46517711D01*
X101085609Y-46648814D01*
X101085602Y-46648827D01*
X101025264Y-46794498D01*
X101025261Y-46794510D01*
X100994500Y-46949153D01*
X100994500Y-47106846D01*
X101025261Y-47261489D01*
X101025264Y-47261501D01*
X101085602Y-47407172D01*
X101085609Y-47407185D01*
X101173210Y-47538288D01*
X101173213Y-47538292D01*
X101210240Y-47575319D01*
X101243725Y-47636642D01*
X101238741Y-47706334D01*
X101210240Y-47750681D01*
X101173213Y-47787707D01*
X101173210Y-47787711D01*
X101085609Y-47918814D01*
X101085602Y-47918827D01*
X101025264Y-48064498D01*
X101025261Y-48064510D01*
X100994500Y-48219153D01*
X100994500Y-48376846D01*
X101025261Y-48531489D01*
X101025264Y-48531501D01*
X101085602Y-48677172D01*
X101085609Y-48677185D01*
X101173210Y-48808288D01*
X101173213Y-48808292D01*
X101284707Y-48919786D01*
X101284711Y-48919789D01*
X101415814Y-49007390D01*
X101415827Y-49007397D01*
X101519179Y-49050206D01*
X101561503Y-49067737D01*
X101716143Y-49098497D01*
X101716153Y-49098499D01*
X101716156Y-49098500D01*
X101716158Y-49098500D01*
X101873844Y-49098500D01*
X101873845Y-49098499D01*
X102028497Y-49067737D01*
X102174179Y-49007394D01*
X102194616Y-48993737D01*
X102261290Y-48972860D01*
X102328671Y-48991343D01*
X102351186Y-49009158D01*
X102386941Y-49044912D01*
X102392235Y-49050206D01*
X102495009Y-49095585D01*
X102520135Y-49098500D01*
X103609864Y-49098499D01*
X103609879Y-49098497D01*
X103609882Y-49098497D01*
X103634987Y-49095586D01*
X103634988Y-49095585D01*
X103634991Y-49095585D01*
X103737765Y-49050206D01*
X103817206Y-48970765D01*
X103862585Y-48867991D01*
X103865500Y-48842865D01*
X103865499Y-47753136D01*
X103865497Y-47753117D01*
X103862586Y-47728012D01*
X103862585Y-47728010D01*
X103862585Y-47728009D01*
X103817206Y-47625235D01*
X103817205Y-47625233D01*
X103776158Y-47584186D01*
X103742674Y-47522863D01*
X103747659Y-47453171D01*
X103760735Y-47427620D01*
X103774394Y-47407179D01*
X103834737Y-47261497D01*
X103861124Y-47128842D01*
X103861386Y-47127525D01*
X105849500Y-47127525D01*
X105849500Y-47272475D01*
X105885593Y-47407173D01*
X105887017Y-47412488D01*
X105959488Y-47538011D01*
X105959490Y-47538013D01*
X105959491Y-47538015D01*
X106061985Y-47640509D01*
X106061986Y-47640510D01*
X106061988Y-47640511D01*
X106187511Y-47712982D01*
X106187512Y-47712982D01*
X106187515Y-47712984D01*
X106327525Y-47750500D01*
X106327528Y-47750500D01*
X106472472Y-47750500D01*
X106472475Y-47750500D01*
X106612485Y-47712984D01*
X106624651Y-47705960D01*
X106692550Y-47689485D01*
X106758578Y-47712335D01*
X106801770Y-47767255D01*
X106808414Y-47836808D01*
X106794043Y-47875342D01*
X106787017Y-47887511D01*
X106787016Y-47887515D01*
X106749500Y-48027525D01*
X106749500Y-48172475D01*
X106787016Y-48312485D01*
X106787017Y-48312487D01*
X106794042Y-48324655D01*
X106810514Y-48392555D01*
X106787661Y-48458582D01*
X106732739Y-48501772D01*
X106663186Y-48508413D01*
X106624655Y-48494042D01*
X106612487Y-48487017D01*
X106612486Y-48487016D01*
X106612485Y-48487016D01*
X106472475Y-48449500D01*
X106327525Y-48449500D01*
X106198993Y-48483940D01*
X106187511Y-48487017D01*
X106061988Y-48559488D01*
X106061982Y-48559493D01*
X105959493Y-48661982D01*
X105959488Y-48661988D01*
X105887017Y-48787511D01*
X105887016Y-48787515D01*
X105849500Y-48927525D01*
X105849500Y-49072475D01*
X105887016Y-49212485D01*
X105887017Y-49212488D01*
X105959488Y-49338011D01*
X105959490Y-49338013D01*
X105959491Y-49338015D01*
X106061985Y-49440509D01*
X106061986Y-49440510D01*
X106061988Y-49440511D01*
X106187511Y-49512982D01*
X106187512Y-49512982D01*
X106187515Y-49512984D01*
X106327525Y-49550500D01*
X106327528Y-49550500D01*
X106472472Y-49550500D01*
X106472475Y-49550500D01*
X106612485Y-49512984D01*
X106738015Y-49440509D01*
X106840509Y-49338015D01*
X106912984Y-49212485D01*
X106950500Y-49072475D01*
X106950500Y-48927525D01*
X106912984Y-48787515D01*
X106905957Y-48775345D01*
X106889485Y-48707446D01*
X106912337Y-48641419D01*
X106967258Y-48598228D01*
X107036811Y-48591586D01*
X107075345Y-48605957D01*
X107087515Y-48612984D01*
X107227525Y-48650500D01*
X107227528Y-48650500D01*
X107372472Y-48650500D01*
X107372475Y-48650500D01*
X107512485Y-48612984D01*
X107524651Y-48605960D01*
X107592550Y-48589485D01*
X107658578Y-48612335D01*
X107701770Y-48667255D01*
X107708414Y-48736808D01*
X107694043Y-48775342D01*
X107687017Y-48787511D01*
X107687016Y-48787515D01*
X107649500Y-48927525D01*
X107649500Y-49072475D01*
X107687016Y-49212485D01*
X107687017Y-49212488D01*
X107759488Y-49338011D01*
X107759490Y-49338013D01*
X107759491Y-49338015D01*
X107861985Y-49440509D01*
X107861986Y-49440510D01*
X107861988Y-49440511D01*
X107987511Y-49512982D01*
X107987512Y-49512982D01*
X107987515Y-49512984D01*
X108127525Y-49550500D01*
X108127528Y-49550500D01*
X108272472Y-49550500D01*
X108272475Y-49550500D01*
X108412485Y-49512984D01*
X108538015Y-49440509D01*
X108640509Y-49338015D01*
X108712984Y-49212485D01*
X108750500Y-49072475D01*
X108750500Y-48927525D01*
X108712984Y-48787515D01*
X108705958Y-48775346D01*
X108640511Y-48661988D01*
X108640506Y-48661982D01*
X108538017Y-48559493D01*
X108538011Y-48559488D01*
X108412488Y-48487017D01*
X108412489Y-48487017D01*
X108401006Y-48483940D01*
X108272475Y-48449500D01*
X108127525Y-48449500D01*
X107998993Y-48483940D01*
X107987511Y-48487017D01*
X107975342Y-48494043D01*
X107907441Y-48510513D01*
X107841415Y-48487659D01*
X107798226Y-48432737D01*
X107791587Y-48363183D01*
X107805960Y-48324651D01*
X107812982Y-48312488D01*
X107812981Y-48312488D01*
X107812984Y-48312485D01*
X107850500Y-48172475D01*
X107850500Y-48027525D01*
X107812984Y-47887515D01*
X107805957Y-47875345D01*
X107789485Y-47807446D01*
X107812337Y-47741419D01*
X107867258Y-47698228D01*
X107936811Y-47691586D01*
X107975345Y-47705957D01*
X107987515Y-47712984D01*
X108127525Y-47750500D01*
X108127528Y-47750500D01*
X108272472Y-47750500D01*
X108272475Y-47750500D01*
X108412485Y-47712984D01*
X108538015Y-47640509D01*
X108640509Y-47538015D01*
X108712984Y-47412485D01*
X108750500Y-47272475D01*
X108750500Y-47127525D01*
X108712984Y-46987515D01*
X108703540Y-46971158D01*
X108640511Y-46861988D01*
X108640506Y-46861982D01*
X108538017Y-46759493D01*
X108538011Y-46759488D01*
X108412488Y-46687017D01*
X108412489Y-46687017D01*
X108401006Y-46683940D01*
X108272475Y-46649500D01*
X108127525Y-46649500D01*
X107998993Y-46683940D01*
X107987511Y-46687017D01*
X107861988Y-46759488D01*
X107861982Y-46759493D01*
X107759493Y-46861982D01*
X107759488Y-46861988D01*
X107687017Y-46987511D01*
X107687016Y-46987515D01*
X107649500Y-47127525D01*
X107649500Y-47272475D01*
X107685596Y-47407185D01*
X107687017Y-47412487D01*
X107694042Y-47424655D01*
X107710514Y-47492555D01*
X107687661Y-47558582D01*
X107632739Y-47601772D01*
X107563186Y-47608413D01*
X107524655Y-47594042D01*
X107512487Y-47587017D01*
X107512486Y-47587016D01*
X107512485Y-47587016D01*
X107372475Y-47549500D01*
X107227525Y-47549500D01*
X107098993Y-47583940D01*
X107087511Y-47587017D01*
X107075342Y-47594043D01*
X107007441Y-47610513D01*
X106941415Y-47587659D01*
X106898226Y-47532737D01*
X106891587Y-47463183D01*
X106905960Y-47424651D01*
X106912982Y-47412488D01*
X106912981Y-47412488D01*
X106912984Y-47412485D01*
X106950500Y-47272475D01*
X106950500Y-47127525D01*
X106912984Y-46987515D01*
X106903540Y-46971158D01*
X106840511Y-46861988D01*
X106840506Y-46861982D01*
X106738017Y-46759493D01*
X106738011Y-46759488D01*
X106612488Y-46687017D01*
X106612489Y-46687017D01*
X106601006Y-46683940D01*
X106472475Y-46649500D01*
X106327525Y-46649500D01*
X106198993Y-46683940D01*
X106187511Y-46687017D01*
X106061988Y-46759488D01*
X106061982Y-46759493D01*
X105959493Y-46861982D01*
X105959488Y-46861988D01*
X105887017Y-46987511D01*
X105887016Y-46987515D01*
X105849500Y-47127525D01*
X103861386Y-47127525D01*
X103865499Y-47106849D01*
X103865500Y-47106841D01*
X103865500Y-46949155D01*
X103865499Y-46949153D01*
X103859656Y-46919780D01*
X103834737Y-46794503D01*
X103834735Y-46794498D01*
X103774397Y-46648827D01*
X103774390Y-46648814D01*
X103686789Y-46517711D01*
X103686786Y-46517707D01*
X103649760Y-46480681D01*
X103616275Y-46419358D01*
X103621259Y-46349666D01*
X103649760Y-46305319D01*
X103686786Y-46268292D01*
X103686789Y-46268289D01*
X103774394Y-46137179D01*
X103834737Y-45991497D01*
X103837516Y-45977525D01*
X104699500Y-45977525D01*
X104699500Y-46122475D01*
X104728262Y-46229815D01*
X104737017Y-46262488D01*
X104809488Y-46388011D01*
X104809490Y-46388013D01*
X104809491Y-46388015D01*
X104911985Y-46490509D01*
X104911986Y-46490510D01*
X104911988Y-46490511D01*
X105037511Y-46562982D01*
X105037512Y-46562982D01*
X105037515Y-46562984D01*
X105177525Y-46600500D01*
X105177528Y-46600500D01*
X105322472Y-46600500D01*
X105322475Y-46600500D01*
X105462485Y-46562984D01*
X105588015Y-46490509D01*
X105690509Y-46388015D01*
X105762984Y-46262485D01*
X105800500Y-46122475D01*
X105800500Y-46077525D01*
X108749500Y-46077525D01*
X108749500Y-46222475D01*
X108787016Y-46362485D01*
X108787017Y-46362488D01*
X108859488Y-46488011D01*
X108859490Y-46488013D01*
X108859491Y-46488015D01*
X108961985Y-46590509D01*
X108961986Y-46590510D01*
X108961988Y-46590511D01*
X109087511Y-46662982D01*
X109087512Y-46662982D01*
X109087515Y-46662984D01*
X109227525Y-46700500D01*
X109227528Y-46700500D01*
X109372472Y-46700500D01*
X109372475Y-46700500D01*
X109512485Y-46662984D01*
X109638015Y-46590509D01*
X109740509Y-46488015D01*
X109812984Y-46362485D01*
X109850500Y-46222475D01*
X109850500Y-46077525D01*
X109812984Y-45937515D01*
X109807217Y-45927527D01*
X109740511Y-45811988D01*
X109740506Y-45811982D01*
X109638017Y-45709493D01*
X109638011Y-45709488D01*
X109512488Y-45637017D01*
X109512489Y-45637017D01*
X109501006Y-45633940D01*
X109372475Y-45599500D01*
X109227525Y-45599500D01*
X109098993Y-45633940D01*
X109087511Y-45637017D01*
X108961988Y-45709488D01*
X108961982Y-45709493D01*
X108859493Y-45811982D01*
X108859488Y-45811988D01*
X108787017Y-45937511D01*
X108787016Y-45937515D01*
X108749500Y-46077525D01*
X105800500Y-46077525D01*
X105800500Y-45977525D01*
X105762984Y-45837515D01*
X105762595Y-45836842D01*
X105690511Y-45711988D01*
X105690506Y-45711982D01*
X105588017Y-45609493D01*
X105588011Y-45609488D01*
X105462488Y-45537017D01*
X105462489Y-45537017D01*
X105451006Y-45533940D01*
X105322475Y-45499500D01*
X105177525Y-45499500D01*
X105048993Y-45533940D01*
X105037511Y-45537017D01*
X104911988Y-45609488D01*
X104911982Y-45609493D01*
X104809493Y-45711982D01*
X104809488Y-45711988D01*
X104737017Y-45837511D01*
X104737016Y-45837515D01*
X104699500Y-45977525D01*
X103837516Y-45977525D01*
X103853733Y-45895997D01*
X103865500Y-45836844D01*
X103865500Y-45679155D01*
X103865499Y-45679153D01*
X103862083Y-45661982D01*
X103834737Y-45524503D01*
X103834735Y-45524498D01*
X103774397Y-45378827D01*
X103774390Y-45378814D01*
X103717312Y-45293391D01*
X103696434Y-45226713D01*
X103714919Y-45159333D01*
X103766897Y-45112643D01*
X103820414Y-45100500D01*
X111957197Y-45100500D01*
X112024236Y-45120185D01*
X112069991Y-45172989D01*
X112079935Y-45242147D01*
X112050910Y-45305703D01*
X112004649Y-45339061D01*
X111924663Y-45372191D01*
X111924647Y-45372199D01*
X111674851Y-45516420D01*
X111674835Y-45516431D01*
X111445997Y-45692024D01*
X111445990Y-45692030D01*
X111242030Y-45895990D01*
X111242024Y-45895997D01*
X111066431Y-46124835D01*
X111066420Y-46124851D01*
X110922199Y-46374647D01*
X110922191Y-46374663D01*
X110811814Y-46641139D01*
X110811809Y-46641155D01*
X110780101Y-46759493D01*
X110737152Y-46919780D01*
X110737149Y-46919793D01*
X110699501Y-47205761D01*
X110699500Y-47205778D01*
X110699500Y-47494221D01*
X110699501Y-47494238D01*
X110737149Y-47780206D01*
X110737150Y-47780211D01*
X110737151Y-47780217D01*
X110811809Y-48058844D01*
X110811814Y-48058860D01*
X110922191Y-48325336D01*
X110922199Y-48325352D01*
X111066420Y-48575148D01*
X111066431Y-48575164D01*
X111242024Y-48804002D01*
X111242030Y-48804009D01*
X111445990Y-49007969D01*
X111445997Y-49007975D01*
X111530055Y-49072475D01*
X111674844Y-49183575D01*
X111674851Y-49183579D01*
X111924647Y-49327800D01*
X111924663Y-49327808D01*
X112191139Y-49438185D01*
X112191145Y-49438186D01*
X112191155Y-49438191D01*
X112469783Y-49512849D01*
X112755772Y-49550500D01*
X112755779Y-49550500D01*
X113044221Y-49550500D01*
X113044228Y-49550500D01*
X113330217Y-49512849D01*
X113608845Y-49438191D01*
X113672118Y-49411982D01*
X113741585Y-49404514D01*
X113804064Y-49435788D01*
X113839717Y-49495877D01*
X113837224Y-49565702D01*
X113813204Y-49604592D01*
X113814438Y-49605539D01*
X113809488Y-49611988D01*
X113737017Y-49737511D01*
X113737016Y-49737515D01*
X113699500Y-49877525D01*
X113699500Y-50022475D01*
X113728451Y-50130520D01*
X113737017Y-50162488D01*
X113809488Y-50288011D01*
X113809490Y-50288013D01*
X113809491Y-50288015D01*
X113911985Y-50390509D01*
X113911986Y-50390510D01*
X113911988Y-50390511D01*
X114037511Y-50462982D01*
X114037512Y-50462982D01*
X114037515Y-50462984D01*
X114177525Y-50500500D01*
X114177528Y-50500500D01*
X114322472Y-50500500D01*
X114322475Y-50500500D01*
X114462485Y-50462984D01*
X114588015Y-50390509D01*
X114690509Y-50288015D01*
X114762984Y-50162485D01*
X114800500Y-50022475D01*
X114800500Y-49877525D01*
X114762984Y-49737515D01*
X114690509Y-49611985D01*
X114588015Y-49509491D01*
X114588013Y-49509490D01*
X114588011Y-49509488D01*
X114462488Y-49437017D01*
X114462489Y-49437017D01*
X114451006Y-49433940D01*
X114322475Y-49399500D01*
X114209049Y-49399500D01*
X114142010Y-49379815D01*
X114096255Y-49327011D01*
X114086311Y-49257853D01*
X114115336Y-49194297D01*
X114133563Y-49177124D01*
X114143525Y-49169480D01*
X114354004Y-49007974D01*
X114557974Y-48804004D01*
X114733575Y-48575156D01*
X114877804Y-48325345D01*
X114878090Y-48324655D01*
X114910939Y-48245351D01*
X114954780Y-48190947D01*
X115021074Y-48168882D01*
X115088773Y-48186161D01*
X115136384Y-48237298D01*
X115149500Y-48292803D01*
X115149500Y-75157196D01*
X115129815Y-75224235D01*
X115077011Y-75269990D01*
X115007853Y-75279934D01*
X114944297Y-75250909D01*
X114910939Y-75204649D01*
X114877805Y-75124658D01*
X114877800Y-75124647D01*
X114733579Y-74874851D01*
X114733575Y-74874844D01*
X114557974Y-74645996D01*
X114557969Y-74645990D01*
X114354009Y-74442030D01*
X114354002Y-74442024D01*
X114198725Y-74322876D01*
X114157522Y-74266448D01*
X114153367Y-74196702D01*
X114187579Y-74135782D01*
X114249296Y-74103029D01*
X114274211Y-74100500D01*
X114322472Y-74100500D01*
X114322475Y-74100500D01*
X114462485Y-74062984D01*
X114588015Y-73990509D01*
X114690509Y-73888015D01*
X114762984Y-73762485D01*
X114800500Y-73622475D01*
X114800500Y-73477525D01*
X114762984Y-73337515D01*
X114734116Y-73287515D01*
X114690511Y-73211988D01*
X114690506Y-73211982D01*
X114588017Y-73109493D01*
X114588011Y-73109488D01*
X114462488Y-73037017D01*
X114462489Y-73037017D01*
X114451006Y-73033940D01*
X114322475Y-72999500D01*
X114177525Y-72999500D01*
X114048993Y-73033940D01*
X114037511Y-73037017D01*
X113911988Y-73109488D01*
X113911982Y-73109493D01*
X113809493Y-73211982D01*
X113809488Y-73211988D01*
X113737017Y-73337511D01*
X113737016Y-73337515D01*
X113699500Y-73477525D01*
X113699500Y-73622475D01*
X113731128Y-73740511D01*
X113737017Y-73762488D01*
X113783847Y-73843599D01*
X113800320Y-73911499D01*
X113777468Y-73977526D01*
X113722547Y-74020716D01*
X113652993Y-74027358D01*
X113629008Y-74020160D01*
X113608860Y-74011814D01*
X113608848Y-74011810D01*
X113608845Y-74011809D01*
X113330217Y-73937151D01*
X113330211Y-73937150D01*
X113330206Y-73937149D01*
X113044238Y-73899501D01*
X113044233Y-73899500D01*
X113044228Y-73899500D01*
X112755772Y-73899500D01*
X112755766Y-73899500D01*
X112755761Y-73899501D01*
X112469793Y-73937149D01*
X112469786Y-73937150D01*
X112469783Y-73937151D01*
X112191155Y-74011809D01*
X112191139Y-74011814D01*
X111924663Y-74122191D01*
X111924647Y-74122199D01*
X111674851Y-74266420D01*
X111674835Y-74266431D01*
X111445997Y-74442024D01*
X111445990Y-74442030D01*
X111242030Y-74645990D01*
X111242024Y-74645997D01*
X111066431Y-74874835D01*
X111066420Y-74874851D01*
X110922199Y-75124647D01*
X110922191Y-75124663D01*
X110811814Y-75391139D01*
X110811809Y-75391155D01*
X110737152Y-75669780D01*
X110737149Y-75669793D01*
X110699501Y-75955761D01*
X110699500Y-75955778D01*
X110699500Y-76244221D01*
X110699501Y-76244238D01*
X110737149Y-76530206D01*
X110737150Y-76530211D01*
X110737151Y-76530217D01*
X110769381Y-76650500D01*
X110811809Y-76808844D01*
X110811814Y-76808860D01*
X110922191Y-77075336D01*
X110922199Y-77075352D01*
X111066420Y-77325148D01*
X111066431Y-77325164D01*
X111242024Y-77554002D01*
X111242030Y-77554009D01*
X111445990Y-77757969D01*
X111445997Y-77757975D01*
X111530055Y-77822475D01*
X111674844Y-77933575D01*
X111674851Y-77933579D01*
X111924647Y-78077800D01*
X111924663Y-78077808D01*
X112004649Y-78110939D01*
X112059053Y-78154780D01*
X112081118Y-78221074D01*
X112063839Y-78288773D01*
X112012702Y-78336384D01*
X111957197Y-78349500D01*
X104678386Y-78349500D01*
X104611347Y-78329815D01*
X104565592Y-78277011D01*
X104555648Y-78207853D01*
X104584673Y-78144297D01*
X104590705Y-78137819D01*
X104640509Y-78088015D01*
X104712984Y-77962485D01*
X104750500Y-77822475D01*
X104750500Y-77677525D01*
X104712984Y-77537515D01*
X104640509Y-77411985D01*
X104538015Y-77309491D01*
X104538013Y-77309490D01*
X104538011Y-77309488D01*
X104412488Y-77237017D01*
X104412489Y-77237017D01*
X104401006Y-77233940D01*
X104272475Y-77199500D01*
X104127525Y-77199500D01*
X103998993Y-77233940D01*
X103987511Y-77237017D01*
X103861988Y-77309488D01*
X103861982Y-77309493D01*
X103759493Y-77411982D01*
X103759488Y-77411988D01*
X103687017Y-77537511D01*
X103687016Y-77537515D01*
X103649500Y-77677525D01*
X103649500Y-77822475D01*
X103687016Y-77962485D01*
X103687017Y-77962488D01*
X103759488Y-78088011D01*
X103759493Y-78088017D01*
X103809295Y-78137819D01*
X103842780Y-78199142D01*
X103837796Y-78268834D01*
X103795924Y-78324767D01*
X103730460Y-78349184D01*
X103721614Y-78349500D01*
X98729500Y-78349500D01*
X98662461Y-78329815D01*
X98616706Y-78277011D01*
X98605500Y-78225500D01*
X98605500Y-76460864D01*
X98625185Y-76393825D01*
X98677989Y-76348070D01*
X98747147Y-76338126D01*
X98810703Y-76367151D01*
X98836887Y-76398864D01*
X98859491Y-76438015D01*
X98961985Y-76540509D01*
X98961986Y-76540510D01*
X98961988Y-76540511D01*
X99087511Y-76612982D01*
X99087512Y-76612982D01*
X99087515Y-76612984D01*
X99227525Y-76650500D01*
X99227528Y-76650500D01*
X99372472Y-76650500D01*
X99372475Y-76650500D01*
X99512485Y-76612984D01*
X99638015Y-76540509D01*
X99740509Y-76438015D01*
X99812984Y-76312485D01*
X99850500Y-76172475D01*
X99850500Y-76027525D01*
X99812984Y-75887515D01*
X99740512Y-75761991D01*
X99740511Y-75761988D01*
X99740506Y-75761982D01*
X99638017Y-75659493D01*
X99638011Y-75659488D01*
X99512488Y-75587017D01*
X99512489Y-75587017D01*
X99499457Y-75583525D01*
X104849500Y-75583525D01*
X104849500Y-75728475D01*
X104868970Y-75801136D01*
X104887017Y-75868488D01*
X104959488Y-75994011D01*
X104959490Y-75994013D01*
X104959491Y-75994015D01*
X105061985Y-76096509D01*
X105061986Y-76096510D01*
X105061988Y-76096511D01*
X105187511Y-76168982D01*
X105187512Y-76168982D01*
X105187515Y-76168984D01*
X105327525Y-76206500D01*
X105327528Y-76206500D01*
X105472472Y-76206500D01*
X105472475Y-76206500D01*
X105612485Y-76168984D01*
X105738015Y-76096509D01*
X105840509Y-75994015D01*
X105912984Y-75868485D01*
X105950500Y-75728475D01*
X105950500Y-75583525D01*
X105912984Y-75443515D01*
X105840509Y-75317985D01*
X105738015Y-75215491D01*
X105738013Y-75215490D01*
X105738011Y-75215488D01*
X105612488Y-75143017D01*
X105612489Y-75143017D01*
X105601006Y-75139940D01*
X105472475Y-75105500D01*
X105327525Y-75105500D01*
X105198993Y-75139940D01*
X105187511Y-75143017D01*
X105061988Y-75215488D01*
X105061982Y-75215493D01*
X104959493Y-75317982D01*
X104959488Y-75317988D01*
X104887017Y-75443511D01*
X104887016Y-75443515D01*
X104849500Y-75583525D01*
X99499457Y-75583525D01*
X99372475Y-75549500D01*
X99227525Y-75549500D01*
X99100543Y-75583525D01*
X99087511Y-75587017D01*
X98961988Y-75659488D01*
X98961982Y-75659493D01*
X98859493Y-75761982D01*
X98859486Y-75761991D01*
X98836886Y-75801136D01*
X98786319Y-75849351D01*
X98717712Y-75862573D01*
X98652847Y-75836605D01*
X98612319Y-75779690D01*
X98605500Y-75739135D01*
X98605500Y-72143431D01*
X98605500Y-72143426D01*
X98599980Y-72085612D01*
X98591098Y-72039526D01*
X98583260Y-72007991D01*
X98583259Y-72007988D01*
X98531260Y-71908498D01*
X98531256Y-71908491D01*
X98528817Y-71905390D01*
X98488065Y-71853570D01*
X98488063Y-71853568D01*
X98488060Y-71853564D01*
X98445397Y-71809320D01*
X98445395Y-71809318D01*
X98445392Y-71809315D01*
X98445389Y-71809313D01*
X98347858Y-71753727D01*
X98347851Y-71753723D01*
X98347844Y-71753720D01*
X98347843Y-71753720D01*
X98281838Y-71730874D01*
X98281829Y-71730871D01*
X98281825Y-71730870D01*
X98247214Y-71722678D01*
X98221988Y-71716707D01*
X98221987Y-71716707D01*
X98184616Y-71718697D01*
X98109873Y-71722678D01*
X98041971Y-71739151D01*
X98041970Y-71739152D01*
X98001520Y-71755345D01*
X97987533Y-71760000D01*
X97916293Y-71779090D01*
X97884197Y-71783316D01*
X97839176Y-71783316D01*
X97807083Y-71779091D01*
X97763576Y-71767433D01*
X97733680Y-71755049D01*
X97694682Y-71732534D01*
X97669006Y-71712831D01*
X97633976Y-71677801D01*
X97618147Y-71658397D01*
X97613819Y-71651836D01*
X97603591Y-71640981D01*
X97541871Y-71575474D01*
X97513892Y-71554530D01*
X97485935Y-71533602D01*
X97433256Y-71501898D01*
X97426323Y-71498975D01*
X97372198Y-71454791D01*
X97352540Y-71407117D01*
X97350500Y-71396009D01*
X97350500Y-71327525D01*
X97312984Y-71187515D01*
X97311844Y-71185541D01*
X97309618Y-71173418D01*
X97312747Y-71143420D01*
X97313466Y-71113262D01*
X97316368Y-71108717D01*
X97316869Y-71103925D01*
X97329530Y-71088111D01*
X97347659Y-71059730D01*
X97359764Y-71048602D01*
X97401636Y-70992669D01*
X97433345Y-70939986D01*
X97461795Y-70831379D01*
X97466779Y-70761687D01*
X97464971Y-70700231D01*
X97439938Y-70623405D01*
X97430190Y-70593489D01*
X97430186Y-70593479D01*
X97396701Y-70532157D01*
X97344601Y-70462561D01*
X97344596Y-70462556D01*
X97344593Y-70462551D01*
X97344589Y-70462547D01*
X97344583Y-70462540D01*
X96463119Y-69581077D01*
X96463116Y-69581074D01*
X96424303Y-69548242D01*
X96390802Y-69524386D01*
X96390798Y-69524383D01*
X96369666Y-69510614D01*
X96369663Y-69510612D01*
X96369661Y-69510611D01*
X96369659Y-69510610D01*
X96264248Y-69471966D01*
X96195371Y-69460385D01*
X96195357Y-69460383D01*
X96195349Y-69460382D01*
X96173299Y-69458929D01*
X96166270Y-69458466D01*
X96123736Y-69442871D01*
X99211073Y-69442871D01*
X99211073Y-69587821D01*
X99248589Y-69727831D01*
X99248590Y-69727834D01*
X99321061Y-69853357D01*
X99321063Y-69853359D01*
X99321064Y-69853361D01*
X99423558Y-69955855D01*
X99423559Y-69955856D01*
X99423561Y-69955857D01*
X99549084Y-70028328D01*
X99549085Y-70028328D01*
X99549088Y-70028330D01*
X99642177Y-70053273D01*
X99701835Y-70089637D01*
X99729855Y-70140952D01*
X99747012Y-70204981D01*
X99747015Y-70204988D01*
X99819486Y-70330511D01*
X99819488Y-70330513D01*
X99819489Y-70330515D01*
X99921983Y-70433009D01*
X99921984Y-70433010D01*
X99921986Y-70433011D01*
X100047509Y-70505482D01*
X100047510Y-70505482D01*
X100047513Y-70505484D01*
X100187523Y-70543000D01*
X100187526Y-70543000D01*
X100332470Y-70543000D01*
X100332473Y-70543000D01*
X100472483Y-70505484D01*
X100598013Y-70433009D01*
X100700507Y-70330515D01*
X100730054Y-70279337D01*
X100780621Y-70231122D01*
X100849228Y-70217899D01*
X100869525Y-70221561D01*
X100977525Y-70250500D01*
X100977528Y-70250500D01*
X101122472Y-70250500D01*
X101122475Y-70250500D01*
X101262485Y-70212984D01*
X101329569Y-70174252D01*
X101397468Y-70157780D01*
X101463495Y-70180632D01*
X101506686Y-70235553D01*
X101515569Y-70281640D01*
X101515569Y-71618359D01*
X101495884Y-71685398D01*
X101443080Y-71731153D01*
X101373922Y-71741097D01*
X101329569Y-71725746D01*
X101262488Y-71687017D01*
X101262489Y-71687017D01*
X101251006Y-71683940D01*
X101122475Y-71649500D01*
X100977525Y-71649500D01*
X100977523Y-71649500D01*
X100945323Y-71658128D01*
X100875473Y-71656465D01*
X100817611Y-71617301D01*
X100790108Y-71553072D01*
X100793457Y-71506258D01*
X100800500Y-71479975D01*
X100800500Y-71335025D01*
X100762984Y-71195015D01*
X100742512Y-71159557D01*
X100690511Y-71069488D01*
X100690506Y-71069482D01*
X100588017Y-70966993D01*
X100588011Y-70966988D01*
X100462488Y-70894517D01*
X100462489Y-70894517D01*
X100451006Y-70891440D01*
X100322475Y-70857000D01*
X100177525Y-70857000D01*
X100048993Y-70891440D01*
X100037511Y-70894517D01*
X99911988Y-70966988D01*
X99911982Y-70966993D01*
X99809493Y-71069482D01*
X99809488Y-71069488D01*
X99737017Y-71195011D01*
X99737016Y-71195015D01*
X99699500Y-71335025D01*
X99699500Y-71479975D01*
X99737016Y-71619985D01*
X99737017Y-71619988D01*
X99809488Y-71745511D01*
X99809490Y-71745513D01*
X99809491Y-71745515D01*
X99911985Y-71848009D01*
X99911986Y-71848010D01*
X99911988Y-71848011D01*
X100037511Y-71920482D01*
X100037512Y-71920482D01*
X100037515Y-71920484D01*
X100177525Y-71958000D01*
X100177528Y-71958000D01*
X100322473Y-71958000D01*
X100322475Y-71958000D01*
X100354674Y-71949372D01*
X100424523Y-71951033D01*
X100482386Y-71990195D01*
X100509891Y-72054423D01*
X100506543Y-72101237D01*
X100499500Y-72127520D01*
X100499500Y-72127525D01*
X100499500Y-72272475D01*
X100537016Y-72412485D01*
X100537017Y-72412488D01*
X100609488Y-72538011D01*
X100609490Y-72538013D01*
X100609491Y-72538015D01*
X100711985Y-72640509D01*
X100711986Y-72640510D01*
X100711988Y-72640511D01*
X100837511Y-72712982D01*
X100837512Y-72712982D01*
X100837515Y-72712984D01*
X100977525Y-72750500D01*
X100977528Y-72750500D01*
X101035124Y-72750500D01*
X101102163Y-72770185D01*
X101147918Y-72822989D01*
X101157862Y-72892147D01*
X101128837Y-72955703D01*
X101093523Y-72981168D01*
X101094553Y-72982952D01*
X100961988Y-73059488D01*
X100961982Y-73059493D01*
X100859493Y-73161982D01*
X100859488Y-73161988D01*
X100787017Y-73287511D01*
X100787016Y-73287515D01*
X100749500Y-73427525D01*
X100749500Y-73572475D01*
X100767142Y-73638315D01*
X100787017Y-73712488D01*
X100859488Y-73838011D01*
X100859490Y-73838013D01*
X100859491Y-73838015D01*
X100961985Y-73940509D01*
X100961986Y-73940510D01*
X100961988Y-73940511D01*
X101087511Y-74012982D01*
X101087512Y-74012982D01*
X101087515Y-74012984D01*
X101227525Y-74050500D01*
X101227528Y-74050500D01*
X101372472Y-74050500D01*
X101372475Y-74050500D01*
X101512485Y-74012984D01*
X101638015Y-73940509D01*
X101740509Y-73838015D01*
X101812984Y-73712485D01*
X101850500Y-73572475D01*
X101850500Y-73427525D01*
X101812984Y-73287515D01*
X101770159Y-73213341D01*
X101740511Y-73161988D01*
X101740506Y-73161982D01*
X101638017Y-73059493D01*
X101638011Y-73059488D01*
X101512488Y-72987017D01*
X101512489Y-72987017D01*
X101490660Y-72981168D01*
X101372475Y-72949500D01*
X101314876Y-72949500D01*
X101247837Y-72929815D01*
X101202082Y-72877011D01*
X101192138Y-72807853D01*
X101221163Y-72744297D01*
X101256476Y-72718831D01*
X101255447Y-72717048D01*
X101350812Y-72661988D01*
X101388015Y-72640509D01*
X101443002Y-72585521D01*
X101504321Y-72552039D01*
X101574013Y-72557023D01*
X101618361Y-72585524D01*
X102197740Y-73164903D01*
X102224616Y-73205121D01*
X102227666Y-73212482D01*
X102227667Y-73212485D01*
X102300142Y-73338015D01*
X102402636Y-73440509D01*
X102402637Y-73440510D01*
X102402639Y-73440511D01*
X102528162Y-73512982D01*
X102528163Y-73512982D01*
X102528166Y-73512984D01*
X102668176Y-73550500D01*
X102668179Y-73550500D01*
X102813123Y-73550500D01*
X102813126Y-73550500D01*
X102953136Y-73512984D01*
X102953138Y-73512982D01*
X102953140Y-73512982D01*
X102953141Y-73512981D01*
X102954000Y-73512485D01*
X103033324Y-73466686D01*
X103101224Y-73450213D01*
X103157323Y-73466685D01*
X103237515Y-73512984D01*
X103377525Y-73550500D01*
X103377528Y-73550500D01*
X103522472Y-73550500D01*
X103522475Y-73550500D01*
X103662485Y-73512984D01*
X103662487Y-73512982D01*
X103662489Y-73512982D01*
X103662490Y-73512981D01*
X103733000Y-73472272D01*
X103800900Y-73455798D01*
X103857000Y-73472270D01*
X103927518Y-73512984D01*
X104067528Y-73550500D01*
X104067531Y-73550500D01*
X104075379Y-73552603D01*
X104075023Y-73553931D01*
X104131053Y-73578716D01*
X104165721Y-73631274D01*
X104166841Y-73630811D01*
X104169245Y-73636615D01*
X104169525Y-73637040D01*
X104169761Y-73637861D01*
X104169950Y-73638318D01*
X104242421Y-73763841D01*
X104242423Y-73763843D01*
X104242424Y-73763845D01*
X104344918Y-73866339D01*
X104344919Y-73866340D01*
X104344921Y-73866341D01*
X104470444Y-73938812D01*
X104470445Y-73938812D01*
X104470448Y-73938814D01*
X104610458Y-73976330D01*
X104610461Y-73976330D01*
X104755405Y-73976330D01*
X104755408Y-73976330D01*
X104895418Y-73938814D01*
X105020948Y-73866339D01*
X105123442Y-73763845D01*
X105195917Y-73638315D01*
X105233433Y-73498305D01*
X105233433Y-73353355D01*
X105199717Y-73227525D01*
X106249500Y-73227525D01*
X106249500Y-73372475D01*
X106287016Y-73512485D01*
X106287017Y-73512488D01*
X106359488Y-73638011D01*
X106359490Y-73638013D01*
X106359491Y-73638015D01*
X106461985Y-73740509D01*
X106461986Y-73740510D01*
X106461988Y-73740511D01*
X106587511Y-73812982D01*
X106587512Y-73812982D01*
X106587515Y-73812984D01*
X106727525Y-73850500D01*
X106727528Y-73850500D01*
X106872472Y-73850500D01*
X106872475Y-73850500D01*
X107012485Y-73812984D01*
X107138015Y-73740509D01*
X107240509Y-73638015D01*
X107312984Y-73512485D01*
X107350500Y-73372475D01*
X107350500Y-73227525D01*
X107312984Y-73087515D01*
X107296805Y-73059493D01*
X107240511Y-72961988D01*
X107240506Y-72961982D01*
X107138017Y-72859493D01*
X107138011Y-72859488D01*
X107012488Y-72787017D01*
X107012489Y-72787017D01*
X107001006Y-72783940D01*
X106872475Y-72749500D01*
X106727525Y-72749500D01*
X106598993Y-72783940D01*
X106587511Y-72787017D01*
X106461988Y-72859488D01*
X106461982Y-72859493D01*
X106359493Y-72961982D01*
X106359488Y-72961988D01*
X106287017Y-73087511D01*
X106287016Y-73087515D01*
X106249500Y-73227525D01*
X105199717Y-73227525D01*
X105195917Y-73213345D01*
X105195420Y-73212485D01*
X105123444Y-73087818D01*
X105123439Y-73087812D01*
X105020950Y-72985323D01*
X105020944Y-72985318D01*
X104895421Y-72912847D01*
X104895422Y-72912847D01*
X104881546Y-72909129D01*
X104755408Y-72875330D01*
X104755406Y-72875330D01*
X104747557Y-72873227D01*
X104747912Y-72871902D01*
X104691871Y-72847104D01*
X104657216Y-72794554D01*
X104656095Y-72795019D01*
X104653683Y-72789197D01*
X104653406Y-72788776D01*
X104653172Y-72787962D01*
X104652985Y-72787511D01*
X104580514Y-72661988D01*
X104580509Y-72661982D01*
X104478020Y-72559493D01*
X104478014Y-72559488D01*
X104352491Y-72487017D01*
X104352492Y-72487017D01*
X104328368Y-72480553D01*
X104212478Y-72449500D01*
X104067528Y-72449500D01*
X103951638Y-72480553D01*
X103927514Y-72487017D01*
X103857001Y-72527728D01*
X103789100Y-72544201D01*
X103733001Y-72527728D01*
X103662488Y-72487017D01*
X103662489Y-72487017D01*
X103638365Y-72480553D01*
X103522475Y-72449500D01*
X103377525Y-72449500D01*
X103237515Y-72487016D01*
X103237514Y-72487016D01*
X103237512Y-72487017D01*
X103157323Y-72533314D01*
X103146737Y-72535881D01*
X103137981Y-72542358D01*
X103113382Y-72543973D01*
X103089423Y-72549786D01*
X103077297Y-72546343D01*
X103068262Y-72546937D01*
X103038481Y-72535324D01*
X103035265Y-72534411D01*
X103034323Y-72533889D01*
X102953136Y-72487016D01*
X102946389Y-72485208D01*
X102933176Y-72477893D01*
X102926347Y-72470984D01*
X102905554Y-72457089D01*
X102552888Y-72104423D01*
X102519403Y-72043100D01*
X102516569Y-72016742D01*
X102516569Y-71621569D01*
X102536254Y-71554530D01*
X102589058Y-71508775D01*
X102640569Y-71497569D01*
X102719541Y-71497569D01*
X102719544Y-71497569D01*
X102859554Y-71460053D01*
X102985084Y-71387578D01*
X103087578Y-71285084D01*
X103160053Y-71159554D01*
X103197569Y-71019544D01*
X103197569Y-70956389D01*
X108053200Y-70956389D01*
X108053200Y-71083610D01*
X108078015Y-71208365D01*
X108078018Y-71208375D01*
X108126697Y-71325898D01*
X108126702Y-71325907D01*
X108197373Y-71431673D01*
X108197376Y-71431677D01*
X108287322Y-71521623D01*
X108287326Y-71521626D01*
X108393092Y-71592297D01*
X108393098Y-71592300D01*
X108393099Y-71592301D01*
X108510627Y-71640983D01*
X108598176Y-71658397D01*
X108635389Y-71665799D01*
X108635393Y-71665800D01*
X108635394Y-71665800D01*
X108762607Y-71665800D01*
X108762608Y-71665799D01*
X108887373Y-71640983D01*
X109004901Y-71592301D01*
X109110674Y-71521626D01*
X109200626Y-71431674D01*
X109271301Y-71325901D01*
X109319983Y-71208373D01*
X109344800Y-71083606D01*
X109344800Y-70974500D01*
X109350118Y-70956389D01*
X110085200Y-70956389D01*
X110085200Y-71083610D01*
X110110015Y-71208365D01*
X110110018Y-71208375D01*
X110158697Y-71325898D01*
X110158702Y-71325907D01*
X110229373Y-71431673D01*
X110229376Y-71431677D01*
X110319322Y-71521623D01*
X110319326Y-71521626D01*
X110425092Y-71592297D01*
X110425098Y-71592300D01*
X110425099Y-71592301D01*
X110542627Y-71640983D01*
X110630176Y-71658397D01*
X110667389Y-71665799D01*
X110667393Y-71665800D01*
X110667394Y-71665800D01*
X110794607Y-71665800D01*
X110794608Y-71665799D01*
X110919373Y-71640983D01*
X111036901Y-71592301D01*
X111142674Y-71521626D01*
X111180206Y-71484094D01*
X111241528Y-71450608D01*
X111311220Y-71455592D01*
X111355569Y-71484093D01*
X111411985Y-71540509D01*
X111411986Y-71540510D01*
X111411988Y-71540511D01*
X111537511Y-71612982D01*
X111537512Y-71612982D01*
X111537515Y-71612984D01*
X111677525Y-71650500D01*
X111677528Y-71650500D01*
X111822472Y-71650500D01*
X111822475Y-71650500D01*
X111962485Y-71612984D01*
X112088015Y-71540509D01*
X112190509Y-71438015D01*
X112262984Y-71312485D01*
X112270348Y-71284999D01*
X112306713Y-71225341D01*
X112358030Y-71197320D01*
X112362471Y-71196130D01*
X112362475Y-71196130D01*
X112502485Y-71158614D01*
X112628015Y-71086139D01*
X112730509Y-70983645D01*
X112802984Y-70858115D01*
X112840500Y-70718105D01*
X112840500Y-70573155D01*
X112802984Y-70433145D01*
X112802905Y-70433009D01*
X112730511Y-70307618D01*
X112730506Y-70307612D01*
X112628017Y-70205123D01*
X112628011Y-70205118D01*
X112502488Y-70132647D01*
X112502489Y-70132647D01*
X112483373Y-70127525D01*
X112362475Y-70095130D01*
X112217525Y-70095130D01*
X112096627Y-70127525D01*
X112077511Y-70132647D01*
X111951988Y-70205118D01*
X111951982Y-70205123D01*
X111849493Y-70307612D01*
X111849488Y-70307618D01*
X111777017Y-70433141D01*
X111777016Y-70433143D01*
X111769650Y-70460632D01*
X111733283Y-70520291D01*
X111681970Y-70548309D01*
X111537511Y-70587017D01*
X111407805Y-70661904D01*
X111339905Y-70678377D01*
X111273878Y-70655525D01*
X111242701Y-70623405D01*
X111232625Y-70608324D01*
X111142677Y-70518376D01*
X111142673Y-70518373D01*
X111036907Y-70447702D01*
X111036898Y-70447697D01*
X110919375Y-70399018D01*
X110919376Y-70399018D01*
X110919373Y-70399017D01*
X110919369Y-70399016D01*
X110919365Y-70399015D01*
X110794610Y-70374200D01*
X110794606Y-70374200D01*
X110667394Y-70374200D01*
X110667389Y-70374200D01*
X110542634Y-70399015D01*
X110542624Y-70399018D01*
X110425101Y-70447697D01*
X110425092Y-70447702D01*
X110319326Y-70518373D01*
X110319322Y-70518376D01*
X110229376Y-70608322D01*
X110229373Y-70608326D01*
X110158702Y-70714092D01*
X110158697Y-70714101D01*
X110110018Y-70831624D01*
X110110015Y-70831634D01*
X110085200Y-70956389D01*
X109350118Y-70956389D01*
X109364485Y-70907461D01*
X109417289Y-70861706D01*
X109449829Y-70851960D01*
X109459260Y-70850500D01*
X109518475Y-70850500D01*
X109658485Y-70812984D01*
X109784015Y-70740509D01*
X109886509Y-70638015D01*
X109958984Y-70512485D01*
X109996500Y-70372475D01*
X109996500Y-70227525D01*
X109958984Y-70087515D01*
X109946473Y-70065846D01*
X109886511Y-69961988D01*
X109886506Y-69961982D01*
X109784017Y-69859493D01*
X109784011Y-69859488D01*
X109658488Y-69787017D01*
X109658489Y-69787017D01*
X109632081Y-69779941D01*
X109518475Y-69749500D01*
X109373525Y-69749500D01*
X109259919Y-69779941D01*
X109233511Y-69787017D01*
X109107988Y-69859488D01*
X109107982Y-69859493D01*
X109005493Y-69961982D01*
X109005488Y-69961988D01*
X108933017Y-70087511D01*
X108933016Y-70087515D01*
X108895500Y-70227525D01*
X108895500Y-70227527D01*
X108895500Y-70250475D01*
X108875815Y-70317514D01*
X108823011Y-70363269D01*
X108768698Y-70372328D01*
X108768698Y-70374200D01*
X108635389Y-70374200D01*
X108510634Y-70399015D01*
X108510624Y-70399018D01*
X108393101Y-70447697D01*
X108393092Y-70447702D01*
X108287326Y-70518373D01*
X108287322Y-70518376D01*
X108197376Y-70608322D01*
X108197373Y-70608326D01*
X108126702Y-70714092D01*
X108126697Y-70714101D01*
X108078018Y-70831624D01*
X108078015Y-70831634D01*
X108053200Y-70956389D01*
X103197569Y-70956389D01*
X103197569Y-70874594D01*
X103160053Y-70734584D01*
X103110796Y-70649269D01*
X103094324Y-70581372D01*
X103117176Y-70515345D01*
X103172097Y-70472154D01*
X103241650Y-70465512D01*
X103280183Y-70479883D01*
X103337515Y-70512984D01*
X103477525Y-70550500D01*
X103477528Y-70550500D01*
X103622472Y-70550500D01*
X103622475Y-70550500D01*
X103762485Y-70512984D01*
X103888015Y-70440509D01*
X103990509Y-70338015D01*
X104025433Y-70277525D01*
X104449500Y-70277525D01*
X104449500Y-70422475D01*
X104480460Y-70538017D01*
X104487017Y-70562488D01*
X104559488Y-70688011D01*
X104559490Y-70688013D01*
X104559491Y-70688015D01*
X104661985Y-70790509D01*
X104661986Y-70790510D01*
X104661988Y-70790511D01*
X104787511Y-70862982D01*
X104787512Y-70862982D01*
X104787515Y-70862984D01*
X104927525Y-70900500D01*
X104927528Y-70900500D01*
X105072472Y-70900500D01*
X105072475Y-70900500D01*
X105212485Y-70862984D01*
X105338015Y-70790509D01*
X105440509Y-70688015D01*
X105512984Y-70562485D01*
X105550500Y-70422475D01*
X105550500Y-70277525D01*
X105512984Y-70137515D01*
X105510173Y-70132647D01*
X105440511Y-70011988D01*
X105440506Y-70011982D01*
X105338017Y-69909493D01*
X105338011Y-69909488D01*
X105282651Y-69877526D01*
X105918824Y-69877526D01*
X105918824Y-70022476D01*
X105950570Y-70140952D01*
X105956341Y-70162489D01*
X106028812Y-70288012D01*
X106028814Y-70288014D01*
X106028815Y-70288016D01*
X106131309Y-70390510D01*
X106131310Y-70390511D01*
X106131312Y-70390512D01*
X106256835Y-70462983D01*
X106256836Y-70462983D01*
X106256839Y-70462985D01*
X106396849Y-70500501D01*
X106396852Y-70500501D01*
X106541797Y-70500501D01*
X106541799Y-70500501D01*
X106619663Y-70479637D01*
X106689510Y-70481298D01*
X106747373Y-70520460D01*
X106759140Y-70537408D01*
X106759486Y-70538008D01*
X106759489Y-70538012D01*
X106759491Y-70538015D01*
X106861985Y-70640509D01*
X106861986Y-70640510D01*
X106861988Y-70640511D01*
X106987511Y-70712982D01*
X106987512Y-70712982D01*
X106987515Y-70712984D01*
X107127525Y-70750500D01*
X107127528Y-70750500D01*
X107272472Y-70750500D01*
X107272475Y-70750500D01*
X107412485Y-70712984D01*
X107538015Y-70640509D01*
X107640509Y-70538015D01*
X107712984Y-70412485D01*
X107750500Y-70272475D01*
X107750500Y-70127525D01*
X107712984Y-69987515D01*
X107698244Y-69961985D01*
X107640511Y-69861988D01*
X107640506Y-69861982D01*
X107538017Y-69759493D01*
X107538011Y-69759488D01*
X107412488Y-69687017D01*
X107412489Y-69687017D01*
X107401006Y-69683940D01*
X107272475Y-69649500D01*
X107127525Y-69649500D01*
X107049660Y-69670363D01*
X106979812Y-69668701D01*
X106921949Y-69629539D01*
X106910183Y-69612592D01*
X106909833Y-69611986D01*
X106807339Y-69509492D01*
X106807337Y-69509491D01*
X106807335Y-69509489D01*
X106681812Y-69437018D01*
X106681813Y-69437018D01*
X106650456Y-69428616D01*
X106541799Y-69399501D01*
X106396849Y-69399501D01*
X106288192Y-69428616D01*
X106256835Y-69437018D01*
X106131312Y-69509489D01*
X106131306Y-69509494D01*
X106028817Y-69611983D01*
X106028812Y-69611989D01*
X105956341Y-69737512D01*
X105956340Y-69737516D01*
X105918824Y-69877526D01*
X105282651Y-69877526D01*
X105212488Y-69837017D01*
X105212489Y-69837017D01*
X105201006Y-69833940D01*
X105072475Y-69799500D01*
X104927525Y-69799500D01*
X104798993Y-69833940D01*
X104787511Y-69837017D01*
X104661988Y-69909488D01*
X104661982Y-69909493D01*
X104559493Y-70011982D01*
X104559488Y-70011988D01*
X104487017Y-70137511D01*
X104487016Y-70137515D01*
X104449500Y-70277525D01*
X104025433Y-70277525D01*
X104062984Y-70212485D01*
X104100500Y-70072475D01*
X104100500Y-69962050D01*
X104120185Y-69895011D01*
X104172989Y-69849256D01*
X104192399Y-69842277D01*
X104289007Y-69816392D01*
X104403135Y-69750500D01*
X104925797Y-69227838D01*
X104991689Y-69113710D01*
X105006079Y-69060000D01*
X105018462Y-69030106D01*
X105038281Y-68995781D01*
X105075797Y-68855771D01*
X105075797Y-68710821D01*
X105038281Y-68570811D01*
X105012229Y-68525687D01*
X107647662Y-68525687D01*
X107647662Y-68670637D01*
X107685178Y-68810647D01*
X107685179Y-68810650D01*
X107757650Y-68936173D01*
X107757652Y-68936175D01*
X107757653Y-68936177D01*
X107860147Y-69038671D01*
X107860148Y-69038672D01*
X107860150Y-69038673D01*
X107985673Y-69111144D01*
X107985674Y-69111144D01*
X107985677Y-69111146D01*
X108125687Y-69148662D01*
X108125690Y-69148662D01*
X108270634Y-69148662D01*
X108270637Y-69148662D01*
X108410647Y-69111146D01*
X108536177Y-69038671D01*
X108638671Y-68936177D01*
X108711146Y-68810647D01*
X108748662Y-68670637D01*
X108748662Y-68525687D01*
X108711146Y-68385677D01*
X108705524Y-68375940D01*
X108638673Y-68260150D01*
X108638668Y-68260144D01*
X108536179Y-68157655D01*
X108536173Y-68157650D01*
X108410650Y-68085179D01*
X108410651Y-68085179D01*
X108399168Y-68082102D01*
X108270637Y-68047662D01*
X108125687Y-68047662D01*
X107997155Y-68082102D01*
X107985673Y-68085179D01*
X107860150Y-68157650D01*
X107860144Y-68157655D01*
X107757655Y-68260144D01*
X107757650Y-68260150D01*
X107685179Y-68385673D01*
X107685178Y-68385677D01*
X107647662Y-68525687D01*
X105012229Y-68525687D01*
X104965806Y-68445281D01*
X104863312Y-68342787D01*
X104863310Y-68342786D01*
X104863308Y-68342784D01*
X104737785Y-68270313D01*
X104737786Y-68270313D01*
X104710288Y-68262945D01*
X104597772Y-68232796D01*
X104452822Y-68232796D01*
X104376223Y-68253321D01*
X104312810Y-68270312D01*
X104305302Y-68273423D01*
X104304066Y-68270440D01*
X104250835Y-68283327D01*
X104194795Y-68266857D01*
X104062488Y-68190469D01*
X104062489Y-68190469D01*
X104021552Y-68179500D01*
X103922475Y-68152952D01*
X103777525Y-68152952D01*
X103678448Y-68179500D01*
X103637511Y-68190469D01*
X103562000Y-68234066D01*
X103494100Y-68250539D01*
X103438000Y-68234066D01*
X103362488Y-68190469D01*
X103362489Y-68190469D01*
X103321552Y-68179500D01*
X103222475Y-68152952D01*
X103077525Y-68152952D01*
X102978448Y-68179500D01*
X102937511Y-68190469D01*
X102811988Y-68262940D01*
X102811982Y-68262945D01*
X102709493Y-68365434D01*
X102709486Y-68365443D01*
X102705034Y-68373155D01*
X102686941Y-68390404D01*
X102671960Y-68410417D01*
X102662089Y-68414098D01*
X102654465Y-68421368D01*
X102629918Y-68426097D01*
X102606496Y-68434834D01*
X102596201Y-68432594D01*
X102585857Y-68434588D01*
X102562649Y-68425295D01*
X102538223Y-68419982D01*
X102525395Y-68410379D01*
X102520994Y-68408617D01*
X102509969Y-68398831D01*
X102368327Y-68257189D01*
X102341445Y-68216955D01*
X102338403Y-68209611D01*
X102338403Y-68209610D01*
X102265928Y-68084080D01*
X102163434Y-67981586D01*
X102163432Y-67981585D01*
X102163430Y-67981583D01*
X102037907Y-67909112D01*
X102037908Y-67909112D01*
X102026425Y-67906035D01*
X101897894Y-67871595D01*
X101752944Y-67871595D01*
X101624412Y-67906035D01*
X101612930Y-67909112D01*
X101487407Y-67981583D01*
X101487401Y-67981588D01*
X101384912Y-68084077D01*
X101384907Y-68084083D01*
X101312436Y-68209606D01*
X101312434Y-68209611D01*
X101291359Y-68288261D01*
X101254994Y-68347921D01*
X101203680Y-68375940D01*
X101125030Y-68397015D01*
X101125025Y-68397017D01*
X100999502Y-68469488D01*
X100999496Y-68469493D01*
X100897007Y-68571982D01*
X100897002Y-68571988D01*
X100824531Y-68697511D01*
X100824530Y-68697515D01*
X100787014Y-68837525D01*
X100787014Y-68982475D01*
X100816618Y-69092956D01*
X100814955Y-69162806D01*
X100775793Y-69220669D01*
X100758844Y-69232437D01*
X100711985Y-69259491D01*
X100711982Y-69259493D01*
X100609493Y-69361982D01*
X100609489Y-69361988D01*
X100579942Y-69413163D01*
X100559789Y-69432378D01*
X100542059Y-69453852D01*
X100534850Y-69456156D01*
X100529374Y-69461378D01*
X100502032Y-69466646D01*
X100475507Y-69475126D01*
X100464722Y-69473836D01*
X100460767Y-69474599D01*
X100440462Y-69470936D01*
X100424452Y-69466646D01*
X100379394Y-69454572D01*
X100319735Y-69418208D01*
X100291714Y-69366892D01*
X100290399Y-69361985D01*
X100274557Y-69302861D01*
X100274556Y-69302860D01*
X100274556Y-69302858D01*
X100274555Y-69302857D01*
X100202084Y-69177334D01*
X100202079Y-69177328D01*
X100099590Y-69074839D01*
X100099584Y-69074834D01*
X99974061Y-69002363D01*
X99974062Y-69002363D01*
X99962579Y-68999286D01*
X99834048Y-68964846D01*
X99689098Y-68964846D01*
X99560566Y-68999286D01*
X99549084Y-69002363D01*
X99423561Y-69074834D01*
X99423555Y-69074839D01*
X99321066Y-69177328D01*
X99321061Y-69177334D01*
X99248590Y-69302857D01*
X99248589Y-69302861D01*
X99211073Y-69442871D01*
X96123736Y-69442871D01*
X96100671Y-69434414D01*
X96058488Y-69378715D01*
X96050426Y-69334734D01*
X96050426Y-69267537D01*
X96050426Y-69267535D01*
X96012910Y-69127525D01*
X95972285Y-69057161D01*
X95955813Y-68989262D01*
X95972285Y-68933163D01*
X96013087Y-68862493D01*
X96050603Y-68722483D01*
X96050603Y-68577533D01*
X96013087Y-68437523D01*
X95972019Y-68366392D01*
X95955547Y-68298494D01*
X95972019Y-68242393D01*
X96012378Y-68172491D01*
X96049894Y-68032481D01*
X96049894Y-67887531D01*
X96047213Y-67877525D01*
X96900500Y-67877525D01*
X96900500Y-68022475D01*
X96936721Y-68157653D01*
X96938017Y-68162488D01*
X97010488Y-68288011D01*
X97010490Y-68288013D01*
X97010491Y-68288015D01*
X97112985Y-68390509D01*
X97112986Y-68390510D01*
X97112988Y-68390511D01*
X97238511Y-68462982D01*
X97238512Y-68462982D01*
X97238515Y-68462984D01*
X97378525Y-68500500D01*
X97378528Y-68500500D01*
X97523472Y-68500500D01*
X97523475Y-68500500D01*
X97663485Y-68462984D01*
X97789015Y-68390509D01*
X97891509Y-68288015D01*
X97963984Y-68162485D01*
X98001500Y-68022475D01*
X98001500Y-67877525D01*
X97963984Y-67737515D01*
X97905677Y-67636525D01*
X105334640Y-67636525D01*
X105334640Y-67781475D01*
X105368841Y-67909112D01*
X105372157Y-67921488D01*
X105444628Y-68047011D01*
X105444630Y-68047013D01*
X105444631Y-68047015D01*
X105547125Y-68149509D01*
X105547126Y-68149510D01*
X105547128Y-68149511D01*
X105672651Y-68221982D01*
X105672652Y-68221982D01*
X105672655Y-68221984D01*
X105812665Y-68259500D01*
X105812668Y-68259500D01*
X105957612Y-68259500D01*
X105957615Y-68259500D01*
X106097625Y-68221984D01*
X106223155Y-68149509D01*
X106325649Y-68047015D01*
X106398124Y-67921485D01*
X106435640Y-67781475D01*
X106435640Y-67636525D01*
X106398124Y-67496515D01*
X106392640Y-67487017D01*
X106325651Y-67370988D01*
X106325646Y-67370982D01*
X106223157Y-67268493D01*
X106223151Y-67268488D01*
X106097628Y-67196017D01*
X106097629Y-67196017D01*
X106086146Y-67192940D01*
X105957615Y-67158500D01*
X105812665Y-67158500D01*
X105684133Y-67192940D01*
X105672651Y-67196017D01*
X105547128Y-67268488D01*
X105547122Y-67268493D01*
X105444633Y-67370982D01*
X105444628Y-67370988D01*
X105372157Y-67496511D01*
X105367723Y-67513055D01*
X105334640Y-67636525D01*
X97905677Y-67636525D01*
X97891509Y-67611985D01*
X97789015Y-67509491D01*
X97789013Y-67509490D01*
X97789011Y-67509488D01*
X97663488Y-67437017D01*
X97663489Y-67437017D01*
X97652006Y-67433940D01*
X97523475Y-67399500D01*
X97378525Y-67399500D01*
X97249993Y-67433940D01*
X97238511Y-67437017D01*
X97112988Y-67509488D01*
X97112982Y-67509493D01*
X97010493Y-67611982D01*
X97010488Y-67611988D01*
X96938017Y-67737511D01*
X96938016Y-67737515D01*
X96900500Y-67877525D01*
X96047213Y-67877525D01*
X96012378Y-67747521D01*
X95975159Y-67683056D01*
X95958687Y-67615159D01*
X95975159Y-67559059D01*
X96019348Y-67482524D01*
X96056864Y-67342514D01*
X96056864Y-67197564D01*
X96019348Y-67057554D01*
X96001620Y-67026849D01*
X95946875Y-66932027D01*
X95946870Y-66932021D01*
X95844381Y-66829532D01*
X95844375Y-66829527D01*
X95718852Y-66757056D01*
X95718853Y-66757056D01*
X95707370Y-66753979D01*
X95578839Y-66719539D01*
X95433889Y-66719539D01*
X95305357Y-66753979D01*
X95293875Y-66757056D01*
X95168352Y-66829527D01*
X95168346Y-66829532D01*
X95065857Y-66932021D01*
X95065852Y-66932027D01*
X94993381Y-67057550D01*
X94993380Y-67057554D01*
X94955864Y-67197564D01*
X94955864Y-67342514D01*
X94993380Y-67482524D01*
X95008951Y-67509493D01*
X95030597Y-67546985D01*
X95047070Y-67614886D01*
X95030597Y-67670986D01*
X94986411Y-67747517D01*
X94986410Y-67747521D01*
X94948894Y-67887531D01*
X94948894Y-67887533D01*
X94948894Y-68032480D01*
X94950496Y-68038459D01*
X94948831Y-68108308D01*
X94909667Y-68166170D01*
X94845438Y-68193672D01*
X94830032Y-68194041D01*
X94830032Y-68194500D01*
X93915711Y-68194500D01*
X93877638Y-68196881D01*
X93877634Y-68196881D01*
X93846980Y-68200732D01*
X93834604Y-68202543D01*
X93834600Y-68202544D01*
X93729162Y-68241115D01*
X93726528Y-68242366D01*
X93725145Y-68242585D01*
X93723777Y-68243086D01*
X93723679Y-68242818D01*
X93657522Y-68253321D01*
X93593548Y-68225231D01*
X93554916Y-68167012D01*
X93553595Y-68098243D01*
X93560500Y-68072475D01*
X93560500Y-67927525D01*
X93522984Y-67787515D01*
X93515888Y-67775225D01*
X93450511Y-67661988D01*
X93450506Y-67661982D01*
X93348017Y-67559493D01*
X93348011Y-67559488D01*
X93222488Y-67487017D01*
X93222489Y-67487017D01*
X93205728Y-67482526D01*
X93083492Y-67449772D01*
X93023835Y-67413409D01*
X92995815Y-67362094D01*
X92986505Y-67327348D01*
X92914030Y-67201818D01*
X92811536Y-67099324D01*
X92811534Y-67099323D01*
X92811532Y-67099321D01*
X92686009Y-67026850D01*
X92686010Y-67026850D01*
X92674527Y-67023773D01*
X92545996Y-66989333D01*
X92401046Y-66989333D01*
X92272514Y-67023773D01*
X92261032Y-67026850D01*
X92191500Y-67066995D01*
X92123600Y-67083468D01*
X92057573Y-67060615D01*
X92014382Y-67005694D01*
X92005500Y-66959608D01*
X92005500Y-66027525D01*
X96199500Y-66027525D01*
X96199500Y-66172475D01*
X96230460Y-66288017D01*
X96237017Y-66312488D01*
X96309488Y-66438011D01*
X96309490Y-66438013D01*
X96309491Y-66438015D01*
X96411985Y-66540509D01*
X96411986Y-66540510D01*
X96411988Y-66540511D01*
X96537511Y-66612982D01*
X96537512Y-66612982D01*
X96537515Y-66612984D01*
X96677525Y-66650500D01*
X96677528Y-66650500D01*
X96822472Y-66650500D01*
X96822475Y-66650500D01*
X96962485Y-66612984D01*
X97088015Y-66540509D01*
X97190509Y-66438015D01*
X97262984Y-66312485D01*
X97300500Y-66172475D01*
X97300500Y-66027525D01*
X97262984Y-65887515D01*
X97257217Y-65877527D01*
X97190511Y-65761988D01*
X97190506Y-65761982D01*
X97088017Y-65659493D01*
X97088011Y-65659488D01*
X96962488Y-65587017D01*
X96962489Y-65587017D01*
X96951006Y-65583940D01*
X96822475Y-65549500D01*
X96677525Y-65549500D01*
X96548993Y-65583940D01*
X96537511Y-65587017D01*
X96411988Y-65659488D01*
X96411982Y-65659493D01*
X96309493Y-65761982D01*
X96309488Y-65761988D01*
X96237017Y-65887511D01*
X96237016Y-65887515D01*
X96199500Y-66027525D01*
X92005500Y-66027525D01*
X92005500Y-66022891D01*
X92005500Y-65941045D01*
X92004441Y-65915624D01*
X92002724Y-65895061D01*
X91997139Y-65874706D01*
X91996399Y-65861575D01*
X92001468Y-65839847D01*
X92001866Y-65817543D01*
X92009253Y-65806484D01*
X92012276Y-65793533D01*
X92028285Y-65777997D01*
X92040680Y-65759446D01*
X92058197Y-65747206D01*
X92088142Y-65729918D01*
X92190636Y-65627424D01*
X92263111Y-65501894D01*
X92300627Y-65361884D01*
X92300627Y-65216934D01*
X92263111Y-65076924D01*
X92243066Y-65042206D01*
X92225907Y-65012485D01*
X92190636Y-64951394D01*
X92116767Y-64877525D01*
X92999500Y-64877525D01*
X92999500Y-65022475D01*
X93034688Y-65153796D01*
X93037017Y-65162488D01*
X93109488Y-65288011D01*
X93109490Y-65288013D01*
X93109491Y-65288015D01*
X93211985Y-65390509D01*
X93211986Y-65390510D01*
X93211988Y-65390511D01*
X93337511Y-65462982D01*
X93337512Y-65462982D01*
X93337515Y-65462984D01*
X93477525Y-65500500D01*
X93477528Y-65500500D01*
X93622472Y-65500500D01*
X93622475Y-65500500D01*
X93762485Y-65462984D01*
X93888015Y-65390509D01*
X93990509Y-65288015D01*
X94062984Y-65162485D01*
X94100500Y-65022475D01*
X94100500Y-64877525D01*
X94999500Y-64877525D01*
X94999500Y-65022475D01*
X95034688Y-65153796D01*
X95037017Y-65162488D01*
X95109488Y-65288011D01*
X95109490Y-65288013D01*
X95109491Y-65288015D01*
X95211985Y-65390509D01*
X95211986Y-65390510D01*
X95211988Y-65390511D01*
X95337511Y-65462982D01*
X95337512Y-65462982D01*
X95337515Y-65462984D01*
X95477525Y-65500500D01*
X95477528Y-65500500D01*
X95622472Y-65500500D01*
X95622475Y-65500500D01*
X95762485Y-65462984D01*
X95888015Y-65390509D01*
X95990509Y-65288015D01*
X96062984Y-65162485D01*
X96100500Y-65022475D01*
X96100500Y-64877525D01*
X96062984Y-64737515D01*
X96057217Y-64727527D01*
X95990511Y-64611988D01*
X95990506Y-64611982D01*
X95888017Y-64509493D01*
X95888011Y-64509488D01*
X95762488Y-64437017D01*
X95762489Y-64437017D01*
X95751006Y-64433940D01*
X95622475Y-64399500D01*
X95477525Y-64399500D01*
X95348993Y-64433940D01*
X95337511Y-64437017D01*
X95211988Y-64509488D01*
X95211982Y-64509493D01*
X95109493Y-64611982D01*
X95109488Y-64611988D01*
X95037017Y-64737511D01*
X95037016Y-64737515D01*
X94999500Y-64877525D01*
X94100500Y-64877525D01*
X94062984Y-64737515D01*
X94057217Y-64727527D01*
X93990511Y-64611988D01*
X93990506Y-64611982D01*
X93888017Y-64509493D01*
X93888011Y-64509488D01*
X93762488Y-64437017D01*
X93762489Y-64437017D01*
X93751006Y-64433940D01*
X93622475Y-64399500D01*
X93477525Y-64399500D01*
X93348993Y-64433940D01*
X93337511Y-64437017D01*
X93211988Y-64509488D01*
X93211982Y-64509493D01*
X93109493Y-64611982D01*
X93109488Y-64611988D01*
X93037017Y-64737511D01*
X93037016Y-64737515D01*
X92999500Y-64877525D01*
X92116767Y-64877525D01*
X92088142Y-64848900D01*
X92045724Y-64824409D01*
X92036408Y-64816183D01*
X92024149Y-64796709D01*
X92008270Y-64780055D01*
X92005889Y-64767701D01*
X91999186Y-64757053D01*
X91999402Y-64734040D01*
X91995048Y-64711448D01*
X91995742Y-64705632D01*
X92005500Y-64637772D01*
X92005500Y-63877525D01*
X93999500Y-63877525D01*
X93999500Y-64022475D01*
X94037016Y-64162485D01*
X94037017Y-64162488D01*
X94109488Y-64288011D01*
X94109490Y-64288013D01*
X94109491Y-64288015D01*
X94211985Y-64390509D01*
X94211986Y-64390510D01*
X94211988Y-64390511D01*
X94337511Y-64462982D01*
X94337512Y-64462982D01*
X94337515Y-64462984D01*
X94477525Y-64500500D01*
X94477528Y-64500500D01*
X94622472Y-64500500D01*
X94622475Y-64500500D01*
X94762485Y-64462984D01*
X94888015Y-64390509D01*
X94990509Y-64288015D01*
X95062984Y-64162485D01*
X95100500Y-64022475D01*
X95100500Y-63877525D01*
X95062984Y-63737515D01*
X95056126Y-63725637D01*
X94990511Y-63611988D01*
X94990506Y-63611982D01*
X94888017Y-63509493D01*
X94888011Y-63509488D01*
X94762488Y-63437017D01*
X94762489Y-63437017D01*
X94739003Y-63430724D01*
X94622475Y-63399500D01*
X94477525Y-63399500D01*
X94360997Y-63430724D01*
X94337511Y-63437017D01*
X94211988Y-63509488D01*
X94211982Y-63509493D01*
X94109493Y-63611982D01*
X94109488Y-63611988D01*
X94037017Y-63737511D01*
X94037016Y-63737515D01*
X93999500Y-63877525D01*
X92005500Y-63877525D01*
X92005500Y-62877525D01*
X92999500Y-62877525D01*
X92999500Y-63022475D01*
X93032514Y-63145683D01*
X93037017Y-63162488D01*
X93109488Y-63288011D01*
X93109490Y-63288013D01*
X93109491Y-63288015D01*
X93211985Y-63390509D01*
X93211986Y-63390510D01*
X93211988Y-63390511D01*
X93337511Y-63462982D01*
X93337512Y-63462982D01*
X93337515Y-63462984D01*
X93477525Y-63500500D01*
X93477528Y-63500500D01*
X93622472Y-63500500D01*
X93622475Y-63500500D01*
X93762485Y-63462984D01*
X93888015Y-63390509D01*
X93990509Y-63288015D01*
X94062984Y-63162485D01*
X94100500Y-63022475D01*
X94100500Y-62877525D01*
X94062984Y-62737515D01*
X94051246Y-62717185D01*
X93990511Y-62611988D01*
X93990506Y-62611982D01*
X93888017Y-62509493D01*
X93888011Y-62509488D01*
X93762488Y-62437017D01*
X93762489Y-62437017D01*
X93741944Y-62431512D01*
X93622475Y-62399500D01*
X93477525Y-62399500D01*
X93358056Y-62431512D01*
X93337511Y-62437017D01*
X93211988Y-62509488D01*
X93211982Y-62509493D01*
X93109493Y-62611982D01*
X93109488Y-62611988D01*
X93037017Y-62737511D01*
X93037016Y-62737515D01*
X92999500Y-62877525D01*
X92005500Y-62877525D01*
X92005500Y-61824000D01*
X91998518Y-61759059D01*
X91987312Y-61707548D01*
X91976354Y-61669342D01*
X91919675Y-61572429D01*
X91873920Y-61519625D01*
X91873918Y-61519623D01*
X91873908Y-61519612D01*
X91829192Y-61477451D01*
X91829189Y-61477449D01*
X91829187Y-61477447D01*
X91729111Y-61426561D01*
X91729110Y-61426560D01*
X91729109Y-61426560D01*
X91662078Y-61406877D01*
X91662072Y-61406876D01*
X91576000Y-61394500D01*
X90801362Y-61394500D01*
X90801361Y-61394500D01*
X90768718Y-61396250D01*
X90768709Y-61396250D01*
X90768703Y-61396251D01*
X90768698Y-61396251D01*
X90768665Y-61396254D01*
X90742374Y-61399081D01*
X90735339Y-61399920D01*
X90735337Y-61399920D01*
X90628598Y-61434700D01*
X90628588Y-61434704D01*
X90567266Y-61468189D01*
X90497670Y-61520289D01*
X90497649Y-61520307D01*
X87970311Y-64047646D01*
X87970295Y-64047663D01*
X87948440Y-64071993D01*
X87931775Y-64092674D01*
X87927448Y-64098172D01*
X87927447Y-64098174D01*
X87876560Y-64198252D01*
X87856877Y-64265283D01*
X87856876Y-64265290D01*
X87853170Y-64291068D01*
X87844500Y-64351364D01*
X87844500Y-65733705D01*
X87845041Y-65751888D01*
X87845917Y-65766587D01*
X87845917Y-65766590D01*
X87845918Y-65766593D01*
X87857958Y-65817543D01*
X87870042Y-65868682D01*
X87897540Y-65932900D01*
X87897546Y-65932913D01*
X87916265Y-65966742D01*
X87931499Y-66034930D01*
X87915155Y-66088775D01*
X87840423Y-66218215D01*
X87840423Y-66218216D01*
X87799500Y-66370943D01*
X87799500Y-66529057D01*
X87832041Y-66650500D01*
X87840423Y-66681783D01*
X87840423Y-66681784D01*
X87915607Y-66812008D01*
X87932079Y-66879908D01*
X87918751Y-66930209D01*
X87876560Y-67013185D01*
X87856877Y-67080216D01*
X87844500Y-67166297D01*
X87844500Y-68055500D01*
X87824815Y-68122539D01*
X87772011Y-68168294D01*
X87720500Y-68179500D01*
X87238655Y-68179500D01*
X87084010Y-68210261D01*
X87083998Y-68210264D01*
X86938327Y-68270602D01*
X86938309Y-68270612D01*
X86843390Y-68334035D01*
X86776713Y-68354913D01*
X86709333Y-68336428D01*
X86662643Y-68284449D01*
X86650500Y-68230933D01*
X86650500Y-58520943D01*
X87289503Y-58520943D01*
X87289503Y-58679057D01*
X87315888Y-58777525D01*
X87330426Y-58831783D01*
X87330429Y-58831790D01*
X87409478Y-58968709D01*
X87409482Y-58968714D01*
X87409483Y-58968716D01*
X87521287Y-59080520D01*
X87521289Y-59080521D01*
X87521293Y-59080524D01*
X87646389Y-59152747D01*
X87658219Y-59159577D01*
X87810946Y-59200500D01*
X87810948Y-59200500D01*
X87969058Y-59200500D01*
X87969060Y-59200500D01*
X88121787Y-59159577D01*
X88258719Y-59080520D01*
X88370523Y-58968716D01*
X88449580Y-58831784D01*
X88490503Y-58679057D01*
X88490503Y-58520943D01*
X88449580Y-58368216D01*
X88440183Y-58351939D01*
X88370527Y-58231290D01*
X88370521Y-58231282D01*
X88258720Y-58119481D01*
X88258712Y-58119475D01*
X88121793Y-58040426D01*
X88121789Y-58040424D01*
X88121787Y-58040423D01*
X87969060Y-57999500D01*
X87810946Y-57999500D01*
X87658219Y-58040423D01*
X87658212Y-58040426D01*
X87521293Y-58119475D01*
X87521285Y-58119481D01*
X87409484Y-58231282D01*
X87409478Y-58231290D01*
X87330429Y-58368209D01*
X87330426Y-58368216D01*
X87289503Y-58520943D01*
X86650500Y-58520943D01*
X86650500Y-57120943D01*
X88049500Y-57120943D01*
X88049500Y-57279057D01*
X88060724Y-57320943D01*
X88090423Y-57431783D01*
X88090426Y-57431790D01*
X88169475Y-57568709D01*
X88169479Y-57568714D01*
X88169480Y-57568716D01*
X88281284Y-57680520D01*
X88281286Y-57680521D01*
X88281290Y-57680524D01*
X88378948Y-57736906D01*
X88418216Y-57759577D01*
X88570943Y-57800500D01*
X88570945Y-57800500D01*
X88729055Y-57800500D01*
X88729057Y-57800500D01*
X88881784Y-57759577D01*
X89018716Y-57680520D01*
X89130520Y-57568716D01*
X89209577Y-57431784D01*
X89239277Y-57320943D01*
X95509213Y-57320943D01*
X95509213Y-57479057D01*
X95533238Y-57568717D01*
X95550136Y-57631783D01*
X95550139Y-57631790D01*
X95629188Y-57768709D01*
X95629192Y-57768714D01*
X95629193Y-57768716D01*
X95740997Y-57880520D01*
X95740999Y-57880521D01*
X95741003Y-57880524D01*
X95873883Y-57957241D01*
X95877929Y-57959577D01*
X96030656Y-58000500D01*
X96030658Y-58000500D01*
X96188768Y-58000500D01*
X96188770Y-58000500D01*
X96341497Y-57959577D01*
X96344387Y-57957908D01*
X96347134Y-57957241D01*
X96349007Y-57956466D01*
X96349127Y-57956757D01*
X96412283Y-57941433D01*
X96478311Y-57964281D01*
X96521505Y-58019200D01*
X96528150Y-58088753D01*
X96496138Y-58150858D01*
X96494072Y-58152974D01*
X96429233Y-58217813D01*
X96382071Y-58299500D01*
X96376506Y-58309138D01*
X96358274Y-58377182D01*
X96358274Y-58377183D01*
X96358273Y-58377182D01*
X96349213Y-58410997D01*
X96349213Y-59344590D01*
X96329528Y-59411629D01*
X96312894Y-59432271D01*
X96309206Y-59435958D01*
X96309201Y-59435964D01*
X96236730Y-59561487D01*
X96236729Y-59561491D01*
X96199213Y-59701501D01*
X96199213Y-59846451D01*
X96236729Y-59986461D01*
X96278744Y-60059233D01*
X96295217Y-60127132D01*
X96278744Y-60183233D01*
X96239338Y-60251485D01*
X96239337Y-60251489D01*
X96201821Y-60391499D01*
X96201821Y-60536449D01*
X96239337Y-60676459D01*
X96269339Y-60728423D01*
X96275729Y-60739491D01*
X96292202Y-60807392D01*
X96275729Y-60863492D01*
X96230728Y-60941434D01*
X96230727Y-60941438D01*
X96193211Y-61081448D01*
X96193211Y-61226398D01*
X96221192Y-61330823D01*
X96230728Y-61366411D01*
X96293547Y-61475216D01*
X96310020Y-61543116D01*
X96293548Y-61599214D01*
X96275796Y-61629962D01*
X96275794Y-61629965D01*
X96257036Y-61699972D01*
X96238278Y-61769977D01*
X96238278Y-61914927D01*
X96275037Y-62052111D01*
X96275795Y-62054940D01*
X96348266Y-62180463D01*
X96348271Y-62180469D01*
X96351959Y-62184157D01*
X96385444Y-62245480D01*
X96388278Y-62271838D01*
X96388278Y-63442452D01*
X96415571Y-63544315D01*
X96417025Y-63546833D01*
X96468298Y-63635639D01*
X96959571Y-64126912D01*
X96959572Y-64126913D01*
X97034139Y-64201480D01*
X97125465Y-64254207D01*
X97227325Y-64281500D01*
X97227327Y-64281500D01*
X97767056Y-64281500D01*
X97834095Y-64301185D01*
X97879850Y-64353989D01*
X97889794Y-64423147D01*
X97860769Y-64486703D01*
X97829056Y-64512887D01*
X97765663Y-64549487D01*
X97765657Y-64549491D01*
X97663168Y-64651980D01*
X97663163Y-64651986D01*
X97590692Y-64777509D01*
X97590691Y-64777513D01*
X97553175Y-64917523D01*
X97553175Y-65062473D01*
X97586588Y-65187170D01*
X97590692Y-65202486D01*
X97663163Y-65328009D01*
X97663165Y-65328011D01*
X97663166Y-65328013D01*
X97765660Y-65430507D01*
X97765661Y-65430508D01*
X97765663Y-65430509D01*
X97891186Y-65502980D01*
X97891187Y-65502980D01*
X97891190Y-65502982D01*
X98031200Y-65540498D01*
X98031203Y-65540498D01*
X98085989Y-65540498D01*
X98153028Y-65560183D01*
X98198783Y-65612987D01*
X98208727Y-65682145D01*
X98193376Y-65726498D01*
X98187017Y-65737511D01*
X98187016Y-65737515D01*
X98149500Y-65877525D01*
X98149500Y-66022475D01*
X98177876Y-66128373D01*
X98187017Y-66162488D01*
X98259488Y-66288011D01*
X98259490Y-66288013D01*
X98259491Y-66288015D01*
X98361985Y-66390509D01*
X98361986Y-66390510D01*
X98361988Y-66390511D01*
X98487511Y-66462982D01*
X98487512Y-66462982D01*
X98487515Y-66462984D01*
X98627525Y-66500500D01*
X98627528Y-66500500D01*
X98772472Y-66500500D01*
X98772475Y-66500500D01*
X98912485Y-66462984D01*
X99038015Y-66390509D01*
X99140509Y-66288015D01*
X99212984Y-66162485D01*
X99249147Y-66027525D01*
X107299500Y-66027525D01*
X107299500Y-66172475D01*
X107330460Y-66288017D01*
X107337017Y-66312488D01*
X107409488Y-66438011D01*
X107409490Y-66438013D01*
X107409491Y-66438015D01*
X107511985Y-66540509D01*
X107511986Y-66540510D01*
X107511988Y-66540511D01*
X107637511Y-66612982D01*
X107637512Y-66612982D01*
X107637515Y-66612984D01*
X107777525Y-66650500D01*
X107777528Y-66650500D01*
X107922472Y-66650500D01*
X107922475Y-66650500D01*
X108062485Y-66612984D01*
X108188015Y-66540509D01*
X108290509Y-66438015D01*
X108362984Y-66312485D01*
X108400500Y-66172475D01*
X108400500Y-66027525D01*
X108362984Y-65887515D01*
X108357217Y-65877527D01*
X108356560Y-65876389D01*
X109069200Y-65876389D01*
X109069200Y-66003610D01*
X109094015Y-66128365D01*
X109094018Y-66128375D01*
X109142697Y-66245898D01*
X109142702Y-66245907D01*
X109213373Y-66351673D01*
X109213376Y-66351677D01*
X109303322Y-66441623D01*
X109303326Y-66441626D01*
X109409092Y-66512297D01*
X109409098Y-66512300D01*
X109409099Y-66512301D01*
X109526627Y-66560983D01*
X109651389Y-66585799D01*
X109651393Y-66585800D01*
X109651394Y-66585800D01*
X109778607Y-66585800D01*
X109778608Y-66585799D01*
X109903373Y-66560983D01*
X110020901Y-66512301D01*
X110126674Y-66441626D01*
X110216626Y-66351674D01*
X110287301Y-66245901D01*
X110335983Y-66128373D01*
X110360800Y-66003606D01*
X110360800Y-65876394D01*
X110335983Y-65751627D01*
X110287301Y-65634099D01*
X110287300Y-65634098D01*
X110287297Y-65634092D01*
X110216626Y-65528326D01*
X110216623Y-65528322D01*
X110126677Y-65438376D01*
X110126673Y-65438373D01*
X110020907Y-65367702D01*
X110020898Y-65367697D01*
X109903375Y-65319018D01*
X109903376Y-65319018D01*
X109903373Y-65319017D01*
X109903369Y-65319016D01*
X109903365Y-65319015D01*
X109778610Y-65294200D01*
X109778606Y-65294200D01*
X109651394Y-65294200D01*
X109651389Y-65294200D01*
X109526634Y-65319015D01*
X109526624Y-65319018D01*
X109409101Y-65367697D01*
X109409092Y-65367702D01*
X109303326Y-65438373D01*
X109303322Y-65438376D01*
X109213376Y-65528322D01*
X109213373Y-65528326D01*
X109142702Y-65634092D01*
X109142697Y-65634101D01*
X109094018Y-65751624D01*
X109094015Y-65751634D01*
X109069200Y-65876389D01*
X108356560Y-65876389D01*
X108290511Y-65761988D01*
X108290506Y-65761982D01*
X108188017Y-65659493D01*
X108188011Y-65659488D01*
X108062488Y-65587017D01*
X108062489Y-65587017D01*
X108051006Y-65583940D01*
X107922475Y-65549500D01*
X107777525Y-65549500D01*
X107648993Y-65583940D01*
X107637511Y-65587017D01*
X107511988Y-65659488D01*
X107511982Y-65659493D01*
X107409493Y-65761982D01*
X107409488Y-65761988D01*
X107337017Y-65887511D01*
X107337016Y-65887515D01*
X107299500Y-66027525D01*
X99249147Y-66027525D01*
X99250500Y-66022475D01*
X99250500Y-65877525D01*
X99212984Y-65737515D01*
X99210784Y-65733705D01*
X99140511Y-65611988D01*
X99140506Y-65611982D01*
X99038017Y-65509493D01*
X99038011Y-65509488D01*
X98912488Y-65437017D01*
X98912489Y-65437017D01*
X98888182Y-65430504D01*
X98772475Y-65399500D01*
X98717686Y-65399500D01*
X98650647Y-65379815D01*
X98604892Y-65327011D01*
X98594948Y-65257853D01*
X98610299Y-65213500D01*
X98616657Y-65202486D01*
X98616656Y-65202486D01*
X98616659Y-65202483D01*
X98654175Y-65062473D01*
X98654175Y-65005672D01*
X98662020Y-64978954D01*
X98666638Y-64951492D01*
X98671728Y-64945892D01*
X98673860Y-64938633D01*
X98694903Y-64920398D01*
X98713636Y-64899792D01*
X98723618Y-64895517D01*
X98726664Y-64892878D01*
X98746080Y-64885898D01*
X98752577Y-64884157D01*
X98752579Y-64884157D01*
X98777590Y-64877455D01*
X98847438Y-64879116D01*
X98905301Y-64918278D01*
X98917068Y-64935225D01*
X98917647Y-64936227D01*
X98920582Y-64941311D01*
X99023076Y-65043805D01*
X99023077Y-65043806D01*
X99023079Y-65043807D01*
X99148602Y-65116278D01*
X99148603Y-65116278D01*
X99148606Y-65116280D01*
X99288616Y-65153796D01*
X99288619Y-65153796D01*
X99433563Y-65153796D01*
X99433566Y-65153796D01*
X99573576Y-65116280D01*
X99699106Y-65043805D01*
X99801600Y-64941311D01*
X99874075Y-64815781D01*
X99885429Y-64773404D01*
X99921795Y-64713746D01*
X99984642Y-64683217D01*
X100005204Y-64681500D01*
X100082779Y-64681500D01*
X100317434Y-64681500D01*
X100384473Y-64701185D01*
X100430228Y-64753989D01*
X100437206Y-64773400D01*
X100447680Y-64812488D01*
X100448135Y-64814185D01*
X100520606Y-64939708D01*
X100520608Y-64939710D01*
X100520609Y-64939712D01*
X100623103Y-65042206D01*
X100623104Y-65042207D01*
X100623106Y-65042208D01*
X100748629Y-65114679D01*
X100748630Y-65114679D01*
X100748633Y-65114681D01*
X100888643Y-65152197D01*
X100888646Y-65152197D01*
X101033590Y-65152197D01*
X101033593Y-65152197D01*
X101173603Y-65114681D01*
X101299133Y-65042206D01*
X101401627Y-64939712D01*
X101474102Y-64814182D01*
X101511618Y-64674172D01*
X101511618Y-64529222D01*
X101474102Y-64389212D01*
X101473122Y-64387515D01*
X101401629Y-64263685D01*
X101401624Y-64263679D01*
X101315323Y-64177378D01*
X101310984Y-64169431D01*
X101303735Y-64164005D01*
X101294501Y-64139246D01*
X101281838Y-64116055D01*
X101282483Y-64107022D01*
X101279320Y-64098539D01*
X101284936Y-64072722D01*
X101286822Y-64046363D01*
X101292642Y-64037306D01*
X101294174Y-64030267D01*
X101315317Y-64002023D01*
X101349525Y-63967815D01*
X101410848Y-63934333D01*
X101437203Y-63931500D01*
X102155343Y-63931500D01*
X102222382Y-63951185D01*
X102268137Y-64003989D01*
X102278081Y-64073147D01*
X102249056Y-64136703D01*
X102228811Y-64153418D01*
X102229674Y-64154543D01*
X102223222Y-64159493D01*
X102120733Y-64261982D01*
X102120728Y-64261988D01*
X102048257Y-64387511D01*
X102047454Y-64390509D01*
X102010740Y-64527525D01*
X102010740Y-64672475D01*
X102047777Y-64810698D01*
X102048257Y-64812488D01*
X102120728Y-64938011D01*
X102120730Y-64938013D01*
X102120731Y-64938015D01*
X102223225Y-65040509D01*
X102223226Y-65040510D01*
X102223228Y-65040511D01*
X102348751Y-65112982D01*
X102348752Y-65112982D01*
X102348755Y-65112984D01*
X102488765Y-65150500D01*
X102488768Y-65150500D01*
X102633712Y-65150500D01*
X102633715Y-65150500D01*
X102773725Y-65112984D01*
X102899255Y-65040509D01*
X103001749Y-64938015D01*
X103074224Y-64812485D01*
X103111740Y-64672475D01*
X103111740Y-64527525D01*
X103080474Y-64410840D01*
X103082137Y-64340993D01*
X103121299Y-64283130D01*
X103185527Y-64255626D01*
X103254430Y-64267212D01*
X103287930Y-64291068D01*
X103574646Y-64577784D01*
X103608131Y-64639107D01*
X103610965Y-64665465D01*
X103610965Y-64670685D01*
X103647453Y-64806859D01*
X103648482Y-64810698D01*
X103720953Y-64936221D01*
X103720955Y-64936223D01*
X103720956Y-64936225D01*
X103823450Y-65038719D01*
X103823451Y-65038720D01*
X103823453Y-65038721D01*
X103948976Y-65111192D01*
X103948977Y-65111192D01*
X103948980Y-65111194D01*
X104088990Y-65148710D01*
X104088993Y-65148710D01*
X104233937Y-65148710D01*
X104233940Y-65148710D01*
X104373950Y-65111194D01*
X104499480Y-65038719D01*
X104601974Y-64936225D01*
X104674449Y-64810695D01*
X104711965Y-64670685D01*
X104711965Y-64525735D01*
X104711462Y-64523858D01*
X105211294Y-64523858D01*
X105211294Y-64668808D01*
X105247170Y-64802698D01*
X105248811Y-64808821D01*
X105321282Y-64934344D01*
X105321284Y-64934346D01*
X105321285Y-64934348D01*
X105423779Y-65036842D01*
X105423780Y-65036843D01*
X105423782Y-65036844D01*
X105549305Y-65109315D01*
X105549306Y-65109315D01*
X105549309Y-65109317D01*
X105689319Y-65146833D01*
X105689322Y-65146833D01*
X105834266Y-65146833D01*
X105834269Y-65146833D01*
X105974279Y-65109317D01*
X106099809Y-65036842D01*
X106202303Y-64934348D01*
X106274778Y-64808818D01*
X106312294Y-64668808D01*
X106312294Y-64523858D01*
X106311768Y-64521896D01*
X106811729Y-64521896D01*
X106811729Y-64666846D01*
X106842064Y-64780055D01*
X106849246Y-64806859D01*
X106921717Y-64932382D01*
X106921719Y-64932384D01*
X106921720Y-64932386D01*
X107024214Y-65034880D01*
X107024215Y-65034881D01*
X107024217Y-65034882D01*
X107149740Y-65107353D01*
X107149741Y-65107353D01*
X107149744Y-65107355D01*
X107289754Y-65144871D01*
X107289757Y-65144871D01*
X107434701Y-65144871D01*
X107434704Y-65144871D01*
X107574714Y-65107355D01*
X107700244Y-65034880D01*
X107802738Y-64932386D01*
X107875213Y-64806856D01*
X107912729Y-64666846D01*
X107912729Y-64521896D01*
X107912182Y-64519854D01*
X108412272Y-64519854D01*
X108412272Y-64664804D01*
X108442472Y-64777509D01*
X108449789Y-64804817D01*
X108522260Y-64930340D01*
X108522262Y-64930342D01*
X108522263Y-64930344D01*
X108624757Y-65032838D01*
X108624758Y-65032839D01*
X108624760Y-65032840D01*
X108750283Y-65105311D01*
X108750284Y-65105311D01*
X108750287Y-65105313D01*
X108890297Y-65142829D01*
X108890300Y-65142829D01*
X109035244Y-65142829D01*
X109035247Y-65142829D01*
X109175257Y-65105313D01*
X109300787Y-65032838D01*
X109403281Y-64930344D01*
X109475756Y-64804814D01*
X109513272Y-64664804D01*
X109513272Y-64519854D01*
X109512705Y-64517738D01*
X110012926Y-64517738D01*
X110012926Y-64662688D01*
X110043693Y-64777509D01*
X110050443Y-64802701D01*
X110122914Y-64928224D01*
X110122916Y-64928226D01*
X110122917Y-64928228D01*
X110225411Y-65030722D01*
X110225412Y-65030723D01*
X110225414Y-65030724D01*
X110350937Y-65103195D01*
X110350938Y-65103195D01*
X110350941Y-65103197D01*
X110490951Y-65140713D01*
X110490954Y-65140713D01*
X110635898Y-65140713D01*
X110635901Y-65140713D01*
X110775911Y-65103197D01*
X110820376Y-65077525D01*
X111649500Y-65077525D01*
X111649500Y-65222475D01*
X111675368Y-65319015D01*
X111687017Y-65362488D01*
X111759488Y-65488011D01*
X111759490Y-65488013D01*
X111759491Y-65488015D01*
X111861985Y-65590509D01*
X111861986Y-65590510D01*
X111861988Y-65590511D01*
X111987511Y-65662982D01*
X111987512Y-65662982D01*
X111987515Y-65662984D01*
X112127525Y-65700500D01*
X112127528Y-65700500D01*
X112272472Y-65700500D01*
X112272475Y-65700500D01*
X112412485Y-65662984D01*
X112538015Y-65590509D01*
X112640509Y-65488015D01*
X112712984Y-65362485D01*
X112735794Y-65277355D01*
X112772156Y-65217700D01*
X112835003Y-65187170D01*
X112904379Y-65195464D01*
X112943248Y-65221772D01*
X112961985Y-65240509D01*
X112961986Y-65240510D01*
X112961988Y-65240511D01*
X113087511Y-65312982D01*
X113087512Y-65312982D01*
X113087515Y-65312984D01*
X113227525Y-65350500D01*
X113227528Y-65350500D01*
X113372472Y-65350500D01*
X113372475Y-65350500D01*
X113512485Y-65312984D01*
X113638015Y-65240509D01*
X113740509Y-65138015D01*
X113812984Y-65012485D01*
X113850500Y-64872475D01*
X113850500Y-64727525D01*
X113812984Y-64587515D01*
X113791028Y-64549487D01*
X113740511Y-64461988D01*
X113740506Y-64461982D01*
X113638017Y-64359493D01*
X113638011Y-64359488D01*
X113512488Y-64287017D01*
X113512489Y-64287017D01*
X113491899Y-64281500D01*
X113372475Y-64249500D01*
X113227525Y-64249500D01*
X113108101Y-64281500D01*
X113087511Y-64287017D01*
X112961988Y-64359488D01*
X112961982Y-64359493D01*
X112859493Y-64461982D01*
X112859488Y-64461988D01*
X112787017Y-64587511D01*
X112787016Y-64587515D01*
X112764731Y-64670685D01*
X112764207Y-64672640D01*
X112727841Y-64732300D01*
X112664994Y-64762829D01*
X112595619Y-64754534D01*
X112556751Y-64728227D01*
X112538017Y-64709493D01*
X112538011Y-64709488D01*
X112412488Y-64637017D01*
X112412489Y-64637017D01*
X112401006Y-64633940D01*
X112272475Y-64599500D01*
X112127525Y-64599500D01*
X111998993Y-64633940D01*
X111987511Y-64637017D01*
X111861988Y-64709488D01*
X111861982Y-64709493D01*
X111759493Y-64811982D01*
X111759488Y-64811988D01*
X111687017Y-64937511D01*
X111687016Y-64937515D01*
X111649500Y-65077525D01*
X110820376Y-65077525D01*
X110901441Y-65030722D01*
X111003935Y-64928228D01*
X111076410Y-64802698D01*
X111113926Y-64662688D01*
X111113926Y-64517738D01*
X111076410Y-64377728D01*
X111062704Y-64353989D01*
X111003937Y-64252201D01*
X111003932Y-64252195D01*
X110901443Y-64149706D01*
X110901437Y-64149701D01*
X110775914Y-64077230D01*
X110775915Y-64077230D01*
X110756366Y-64071992D01*
X110635901Y-64039713D01*
X110490951Y-64039713D01*
X110370486Y-64071992D01*
X110350937Y-64077230D01*
X110225414Y-64149701D01*
X110225408Y-64149706D01*
X110122919Y-64252195D01*
X110122914Y-64252201D01*
X110050443Y-64377724D01*
X110050442Y-64377728D01*
X110012926Y-64517738D01*
X109512705Y-64517738D01*
X109475756Y-64379844D01*
X109474534Y-64377728D01*
X109403283Y-64254317D01*
X109403278Y-64254311D01*
X109300789Y-64151822D01*
X109300783Y-64151817D01*
X109175260Y-64079346D01*
X109175261Y-64079346D01*
X109147819Y-64071993D01*
X109035247Y-64041829D01*
X108890297Y-64041829D01*
X108777725Y-64071993D01*
X108750283Y-64079346D01*
X108624760Y-64151817D01*
X108624754Y-64151822D01*
X108522265Y-64254311D01*
X108522260Y-64254317D01*
X108449789Y-64379840D01*
X108447279Y-64389208D01*
X108412272Y-64519854D01*
X107912182Y-64519854D01*
X107875213Y-64381886D01*
X107872812Y-64377728D01*
X107802740Y-64256359D01*
X107802735Y-64256353D01*
X107700246Y-64153864D01*
X107700240Y-64153859D01*
X107574717Y-64081388D01*
X107574718Y-64081388D01*
X107542376Y-64072722D01*
X107434704Y-64043871D01*
X107289754Y-64043871D01*
X107182082Y-64072722D01*
X107149740Y-64081388D01*
X107024217Y-64153859D01*
X107024211Y-64153864D01*
X106921722Y-64256353D01*
X106921717Y-64256359D01*
X106849246Y-64381882D01*
X106849245Y-64381886D01*
X106811729Y-64521896D01*
X106311768Y-64521896D01*
X106274778Y-64383848D01*
X106273645Y-64381886D01*
X106202305Y-64258321D01*
X106202300Y-64258315D01*
X106099811Y-64155826D01*
X106099805Y-64155821D01*
X105974282Y-64083350D01*
X105974283Y-64083350D01*
X105951439Y-64077229D01*
X105834269Y-64045833D01*
X105689319Y-64045833D01*
X105572149Y-64077229D01*
X105549305Y-64083350D01*
X105423782Y-64155821D01*
X105423776Y-64155826D01*
X105321287Y-64258315D01*
X105321282Y-64258321D01*
X105248811Y-64383844D01*
X105248810Y-64383848D01*
X105211294Y-64523858D01*
X104711462Y-64523858D01*
X104674449Y-64385725D01*
X104673365Y-64383848D01*
X104601976Y-64260198D01*
X104601971Y-64260192D01*
X104499482Y-64157703D01*
X104499476Y-64157698D01*
X104373953Y-64085227D01*
X104373954Y-64085227D01*
X104362471Y-64082150D01*
X104233940Y-64047710D01*
X104233937Y-64047710D01*
X104228720Y-64047710D01*
X104161681Y-64028025D01*
X104141039Y-64011391D01*
X103855285Y-63725637D01*
X103821800Y-63664314D01*
X103826784Y-63594622D01*
X103868656Y-63538689D01*
X103934120Y-63514272D01*
X103975053Y-63518180D01*
X104088990Y-63548710D01*
X104088993Y-63548710D01*
X104233937Y-63548710D01*
X104233940Y-63548710D01*
X104373950Y-63511194D01*
X104499480Y-63438719D01*
X104601974Y-63336225D01*
X104674449Y-63210695D01*
X104711965Y-63070685D01*
X104711965Y-62925735D01*
X104711462Y-62923858D01*
X105211294Y-62923858D01*
X105211294Y-63068808D01*
X105243311Y-63188294D01*
X105248811Y-63208821D01*
X105321282Y-63334344D01*
X105321284Y-63334346D01*
X105321285Y-63334348D01*
X105423779Y-63436842D01*
X105423780Y-63436843D01*
X105423782Y-63436844D01*
X105549305Y-63509315D01*
X105549306Y-63509315D01*
X105549309Y-63509317D01*
X105689319Y-63546833D01*
X105689322Y-63546833D01*
X105834266Y-63546833D01*
X105834269Y-63546833D01*
X105974279Y-63509317D01*
X106099809Y-63436842D01*
X106202303Y-63334348D01*
X106274778Y-63208818D01*
X106312294Y-63068808D01*
X106312294Y-62923858D01*
X106311768Y-62921896D01*
X106811729Y-62921896D01*
X106811729Y-63066846D01*
X106844575Y-63189426D01*
X106849246Y-63206859D01*
X106921717Y-63332382D01*
X106921719Y-63332384D01*
X106921720Y-63332386D01*
X107024214Y-63434880D01*
X107024215Y-63434881D01*
X107024217Y-63434882D01*
X107149740Y-63507353D01*
X107149741Y-63507353D01*
X107149744Y-63507355D01*
X107289754Y-63544871D01*
X107289757Y-63544871D01*
X107434701Y-63544871D01*
X107434704Y-63544871D01*
X107574714Y-63507355D01*
X107700244Y-63434880D01*
X107802738Y-63332386D01*
X107875213Y-63206856D01*
X107912729Y-63066846D01*
X107912729Y-62921896D01*
X107912182Y-62919854D01*
X108412272Y-62919854D01*
X108412272Y-63064804D01*
X108445665Y-63189426D01*
X108449789Y-63204817D01*
X108522260Y-63330340D01*
X108522262Y-63330342D01*
X108522263Y-63330344D01*
X108624757Y-63432838D01*
X108624758Y-63432839D01*
X108624760Y-63432840D01*
X108750283Y-63505311D01*
X108750284Y-63505311D01*
X108750287Y-63505313D01*
X108890297Y-63542829D01*
X108890300Y-63542829D01*
X109035244Y-63542829D01*
X109035247Y-63542829D01*
X109175257Y-63505313D01*
X109300787Y-63432838D01*
X109403281Y-63330344D01*
X109475756Y-63204814D01*
X109513272Y-63064804D01*
X109513272Y-62919854D01*
X109512705Y-62917738D01*
X110012926Y-62917738D01*
X110012926Y-63062688D01*
X110046886Y-63189426D01*
X110050443Y-63202701D01*
X110122914Y-63328224D01*
X110122916Y-63328226D01*
X110122917Y-63328228D01*
X110225411Y-63430722D01*
X110225412Y-63430723D01*
X110225414Y-63430724D01*
X110350937Y-63503195D01*
X110350938Y-63503195D01*
X110350941Y-63503197D01*
X110490951Y-63540713D01*
X110490954Y-63540713D01*
X110635898Y-63540713D01*
X110635901Y-63540713D01*
X110775911Y-63503197D01*
X110901441Y-63430722D01*
X111003935Y-63328228D01*
X111076410Y-63202698D01*
X111113926Y-63062688D01*
X111113926Y-62917738D01*
X111076410Y-62777728D01*
X111064876Y-62757751D01*
X111003937Y-62652201D01*
X111003932Y-62652195D01*
X110901443Y-62549706D01*
X110901437Y-62549701D01*
X110775914Y-62477230D01*
X110775915Y-62477230D01*
X110764432Y-62474153D01*
X110635901Y-62439713D01*
X110490951Y-62439713D01*
X110362419Y-62474153D01*
X110350937Y-62477230D01*
X110225414Y-62549701D01*
X110225408Y-62549706D01*
X110122919Y-62652195D01*
X110122914Y-62652201D01*
X110050443Y-62777724D01*
X110050442Y-62777728D01*
X110012926Y-62917738D01*
X109512705Y-62917738D01*
X109475756Y-62779844D01*
X109474534Y-62777728D01*
X109403283Y-62654317D01*
X109403278Y-62654311D01*
X109300789Y-62551822D01*
X109300783Y-62551817D01*
X109175260Y-62479346D01*
X109175261Y-62479346D01*
X109163778Y-62476269D01*
X109035247Y-62441829D01*
X108890297Y-62441829D01*
X108761765Y-62476269D01*
X108750283Y-62479346D01*
X108624760Y-62551817D01*
X108624754Y-62551822D01*
X108522265Y-62654311D01*
X108522260Y-62654317D01*
X108449789Y-62779840D01*
X108447278Y-62789212D01*
X108412272Y-62919854D01*
X107912182Y-62919854D01*
X107875213Y-62781886D01*
X107872812Y-62777728D01*
X107802740Y-62656359D01*
X107802735Y-62656353D01*
X107700246Y-62553864D01*
X107700240Y-62553859D01*
X107574717Y-62481388D01*
X107574718Y-62481388D01*
X107559196Y-62477229D01*
X107434704Y-62443871D01*
X107289754Y-62443871D01*
X107165262Y-62477229D01*
X107149740Y-62481388D01*
X107024217Y-62553859D01*
X107024211Y-62553864D01*
X106921722Y-62656353D01*
X106921717Y-62656359D01*
X106849246Y-62781882D01*
X106849245Y-62781886D01*
X106811729Y-62921896D01*
X106311768Y-62921896D01*
X106274778Y-62783848D01*
X106273645Y-62781886D01*
X106202305Y-62658321D01*
X106202300Y-62658315D01*
X106099811Y-62555826D01*
X106099805Y-62555821D01*
X105974282Y-62483350D01*
X105974283Y-62483350D01*
X105951439Y-62477229D01*
X105834269Y-62445833D01*
X105689319Y-62445833D01*
X105572149Y-62477229D01*
X105549305Y-62483350D01*
X105423782Y-62555821D01*
X105423776Y-62555826D01*
X105321287Y-62658315D01*
X105321282Y-62658321D01*
X105248811Y-62783844D01*
X105248810Y-62783848D01*
X105211294Y-62923858D01*
X104711462Y-62923858D01*
X104674449Y-62785725D01*
X104673365Y-62783848D01*
X104601976Y-62660198D01*
X104601971Y-62660192D01*
X104499482Y-62557703D01*
X104499476Y-62557698D01*
X104373953Y-62485227D01*
X104373954Y-62485227D01*
X104362471Y-62482150D01*
X104233940Y-62447710D01*
X104088990Y-62447710D01*
X103960458Y-62482150D01*
X103948976Y-62485227D01*
X103823453Y-62557698D01*
X103823447Y-62557703D01*
X103720958Y-62660192D01*
X103720953Y-62660198D01*
X103648482Y-62785721D01*
X103648481Y-62785725D01*
X103610965Y-62925735D01*
X103610965Y-63070685D01*
X103635564Y-63162488D01*
X103641493Y-63184614D01*
X103639830Y-63254464D01*
X103600668Y-63312327D01*
X103536439Y-63339831D01*
X103467537Y-63328245D01*
X103434037Y-63304389D01*
X103340170Y-63210522D01*
X103340168Y-63210520D01*
X103248843Y-63157793D01*
X103203645Y-63145682D01*
X103143986Y-63109318D01*
X103113457Y-63046471D01*
X103111740Y-63025908D01*
X103111740Y-62927527D01*
X103111740Y-62927525D01*
X103074224Y-62787515D01*
X103073188Y-62785721D01*
X103001751Y-62661988D01*
X103001746Y-62661982D01*
X102899257Y-62559493D01*
X102899251Y-62559488D01*
X102773728Y-62487017D01*
X102773729Y-62487017D01*
X102752721Y-62481388D01*
X102633715Y-62449500D01*
X102488765Y-62449500D01*
X102414755Y-62469331D01*
X102344905Y-62467668D01*
X102287043Y-62428505D01*
X102259539Y-62364277D01*
X102262886Y-62317466D01*
X102299308Y-62181542D01*
X102299308Y-62061334D01*
X102318993Y-61994295D01*
X102338347Y-61977525D01*
X112749500Y-61977525D01*
X112749500Y-62122475D01*
X112787016Y-62262485D01*
X112787017Y-62262488D01*
X112859488Y-62388011D01*
X112859490Y-62388013D01*
X112859491Y-62388015D01*
X112961985Y-62490509D01*
X112961986Y-62490510D01*
X112961988Y-62490511D01*
X113087511Y-62562982D01*
X113087512Y-62562982D01*
X113087515Y-62562984D01*
X113151861Y-62580225D01*
X113211520Y-62616591D01*
X113242049Y-62679438D01*
X113233754Y-62748813D01*
X113189268Y-62802691D01*
X113151862Y-62819774D01*
X113097516Y-62834336D01*
X113087511Y-62837017D01*
X112961988Y-62909488D01*
X112961982Y-62909493D01*
X112859493Y-63011982D01*
X112859488Y-63011988D01*
X112787017Y-63137511D01*
X112787016Y-63137515D01*
X112749500Y-63277525D01*
X112749500Y-63422475D01*
X112782822Y-63546833D01*
X112787017Y-63562488D01*
X112859488Y-63688011D01*
X112859490Y-63688013D01*
X112859491Y-63688015D01*
X112961985Y-63790509D01*
X112961986Y-63790510D01*
X112961988Y-63790511D01*
X113087511Y-63862982D01*
X113087512Y-63862982D01*
X113087515Y-63862984D01*
X113227525Y-63900500D01*
X113227528Y-63900500D01*
X113372472Y-63900500D01*
X113372475Y-63900500D01*
X113512485Y-63862984D01*
X113638015Y-63790509D01*
X113740509Y-63688015D01*
X113812984Y-63562485D01*
X113850500Y-63422475D01*
X113850500Y-63277525D01*
X113812984Y-63137515D01*
X113796704Y-63109318D01*
X113740511Y-63011988D01*
X113740506Y-63011982D01*
X113638017Y-62909493D01*
X113638011Y-62909488D01*
X113512488Y-62837017D01*
X113512489Y-62837017D01*
X113506157Y-62835320D01*
X113448137Y-62819773D01*
X113388479Y-62783410D01*
X113357950Y-62720563D01*
X113366245Y-62651187D01*
X113410730Y-62597309D01*
X113448135Y-62580226D01*
X113512485Y-62562984D01*
X113638015Y-62490509D01*
X113740509Y-62388015D01*
X113812984Y-62262485D01*
X113850500Y-62122475D01*
X113850500Y-61977525D01*
X113812984Y-61837515D01*
X113812595Y-61836842D01*
X113740511Y-61711988D01*
X113740506Y-61711982D01*
X113638017Y-61609493D01*
X113638011Y-61609488D01*
X113512488Y-61537017D01*
X113512489Y-61537017D01*
X113501006Y-61533940D01*
X113372475Y-61499500D01*
X113227525Y-61499500D01*
X113098993Y-61533940D01*
X113087511Y-61537017D01*
X112961988Y-61609488D01*
X112961982Y-61609493D01*
X112859493Y-61711982D01*
X112859488Y-61711988D01*
X112787017Y-61837511D01*
X112786214Y-61840509D01*
X112749500Y-61977525D01*
X102338347Y-61977525D01*
X102371797Y-61948540D01*
X102440955Y-61938596D01*
X102455390Y-61941557D01*
X102488765Y-61950500D01*
X102488767Y-61950500D01*
X102633712Y-61950500D01*
X102633715Y-61950500D01*
X102773725Y-61912984D01*
X102899255Y-61840509D01*
X103001749Y-61738015D01*
X103074224Y-61612485D01*
X103111740Y-61472475D01*
X103111740Y-61327525D01*
X103081451Y-61214486D01*
X103083114Y-61144639D01*
X103122276Y-61086776D01*
X103186504Y-61059272D01*
X103233316Y-61062619D01*
X103334839Y-61089823D01*
X103334842Y-61089823D01*
X103479784Y-61089823D01*
X103479789Y-61089823D01*
X103481751Y-61089297D01*
X103483471Y-61089337D01*
X103487845Y-61088762D01*
X103487934Y-61089443D01*
X103551596Y-61090953D01*
X103609462Y-61130110D01*
X103636973Y-61194336D01*
X103633626Y-61241162D01*
X103613108Y-61317738D01*
X103610965Y-61325735D01*
X103610965Y-61470685D01*
X103648159Y-61609493D01*
X103648482Y-61610698D01*
X103720953Y-61736221D01*
X103720955Y-61736223D01*
X103720956Y-61736225D01*
X103823450Y-61838719D01*
X103823451Y-61838720D01*
X103823453Y-61838721D01*
X103948976Y-61911192D01*
X103948977Y-61911192D01*
X103948980Y-61911194D01*
X104088990Y-61948710D01*
X104088993Y-61948710D01*
X104233937Y-61948710D01*
X104233940Y-61948710D01*
X104373950Y-61911194D01*
X104499480Y-61838719D01*
X104601974Y-61736225D01*
X104674449Y-61610695D01*
X104711965Y-61470685D01*
X104711965Y-61325735D01*
X104711462Y-61323858D01*
X105211294Y-61323858D01*
X105211294Y-61468808D01*
X105239060Y-61572431D01*
X105248811Y-61608821D01*
X105321282Y-61734344D01*
X105321284Y-61734346D01*
X105321285Y-61734348D01*
X105423779Y-61836842D01*
X105423780Y-61836843D01*
X105423782Y-61836844D01*
X105549305Y-61909315D01*
X105549306Y-61909315D01*
X105549309Y-61909317D01*
X105689319Y-61946833D01*
X105689322Y-61946833D01*
X105834266Y-61946833D01*
X105834269Y-61946833D01*
X105974279Y-61909317D01*
X106099809Y-61836842D01*
X106202303Y-61734348D01*
X106274778Y-61608818D01*
X106312294Y-61468808D01*
X106312294Y-61323858D01*
X106311768Y-61321896D01*
X106811729Y-61321896D01*
X106811729Y-61466846D01*
X106848131Y-61602698D01*
X106849246Y-61606859D01*
X106921717Y-61732382D01*
X106921719Y-61732384D01*
X106921720Y-61732386D01*
X107024214Y-61834880D01*
X107024215Y-61834881D01*
X107024217Y-61834882D01*
X107149740Y-61907353D01*
X107149741Y-61907353D01*
X107149744Y-61907355D01*
X107289754Y-61944871D01*
X107289757Y-61944871D01*
X107434701Y-61944871D01*
X107434704Y-61944871D01*
X107574714Y-61907355D01*
X107700244Y-61834880D01*
X107802738Y-61732386D01*
X107875213Y-61606856D01*
X107912729Y-61466846D01*
X107912729Y-61321896D01*
X107912182Y-61319854D01*
X108412272Y-61319854D01*
X108412272Y-61464804D01*
X108449221Y-61602698D01*
X108449789Y-61604817D01*
X108522260Y-61730340D01*
X108522262Y-61730342D01*
X108522263Y-61730344D01*
X108624757Y-61832838D01*
X108624758Y-61832839D01*
X108624760Y-61832840D01*
X108750283Y-61905311D01*
X108750284Y-61905311D01*
X108750287Y-61905313D01*
X108890297Y-61942829D01*
X108890300Y-61942829D01*
X109035244Y-61942829D01*
X109035247Y-61942829D01*
X109175257Y-61905313D01*
X109300787Y-61832838D01*
X109403281Y-61730344D01*
X109475756Y-61604814D01*
X109513272Y-61464804D01*
X109513272Y-61319854D01*
X109512705Y-61317738D01*
X110012926Y-61317738D01*
X110012926Y-61462688D01*
X110050442Y-61602698D01*
X110050443Y-61602701D01*
X110122914Y-61728224D01*
X110122916Y-61728226D01*
X110122917Y-61728228D01*
X110225411Y-61830722D01*
X110225412Y-61830723D01*
X110225414Y-61830724D01*
X110350937Y-61903195D01*
X110350938Y-61903195D01*
X110350941Y-61903197D01*
X110490951Y-61940713D01*
X110490954Y-61940713D01*
X110635898Y-61940713D01*
X110635901Y-61940713D01*
X110775911Y-61903197D01*
X110901441Y-61830722D01*
X111003935Y-61728228D01*
X111076410Y-61602698D01*
X111113926Y-61462688D01*
X111113926Y-61317738D01*
X111076410Y-61177728D01*
X111066153Y-61159963D01*
X111003937Y-61052201D01*
X111003932Y-61052195D01*
X110901443Y-60949706D01*
X110901437Y-60949701D01*
X110775914Y-60877230D01*
X110775915Y-60877230D01*
X110764432Y-60874153D01*
X110635901Y-60839713D01*
X110490951Y-60839713D01*
X110362419Y-60874153D01*
X110350937Y-60877230D01*
X110225414Y-60949701D01*
X110225408Y-60949706D01*
X110122919Y-61052195D01*
X110122914Y-61052201D01*
X110050443Y-61177724D01*
X110050442Y-61177728D01*
X110012926Y-61317738D01*
X109512705Y-61317738D01*
X109475756Y-61179844D01*
X109474534Y-61177728D01*
X109403283Y-61054317D01*
X109403278Y-61054311D01*
X109300789Y-60951822D01*
X109300783Y-60951817D01*
X109175260Y-60879346D01*
X109175261Y-60879346D01*
X109163778Y-60876269D01*
X109035247Y-60841829D01*
X108890297Y-60841829D01*
X108761765Y-60876269D01*
X108750283Y-60879346D01*
X108624760Y-60951817D01*
X108624754Y-60951822D01*
X108522265Y-61054311D01*
X108522260Y-61054317D01*
X108449789Y-61179840D01*
X108447278Y-61189212D01*
X108412272Y-61319854D01*
X107912182Y-61319854D01*
X107875213Y-61181886D01*
X107872812Y-61177728D01*
X107802740Y-61056359D01*
X107802735Y-61056353D01*
X107700246Y-60953864D01*
X107700240Y-60953859D01*
X107574717Y-60881388D01*
X107574718Y-60881388D01*
X107559196Y-60877229D01*
X107434704Y-60843871D01*
X107289754Y-60843871D01*
X107165262Y-60877229D01*
X107149740Y-60881388D01*
X107024217Y-60953859D01*
X107024211Y-60953864D01*
X106921722Y-61056353D01*
X106921717Y-61056359D01*
X106849246Y-61181882D01*
X106846045Y-61193827D01*
X106811729Y-61321896D01*
X106311768Y-61321896D01*
X106274778Y-61183848D01*
X106273645Y-61181886D01*
X106202305Y-61058321D01*
X106202300Y-61058315D01*
X106099811Y-60955826D01*
X106099805Y-60955821D01*
X105974282Y-60883350D01*
X105974283Y-60883350D01*
X105959336Y-60879345D01*
X105834269Y-60845833D01*
X105689319Y-60845833D01*
X105564252Y-60879345D01*
X105549305Y-60883350D01*
X105423782Y-60955821D01*
X105423776Y-60955826D01*
X105321287Y-61058315D01*
X105321282Y-61058321D01*
X105248811Y-61183844D01*
X105248810Y-61183848D01*
X105211294Y-61323858D01*
X104711462Y-61323858D01*
X104674449Y-61185725D01*
X104673365Y-61183848D01*
X104601976Y-61060198D01*
X104601971Y-61060192D01*
X104499482Y-60957703D01*
X104499476Y-60957698D01*
X104373953Y-60885227D01*
X104373954Y-60885227D01*
X104362471Y-60882150D01*
X104233940Y-60847710D01*
X104088990Y-60847710D01*
X104087015Y-60848238D01*
X104085287Y-60848197D01*
X104080934Y-60848771D01*
X104080844Y-60848091D01*
X104017168Y-60846574D01*
X103959306Y-60807410D01*
X103931804Y-60743181D01*
X103935151Y-60696374D01*
X103957814Y-60611798D01*
X103957814Y-60472710D01*
X103977499Y-60405671D01*
X104030303Y-60359916D01*
X104081814Y-60348710D01*
X104233937Y-60348710D01*
X104233940Y-60348710D01*
X104373950Y-60311194D01*
X104499480Y-60238719D01*
X104601974Y-60136225D01*
X104655473Y-60043563D01*
X104706040Y-59995347D01*
X104774648Y-59982125D01*
X104839512Y-60008093D01*
X104850541Y-60017882D01*
X104949472Y-60116813D01*
X105028559Y-60162474D01*
X105038775Y-60168373D01*
X105040797Y-60169540D01*
X105142658Y-60196833D01*
X105332408Y-60196833D01*
X105399447Y-60216518D01*
X105420089Y-60233152D01*
X105423779Y-60236842D01*
X105423780Y-60236843D01*
X105423782Y-60236844D01*
X105549305Y-60309315D01*
X105549306Y-60309315D01*
X105549309Y-60309317D01*
X105689319Y-60346833D01*
X105689322Y-60346833D01*
X105834266Y-60346833D01*
X105834269Y-60346833D01*
X105974279Y-60309317D01*
X106099809Y-60236842D01*
X106202303Y-60134348D01*
X106274778Y-60008818D01*
X106312294Y-59868808D01*
X106312294Y-59723858D01*
X106311768Y-59721896D01*
X106811729Y-59721896D01*
X106811729Y-59866846D01*
X106848132Y-60002701D01*
X106849246Y-60006859D01*
X106921717Y-60132382D01*
X106921719Y-60132384D01*
X106921720Y-60132386D01*
X107024214Y-60234880D01*
X107024215Y-60234881D01*
X107024217Y-60234882D01*
X107149740Y-60307353D01*
X107149741Y-60307353D01*
X107149744Y-60307355D01*
X107289754Y-60344871D01*
X107289757Y-60344871D01*
X107434701Y-60344871D01*
X107434704Y-60344871D01*
X107574714Y-60307355D01*
X107700244Y-60234880D01*
X107802738Y-60132386D01*
X107875213Y-60006856D01*
X107912729Y-59866846D01*
X107912729Y-59721896D01*
X107912182Y-59719854D01*
X108412272Y-59719854D01*
X108412272Y-59864804D01*
X108449221Y-60002698D01*
X108449789Y-60004817D01*
X108522260Y-60130340D01*
X108522262Y-60130342D01*
X108522263Y-60130344D01*
X108624757Y-60232838D01*
X108624758Y-60232839D01*
X108624760Y-60232840D01*
X108750283Y-60305311D01*
X108750284Y-60305311D01*
X108750287Y-60305313D01*
X108890297Y-60342829D01*
X108890300Y-60342829D01*
X109035244Y-60342829D01*
X109035247Y-60342829D01*
X109175257Y-60305313D01*
X109300787Y-60232838D01*
X109403281Y-60130344D01*
X109475756Y-60004814D01*
X109513272Y-59864804D01*
X109513272Y-59719854D01*
X109512705Y-59717738D01*
X110012926Y-59717738D01*
X110012926Y-59862688D01*
X110050442Y-60002698D01*
X110050443Y-60002701D01*
X110122914Y-60128224D01*
X110122916Y-60128226D01*
X110122917Y-60128228D01*
X110225411Y-60230722D01*
X110225412Y-60230723D01*
X110225414Y-60230724D01*
X110350937Y-60303195D01*
X110350938Y-60303195D01*
X110350941Y-60303197D01*
X110490951Y-60340713D01*
X110490954Y-60340713D01*
X110635898Y-60340713D01*
X110635901Y-60340713D01*
X110775911Y-60303197D01*
X110901441Y-60230722D01*
X111003935Y-60128228D01*
X111076410Y-60002698D01*
X111096553Y-59927525D01*
X112499500Y-59927525D01*
X112499500Y-60072475D01*
X112532822Y-60196832D01*
X112537017Y-60212488D01*
X112609488Y-60338011D01*
X112609490Y-60338013D01*
X112609491Y-60338015D01*
X112711985Y-60440509D01*
X112711986Y-60440510D01*
X112711988Y-60440511D01*
X112837511Y-60512982D01*
X112837512Y-60512982D01*
X112837515Y-60512984D01*
X112977525Y-60550500D01*
X112977528Y-60550500D01*
X113122472Y-60550500D01*
X113122475Y-60550500D01*
X113262485Y-60512984D01*
X113388015Y-60440509D01*
X113490509Y-60338015D01*
X113562984Y-60212485D01*
X113600500Y-60072475D01*
X113600500Y-59927525D01*
X113562984Y-59787515D01*
X113541736Y-59750713D01*
X113490511Y-59661988D01*
X113490506Y-59661982D01*
X113388017Y-59559493D01*
X113388011Y-59559488D01*
X113262488Y-59487017D01*
X113262489Y-59487017D01*
X113251006Y-59483940D01*
X113122475Y-59449500D01*
X112977525Y-59449500D01*
X112848993Y-59483940D01*
X112837511Y-59487017D01*
X112711988Y-59559488D01*
X112711982Y-59559493D01*
X112609493Y-59661982D01*
X112609488Y-59661988D01*
X112537017Y-59787511D01*
X112537016Y-59787515D01*
X112499500Y-59927525D01*
X111096553Y-59927525D01*
X111113926Y-59862688D01*
X111113926Y-59717738D01*
X111076410Y-59577728D01*
X111067033Y-59561487D01*
X111003937Y-59452201D01*
X111003932Y-59452195D01*
X110901443Y-59349706D01*
X110901437Y-59349701D01*
X110775914Y-59277230D01*
X110775915Y-59277230D01*
X110764432Y-59274153D01*
X110635901Y-59239713D01*
X110490951Y-59239713D01*
X110362419Y-59274153D01*
X110350937Y-59277230D01*
X110225414Y-59349701D01*
X110225408Y-59349706D01*
X110122919Y-59452195D01*
X110122914Y-59452201D01*
X110050443Y-59577724D01*
X110050442Y-59577728D01*
X110012926Y-59717738D01*
X109512705Y-59717738D01*
X109475756Y-59579844D01*
X109474534Y-59577728D01*
X109403283Y-59454317D01*
X109403278Y-59454311D01*
X109300789Y-59351822D01*
X109300783Y-59351817D01*
X109175260Y-59279346D01*
X109175261Y-59279346D01*
X109163778Y-59276269D01*
X109035247Y-59241829D01*
X108890297Y-59241829D01*
X108761765Y-59276269D01*
X108750283Y-59279346D01*
X108624760Y-59351817D01*
X108624754Y-59351822D01*
X108522265Y-59454311D01*
X108522260Y-59454317D01*
X108449789Y-59579840D01*
X108449788Y-59579844D01*
X108412272Y-59719854D01*
X107912182Y-59719854D01*
X107875213Y-59581886D01*
X107872812Y-59577728D01*
X107802740Y-59456359D01*
X107802735Y-59456353D01*
X107700246Y-59353864D01*
X107700240Y-59353859D01*
X107574717Y-59281388D01*
X107574718Y-59281388D01*
X107559196Y-59277229D01*
X107434704Y-59243871D01*
X107289754Y-59243871D01*
X107165262Y-59277229D01*
X107149740Y-59281388D01*
X107024217Y-59353859D01*
X107024211Y-59353864D01*
X106921722Y-59456353D01*
X106921717Y-59456359D01*
X106849246Y-59581882D01*
X106849245Y-59581886D01*
X106811729Y-59721896D01*
X106311768Y-59721896D01*
X106274778Y-59583848D01*
X106273645Y-59581886D01*
X106202305Y-59458321D01*
X106202300Y-59458315D01*
X106099811Y-59355826D01*
X106099805Y-59355821D01*
X105974282Y-59283350D01*
X105974283Y-59283350D01*
X105951439Y-59277229D01*
X105834269Y-59245833D01*
X105689319Y-59245833D01*
X105689314Y-59245833D01*
X105644642Y-59257803D01*
X105574793Y-59256139D01*
X105516931Y-59216976D01*
X105489428Y-59152747D01*
X105501015Y-59083845D01*
X105505151Y-59076051D01*
X105512984Y-59062485D01*
X105550500Y-58922475D01*
X105550500Y-58869951D01*
X105570185Y-58802912D01*
X105622989Y-58757157D01*
X105681192Y-58748438D01*
X105681192Y-58746833D01*
X105834266Y-58746833D01*
X105834269Y-58746833D01*
X105974279Y-58709317D01*
X106099809Y-58636842D01*
X106202303Y-58534348D01*
X106273296Y-58411385D01*
X106291390Y-58394131D01*
X106306373Y-58374118D01*
X106316239Y-58370437D01*
X106323863Y-58363169D01*
X106348413Y-58358437D01*
X106371837Y-58349701D01*
X106382129Y-58351939D01*
X106392470Y-58349947D01*
X106415678Y-58359238D01*
X106440110Y-58364553D01*
X106452934Y-58374153D01*
X106457335Y-58375915D01*
X106468364Y-58385704D01*
X106518602Y-58435942D01*
X106518612Y-58435953D01*
X106597511Y-58514852D01*
X106608065Y-58520945D01*
X106679497Y-58562186D01*
X106688836Y-58567578D01*
X106790696Y-58594872D01*
X106790698Y-58594872D01*
X106903746Y-58594872D01*
X106903762Y-58594871D01*
X106932843Y-58594871D01*
X106999882Y-58614556D01*
X107020524Y-58631190D01*
X107024214Y-58634880D01*
X107024215Y-58634881D01*
X107024217Y-58634882D01*
X107149740Y-58707353D01*
X107149741Y-58707353D01*
X107149744Y-58707355D01*
X107289754Y-58744871D01*
X107289757Y-58744871D01*
X107434701Y-58744871D01*
X107434704Y-58744871D01*
X107574714Y-58707355D01*
X107700244Y-58634880D01*
X107802738Y-58532386D01*
X107875213Y-58406856D01*
X107912729Y-58266846D01*
X107912729Y-58121896D01*
X107912182Y-58119854D01*
X108412272Y-58119854D01*
X108412272Y-58264804D01*
X108448355Y-58399466D01*
X108449789Y-58404817D01*
X108522260Y-58530340D01*
X108522262Y-58530342D01*
X108522263Y-58530344D01*
X108624757Y-58632838D01*
X108624758Y-58632839D01*
X108624760Y-58632840D01*
X108750283Y-58705311D01*
X108750284Y-58705311D01*
X108750287Y-58705313D01*
X108890297Y-58742829D01*
X108890300Y-58742829D01*
X109035244Y-58742829D01*
X109035247Y-58742829D01*
X109175257Y-58705313D01*
X109300787Y-58632838D01*
X109403281Y-58530344D01*
X109475756Y-58404814D01*
X109513272Y-58264804D01*
X109513272Y-58119854D01*
X109512705Y-58117738D01*
X110012926Y-58117738D01*
X110012926Y-58262688D01*
X110049576Y-58399466D01*
X110050443Y-58402701D01*
X110122914Y-58528224D01*
X110122916Y-58528226D01*
X110122917Y-58528228D01*
X110225411Y-58630722D01*
X110225412Y-58630723D01*
X110225414Y-58630724D01*
X110350937Y-58703195D01*
X110350938Y-58703195D01*
X110350941Y-58703197D01*
X110490951Y-58740713D01*
X110490954Y-58740713D01*
X110635898Y-58740713D01*
X110635901Y-58740713D01*
X110775911Y-58703197D01*
X110901441Y-58630722D01*
X111003935Y-58528228D01*
X111076410Y-58402698D01*
X111113926Y-58262688D01*
X111113926Y-58117738D01*
X111076410Y-57977728D01*
X111074957Y-57975212D01*
X111003937Y-57852201D01*
X111003932Y-57852195D01*
X110901443Y-57749706D01*
X110901437Y-57749701D01*
X110775914Y-57677230D01*
X110775915Y-57677230D01*
X110750966Y-57670545D01*
X110635901Y-57639713D01*
X110490951Y-57639713D01*
X110375886Y-57670545D01*
X110350937Y-57677230D01*
X110225414Y-57749701D01*
X110225408Y-57749706D01*
X110122919Y-57852195D01*
X110122914Y-57852201D01*
X110050443Y-57977724D01*
X110050442Y-57977728D01*
X110012926Y-58117738D01*
X109512705Y-58117738D01*
X109475756Y-57979844D01*
X109474534Y-57977728D01*
X109403283Y-57854317D01*
X109403278Y-57854311D01*
X109300789Y-57751822D01*
X109300783Y-57751817D01*
X109175260Y-57679346D01*
X109175261Y-57679346D01*
X109142415Y-57670545D01*
X109035247Y-57641829D01*
X108890297Y-57641829D01*
X108783129Y-57670545D01*
X108750283Y-57679346D01*
X108624760Y-57751817D01*
X108624754Y-57751822D01*
X108522265Y-57854311D01*
X108522260Y-57854317D01*
X108449789Y-57979840D01*
X108447279Y-57989208D01*
X108412272Y-58119854D01*
X107912182Y-58119854D01*
X107875213Y-57981886D01*
X107872812Y-57977728D01*
X107802740Y-57856359D01*
X107802735Y-57856353D01*
X107700246Y-57753864D01*
X107700240Y-57753859D01*
X107574717Y-57681388D01*
X107574718Y-57681388D01*
X107541443Y-57672472D01*
X107434704Y-57643871D01*
X107289754Y-57643871D01*
X107211754Y-57664771D01*
X107141904Y-57663108D01*
X107084042Y-57623945D01*
X107056538Y-57559717D01*
X107061952Y-57527525D01*
X113449500Y-57527525D01*
X113449500Y-57672475D01*
X113483805Y-57800500D01*
X113487017Y-57812488D01*
X113559488Y-57938011D01*
X113559490Y-57938013D01*
X113559491Y-57938015D01*
X113661985Y-58040509D01*
X113661986Y-58040510D01*
X113661988Y-58040511D01*
X113787511Y-58112982D01*
X113787512Y-58112982D01*
X113787515Y-58112984D01*
X113927525Y-58150500D01*
X113927528Y-58150500D01*
X114072472Y-58150500D01*
X114072475Y-58150500D01*
X114212485Y-58112984D01*
X114338015Y-58040509D01*
X114440509Y-57938015D01*
X114512984Y-57812485D01*
X114550500Y-57672475D01*
X114550500Y-57527525D01*
X114512984Y-57387515D01*
X114451327Y-57280723D01*
X114440511Y-57261988D01*
X114440506Y-57261982D01*
X114338017Y-57159493D01*
X114338011Y-57159488D01*
X114212488Y-57087017D01*
X114212489Y-57087017D01*
X114201006Y-57083940D01*
X114072475Y-57049500D01*
X113927525Y-57049500D01*
X113798993Y-57083940D01*
X113787511Y-57087017D01*
X113661988Y-57159488D01*
X113661982Y-57159493D01*
X113559493Y-57261982D01*
X113559488Y-57261988D01*
X113487017Y-57387511D01*
X113487016Y-57387515D01*
X113449500Y-57527525D01*
X107061952Y-57527525D01*
X107068125Y-57490814D01*
X107072263Y-57483014D01*
X107112984Y-57412485D01*
X107150500Y-57272475D01*
X107150500Y-57267932D01*
X107170185Y-57200893D01*
X107222989Y-57155138D01*
X107281627Y-57146352D01*
X107281627Y-57144871D01*
X107434701Y-57144871D01*
X107434704Y-57144871D01*
X107574714Y-57107355D01*
X107700244Y-57034880D01*
X107802738Y-56932386D01*
X107875213Y-56806856D01*
X107912729Y-56666846D01*
X107912729Y-56585829D01*
X107932414Y-56518790D01*
X107985218Y-56473035D01*
X108036729Y-56461829D01*
X108288272Y-56461829D01*
X108355311Y-56481514D01*
X108401066Y-56534318D01*
X108412272Y-56585829D01*
X108412272Y-56664804D01*
X108448364Y-56799500D01*
X108449789Y-56804817D01*
X108522260Y-56930340D01*
X108522262Y-56930342D01*
X108522263Y-56930344D01*
X108624757Y-57032838D01*
X108624758Y-57032839D01*
X108624760Y-57032840D01*
X108750283Y-57105311D01*
X108750284Y-57105311D01*
X108750287Y-57105313D01*
X108890297Y-57142829D01*
X108890300Y-57142829D01*
X109035244Y-57142829D01*
X109035247Y-57142829D01*
X109175257Y-57105313D01*
X109300787Y-57032838D01*
X109403281Y-56930344D01*
X109475756Y-56804814D01*
X109513272Y-56664804D01*
X109513272Y-56585829D01*
X109515822Y-56577143D01*
X109514534Y-56568182D01*
X109525512Y-56544141D01*
X109532957Y-56518790D01*
X109539797Y-56512862D01*
X109543559Y-56504626D01*
X109565793Y-56490336D01*
X109585761Y-56473035D01*
X109596275Y-56470747D01*
X109602337Y-56466852D01*
X109637272Y-56461829D01*
X109817287Y-56461829D01*
X109884326Y-56481514D01*
X109904968Y-56498148D01*
X109976607Y-56569787D01*
X110010092Y-56631110D01*
X110012926Y-56657468D01*
X110012926Y-56662688D01*
X110049585Y-56799500D01*
X110050443Y-56802701D01*
X110122914Y-56928224D01*
X110122916Y-56928226D01*
X110122917Y-56928228D01*
X110225411Y-57030722D01*
X110225412Y-57030723D01*
X110225414Y-57030724D01*
X110350937Y-57103195D01*
X110350938Y-57103195D01*
X110350941Y-57103197D01*
X110490951Y-57140713D01*
X110490954Y-57140713D01*
X110635898Y-57140713D01*
X110635901Y-57140713D01*
X110775911Y-57103197D01*
X110901441Y-57030722D01*
X111003935Y-56928228D01*
X111076410Y-56802698D01*
X111113926Y-56662688D01*
X111113926Y-56517738D01*
X111076410Y-56377728D01*
X111073930Y-56373433D01*
X111003937Y-56252201D01*
X111003932Y-56252195D01*
X110929262Y-56177525D01*
X112449500Y-56177525D01*
X112449500Y-56322475D01*
X112483805Y-56450500D01*
X112487017Y-56462488D01*
X112559488Y-56588011D01*
X112559490Y-56588013D01*
X112559491Y-56588015D01*
X112661985Y-56690509D01*
X112661986Y-56690510D01*
X112661988Y-56690511D01*
X112787511Y-56762982D01*
X112787512Y-56762982D01*
X112787515Y-56762984D01*
X112927525Y-56800500D01*
X112927528Y-56800500D01*
X113072472Y-56800500D01*
X113072475Y-56800500D01*
X113212485Y-56762984D01*
X113338015Y-56690509D01*
X113440509Y-56588015D01*
X113512984Y-56462485D01*
X113550500Y-56322475D01*
X113550500Y-56177525D01*
X113512984Y-56037515D01*
X113479112Y-55978848D01*
X113440511Y-55911988D01*
X113440506Y-55911982D01*
X113338017Y-55809493D01*
X113338011Y-55809488D01*
X113212488Y-55737017D01*
X113212489Y-55737017D01*
X113201006Y-55733940D01*
X113072475Y-55699500D01*
X112927525Y-55699500D01*
X112798993Y-55733940D01*
X112787511Y-55737017D01*
X112661988Y-55809488D01*
X112661982Y-55809493D01*
X112559493Y-55911982D01*
X112559488Y-55911988D01*
X112487017Y-56037511D01*
X112487016Y-56037515D01*
X112449500Y-56177525D01*
X110929262Y-56177525D01*
X110901443Y-56149706D01*
X110901437Y-56149701D01*
X110775914Y-56077230D01*
X110775915Y-56077230D01*
X110740606Y-56067769D01*
X110635901Y-56039713D01*
X110635898Y-56039713D01*
X110630681Y-56039713D01*
X110563642Y-56020028D01*
X110543000Y-56003394D01*
X110280457Y-55740851D01*
X110280455Y-55740849D01*
X110280452Y-55740847D01*
X110280448Y-55740844D01*
X110269823Y-55734710D01*
X110269814Y-55734705D01*
X110189130Y-55688122D01*
X110087269Y-55660829D01*
X110087268Y-55660829D01*
X109368669Y-55660829D01*
X109301630Y-55641144D01*
X109255875Y-55588340D01*
X109245931Y-55519182D01*
X109274956Y-55455626D01*
X109295200Y-55438910D01*
X109294338Y-55437786D01*
X109300779Y-55432842D01*
X109300787Y-55432838D01*
X109403281Y-55330344D01*
X109475756Y-55204814D01*
X109513272Y-55064804D01*
X109513272Y-54919854D01*
X109512705Y-54917738D01*
X110012926Y-54917738D01*
X110012926Y-55062688D01*
X110049108Y-55197718D01*
X110050443Y-55202701D01*
X110122914Y-55328224D01*
X110122916Y-55328226D01*
X110122917Y-55328228D01*
X110225411Y-55430722D01*
X110350941Y-55503197D01*
X110490951Y-55540713D01*
X110490954Y-55540713D01*
X110635898Y-55540713D01*
X110635901Y-55540713D01*
X110775911Y-55503197D01*
X110901441Y-55430722D01*
X111003935Y-55328228D01*
X111076410Y-55202698D01*
X111113926Y-55062688D01*
X111113926Y-54917738D01*
X111076410Y-54777728D01*
X111014383Y-54670295D01*
X111003937Y-54652201D01*
X111003932Y-54652195D01*
X110901443Y-54549706D01*
X110901437Y-54549701D01*
X110775914Y-54477230D01*
X110775915Y-54477230D01*
X110742248Y-54468209D01*
X110635901Y-54439713D01*
X110490951Y-54439713D01*
X110384604Y-54468209D01*
X110350937Y-54477230D01*
X110225414Y-54549701D01*
X110225408Y-54549706D01*
X110122919Y-54652195D01*
X110122914Y-54652201D01*
X110050443Y-54777724D01*
X110050442Y-54777728D01*
X110012926Y-54917738D01*
X109512705Y-54917738D01*
X109475756Y-54779844D01*
X109475300Y-54779055D01*
X109403283Y-54654317D01*
X109403278Y-54654311D01*
X109300789Y-54551822D01*
X109300783Y-54551817D01*
X109175260Y-54479346D01*
X109175261Y-54479346D01*
X109133697Y-54468209D01*
X109035247Y-54441829D01*
X108890297Y-54441829D01*
X108791847Y-54468209D01*
X108750283Y-54479346D01*
X108624760Y-54551817D01*
X108624754Y-54551822D01*
X108522265Y-54654311D01*
X108522260Y-54654317D01*
X108449789Y-54779840D01*
X108447402Y-54788747D01*
X108412272Y-54919854D01*
X108412272Y-54919856D01*
X108412272Y-54925074D01*
X108403627Y-54954514D01*
X108397104Y-54984501D01*
X108393349Y-54989516D01*
X108392587Y-54992113D01*
X108375953Y-55012755D01*
X108294527Y-55094181D01*
X108233204Y-55127666D01*
X108206846Y-55130500D01*
X108036729Y-55130500D01*
X107969690Y-55110815D01*
X107923935Y-55058011D01*
X107912729Y-55006500D01*
X107912729Y-54921898D01*
X107912729Y-54921896D01*
X107875213Y-54781886D01*
X107872812Y-54777728D01*
X107802740Y-54656359D01*
X107802735Y-54656353D01*
X107700246Y-54553864D01*
X107700240Y-54553859D01*
X107574717Y-54481388D01*
X107574718Y-54481388D01*
X107559196Y-54477229D01*
X107434704Y-54443871D01*
X107289754Y-54443871D01*
X107165262Y-54477229D01*
X107149740Y-54481388D01*
X107024217Y-54553859D01*
X107024211Y-54553864D01*
X106921722Y-54656353D01*
X106921717Y-54656359D01*
X106849246Y-54781882D01*
X106844812Y-54798426D01*
X106811729Y-54921896D01*
X106811729Y-54921898D01*
X106811729Y-55006500D01*
X106792044Y-55073539D01*
X106739240Y-55119294D01*
X106687729Y-55130500D01*
X106436294Y-55130500D01*
X106369255Y-55110815D01*
X106323500Y-55058011D01*
X106312294Y-55006500D01*
X106312294Y-54923860D01*
X106312294Y-54923858D01*
X106274778Y-54783848D01*
X106273645Y-54781886D01*
X106202305Y-54658321D01*
X106202300Y-54658315D01*
X106099811Y-54555826D01*
X106099805Y-54555821D01*
X105974282Y-54483350D01*
X105974283Y-54483350D01*
X105951439Y-54477229D01*
X105834269Y-54445833D01*
X105689319Y-54445833D01*
X105572149Y-54477229D01*
X105549305Y-54483350D01*
X105423782Y-54555821D01*
X105423776Y-54555826D01*
X105321287Y-54658315D01*
X105321282Y-54658321D01*
X105248811Y-54783844D01*
X105248810Y-54783848D01*
X105211294Y-54923858D01*
X105211294Y-54923860D01*
X105211294Y-55006500D01*
X105191609Y-55073539D01*
X105138805Y-55119294D01*
X105087294Y-55130500D01*
X104835965Y-55130500D01*
X104768926Y-55110815D01*
X104723171Y-55058011D01*
X104711965Y-55006500D01*
X104711965Y-54925737D01*
X104711965Y-54925735D01*
X104674449Y-54785725D01*
X104673365Y-54783848D01*
X104601976Y-54660198D01*
X104601971Y-54660192D01*
X104499482Y-54557703D01*
X104499476Y-54557698D01*
X104373953Y-54485227D01*
X104373954Y-54485227D01*
X104362471Y-54482150D01*
X104233940Y-54447710D01*
X104088990Y-54447710D01*
X103960458Y-54482150D01*
X103948976Y-54485227D01*
X103823453Y-54557698D01*
X103823447Y-54557703D01*
X103720958Y-54660192D01*
X103720953Y-54660198D01*
X103648482Y-54785721D01*
X103648481Y-54785725D01*
X103610965Y-54925735D01*
X103610965Y-54925737D01*
X103610965Y-55006500D01*
X103591280Y-55073539D01*
X103538476Y-55119294D01*
X103486965Y-55130500D01*
X103235740Y-55130500D01*
X103168701Y-55110815D01*
X103122946Y-55058011D01*
X103111740Y-55006500D01*
X103111740Y-54927527D01*
X103111740Y-54927525D01*
X103074224Y-54787515D01*
X103073188Y-54785721D01*
X103001751Y-54661988D01*
X103001746Y-54661982D01*
X102899257Y-54559493D01*
X102899251Y-54559488D01*
X102773728Y-54487017D01*
X102773729Y-54487017D01*
X102752721Y-54481388D01*
X102633715Y-54449500D01*
X102488765Y-54449500D01*
X102488763Y-54449500D01*
X102428636Y-54465611D01*
X102358787Y-54463948D01*
X102300924Y-54424785D01*
X102273421Y-54360556D01*
X102276768Y-54313750D01*
X102310618Y-54187423D01*
X102310618Y-54042473D01*
X102310618Y-54034346D01*
X102313140Y-54034346D01*
X102321955Y-53977802D01*
X102368333Y-53925545D01*
X102435602Y-53906657D01*
X102466221Y-53910873D01*
X102500383Y-53920027D01*
X102500385Y-53920027D01*
X102645330Y-53920027D01*
X102645333Y-53920027D01*
X102785343Y-53882511D01*
X102910873Y-53810036D01*
X103013367Y-53707542D01*
X103085842Y-53582012D01*
X103123358Y-53442002D01*
X103123358Y-53297052D01*
X103096598Y-53197183D01*
X103098261Y-53127337D01*
X103137423Y-53069475D01*
X103201651Y-53041970D01*
X103270554Y-53053556D01*
X103278374Y-53057706D01*
X103287515Y-53062984D01*
X103427525Y-53100500D01*
X103427528Y-53100500D01*
X103513424Y-53100500D01*
X103580463Y-53120185D01*
X103626218Y-53172989D01*
X103636162Y-53242147D01*
X103633199Y-53256593D01*
X103622358Y-53297052D01*
X103622358Y-53442002D01*
X103656312Y-53568717D01*
X103659875Y-53582015D01*
X103732346Y-53707538D01*
X103732348Y-53707540D01*
X103732349Y-53707542D01*
X103834843Y-53810036D01*
X103834844Y-53810037D01*
X103834846Y-53810038D01*
X103960369Y-53882509D01*
X103960370Y-53882509D01*
X103960373Y-53882511D01*
X104100383Y-53920027D01*
X104100386Y-53920027D01*
X104245330Y-53920027D01*
X104245333Y-53920027D01*
X104385343Y-53882511D01*
X104510873Y-53810036D01*
X104613367Y-53707542D01*
X104685842Y-53582012D01*
X104723358Y-53442002D01*
X104723358Y-53297052D01*
X105222358Y-53297052D01*
X105222358Y-53442002D01*
X105256312Y-53568717D01*
X105259875Y-53582015D01*
X105332346Y-53707538D01*
X105332348Y-53707540D01*
X105332349Y-53707542D01*
X105434843Y-53810036D01*
X105434844Y-53810037D01*
X105434846Y-53810038D01*
X105560369Y-53882509D01*
X105560370Y-53882509D01*
X105560373Y-53882511D01*
X105700383Y-53920027D01*
X105700386Y-53920027D01*
X105845330Y-53920027D01*
X105845333Y-53920027D01*
X105985343Y-53882511D01*
X106110873Y-53810036D01*
X106213367Y-53707542D01*
X106285842Y-53582012D01*
X106323358Y-53442002D01*
X106323358Y-53297052D01*
X106822358Y-53297052D01*
X106822358Y-53442002D01*
X106856312Y-53568717D01*
X106859875Y-53582015D01*
X106932346Y-53707538D01*
X106932348Y-53707540D01*
X106932349Y-53707542D01*
X107034843Y-53810036D01*
X107034844Y-53810037D01*
X107034846Y-53810038D01*
X107160369Y-53882509D01*
X107160370Y-53882509D01*
X107160373Y-53882511D01*
X107300383Y-53920027D01*
X107300386Y-53920027D01*
X107445330Y-53920027D01*
X107445333Y-53920027D01*
X107585343Y-53882511D01*
X107710873Y-53810036D01*
X107813367Y-53707542D01*
X107885842Y-53582012D01*
X107923358Y-53442002D01*
X107923358Y-53297052D01*
X108422358Y-53297052D01*
X108422358Y-53442002D01*
X108456312Y-53568717D01*
X108459875Y-53582015D01*
X108532346Y-53707538D01*
X108532348Y-53707540D01*
X108532349Y-53707542D01*
X108634843Y-53810036D01*
X108634844Y-53810037D01*
X108634846Y-53810038D01*
X108760369Y-53882509D01*
X108760370Y-53882509D01*
X108760373Y-53882511D01*
X108900383Y-53920027D01*
X108900386Y-53920027D01*
X109045330Y-53920027D01*
X109045333Y-53920027D01*
X109185343Y-53882511D01*
X109310873Y-53810036D01*
X109413367Y-53707542D01*
X109485842Y-53582012D01*
X109523358Y-53442002D01*
X109523358Y-53297052D01*
X110022358Y-53297052D01*
X110022358Y-53442002D01*
X110056312Y-53568717D01*
X110059875Y-53582015D01*
X110132346Y-53707538D01*
X110132348Y-53707540D01*
X110132349Y-53707542D01*
X110234843Y-53810036D01*
X110234844Y-53810037D01*
X110234846Y-53810038D01*
X110360369Y-53882509D01*
X110360370Y-53882509D01*
X110360373Y-53882511D01*
X110500383Y-53920027D01*
X110500386Y-53920027D01*
X110645330Y-53920027D01*
X110645333Y-53920027D01*
X110785343Y-53882511D01*
X110910873Y-53810036D01*
X111013367Y-53707542D01*
X111085842Y-53582012D01*
X111123358Y-53442002D01*
X111123358Y-53297052D01*
X111085842Y-53157042D01*
X111070529Y-53130520D01*
X111013369Y-53031515D01*
X111013364Y-53031509D01*
X110910875Y-52929020D01*
X110910869Y-52929015D01*
X110785346Y-52856544D01*
X110785347Y-52856544D01*
X110773864Y-52853467D01*
X110645333Y-52819027D01*
X110500383Y-52819027D01*
X110371851Y-52853467D01*
X110360369Y-52856544D01*
X110234846Y-52929015D01*
X110234840Y-52929020D01*
X110132351Y-53031509D01*
X110132346Y-53031515D01*
X110059875Y-53157038D01*
X110059874Y-53157042D01*
X110022358Y-53297052D01*
X109523358Y-53297052D01*
X109485842Y-53157042D01*
X109470529Y-53130520D01*
X109413369Y-53031515D01*
X109413364Y-53031509D01*
X109310875Y-52929020D01*
X109310869Y-52929015D01*
X109185346Y-52856544D01*
X109185347Y-52856544D01*
X109173864Y-52853467D01*
X109045333Y-52819027D01*
X108900383Y-52819027D01*
X108771851Y-52853467D01*
X108760369Y-52856544D01*
X108634846Y-52929015D01*
X108634840Y-52929020D01*
X108532351Y-53031509D01*
X108532346Y-53031515D01*
X108459875Y-53157038D01*
X108459874Y-53157042D01*
X108422358Y-53297052D01*
X107923358Y-53297052D01*
X107885842Y-53157042D01*
X107870529Y-53130520D01*
X107813369Y-53031515D01*
X107813364Y-53031509D01*
X107710875Y-52929020D01*
X107710869Y-52929015D01*
X107585346Y-52856544D01*
X107585347Y-52856544D01*
X107573864Y-52853467D01*
X107445333Y-52819027D01*
X107300383Y-52819027D01*
X107171851Y-52853467D01*
X107160369Y-52856544D01*
X107034846Y-52929015D01*
X107034840Y-52929020D01*
X106932351Y-53031509D01*
X106932346Y-53031515D01*
X106859875Y-53157038D01*
X106859874Y-53157042D01*
X106822358Y-53297052D01*
X106323358Y-53297052D01*
X106285842Y-53157042D01*
X106270529Y-53130520D01*
X106213369Y-53031515D01*
X106213364Y-53031509D01*
X106110875Y-52929020D01*
X106110869Y-52929015D01*
X105985346Y-52856544D01*
X105985347Y-52856544D01*
X105973864Y-52853467D01*
X105845333Y-52819027D01*
X105700383Y-52819027D01*
X105571851Y-52853467D01*
X105560369Y-52856544D01*
X105434846Y-52929015D01*
X105434840Y-52929020D01*
X105332351Y-53031509D01*
X105332346Y-53031515D01*
X105259875Y-53157038D01*
X105259874Y-53157042D01*
X105222358Y-53297052D01*
X104723358Y-53297052D01*
X104685842Y-53157042D01*
X104670529Y-53130520D01*
X104613369Y-53031515D01*
X104613364Y-53031509D01*
X104510875Y-52929020D01*
X104510869Y-52929015D01*
X104385346Y-52856544D01*
X104385347Y-52856544D01*
X104373864Y-52853467D01*
X104245333Y-52819027D01*
X104159434Y-52819027D01*
X104092395Y-52799342D01*
X104046640Y-52746538D01*
X104036696Y-52677380D01*
X104039659Y-52662934D01*
X104040314Y-52660485D01*
X104050500Y-52622475D01*
X104050500Y-52477525D01*
X104012984Y-52337515D01*
X104012203Y-52336163D01*
X103940511Y-52211988D01*
X103940506Y-52211982D01*
X103838017Y-52109493D01*
X103838011Y-52109488D01*
X103712488Y-52037017D01*
X103712489Y-52037017D01*
X103701006Y-52033940D01*
X103572475Y-51999500D01*
X103427525Y-51999500D01*
X103298993Y-52033940D01*
X103287511Y-52037017D01*
X103161988Y-52109488D01*
X103161982Y-52109493D01*
X103059493Y-52211982D01*
X103059488Y-52211988D01*
X102987017Y-52337511D01*
X102987016Y-52337515D01*
X102949500Y-52477525D01*
X102949500Y-52477527D01*
X102949500Y-52622474D01*
X102976259Y-52722340D01*
X102974596Y-52792189D01*
X102935433Y-52850052D01*
X102871205Y-52877556D01*
X102802303Y-52865970D01*
X102794484Y-52861820D01*
X102785346Y-52856544D01*
X102785347Y-52856544D01*
X102773864Y-52853467D01*
X102645333Y-52819027D01*
X102500383Y-52819027D01*
X102371851Y-52853467D01*
X102360369Y-52856544D01*
X102234846Y-52929015D01*
X102234840Y-52929020D01*
X102132351Y-53031509D01*
X102132346Y-53031515D01*
X102059875Y-53157038D01*
X102059874Y-53157042D01*
X102022358Y-53297052D01*
X102022358Y-53297054D01*
X102022358Y-53450129D01*
X102019840Y-53450129D01*
X102011007Y-53506697D01*
X101964617Y-53558944D01*
X101897345Y-53577817D01*
X101866754Y-53573601D01*
X101832593Y-53564448D01*
X101687643Y-53564448D01*
X101679448Y-53566644D01*
X101609599Y-53564979D01*
X101551737Y-53525815D01*
X101524235Y-53461586D01*
X101523358Y-53446868D01*
X101523358Y-53297054D01*
X101523358Y-53297052D01*
X101485842Y-53157042D01*
X101470529Y-53130520D01*
X101413369Y-53031515D01*
X101413364Y-53031509D01*
X101310875Y-52929020D01*
X101310869Y-52929015D01*
X101185346Y-52856544D01*
X101185347Y-52856544D01*
X101173864Y-52853467D01*
X101045333Y-52819027D01*
X100900383Y-52819027D01*
X100771851Y-52853467D01*
X100760369Y-52856544D01*
X100634846Y-52929015D01*
X100634840Y-52929020D01*
X100532351Y-53031509D01*
X100532346Y-53031515D01*
X100459875Y-53157038D01*
X100459874Y-53157042D01*
X100422358Y-53297052D01*
X100422358Y-53442002D01*
X100456312Y-53568717D01*
X100459875Y-53582015D01*
X100532346Y-53707538D01*
X100532348Y-53707540D01*
X100532349Y-53707542D01*
X100634843Y-53810036D01*
X100634844Y-53810037D01*
X100634846Y-53810038D01*
X100760369Y-53882509D01*
X100760370Y-53882509D01*
X100760373Y-53882511D01*
X100900383Y-53920027D01*
X100900386Y-53920027D01*
X101045330Y-53920027D01*
X101045333Y-53920027D01*
X101053524Y-53917832D01*
X101123370Y-53919493D01*
X101181234Y-53958653D01*
X101208741Y-54022881D01*
X101209618Y-54037606D01*
X101209618Y-54187422D01*
X101243791Y-54314959D01*
X101242128Y-54384809D01*
X101202965Y-54442671D01*
X101138737Y-54470175D01*
X101091925Y-54466827D01*
X101033593Y-54451197D01*
X100888643Y-54451197D01*
X100768648Y-54483350D01*
X100748629Y-54488714D01*
X100623106Y-54561185D01*
X100623100Y-54561190D01*
X100520611Y-54663679D01*
X100520606Y-54663685D01*
X100448135Y-54789208D01*
X100444792Y-54801686D01*
X100410618Y-54929222D01*
X100410618Y-54929224D01*
X100410618Y-54976747D01*
X100390933Y-55043786D01*
X100338129Y-55089541D01*
X100277142Y-55098682D01*
X100277142Y-55099500D01*
X100271688Y-55099500D01*
X100270440Y-55099687D01*
X100269019Y-55099500D01*
X100269015Y-55099500D01*
X100124065Y-55099500D01*
X100124063Y-55099500D01*
X100067683Y-55114607D01*
X99997834Y-55112944D01*
X99939971Y-55073781D01*
X99912468Y-55009552D01*
X99911591Y-54994832D01*
X99911591Y-54930823D01*
X99911591Y-54930821D01*
X99874075Y-54790811D01*
X99872883Y-54788747D01*
X99801602Y-54665284D01*
X99801597Y-54665278D01*
X99699108Y-54562789D01*
X99699102Y-54562784D01*
X99573579Y-54490313D01*
X99573580Y-54490313D01*
X99554595Y-54485226D01*
X99433566Y-54452796D01*
X99288616Y-54452796D01*
X99167587Y-54485226D01*
X99148602Y-54490313D01*
X99023079Y-54562784D01*
X99023073Y-54562789D01*
X98920584Y-54665278D01*
X98920579Y-54665284D01*
X98848108Y-54790807D01*
X98848107Y-54790811D01*
X98810591Y-54930821D01*
X98810591Y-55075771D01*
X98845169Y-55204817D01*
X98848108Y-55215784D01*
X98920579Y-55341307D01*
X98920581Y-55341309D01*
X98920582Y-55341311D01*
X99023076Y-55443805D01*
X99054248Y-55461802D01*
X99065171Y-55473258D01*
X99079131Y-55480718D01*
X99088786Y-55498025D01*
X99102463Y-55512370D01*
X99105458Y-55527912D01*
X99113170Y-55541736D01*
X99111934Y-55561518D01*
X99115685Y-55580977D01*
X99109802Y-55595670D01*
X99108816Y-55611470D01*
X99097083Y-55627442D01*
X99089717Y-55645842D01*
X99076304Y-55655728D01*
X99067452Y-55667780D01*
X99044967Y-55678828D01*
X99036630Y-55684974D01*
X99030585Y-55687290D01*
X98986555Y-55699089D01*
X98968854Y-55709309D01*
X98960382Y-55714200D01*
X98960375Y-55714203D01*
X98895233Y-55751814D01*
X98895227Y-55751818D01*
X98820661Y-55826385D01*
X96862687Y-57784358D01*
X96801364Y-57817843D01*
X96731672Y-57812859D01*
X96675739Y-57770987D01*
X96651322Y-57705523D01*
X96666174Y-57637250D01*
X96667579Y-57634746D01*
X96669290Y-57631784D01*
X96710213Y-57479057D01*
X96710213Y-57320943D01*
X96669290Y-57168216D01*
X96664251Y-57159488D01*
X96590237Y-57031290D01*
X96590231Y-57031282D01*
X96478430Y-56919481D01*
X96478422Y-56919475D01*
X96341503Y-56840426D01*
X96341499Y-56840424D01*
X96341497Y-56840423D01*
X96188770Y-56799500D01*
X96030656Y-56799500D01*
X95877929Y-56840423D01*
X95877922Y-56840426D01*
X95741003Y-56919475D01*
X95740995Y-56919481D01*
X95629194Y-57031282D01*
X95629188Y-57031290D01*
X95550139Y-57168209D01*
X95550136Y-57168216D01*
X95509213Y-57320943D01*
X89239277Y-57320943D01*
X89250500Y-57279057D01*
X89250500Y-57120943D01*
X89209577Y-56968216D01*
X89194044Y-56941311D01*
X89130524Y-56831290D01*
X89130518Y-56831282D01*
X89018717Y-56719481D01*
X89018709Y-56719475D01*
X88881790Y-56640426D01*
X88881786Y-56640424D01*
X88881784Y-56640423D01*
X88729057Y-56599500D01*
X88570943Y-56599500D01*
X88418216Y-56640423D01*
X88418209Y-56640426D01*
X88281290Y-56719475D01*
X88281282Y-56719481D01*
X88169481Y-56831282D01*
X88169475Y-56831290D01*
X88090426Y-56968209D01*
X88090423Y-56968216D01*
X88049500Y-57120943D01*
X86650500Y-57120943D01*
X86650500Y-54620943D01*
X87699500Y-54620943D01*
X87699500Y-54779057D01*
X87739693Y-54929057D01*
X87740423Y-54931783D01*
X87740426Y-54931790D01*
X87819475Y-55068709D01*
X87819479Y-55068714D01*
X87819480Y-55068716D01*
X87931284Y-55180520D01*
X87931286Y-55180521D01*
X87931290Y-55180524D01*
X88050762Y-55249500D01*
X88068216Y-55259577D01*
X88220943Y-55300500D01*
X88220945Y-55300500D01*
X88379055Y-55300500D01*
X88379057Y-55300500D01*
X88531784Y-55259577D01*
X88668716Y-55180520D01*
X88780520Y-55068716D01*
X88859577Y-54931784D01*
X88889277Y-54820943D01*
X89499500Y-54820943D01*
X89499500Y-54979057D01*
X89537077Y-55119294D01*
X89540423Y-55131783D01*
X89540426Y-55131790D01*
X89619475Y-55268709D01*
X89619481Y-55268717D01*
X89713083Y-55362319D01*
X89746568Y-55423642D01*
X89741584Y-55493334D01*
X89713083Y-55537681D01*
X89669481Y-55581282D01*
X89669475Y-55581290D01*
X89590426Y-55718209D01*
X89590423Y-55718216D01*
X89549500Y-55870943D01*
X89549500Y-56029057D01*
X89589283Y-56177527D01*
X89590423Y-56181783D01*
X89590426Y-56181790D01*
X89669475Y-56318709D01*
X89669479Y-56318714D01*
X89669480Y-56318716D01*
X89781284Y-56430520D01*
X89781286Y-56430521D01*
X89781290Y-56430524D01*
X89918209Y-56509573D01*
X89918216Y-56509577D01*
X90070943Y-56550500D01*
X90070945Y-56550500D01*
X90229055Y-56550500D01*
X90229057Y-56550500D01*
X90381784Y-56509577D01*
X90518716Y-56430520D01*
X90630520Y-56318716D01*
X90709577Y-56181784D01*
X90750500Y-56029057D01*
X90750500Y-55870943D01*
X90723705Y-55770943D01*
X95599500Y-55770943D01*
X95599500Y-55929057D01*
X95639203Y-56077229D01*
X95640423Y-56081783D01*
X95640426Y-56081790D01*
X95719475Y-56218709D01*
X95719479Y-56218714D01*
X95719480Y-56218716D01*
X95831284Y-56330520D01*
X95831286Y-56330521D01*
X95831290Y-56330524D01*
X95932942Y-56389212D01*
X95968216Y-56409577D01*
X96120943Y-56450500D01*
X96120945Y-56450500D01*
X96279055Y-56450500D01*
X96279057Y-56450500D01*
X96431784Y-56409577D01*
X96568716Y-56330520D01*
X96680520Y-56218716D01*
X96759577Y-56081784D01*
X96800500Y-55929057D01*
X96800500Y-55770943D01*
X96759577Y-55618216D01*
X96738258Y-55581290D01*
X96680524Y-55481290D01*
X96680518Y-55481282D01*
X96568717Y-55369481D01*
X96568709Y-55369475D01*
X96431790Y-55290426D01*
X96431786Y-55290424D01*
X96431784Y-55290423D01*
X96279057Y-55249500D01*
X96120943Y-55249500D01*
X95968216Y-55290423D01*
X95968209Y-55290426D01*
X95831290Y-55369475D01*
X95831282Y-55369481D01*
X95719481Y-55481282D01*
X95719475Y-55481290D01*
X95640426Y-55618209D01*
X95640423Y-55618216D01*
X95599500Y-55770943D01*
X90723705Y-55770943D01*
X90709577Y-55718216D01*
X90704435Y-55709309D01*
X90630524Y-55581290D01*
X90630518Y-55581282D01*
X90536917Y-55487681D01*
X90503432Y-55426358D01*
X90508416Y-55356666D01*
X90536917Y-55312319D01*
X90548737Y-55300499D01*
X90580520Y-55268716D01*
X90659577Y-55131784D01*
X90700500Y-54979057D01*
X90700500Y-54820943D01*
X90659577Y-54668216D01*
X90657884Y-54665284D01*
X90580524Y-54531290D01*
X90580518Y-54531282D01*
X90468717Y-54419481D01*
X90468709Y-54419475D01*
X90331790Y-54340426D01*
X90331786Y-54340424D01*
X90331784Y-54340423D01*
X90179057Y-54299500D01*
X90020943Y-54299500D01*
X89868216Y-54340423D01*
X89868209Y-54340426D01*
X89731290Y-54419475D01*
X89731282Y-54419481D01*
X89619481Y-54531282D01*
X89619475Y-54531290D01*
X89540426Y-54668209D01*
X89540423Y-54668216D01*
X89499500Y-54820943D01*
X88889277Y-54820943D01*
X88900500Y-54779057D01*
X88900500Y-54620943D01*
X88859577Y-54468216D01*
X88849751Y-54451197D01*
X88780524Y-54331290D01*
X88780518Y-54331282D01*
X88668717Y-54219481D01*
X88668709Y-54219475D01*
X88531790Y-54140426D01*
X88531786Y-54140424D01*
X88531784Y-54140423D01*
X88379057Y-54099500D01*
X88220943Y-54099500D01*
X88068216Y-54140423D01*
X88068209Y-54140426D01*
X87931290Y-54219475D01*
X87931282Y-54219481D01*
X87819481Y-54331282D01*
X87819475Y-54331290D01*
X87740426Y-54468209D01*
X87740423Y-54468216D01*
X87699500Y-54620943D01*
X86650500Y-54620943D01*
X86650500Y-53120943D01*
X90549500Y-53120943D01*
X90549500Y-53279057D01*
X90554323Y-53297054D01*
X90590423Y-53431783D01*
X90590426Y-53431790D01*
X90669475Y-53568709D01*
X90669479Y-53568714D01*
X90669480Y-53568716D01*
X90781284Y-53680520D01*
X90781286Y-53680521D01*
X90781290Y-53680524D01*
X90925254Y-53763641D01*
X90924895Y-53764262D01*
X90957570Y-53786095D01*
X92213905Y-55042430D01*
X92235737Y-55075105D01*
X92236359Y-55074746D01*
X92319477Y-55218712D01*
X92319479Y-55218715D01*
X92319480Y-55218716D01*
X92431284Y-55330520D01*
X92431286Y-55330521D01*
X92431290Y-55330524D01*
X92498765Y-55369480D01*
X92568216Y-55409577D01*
X92720943Y-55450500D01*
X92720945Y-55450500D01*
X92879055Y-55450500D01*
X92879057Y-55450500D01*
X93031784Y-55409577D01*
X93168716Y-55330520D01*
X93280520Y-55218716D01*
X93359577Y-55081784D01*
X93400500Y-54929057D01*
X93400500Y-54770943D01*
X93359577Y-54618216D01*
X93327577Y-54562789D01*
X93280524Y-54481290D01*
X93280518Y-54481282D01*
X93168717Y-54369481D01*
X93168712Y-54369477D01*
X93024746Y-54286359D01*
X93025105Y-54285737D01*
X92992430Y-54263905D01*
X92037476Y-53308951D01*
X98819604Y-53308951D01*
X98819604Y-53453901D01*
X98857120Y-53593911D01*
X98857121Y-53593914D01*
X98929592Y-53719437D01*
X98929594Y-53719439D01*
X98929595Y-53719441D01*
X99032089Y-53821935D01*
X99032090Y-53821936D01*
X99032092Y-53821937D01*
X99157615Y-53894408D01*
X99157616Y-53894408D01*
X99157619Y-53894410D01*
X99297629Y-53931926D01*
X99297632Y-53931926D01*
X99442576Y-53931926D01*
X99442579Y-53931926D01*
X99582589Y-53894410D01*
X99708119Y-53821935D01*
X99810613Y-53719441D01*
X99883088Y-53593911D01*
X99920604Y-53453901D01*
X99920604Y-53308951D01*
X99883088Y-53168941D01*
X99860904Y-53130518D01*
X99810615Y-53043414D01*
X99810610Y-53043408D01*
X99708121Y-52940919D01*
X99708115Y-52940914D01*
X99582592Y-52868443D01*
X99582593Y-52868443D01*
X99571110Y-52865366D01*
X99442579Y-52830926D01*
X99297629Y-52830926D01*
X99169097Y-52865366D01*
X99157615Y-52868443D01*
X99032092Y-52940914D01*
X99032086Y-52940919D01*
X98929597Y-53043408D01*
X98929592Y-53043414D01*
X98857121Y-53168937D01*
X98857120Y-53168941D01*
X98819604Y-53308951D01*
X92037476Y-53308951D01*
X91736095Y-53007570D01*
X91714262Y-52974895D01*
X91713641Y-52975254D01*
X91630524Y-52831290D01*
X91630518Y-52831282D01*
X91518717Y-52719481D01*
X91518709Y-52719475D01*
X91381790Y-52640426D01*
X91381786Y-52640424D01*
X91381784Y-52640423D01*
X91229057Y-52599500D01*
X91070943Y-52599500D01*
X90918216Y-52640423D01*
X90918209Y-52640426D01*
X90781290Y-52719475D01*
X90781282Y-52719481D01*
X90669481Y-52831282D01*
X90669475Y-52831290D01*
X90590426Y-52968209D01*
X90590423Y-52968216D01*
X90549500Y-53120943D01*
X86650500Y-53120943D01*
X86650500Y-51620943D01*
X87699500Y-51620943D01*
X87699500Y-51779057D01*
X87731244Y-51897525D01*
X87740423Y-51931783D01*
X87740426Y-51931790D01*
X87819475Y-52068709D01*
X87819479Y-52068714D01*
X87819480Y-52068716D01*
X87931284Y-52180520D01*
X87931286Y-52180521D01*
X87931290Y-52180524D01*
X88012149Y-52227207D01*
X88068216Y-52259577D01*
X88220943Y-52300500D01*
X88220945Y-52300500D01*
X88379055Y-52300500D01*
X88379057Y-52300500D01*
X88531784Y-52259577D01*
X88668716Y-52180520D01*
X88780520Y-52068716D01*
X88859577Y-51931784D01*
X88900500Y-51779057D01*
X88900500Y-51620943D01*
X88859577Y-51468216D01*
X88827114Y-51411988D01*
X88780524Y-51331290D01*
X88780518Y-51331282D01*
X88668717Y-51219481D01*
X88668709Y-51219475D01*
X88531790Y-51140426D01*
X88531786Y-51140424D01*
X88531784Y-51140423D01*
X88379057Y-51099500D01*
X88220943Y-51099500D01*
X88068216Y-51140423D01*
X88068209Y-51140426D01*
X87931290Y-51219475D01*
X87931282Y-51219481D01*
X87819481Y-51331282D01*
X87819475Y-51331290D01*
X87740426Y-51468209D01*
X87740423Y-51468216D01*
X87699500Y-51620943D01*
X86650500Y-51620943D01*
X86650500Y-49570943D01*
X90299500Y-49570943D01*
X90299500Y-49729057D01*
X90339283Y-49877527D01*
X90340423Y-49881783D01*
X90340426Y-49881790D01*
X90419475Y-50018709D01*
X90419479Y-50018714D01*
X90419480Y-50018716D01*
X90531284Y-50130520D01*
X90531286Y-50130521D01*
X90531290Y-50130524D01*
X90643425Y-50195264D01*
X90668216Y-50209577D01*
X90820943Y-50250500D01*
X90820945Y-50250500D01*
X90979055Y-50250500D01*
X90979057Y-50250500D01*
X91131784Y-50209577D01*
X91268716Y-50130520D01*
X91380520Y-50018716D01*
X91459577Y-49881784D01*
X91500500Y-49729057D01*
X91500500Y-49570943D01*
X91459577Y-49418216D01*
X91451666Y-49404514D01*
X91380524Y-49281290D01*
X91380518Y-49281282D01*
X91268717Y-49169481D01*
X91268709Y-49169475D01*
X91131790Y-49090426D01*
X91131786Y-49090424D01*
X91131784Y-49090423D01*
X90979057Y-49049500D01*
X90820943Y-49049500D01*
X90668216Y-49090423D01*
X90668215Y-49090423D01*
X90556036Y-49155188D01*
X90556030Y-49155192D01*
X90531284Y-49169480D01*
X90469500Y-49231263D01*
X90469484Y-49231278D01*
X90419481Y-49281282D01*
X90419475Y-49281290D01*
X90340426Y-49418209D01*
X90340423Y-49418216D01*
X90299500Y-49570943D01*
X86650500Y-49570943D01*
X86650500Y-48292803D01*
X86670185Y-48225764D01*
X86722989Y-48180009D01*
X86792147Y-48170065D01*
X86855703Y-48199090D01*
X86889061Y-48245351D01*
X86922191Y-48325336D01*
X86922199Y-48325352D01*
X87066420Y-48575148D01*
X87066431Y-48575164D01*
X87242024Y-48804002D01*
X87242030Y-48804009D01*
X87445990Y-49007969D01*
X87445997Y-49007975D01*
X87530055Y-49072475D01*
X87674844Y-49183575D01*
X87674851Y-49183579D01*
X87924647Y-49327800D01*
X87924663Y-49327808D01*
X88191139Y-49438185D01*
X88191145Y-49438186D01*
X88191155Y-49438191D01*
X88469783Y-49512849D01*
X88755772Y-49550500D01*
X88755779Y-49550500D01*
X89044221Y-49550500D01*
X89044228Y-49550500D01*
X89330217Y-49512849D01*
X89608845Y-49438191D01*
X89608857Y-49438185D01*
X89608860Y-49438185D01*
X89875336Y-49327808D01*
X89875339Y-49327806D01*
X89875345Y-49327804D01*
X90125156Y-49183575D01*
X90354004Y-49007974D01*
X90557974Y-48804004D01*
X90733575Y-48575156D01*
X90877804Y-48325345D01*
X90878092Y-48324651D01*
X90988185Y-48058860D01*
X90988185Y-48058857D01*
X90988191Y-48058845D01*
X91062849Y-47780217D01*
X91100500Y-47494228D01*
X91100500Y-47205772D01*
X91062849Y-46919783D01*
X90988191Y-46641155D01*
X90979839Y-46620993D01*
X90972370Y-46551525D01*
X91003644Y-46489045D01*
X91063732Y-46453391D01*
X91133557Y-46455884D01*
X91156395Y-46466149D01*
X91237515Y-46512984D01*
X91377525Y-46550500D01*
X91377528Y-46550500D01*
X91530500Y-46550500D01*
X91597539Y-46570185D01*
X91643294Y-46622989D01*
X91654500Y-46674500D01*
X91654500Y-47594856D01*
X91654502Y-47594882D01*
X91657413Y-47619987D01*
X91657415Y-47619991D01*
X91702793Y-47722764D01*
X91702794Y-47722765D01*
X91782235Y-47802206D01*
X91830588Y-47823556D01*
X91883962Y-47868640D01*
X91904490Y-47935426D01*
X91904500Y-47936989D01*
X91904500Y-51627475D01*
X91907106Y-51637201D01*
X91939343Y-51757511D01*
X91942016Y-51767485D01*
X92014489Y-51893013D01*
X92014491Y-51893016D01*
X92213905Y-52092430D01*
X92235737Y-52125105D01*
X92236359Y-52124746D01*
X92319477Y-52268712D01*
X92319479Y-52268715D01*
X92319480Y-52268716D01*
X92431284Y-52380520D01*
X92431286Y-52380521D01*
X92431290Y-52380524D01*
X92568209Y-52459573D01*
X92568216Y-52459577D01*
X92720943Y-52500500D01*
X92720945Y-52500500D01*
X92879055Y-52500500D01*
X92879057Y-52500500D01*
X93031784Y-52459577D01*
X93168716Y-52380520D01*
X93226445Y-52322790D01*
X93287764Y-52289308D01*
X93357456Y-52294292D01*
X93413390Y-52336163D01*
X93437807Y-52401627D01*
X93433898Y-52442567D01*
X93429340Y-52459577D01*
X93399500Y-52570943D01*
X93399500Y-52729057D01*
X93436849Y-52868443D01*
X93440423Y-52881783D01*
X93440426Y-52881790D01*
X93519475Y-53018709D01*
X93519479Y-53018714D01*
X93519480Y-53018716D01*
X93631284Y-53130520D01*
X93631286Y-53130521D01*
X93631290Y-53130524D01*
X93768209Y-53209573D01*
X93768216Y-53209577D01*
X93920943Y-53250500D01*
X93920945Y-53250500D01*
X94079055Y-53250500D01*
X94079057Y-53250500D01*
X94231784Y-53209577D01*
X94368716Y-53130520D01*
X94480520Y-53018716D01*
X94559577Y-52881784D01*
X94600500Y-52729057D01*
X94600500Y-52570943D01*
X94559577Y-52418216D01*
X94555126Y-52410506D01*
X94480524Y-52281290D01*
X94480518Y-52281282D01*
X94368717Y-52169481D01*
X94368709Y-52169475D01*
X94231790Y-52090426D01*
X94231786Y-52090424D01*
X94231784Y-52090423D01*
X94079057Y-52049500D01*
X93920943Y-52049500D01*
X93768216Y-52090423D01*
X93768209Y-52090426D01*
X93631290Y-52169475D01*
X93631286Y-52169478D01*
X93573557Y-52227207D01*
X93512233Y-52260691D01*
X93442542Y-52255706D01*
X93386608Y-52213835D01*
X93362192Y-52148370D01*
X93366100Y-52107438D01*
X93400500Y-51979057D01*
X93400500Y-51820943D01*
X93359577Y-51668216D01*
X93338659Y-51631985D01*
X93280524Y-51531290D01*
X93280518Y-51531282D01*
X93168717Y-51419481D01*
X93168712Y-51419477D01*
X93067500Y-51361042D01*
X93059216Y-51352354D01*
X93048297Y-51347368D01*
X93035552Y-51327536D01*
X93019284Y-51310475D01*
X93016068Y-51297218D01*
X93010523Y-51288590D01*
X93005500Y-51253655D01*
X93005500Y-51251539D01*
X93025185Y-51184500D01*
X93077989Y-51138745D01*
X93147147Y-51128801D01*
X93191500Y-51144152D01*
X93218216Y-51159577D01*
X93370943Y-51200500D01*
X93370945Y-51200500D01*
X93529055Y-51200500D01*
X93529057Y-51200500D01*
X93681784Y-51159577D01*
X93818716Y-51080520D01*
X93930520Y-50968716D01*
X93983169Y-50877525D01*
X103799500Y-50877525D01*
X103799500Y-51022475D01*
X103836236Y-51159573D01*
X103837017Y-51162488D01*
X103909488Y-51288011D01*
X103909490Y-51288013D01*
X103909491Y-51288015D01*
X104011985Y-51390509D01*
X104028675Y-51400145D01*
X104076891Y-51450712D01*
X104090113Y-51519319D01*
X104086450Y-51539625D01*
X104061702Y-51631988D01*
X104049500Y-51677525D01*
X104049500Y-51822475D01*
X104087016Y-51962485D01*
X104087017Y-51962488D01*
X104159488Y-52088011D01*
X104159490Y-52088013D01*
X104159491Y-52088015D01*
X104261985Y-52190509D01*
X104261986Y-52190510D01*
X104261988Y-52190511D01*
X104387511Y-52262982D01*
X104387512Y-52262982D01*
X104387515Y-52262984D01*
X104527525Y-52300500D01*
X104527528Y-52300500D01*
X104672472Y-52300500D01*
X104672475Y-52300500D01*
X104812485Y-52262984D01*
X104938015Y-52190509D01*
X105040509Y-52088015D01*
X105112984Y-51962485D01*
X105150500Y-51822475D01*
X105150500Y-51677525D01*
X105112984Y-51537515D01*
X105109385Y-51531282D01*
X105040511Y-51411988D01*
X105040506Y-51411982D01*
X104999226Y-51370702D01*
X104938015Y-51309491D01*
X104910949Y-51293864D01*
X104904342Y-51288113D01*
X106037986Y-51288113D01*
X106037986Y-51433063D01*
X106066540Y-51539625D01*
X106075503Y-51573076D01*
X106147974Y-51698599D01*
X106147976Y-51698601D01*
X106147977Y-51698603D01*
X106250471Y-51801097D01*
X106287501Y-51822476D01*
X106335715Y-51873041D01*
X106349500Y-51929862D01*
X106349500Y-52042475D01*
X106386491Y-52180524D01*
X106387017Y-52182488D01*
X106459488Y-52308011D01*
X106459490Y-52308013D01*
X106459491Y-52308015D01*
X106561985Y-52410509D01*
X106561986Y-52410510D01*
X106561988Y-52410511D01*
X106687511Y-52482982D01*
X106687512Y-52482982D01*
X106687515Y-52482984D01*
X106827525Y-52520500D01*
X106827528Y-52520500D01*
X106972472Y-52520500D01*
X106972475Y-52520500D01*
X107112485Y-52482984D01*
X107238015Y-52410509D01*
X107340509Y-52308015D01*
X107412984Y-52182485D01*
X107450500Y-52042475D01*
X107450500Y-51897525D01*
X107412984Y-51757515D01*
X107343520Y-51637201D01*
X107340511Y-51631988D01*
X107340506Y-51631982D01*
X107238017Y-51529493D01*
X107238015Y-51529491D01*
X107200984Y-51508110D01*
X107152770Y-51457544D01*
X107138986Y-51400725D01*
X107138986Y-51288115D01*
X107138986Y-51288113D01*
X107101470Y-51148103D01*
X107099189Y-51144153D01*
X107028997Y-51022576D01*
X107028992Y-51022570D01*
X106933947Y-50927525D01*
X107949500Y-50927525D01*
X107949500Y-51072475D01*
X107983805Y-51200500D01*
X107987017Y-51212488D01*
X108059488Y-51338011D01*
X108059490Y-51338013D01*
X108059491Y-51338015D01*
X108161985Y-51440509D01*
X108161986Y-51440510D01*
X108161988Y-51440511D01*
X108287511Y-51512982D01*
X108287512Y-51512982D01*
X108287515Y-51512984D01*
X108427525Y-51550500D01*
X108427528Y-51550500D01*
X108572472Y-51550500D01*
X108572475Y-51550500D01*
X108712485Y-51512984D01*
X108838015Y-51440509D01*
X108940509Y-51338015D01*
X109012984Y-51212485D01*
X109050500Y-51072475D01*
X109050500Y-50927525D01*
X109012984Y-50787515D01*
X108984116Y-50737515D01*
X108940511Y-50661988D01*
X108940506Y-50661982D01*
X108838017Y-50559493D01*
X108838011Y-50559488D01*
X108712488Y-50487017D01*
X108712489Y-50487017D01*
X108688167Y-50480500D01*
X108572475Y-50449500D01*
X108427525Y-50449500D01*
X108311833Y-50480500D01*
X108287511Y-50487017D01*
X108161988Y-50559488D01*
X108161982Y-50559493D01*
X108059493Y-50661982D01*
X108059488Y-50661988D01*
X107987017Y-50787511D01*
X107987016Y-50787515D01*
X107949500Y-50927525D01*
X106933947Y-50927525D01*
X106926503Y-50920081D01*
X106926497Y-50920076D01*
X106800974Y-50847605D01*
X106800975Y-50847605D01*
X106789492Y-50844528D01*
X106660961Y-50810088D01*
X106516011Y-50810088D01*
X106387479Y-50844528D01*
X106375997Y-50847605D01*
X106250474Y-50920076D01*
X106250468Y-50920081D01*
X106147979Y-51022570D01*
X106147974Y-51022576D01*
X106075503Y-51148099D01*
X106071069Y-51164643D01*
X106037986Y-51288113D01*
X104904342Y-51288113D01*
X104901912Y-51285998D01*
X104889282Y-51266248D01*
X104873108Y-51249285D01*
X104870810Y-51237365D01*
X104864269Y-51227136D01*
X104864321Y-51203692D01*
X104859886Y-51180678D01*
X104863547Y-51160383D01*
X104900500Y-51022475D01*
X104900500Y-50877525D01*
X104862984Y-50737515D01*
X104829231Y-50679054D01*
X104790511Y-50611988D01*
X104790506Y-50611982D01*
X104688017Y-50509493D01*
X104688011Y-50509488D01*
X104562488Y-50437017D01*
X104562489Y-50437017D01*
X104551006Y-50433940D01*
X104422475Y-50399500D01*
X104277525Y-50399500D01*
X104148993Y-50433940D01*
X104137511Y-50437017D01*
X104011988Y-50509488D01*
X104011982Y-50509493D01*
X103909493Y-50611982D01*
X103909488Y-50611988D01*
X103837017Y-50737511D01*
X103837016Y-50737515D01*
X103799500Y-50877525D01*
X93983169Y-50877525D01*
X94009577Y-50831784D01*
X94050500Y-50679057D01*
X94050500Y-50520943D01*
X94009577Y-50368216D01*
X93963275Y-50288017D01*
X93930524Y-50231290D01*
X93930518Y-50231282D01*
X93818717Y-50119481D01*
X93818709Y-50119475D01*
X93681790Y-50040426D01*
X93681786Y-50040424D01*
X93681784Y-50040423D01*
X93529057Y-49999500D01*
X93370943Y-49999500D01*
X93218216Y-50040423D01*
X93218215Y-50040423D01*
X93191499Y-50055848D01*
X93185597Y-50057279D01*
X93181011Y-50061254D01*
X93152042Y-50065419D01*
X93123599Y-50072319D01*
X93117863Y-50070333D01*
X93111853Y-50071198D01*
X93085227Y-50059038D01*
X93057572Y-50049467D01*
X93053819Y-50044694D01*
X93048297Y-50042173D01*
X93032473Y-50017550D01*
X93014382Y-49994545D01*
X93012965Y-49987195D01*
X93010523Y-49983395D01*
X93005500Y-49948460D01*
X93005500Y-49800943D01*
X97929500Y-49800943D01*
X97929500Y-49959057D01*
X97959849Y-50072319D01*
X97970423Y-50111783D01*
X97970426Y-50111790D01*
X98049475Y-50248709D01*
X98049479Y-50248714D01*
X98049480Y-50248716D01*
X98161284Y-50360520D01*
X98161286Y-50360521D01*
X98161290Y-50360524D01*
X98293780Y-50437016D01*
X98298216Y-50439577D01*
X98450943Y-50480500D01*
X98450945Y-50480500D01*
X98609055Y-50480500D01*
X98609057Y-50480500D01*
X98761784Y-50439577D01*
X98898716Y-50360520D01*
X99010520Y-50248716D01*
X99089577Y-50111784D01*
X99130500Y-49959057D01*
X99130500Y-49800943D01*
X99089577Y-49648216D01*
X99068659Y-49611985D01*
X99010524Y-49511290D01*
X99010518Y-49511282D01*
X98898717Y-49399481D01*
X98898709Y-49399475D01*
X98761790Y-49320426D01*
X98761786Y-49320424D01*
X98761784Y-49320423D01*
X98609057Y-49279500D01*
X98450943Y-49279500D01*
X98298216Y-49320423D01*
X98298209Y-49320426D01*
X98161290Y-49399475D01*
X98161282Y-49399481D01*
X98049481Y-49511282D01*
X98049475Y-49511290D01*
X97970426Y-49648209D01*
X97970423Y-49648216D01*
X97929500Y-49800943D01*
X93005500Y-49800943D01*
X93005500Y-47936989D01*
X93025185Y-47869950D01*
X93077989Y-47824195D01*
X93079295Y-47823607D01*
X93127765Y-47802206D01*
X93168813Y-47761157D01*
X93230134Y-47727673D01*
X93299825Y-47732657D01*
X93325378Y-47745734D01*
X93345821Y-47759394D01*
X93345823Y-47759395D01*
X93345825Y-47759396D01*
X93491498Y-47819735D01*
X93491503Y-47819737D01*
X93642865Y-47849845D01*
X93646153Y-47850499D01*
X93646156Y-47850500D01*
X93646158Y-47850500D01*
X93803844Y-47850500D01*
X93803845Y-47850499D01*
X93958497Y-47819737D01*
X94104179Y-47759394D01*
X94235289Y-47671789D01*
X94346789Y-47560289D01*
X94434394Y-47429179D01*
X94494737Y-47283497D01*
X94525500Y-47128842D01*
X94525500Y-46971158D01*
X94525500Y-46971155D01*
X94525499Y-46971153D01*
X94515280Y-46919780D01*
X94494737Y-46816503D01*
X94485627Y-46794510D01*
X94434397Y-46670827D01*
X94434390Y-46670814D01*
X94346789Y-46539711D01*
X94346786Y-46539707D01*
X94235292Y-46428213D01*
X94235288Y-46428210D01*
X94104185Y-46340609D01*
X94104172Y-46340602D01*
X93958501Y-46280264D01*
X93958489Y-46280261D01*
X93803845Y-46249500D01*
X93803842Y-46249500D01*
X93646158Y-46249500D01*
X93646155Y-46249500D01*
X93491510Y-46280261D01*
X93491498Y-46280264D01*
X93345827Y-46340602D01*
X93345811Y-46340611D01*
X93325381Y-46354262D01*
X93258703Y-46375139D01*
X93191324Y-46356653D01*
X93168811Y-46338840D01*
X93127765Y-46297794D01*
X93024992Y-46252415D01*
X92999868Y-46249500D01*
X92999865Y-46249500D01*
X92114666Y-46249500D01*
X92047627Y-46229815D01*
X92001872Y-46177011D01*
X91991928Y-46107853D01*
X91994891Y-46093407D01*
X92000500Y-46072475D01*
X92000500Y-45927525D01*
X91962984Y-45787515D01*
X91933202Y-45735932D01*
X91890511Y-45661988D01*
X91890506Y-45661982D01*
X91788017Y-45559493D01*
X91788011Y-45559488D01*
X91662488Y-45487017D01*
X91662489Y-45487017D01*
X91651006Y-45483940D01*
X91522475Y-45449500D01*
X91377525Y-45449500D01*
X91248993Y-45483940D01*
X91237511Y-45487017D01*
X91111988Y-45559488D01*
X91111982Y-45559493D01*
X91009493Y-45661982D01*
X91009488Y-45661988D01*
X90937017Y-45787511D01*
X90937016Y-45787515D01*
X90899500Y-45927525D01*
X90899500Y-45927527D01*
X90899500Y-45975789D01*
X90879815Y-46042828D01*
X90827011Y-46088583D01*
X90757853Y-46098527D01*
X90694297Y-46069502D01*
X90677124Y-46051275D01*
X90557975Y-45895997D01*
X90557969Y-45895990D01*
X90354009Y-45692030D01*
X90354002Y-45692024D01*
X90125164Y-45516431D01*
X90125162Y-45516429D01*
X90125156Y-45516425D01*
X90125151Y-45516422D01*
X90125148Y-45516420D01*
X89875352Y-45372199D01*
X89875336Y-45372191D01*
X89795351Y-45339061D01*
X89740947Y-45295220D01*
X89718882Y-45228926D01*
X89736161Y-45161227D01*
X89787298Y-45113616D01*
X89842803Y-45100500D01*
X99474052Y-45100500D01*
X99541091Y-45120185D01*
G37*
%TD.AperFunction*%
%TD*%
%TA.AperFunction,Conductor*%
%TO.N,VBUS*%
G36*
X91643039Y-61719685D02*
G01*
X91688794Y-61772489D01*
X91700000Y-61824000D01*
X91700000Y-64637772D01*
X91680315Y-64704811D01*
X91627511Y-64750566D01*
X91608095Y-64757546D01*
X91537643Y-64776424D01*
X91537638Y-64776426D01*
X91412115Y-64848897D01*
X91412109Y-64848902D01*
X91309620Y-64951391D01*
X91309615Y-64951397D01*
X91237144Y-65076920D01*
X91237143Y-65076924D01*
X91199627Y-65216934D01*
X91199627Y-65361884D01*
X91237143Y-65501894D01*
X91237144Y-65501897D01*
X91309615Y-65627420D01*
X91309617Y-65627422D01*
X91309618Y-65627424D01*
X91412112Y-65729918D01*
X91412113Y-65729919D01*
X91412115Y-65729920D01*
X91537638Y-65802391D01*
X91537639Y-65802391D01*
X91537642Y-65802393D01*
X91608096Y-65821271D01*
X91667754Y-65857635D01*
X91698283Y-65920482D01*
X91700000Y-65941045D01*
X91700000Y-67622114D01*
X91680315Y-67689153D01*
X91627511Y-67734908D01*
X91558353Y-67744852D01*
X91494797Y-67715827D01*
X91488319Y-67709795D01*
X91438017Y-67659493D01*
X91438011Y-67659488D01*
X91312488Y-67587017D01*
X91312489Y-67587017D01*
X91301006Y-67583940D01*
X91172475Y-67549500D01*
X91027525Y-67549500D01*
X90898993Y-67583940D01*
X90887511Y-67587017D01*
X90761988Y-67659488D01*
X90761982Y-67659493D01*
X90659493Y-67761982D01*
X90659488Y-67761988D01*
X90587017Y-67887511D01*
X90587016Y-67887515D01*
X90549500Y-68027525D01*
X90549500Y-68172475D01*
X90584917Y-68304652D01*
X90587017Y-68312488D01*
X90659488Y-68438011D01*
X90659490Y-68438013D01*
X90659491Y-68438015D01*
X90761985Y-68540509D01*
X90761986Y-68540510D01*
X90761988Y-68540511D01*
X90887511Y-68612982D01*
X90887512Y-68612982D01*
X90887515Y-68612984D01*
X91027525Y-68650500D01*
X91027528Y-68650500D01*
X91104040Y-68650500D01*
X91171079Y-68670185D01*
X91216834Y-68722989D01*
X91227444Y-68786646D01*
X91227000Y-68791156D01*
X91227000Y-69375980D01*
X91207315Y-69443019D01*
X91154511Y-69488774D01*
X91119188Y-69498919D01*
X91114773Y-69499500D01*
X91012913Y-69526793D01*
X91012910Y-69526794D01*
X90921585Y-69579521D01*
X90847021Y-69654085D01*
X90794294Y-69745410D01*
X90794293Y-69745413D01*
X90767000Y-69847273D01*
X90767000Y-69952727D01*
X90794293Y-70054587D01*
X90847020Y-70145913D01*
X90921587Y-70220480D01*
X91012913Y-70273207D01*
X91114773Y-70300500D01*
X91114775Y-70300500D01*
X91220225Y-70300500D01*
X91220227Y-70300500D01*
X91322087Y-70273207D01*
X91413413Y-70220480D01*
X91413413Y-70220479D01*
X91420452Y-70216416D01*
X91421480Y-70218197D01*
X91476378Y-70196970D01*
X91544824Y-70211003D01*
X91555595Y-70217436D01*
X91648321Y-70279394D01*
X91648323Y-70279395D01*
X91648327Y-70279397D01*
X91730641Y-70313492D01*
X91794003Y-70339737D01*
X91936241Y-70368030D01*
X91948653Y-70370499D01*
X91948656Y-70370500D01*
X91948658Y-70370500D01*
X92106344Y-70370500D01*
X92106345Y-70370499D01*
X92260997Y-70339737D01*
X92406679Y-70279394D01*
X92537789Y-70191789D01*
X92649289Y-70080289D01*
X92736894Y-69949179D01*
X92736897Y-69949172D01*
X92775056Y-69857048D01*
X92818897Y-69802644D01*
X92885191Y-69780579D01*
X92889617Y-69780500D01*
X93141344Y-69780500D01*
X93141345Y-69780499D01*
X93295997Y-69749737D01*
X93441679Y-69689394D01*
X93572789Y-69601789D01*
X93684289Y-69490289D01*
X93771894Y-69359179D01*
X93832237Y-69213497D01*
X93863000Y-69058842D01*
X93863000Y-68901158D01*
X93863000Y-68901155D01*
X93862999Y-68901153D01*
X93832237Y-68746503D01*
X93801149Y-68671451D01*
X93793682Y-68601982D01*
X93824958Y-68539503D01*
X93885047Y-68503851D01*
X93915712Y-68500000D01*
X94825603Y-68500000D01*
X94892642Y-68519685D01*
X94938397Y-68572489D01*
X94949603Y-68624000D01*
X94949603Y-68722483D01*
X94968005Y-68791158D01*
X94987120Y-68862496D01*
X95027742Y-68932855D01*
X95044215Y-69000755D01*
X95027743Y-69056854D01*
X94986943Y-69127522D01*
X94986942Y-69127524D01*
X94986942Y-69127525D01*
X94949426Y-69267535D01*
X94949426Y-69412485D01*
X94986942Y-69552495D01*
X94986943Y-69552498D01*
X95027709Y-69623106D01*
X95044182Y-69691006D01*
X95027710Y-69747105D01*
X94987054Y-69817524D01*
X94987053Y-69817526D01*
X94987053Y-69817527D01*
X94949537Y-69957537D01*
X94949537Y-70102487D01*
X94981484Y-70221713D01*
X94987054Y-70242500D01*
X95059525Y-70368023D01*
X95059531Y-70368030D01*
X95112331Y-70420831D01*
X95145815Y-70482154D01*
X95144424Y-70540603D01*
X95112530Y-70659637D01*
X95112530Y-70659639D01*
X95112530Y-70817753D01*
X95145696Y-70941528D01*
X95153453Y-70970479D01*
X95153456Y-70970486D01*
X95232505Y-71107405D01*
X95232509Y-71107410D01*
X95232510Y-71107412D01*
X95344314Y-71219216D01*
X95481246Y-71298273D01*
X95481249Y-71298273D01*
X95487499Y-71301882D01*
X95535715Y-71352449D01*
X95549500Y-71409270D01*
X95549500Y-71472475D01*
X95587016Y-71612485D01*
X95587017Y-71612488D01*
X95659488Y-71738011D01*
X95659490Y-71738013D01*
X95659491Y-71738015D01*
X95761985Y-71840509D01*
X95761986Y-71840510D01*
X95761988Y-71840511D01*
X95887511Y-71912982D01*
X95887512Y-71912982D01*
X95887515Y-71912984D01*
X96027525Y-71950500D01*
X96027528Y-71950500D01*
X96172472Y-71950500D01*
X96172475Y-71950500D01*
X96312485Y-71912984D01*
X96388001Y-71869384D01*
X96455899Y-71852912D01*
X96511998Y-71869384D01*
X96587515Y-71912984D01*
X96727525Y-71950500D01*
X96727528Y-71950500D01*
X96872472Y-71950500D01*
X96872475Y-71950500D01*
X97012485Y-71912984D01*
X97138015Y-71840509D01*
X97171850Y-71806673D01*
X97233170Y-71773189D01*
X97302862Y-71778173D01*
X97358796Y-71820043D01*
X97366918Y-71832357D01*
X97381161Y-71857028D01*
X97381163Y-71857031D01*
X97381164Y-71857032D01*
X97492968Y-71968836D01*
X97492970Y-71968837D01*
X97492974Y-71968840D01*
X97609368Y-72036039D01*
X97629900Y-72047893D01*
X97782627Y-72088816D01*
X97782629Y-72088816D01*
X97940739Y-72088816D01*
X97940741Y-72088816D01*
X98093468Y-72047893D01*
X98114000Y-72036039D01*
X98181901Y-72019566D01*
X98247927Y-72042419D01*
X98291118Y-72097340D01*
X98300000Y-72143426D01*
X98300000Y-78225500D01*
X98280315Y-78292539D01*
X98227511Y-78338294D01*
X98176000Y-78349500D01*
X93764441Y-78349500D01*
X93697402Y-78329815D01*
X93651647Y-78277011D01*
X93641703Y-78207853D01*
X93670728Y-78144297D01*
X93676760Y-78137819D01*
X93684286Y-78130292D01*
X93684289Y-78130289D01*
X93771894Y-77999179D01*
X93832237Y-77853497D01*
X93863000Y-77698842D01*
X93863000Y-77541158D01*
X93863000Y-77541155D01*
X93862999Y-77541153D01*
X93832238Y-77386510D01*
X93832237Y-77386503D01*
X93832235Y-77386498D01*
X93771897Y-77240827D01*
X93771890Y-77240814D01*
X93684289Y-77109711D01*
X93684286Y-77109707D01*
X93572792Y-76998213D01*
X93572788Y-76998210D01*
X93441685Y-76910609D01*
X93441672Y-76910602D01*
X93296001Y-76850264D01*
X93295989Y-76850261D01*
X93141345Y-76819500D01*
X93141342Y-76819500D01*
X92902043Y-76819500D01*
X92835004Y-76799815D01*
X92789249Y-76747011D01*
X92787482Y-76742952D01*
X92736897Y-76620827D01*
X92736890Y-76620814D01*
X92649289Y-76489711D01*
X92649286Y-76489707D01*
X92537792Y-76378213D01*
X92537788Y-76378210D01*
X92406685Y-76290609D01*
X92406672Y-76290602D01*
X92261001Y-76230264D01*
X92260989Y-76230261D01*
X92106345Y-76199500D01*
X92106342Y-76199500D01*
X91948658Y-76199500D01*
X91948655Y-76199500D01*
X91794010Y-76230261D01*
X91793998Y-76230264D01*
X91648327Y-76290602D01*
X91648314Y-76290609D01*
X91595771Y-76325718D01*
X91570850Y-76333521D01*
X91547350Y-76344915D01*
X91538039Y-76343794D01*
X91529093Y-76346596D01*
X91503910Y-76339687D01*
X91477981Y-76336567D01*
X91470755Y-76330591D01*
X91461713Y-76328111D01*
X91444262Y-76308683D01*
X91424137Y-76292041D01*
X91421288Y-76283107D01*
X91415023Y-76276132D01*
X91410845Y-76250354D01*
X91402913Y-76225473D01*
X91405003Y-76214297D01*
X91403847Y-76207162D01*
X91407130Y-76190432D01*
X91409347Y-76182181D01*
X91409577Y-76181784D01*
X91439277Y-76070943D01*
X93549500Y-76070943D01*
X93549500Y-76229057D01*
X93589817Y-76379520D01*
X93590423Y-76381783D01*
X93590426Y-76381790D01*
X93669475Y-76518709D01*
X93669479Y-76518714D01*
X93669480Y-76518716D01*
X93781284Y-76630520D01*
X93781286Y-76630521D01*
X93781290Y-76630524D01*
X93918209Y-76709573D01*
X93918216Y-76709577D01*
X94070943Y-76750500D01*
X94070945Y-76750500D01*
X94229055Y-76750500D01*
X94229057Y-76750500D01*
X94381784Y-76709577D01*
X94518716Y-76630520D01*
X94621711Y-76527525D01*
X95549500Y-76527525D01*
X95549500Y-76672475D01*
X95571004Y-76752727D01*
X95587017Y-76812488D01*
X95659488Y-76938011D01*
X95659490Y-76938013D01*
X95659491Y-76938015D01*
X95761985Y-77040509D01*
X95761986Y-77040510D01*
X95761988Y-77040511D01*
X95887511Y-77112982D01*
X95887512Y-77112982D01*
X95887515Y-77112984D01*
X96027525Y-77150500D01*
X96027528Y-77150500D01*
X96172472Y-77150500D01*
X96172475Y-77150500D01*
X96312485Y-77112984D01*
X96388001Y-77069384D01*
X96455899Y-77052912D01*
X96511998Y-77069384D01*
X96587515Y-77112984D01*
X96727525Y-77150500D01*
X96727528Y-77150500D01*
X96872472Y-77150500D01*
X96872475Y-77150500D01*
X97012485Y-77112984D01*
X97138015Y-77040509D01*
X97240509Y-76938015D01*
X97312984Y-76812485D01*
X97350500Y-76672475D01*
X97350500Y-76527525D01*
X97312984Y-76387515D01*
X97309675Y-76381784D01*
X97240511Y-76261988D01*
X97240506Y-76261982D01*
X97138017Y-76159493D01*
X97138011Y-76159488D01*
X97012488Y-76087017D01*
X97012489Y-76087017D01*
X97001006Y-76083940D01*
X96872475Y-76049500D01*
X96727525Y-76049500D01*
X96598993Y-76083940D01*
X96587511Y-76087017D01*
X96512000Y-76130614D01*
X96444100Y-76147087D01*
X96388000Y-76130614D01*
X96312488Y-76087017D01*
X96312489Y-76087017D01*
X96301006Y-76083940D01*
X96172475Y-76049500D01*
X96027525Y-76049500D01*
X95898993Y-76083940D01*
X95887511Y-76087017D01*
X95761988Y-76159488D01*
X95761982Y-76159493D01*
X95659493Y-76261982D01*
X95659488Y-76261988D01*
X95587017Y-76387511D01*
X95587016Y-76387515D01*
X95549500Y-76527525D01*
X94621711Y-76527525D01*
X94630520Y-76518716D01*
X94709577Y-76381784D01*
X94750500Y-76229057D01*
X94750500Y-76070943D01*
X94709577Y-75918216D01*
X94709573Y-75918209D01*
X94630524Y-75781290D01*
X94630518Y-75781282D01*
X94518717Y-75669481D01*
X94518709Y-75669475D01*
X94381790Y-75590426D01*
X94381786Y-75590424D01*
X94381784Y-75590423D01*
X94229057Y-75549500D01*
X94070943Y-75549500D01*
X93918216Y-75590423D01*
X93918209Y-75590426D01*
X93781290Y-75669475D01*
X93781282Y-75669481D01*
X93669481Y-75781282D01*
X93669475Y-75781290D01*
X93590426Y-75918209D01*
X93590423Y-75918216D01*
X93549500Y-76070943D01*
X91439277Y-76070943D01*
X91450500Y-76029057D01*
X91450500Y-75870943D01*
X91409577Y-75718216D01*
X91381437Y-75669475D01*
X91330524Y-75581290D01*
X91330518Y-75581282D01*
X91218717Y-75469481D01*
X91218709Y-75469475D01*
X91081790Y-75390426D01*
X91081786Y-75390424D01*
X91081784Y-75390423D01*
X90929057Y-75349500D01*
X90770943Y-75349500D01*
X90618216Y-75390423D01*
X90618209Y-75390426D01*
X90481290Y-75469475D01*
X90481282Y-75469481D01*
X90369481Y-75581282D01*
X90369475Y-75581290D01*
X90290426Y-75718209D01*
X90290423Y-75718216D01*
X90249500Y-75870943D01*
X90249500Y-76029057D01*
X90265031Y-76087017D01*
X90290423Y-76181783D01*
X90290426Y-76181790D01*
X90369475Y-76318709D01*
X90369479Y-76318714D01*
X90369480Y-76318716D01*
X90481284Y-76430520D01*
X90481286Y-76430521D01*
X90481290Y-76430524D01*
X90618209Y-76509573D01*
X90618216Y-76509577D01*
X90675094Y-76524817D01*
X90734753Y-76561180D01*
X90765283Y-76624027D01*
X90767000Y-76644591D01*
X90767000Y-76647273D01*
X90767000Y-76752727D01*
X90794293Y-76854587D01*
X90847020Y-76945913D01*
X90921587Y-77020480D01*
X91012913Y-77073207D01*
X91114773Y-77100500D01*
X91114778Y-77100500D01*
X91119178Y-77101079D01*
X91183077Y-77129342D01*
X91221551Y-77187664D01*
X91227000Y-77224019D01*
X91227000Y-77778846D01*
X91257761Y-77933489D01*
X91257764Y-77933501D01*
X91318102Y-78079172D01*
X91318109Y-78079184D01*
X91369843Y-78156609D01*
X91390721Y-78223286D01*
X91372237Y-78290666D01*
X91320258Y-78337357D01*
X91266741Y-78349500D01*
X89319441Y-78349500D01*
X89252402Y-78329815D01*
X89206647Y-78277011D01*
X89196703Y-78207853D01*
X89225728Y-78144297D01*
X89231760Y-78137819D01*
X89239286Y-78130292D01*
X89239289Y-78130289D01*
X89326894Y-77999179D01*
X89387237Y-77853497D01*
X89418000Y-77698842D01*
X89418000Y-77541158D01*
X89418000Y-77541155D01*
X89417999Y-77541153D01*
X89387238Y-77386510D01*
X89387237Y-77386503D01*
X89387235Y-77386498D01*
X89326897Y-77240827D01*
X89326890Y-77240814D01*
X89239289Y-77109711D01*
X89239286Y-77109707D01*
X89127792Y-76998213D01*
X89127788Y-76998210D01*
X88996685Y-76910609D01*
X88996672Y-76910602D01*
X88851001Y-76850264D01*
X88850989Y-76850261D01*
X88696345Y-76819500D01*
X88696342Y-76819500D01*
X87238658Y-76819500D01*
X87238655Y-76819500D01*
X87084010Y-76850261D01*
X87083998Y-76850264D01*
X86938327Y-76910602D01*
X86938309Y-76910612D01*
X86843390Y-76974035D01*
X86776713Y-76994913D01*
X86709333Y-76976428D01*
X86662643Y-76924449D01*
X86650500Y-76870933D01*
X86650500Y-72690943D01*
X89961629Y-72690943D01*
X89961629Y-72849056D01*
X90002552Y-73001783D01*
X90002552Y-73001784D01*
X90063875Y-73108001D01*
X90080346Y-73175902D01*
X90063875Y-73231999D01*
X90002552Y-73338215D01*
X90002552Y-73338216D01*
X89961629Y-73490943D01*
X89961629Y-73649057D01*
X89967102Y-73669480D01*
X90002552Y-73801783D01*
X90002555Y-73801790D01*
X90081604Y-73938709D01*
X90081608Y-73938714D01*
X90081609Y-73938716D01*
X90193413Y-74050520D01*
X90193415Y-74050521D01*
X90193419Y-74050524D01*
X90301662Y-74113017D01*
X90330345Y-74129577D01*
X90483072Y-74170500D01*
X90483074Y-74170500D01*
X90641184Y-74170500D01*
X90641186Y-74170500D01*
X90793913Y-74129577D01*
X90930845Y-74050520D01*
X91042649Y-73938716D01*
X91121706Y-73801784D01*
X91162629Y-73649057D01*
X91162629Y-73490943D01*
X91121706Y-73338216D01*
X91121702Y-73338209D01*
X91060383Y-73231999D01*
X91058668Y-73224932D01*
X91054011Y-73219345D01*
X91050541Y-73191432D01*
X91043910Y-73164099D01*
X91046077Y-73155523D01*
X91045392Y-73150009D01*
X91052519Y-73130036D01*
X91055981Y-73116341D01*
X91058021Y-73112089D01*
X91121278Y-73002525D01*
X93831101Y-73002525D01*
X93831101Y-73147475D01*
X93868617Y-73287485D01*
X93868618Y-73287488D01*
X93912215Y-73363000D01*
X93928688Y-73430900D01*
X93912215Y-73487000D01*
X93868618Y-73562511D01*
X93868617Y-73562515D01*
X93831101Y-73702525D01*
X93831101Y-73847475D01*
X93855550Y-73938717D01*
X93868618Y-73987488D01*
X93941089Y-74113011D01*
X93941091Y-74113013D01*
X93941092Y-74113015D01*
X94043586Y-74215509D01*
X94043587Y-74215510D01*
X94043589Y-74215511D01*
X94169112Y-74287982D01*
X94169113Y-74287982D01*
X94169116Y-74287984D01*
X94309126Y-74325500D01*
X94309129Y-74325500D01*
X94454073Y-74325500D01*
X94454076Y-74325500D01*
X94594086Y-74287984D01*
X94719616Y-74215509D01*
X94822110Y-74113015D01*
X94846400Y-74070943D01*
X95849500Y-74070943D01*
X95849500Y-74229057D01*
X95865290Y-74287984D01*
X95890423Y-74381783D01*
X95890426Y-74381790D01*
X95969475Y-74518709D01*
X95969479Y-74518714D01*
X95969480Y-74518716D01*
X96081284Y-74630520D01*
X96081286Y-74630521D01*
X96081290Y-74630524D01*
X96218209Y-74709573D01*
X96218216Y-74709577D01*
X96370943Y-74750500D01*
X96370945Y-74750500D01*
X96529055Y-74750500D01*
X96529057Y-74750500D01*
X96681784Y-74709577D01*
X96818716Y-74630520D01*
X96930520Y-74518716D01*
X97009577Y-74381784D01*
X97050500Y-74229057D01*
X97050500Y-74070943D01*
X97009577Y-73918216D01*
X96968735Y-73847475D01*
X96930524Y-73781290D01*
X96930518Y-73781282D01*
X96818717Y-73669481D01*
X96818709Y-73669475D01*
X96681790Y-73590426D01*
X96681786Y-73590424D01*
X96681784Y-73590423D01*
X96529057Y-73549500D01*
X96370943Y-73549500D01*
X96218216Y-73590423D01*
X96218209Y-73590426D01*
X96081290Y-73669475D01*
X96081282Y-73669481D01*
X95969481Y-73781282D01*
X95969475Y-73781290D01*
X95890426Y-73918209D01*
X95890423Y-73918216D01*
X95849500Y-74070943D01*
X94846400Y-74070943D01*
X94894585Y-73987485D01*
X94932101Y-73847475D01*
X94932101Y-73702525D01*
X94894585Y-73562515D01*
X94850985Y-73486998D01*
X94834513Y-73419101D01*
X94850986Y-73363000D01*
X94894585Y-73287485D01*
X94932101Y-73147475D01*
X94932101Y-73002525D01*
X94894585Y-72862515D01*
X94886814Y-72849056D01*
X94822112Y-72736988D01*
X94822107Y-72736982D01*
X94719618Y-72634493D01*
X94719612Y-72634488D01*
X94594089Y-72562017D01*
X94594090Y-72562017D01*
X94582607Y-72558940D01*
X94454076Y-72524500D01*
X94309126Y-72524500D01*
X94180594Y-72558940D01*
X94169112Y-72562017D01*
X94043589Y-72634488D01*
X94043583Y-72634493D01*
X93941094Y-72736982D01*
X93941089Y-72736988D01*
X93868618Y-72862511D01*
X93868617Y-72862515D01*
X93831101Y-73002525D01*
X91121278Y-73002525D01*
X91121706Y-73001784D01*
X91162629Y-72849057D01*
X91162629Y-72690943D01*
X91121706Y-72538216D01*
X91113787Y-72524500D01*
X91042653Y-72401290D01*
X91042647Y-72401282D01*
X90930846Y-72289481D01*
X90930838Y-72289475D01*
X90793919Y-72210426D01*
X90793915Y-72210424D01*
X90793913Y-72210423D01*
X90641186Y-72169500D01*
X90483072Y-72169500D01*
X90330345Y-72210423D01*
X90330338Y-72210426D01*
X90193419Y-72289475D01*
X90193411Y-72289481D01*
X90081610Y-72401282D01*
X90081604Y-72401290D01*
X90002555Y-72538209D01*
X90002552Y-72538216D01*
X89961629Y-72690943D01*
X86650500Y-72690943D01*
X86650500Y-70603145D01*
X93367163Y-70603145D01*
X93367163Y-70761259D01*
X93400860Y-70887016D01*
X93408086Y-70913985D01*
X93408089Y-70913992D01*
X93487138Y-71050911D01*
X93487142Y-71050916D01*
X93487143Y-71050918D01*
X93598947Y-71162722D01*
X93598949Y-71162723D01*
X93598953Y-71162726D01*
X93696798Y-71219216D01*
X93735879Y-71241779D01*
X93888606Y-71282702D01*
X93888608Y-71282702D01*
X94046718Y-71282702D01*
X94046720Y-71282702D01*
X94199447Y-71241779D01*
X94336379Y-71162722D01*
X94448183Y-71050918D01*
X94527240Y-70913986D01*
X94568163Y-70761259D01*
X94568163Y-70603145D01*
X94527240Y-70450418D01*
X94480800Y-70369980D01*
X94448187Y-70313492D01*
X94448181Y-70313484D01*
X94336380Y-70201683D01*
X94336372Y-70201677D01*
X94199453Y-70122628D01*
X94199449Y-70122626D01*
X94199447Y-70122625D01*
X94046720Y-70081702D01*
X93888606Y-70081702D01*
X93735879Y-70122625D01*
X93735872Y-70122628D01*
X93598953Y-70201677D01*
X93598945Y-70201683D01*
X93487144Y-70313484D01*
X93487138Y-70313492D01*
X93408089Y-70450411D01*
X93408086Y-70450418D01*
X93367163Y-70603145D01*
X86650500Y-70603145D01*
X86650500Y-69729066D01*
X86670185Y-69662027D01*
X86722989Y-69616272D01*
X86792147Y-69606328D01*
X86843391Y-69625964D01*
X86938314Y-69689390D01*
X86938327Y-69689397D01*
X87073564Y-69745413D01*
X87084003Y-69749737D01*
X87202155Y-69773239D01*
X87238653Y-69780499D01*
X87238656Y-69780500D01*
X87238658Y-69780500D01*
X88696344Y-69780500D01*
X88696345Y-69780499D01*
X88850997Y-69749737D01*
X88996679Y-69689394D01*
X89127789Y-69601789D01*
X89239289Y-69490289D01*
X89326894Y-69359179D01*
X89387237Y-69213497D01*
X89418000Y-69058842D01*
X89418000Y-68901158D01*
X89418000Y-68901155D01*
X89417999Y-68901153D01*
X89387237Y-68746503D01*
X89377288Y-68722483D01*
X89326897Y-68600827D01*
X89326890Y-68600814D01*
X89239289Y-68469711D01*
X89239286Y-68469707D01*
X89127792Y-68358213D01*
X89127788Y-68358210D01*
X88996685Y-68270609D01*
X88996672Y-68270602D01*
X88851001Y-68210264D01*
X88850989Y-68210261D01*
X88696345Y-68179500D01*
X88696342Y-68179500D01*
X88274000Y-68179500D01*
X88206961Y-68159815D01*
X88161206Y-68107011D01*
X88150000Y-68055500D01*
X88150000Y-67166295D01*
X88169685Y-67099256D01*
X88222489Y-67053501D01*
X88283991Y-67042698D01*
X88295210Y-67043604D01*
X88320943Y-67050500D01*
X88380506Y-67050500D01*
X88385491Y-67050903D01*
X88413633Y-67061697D01*
X88442539Y-67070185D01*
X88445912Y-67074078D01*
X88450727Y-67075925D01*
X88468568Y-67100224D01*
X88488294Y-67122989D01*
X88489561Y-67128817D01*
X88492078Y-67132244D01*
X88492787Y-67143643D01*
X88499500Y-67174500D01*
X88499500Y-67272475D01*
X88533537Y-67399500D01*
X88537017Y-67412488D01*
X88609488Y-67538011D01*
X88609490Y-67538013D01*
X88609491Y-67538015D01*
X88711985Y-67640509D01*
X88711986Y-67640510D01*
X88711988Y-67640511D01*
X88837511Y-67712982D01*
X88837512Y-67712982D01*
X88837515Y-67712984D01*
X88977525Y-67750500D01*
X88977528Y-67750500D01*
X89122472Y-67750500D01*
X89122475Y-67750500D01*
X89262485Y-67712984D01*
X89388015Y-67640509D01*
X89490509Y-67538015D01*
X89562984Y-67412485D01*
X89600500Y-67272475D01*
X89600500Y-67127525D01*
X89562984Y-66987515D01*
X89490509Y-66861985D01*
X89388015Y-66759491D01*
X89388013Y-66759490D01*
X89388011Y-66759488D01*
X89262488Y-66687017D01*
X89262489Y-66687017D01*
X89178996Y-66664645D01*
X89122475Y-66649500D01*
X89122471Y-66649499D01*
X89114415Y-66648439D01*
X89114655Y-66646609D01*
X89057461Y-66629815D01*
X89011706Y-66577011D01*
X89000500Y-66525500D01*
X89000500Y-66370945D01*
X89000500Y-66370943D01*
X88959577Y-66218216D01*
X88927401Y-66162485D01*
X88880524Y-66081290D01*
X88880518Y-66081282D01*
X88768717Y-65969481D01*
X88768709Y-65969475D01*
X88631790Y-65890426D01*
X88631786Y-65890424D01*
X88631784Y-65890423D01*
X88479057Y-65849500D01*
X88320943Y-65849500D01*
X88320938Y-65849500D01*
X88306091Y-65853479D01*
X88236242Y-65851815D01*
X88178380Y-65812652D01*
X88150877Y-65748423D01*
X88150000Y-65733704D01*
X88150000Y-64351362D01*
X88169685Y-64284323D01*
X88186319Y-64263681D01*
X90713681Y-61736319D01*
X90775004Y-61702834D01*
X90801362Y-61700000D01*
X91576000Y-61700000D01*
X91643039Y-61719685D01*
G37*
%TD.AperFunction*%
%TD*%
M02*
