%TF.GenerationSoftware,KiCad,Pcbnew,9.0.1*%
%TF.CreationDate,2025-04-25T01:04:06-07:00*%
%TF.ProjectId,microcouple,6d696372-6f63-46f7-9570-6c652e6b6963,rev?*%
%TF.SameCoordinates,Original*%
%TF.FileFunction,Legend,Top*%
%TF.FilePolarity,Positive*%
%FSLAX46Y46*%
G04 Gerber Fmt 4.6, Leading zero omitted, Abs format (unit mm)*
G04 Created by KiCad (PCBNEW 9.0.1) date 2025-04-25 01:04:06*
%MOMM*%
%LPD*%
G01*
G04 APERTURE LIST*
G04 Aperture macros list*
%AMRoundRect*
0 Rectangle with rounded corners*
0 $1 Rounding radius*
0 $2 $3 $4 $5 $6 $7 $8 $9 X,Y pos of 4 corners*
0 Add a 4 corners polygon primitive as box body*
4,1,4,$2,$3,$4,$5,$6,$7,$8,$9,$2,$3,0*
0 Add four circle primitives for the rounded corners*
1,1,$1+$1,$2,$3*
1,1,$1+$1,$4,$5*
1,1,$1+$1,$6,$7*
1,1,$1+$1,$8,$9*
0 Add four rect primitives between the rounded corners*
20,1,$1+$1,$2,$3,$4,$5,0*
20,1,$1+$1,$4,$5,$6,$7,0*
20,1,$1+$1,$6,$7,$8,$9,0*
20,1,$1+$1,$8,$9,$2,$3,0*%
%AMFreePoly0*
4,1,14,0.314644,0.085355,0.385355,0.014644,0.400000,-0.020711,0.400000,-0.050000,0.385355,-0.085355,0.350000,-0.100000,-0.350000,-0.100000,-0.385355,-0.085355,-0.400000,-0.050000,-0.400000,0.050000,-0.385355,0.085355,-0.350000,0.100000,0.279289,0.100000,0.314644,0.085355,0.314644,0.085355,$1*%
%AMFreePoly1*
4,1,14,0.385355,0.085355,0.400000,0.050000,0.400000,0.020711,0.385355,-0.014644,0.314644,-0.085355,0.279289,-0.100000,-0.350000,-0.100000,-0.385355,-0.085355,-0.400000,-0.050000,-0.400000,0.050000,-0.385355,0.085355,-0.350000,0.100000,0.350000,0.100000,0.385355,0.085355,0.385355,0.085355,$1*%
%AMFreePoly2*
4,1,14,0.085355,0.385355,0.100000,0.350000,0.100000,-0.350000,0.085355,-0.385355,0.050000,-0.400000,-0.050000,-0.400000,-0.085355,-0.385355,-0.100000,-0.350000,-0.100000,0.279289,-0.085355,0.314644,-0.014644,0.385355,0.020711,0.400000,0.050000,0.400000,0.085355,0.385355,0.085355,0.385355,$1*%
%AMFreePoly3*
4,1,14,0.014644,0.385355,0.085355,0.314644,0.100000,0.279289,0.100000,-0.350000,0.085355,-0.385355,0.050000,-0.400000,-0.050000,-0.400000,-0.085355,-0.385355,-0.100000,-0.350000,-0.100000,0.350000,-0.085355,0.385355,-0.050000,0.400000,-0.020711,0.400000,0.014644,0.385355,0.014644,0.385355,$1*%
%AMFreePoly4*
4,1,14,0.385355,0.085355,0.400000,0.050000,0.400000,-0.050000,0.385355,-0.085355,0.350000,-0.100000,-0.279289,-0.100000,-0.314644,-0.085355,-0.385355,-0.014644,-0.400000,0.020711,-0.400000,0.050000,-0.385355,0.085355,-0.350000,0.100000,0.350000,0.100000,0.385355,0.085355,0.385355,0.085355,$1*%
%AMFreePoly5*
4,1,14,0.385355,0.085355,0.400000,0.050000,0.400000,-0.050000,0.385355,-0.085355,0.350000,-0.100000,-0.350000,-0.100000,-0.385355,-0.085355,-0.400000,-0.050000,-0.400000,-0.020711,-0.385355,0.014644,-0.314644,0.085355,-0.279289,0.100000,0.350000,0.100000,0.385355,0.085355,0.385355,0.085355,$1*%
%AMFreePoly6*
4,1,14,0.085355,0.385355,0.100000,0.350000,0.100000,-0.279289,0.085355,-0.314644,0.014644,-0.385355,-0.020711,-0.400000,-0.050000,-0.400000,-0.085355,-0.385355,-0.100000,-0.350000,-0.100000,0.350000,-0.085355,0.385355,-0.050000,0.400000,0.050000,0.400000,0.085355,0.385355,0.085355,0.385355,$1*%
%AMFreePoly7*
4,1,14,0.085355,0.385355,0.100000,0.350000,0.100000,-0.350000,0.085355,-0.385355,0.050000,-0.400000,0.020711,-0.400000,-0.014644,-0.385355,-0.085355,-0.314644,-0.100000,-0.279289,-0.100000,0.350000,-0.085355,0.385355,-0.050000,0.400000,0.050000,0.400000,0.085355,0.385355,0.085355,0.385355,$1*%
G04 Aperture macros list end*
%ADD10C,0.170000*%
%ADD11C,0.112500*%
%ADD12C,0.150000*%
%ADD13C,0.250000*%
%ADD14C,0.120000*%
%ADD15C,0.100000*%
%ADD16C,0.500000*%
%ADD17R,0.950000X0.300000*%
%ADD18O,1.950000X1.000000*%
%ADD19O,2.300000X1.000000*%
%ADD20O,1.000000X1.700000*%
%ADD21C,0.900000*%
%ADD22R,1.500000X0.700000*%
%ADD23R,0.800000X1.000000*%
%ADD24RoundRect,0.250000X0.070711X1.343503X-1.343503X-0.070711X-0.070711X-1.343503X1.343503X0.070711X0*%
%ADD25R,1.270000X0.500000*%
%ADD26R,1.400000X0.900000*%
%ADD27RoundRect,0.100000X0.162635X-0.021213X-0.021213X0.162635X-0.162635X0.021213X0.021213X-0.162635X0*%
%ADD28R,1.700000X0.900000*%
%ADD29RoundRect,0.140000X0.140000X0.170000X-0.140000X0.170000X-0.140000X-0.170000X0.140000X-0.170000X0*%
%ADD30RoundRect,0.100000X0.130000X0.100000X-0.130000X0.100000X-0.130000X-0.100000X0.130000X-0.100000X0*%
%ADD31RoundRect,0.100000X-0.100000X0.130000X-0.100000X-0.130000X0.100000X-0.130000X0.100000X0.130000X0*%
%ADD32RoundRect,0.250000X-0.375000X-0.850000X0.375000X-0.850000X0.375000X0.850000X-0.375000X0.850000X0*%
%ADD33RoundRect,0.150000X0.150000X-0.512500X0.150000X0.512500X-0.150000X0.512500X-0.150000X-0.512500X0*%
%ADD34RoundRect,0.150000X-0.150000X0.512500X-0.150000X-0.512500X0.150000X-0.512500X0.150000X0.512500X0*%
%ADD35RoundRect,0.150000X0.150000X-0.587500X0.150000X0.587500X-0.150000X0.587500X-0.150000X-0.587500X0*%
%ADD36FreePoly0,270.000000*%
%ADD37RoundRect,0.050000X-0.050000X0.350000X-0.050000X-0.350000X0.050000X-0.350000X0.050000X0.350000X0*%
%ADD38FreePoly1,270.000000*%
%ADD39FreePoly2,270.000000*%
%ADD40RoundRect,0.050000X-0.350000X0.050000X-0.350000X-0.050000X0.350000X-0.050000X0.350000X0.050000X0*%
%ADD41FreePoly3,270.000000*%
%ADD42FreePoly4,270.000000*%
%ADD43FreePoly5,270.000000*%
%ADD44FreePoly6,270.000000*%
%ADD45FreePoly7,270.000000*%
%ADD46R,2.650000X2.650000*%
%ADD47RoundRect,0.100000X-0.130000X-0.100000X0.130000X-0.100000X0.130000X0.100000X-0.130000X0.100000X0*%
%ADD48RoundRect,0.062500X0.062500X-0.337500X0.062500X0.337500X-0.062500X0.337500X-0.062500X-0.337500X0*%
%ADD49RoundRect,0.062500X0.337500X-0.062500X0.337500X0.062500X-0.337500X0.062500X-0.337500X-0.062500X0*%
%ADD50R,2.500000X2.500000*%
%ADD51C,3.800000*%
%ADD52RoundRect,0.140000X-0.170000X0.140000X-0.170000X-0.140000X0.170000X-0.140000X0.170000X0.140000X0*%
%ADD53RoundRect,0.050000X-0.387500X-0.050000X0.387500X-0.050000X0.387500X0.050000X-0.387500X0.050000X0*%
%ADD54RoundRect,0.050000X-0.050000X-0.387500X0.050000X-0.387500X0.050000X0.387500X-0.050000X0.387500X0*%
%ADD55R,3.200000X3.200000*%
%ADD56RoundRect,0.100000X0.100000X-0.130000X0.100000X0.130000X-0.100000X0.130000X-0.100000X-0.130000X0*%
%ADD57RoundRect,0.250000X-0.325000X-0.450000X0.325000X-0.450000X0.325000X0.450000X-0.325000X0.450000X0*%
%ADD58RoundRect,0.140000X0.170000X-0.140000X0.170000X0.140000X-0.170000X0.140000X-0.170000X-0.140000X0*%
%ADD59R,1.000000X1.000000*%
%ADD60C,1.000000*%
%ADD61C,0.990600*%
%ADD62C,0.787400*%
%ADD63R,1.400000X1.200000*%
%ADD64RoundRect,0.140000X-0.140000X-0.170000X0.140000X-0.170000X0.140000X0.170000X-0.140000X0.170000X0*%
G04 APERTURE END LIST*
D10*
X110426603Y-49533082D02*
X111081925Y-49074221D01*
X111081925Y-49074221D02*
X110766792Y-49620420D01*
X110766792Y-49620420D02*
X111387832Y-49511102D01*
X111387832Y-49511102D02*
X110732510Y-49969963D01*
X110951016Y-50282021D02*
X111387897Y-49976114D01*
X111606338Y-49823160D02*
X111553281Y-49813805D01*
X111553281Y-49813805D02*
X111543926Y-49866861D01*
X111543926Y-49866861D02*
X111596982Y-49876217D01*
X111596982Y-49876217D02*
X111606338Y-49823160D01*
X111606338Y-49823160D02*
X111543926Y-49866861D01*
X111397382Y-50853081D02*
X111322475Y-50812520D01*
X111322475Y-50812520D02*
X111235073Y-50687696D01*
X111235073Y-50687696D02*
X111222577Y-50603434D01*
X111222577Y-50603434D02*
X111231933Y-50550378D01*
X111231933Y-50550378D02*
X111272494Y-50475471D01*
X111272494Y-50475471D02*
X111459728Y-50344368D01*
X111459728Y-50344368D02*
X111543991Y-50331873D01*
X111543991Y-50331873D02*
X111597047Y-50341228D01*
X111597047Y-50341228D02*
X111671954Y-50381789D01*
X111671954Y-50381789D02*
X111759356Y-50506612D01*
X111759356Y-50506612D02*
X111771851Y-50590874D01*
X111562830Y-51155783D02*
X111999712Y-50849876D01*
X111874888Y-50937278D02*
X111959150Y-50924782D01*
X111959150Y-50924782D02*
X112012207Y-50934138D01*
X112012207Y-50934138D02*
X112087114Y-50974699D01*
X112087114Y-50974699D02*
X112130815Y-51037110D01*
X111912439Y-51655076D02*
X111899944Y-51570814D01*
X111899944Y-51570814D02*
X111909299Y-51517757D01*
X111909299Y-51517757D02*
X111949860Y-51442850D01*
X111949860Y-51442850D02*
X112137095Y-51311747D01*
X112137095Y-51311747D02*
X112221357Y-51299252D01*
X112221357Y-51299252D02*
X112274413Y-51308607D01*
X112274413Y-51308607D02*
X112349320Y-51349168D01*
X112349320Y-51349168D02*
X112414872Y-51442786D01*
X112414872Y-51442786D02*
X112427367Y-51527048D01*
X112427367Y-51527048D02*
X112418012Y-51580104D01*
X112418012Y-51580104D02*
X112377451Y-51655011D01*
X112377451Y-51655011D02*
X112190216Y-51786114D01*
X112190216Y-51786114D02*
X112105954Y-51798609D01*
X112105954Y-51798609D02*
X112052897Y-51789254D01*
X112052897Y-51789254D02*
X111977990Y-51748693D01*
X111977990Y-51748693D02*
X111912439Y-51655076D01*
X112586666Y-52485137D02*
X112533609Y-52475782D01*
X112533609Y-52475782D02*
X112436852Y-52404015D01*
X112436852Y-52404015D02*
X112393151Y-52341603D01*
X112393151Y-52341603D02*
X112358805Y-52226136D01*
X112358805Y-52226136D02*
X112377516Y-52120023D01*
X112377516Y-52120023D02*
X112418077Y-52045116D01*
X112418077Y-52045116D02*
X112521049Y-51926508D01*
X112521049Y-51926508D02*
X112614667Y-51860957D01*
X112614667Y-51860957D02*
X112761340Y-51804760D01*
X112761340Y-51804760D02*
X112845602Y-51792265D01*
X112845602Y-51792265D02*
X112951715Y-51810975D01*
X112951715Y-51810975D02*
X113048472Y-51882742D01*
X113048472Y-51882742D02*
X113092174Y-51945154D01*
X113092174Y-51945154D02*
X113126519Y-52060622D01*
X113126519Y-52060622D02*
X113117164Y-52113678D01*
X112786460Y-52903308D02*
X112773965Y-52819046D01*
X112773965Y-52819046D02*
X112783320Y-52765989D01*
X112783320Y-52765989D02*
X112823881Y-52691082D01*
X112823881Y-52691082D02*
X113011116Y-52559979D01*
X113011116Y-52559979D02*
X113095378Y-52547484D01*
X113095378Y-52547484D02*
X113148435Y-52556839D01*
X113148435Y-52556839D02*
X113223341Y-52597400D01*
X113223341Y-52597400D02*
X113288893Y-52691018D01*
X113288893Y-52691018D02*
X113301388Y-52775280D01*
X113301388Y-52775280D02*
X113292033Y-52828336D01*
X113292033Y-52828336D02*
X113251472Y-52903243D01*
X113251472Y-52903243D02*
X113064237Y-53034346D01*
X113064237Y-53034346D02*
X112979975Y-53046841D01*
X112979975Y-53046841D02*
X112926919Y-53037486D01*
X112926919Y-53037486D02*
X112852012Y-52996925D01*
X112852012Y-52996925D02*
X112786460Y-52903308D01*
X113769605Y-53377545D02*
X113332724Y-53683453D01*
X113572950Y-53096693D02*
X113229687Y-53337049D01*
X113229687Y-53337049D02*
X113189125Y-53411956D01*
X113189125Y-53411956D02*
X113201621Y-53496218D01*
X113201621Y-53496218D02*
X113267172Y-53589836D01*
X113267172Y-53589836D02*
X113342079Y-53630397D01*
X113342079Y-53630397D02*
X113395136Y-53639752D01*
X113988111Y-53689604D02*
X113332789Y-54148465D01*
X113956905Y-53711454D02*
X114031812Y-53752015D01*
X114031812Y-53752015D02*
X114119214Y-53876839D01*
X114119214Y-53876839D02*
X114131709Y-53961101D01*
X114131709Y-53961101D02*
X114122354Y-54014157D01*
X114122354Y-54014157D02*
X114081793Y-54089064D01*
X114081793Y-54089064D02*
X113894558Y-54220167D01*
X113894558Y-54220167D02*
X113810296Y-54232662D01*
X113810296Y-54232662D02*
X113757240Y-54223307D01*
X113757240Y-54223307D02*
X113682333Y-54182746D01*
X113682333Y-54182746D02*
X113594931Y-54057923D01*
X113594931Y-54057923D02*
X113582435Y-53973661D01*
X114031941Y-54682039D02*
X114019446Y-54597777D01*
X114019446Y-54597777D02*
X114060007Y-54522870D01*
X114060007Y-54522870D02*
X114621712Y-54129561D01*
X114412756Y-55159482D02*
X114337849Y-55118920D01*
X114337849Y-55118920D02*
X114250447Y-54994097D01*
X114250447Y-54994097D02*
X114237952Y-54909835D01*
X114237952Y-54909835D02*
X114278513Y-54834928D01*
X114278513Y-54834928D02*
X114528159Y-54660124D01*
X114528159Y-54660124D02*
X114612421Y-54647629D01*
X114612421Y-54647629D02*
X114687328Y-54688190D01*
X114687328Y-54688190D02*
X114774730Y-54813013D01*
X114774730Y-54813013D02*
X114787225Y-54897275D01*
X114787225Y-54897275D02*
X114746664Y-54972182D01*
X114746664Y-54972182D02*
X114684253Y-55015883D01*
X114684253Y-55015883D02*
X114403336Y-54747526D01*
D11*
X111357142Y-68709471D02*
X111335714Y-68730900D01*
X111335714Y-68730900D02*
X111271428Y-68752328D01*
X111271428Y-68752328D02*
X111228571Y-68752328D01*
X111228571Y-68752328D02*
X111164285Y-68730900D01*
X111164285Y-68730900D02*
X111121428Y-68688042D01*
X111121428Y-68688042D02*
X111099999Y-68645185D01*
X111099999Y-68645185D02*
X111078571Y-68559471D01*
X111078571Y-68559471D02*
X111078571Y-68495185D01*
X111078571Y-68495185D02*
X111099999Y-68409471D01*
X111099999Y-68409471D02*
X111121428Y-68366614D01*
X111121428Y-68366614D02*
X111164285Y-68323757D01*
X111164285Y-68323757D02*
X111228571Y-68302328D01*
X111228571Y-68302328D02*
X111271428Y-68302328D01*
X111271428Y-68302328D02*
X111335714Y-68323757D01*
X111335714Y-68323757D02*
X111357142Y-68345185D01*
X111764285Y-68752328D02*
X111549999Y-68752328D01*
X111549999Y-68752328D02*
X111549999Y-68302328D01*
D12*
X92478571Y-48405485D02*
X92564285Y-48434057D01*
X92564285Y-48434057D02*
X92592856Y-48462628D01*
X92592856Y-48462628D02*
X92621428Y-48519771D01*
X92621428Y-48519771D02*
X92621428Y-48605485D01*
X92621428Y-48605485D02*
X92592856Y-48662628D01*
X92592856Y-48662628D02*
X92564285Y-48691200D01*
X92564285Y-48691200D02*
X92507142Y-48719771D01*
X92507142Y-48719771D02*
X92278571Y-48719771D01*
X92278571Y-48719771D02*
X92278571Y-48119771D01*
X92278571Y-48119771D02*
X92478571Y-48119771D01*
X92478571Y-48119771D02*
X92535714Y-48148342D01*
X92535714Y-48148342D02*
X92564285Y-48176914D01*
X92564285Y-48176914D02*
X92592856Y-48234057D01*
X92592856Y-48234057D02*
X92592856Y-48291200D01*
X92592856Y-48291200D02*
X92564285Y-48348342D01*
X92564285Y-48348342D02*
X92535714Y-48376914D01*
X92535714Y-48376914D02*
X92478571Y-48405485D01*
X92478571Y-48405485D02*
X92278571Y-48405485D01*
X92849999Y-48548342D02*
X93135714Y-48548342D01*
X92792856Y-48719771D02*
X92992856Y-48119771D01*
X92992856Y-48119771D02*
X93192856Y-48719771D01*
X93307142Y-48119771D02*
X93650000Y-48119771D01*
X93478571Y-48719771D02*
X93478571Y-48119771D01*
X93764285Y-48119771D02*
X94107143Y-48119771D01*
X93935714Y-48719771D02*
X93935714Y-48119771D01*
D11*
X107928571Y-67280900D02*
X108271429Y-67280900D01*
X108100000Y-67452328D02*
X108100000Y-67109471D01*
X111164285Y-67452328D02*
X111164285Y-67002328D01*
X111464286Y-67002328D02*
X111550000Y-67002328D01*
X111550000Y-67002328D02*
X111592857Y-67023757D01*
X111592857Y-67023757D02*
X111635714Y-67066614D01*
X111635714Y-67066614D02*
X111657143Y-67152328D01*
X111657143Y-67152328D02*
X111657143Y-67302328D01*
X111657143Y-67302328D02*
X111635714Y-67388042D01*
X111635714Y-67388042D02*
X111592857Y-67430900D01*
X111592857Y-67430900D02*
X111550000Y-67452328D01*
X111550000Y-67452328D02*
X111464286Y-67452328D01*
X111464286Y-67452328D02*
X111421429Y-67430900D01*
X111421429Y-67430900D02*
X111378571Y-67388042D01*
X111378571Y-67388042D02*
X111357143Y-67302328D01*
X111357143Y-67302328D02*
X111357143Y-67152328D01*
X111357143Y-67152328D02*
X111378571Y-67066614D01*
X111378571Y-67066614D02*
X111421429Y-67023757D01*
X111421429Y-67023757D02*
X111464286Y-67002328D01*
X107928571Y-69780900D02*
X108271429Y-69780900D01*
D12*
X99571429Y-50779645D02*
X99542857Y-50808217D01*
X99542857Y-50808217D02*
X99457143Y-50836788D01*
X99457143Y-50836788D02*
X99400000Y-50836788D01*
X99400000Y-50836788D02*
X99314286Y-50808217D01*
X99314286Y-50808217D02*
X99257143Y-50751074D01*
X99257143Y-50751074D02*
X99228572Y-50693931D01*
X99228572Y-50693931D02*
X99200000Y-50579645D01*
X99200000Y-50579645D02*
X99200000Y-50493931D01*
X99200000Y-50493931D02*
X99228572Y-50379645D01*
X99228572Y-50379645D02*
X99257143Y-50322502D01*
X99257143Y-50322502D02*
X99314286Y-50265359D01*
X99314286Y-50265359D02*
X99400000Y-50236788D01*
X99400000Y-50236788D02*
X99457143Y-50236788D01*
X99457143Y-50236788D02*
X99542857Y-50265359D01*
X99542857Y-50265359D02*
X99571429Y-50293931D01*
X100085715Y-50836788D02*
X100085715Y-50522502D01*
X100085715Y-50522502D02*
X100057143Y-50465359D01*
X100057143Y-50465359D02*
X100000000Y-50436788D01*
X100000000Y-50436788D02*
X99885715Y-50436788D01*
X99885715Y-50436788D02*
X99828572Y-50465359D01*
X100085715Y-50808217D02*
X100028572Y-50836788D01*
X100028572Y-50836788D02*
X99885715Y-50836788D01*
X99885715Y-50836788D02*
X99828572Y-50808217D01*
X99828572Y-50808217D02*
X99800000Y-50751074D01*
X99800000Y-50751074D02*
X99800000Y-50693931D01*
X99800000Y-50693931D02*
X99828572Y-50636788D01*
X99828572Y-50636788D02*
X99885715Y-50608217D01*
X99885715Y-50608217D02*
X100028572Y-50608217D01*
X100028572Y-50608217D02*
X100085715Y-50579645D01*
X100371429Y-50436788D02*
X100371429Y-51036788D01*
X100371429Y-50465359D02*
X100428572Y-50436788D01*
X100428572Y-50436788D02*
X100542857Y-50436788D01*
X100542857Y-50436788D02*
X100600000Y-50465359D01*
X100600000Y-50465359D02*
X100628572Y-50493931D01*
X100628572Y-50493931D02*
X100657143Y-50551074D01*
X100657143Y-50551074D02*
X100657143Y-50722502D01*
X100657143Y-50722502D02*
X100628572Y-50779645D01*
X100628572Y-50779645D02*
X100600000Y-50808217D01*
X100600000Y-50808217D02*
X100542857Y-50836788D01*
X100542857Y-50836788D02*
X100428572Y-50836788D01*
X100428572Y-50836788D02*
X100371429Y-50808217D01*
X101171429Y-50836788D02*
X101171429Y-50522502D01*
X101171429Y-50522502D02*
X101142857Y-50465359D01*
X101142857Y-50465359D02*
X101085714Y-50436788D01*
X101085714Y-50436788D02*
X100971429Y-50436788D01*
X100971429Y-50436788D02*
X100914286Y-50465359D01*
X101171429Y-50808217D02*
X101114286Y-50836788D01*
X101114286Y-50836788D02*
X100971429Y-50836788D01*
X100971429Y-50836788D02*
X100914286Y-50808217D01*
X100914286Y-50808217D02*
X100885714Y-50751074D01*
X100885714Y-50751074D02*
X100885714Y-50693931D01*
X100885714Y-50693931D02*
X100914286Y-50636788D01*
X100914286Y-50636788D02*
X100971429Y-50608217D01*
X100971429Y-50608217D02*
X101114286Y-50608217D01*
X101114286Y-50608217D02*
X101171429Y-50579645D01*
X101714286Y-50808217D02*
X101657143Y-50836788D01*
X101657143Y-50836788D02*
X101542857Y-50836788D01*
X101542857Y-50836788D02*
X101485714Y-50808217D01*
X101485714Y-50808217D02*
X101457143Y-50779645D01*
X101457143Y-50779645D02*
X101428571Y-50722502D01*
X101428571Y-50722502D02*
X101428571Y-50551074D01*
X101428571Y-50551074D02*
X101457143Y-50493931D01*
X101457143Y-50493931D02*
X101485714Y-50465359D01*
X101485714Y-50465359D02*
X101542857Y-50436788D01*
X101542857Y-50436788D02*
X101657143Y-50436788D01*
X101657143Y-50436788D02*
X101714286Y-50465359D01*
X101971429Y-50836788D02*
X101971429Y-50436788D01*
X101971429Y-50236788D02*
X101942857Y-50265359D01*
X101942857Y-50265359D02*
X101971429Y-50293931D01*
X101971429Y-50293931D02*
X102000000Y-50265359D01*
X102000000Y-50265359D02*
X101971429Y-50236788D01*
X101971429Y-50236788D02*
X101971429Y-50293931D01*
X102171428Y-50436788D02*
X102400000Y-50436788D01*
X102257143Y-50236788D02*
X102257143Y-50751074D01*
X102257143Y-50751074D02*
X102285714Y-50808217D01*
X102285714Y-50808217D02*
X102342857Y-50836788D01*
X102342857Y-50836788D02*
X102400000Y-50836788D01*
X102600000Y-50836788D02*
X102600000Y-50436788D01*
X102600000Y-50236788D02*
X102571428Y-50265359D01*
X102571428Y-50265359D02*
X102600000Y-50293931D01*
X102600000Y-50293931D02*
X102628571Y-50265359D01*
X102628571Y-50265359D02*
X102600000Y-50236788D01*
X102600000Y-50236788D02*
X102600000Y-50293931D01*
X102828571Y-50436788D02*
X102971428Y-50836788D01*
X102971428Y-50836788D02*
X103114285Y-50436788D01*
X103571428Y-50808217D02*
X103514285Y-50836788D01*
X103514285Y-50836788D02*
X103400000Y-50836788D01*
X103400000Y-50836788D02*
X103342857Y-50808217D01*
X103342857Y-50808217D02*
X103314285Y-50751074D01*
X103314285Y-50751074D02*
X103314285Y-50522502D01*
X103314285Y-50522502D02*
X103342857Y-50465359D01*
X103342857Y-50465359D02*
X103400000Y-50436788D01*
X103400000Y-50436788D02*
X103514285Y-50436788D01*
X103514285Y-50436788D02*
X103571428Y-50465359D01*
X103571428Y-50465359D02*
X103600000Y-50522502D01*
X103600000Y-50522502D02*
X103600000Y-50579645D01*
X103600000Y-50579645D02*
X103314285Y-50636788D01*
X100157142Y-51202754D02*
X100500000Y-51202754D01*
X100328571Y-51802754D02*
X100328571Y-51202754D01*
X100785714Y-51802754D02*
X100728571Y-51774183D01*
X100728571Y-51774183D02*
X100700000Y-51745611D01*
X100700000Y-51745611D02*
X100671428Y-51688468D01*
X100671428Y-51688468D02*
X100671428Y-51517040D01*
X100671428Y-51517040D02*
X100700000Y-51459897D01*
X100700000Y-51459897D02*
X100728571Y-51431325D01*
X100728571Y-51431325D02*
X100785714Y-51402754D01*
X100785714Y-51402754D02*
X100871428Y-51402754D01*
X100871428Y-51402754D02*
X100928571Y-51431325D01*
X100928571Y-51431325D02*
X100957143Y-51459897D01*
X100957143Y-51459897D02*
X100985714Y-51517040D01*
X100985714Y-51517040D02*
X100985714Y-51688468D01*
X100985714Y-51688468D02*
X100957143Y-51745611D01*
X100957143Y-51745611D02*
X100928571Y-51774183D01*
X100928571Y-51774183D02*
X100871428Y-51802754D01*
X100871428Y-51802754D02*
X100785714Y-51802754D01*
X101500000Y-51402754D02*
X101500000Y-51802754D01*
X101242857Y-51402754D02*
X101242857Y-51717040D01*
X101242857Y-51717040D02*
X101271428Y-51774183D01*
X101271428Y-51774183D02*
X101328571Y-51802754D01*
X101328571Y-51802754D02*
X101414285Y-51802754D01*
X101414285Y-51802754D02*
X101471428Y-51774183D01*
X101471428Y-51774183D02*
X101500000Y-51745611D01*
X102042857Y-51774183D02*
X101985714Y-51802754D01*
X101985714Y-51802754D02*
X101871428Y-51802754D01*
X101871428Y-51802754D02*
X101814285Y-51774183D01*
X101814285Y-51774183D02*
X101785714Y-51745611D01*
X101785714Y-51745611D02*
X101757142Y-51688468D01*
X101757142Y-51688468D02*
X101757142Y-51517040D01*
X101757142Y-51517040D02*
X101785714Y-51459897D01*
X101785714Y-51459897D02*
X101814285Y-51431325D01*
X101814285Y-51431325D02*
X101871428Y-51402754D01*
X101871428Y-51402754D02*
X101985714Y-51402754D01*
X101985714Y-51402754D02*
X102042857Y-51431325D01*
X102300000Y-51802754D02*
X102300000Y-51202754D01*
X102557143Y-51802754D02*
X102557143Y-51488468D01*
X102557143Y-51488468D02*
X102528571Y-51431325D01*
X102528571Y-51431325D02*
X102471428Y-51402754D01*
X102471428Y-51402754D02*
X102385714Y-51402754D01*
X102385714Y-51402754D02*
X102328571Y-51431325D01*
X102328571Y-51431325D02*
X102300000Y-51459897D01*
X108235715Y-77755485D02*
X108321429Y-77784057D01*
X108321429Y-77784057D02*
X108350000Y-77812628D01*
X108350000Y-77812628D02*
X108378572Y-77869771D01*
X108378572Y-77869771D02*
X108378572Y-77955485D01*
X108378572Y-77955485D02*
X108350000Y-78012628D01*
X108350000Y-78012628D02*
X108321429Y-78041200D01*
X108321429Y-78041200D02*
X108264286Y-78069771D01*
X108264286Y-78069771D02*
X108035715Y-78069771D01*
X108035715Y-78069771D02*
X108035715Y-77469771D01*
X108035715Y-77469771D02*
X108235715Y-77469771D01*
X108235715Y-77469771D02*
X108292858Y-77498342D01*
X108292858Y-77498342D02*
X108321429Y-77526914D01*
X108321429Y-77526914D02*
X108350000Y-77584057D01*
X108350000Y-77584057D02*
X108350000Y-77641200D01*
X108350000Y-77641200D02*
X108321429Y-77698342D01*
X108321429Y-77698342D02*
X108292858Y-77726914D01*
X108292858Y-77726914D02*
X108235715Y-77755485D01*
X108235715Y-77755485D02*
X108035715Y-77755485D01*
X108750000Y-77469771D02*
X108864286Y-77469771D01*
X108864286Y-77469771D02*
X108921429Y-77498342D01*
X108921429Y-77498342D02*
X108978572Y-77555485D01*
X108978572Y-77555485D02*
X109007143Y-77669771D01*
X109007143Y-77669771D02*
X109007143Y-77869771D01*
X109007143Y-77869771D02*
X108978572Y-77984057D01*
X108978572Y-77984057D02*
X108921429Y-78041200D01*
X108921429Y-78041200D02*
X108864286Y-78069771D01*
X108864286Y-78069771D02*
X108750000Y-78069771D01*
X108750000Y-78069771D02*
X108692858Y-78041200D01*
X108692858Y-78041200D02*
X108635715Y-77984057D01*
X108635715Y-77984057D02*
X108607143Y-77869771D01*
X108607143Y-77869771D02*
X108607143Y-77669771D01*
X108607143Y-77669771D02*
X108635715Y-77555485D01*
X108635715Y-77555485D02*
X108692858Y-77498342D01*
X108692858Y-77498342D02*
X108750000Y-77469771D01*
X109378571Y-77469771D02*
X109492857Y-77469771D01*
X109492857Y-77469771D02*
X109550000Y-77498342D01*
X109550000Y-77498342D02*
X109607143Y-77555485D01*
X109607143Y-77555485D02*
X109635714Y-77669771D01*
X109635714Y-77669771D02*
X109635714Y-77869771D01*
X109635714Y-77869771D02*
X109607143Y-77984057D01*
X109607143Y-77984057D02*
X109550000Y-78041200D01*
X109550000Y-78041200D02*
X109492857Y-78069771D01*
X109492857Y-78069771D02*
X109378571Y-78069771D01*
X109378571Y-78069771D02*
X109321429Y-78041200D01*
X109321429Y-78041200D02*
X109264286Y-77984057D01*
X109264286Y-77984057D02*
X109235714Y-77869771D01*
X109235714Y-77869771D02*
X109235714Y-77669771D01*
X109235714Y-77669771D02*
X109264286Y-77555485D01*
X109264286Y-77555485D02*
X109321429Y-77498342D01*
X109321429Y-77498342D02*
X109378571Y-77469771D01*
X109807142Y-77469771D02*
X110150000Y-77469771D01*
X109978571Y-78069771D02*
X109978571Y-77469771D01*
X111135714Y-69991200D02*
X111221429Y-70019771D01*
X111221429Y-70019771D02*
X111364286Y-70019771D01*
X111364286Y-70019771D02*
X111421429Y-69991200D01*
X111421429Y-69991200D02*
X111450000Y-69962628D01*
X111450000Y-69962628D02*
X111478571Y-69905485D01*
X111478571Y-69905485D02*
X111478571Y-69848342D01*
X111478571Y-69848342D02*
X111450000Y-69791200D01*
X111450000Y-69791200D02*
X111421429Y-69762628D01*
X111421429Y-69762628D02*
X111364286Y-69734057D01*
X111364286Y-69734057D02*
X111250000Y-69705485D01*
X111250000Y-69705485D02*
X111192857Y-69676914D01*
X111192857Y-69676914D02*
X111164286Y-69648342D01*
X111164286Y-69648342D02*
X111135714Y-69591200D01*
X111135714Y-69591200D02*
X111135714Y-69534057D01*
X111135714Y-69534057D02*
X111164286Y-69476914D01*
X111164286Y-69476914D02*
X111192857Y-69448342D01*
X111192857Y-69448342D02*
X111250000Y-69419771D01*
X111250000Y-69419771D02*
X111392857Y-69419771D01*
X111392857Y-69419771D02*
X111478571Y-69448342D01*
X111678572Y-69419771D02*
X111821429Y-70019771D01*
X111821429Y-70019771D02*
X111935715Y-69591200D01*
X111935715Y-69591200D02*
X112050000Y-70019771D01*
X112050000Y-70019771D02*
X112192858Y-69419771D01*
X112421429Y-70019771D02*
X112421429Y-69419771D01*
X112421429Y-69419771D02*
X112564286Y-69419771D01*
X112564286Y-69419771D02*
X112650000Y-69448342D01*
X112650000Y-69448342D02*
X112707143Y-69505485D01*
X112707143Y-69505485D02*
X112735714Y-69562628D01*
X112735714Y-69562628D02*
X112764286Y-69676914D01*
X112764286Y-69676914D02*
X112764286Y-69762628D01*
X112764286Y-69762628D02*
X112735714Y-69876914D01*
X112735714Y-69876914D02*
X112707143Y-69934057D01*
X112707143Y-69934057D02*
X112650000Y-69991200D01*
X112650000Y-69991200D02*
X112564286Y-70019771D01*
X112564286Y-70019771D02*
X112421429Y-70019771D01*
D11*
X101628571Y-49580900D02*
X101971429Y-49580900D01*
X102971429Y-49730900D02*
X103035715Y-49752328D01*
X103035715Y-49752328D02*
X103142857Y-49752328D01*
X103142857Y-49752328D02*
X103185715Y-49730900D01*
X103185715Y-49730900D02*
X103207143Y-49709471D01*
X103207143Y-49709471D02*
X103228572Y-49666614D01*
X103228572Y-49666614D02*
X103228572Y-49623757D01*
X103228572Y-49623757D02*
X103207143Y-49580900D01*
X103207143Y-49580900D02*
X103185715Y-49559471D01*
X103185715Y-49559471D02*
X103142857Y-49538042D01*
X103142857Y-49538042D02*
X103057143Y-49516614D01*
X103057143Y-49516614D02*
X103014286Y-49495185D01*
X103014286Y-49495185D02*
X102992857Y-49473757D01*
X102992857Y-49473757D02*
X102971429Y-49430900D01*
X102971429Y-49430900D02*
X102971429Y-49388042D01*
X102971429Y-49388042D02*
X102992857Y-49345185D01*
X102992857Y-49345185D02*
X103014286Y-49323757D01*
X103014286Y-49323757D02*
X103057143Y-49302328D01*
X103057143Y-49302328D02*
X103164286Y-49302328D01*
X103164286Y-49302328D02*
X103228572Y-49323757D01*
X108025000Y-68709471D02*
X108003572Y-68730900D01*
X108003572Y-68730900D02*
X107939286Y-68752328D01*
X107939286Y-68752328D02*
X107896429Y-68752328D01*
X107896429Y-68752328D02*
X107832143Y-68730900D01*
X107832143Y-68730900D02*
X107789286Y-68688042D01*
X107789286Y-68688042D02*
X107767857Y-68645185D01*
X107767857Y-68645185D02*
X107746429Y-68559471D01*
X107746429Y-68559471D02*
X107746429Y-68495185D01*
X107746429Y-68495185D02*
X107767857Y-68409471D01*
X107767857Y-68409471D02*
X107789286Y-68366614D01*
X107789286Y-68366614D02*
X107832143Y-68323757D01*
X107832143Y-68323757D02*
X107896429Y-68302328D01*
X107896429Y-68302328D02*
X107939286Y-68302328D01*
X107939286Y-68302328D02*
X108003572Y-68323757D01*
X108003572Y-68323757D02*
X108025000Y-68345185D01*
X108196429Y-68730900D02*
X108260715Y-68752328D01*
X108260715Y-68752328D02*
X108367857Y-68752328D01*
X108367857Y-68752328D02*
X108410715Y-68730900D01*
X108410715Y-68730900D02*
X108432143Y-68709471D01*
X108432143Y-68709471D02*
X108453572Y-68666614D01*
X108453572Y-68666614D02*
X108453572Y-68623757D01*
X108453572Y-68623757D02*
X108432143Y-68580900D01*
X108432143Y-68580900D02*
X108410715Y-68559471D01*
X108410715Y-68559471D02*
X108367857Y-68538042D01*
X108367857Y-68538042D02*
X108282143Y-68516614D01*
X108282143Y-68516614D02*
X108239286Y-68495185D01*
X108239286Y-68495185D02*
X108217857Y-68473757D01*
X108217857Y-68473757D02*
X108196429Y-68430900D01*
X108196429Y-68430900D02*
X108196429Y-68388042D01*
X108196429Y-68388042D02*
X108217857Y-68345185D01*
X108217857Y-68345185D02*
X108239286Y-68323757D01*
X108239286Y-68323757D02*
X108282143Y-68302328D01*
X108282143Y-68302328D02*
X108389286Y-68302328D01*
X108389286Y-68302328D02*
X108453572Y-68323757D01*
X107705715Y-68177400D02*
X108494286Y-68177400D01*
X92278571Y-45980900D02*
X92621429Y-45980900D01*
X92450000Y-46152328D02*
X92450000Y-45809471D01*
X93528571Y-45980900D02*
X93871429Y-45980900D01*
D13*
%TO.C,J2*%
X85267500Y-68970000D02*
X86587500Y-68970000D01*
X89347500Y-68980000D02*
X91217500Y-68980000D01*
X93097500Y-70020000D02*
X93097500Y-70290000D01*
X93097500Y-76550000D02*
X93097500Y-76570000D01*
X89347500Y-77610000D02*
X91217500Y-77610000D01*
X85267500Y-77610000D02*
X85267500Y-68970000D01*
X85267500Y-77610000D02*
X86587500Y-77610000D01*
%TO.C,SW2*%
X90080000Y-50030000D02*
X90030000Y-50030000D01*
X88760000Y-50480000D02*
X87820000Y-50480000D01*
X86800000Y-51560000D02*
X86800000Y-51180000D01*
X90080000Y-51620000D02*
X90080000Y-50030000D01*
X85300000Y-51700000D02*
X86750000Y-51700000D01*
X86800000Y-53450000D02*
X86800000Y-51560000D01*
X86800000Y-53450000D02*
X85300000Y-53450000D01*
X86800000Y-53450000D02*
X86800000Y-55220000D01*
X85300000Y-53450000D02*
X85300000Y-51700000D01*
X90080000Y-54780000D02*
X90080000Y-56370000D01*
X88750000Y-55900000D02*
X87810000Y-55900000D01*
X90080000Y-56370000D02*
X90030000Y-56370000D01*
D14*
%TO.C,D2*%
X95058290Y-58982269D02*
X92017731Y-55941710D01*
X95058290Y-58982269D02*
X90950000Y-63090559D01*
X92017731Y-55941710D02*
X87909441Y-60050000D01*
D13*
%TO.C,U7*%
X112850000Y-66750000D02*
X112850000Y-65830000D01*
X116020000Y-66750000D02*
X112850000Y-66750000D01*
X112850000Y-64870000D02*
X112850000Y-64560000D01*
X112850000Y-63600000D02*
X112850000Y-63290000D01*
X112850000Y-62330000D02*
X112850000Y-62020000D01*
X112850000Y-61060000D02*
X112850000Y-60150000D01*
X112850000Y-60150000D02*
X116020000Y-60150000D01*
X116020000Y-60150000D02*
X116020000Y-66750000D01*
D15*
%TO.C,D69*%
X113200000Y-59500000D02*
X114800000Y-59500000D01*
X113200000Y-59500000D02*
X113200000Y-56800000D01*
X114800000Y-59500000D02*
X114800000Y-56800000D01*
%TO.C,D18*%
X101965522Y-61541012D02*
G75*
G02*
X101865520Y-61541012I-50001J0D01*
G01*
X101865520Y-61541012D02*
G75*
G02*
X101965522Y-61541012I50001J0D01*
G01*
D14*
%TO.C,SW1*%
X107600000Y-73200000D02*
X107600000Y-76500000D01*
X107600000Y-76500000D02*
X107900000Y-76500000D01*
X107900000Y-73200000D02*
X107600000Y-73200000D01*
X110100000Y-73200000D02*
X110400000Y-73200000D01*
X110400000Y-73200000D02*
X110400000Y-76500000D01*
X110400000Y-76500000D02*
X110100000Y-76500000D01*
%TO.C,C1*%
X94637836Y-76540000D02*
X94422164Y-76540000D01*
X94637836Y-77260000D02*
X94422164Y-77260000D01*
D15*
%TO.C,D46*%
X108394093Y-55141012D02*
G75*
G02*
X108294091Y-55141012I-50001J0D01*
G01*
X108294091Y-55141012D02*
G75*
G02*
X108394093Y-55141012I50001J0D01*
G01*
%TO.C,D21*%
X103608379Y-53517286D02*
G75*
G02*
X103508377Y-53517286I-50001J0D01*
G01*
X103508377Y-53517286D02*
G75*
G02*
X103608379Y-53517286I50001J0D01*
G01*
%TO.C,D33*%
X105179808Y-59941012D02*
G75*
G02*
X105079806Y-59941012I-50001J0D01*
G01*
X105079806Y-59941012D02*
G75*
G02*
X105179808Y-59941012I50001J0D01*
G01*
%TO.C,D55*%
X110001236Y-56741012D02*
G75*
G02*
X109901234Y-56741012I-50001J0D01*
G01*
X109901234Y-56741012D02*
G75*
G02*
X110001236Y-56741012I50001J0D01*
G01*
%TO.C,D56*%
X110001236Y-58341012D02*
G75*
G02*
X109901234Y-58341012I-50001J0D01*
G01*
X109901234Y-58341012D02*
G75*
G02*
X110001236Y-58341012I50001J0D01*
G01*
%TO.C,D45*%
X108408379Y-53517286D02*
G75*
G02*
X108308377Y-53517286I-50001J0D01*
G01*
X108308377Y-53517286D02*
G75*
G02*
X108408379Y-53517286I50001J0D01*
G01*
%TO.C,D24*%
X103572665Y-58341012D02*
G75*
G02*
X103472663Y-58341012I-50001J0D01*
G01*
X103472663Y-58341012D02*
G75*
G02*
X103572665Y-58341012I50001J0D01*
G01*
D14*
%TO.C,L1*%
X95938748Y-49190000D02*
X96461252Y-49190000D01*
X95938748Y-51410000D02*
X96461252Y-51410000D01*
D15*
%TO.C,D35*%
X105179808Y-63141012D02*
G75*
G02*
X105079806Y-63141012I-50001J0D01*
G01*
X105079806Y-63141012D02*
G75*
G02*
X105179808Y-63141012I50001J0D01*
G01*
D14*
%TO.C,U4*%
X94640000Y-53700000D02*
X94640000Y-52900000D01*
X94640000Y-53700000D02*
X94640000Y-54500000D01*
X97760000Y-53700000D02*
X97760000Y-52900000D01*
X97760000Y-53700000D02*
X97760000Y-54500000D01*
X94690000Y-55000000D02*
X94360000Y-55240000D01*
X94360000Y-54760000D01*
X94690000Y-55000000D01*
G36*
X94690000Y-55000000D02*
G01*
X94360000Y-55240000D01*
X94360000Y-54760000D01*
X94690000Y-55000000D01*
G37*
D15*
%TO.C,D37*%
X106808379Y-53517286D02*
G75*
G02*
X106708377Y-53517286I-50001J0D01*
G01*
X106708377Y-53517286D02*
G75*
G02*
X106808379Y-53517286I50001J0D01*
G01*
D14*
%TO.C,U3*%
X96590000Y-46900000D02*
X96590000Y-46100000D01*
X96590000Y-46900000D02*
X96590000Y-47700000D01*
X99710000Y-46900000D02*
X99710000Y-46100000D01*
X99710000Y-46900000D02*
X99710000Y-47700000D01*
X99990000Y-45840000D02*
X99660000Y-45600000D01*
X99990000Y-45360000D01*
X99990000Y-45840000D01*
G36*
X99990000Y-45840000D02*
G01*
X99660000Y-45600000D01*
X99990000Y-45360000D01*
X99990000Y-45840000D01*
G37*
D15*
%TO.C,D47*%
X108394093Y-56741012D02*
G75*
G02*
X108294091Y-56741012I-50001J0D01*
G01*
X108294091Y-56741012D02*
G75*
G02*
X108394093Y-56741012I50001J0D01*
G01*
D14*
%TO.C,Q1*%
X91227500Y-53950000D02*
X91227500Y-53300000D01*
X91227500Y-53950000D02*
X91227500Y-54600000D01*
X94347500Y-53950000D02*
X94347500Y-53300000D01*
X94347500Y-53950000D02*
X94347500Y-54600000D01*
X91277500Y-55112500D02*
X90947500Y-55352500D01*
X90947500Y-54872500D01*
X91277500Y-55112500D01*
G36*
X91277500Y-55112500D02*
G01*
X90947500Y-55352500D01*
X90947500Y-54872500D01*
X91277500Y-55112500D01*
G37*
%TO.C,U5*%
X92440000Y-61840000D02*
X92790000Y-61840000D01*
X92440000Y-62190000D02*
X92440000Y-61840000D01*
X92440000Y-65710000D02*
X92440000Y-66060000D01*
X92440000Y-66060000D02*
X92790000Y-66060000D01*
X96310000Y-61840000D02*
X96420000Y-61840000D01*
X96660000Y-65710000D02*
X96660000Y-66060000D01*
X96660000Y-66060000D02*
X96310000Y-66060000D01*
X96990000Y-62080000D02*
X96660000Y-61840000D01*
X96990000Y-61600000D01*
X96990000Y-62080000D01*
G36*
X96990000Y-62080000D02*
G01*
X96660000Y-61840000D01*
X96990000Y-61600000D01*
X96990000Y-62080000D01*
G37*
D15*
%TO.C,D20*%
X101965522Y-64741012D02*
G75*
G02*
X101865520Y-64741012I-50001J0D01*
G01*
X101865520Y-64741012D02*
G75*
G02*
X101965522Y-64741012I50001J0D01*
G01*
%TO.C,D26*%
X103572665Y-61541012D02*
G75*
G02*
X103472663Y-61541012I-50001J0D01*
G01*
X103472663Y-61541012D02*
G75*
G02*
X103572665Y-61541012I50001J0D01*
G01*
D14*
%TO.C,U6*%
X105190000Y-45990000D02*
X105665000Y-45990000D01*
X105190000Y-46465000D02*
X105190000Y-45990000D01*
X105190000Y-49735000D02*
X105190000Y-49910000D01*
X105665000Y-50210000D02*
X105430000Y-50210000D01*
X109410000Y-45990000D02*
X108935000Y-45990000D01*
X109410000Y-46465000D02*
X109410000Y-45990000D01*
X109410000Y-49735000D02*
X109410000Y-50210000D01*
X109410000Y-50210000D02*
X108935000Y-50210000D01*
X105190000Y-50210000D02*
X104860000Y-50450000D01*
X104860000Y-49970000D01*
X105190000Y-50210000D01*
G36*
X105190000Y-50210000D02*
G01*
X104860000Y-50450000D01*
X104860000Y-49970000D01*
X105190000Y-50210000D01*
G37*
D15*
%TO.C,D30*%
X105179808Y-55141012D02*
G75*
G02*
X105079806Y-55141012I-50001J0D01*
G01*
X105079806Y-55141012D02*
G75*
G02*
X105179808Y-55141012I50001J0D01*
G01*
%TO.C,D22*%
X103572665Y-55141012D02*
G75*
G02*
X103472663Y-55141012I-50001J0D01*
G01*
X103472663Y-55141012D02*
G75*
G02*
X103572665Y-55141012I50001J0D01*
G01*
%TO.C,D11*%
X100358379Y-63141012D02*
G75*
G02*
X100258377Y-63141012I-50001J0D01*
G01*
X100258377Y-63141012D02*
G75*
G02*
X100358379Y-63141012I50001J0D01*
G01*
%TO.C,D54*%
X110001236Y-55141012D02*
G75*
G02*
X109901234Y-55141012I-50001J0D01*
G01*
X109901234Y-55141012D02*
G75*
G02*
X110001236Y-55141012I50001J0D01*
G01*
%TO.C,D60*%
X110001236Y-64741012D02*
G75*
G02*
X109901234Y-64741012I-50001J0D01*
G01*
X109901234Y-64741012D02*
G75*
G02*
X110001236Y-64741012I50001J0D01*
G01*
%TO.C,D9*%
X100358379Y-59941012D02*
G75*
G02*
X100258377Y-59941012I-50001J0D01*
G01*
X100258377Y-59941012D02*
G75*
G02*
X100358379Y-59941012I50001J0D01*
G01*
%TO.C,D14*%
X101965522Y-55141012D02*
G75*
G02*
X101865520Y-55141012I-50001J0D01*
G01*
X101865520Y-55141012D02*
G75*
G02*
X101965522Y-55141012I50001J0D01*
G01*
D14*
%TO.C,C17*%
X98040000Y-52492164D02*
X98040000Y-52707836D01*
X98760000Y-52492164D02*
X98760000Y-52707836D01*
D15*
%TO.C,D40*%
X106786950Y-58341012D02*
G75*
G02*
X106686948Y-58341012I-50001J0D01*
G01*
X106686948Y-58341012D02*
G75*
G02*
X106786950Y-58341012I50001J0D01*
G01*
%TO.C,D31*%
X105179808Y-56741012D02*
G75*
G02*
X105079806Y-56741012I-50001J0D01*
G01*
X105079806Y-56741012D02*
G75*
G02*
X105179808Y-56741012I50001J0D01*
G01*
%TO.C,D12*%
X100358379Y-64741012D02*
G75*
G02*
X100258377Y-64741012I-50001J0D01*
G01*
X100258377Y-64741012D02*
G75*
G02*
X100358379Y-64741012I50001J0D01*
G01*
D14*
%TO.C,U2*%
X98690000Y-67990000D02*
X98690000Y-67580000D01*
X98690000Y-74560000D02*
X98690000Y-73910000D01*
X99340000Y-67340000D02*
X98990000Y-67340000D01*
X99340000Y-74560000D02*
X98690000Y-74560000D01*
X105260000Y-67340000D02*
X105910000Y-67340000D01*
X105260000Y-74560000D02*
X105910000Y-74560000D01*
X105910000Y-67340000D02*
X105910000Y-67990000D01*
X105910000Y-74560000D02*
X105910000Y-73910000D01*
X98690000Y-67340000D02*
X98450000Y-67010000D01*
X98930000Y-67010000D01*
X98690000Y-67340000D01*
G36*
X98690000Y-67340000D02*
G01*
X98450000Y-67010000D01*
X98930000Y-67010000D01*
X98690000Y-67340000D01*
G37*
D15*
%TO.C,D5*%
X100358379Y-53517286D02*
G75*
G02*
X100258377Y-53517286I-50001J0D01*
G01*
X100258377Y-53517286D02*
G75*
G02*
X100358379Y-53517286I50001J0D01*
G01*
%TO.C,D58*%
X110001236Y-61541012D02*
G75*
G02*
X109901234Y-61541012I-50001J0D01*
G01*
X109901234Y-61541012D02*
G75*
G02*
X110001236Y-61541012I50001J0D01*
G01*
D14*
%TO.C,FB1*%
X105538748Y-65140000D02*
X106061252Y-65140000D01*
X105538748Y-66560000D02*
X106061252Y-66560000D01*
D15*
%TO.C,D67*%
X111608379Y-63141012D02*
G75*
G02*
X111508377Y-63141012I-50001J0D01*
G01*
X111508377Y-63141012D02*
G75*
G02*
X111608379Y-63141012I50001J0D01*
G01*
%TO.C,D39*%
X106786950Y-56741012D02*
G75*
G02*
X106686948Y-56741012I-50001J0D01*
G01*
X106686948Y-56741012D02*
G75*
G02*
X106786950Y-56741012I50001J0D01*
G01*
D14*
%TO.C,C14*%
X95590000Y-47637836D02*
X95590000Y-47422164D01*
X96310000Y-47637836D02*
X96310000Y-47422164D01*
D15*
%TO.C,D23*%
X103572665Y-56741012D02*
G75*
G02*
X103472663Y-56741012I-50001J0D01*
G01*
X103472663Y-56741012D02*
G75*
G02*
X103572665Y-56741012I50001J0D01*
G01*
%TO.C,D19*%
X101965522Y-63141012D02*
G75*
G02*
X101865520Y-63141012I-50001J0D01*
G01*
X101865520Y-63141012D02*
G75*
G02*
X101965522Y-63141012I50001J0D01*
G01*
%TO.C,D44*%
X106786950Y-64741012D02*
G75*
G02*
X106686948Y-64741012I-50001J0D01*
G01*
X106686948Y-64741012D02*
G75*
G02*
X106786950Y-64741012I50001J0D01*
G01*
%TO.C,D66*%
X111608379Y-61541012D02*
G75*
G02*
X111508377Y-61541012I-50001J0D01*
G01*
X111508377Y-61541012D02*
G75*
G02*
X111608379Y-61541012I50001J0D01*
G01*
D14*
%TO.C,J4*%
X100615000Y-49043000D02*
X100615000Y-45013000D01*
X101477077Y-45013000D02*
X100615000Y-45013000D01*
X101477077Y-49043000D02*
X100615000Y-49043000D01*
X102747077Y-45013000D02*
X102112923Y-45013000D01*
X104245000Y-45013000D02*
X103382923Y-45013000D01*
X104245000Y-47488000D02*
X103731708Y-47488000D01*
X104245000Y-47488000D02*
X104245000Y-45013000D01*
X104245000Y-48298000D02*
X104245000Y-49108000D01*
X104245000Y-49108000D02*
X103065000Y-49108000D01*
D15*
%TO.C,D8*%
X100358379Y-58341012D02*
G75*
G02*
X100258377Y-58341012I-50001J0D01*
G01*
X100258377Y-58341012D02*
G75*
G02*
X100358379Y-58341012I50001J0D01*
G01*
%TO.C,D36*%
X105179808Y-64741012D02*
G75*
G02*
X105079806Y-64741012I-50001J0D01*
G01*
X105079806Y-64741012D02*
G75*
G02*
X105179808Y-64741012I50001J0D01*
G01*
%TO.C,D53*%
X110008379Y-53517286D02*
G75*
G02*
X109908377Y-53517286I-50001J0D01*
G01*
X109908377Y-53517286D02*
G75*
G02*
X110008379Y-53517286I50001J0D01*
G01*
%TO.C,D68*%
X111608379Y-64741012D02*
G75*
G02*
X111508377Y-64741012I-50001J0D01*
G01*
X111508377Y-64741012D02*
G75*
G02*
X111608379Y-64741012I50001J0D01*
G01*
%TO.C,D6*%
X100358379Y-55141012D02*
G75*
G02*
X100258377Y-55141012I-50001J0D01*
G01*
X100258377Y-55141012D02*
G75*
G02*
X100358379Y-55141012I50001J0D01*
G01*
D14*
%TO.C,U1*%
X94890000Y-74000000D02*
X94890000Y-73200000D01*
X94890000Y-74000000D02*
X94890000Y-74800000D01*
X98010000Y-74000000D02*
X98010000Y-73200000D01*
X98010000Y-74000000D02*
X98010000Y-74800000D01*
X94940000Y-75300000D02*
X94610000Y-75540000D01*
X94610000Y-75060000D01*
X94940000Y-75300000D01*
G36*
X94940000Y-75300000D02*
G01*
X94610000Y-75540000D01*
X94610000Y-75060000D01*
X94940000Y-75300000D01*
G37*
D15*
%TO.C,D27*%
X103572665Y-63141012D02*
G75*
G02*
X103472663Y-63141012I-50001J0D01*
G01*
X103472663Y-63141012D02*
G75*
G02*
X103572665Y-63141012I50001J0D01*
G01*
%TO.C,D57*%
X110001236Y-59941012D02*
G75*
G02*
X109901234Y-59941012I-50001J0D01*
G01*
X109901234Y-59941012D02*
G75*
G02*
X110001236Y-59941012I50001J0D01*
G01*
%TO.C,D28*%
X103572665Y-64741012D02*
G75*
G02*
X103472663Y-64741012I-50001J0D01*
G01*
X103472663Y-64741012D02*
G75*
G02*
X103572665Y-64741012I50001J0D01*
G01*
%TO.C,D13*%
X102008379Y-53517286D02*
G75*
G02*
X101908377Y-53517286I-50001J0D01*
G01*
X101908377Y-53517286D02*
G75*
G02*
X102008379Y-53517286I50001J0D01*
G01*
%TO.C,D63*%
X111608379Y-56741012D02*
G75*
G02*
X111508377Y-56741012I-50001J0D01*
G01*
X111508377Y-56741012D02*
G75*
G02*
X111608379Y-56741012I50001J0D01*
G01*
%TO.C,D64*%
X111608379Y-58341012D02*
G75*
G02*
X111508377Y-58341012I-50001J0D01*
G01*
X111508377Y-58341012D02*
G75*
G02*
X111608379Y-58341012I50001J0D01*
G01*
%TO.C,D10*%
X100358379Y-61541012D02*
G75*
G02*
X100258377Y-61541012I-50001J0D01*
G01*
X100258377Y-61541012D02*
G75*
G02*
X100358379Y-61541012I50001J0D01*
G01*
%TO.C,D29*%
X105208379Y-53517286D02*
G75*
G02*
X105108377Y-53517286I-50001J0D01*
G01*
X105108377Y-53517286D02*
G75*
G02*
X105208379Y-53517286I50001J0D01*
G01*
D14*
%TO.C,J1*%
X108445000Y-66575000D02*
X109080000Y-66575000D01*
X108445000Y-67210000D02*
X108445000Y-66575000D01*
D15*
%TO.C,D16*%
X101965522Y-58341012D02*
G75*
G02*
X101865520Y-58341012I-50001J0D01*
G01*
X101865520Y-58341012D02*
G75*
G02*
X101965522Y-58341012I50001J0D01*
G01*
%TO.C,D51*%
X108394093Y-63141012D02*
G75*
G02*
X108294091Y-63141012I-50001J0D01*
G01*
X108294091Y-63141012D02*
G75*
G02*
X108394093Y-63141012I50001J0D01*
G01*
%TO.C,D7*%
X100358379Y-56741012D02*
G75*
G02*
X100258377Y-56741012I-50001J0D01*
G01*
X100258377Y-56741012D02*
G75*
G02*
X100358379Y-56741012I50001J0D01*
G01*
%TO.C,D49*%
X108394093Y-59941012D02*
G75*
G02*
X108294091Y-59941012I-50001J0D01*
G01*
X108294091Y-59941012D02*
G75*
G02*
X108394093Y-59941012I50001J0D01*
G01*
%TO.C,D59*%
X110001236Y-63141012D02*
G75*
G02*
X109901234Y-63141012I-50001J0D01*
G01*
X109901234Y-63141012D02*
G75*
G02*
X110001236Y-63141012I50001J0D01*
G01*
D14*
%TO.C,C9*%
X106840000Y-69067164D02*
X106840000Y-69282836D01*
X107560000Y-69067164D02*
X107560000Y-69282836D01*
D15*
%TO.C,D41*%
X106786950Y-59941012D02*
G75*
G02*
X106686948Y-59941012I-50001J0D01*
G01*
X106686948Y-59941012D02*
G75*
G02*
X106786950Y-59941012I50001J0D01*
G01*
%TO.C,D32*%
X105179808Y-58341012D02*
G75*
G02*
X105079806Y-58341012I-50001J0D01*
G01*
X105079806Y-58341012D02*
G75*
G02*
X105179808Y-58341012I50001J0D01*
G01*
%TO.C,D48*%
X108394093Y-58341012D02*
G75*
G02*
X108294091Y-58341012I-50001J0D01*
G01*
X108294091Y-58341012D02*
G75*
G02*
X108394093Y-58341012I50001J0D01*
G01*
%TO.C,D50*%
X108394093Y-61541012D02*
G75*
G02*
X108294091Y-61541012I-50001J0D01*
G01*
X108294091Y-61541012D02*
G75*
G02*
X108394093Y-61541012I50001J0D01*
G01*
%TO.C,D52*%
X108394093Y-64741012D02*
G75*
G02*
X108294091Y-64741012I-50001J0D01*
G01*
X108294091Y-64741012D02*
G75*
G02*
X108394093Y-64741012I50001J0D01*
G01*
%TO.C,D38*%
X106786950Y-55141012D02*
G75*
G02*
X106686948Y-55141012I-50001J0D01*
G01*
X106686948Y-55141012D02*
G75*
G02*
X106786950Y-55141012I50001J0D01*
G01*
%TO.C,D25*%
X103572665Y-59941012D02*
G75*
G02*
X103472663Y-59941012I-50001J0D01*
G01*
X103472663Y-59941012D02*
G75*
G02*
X103572665Y-59941012I50001J0D01*
G01*
D14*
%TO.C,BT1*%
X91505000Y-46415000D02*
X91505000Y-46355000D01*
X91505000Y-47810000D02*
X91505000Y-47050000D01*
X91695000Y-46355000D02*
X91505000Y-46355000D01*
X91695000Y-46415000D02*
X91505000Y-46415000D01*
X92455000Y-47810000D02*
X91505000Y-47810000D01*
X93417470Y-46355000D02*
X93215000Y-46355000D01*
X93417470Y-47745000D02*
X93215000Y-47745000D01*
X94675000Y-46355000D02*
X94032530Y-46355000D01*
X94675000Y-47745000D02*
X94032530Y-47745000D01*
X94675000Y-47745000D02*
X94675000Y-46355000D01*
D15*
%TO.C,D34*%
X105179808Y-61541012D02*
G75*
G02*
X105079806Y-61541012I-50001J0D01*
G01*
X105079806Y-61541012D02*
G75*
G02*
X105179808Y-61541012I50001J0D01*
G01*
D14*
%TO.C,C8*%
X97007836Y-68940000D02*
X96792164Y-68940000D01*
X97007836Y-69660000D02*
X96792164Y-69660000D01*
%TO.C,X1*%
X99750000Y-75225000D02*
X99750000Y-78525000D01*
X99750000Y-78525000D02*
X103750000Y-78525000D01*
D15*
%TO.C,D65*%
X111608379Y-59941012D02*
G75*
G02*
X111508377Y-59941012I-50001J0D01*
G01*
X111508377Y-59941012D02*
G75*
G02*
X111608379Y-59941012I50001J0D01*
G01*
%TO.C,D17*%
X101965522Y-59941012D02*
G75*
G02*
X101865520Y-59941012I-50001J0D01*
G01*
X101865520Y-59941012D02*
G75*
G02*
X101965522Y-59941012I50001J0D01*
G01*
%TO.C,D43*%
X106786950Y-63141012D02*
G75*
G02*
X106686948Y-63141012I-50001J0D01*
G01*
X106686948Y-63141012D02*
G75*
G02*
X106786950Y-63141012I50001J0D01*
G01*
D14*
%TO.C,C11*%
X105372164Y-76190000D02*
X105587836Y-76190000D01*
X105372164Y-76910000D02*
X105587836Y-76910000D01*
%TO.C,C15*%
X95612164Y-56140000D02*
X95827836Y-56140000D01*
X95612164Y-56860000D02*
X95827836Y-56860000D01*
D15*
%TO.C,D3*%
X87200000Y-66205000D02*
G75*
G02*
X87100000Y-66205000I-50000J0D01*
G01*
X87100000Y-66205000D02*
G75*
G02*
X87200000Y-66205000I50000J0D01*
G01*
D14*
%TO.C,C13*%
X91140000Y-49062164D02*
X91140000Y-49277836D01*
X91860000Y-49062164D02*
X91860000Y-49277836D01*
D15*
%TO.C,D1*%
X87150000Y-56795000D02*
G75*
G02*
X87050000Y-56795000I-50000J0D01*
G01*
X87050000Y-56795000D02*
G75*
G02*
X87150000Y-56795000I50000J0D01*
G01*
%TO.C,D42*%
X106786950Y-61541012D02*
G75*
G02*
X106686948Y-61541012I-50001J0D01*
G01*
X106686948Y-61541012D02*
G75*
G02*
X106786950Y-61541012I50001J0D01*
G01*
%TO.C,D4*%
X87200000Y-68380000D02*
G75*
G02*
X87100000Y-68380000I-50000J0D01*
G01*
X87100000Y-68380000D02*
G75*
G02*
X87200000Y-68380000I50000J0D01*
G01*
%TO.C,D15*%
X101965522Y-56741012D02*
G75*
G02*
X101865520Y-56741012I-50001J0D01*
G01*
X101865520Y-56741012D02*
G75*
G02*
X101965522Y-56741012I50001J0D01*
G01*
%TO.C,D62*%
X111608379Y-55141012D02*
G75*
G02*
X111508377Y-55141012I-50001J0D01*
G01*
X111508377Y-55141012D02*
G75*
G02*
X111608379Y-55141012I50001J0D01*
G01*
%TO.C,D61*%
X111608379Y-53517286D02*
G75*
G02*
X111508377Y-53517286I-50001J0D01*
G01*
X111508377Y-53517286D02*
G75*
G02*
X111608379Y-53517286I50001J0D01*
G01*
%TD*%
%LPC*%
D16*
%TO.C,J2*%
X91167500Y-69900000D03*
X91167500Y-76700000D03*
D17*
X93147500Y-70670000D03*
X93147500Y-71180000D03*
X93147500Y-71670000D03*
X93147500Y-72180000D03*
X93147500Y-72670000D03*
X93147500Y-73180000D03*
X93147500Y-73670000D03*
X93147500Y-74180000D03*
X93147500Y-74670000D03*
X93147500Y-75180000D03*
X93147500Y-75670000D03*
X93147500Y-76180000D03*
X91847500Y-75920000D03*
X91847500Y-75420000D03*
X91847500Y-74920000D03*
X91847500Y-74420000D03*
X91847500Y-73920000D03*
X91847500Y-73420000D03*
X91847500Y-72920000D03*
X91847500Y-72420000D03*
X91847500Y-71920000D03*
X91847500Y-71420000D03*
X91847500Y-70920000D03*
X91847500Y-70420000D03*
D18*
X92587500Y-68980000D03*
D19*
X87967500Y-68980000D03*
D20*
X92027500Y-69220000D03*
X92027500Y-77350000D03*
D18*
X92587500Y-77620000D03*
D19*
X87967500Y-77620000D03*
%TD*%
D21*
%TO.C,SW2*%
X88300000Y-51700000D03*
X88300000Y-54700000D03*
D22*
X90100000Y-52200000D03*
X90100000Y-53200000D03*
X90100000Y-54200000D03*
D23*
X89400000Y-50450000D03*
X87200000Y-50450000D03*
X89400000Y-55950000D03*
X87200000Y-55950000D03*
%TD*%
D24*
%TO.C,D2*%
X89429720Y-61570280D03*
X92470280Y-58529720D03*
%TD*%
D25*
%TO.C,U7*%
X113300000Y-65360000D03*
X113300000Y-64090000D03*
X113300000Y-62820000D03*
X113300000Y-61550000D03*
%TD*%
D26*
%TO.C,D69*%
X114000000Y-58950000D03*
X114000000Y-56250000D03*
%TD*%
D27*
%TO.C,D18*%
X101533683Y-61159174D03*
X101081135Y-60706626D03*
%TD*%
D28*
%TO.C,SW1*%
X109000000Y-73150000D03*
X109000000Y-76550000D03*
%TD*%
D29*
%TO.C,C1*%
X95010000Y-76900000D03*
X94050000Y-76900000D03*
%TD*%
D30*
%TO.C,R9*%
X89870000Y-57200000D03*
X89230000Y-57200000D03*
%TD*%
D31*
%TO.C,C10*%
X106800000Y-67230000D03*
X106800000Y-67870000D03*
%TD*%
D27*
%TO.C,D46*%
X107962254Y-54759174D03*
X107509706Y-54306626D03*
%TD*%
%TO.C,D21*%
X103176540Y-53135448D03*
X102723992Y-52682900D03*
%TD*%
%TO.C,D33*%
X104747969Y-59559174D03*
X104295421Y-59106626D03*
%TD*%
%TO.C,D55*%
X109569397Y-56359174D03*
X109116849Y-55906626D03*
%TD*%
%TO.C,D56*%
X109569397Y-57959174D03*
X109116849Y-57506626D03*
%TD*%
%TO.C,D45*%
X107976540Y-53135448D03*
X107523992Y-52682900D03*
%TD*%
%TO.C,D24*%
X103140826Y-57959174D03*
X102688278Y-57506626D03*
%TD*%
D32*
%TO.C,L1*%
X95125000Y-50300000D03*
X97275000Y-50300000D03*
%TD*%
D27*
%TO.C,D35*%
X104747969Y-62759174D03*
X104295421Y-62306626D03*
%TD*%
D33*
%TO.C,U4*%
X95250000Y-54837500D03*
X96200000Y-54837500D03*
X97150000Y-54837500D03*
X97150000Y-52562500D03*
X95250000Y-52562500D03*
%TD*%
D27*
%TO.C,D37*%
X106376540Y-53135448D03*
X105923992Y-52682900D03*
%TD*%
D34*
%TO.C,U3*%
X99100000Y-45762500D03*
X98150000Y-45762500D03*
X97200000Y-45762500D03*
X97200000Y-48037500D03*
X99100000Y-48037500D03*
%TD*%
D27*
%TO.C,D47*%
X107962254Y-56359174D03*
X107509706Y-55906626D03*
%TD*%
D35*
%TO.C,Q1*%
X91837500Y-54887500D03*
X93737500Y-54887500D03*
X92787500Y-53012500D03*
%TD*%
D36*
%TO.C,U5*%
X95950000Y-62000000D03*
D37*
X95550000Y-62000000D03*
X95150000Y-62000000D03*
X94750000Y-62000000D03*
X94350000Y-62000000D03*
X93950000Y-62000000D03*
X93550000Y-62000000D03*
D38*
X93150000Y-62000000D03*
D39*
X92600000Y-62550000D03*
D40*
X92600000Y-62950000D03*
X92600000Y-63350000D03*
X92600000Y-63750000D03*
X92600000Y-64150000D03*
X92600000Y-64550000D03*
X92600000Y-64950000D03*
D41*
X92600000Y-65350000D03*
D42*
X93150000Y-65900000D03*
D37*
X93550000Y-65900000D03*
X93950000Y-65900000D03*
X94350000Y-65900000D03*
X94750000Y-65900000D03*
X95150000Y-65900000D03*
X95550000Y-65900000D03*
D43*
X95950000Y-65900000D03*
D44*
X96500000Y-65350000D03*
D40*
X96500000Y-64950000D03*
X96500000Y-64550000D03*
X96500000Y-64150000D03*
X96500000Y-63750000D03*
X96500000Y-63350000D03*
X96500000Y-62950000D03*
D45*
X96500000Y-62550000D03*
D46*
X94550000Y-63950000D03*
%TD*%
D31*
%TO.C,C16*%
X97150000Y-56150000D03*
X97150000Y-56790000D03*
%TD*%
D27*
%TO.C,D20*%
X101533683Y-64359174D03*
X101081135Y-63906626D03*
%TD*%
D47*
%TO.C,C21*%
X105330000Y-51050000D03*
X105970000Y-51050000D03*
%TD*%
D27*
%TO.C,D26*%
X103140826Y-61159174D03*
X102688278Y-60706626D03*
%TD*%
D48*
%TO.C,U6*%
X106050000Y-50050000D03*
X106550000Y-50050000D03*
X107050000Y-50050000D03*
X107550000Y-50050000D03*
X108050000Y-50050000D03*
X108550000Y-50050000D03*
D49*
X109250000Y-49350000D03*
X109250000Y-48850000D03*
X109250000Y-48350000D03*
X109250000Y-47850000D03*
X109250000Y-47350000D03*
X109250000Y-46850000D03*
D48*
X108550000Y-46150000D03*
X108050000Y-46150000D03*
X107550000Y-46150000D03*
X107050000Y-46150000D03*
X106550000Y-46150000D03*
X106050000Y-46150000D03*
D49*
X105350000Y-46850000D03*
X105350000Y-47350000D03*
X105350000Y-47850000D03*
X105350000Y-48350000D03*
X105350000Y-48850000D03*
X105350000Y-49350000D03*
D50*
X107300000Y-48100000D03*
%TD*%
D27*
%TO.C,D30*%
X104747969Y-54759174D03*
X104295421Y-54306626D03*
%TD*%
%TO.C,D22*%
X103140826Y-54759174D03*
X102688278Y-54306626D03*
%TD*%
D31*
%TO.C,C22*%
X104350000Y-49830000D03*
X104350000Y-50470000D03*
%TD*%
D27*
%TO.C,D11*%
X99926540Y-62759174D03*
X99473992Y-62306626D03*
%TD*%
%TO.C,D54*%
X109569397Y-54759174D03*
X109116849Y-54306626D03*
%TD*%
D31*
%TO.C,R3*%
X87800000Y-57330000D03*
X87800000Y-57970000D03*
%TD*%
D27*
%TO.C,D60*%
X109569397Y-64359174D03*
X109116849Y-63906626D03*
%TD*%
%TO.C,D9*%
X99926540Y-59559174D03*
X99473992Y-59106626D03*
%TD*%
D51*
%TO.C,H2*%
X112900000Y-47350000D03*
%TD*%
D31*
%TO.C,R11*%
X87850000Y-65025000D03*
X87850000Y-65665000D03*
%TD*%
D27*
%TO.C,D14*%
X101533683Y-54759174D03*
X101081135Y-54306626D03*
%TD*%
D52*
%TO.C,C17*%
X98400000Y-52120000D03*
X98400000Y-53080000D03*
%TD*%
D27*
%TO.C,D40*%
X106355111Y-57959174D03*
X105902563Y-57506626D03*
%TD*%
%TO.C,D31*%
X104747969Y-56359174D03*
X104295421Y-55906626D03*
%TD*%
%TO.C,D12*%
X99926540Y-64359174D03*
X99473992Y-63906626D03*
%TD*%
D53*
%TO.C,U2*%
X98862500Y-68350000D03*
X98862500Y-68750000D03*
X98862500Y-69150000D03*
X98862500Y-69550000D03*
X98862500Y-69950000D03*
X98862500Y-70350000D03*
X98862500Y-70750000D03*
X98862500Y-71150000D03*
X98862500Y-71550000D03*
X98862500Y-71950000D03*
X98862500Y-72350000D03*
X98862500Y-72750000D03*
X98862500Y-73150000D03*
X98862500Y-73550000D03*
D54*
X99700000Y-74387500D03*
X100100000Y-74387500D03*
X100500000Y-74387500D03*
X100900000Y-74387500D03*
X101300000Y-74387500D03*
X101700000Y-74387500D03*
X102100000Y-74387500D03*
X102500000Y-74387500D03*
X102900000Y-74387500D03*
X103300000Y-74387500D03*
X103700000Y-74387500D03*
X104100000Y-74387500D03*
X104500000Y-74387500D03*
X104900000Y-74387500D03*
D53*
X105737500Y-73550000D03*
X105737500Y-73150000D03*
X105737500Y-72750000D03*
X105737500Y-72350000D03*
X105737500Y-71950000D03*
X105737500Y-71550000D03*
X105737500Y-71150000D03*
X105737500Y-70750000D03*
X105737500Y-70350000D03*
X105737500Y-69950000D03*
X105737500Y-69550000D03*
X105737500Y-69150000D03*
X105737500Y-68750000D03*
X105737500Y-68350000D03*
D54*
X104900000Y-67512500D03*
X104500000Y-67512500D03*
X104100000Y-67512500D03*
X103700000Y-67512500D03*
X103300000Y-67512500D03*
X102900000Y-67512500D03*
X102500000Y-67512500D03*
X102100000Y-67512500D03*
X101700000Y-67512500D03*
X101300000Y-67512500D03*
X100900000Y-67512500D03*
X100500000Y-67512500D03*
X100100000Y-67512500D03*
X99700000Y-67512500D03*
D55*
X102300000Y-70950000D03*
%TD*%
D56*
%TO.C,C2*%
X88550000Y-67820000D03*
X88550000Y-67180000D03*
%TD*%
D27*
%TO.C,D5*%
X99926540Y-53135448D03*
X99473992Y-52682900D03*
%TD*%
%TO.C,D58*%
X109569397Y-61159174D03*
X109116849Y-60706626D03*
%TD*%
D57*
%TO.C,FB1*%
X104775000Y-65850000D03*
X106825000Y-65850000D03*
%TD*%
D51*
%TO.C,H3*%
X112900000Y-76100000D03*
%TD*%
D27*
%TO.C,D67*%
X111176540Y-62759174D03*
X110723992Y-62306626D03*
%TD*%
%TO.C,D39*%
X106355111Y-56359174D03*
X105902563Y-55906626D03*
%TD*%
D58*
%TO.C,C14*%
X95950000Y-48010000D03*
X95950000Y-47050000D03*
%TD*%
D27*
%TO.C,D23*%
X103140826Y-56359174D03*
X102688278Y-55906626D03*
%TD*%
D31*
%TO.C,R13*%
X96850000Y-67630000D03*
X96850000Y-68270000D03*
%TD*%
D27*
%TO.C,D19*%
X101533683Y-62759174D03*
X101081135Y-62306626D03*
%TD*%
%TO.C,D44*%
X106355111Y-64359174D03*
X105902563Y-63906626D03*
%TD*%
D31*
%TO.C,C20*%
X96150000Y-67630000D03*
X96150000Y-68270000D03*
%TD*%
D27*
%TO.C,D66*%
X111176540Y-61159174D03*
X110723992Y-60706626D03*
%TD*%
D59*
%TO.C,J4*%
X103065000Y-48298000D03*
D60*
X101795000Y-48298000D03*
X103065000Y-47028000D03*
X101795000Y-47028000D03*
X103065000Y-45758000D03*
X101795000Y-45758000D03*
%TD*%
D47*
%TO.C,C12*%
X104230000Y-75650000D03*
X104870000Y-75650000D03*
%TD*%
%TO.C,C19*%
X99510000Y-66450000D03*
X100150000Y-66450000D03*
%TD*%
D27*
%TO.C,D8*%
X99926540Y-57959174D03*
X99473992Y-57506626D03*
%TD*%
D30*
%TO.C,C6*%
X102720000Y-66450000D03*
X102080000Y-66450000D03*
%TD*%
D27*
%TO.C,D36*%
X104747969Y-64359174D03*
X104295421Y-63906626D03*
%TD*%
%TO.C,D53*%
X109576540Y-53135448D03*
X109123992Y-52682900D03*
%TD*%
%TO.C,D68*%
X111176540Y-64359174D03*
X110723992Y-63906626D03*
%TD*%
%TO.C,D6*%
X99926540Y-54759174D03*
X99473992Y-54306626D03*
%TD*%
D33*
%TO.C,U1*%
X95500000Y-75137500D03*
X96450000Y-75137500D03*
X97400000Y-75137500D03*
X97400000Y-72862500D03*
X96450000Y-72862500D03*
X95500000Y-72862500D03*
%TD*%
D27*
%TO.C,D27*%
X103140826Y-62759174D03*
X102688278Y-62306626D03*
%TD*%
%TO.C,D57*%
X109569397Y-59559174D03*
X109116849Y-59106626D03*
%TD*%
D47*
%TO.C,R1*%
X89950000Y-68100000D03*
X90590000Y-68100000D03*
%TD*%
D27*
%TO.C,D28*%
X103140826Y-64359174D03*
X102688278Y-63906626D03*
%TD*%
%TO.C,D13*%
X101576540Y-53135448D03*
X101123992Y-52682900D03*
%TD*%
D30*
%TO.C,R10*%
X99170000Y-49300000D03*
X98530000Y-49300000D03*
%TD*%
D27*
%TO.C,D63*%
X111176540Y-56359174D03*
X110723992Y-55906626D03*
%TD*%
D31*
%TO.C,R12*%
X87850000Y-67210000D03*
X87850000Y-67850000D03*
%TD*%
D27*
%TO.C,D64*%
X111176540Y-57959174D03*
X110723992Y-57506626D03*
%TD*%
D56*
%TO.C,C26*%
X114750000Y-74190000D03*
X114750000Y-73550000D03*
%TD*%
D31*
%TO.C,R7*%
X110350000Y-50760000D03*
X110350000Y-51400000D03*
%TD*%
D27*
%TO.C,D10*%
X99926540Y-61159174D03*
X99473992Y-60706626D03*
%TD*%
D31*
%TO.C,R17*%
X112700000Y-58930000D03*
X112700000Y-59570000D03*
%TD*%
D56*
%TO.C,C3*%
X99300000Y-77220000D03*
X99300000Y-76580000D03*
%TD*%
D27*
%TO.C,D29*%
X104776540Y-53135448D03*
X104323992Y-52682900D03*
%TD*%
D61*
%TO.C,J1*%
X109715000Y-65940000D03*
X110731000Y-71020000D03*
X108699000Y-71020000D03*
D62*
X109080000Y-67210000D03*
X110350000Y-67210000D03*
X109080000Y-68480000D03*
X110350000Y-68480000D03*
X109080000Y-69750000D03*
X110350000Y-69750000D03*
%TD*%
D31*
%TO.C,C25*%
X114750000Y-49300000D03*
X114750000Y-49940000D03*
%TD*%
%TO.C,C4*%
X104200000Y-76600000D03*
X104200000Y-77240000D03*
%TD*%
D27*
%TO.C,D16*%
X101533683Y-57959174D03*
X101081135Y-57506626D03*
%TD*%
%TO.C,D51*%
X107962254Y-62759174D03*
X107509706Y-62306626D03*
%TD*%
%TO.C,D7*%
X99926540Y-56359174D03*
X99473992Y-55906626D03*
%TD*%
%TO.C,D49*%
X107962254Y-59559174D03*
X107509706Y-59106626D03*
%TD*%
%TO.C,D59*%
X109569397Y-62759174D03*
X109116849Y-62306626D03*
%TD*%
D52*
%TO.C,C9*%
X107200000Y-68695000D03*
X107200000Y-69655000D03*
%TD*%
D30*
%TO.C,R8*%
X112740000Y-67250000D03*
X112100000Y-67250000D03*
%TD*%
D27*
%TO.C,D41*%
X106355111Y-59559174D03*
X105902563Y-59106626D03*
%TD*%
%TO.C,D32*%
X104747969Y-57959174D03*
X104295421Y-57506626D03*
%TD*%
%TO.C,D48*%
X107962254Y-57959174D03*
X107509706Y-57506626D03*
%TD*%
%TO.C,D50*%
X107962254Y-61159174D03*
X107509706Y-60706626D03*
%TD*%
%TO.C,D52*%
X107962254Y-64359174D03*
X107509706Y-63906626D03*
%TD*%
%TO.C,D38*%
X106355111Y-54759174D03*
X105902563Y-54306626D03*
%TD*%
D31*
%TO.C,C18*%
X98200000Y-63675000D03*
X98200000Y-64315000D03*
%TD*%
D27*
%TO.C,D25*%
X103140826Y-59559174D03*
X102688278Y-59106626D03*
%TD*%
D59*
%TO.C,BT1*%
X92455000Y-47050000D03*
D60*
X93725000Y-47050000D03*
%TD*%
D31*
%TO.C,C5*%
X106800000Y-72030000D03*
X106800000Y-72670000D03*
%TD*%
D27*
%TO.C,D34*%
X104747969Y-61159174D03*
X104295421Y-60706626D03*
%TD*%
D29*
%TO.C,C8*%
X97380000Y-69300000D03*
X96420000Y-69300000D03*
%TD*%
D30*
%TO.C,C7*%
X97750000Y-70750000D03*
X97110000Y-70750000D03*
%TD*%
D63*
%TO.C,X1*%
X100650000Y-77725000D03*
X102850000Y-77725000D03*
X102850000Y-76025000D03*
X100650000Y-76025000D03*
%TD*%
D27*
%TO.C,D65*%
X111176540Y-59559174D03*
X110723992Y-59106626D03*
%TD*%
D47*
%TO.C,R16*%
X105330000Y-51750000D03*
X105970000Y-51750000D03*
%TD*%
D56*
%TO.C,R6*%
X106900000Y-75890000D03*
X106900000Y-75250000D03*
%TD*%
D27*
%TO.C,D17*%
X101533683Y-59559174D03*
X101081135Y-59106626D03*
%TD*%
D51*
%TO.C,H1*%
X88900000Y-47350000D03*
%TD*%
D27*
%TO.C,D43*%
X106355111Y-62759174D03*
X105902563Y-62306626D03*
%TD*%
D64*
%TO.C,C11*%
X105000000Y-76550000D03*
X105960000Y-76550000D03*
%TD*%
%TO.C,C15*%
X95240000Y-56500000D03*
X96200000Y-56500000D03*
%TD*%
D56*
%TO.C,D3*%
X87150000Y-65665000D03*
X87150000Y-65025000D03*
%TD*%
D52*
%TO.C,C13*%
X91500000Y-48690000D03*
X91500000Y-49650000D03*
%TD*%
D31*
%TO.C,D1*%
X87100000Y-57335000D03*
X87100000Y-57975000D03*
%TD*%
%TO.C,R2*%
X94750000Y-70900000D03*
X94750000Y-71540000D03*
%TD*%
D27*
%TO.C,D42*%
X106355111Y-61159174D03*
X105902563Y-60706626D03*
%TD*%
D56*
%TO.C,D4*%
X87150000Y-67840000D03*
X87150000Y-67200000D03*
%TD*%
D27*
%TO.C,D15*%
X101533683Y-56359174D03*
X101081135Y-55906626D03*
%TD*%
D47*
%TO.C,C24*%
X90810000Y-45500000D03*
X91450000Y-45500000D03*
%TD*%
D27*
%TO.C,D62*%
X111176540Y-54759174D03*
X110723992Y-54306626D03*
%TD*%
%TO.C,D61*%
X111176540Y-53135448D03*
X110723992Y-52682900D03*
%TD*%
D31*
%TO.C,R15*%
X110250000Y-45430000D03*
X110250000Y-46070000D03*
%TD*%
D56*
%TO.C,C23*%
X112300000Y-66470000D03*
X112300000Y-65830000D03*
%TD*%
%TO.C,R14*%
X98200000Y-62915000D03*
X98200000Y-62275000D03*
%TD*%
%LPD*%
M02*
